<?xml version="1.0" encoding="utf-8"?>
<!-- Generator: Adobe Illustrator 25.4.1, SVG Export Plug-In . SVG Version: 6.00 Build 0)  -->
<svg version="1.1" id="Capa_1" xmlns="http://www.w3.org/2000/svg" xmlns:xlink="http://www.w3.org/1999/xlink" x="0px" y="0px"
	 viewBox="0 0 512 512" style="enable-background:new 0 0 512 512;" xml:space="preserve">
<style type="text/css">
	.st0{fill:#43425D;}
</style>
<g>
	<path class="st0" d="M459.4,100.8l22.4,0l0-30l-68.6-0.1l-8.9,69.2l29.8,3.8l2.9-22.9c29.2,38.9,45,85.9,45.1,135.4
		c0,60.4-23.4,117.1-66.1,159.7c-42.6,42.6-99.3,66.1-159.6,66.1h-0.2c-60.4,0-117.1-23.6-159.9-66.3C53.6,373,30,316.2,30,255.9
		c0-60.4,23.4-117.1,66.1-159.7c64-64,159.7-83.5,243.8-49.9L351,18.4c-95.3-38.2-203.7-16-276.2,56.5C26.5,123.2-0.1,187.5,0,255.9
		c0.1,68.4,26.7,132.7,75.1,181s112.7,75,181.1,75.1h0.2c68.3,0,132.5-26.6,180.8-74.8c48.3-48.3,74.9-112.6,74.9-181
		C512,199.3,493.5,145.2,459.4,100.8L459.4,100.8z"/>
	<path class="st0" d="M256,100.1c-86,0-156,70-156,156s70,156,156,156s156-70,156-156S342,100.1,256,100.1z M320.3,271H241v-79.3h30
		V241h49.3V271z"/>
</g>
</svg>
