<svg xmlns="http://www.w3.org/2000/svg" width="17.119" height="16.995" viewBox="0 0 17.119 16.995">
    <defs>
        <style>
            .cls-1{fill:#e74c3c}
        </style>
    </defs>
    <g id="time-left" transform="translate(0 -1.688)">
        <g id="Layer_2_16_" transform="translate(0 1.688)">
            <g id="Group_2878">
                <path id="Path_3115" d="M253.658 423.176c-.141.035-.285.066-.428.093a.688.688 0 0 0 .251 1.353c.17-.032.342-.069.51-.111a.688.688 0 0 0-.333-1.335z" class="cls-1" transform="translate(-243.369 -407.646)"/>
                <path id="Path_3116" d="M412.659 137.566a.688.688 0 0 0 1.307-.433c-.054-.164-.115-.329-.179-.49a.688.688 0 1 0-1.278.511c.054.135.105.273.15.412z" class="cls-1" transform="translate(-397.282 -131.26)"/>
                <path id="Path_3117" d="M321.584 394.025c-.121.08-.247.158-.373.23a.688.688 0 1 0 .688 1.192c.15-.087.3-.179.444-.274a.688.688 0 0 0-.759-1.148z" class="cls-1" transform="translate(-309.059 -379.478)"/>
                <path id="Path_3118" d="M429.01 207.973a.688.688 0 1 0-1.375.054c.006.145.007.293 0 .438a.688.688 0 1 0 1.376.03c.008-.174.006-.349-.001-.522z" class="cls-1" transform="translate(-411.898 -199.745)"/>
                <path id="Path_3119" d="M378.157 344.206a.688.688 0 0 0-.964.138c-.087.116-.179.231-.274.342a.688.688 0 0 0 .078.97c.016.014.033.027.05.039a.688.688 0 0 0 .92-.117c.112-.132.222-.269.327-.408a.688.688 0 0 0-.137-.964z" class="cls-1" transform="translate(-362.892 -331.469)"/>
                <path id="Path_3120" d="M414.8 279.383a.688.688 0 0 0-.863.451c-.043.139-.092.278-.144.414a.688.688 0 0 0 1.286.49c.062-.162.119-.328.171-.492a.688.688 0 0 0-.45-.863z" class="cls-1" transform="translate(-398.526 -269.134)"/>
                <path id="Path_3121" d="M7.286 17.317a7.106 7.106 0 0 1-1.765-.561l-.02-.011c-.132-.062-.264-.129-.391-.2a7.341 7.341 0 0 1-.685-.428 7.181 7.181 0 0 1 .03-11.763l.025-.017a7.193 7.193 0 0 1 8.062-.065L12 5.05c-.149.216-.058.374.2.35l2.336-.209a.385.385 0 0 0 .348-.5l-.627-2.26c-.07-.253-.25-.284-.4-.067l-.539.779A8.5 8.5 0 0 0 7.1 1.816q-.33.057-.652.139l-.025.007a8.486 8.486 0 0 0-4.711 3.154c-.01.012-.02.023-.029.036l-.116.16c-.062.088-.123.179-.182.269l-.019.033a8.484 8.484 0 0 0-1.356 5v.018c.008.173.021.348.04.52 0 .011 0 .022.005.033.019.173.043.347.074.521a8.493 8.493 0 0 0 2.395 4.606l.009.009a8.672 8.672 0 0 0 1.1.916 8.485 8.485 0 0 0 3.412 1.428.688.688 0 0 0 .243-1.355z" class="cls-1" transform="translate(0 -1.688)"/>
                <path id="Path_3122" d="M206.544 83.2a.557.557 0 0 0-.557.557V89.3l5.073 2.623a.557.557 0 0 0 .511-.989l-4.471-2.31v-4.869a.557.557 0 0 0-.556-.555z" class="cls-1" transform="translate(-198.407 -80.199)"/>
            </g>
        </g>
    </g>
</svg>
