<?xml version="1.0" encoding="utf-8"?>
<!-- Generator: Adobe Illustrator 17.0.0, SVG Export Plug-In . SVG Version: 6.00 Build 0)  -->
<!DOCTYPE svg PUBLIC "-//W3C//DTD SVG 1.1//EN" "http://www.w3.org/Graphics/SVG/1.1/DTD/svg11.dtd">
<svg version="1.1" id="Layer_1" xmlns="http://www.w3.org/2000/svg" xmlns:xlink="http://www.w3.org/1999/xlink" x="0px" y="0px"
	 width="79.115px" height="91.592px" viewBox="0 0 79.115 91.592" enable-background="new 0 0 79.115 91.592" xml:space="preserve">
<g id="group_2_" transform="translate(0 -38.84)">
	<g id="Group_3567" transform="translate(0 45.858)">
		<g id="Group_3566">
			<path id="Path_4148" fill="#6F3FD8" d="M21.763,47.733c-0.002-2.451,0.427-4.882,1.267-7.184h-8.038
				C6.717,40.56,0.011,47.265,0,55.541v16.551c0.015,4.959,4.035,8.973,8.994,8.981h13.284c-0.341-0.962-0.515-1.975-0.515-2.996
				L21.763,47.733z"/>
		</g>
	</g>
	<g id="Group_3569" transform="translate(4.096 44.706)">
		<g id="Group_3568">
			<path id="Path_4149" fill="#6F3FD8" d="M57.026,33.892H38.665c-8.276,0.011-14.981,6.717-14.992,14.992v30.358
				c0,1.655,1.341,2.996,2.996,2.996l0,0h42.354c1.655,0,2.996-1.341,2.996-2.996l0,0V48.885
				C72.007,40.609,65.302,33.904,57.026,33.892L57.026,33.892z"/>
		</g>
	</g>
	<g id="Group_3571" transform="translate(5.002 38.84)">
		<g id="Group_3570">
			<path id="Path_4150" fill="#6F3FD8" d="M46.936,0c-9.957,0-18.029,8.072-18.029,18.029c0,9.957,8.072,18.029,18.029,18.029
				c9.954,0,18.025-8.068,18.029-18.022C64.958,8.081,56.891,0.011,46.936,0z"/>
		</g>
	</g>
	<g id="Group_3573" transform="translate(1.001 41.32)">
		<g id="Group_3572">
			<path id="Path_4151" fill="#6F3FD8" d="M19.271,14.329c-7.445,0.004-13.478,6.042-13.474,13.488
				c0.004,7.445,6.042,13.478,13.488,13.474c7.44-0.004,13.47-6.034,13.474-13.474C32.752,20.371,26.717,14.336,19.271,14.329z"/>
		</g>
	</g>
</g>
</svg>
