<svg xmlns="http://www.w3.org/2000/svg" width="10.8" height="13" viewBox="0 0 10.8 13">
    <g>
        <path fill="#c59432" d="M39.4 6.5a.5.5 0 0 1-.5.5h-1a.5.5 0 0 1-.5-.5.5.5 0 0 1 .5-.5h1a.5.5 0 0 1 .5.5zm0-3.2a.5.5 0 0 0-.5-.5h-1a.5.5 0 0 0-.5.5.5.5 0 0 0 .5.5h1a.5.5 0 0 0 .5-.5zm0 6.4a.5.5 0 0 0-.5-.5h-1a.5.5 0 0 0-.5.5.5.5 0 0 0 .5.5h1a.5.5 0 0 0 .5-.5zm8.8-8.1v9.8a1.6 1.6 0 0 1-1.6 1.6h-7a1.6 1.6 0 0 1-1.6-1.6v-.8h.9a.9.9 0 0 0 0-1.8H38V7.4h.9a.9.9 0 1 0 0-1.8H38V4.2h.9a.9.9 0 1 0 0-1.8H38v-.8A1.6 1.6 0 0 1 39.6 0h7a1.6 1.6 0 0 1 1.6 1.6zm-6.343 3.143A1.543 1.543 0 1 0 43.4 3.2a1.543 1.543 0 0 0-1.543 1.543zM45.8 8.514A1.714 1.714 0 0 0 44.086 6.8h-1.372A1.714 1.714 0 0 0 41 8.514V9.2h4.8z" transform="translate(-37.4)"/>
    </g>
</svg>
