<?xml version="1.0" encoding="utf-8"?>
<!-- Generator: Adobe Illustrator 17.0.0, SVG Export Plug-In . SVG Version: 6.00 Build 0)  -->
<!DOCTYPE svg PUBLIC "-//W3C//DTD SVG 1.1//EN" "http://www.w3.org/Graphics/SVG/1.1/DTD/svg11.dtd">
<svg version="1.1" id="Layer_1" xmlns="http://www.w3.org/2000/svg" xmlns:xlink="http://www.w3.org/1999/xlink" x="0px" y="0px"
	 width="512px" height="512px" viewBox="0 0 512 512" enable-background="new 0 0 512 512" xml:space="preserve">
<path fill="#1ABC9C" d="M304.766,0.426c-8.57,2.59-16.41,7.258-22.898,13.746L49.48,246.555
	c-6.617,6.617-11.191,14.516-13.734,22.898l224.18-44.836L304.766,0.426z"/>
<path fill="#1ABC9C" d="M495.867,150.16L359.879,14.168C353.004,7.297,344.609,2.481,335.441,0l-48.059,240.305
	c-1.188,5.938-5.828,10.582-11.766,11.77L35.309,300.137c2.438,8.953,7.152,17.414,14.172,24.434l11.945,11.945L4.391,393.551
	c-5.855,5.859-5.855,15.355,0.004,21.215c2.93,2.926,6.766,4.391,10.605,4.391s7.676-1.465,10.605-4.391l57.035-57.035
	l24.227,24.227L4.391,484.434c-5.855,5.855-5.855,15.355,0.004,21.211c2.93,2.93,6.766,4.395,10.605,4.395s7.676-1.465,10.605-4.395
	l102.477-102.477l24.227,24.23l-57.031,57.035c-5.859,5.855-5.859,15.355,0,21.211c2.926,2.93,6.766,4.395,10.605,4.395
	s7.676-1.465,10.605-4.395l57.035-57.031l11.945,11.945c10.391,10.387,24.242,16.109,39.008,16.109s28.621-5.723,39.008-16.109
	l232.383-232.383C517.379,206.664,517.379,171.668,495.867,150.16z"/>
</svg>
