<?xml version="1.0" encoding="utf-8"?>
<!-- Generator: Adobe Illustrator 17.0.0, SVG Export Plug-In . SVG Version: 6.00 Build 0)  -->
<!DOCTYPE svg PUBLIC "-//W3C//DTD SVG 1.1//EN" "http://www.w3.org/Graphics/SVG/1.1/DTD/svg11.dtd">
<svg version="1.1" id="Layer_1" xmlns="http://www.w3.org/2000/svg" xmlns:xlink="http://www.w3.org/1999/xlink" x="0px" y="0px"
	 width="512px" height="512px" viewBox="0 0 512 512" enable-background="new 0 0 512 512" xml:space="preserve">
<path fill="#8697BA" d="M256,0C115.391,0,0,115.391,0,256s115.391,256,256,256c44.797,0,88.902-11.836,127.527-34.234
	l-15.059-25.957C334.414,471.555,295.52,482,256,482C131.93,482,30,380.07,30,256S131.93,30,256,30s226,101.93,226,226
	c0,39.902-10.441,78.867-30,112.719V332h-30v90h90v-30h-39.023C498.172,351.672,512,303.777,512,256C512,115.391,396.609,0,256,0z"
	/>
<path fill="#8697BA" d="M256,90c-90.98,0-166,75.02-166,166s75.02,166,166,166s166-75.02,166-166S346.98,90,256,90z M361,271H241
	V150h30v91h90V271z"/>
</svg>
