<?xml version="1.0" encoding="utf-8"?>
<!-- Generator: Adobe Illustrator 17.0.0, SVG Export Plug-In . SVG Version: 6.00 Build 0)  -->
<!DOCTYPE svg PUBLIC "-//W3C//DTD SVG 1.1//EN" "http://www.w3.org/Graphics/SVG/1.1/DTD/svg11.dtd">
<svg version="1.1" id="Capa_1" xmlns="http://www.w3.org/2000/svg" xmlns:xlink="http://www.w3.org/1999/xlink" x="0px" y="0px"
	 width="492.508px" height="492.508px" viewBox="0 0 492.508 492.508" enable-background="new 0 0 492.508 492.508"
	 xml:space="preserve">
<g>
	<g>
		<g>
			<path fill="#979797" d="M295.271,410.961h-26.369v38.067h223.607v-38.067h-26.37c1.437-2.617,2.255-5.621,2.255-8.816
				c0-10.14-8.221-18.361-18.36-18.361H311.375c-10.139,0-18.36,8.22-18.36,18.361C293.016,405.34,293.835,408.343,295.271,410.961z
				"/>
			<path fill="#979797" d="M321.227,61.641l-5.622-8.851c-5.94-9.354-18.336-12.121-27.688-6.182l-113.924,72.343
				c-9.353,5.94-12.12,18.336-6.182,27.69l5.622,8.85c5.591,8.807,16.91,11.772,26.021,7.129l117.157-74.396
				C324.688,81.952,326.816,70.447,321.227,61.641z"/>
			<path fill="#979797" d="M0.237,380.322c2.536,1.459,4.874,2.612,7.059,3.522l1.639,0.68l1.574,0.58
				c1.069,0.417,2.055,0.706,3.061,1.023c4.02,1.267,7.645,1.911,11.054,2.216c6.789,0.566,12.594-0.42,17.63-2.614
				c1.263-0.541,2.456-1.197,3.657-1.837l3.603-1.922c2.409-1.266,4.776-2.6,7.159-3.912c2.387-1.303,4.748-2.651,7.106-4
				c2.366-1.339,4.718-2.695,7.055-4.078c4.696-2.732,9.342-5.539,13.985-8.357l6.936-4.266l6.898-4.324
				c4.584-2.91,9.16-5.825,13.707-8.792c4.557-2.955,9.092-5.938,13.602-8.964l13.514-9.095l13.422-9.242l13.346-9.361l13.275-9.474
				l13.211-9.577l13.14-9.686c4.364-3.255,8.731-6.503,13.062-9.808c4.341-3.291,8.689-6.567,12.998-9.91l-4.399-6.929
				l18.887-15.622l24.781,39.026l117.157-74.395l-60.944-95.974l-117.156,74.395l24.781,39.026l-22.17,10.449l-4.398-6.928
				c-4.857,2.477-9.676,5.019-14.498,7.548c-4.834,2.516-9.631,5.087-14.433,7.653l-14.354,7.773l-14.287,7.882l-14.219,7.987
				l-14.149,8.096l-14.072,8.22l-13.979,8.363c-4.656,2.793-9.285,5.631-13.896,8.496c-4.618,2.854-9.205,5.756-13.785,8.667
				l-6.85,4.405l-6.812,4.464c-4.527,3.002-9.042,6.014-13.51,9.103c-2.246,1.526-4.473,3.08-6.691,4.651
				c-2.225,1.56-4.448,3.123-6.644,4.729c-2.2,1.597-4.415,3.172-6.587,4.815l-3.271,2.443c-1.092,0.814-2.191,1.615-3.218,2.528
				c-4.128,3.623-7.489,8.459-9.866,14.845c-1.172,3.215-2.131,6.769-2.693,10.946c-0.14,1.045-0.3,2.061-0.375,3.204l-0.146,1.672
				l-0.082,1.771C-0.053,374.799-0.005,377.405,0.237,380.322z"/>
			<path fill="#979797" d="M430.792,234.187l-5.62-8.85c-5.592-8.808-16.911-11.772-26.022-7.13l-117.156,74.395
				c-8.077,6.272-10.207,17.775-4.615,26.583l5.621,8.852c5.939,9.353,18.335,12.119,27.689,6.181l113.922-72.341
				C433.965,255.938,436.733,243.541,430.792,234.187z"/>
		</g>
	</g>
</g>
</svg>
