<svg xmlns="http://www.w3.org/2000/svg" id="businessman" width="14.439" height="14.439" viewBox="0 0 14.439 14.439">
    <defs>
        <style>
            .cls-1{fill:#16a085}
        </style>
    </defs>
    <g id="Group_3563">
        <g id="Group_3562">
            <circle id="Ellipse_547" cx="3.938" cy="3.938" r="3.938" class="cls-1" transform="translate(3.282)"/>
            <path id="Path_4146" d="M12.824 278.813a14.534 14.534 0 0 0-2.791-1.084.327.327 0 0 0-.394.206l-1.345 3.753-.407-2.037.629-1.886a.329.329 0 0 0-.312-.432H6.235a.329.329 0 0 0-.312.432l.629 1.886-.407 2.037-1.345-3.752a.327.327 0 0 0-.394-.206 14.532 14.532 0 0 0-2.791 1.084A2.953 2.953 0 0 0 0 281.447v.48a1.314 1.314 0 0 0 1.313 1.313h11.814a1.314 1.314 0 0 0 1.313-1.313v-.48a2.953 2.953 0 0 0-1.616-2.634z" class="cls-1" transform="translate(0 -268.801)"/>
        </g>
    </g>
</svg>
