<svg xmlns="http://www.w3.org/2000/svg" width="17.608" height="17">
    <path data-name="megaphone (1)" d="M14.36 18.012a18.067 18.067 0 0 0-7.526 1.969L3.909 21.67a1.616 1.616 0 0 1-2.209-.591L.216 18.5a1.617 1.617 0 0 1 .591-2.2l2.424-1.4a.294.294 0 0 1 .4.107l1.9 3.3a.293.293 0 0 0 .408.1.3.3 0 0 0 .1-.407L4.12 14.678a.293.293 0 0 1 .087-.387A18.062 18.062 0 0 0 9.2 9.076a1.229 1.229 0 0 1 2.1.041l4.072 7.053a1.228 1.228 0 0 1-1.012 1.842zm.522-4.912a1.836 1.836 0 0 0-1.172-2.024.294.294 0 0 0-.353.423l.981 1.7a.294.294 0 0 0 .544-.099zM8.108 23.484l-1.393-2.418a.294.294 0 0 0-.4-.108l-1.79 1.034a.294.294 0 0 0-.108.4l1.4 2.416a.954.954 0 0 0 .828.478c.318 0 .439-.107 1.119-.5a.955.955 0 0 0 .344-1.302zm8.917-12.616a.293.293 0 1 0-.293-.508l-.759.438a.294.294 0 0 0 .147.548c.104 0 .08-.003.905-.478zm-2.7-1.521.185-.691a.293.293 0 1 0-.567-.152l-.183.696a.293.293 0 1 0 .567.152zM17.6 14a.293.293 0 0 0-.208-.359l-.691-.185a.293.293 0 0 0-.152.567 4.757 4.757 0 0 0 .767.2A.294.294 0 0 0 17.6 14z" transform="translate(0 -8.287)" style="fill:#fff"/>
</svg>
