<svg xmlns="http://www.w3.org/2000/svg" width="16.297" height="16.113" viewBox="0 0 16.297 16.113">
    <g>
        <path fill="#fff" d="M13.794 6.154a1.457 1.457 0 1 0-.313-.465 1.489 1.489 0 0 0 .313.465zm-.427 1.354V11.9h.733a4.167 4.167 0 0 0 .749-.071 2.336 2.336 0 0 0 .71-.248 1.583 1.583 0 0 0 .529-.467 1.21 1.21 0 0 0 .209-.729V7.507zm-2.373-1.843a1.417 1.417 0 0 0 .567-.114 1.461 1.461 0 0 0 0-2.691 1.418 1.418 0 0 0-.567-.114 1.4 1.4 0 0 0-.563.114c-.133.057-.175.131-.357.22v2.251c.183.09.224.163.357.22a1.4 1.4 0 0 0 .565.114zm-.923 7.4c.183.04.249.07.379.088a3.115 3.115 0 0 0 .43.031 3.246 3.246 0 0 0 .66-.071 1.951 1.951 0 0 0 .626-.244 1.438 1.438 0 0 0 .467-.463 1.332 1.332 0 0 0 .184-.728V6.592h-2.746v6.472zM0 14.465l9.522 1.648V0L0 1.648z"/>
    </g>
    <path fill="#5558af" d="M378.994 722.4l-4.394.268v1.013l1.648-.066v4.7l1.1.064v-4.807l1.648-.073z" transform="translate(-372.036 -717.456)"/>
</svg>
