<?xml version="1.0" encoding="utf-8"?>
<!-- Generator: Adobe Illustrator 17.0.0, SVG Export Plug-In . SVG Version: 6.00 Build 0)  -->
<!DOCTYPE svg PUBLIC "-//W3C//DTD SVG 1.1//EN" "http://www.w3.org/Graphics/SVG/1.1/DTD/svg11.dtd">
<svg version="1.1" id="Capa_1" xmlns="http://www.w3.org/2000/svg" xmlns:xlink="http://www.w3.org/1999/xlink" x="0px" y="0px"
	 width="512px" height="512px" viewBox="0 0 512 512" enable-background="new 0 0 512 512" xml:space="preserve">
<g>
	<path fill="#8697BA" d="M376,75.003h-60v-45c0-8.284-6.716-15-15-15h-90c-8.284,0-15,6.716-15,15v45h-60c-8.284,0-15,6.716-15,15
		v45h270v-45C391,81.719,384.284,75.003,376,75.003z M286,75.003h-60v-30h60V75.003z"/>
	<path fill="#8697BA" d="M271,195.003c0,8.284-6.716,15-15,15s-15-6.716-15-15v-30H121v85c0,19.299,15.701,35,35,35h200
		c19.299,0,35-15.701,35-35v-85H271V195.003z"/>
	<path fill="#8697BA" d="M89.637,310.641L30,370.278V336.49c0-8.284-6.716-15-15-15s-15,6.716-15,15v70c0,8.284,6.716,15,15,15h70
		c8.284,0,15-6.716,15-15s-6.716-15-15-15H51.213l59.637-59.637c5.858-5.857,5.858-15.355,0-21.213
		C104.993,304.783,95.495,304.783,89.637,310.641z"/>
	<path fill="#8697BA" d="M497,321.49c-8.284,0-15,6.716-15,15v33.788l-59.637-59.637c-5.857-5.857-15.355-5.857-21.213,0
		s-5.858,15.355,0,21.213l59.637,59.637H427c-8.284,0-15,6.716-15,15s6.716,15,15,15h70c8.284,0,15-6.716,15-15v-70
		C512,328.206,505.284,321.49,497,321.49z"/>
	<path fill="#8697BA" d="M294.891,421.9L271,445.79v-88.787c0-8.284-6.716-15-15-15s-15,6.716-15,15v88.787l-23.891-23.89
		c-5.857-5.857-15.355-5.857-21.213,0s-5.858,15.355,0,21.213l49.495,49.495c5.855,5.856,15.368,5.851,21.218,0l49.495-49.495
		c5.858-5.857,5.858-15.355,0-21.213C310.246,416.041,300.749,416.041,294.891,421.9L294.891,421.9z"/>
</g>
</svg>
