<?xml version="1.0" encoding="utf-8"?>
<!-- Generator: Adobe Illustrator 17.0.0, SVG Export Plug-In . SVG Version: 6.00 Build 0)  -->
<!DOCTYPE svg PUBLIC "-//W3C//DTD SVG 1.1//EN" "http://www.w3.org/Graphics/SVG/1.1/DTD/svg11.dtd">
<svg version="1.1" id="_x31__x2C_5" xmlns="http://www.w3.org/2000/svg" xmlns:xlink="http://www.w3.org/1999/xlink" x="0px"
	 y="0px" width="512px" height="512px" viewBox="0 0 512 512" enable-background="new 0 0 512 512" xml:space="preserve">
<path fill="#0276C4" d="M432,512H186.667C154.304,512,128,485.696,128,453.333V122.667C128,90.304,154.304,64,186.667,64H432
	c32.363,0,58.667,26.304,58.667,58.667v330.667C490.667,485.696,464.363,512,432,512z M186.667,96
	C171.968,96,160,107.968,160,122.667v330.667C160,468.032,171.968,480,186.667,480H432c14.699,0,26.667-11.968,26.667-26.667
	V122.667C458.667,107.968,446.699,96,432,96H186.667z"/>
<path fill="#0276C4" d="M282.667,261.333H208c-8.832,0-16-7.168-16-16v-74.667c0-8.832,7.168-16,16-16h74.667
	c8.832,0,16,7.168,16,16v74.667C298.667,254.165,291.499,261.333,282.667,261.333z M224,229.333h42.667v-42.667H224V229.333z"/>
<path fill="#0276C4" d="M416,256h-64c-8.832,0-16-7.168-16-16c0-8.832,7.168-16,16-16h64c8.832,0,16,7.168,16,16
	C432,248.832,424.832,256,416,256z"/>
<path fill="#0276C4" d="M416,192h-64c-8.832,0-16-7.168-16-16c0-8.832,7.168-16,16-16h64c8.832,0,16,7.168,16,16
	S424.832,192,416,192z"/>
<path fill="#0276C4" d="M410.667,426.667H208c-8.832,0-16-7.168-16-16c0-8.832,7.168-16,16-16h202.667c8.832,0,16,7.168,16,16
	C426.667,419.499,419.499,426.667,410.667,426.667z"/>
<path fill="#0276C4" d="M410.667,341.333H208c-8.832,0-16-7.168-16-16s7.168-16,16-16h202.667c8.832,0,16,7.168,16,16
	S419.499,341.333,410.667,341.333z"/>
<path fill="#0276C4" d="M80,448c-32.363,0-58.667-26.304-58.667-58.667V58.667C21.333,26.304,47.637,0,80,0h245.333
	c8.832,0,16,7.168,16,16s-7.168,16-16,16H80c-14.699,0-26.667,11.968-26.667,26.667v330.667C53.333,404.032,65.301,416,80,416
	c8.832,0,16,7.168,16,16C96,440.832,88.832,448,80,448z"/>
</svg>
