<svg xmlns="http://www.w3.org/2000/svg" width="13.572" height="17">
    <defs>
        <style>
            .cls-1{fill:#2365a5}
        </style>
    </defs>
    <g id="quarter-of-an-hour" transform="translate(-48.132)">
        <g id="Layer_2_24_" transform="translate(48.132)">
            <g id="Group_4452" data-name="Group 4452">
                <path id="Path_4936" data-name="Path 4936" class="cls-1" d="m59.615 5.32.743-1.049a.422.422 0 0 0-.1-.589l-1.12-.793a.423.423 0 0 0-.589.1l-.761 1.075a6.718 6.718 0 0 0-1.8-.552v-.437a.511.511 0 0 1 .509-.509h.281a.511.511 0 0 0 .509-.509V.509A.511.511 0 0 0 56.779 0h-3.721a.511.511 0 0 0-.509.509v1.548a.511.511 0 0 0 .509.509h.281a.511.511 0 0 1 .509.509v.437a6.734 6.734 0 0 0-1.918.61l-.754-1.065a.422.422 0 0 0-.589-.1l-1.12.793a.422.422 0 0 0-.1.589l.761 1.074a6.786 6.786 0 1 0 9.489-.093zm-4.7 10.051a5.158 5.158 0 1 1 5.158-5.158 5.164 5.164 0 0 1-5.155 5.158z" transform="translate(-48.132)"/>
                <path id="Path_4937" data-name="Path 4937" class="cls-1" d="M237.8 167.411h-.034v4.218h4.286a4.257 4.257 0 0 0-4.252-4.218z" transform="translate(-231.015 -161.45)"/>
            </g>
        </g>
    </g>
</svg>
