<?xml version="1.0" encoding="utf-8"?>
<!-- Generator: Adobe Illustrator 17.0.0, SVG Export Plug-In . SVG Version: 6.00 Build 0)  -->
<!DOCTYPE svg PUBLIC "-//W3C//DTD SVG 1.1//EN" "http://www.w3.org/Graphics/SVG/1.1/DTD/svg11.dtd">
<svg version="1.1" id="Capa_1" xmlns="http://www.w3.org/2000/svg" xmlns:xlink="http://www.w3.org/1999/xlink" x="0px" y="0px"
	 width="595.28px" height="841.89px" viewBox="0 0 595.28 841.89" enable-background="new 0 0 595.28 841.89" xml:space="preserve">
<g>
	<g>
		<g>
			<path fill="#D65454" d="M547.509,276.53c-0.712-15.661-0.712-30.609-0.712-45.558c0-12.101-9.254-21.355-21.355-21.355
				c-88.981,0-156.606-25.626-212.842-80.438c-8.542-7.83-21.355-7.83-29.897,0c-56.236,54.812-123.861,80.438-212.842,80.438
				c-12.101,0-21.355,9.254-21.355,21.355c0,14.949,0,29.897-0.712,45.558c-2.847,149.487-7.118,354.499,242.739,440.632
				l7.118,1.424l7.118-1.424C553.915,631.028,550.356,426.729,547.509,276.53z M280.567,483.676
				c-4.271,3.559-9.254,5.695-14.949,5.695h-0.712c-5.695,0-11.39-2.847-14.949-7.118l-66.202-73.32l32.033-28.474l51.965,57.659
				l115.319-109.624l29.186,31.321L280.567,483.676z"/>
		</g>
	</g>
</g>
</svg>
