<svg xmlns="http://www.w3.org/2000/svg" width="15.275" height="14" viewBox="0 0 15.275 14">
    <g>
        <path fill="#1284e8" d="M4.192 24.318a1.958 1.958 0 1 1 1.958 1.958 1.958 1.958 0 0 1-1.958-1.958zm2.9 3.292a2.119 2.119 0 0 1 .4-1.147 2.5 2.5 0 0 0-.513-.053H5.32a2.51 2.51 0 0 0-.511.053 2.124 2.124 0 0 1 .4 1.235 2.137 2.137 0 0 1 1.879-.087zm.331.176a2.236 2.236 0 0 1 1.041 1.66 1.8 1.8 0 1 0-1.041-1.66zm-1.182 3.693a1.8 1.8 0 1 0-1.8-1.8 1.8 1.8 0 0 0 1.8 1.8zm.765.123H5.475a2.313 2.313 0 0 0-2.31 2.31v1.901l.129.04a10.52 10.52 0 0 0 3.141.507 6.446 6.446 0 0 0 2.742-.515l.121-.061h.013v-1.872A2.312 2.312 0 0 0 7.006 31.6zm2.985-1.862H8.472a2.224 2.224 0 0 1-.686 1.549 2.745 2.745 0 0 1 1.96 2.626v.577a6.219 6.219 0 0 0 2.421-.509l.121-.061h.012V32.05a2.312 2.312 0 0 0-2.309-2.31zm.406-3.77a2.236 2.236 0 0 1 1.04 1.661A1.8 1.8 0 1 0 10.4 25.97zm2.568 1.954h-1.519a2.223 2.223 0 0 1-.686 1.549 2.745 2.745 0 0 1 1.96 2.627v.577a6.213 6.213 0 0 0 2.421-.509l.12-.061h.013v-1.873a2.312 2.312 0 0 0-2.309-2.309zm-9.889 1.693a1.792 1.792 0 0 0 .959-.279 2.233 2.233 0 0 1 .839-1.424v-.1a1.8 1.8 0 1 0-1.8 1.8zM4.7 31.289a2.225 2.225 0 0 1-.686-1.54c-.056 0-.112-.008-.169-.008H2.31A2.312 2.312 0 0 0 0 32.05v1.901l.129.04a10.784 10.784 0 0 0 2.6.489v-.565A2.744 2.744 0 0 1 4.7 31.289z" transform="translate(0 -22.36)"/>
    </g>
</svg>
