<svg xmlns="http://www.w3.org/2000/svg" width="11.426" height="13" viewBox="0 0 11.426 13">
    <defs>
        <style>
            .cls-1{fill:#1284e8}
        </style>
    </defs>
    <g id="user_8_" transform="translate(-31)">
        <g id="Group_3577" transform="translate(33.285)">
            <g id="Group_3576">
                <path id="Path_4164" d="M124.428 0a3.428 3.428 0 1 0 3.428 3.428A3.432 3.432 0 0 0 124.428 0z" class="cls-1" transform="translate(-121)"/>
            </g>
        </g>
        <g id="Group_3579" transform="translate(31 7.617)">
            <g id="Group_3578">
                <path id="Path_4165" d="M40.978 301.478a4.887 4.887 0 0 0-3.5-1.478h-1.527a4.887 4.887 0 0 0-3.5 1.478A5 5 0 0 0 31 305a.381.381 0 0 0 .381.381h10.664a.381.381 0 0 0 .381-.381 5 5 0 0 0-1.448-3.522z" class="cls-1" transform="translate(-31 -300)"/>
            </g>
        </g>
    </g>
</svg>
