<svg xmlns="http://www.w3.org/2000/svg" width="187.252" height="120.225" viewBox="0 0 187.252 120.225">
    <defs>
        <clipPath id="8lsmx28esa">
            <path data-name="Rectangle 4757" style="fill:none" d="M0 0h187.252v120.225H0z"/>
        </clipPath>
    </defs>
    <g data-name="Group 7575">
        <g data-name="Group 7574" style="clip-path:url(#8lsmx28esa)">
            <path data-name="Path 10170" d="M1490.659 227.686a33.853 33.853 0 1 1-33.854-33.854 33.863 33.863 0 0 1 33.854 33.854" transform="translate(-1317.74 -179.5)" style="fill:#f2f0ff"/>
            <path data-name="Path 10171" d="M1864.517 851.932c-.432 0-.869-.007-1.3-.022l.019-.547c.422.014.853.021 1.279.021a37.192 37.192 0 0 0 34.909-24.256l.513.191a37.74 37.74 0 0 1-35.423 24.613" transform="translate(-1725.451 -765.97)" style="fill:#b3a4f5"/>
            <path data-name="Path 10172" d="m2365.088 756.731-.526-.152c.266-.921.5-1.866.694-2.809l.537.111c-.2.957-.435 1.916-.7 2.85" transform="translate(-2189.724 -698.036)" style="fill:#b3a4f5"/>
            <path data-name="Path 10173" d="M2249.058 313.9a36.874 36.874 0 0 0-10.452-21.284l.389-.385a37.412 37.412 0 0 1 10.605 21.6z" transform="translate(-2073.081 -270.624)" style="fill:#b3a4f5"/>
            <path data-name="Path 10174" d="M1802.2 149.126a36.865 36.865 0 0 0-22.848-7.833 37.471 37.471 0 0 0-7.981.857l-.117-.535a38.009 38.009 0 0 1 8.1-.87 37.408 37.408 0 0 1 23.184 7.949z" transform="translate(-1640.284 -130.338)" style="fill:#b3a4f5"/>
            <path data-name="Path 10175" d="m1692.082 166.817-.2-.509c.764-.3 1.546-.586 2.325-.838l.169.521c-.767.248-1.538.526-2.291.826" transform="translate(-1566.78 -153.235)" style="fill:#b3a4f5"/>
            <path data-name="Path 10176" d="m1373.9 578.774-.544-.064q.061-.518.136-1.033l.542.079q-.073.507-.134 1.018" transform="translate(-1271.81 -534.963)" style="fill:#b3a4f5"/>
            <path data-name="Path 10177" d="M1375.742 663.932a37.656 37.656 0 0 1-5.875-20.242q0-.32.005-.638l.548.009q-.005.314-.005.629a37.108 37.108 0 0 0 5.79 19.948z" transform="translate(-1268.578 -595.504)" style="fill:#b3a4f5"/>
            <path data-name="Path 10178" d="m2034.863 1173.6-2.3-7.887c.418-.122.843-.254 1.262-.391l2.563 7.806c-.505.166-1.018.325-1.524.472" transform="translate(-1882.272 -1079.161)" style="fill:#ccc2ff"/>
            <path data-name="Path 10179" d="m2069.071 1046.345-2.818-7.717a40.233 40.233 0 0 0 14.908-9.656l5.882 5.735a48.5 48.5 0 0 1-17.972 11.638" transform="translate(-1913.472 -952.889)" style="fill:#ddd6ff"/>
            <path data-name="Path 10180" d="m2293.112 552.5-6.17-5.425a40.057 40.057 0 0 0 8.992-35.056l8.021-1.776a48.274 48.274 0 0 1-10.844 42.257" transform="translate(-2117.844 -472.52)" style="fill:#f2f0ff"/>
            <path data-name="Path 10181" d="M2341.306 314.246c-.57-1.142-1.2-2.27-1.879-3.353l6.965-4.357a48.37 48.37 0 0 1 2.266 4.043z" transform="translate(-2166.448 -283.871)" style="fill:#ddd6ff"/>
            <path data-name="Path 10182" d="M1230 57.364a48.186 48.186 0 0 1 86.1-37.764l-6.61 4.879a39.984 39.984 0 0 0-71.424 31.328z" transform="translate(-1138.243 -.004)" style="fill:#f2f0ff"/>
            <path data-name="Path 10183" d="M1248.272 784.449a47.507 47.507 0 0 1-.776-2.819l7.984-1.938c.19.783.406 1.568.643 2.334z" transform="translate(-1155.255 -722.041)" style="fill:#ddd6ff"/>
            <path data-name="Path 10184" d="M1328.023 900.981a47.97 47.97 0 0 1-17.5-3.279 48.576 48.576 0 0 1-26.631-25.541l7.522-3.3a40.3 40.3 0 0 0 22.095 21.192 40.211 40.211 0 0 0 23.291 1.747l1.8 8.016a48.362 48.362 0 0 1-10.577 1.166" transform="translate(-1188.958 -804.612)" style="fill:#f2f0ff"/>
            <path data-name="Rectangle 4725" transform="translate(13.331 107.694)" style="fill:#8b77e8" d="M0 0h162.64v2.739H0z"/>
            <path data-name="Path 10185" d="M641.217 1493.531z" transform="translate(-537.541 -1383.098)" style="fill:#f8f7ff"/>
            <path data-name="Rectangle 4726" transform="translate(42.92 110.159)" style="fill:#40327a" d="M0 0h60.756v.548H0z"/>
            <path data-name="Path 10186" d="M270.877 1493.531z" transform="translate(-236.262 -1383.098)" style="fill:#f8f7ff"/>
            <path data-name="Rectangle 4727" transform="translate(18.864 110.159)" style="fill:#40327a" d="M0 0h15.751v.548H0z"/>
            <path data-name="Path 10187" d="M508.145 1493.531z" transform="translate(-468.231 -1383.098)" style="fill:#f8f7ff"/>
            <path data-name="Rectangle 4728" transform="translate(37.386 110.159)" style="fill:#40327a" d="M0 0h2.528v.548H0z"/>
            <path data-name="Path 10188" d="M1679.026 1493.531z" transform="translate(-1520.909 -1383.098)" style="fill:#f8f7ff"/>
            <path data-name="Rectangle 4729" transform="translate(121.437 110.159)" style="fill:#40327a" d="M0 0h36.68v.548H0z"/>
            <path data-name="Rectangle 4730" transform="translate(139.383 113.379)" style="fill:#f2f0ff" d="M0 0h44.392v2.739H0z"/>
            <path data-name="Rectangle 4731" transform="translate(128.009 113.379)" style="fill:#e9e6ff" d="M0 0h8.417v2.739H0z"/>
            <path data-name="Rectangle 4732" transform="translate(23.308 118.856)" style="fill:#f2f0ff" d="M0 0h12.19v1.369H0z"/>
            <path data-name="Rectangle 4733" transform="translate(38.147 118.856)" style="fill:#f2f0ff" d="M0 0h1.765v1.369H0z"/>
            <path data-name="Rectangle 4734" transform="translate(43.38 118.856)" style="fill:#f2f0ff" d="M0 0h40.584v1.369H0z"/>
            <path data-name="Rectangle 4735" transform="translate(88.489 118.856)" style="fill:#f2f0ff" d="M0 0h17.41v1.369H0z"/>
            <path data-name="Rectangle 4736" transform="translate(108.164 118.856)" style="fill:#f2f0ff" d="M0 0h36.42v1.369H0z"/>
            <path data-name="Rectangle 4737" transform="translate(148.817 118.856)" style="fill:#f2f0ff" d="M0 0h1.976v1.369H0z"/>
            <path data-name="Rectangle 4738" transform="translate(71.514 113.379)" style="fill:#f2f0ff" d="M0 0h55.272v2.739H0z"/>
            <path data-name="Rectangle 4739" transform="translate(58.113 113.379)" style="fill:#e9e6ff" d="M0 0h10.479v2.739H0z"/>
            <path data-name="Rectangle 4740" transform="translate(54.946 113.379)" style="fill:#ddd6ff" d="M0 0h2.145v2.739H0z"/>
            <path data-name="Rectangle 4741" transform="translate(29.672 113.379)" style="fill:#f2f0ff" d="M0 0h24.18v2.739H0z"/>
            <path data-name="Rectangle 4742" transform="translate(5.794 113.379)" style="fill:#f2f0ff" d="M0 0h20.5v2.739H0z"/>
            <path data-name="Path 10189" d="m495.806 937.134-.27-.477c.326-.184.651-.381.968-.586l.3.46c-.326.21-.661.413-1 .6" transform="translate(-458.896 -866.858)" style="fill:#b3a4f5"/>
            <path data-name="Path 10190" d="m135.384 488.633-.347-.424a19.078 19.078 0 1 0-31.151-15.017l-.548-.007a19.626 19.626 0 1 1 32.046 15.447" transform="translate(-95.697 -420.258)" style="fill:#b3a4f5"/>
            <path data-name="Path 10191" d="M146.084 840.2a19.714 19.714 0 0 1-17.778-11.3l.5-.233a19.111 19.111 0 0 0 21.12 10.6l.11.536a19.756 19.756 0 0 1-3.948.4" transform="translate(-118.819 -767.389)" style="fill:#b3a4f5"/>
            <path data-name="Path 10192" d="M518.037 403.012c-.58-.4-1.186-.782-1.8-1.128l2.431-4.327c.753.423 1.494.887 2.2 1.38z" transform="translate(-478.064 -368.162)" style="fill:#e9e6ff"/>
            <path data-name="Path 10193" d="M380.535 357.586a22.1 22.1 0 0 0-9.32-2.119l.04-4.963a27.032 27.032 0 0 1 11.4 2.593z" transform="translate(-343.767 -324.588)" style="fill:#e9e6ff"/>
            <path data-name="Path 10194" d="m323.2 357.121-.614-4.925q.424-.053.852-.093l.458 4.942q-.349.032-.7.076" transform="translate(-298.737 -326.068)" style="fill:#e9e6ff"/>
            <path data-name="Path 10195" d="M3.123 423.715a27.276 27.276 0 0 1 12.389-37.289l2.142 4.477A22.321 22.321 0 0 0 7.515 421.4z" transform="translate(0 -357.854)" style="fill:#e9e6ff"/>
            <path data-name="Path 10196" d="M81.641 911.677a27.5 27.5 0 0 1-3.279-3.5l3.906-3.062a22.561 22.561 0 0 0 2.686 2.869z" transform="translate(-72.568 -838.187)" style="fill:#e9e6ff"/>
            <path data-name="Path 10197" d="M149.289 965.751c-.4-.269-.808-.554-1.2-.849l2.971-3.976c.323.242.654.476.984.7z" transform="translate(-137.137 -889.875)" style="fill:#e9e6ff"/>
            <path data-name="Path 10198" d="M194.73 530.124a15.1 15.1 0 1 1-15.1-15.1 15.1 15.1 0 0 1 15.1 15.1" transform="translate(-152.365 -476.944)" style="fill:#ffd259"/>
            <path data-name="Path 10199" d="M374.56 589.013a9.22 9.22 0 0 0-.726-.529 9.215 9.215 0 0 0-5.081-1.522v-.548a9.76 9.76 0 0 1 5.382 1.612c.264.174.523.362.768.559z" transform="translate(-341.487 -543.055)" style="fill:#fff"/>
            <path data-name="Path 10200" d="m461.583 641.56-.434-.334a9.229 9.229 0 0 0 1.884-4.813c.025-.265.038-.545.038-.834a9.239 9.239 0 0 0-2.481-6.308l.4-.373a9.783 9.783 0 0 1 2.628 6.68c0 .307-.014.6-.041.885a9.776 9.776 0 0 1-2 5.1" transform="translate(-426.534 -582.398)" style="fill:#fff"/>
            <path data-name="Path 10201" d="M375.552 626.891a6.779 6.779 0 0 0-6.8-6.554v-.548a7.325 7.325 0 0 1 7.346 7.082z" transform="translate(-341.487 -573.962)" style="fill:#fff"/>
            <path data-name="Path 10202" d="m442.118 737.069-.433-.335a6.77 6.77 0 0 0 1.328-3.078l.541.085a7.321 7.321 0 0 1-1.436 3.328" transform="translate(-409.026 -679.409)" style="fill:#fff"/>
            <path data-name="Path 10203" d="M264.108 599.452a4.6 4.6 0 0 0 1.533 1.064 4.6 4.6 0 0 0 4.018-.2l1.375-.756-2.88-5.24-1.537.549a2.621 2.621 0 0 1-3.178-1.206l-2.377-4.324a2.621 2.621 0 0 1-.293-1.667 2.621 2.621 0 0 1 .978-1.662l1.287-1-2.88-5.239-1.375.756a4.6 4.6 0 0 0-2.245 5.149 30.955 30.955 0 0 0 7.576 13.781" transform="translate(-237.436 -536.898)" style="fill:#fff"/>
            <path data-name="Path 10204" d="M1101.419 302.747a2.267 2.267 0 1 1-2.267-2.267 2.267 2.267 0 0 1 2.267 2.267" transform="translate(-1015.78 -278.263)" style="fill:#b3a4f5"/>
            <path data-name="Path 10205" d="M1212.7 302.747a2.267 2.267 0 1 1-2.267-2.267 2.267 2.267 0 0 1 2.267 2.267" transform="translate(-1118.836 -278.263)" style="fill:#b3a4f5"/>
            <path data-name="Path 10206" d="M1323.986 302.747a2.267 2.267 0 1 1-2.267-2.267 2.267 2.267 0 0 1 2.267 2.267" transform="translate(-1221.891 -278.263)" style="fill:#b3a4f5"/>
            <path data-name="Path 10207" d="M923.052 191.822h-42.713a12.089 12.089 0 1 1 0-24.178h30.624a12.1 12.1 0 0 1 12.089 12.089zm-42.713-23.63a11.541 11.541 0 1 0 0 23.083H922.5v-11.542a11.554 11.554 0 0 0-11.541-11.541z" transform="translate(-804.051 -155.249)" style="fill:#b3a4f5"/>
            <path data-name="Path 10208" d="M1796.555 601.159a3.423 3.423 0 0 1-3.268-3.572l.02-.457h-1.651l.279.012-.017.384a4.79 4.79 0 0 0 4.575 5c.077.005.149.006.215.005a4.782 4.782 0 0 0 4.784-4.58l.038-.822h-1.371l-.034.762a3.423 3.423 0 0 1-3.572 3.268" transform="translate(-1659.179 -552.977)" style="fill:#8b77e8"/>
            <path data-name="Path 10209" d="M1711.165 849.375c-.005.151-.005.3-.005.444v.071c0 .285.016.567.041.849l.03.581h19.822l.033-.7c.011-.118.025-.235.03-.356v-.008l1.35-14.4H1711.1z" transform="translate(-1584.582 -774.049)" style="fill:#8b77e8"/>
            <path data-name="Path 10210" d="m1979.607 1065.139-.134-1.769.044-.887-.044.889z" transform="translate(-1833.108 -983.922)" style="fill:#8b77e8"/>
            <path data-name="Path 10211" d="M1696.345 424.345a2.2 2.2 0 0 1-.385.487l-2.479 2.366-.192.556a.608.608 0 0 0 .46.643l2.977.727a.609.609 0 0 0 .736-.447l.308-1.258a1.991 1.991 0 0 1-.524-1.89l.488-1.954.121-.486.577-2.312.592-2.366-2.676-.654a.609.609 0 0 0-.737.447l-.709 2.9a2.189 2.189 0 0 1 1.439 3.24" transform="translate(-1568.084 -386.851)" style="fill:#40327a"/>
            <path data-name="Path 10212" d="m2350.014 684.835 1.765-1.706z" transform="translate(-2176.252 -632.618)" style="fill:#8b77e8"/>
            <path data-name="Path 10213" d="m1566.249 565.592.932-.6-.933.6-1.381.893-12.984 8.41-9.294-11.28a5.507 5.507 0 0 0-.751-.753 5.447 5.447 0 0 0-3.287-1.237c-.017 0-.034-.005-.052-.006h-2.6l.247.011-.038.835a5.329 5.329 0 0 1-5.332 5.1c-.08 0-.163 0-.246-.006a5.337 5.337 0 0 1-5.091-5.571l.016-.371h-2.156a5.447 5.447 0 0 0-3.077 1.121l-4.441 3.391 2.1-6.094-3.646-1.257-9.223 15.927-.015.022a3.735 3.735 0 0 0 4.886 5.221l9.868-4.874-.008-1.824h21.955l-.32 3.407 7.337 6.033.034.028a3.735 3.735 0 0 0 4.967-.2l.015-.016 13.24-12.789-2.1-3.238z" transform="translate(-1393.245 -517.469)" style="fill:#8b77e8"/>
            <path data-name="Path 10214" d="M2327.98 621.771a2.188 2.188 0 0 0-.61.119l-3.62 1.253a1.628 1.628 0 0 0-.353.173l-.932.6-1.381.893 2.1 3.238.039-.038 1.765-1.706 3.209-.158a2.191 2.191 0 0 0-.216-4.376" transform="translate(-2149.459 -575.795)" style="fill:#ff95a9"/>
            <path data-name="Path 10215" d="m1640.412 469.424.041-.119.191-.556 2.48-2.365a2.19 2.19 0 1 0-3.407-2.683l-1.92 3.315-.727 1.256-.838 1.447 3.646 1.257z" transform="translate(-1515.247 -428.402)" style="fill:#ff95a9"/>
            <path data-name="Path 10216" d="M1797.864 597.777a4.782 4.782 0 0 1-4.784 4.58c-.067 0-.139 0-.215-.005a4.79 4.79 0 0 1-4.575-5l.016-.383-.279-.012-.268-.012v.012l-.016.371a5.337 5.337 0 0 0 5.091 5.571c.083.006.166.006.246.006a5.329 5.329 0 0 0 5.332-5.1l.038-.835-.247-.011-.3-.014v.014z" transform="translate(-1655.55 -552.803)" style="fill:#fff"/>
            <path data-name="Path 10217" d="m1820.3 447.15.69-3.467a1.493 1.493 0 1 0-1.173-1.756l-.08.4-.911 4.571a3.982 3.982 0 0 1-4.683 3.127l-.354-.07-.1 2.334-.02.457a3.423 3.423 0 0 0 3.268 3.572 3.423 3.423 0 0 0 3.572-3.268l.034-.762.225-5.058a2.458 2.458 0 0 1-.221-.033z" transform="translate(-1679.562 -408.137)" style="fill:#ff95a9"/>
            <path data-name="Path 10218" d="M1747.8 307.613a5.479 5.479 0 0 1 .579-1.424l4.509.9a4.175 4.175 0 0 0 3.287-.732l-1.163 5.84a1.659 1.659 0 0 1-1.947 1.285l-6.413-1.277-.577 2.312-.122.488-.488 1.954a2 2 0 0 0 1.545 2.438l3.524.7.354.07a3.982 3.982 0 0 0 4.683-3.127l.91-4.571.08-.4a1.493 1.493 0 1 1 1.173 1.756l-.691 3.467.244.049c.074.015.148.025.221.033a2.488 2.488 0 0 0 2.706-1.987l.387-1.942.858-4.307a4.974 4.974 0 0 0-3.6-5.777 16.1 16.1 0 0 1-4.517-2.273l-.244-.049-2.37-.472-.149-.03a1.983 1.983 0 0 0-.68-.015 2.984 2.984 0 0 0-2.629 2.189 3.355 3.355 0 0 0 .228 6.15zm.121 6.24 2.812.558a1.443 1.443 0 0 1-2.881-.119 1.374 1.374 0 0 1 .07-.439" transform="translate(-1616.298 -278.279)" style="fill:#40327a"/>
            <path data-name="Path 10219" d="M1769.314 384.771a1.659 1.659 0 0 0 1.947-1.285l1.163-5.84a4.175 4.175 0 0 1-3.287.732l-4.509-.9a5.478 5.478 0 0 0-.579 1.424l-.311 1.246-.245.979-.592 2.366z" transform="translate(-1632.55 -349.568)" style="fill:#ff95a9"/>
            <path data-name="Path 10220" d="m1753.44 490.569.122-.488z" transform="translate(-1623.789 -453.846)" style="fill:#ff95a9"/>
            <path data-name="Path 10221" d="M1780.559 483.01a1.444 1.444 0 0 0 1.439-1.326l-2.812-.558a1.374 1.374 0 0 0-.07.439 1.443 1.443 0 0 0 1.443 1.445" transform="translate(-1647.567 -445.551)" style="fill:#fff"/>
            <path data-name="Path 10222" d="m1712.843 1045.055.11 2.238.008.183v.041a34.034 34.034 0 0 0 19.728 1.484l-.134-1.768.044-.889.063-1.289z" transform="translate(-1586.194 -967.783)" style="fill:#7760db"/>
            <path data-name="Path 10223" d="m1710.733 754.518.008 1.824.019 4.19h21.363l.245-2.607.32-3.407z" transform="translate(-1584.24 -698.729)" style="fill:#ffc7bd"/>
            <path data-name="Path 10224" d="M981.381 637.751a12.474 12.474 0 0 1 2.651.939 7.667 7.667 0 0 0-1.076-1.142 7.531 7.531 0 0 0-5.511-1.823l.08 1.093a6.444 6.444 0 0 1 3.856.933" transform="translate(-905.172 -588.699)" style="fill:#b3a4f5"/>
            <path data-name="Rectangle 4743" transform="rotate(-67.969 106.666 -26.919)" style="fill:#ccc2ff" d="M0 0h1.243v.548H0z"/>
            <path data-name="Rectangle 4744" transform="rotate(-23.992 294.293 -254.258)" style="fill:#ccc2ff" d="M0 0h1.189v.548H0z"/>
            <path data-name="Path 10225" d="m689.55 1263.258-1.984 2.281 10.481 1.366-.613-2.436-.264.067-1.134-4.508.264-.067-.789-3.135-5.754 6.612z" transform="translate(-636.727 -1163.895)" style="fill:#ffd259"/>
            <path data-name="Path 10226" d="M480.5 1145.168a3.43 3.43 0 0 1-2.79-5.431l1.428-1.985-.222-.16.494-.686.222.16 1.418-1.97-.222-.16 10.486-14.574q-1.038.26-2.042.6l.087.258c-.728.246-1.456.527-2.162.838l-.11-.251a26.771 26.771 0 0 0-2.614 1.323l.136.236a26.5 26.5 0 0 0-13.311 21.807h9.2z" transform="translate(-436.451 -1037.52)" style="fill:#ffd259"/>
            <path data-name="Path 10227" d="m1086.286 1305.936-5.123-6.216-.814-.988a4.934 4.934 0 0 1-.755.382l-.458 7.846-.292-.017-.158 3.413h8.521a26.93 26.93 0 0 0-.482-3.981 3.415 3.415 0 0 1-.435-.441" transform="translate(-998.924 -1202.705)" style="fill:#ffd259"/>
            <path data-name="Path 10228" d="m685.737 1125.48-.087-.258-.088-.261c-.744.251-1.486.538-2.207.855l.11.251.11.25c.707-.31 1.434-.592 2.162-.837" transform="translate(-632.827 -1041.781)" style="fill:#ffaa45"/>
            <path data-name="Path 10229" d="m477.747 1155.062-.136-.236-.138-.239a27.041 27.041 0 0 0-13.586 22.27l.547.025v-.013a26.5 26.5 0 0 1 13.311-21.807" transform="translate(-429.588 -1069.216)" style="fill:#ffaa45"/>
            <path data-name="Path 10230" d="M794.081 886.447a5.719 5.719 0 0 1 .273-7.211l-.411-.362a6.266 6.266 0 0 0-.3 7.9z" transform="translate(-733.795 -813.89)" style="fill:#fff"/>
            <path data-name="Path 10231" d="M1076.949 1068.8q.152.16.289.334-.136-.173-.289-.334" transform="translate(-997.318 -989.775)" style="fill:#ab9af7"/>
            <path data-name="Path 10232" d="M1072.567 1064.62c.108.094.212.192.311.295q-.147-.154-.311-.295" transform="translate(-993.26 -985.901)" style="fill:#ab9af7"/>
            <path data-name="Path 10233" d="M1029.186 1048.9" transform="translate(-953.087 -971.342)" style="fill:#ab9af7"/>
            <path data-name="Path 10234" d="M1068.028 1061.034c.1.075.205.152.3.235-.1-.083-.2-.16-.3-.235" transform="translate(-989.057 -982.581)" style="fill:#ab9af7"/>
            <path data-name="Path 10235" d="M1031 1048.921c.151 0 .3.008.449.023q-.225-.023-.449-.023" transform="translate(-954.771 -971.363)" style="fill:#ab9af7"/>
            <path data-name="Path 10236" d="M1081.362 1074.005a4.503 4.503 0 0 0-.219-.3c.077.1.148.2.216.306z" transform="translate(-1001.202 -994.311)" style="fill:#ab9af7"/>
            <path data-name="Path 10237" d="M1057.9 1055.06c-.058-.03-.119-.054-.178-.081a5.8 5.8 0 0 1 .262.13c-.029-.016-.055-.034-.084-.049" transform="translate(-979.513 -976.973)" style="fill:#ab9af7"/>
            <path data-name="Path 10238" d="M1038.167 1049.379" transform="translate(-961.404 -971.787)" style="fill:#ab9af7"/>
            <path data-name="Path 10239" d="M1063.179 1057.867" transform="translate(-984.567 -979.648)" style="fill:#ab9af7"/>
            <path data-name="Path 10240" d="M1051.6 1052.484" transform="translate(-973.846 -974.663)" style="fill:#ab9af7"/>
            <path data-name="Path 10241" d="M1045.052 1050.587" transform="translate(-967.78 -972.906)" style="fill:#ab9af7"/>
            <path data-name="Path 10242" d="m815.887 1075.571.445-7.624a3.482 3.482 0 0 1-.951.158l-1.393-.274.28-.055a4.682 4.682 0 0 1-2.953-1.8l-.065.05-6.108-7.905 7.478-5.777.724.936 3.038-2.236c-.069-.1-.14-.207-.216-.306l-.021-.028q-.137-.174-.289-.334l-.014-.015c-.1-.1-.2-.2-.31-.295l-.034-.03c-.1-.083-.2-.16-.3-.235l-.083-.06a4.585 4.585 0 0 0-.276-.174c-.047-.028-.094-.057-.142-.083a3.988 3.988 0 0 0-.262-.13c-.057-.027-.113-.054-.171-.078a4.536 4.536 0 0 0-.282-.106c-.052-.018-.1-.037-.157-.054a4.899 4.899 0 0 0-.836-.177l-.081-.01q-.221-.022-.449-.023h-2.018l-.143.749a4 4 0 0 1-7.92-.749h-4.173c-.1 0-.206 0-.307.009a4.721 4.721 0 0 1 3.318 7.812l-3.437 3.953-.42.482.206.18-2.557 2.938.789 3.136.267-.067 1.134 4.508-.267.067.613 2.435 7.165.934 3.574-1.241a2.543 2.543 0 1 1 .843 4.944l-3.855.014h-6.552v.012h17.264V1079l.158-3.413z" transform="translate(-736.225 -971.346)" style="fill:#ffc7bd"/>
            <path data-name="Path 10243" d="M1105.583 701.794a6.135 6.135 0 0 1-1.614 4.443l.4.37a6.678 6.678 0 0 0 1.757-4.837 13.162 13.162 0 0 0-4.7-9.509l-.351.42a12.616 12.616 0 0 1 4.505 9.112" transform="translate(-1019.663 -641.075)" style="fill:#fff"/>
            <path data-name="Path 10244" d="M903.654 658.954a12.53 12.53 0 0 0-4.179.913 6.563 6.563 0 0 0-.7.7 6.444 6.444 0 0 0-1.559 4.715l.337 4.59a3.938 3.938 0 0 1 3.709 3.642l.165 2.253.047.648c.009.125.011.249.008.372v.1a2.3 2.3 0 0 1-.022.276c0 .032-.008.064-.012.1q-.022.155-.055.306c0 .015-.006.029-.009.044a3.91 3.91 0 0 1-.573 1.307l.39.4a4.472 4.472 0 0 0 .824-2.94l-.095-1.289-.1-1.382a11.088 11.088 0 0 0 3.441-1.935 14.213 14.213 0 0 1 6.95-3.1l.871 8.18a6.155 6.155 0 0 0 3.671-5.906 12.554 12.554 0 0 0-13.1-11.985" transform="translate(-830.854 -610.219)" style="fill:#40327a"/>
            <path data-name="Path 10245" d="M808.389 709.109a3.917 3.917 0 0 1-4.7-3.573l-.213-2.9a3.938 3.938 0 0 1 3.058-4.127l-.338-4.6a7.53 7.53 0 0 1 .881-4.142 12.546 12.546 0 0 0-4.868 13.691 5.683 5.683 0 0 0 5.385 9.812z" transform="translate(-740.932 -638.763)" style="fill:#40327a"/>
            <path data-name="Path 10246" d="M954.792 901.93q.016-.137.022-.276a2.3 2.3 0 0 1-.022.276" transform="translate(-884.194 -834.985)" style="fill:#ff95a9"/>
            <path data-name="Path 10247" d="M953.88 906.985" transform="translate(-883.349 -839.639)" style="fill:#ff95a9"/>
            <path data-name="Path 10248" d="m954.438 887.156-.047-.648.047.647c.009.125.011.249.008.372 0-.123 0-.247-.008-.372" transform="translate(-883.823 -820.959)" style="fill:#ff95a9"/>
            <path data-name="Path 10249" d="M946.54 911.408a3.927 3.927 0 0 1-.576 1.3 3.91 3.91 0 0 0 .573-1.307" transform="translate(-876.019 -844.018)" style="fill:#ff95a9"/>
            <path data-name="Path 10250" d="M931.294 941.483q.121-.079.234-.167a3.824 3.824 0 0 1-.234.167" transform="translate(-862.433 -871.714)" style="fill:#ff95a9"/>
            <path data-name="Path 10251" d="M922.748 946.923c.074-.032.148-.063.219-.1-.071.036-.145.067-.219.1" transform="translate(-854.519 -876.815)" style="fill:#ff95a9"/>
            <path data-name="Path 10252" d="M927.324 944.481c.069-.037.137-.076.2-.117-.066.042-.135.08-.2.117" transform="translate(-858.757 -874.537)" style="fill:#ff95a9"/>
            <path data-name="Path 10253" d="M935.315 937.6q-.133.128-.278.242c.1-.076.19-.156.279-.241z" transform="translate(-865.899 -868.275)" style="fill:#ff95a9"/>
            <path data-name="Path 10254" d="M897.915 813.481a4 4 0 0 0 4.676-3.174l.143-.749.583-3.051 1.971-.087a5.888 5.888 0 0 0 5.594-6.506l-.137-1.286-.871-8.18a14.214 14.214 0 0 0-6.95 3.1 11.088 11.088 0 0 1-3.44 1.935l.1 1.382.095 1.289a4.472 4.472 0 0 1-.824 2.94l.707.724a4.164 4.164 0 0 0 2.963 1.248h2.19v.822h-2.19a4.991 4.991 0 0 1-3.551-1.5l-.658-.674a4.507 4.507 0 0 1-1.469.941l-.2-.509a3.913 3.913 0 0 1-.673.194l-.8 4.158-.44 2.3a4.006 4.006 0 0 0 3.174 4.676m6.317-12.6 4.217-.182a2.2 2.2 0 0 1-4.217.182" transform="translate(-828.518 -732.001)" style="fill:#ff95a9"/>
            <path data-name="Path 10255" d="M1026.152 930.754a2.2 2.2 0 0 0 2.04-1.667l-4.217.182a2.2 2.2 0 0 0 2.176 1.484" transform="translate(-948.262 -860.39)" style="fill:#fff"/>
            <path data-name="Path 10256" d="m1118.2 1245.132-6.005 4.952 5.123 6.216a3.417 3.417 0 0 0 1.887 1.165l14.5 3.276h10.539l.369-1.245-22.4-8.209z" transform="translate(-1029.954 -1153.066)" style="fill:#ff95a9"/>
            <path data-name="Path 10257" d="m940.26 1080.027-.724-.936-7.478 5.777 6.108 7.9.064-.05a4.683 4.683 0 0 0 2.953 1.8l1.113-.219a3.362 3.362 0 0 0 .954-.181 4.4 4.4 0 0 0 2.157-6.943l-.19-.237.027-.017-3.5-4.527.433-.335 3.864 5-.026.017a4.936 4.936 0 0 1-1.455 7.043l.815.988 6.005-4.952-4.4-6.732-3.684-5.642z" transform="translate(-863.141 -998.095)" style="fill:#ffc7bd"/>
            <path data-name="Path 10258" d="M1057.126 1145.815a4.948 4.948 0 0 0-.316-5.161l.026-.017-3.864-5-.433.335 3.5 4.527-.027.017.19.237a4.4 4.4 0 0 1-2.157 6.943 3.357 3.357 0 0 1-.954.181l-1.113.219-.28.055 1.393.274a3.48 3.48 0 0 0 .951-.158l-.445 7.624.255.015.292.017.458-7.846a4.979 4.979 0 0 0 2.526-2.265" transform="translate(-973.933 -1051.668)" style="fill:#fff"/>
            <path data-name="Path 10259" d="m803.243 1302.964.264-.067.267-.067-1.134-4.508-.267.067-.264.066z" transform="translate(-742.8 -1202.323)" style="fill:#8b77e8"/>
            <path data-name="Path 10260" d="m678.614 1061.672 5.791 5.038 4.96-5.7.206.18.42-.482 3.437-3.952a4.722 4.722 0 1 0-7.394-5.861l-1.125 1.564.222.16z" transform="translate(-628.437 -971.379)" style="fill:#ffc7bd"/>
            <path data-name="Path 10261" d="m714.951 1217.924-3.352 3.852.207.18.206.179 5.754-6.612 2.557-2.938-.206-.18-.206-.18z" transform="translate(-658.982 -1122.593)" style="fill:#fff"/>
            <path data-name="Path 10262" d="M577.244 1238.521h.5l3.855-.014a2.542 2.542 0 1 0-.843-4.944l-3.574 1.24-7.165-.934-10.477-1.369 1.984-2.281-.207-.18 3.352-3.851-5.791-5.039-5.354 7.442-.222-.16-1.418 1.971.222.16-.494.686-.222-.16-1.428 1.985a3.419 3.419 0 0 0 2.79 5.431h1.9l16.539.008h6.052z" transform="translate(-508.701 -1130.856)" style="fill:#ff95a9"/>
            <path data-name="Path 10263" d="m574.338 1344.8.222.16.222.16.494-.686-.222-.16-.222-.16z" transform="translate(-531.871 -1244.731)" style="fill:#8b77e8"/>
            <path data-name="Path 10264" d="m600.41 1111.025.222.16 5.354-7.442 6.515-9.054-.222-.16-.222-.16-1.383 1.922-10.486 14.574z" transform="translate(-555.809 -1013.45)" style="fill:#8b77e8"/>
            <path data-name="Path 10265" d="m922.416 937.861-.042.032q-.114.088-.235.167l-.09.058c-.066.041-.135.08-.2.117l-.119.065c-.071.036-.145.067-.219.1-.033.014-.065.031-.1.045l.2.509a4.51 4.51 0 0 0 1.469-.941l-.383-.392a3.765 3.765 0 0 1-.279.241" transform="translate(-853.278 -868.292)" style="fill:#40327a"/>
            <path data-name="Path 10266" d="m865.469 835.116-1.481-1.517a2.6 2.6 0 0 0 .425-1.628l-.141-1.928a2.619 2.619 0 0 0-5.223.383l.141 1.928a2.618 2.618 0 0 0 4.245 1.854l1.5 1.54.383.392.658.674a4.991 4.991 0 0 0 3.551 1.5h2.19v-.822h-2.19a4.164 4.164 0 0 1-2.963-1.249l-.706-.724-.39-.4z" transform="translate(-795.524 -766.422)" style="fill:#fff"/>
            <path data-name="Path 10267" d="m848.448 644.107.338 4.6a3.938 3.938 0 0 0-3.058 4.127l.213 2.9a3.94 3.94 0 0 0 4.218 3.642 3.982 3.982 0 0 0 .483-.069 3.9 3.9 0 0 0 .673-.194c.034-.013.066-.03.1-.045.074-.031.148-.063.219-.1.041-.02.08-.043.119-.065.069-.038.138-.076.2-.117l.09-.058c.08-.053.159-.108.235-.167l.042-.032q.144-.115.278-.242l-1.5-1.54a2.618 2.618 0 0 1-4.245-1.854l-.141-1.928a2.619 2.619 0 1 1 5.223-.383l.141 1.928a2.6 2.6 0 0 1-.425 1.628l1.481 1.517a3.928 3.928 0 0 0 .576-1.3c0-.014.006-.029.009-.044.023-.1.041-.2.055-.306 0-.032.008-.064.012-.1.011-.091.017-.183.022-.276v-.1c0-.123 0-.247-.009-.372l-.047-.647-.165-2.253a3.938 3.938 0 0 0-3.709-3.642l-.337-4.59a6.444 6.444 0 0 1 1.559-4.715 6.568 6.568 0 0 1 .7-.7 6.44 6.44 0 0 1 3.732-1.53l-.08-1.093a7.534 7.534 0 0 0-5.186 2.608 7.646 7.646 0 0 0-.942 1.368 7.531 7.531 0 0 0-.882 4.142" transform="translate(-783.184 -588.964)" style="fill:#b3a4f5"/>
            <path data-name="Rectangle 4745" transform="rotate(-78.576 94.459 -13.624)" style="fill:#8b77e8" d="M0 0h3.504v4.388H0z"/>
            <path data-name="Rectangle 4746" transform="translate(89.406 84.108)" style="fill:#ff809f" d="M0 0h4.388v3.504H0z"/>
            <path data-name="Rectangle 4747" transform="rotate(-8.616 637.833 -544.483)" style="fill:#ffc359" d="M0 0h4.388v3.504H0z"/>
            <path data-name="Path 10268" d="M1236.563 979.01h44.182l1.234-30.89h-44.182z" transform="translate(-1145.13 -878.016)" style="fill:#ccc2ff"/>
            <path data-name="Path 10269" d="m1299.038 1176.029-.269 6.742h-43.058l1.522-.237z" transform="translate(-1162.863 -1089.073)" style="fill:#b3a4f5"/>
            <path data-name="Path 10270" d="M1294.827 1274.471h-43.058l.292-7.3h43.058z" transform="translate(-1159.212 -1173.473)" style="fill:#b3a4f5"/>
            <path data-name="Path 10271" d="M1540.431 1309.413h-23.732v-.548h23.205l.17-4.26.547.022z" transform="translate(-1404.553 -1208.142)" style="fill:#8b77e8"/>
            <path data-name="Path 10272" d="m1264.813 954.863.269-6.742h43.058l-1.522.237z" transform="translate(-1171.292 -878.017)" style="fill:#b3a4f5"/>
            <path data-name="Rectangle 4748" transform="rotate(-8.821 574.277 -602.255)" style="fill:#fff" d="M0 0h37.897v.548H0z"/>
            <path data-name="Rectangle 4749" transform="rotate(-8.821 553.018 -692.295)" style="fill:#fff" d="M0 0h24.27v.548H0z"/>
            <path data-name="Rectangle 4750" transform="rotate(-8.821 557.438 -635.54)" style="fill:#fff" d="M0 0h4.84v.548H0z"/>
            <path data-name="Path 10273" d="m1511.841 954.451-.547-.022.377-9.449h-26.768v-.548h27.338z" transform="translate(-1375.108 -874.599)" style="fill:#fff"/>
            <path data-name="Rectangle 4751" transform="translate(92.666 69.831)" style="fill:#b3a4f5" d="M0 0h5.075v.548H0z"/>
            <path data-name="Rectangle 4752" transform="rotate(-87.702 117.509 -22.78)" style="fill:#8b77e8" d="M0 0h.893v.548H0z"/>
            <path data-name="Rectangle 4753" transform="rotate(-87.702 111.669 -28.856)" style="fill:#b3a4f5" d="M0 0h2.344v.548H0z"/>
            <path data-name="Path 10274" d="m1610.794 1170.311 5.633 14.423h-5.073z" transform="translate(-1491.69 -1083.777)" style="fill:#8b77e8"/>
            <path data-name="Path 10275" d="M1492.275 1191.488h12.251l-3.762-21.178h-8.49z" transform="translate(-1381.935 -1083.777)" style="fill:#ddd6ff"/>
            <path data-name="Rectangle 4754" transform="translate(100.045 106.671)" style="fill:#ddd6ff" d="M0 0h10.295v1.041H0z"/>
            <path data-name="Rectangle 4755" transform="translate(110.066 98.066)" style="fill:#fff" d="M0 0h.548v.616H0z"/>
            <path data-name="Path 10276" d="M1489.118 1176.792h-.548v-10.186h6.945v.548h-6.4z" transform="translate(-1378.504 -1080.346)" style="fill:#fff"/>
            <path data-name="Rectangle 4756" transform="rotate(-10.07 550.19 -628.99)" style="fill:#8b77e8" d="M0 0h.548v21.51H0z"/>
            <path data-name="Path 10277" d="M1532.612 1209.948a2.187 2.187 0 1 1-2.187-2.187 2.186 2.186 0 0 1 2.187 2.187" transform="translate(-1415.24 -1118.458)" style="fill:#7760db"/>
            <path data-name="Path 10278" d="M1576.279 1214.448a1.917 1.917 0 0 0-.368-.5l.384-.391a2.458 2.458 0 0 1 .473.644z" transform="translate(-1459.387 -1123.825)" style="fill:#fff"/>
            <path data-name="Path 10279" d="M1525.3 1208.3a2.437 2.437 0 0 1-.76-1.778 2.462 2.462 0 0 1 3.418-2.267l-.213.5a1.913 1.913 0 0 0-2.066 3.145z" transform="translate(-1411.811 -1115.03)" style="fill:#fff"/>
        </g>
    </g>
</svg>
