<svg data-name="Group 5343" xmlns="http://www.w3.org/2000/svg" xmlns:xlink="http://www.w3.org/1999/xlink" width="128.678" height="130" viewBox="0 0 128.678 130">
    <defs>
        <clipPath id="dxg05bqs5e">
            <path data-name="Rectangle 3623" style="fill:none" d="M0 0h128.678v130H0z"/>
        </clipPath>
        <clipPath id="biqfdkrzpf">
            <path data-name="Path 7210" d="M374.876 28.98a32.045 32.045 0 0 0-12.641 18.768c-1.955 7.971.741 16.222-.032 24.3-1.214 12.7-19.212-3.479-15.695 29.913.776 7.371 2.043 15.436 6.184 21.754 1.718 2.62 5.151 6.261 8.573 6.051 4.852-.3 4.636-7.163 6.141-10.332a22.091 22.091 0 0 1 8.242-8.82c4.339-2.784 9.37-5.275 11.1-10.532 1.12-3.414-.566-6.93-2.722-9.585-1.189-1.464-3.722-3.137-3.343-5.293.315-1.789 2.829-3.1 4.139-4.046a106.092 106.092 0 0 0 11.534-9.466c3.217-3.087 8.657-7.771 8.217-12.788-.354-4.038-4.526-4.019-7.812-3.728-.541.048-1.058.1-1.53.15-1.465.143-4.676 1.032-5.784-.427-1.826-2.407 2.812-6.489 3.98-8.323 1.444-2.268 3.234-4.794 3.524-7.549.441-4.19-2.429-9.858-5.971-12.046a10.525 10.525 0 0 0-5.6-1.484 19.74 19.74 0 0 0-10.5 3.482" transform="translate(-346.054 -25.498)" style="fill:none"/>
        </clipPath>
        <clipPath id="uebqshbqrg">
            <path data-name="Rectangle 3565" style="fill:none" d="M0 0h49.248v116.96H0z"/>
        </clipPath>
        <clipPath id="necpxfztbh">
            <path data-name="Path 7217" d="M391.57 258.78c-5.371.935-9.805 4.439-13.261 8.5-4.061 4.772-4.441 10.685-5.892 16.559-.285 1.152-2.162 7.493-3.583 3.777-1.982-5.182-6.4-4.268-6.4-4.268a10.341 10.341 0 0 0-7.4 6.451c-3.416 8.537-2.36 19.627-1.638 28.575.34 4.209.863 8.4 1.488 12.569a2.663 2.663 0 0 0 4.657 1.34 34.157 34.157 0 0 1 2.129-2.246c6.581-6.4 16.885-7.352 25.579-7.735 5.076-.224 9.259-.547 13.682-3.272 1.838-1.132 3.835-2.523 4.687-4.593.771-1.872.921-5.079-.24-6.82-1.446-2.169-4.657-2.032-6.568-3.629-3.088-2.581 4.989-4.377 6.616-4.9 2.594-.834 4.314-2.9 6.257-4.7a22.933 22.933 0 0 0 3.957-4.578c3.29-5.243 2.886-12.28 1.288-18.04-1.7-6.119-7.073-10.752-13.223-12.352a31.844 31.844 0 0 0-7.832-.986 25.284 25.284 0 0 0-4.3.348" transform="translate(-352.655 -258.432)" style="fill:none"/>
        </clipPath>
        <clipPath id="ey69tkkahj">
            <path data-name="Rectangle 3567" style="fill:none" d="M0 0h72.835v77.122H0z"/>
        </clipPath>
        <clipPath id="owiq8s1rfk">
            <path data-name="Path 7224" d="m399.038 124.909 17.741 6.452V81.867a5.032 5.032 0 0 0-4.573-5.189l-13.168-.668z" transform="translate(-399.038 -76.01)" style="fill:none"/>
        </clipPath>
        <clipPath id="e9a5mlgdgl">
            <path data-name="Path 7226" d="M59.038 65.577V163.4a5 5 0 0 0 5.3 5.075l60.9-3.337a5.131 5.131 0 0 0 4.636-4.915c.008-.108-.032-.228-.032-.338v-45.466a7.339 7.339 0 0 0-.413-2.545 6.861 6.861 0 0 0-2.043-2.962l-1-.823-2.635-2.166a7.309 7.309 0 0 1-2.619-5.614V68.385a5.347 5.347 0 0 0-.183-1.509 5.055 5.055 0 0 0-4.5-3.724l-52.1-2.627q-.137-.007-.273-.007a4.991 4.991 0 0 0-5.036 5.059" transform="translate(-59.038 -60.518)" style="fill:none"/>
        </clipPath>
        <clipPath id="r2latt8n7n">
            <path data-name="Rectangle 3572" style="fill:none" d="M0 0h70.882v107.965H0z"/>
        </clipPath>
        <clipPath id="meary3zuuo">
            <path data-name="Path 7227" d="M129.92 160.222a5.153 5.153 0 0 1-4.661 4.916l-60.913 3.337a5.006 5.006 0 0 1-5.309-5.075V65.577a5 5 0 0 1 5.309-5.052l11.781.594a27.834 27.834 0 0 1 .664 12.246c-1.141 7.851-.256 14.633 5.133 20.7 4.487 5.05 10.54 8.162 14.72 13.383a28.137 28.137 0 0 1 3.992 6.421c.178.417.345.843.494 1.275a17.726 17.726 0 0 1 1 5.749c.055 6.258-2.48 12.528-1.513 18.793 1.108 7.214 7.79 9.408 13.388 11.667 5.749 2.324 11.549 4.6 15.912 8.869" transform="translate(-59.038 -60.518)" style="fill:none"/>
        </clipPath>
        <clipPath id="0ic2t50xwq">
            <path data-name="Rectangle 3573" style="fill:none" d="M0 0h24.615v17.501H0z"/>
        </clipPath>
        <clipPath id="8qo4w9xkvr">
            <path data-name="Rectangle 3574" style="fill:none" d="M0 0h30.467v7.174H0z"/>
        </clipPath>
        <clipPath id="zwziqwtxgs">
            <path data-name="Path 7251" d="M170.133 777.078h-28.04s-2.191 1.862-2.175 2.648-1.651 2.29-1.39 3.6 3.73 2.552 16.219 2.814c18.313.2 20.163-2.159 19.378-2.944s-2.53-6.116-2.53-6.116z" transform="translate(-138.5 -777.078)" style="fill:none"/>
        </clipPath>
        <clipPath id="9mrgkrvxct">
            <path data-name="Rectangle 3578" style="fill:none" d="M0 0h33.741v9.072H0z"/>
        </clipPath>
        <clipPath id="v3wcgtlc5u">
            <path data-name="Path 7252" d="M139.917 779.726c-.016-.785 2.175-2.648 2.175-2.648h29.5s.27.826.646 1.876a6.094 6.094 0 0 1-3.8 1.031c-2.051.093-4.008-.839-5.872-.186-3.356 1.119-6.618 2.8-10.253 1.864-2.237-.559-4.381-1.491-6.711-1.4-1.4 0-2.89 1.491-1.864 2.7 2.89 3.076 7.457 1.212 11.372 1.957a32.646 32.646 0 0 0 6.711.28c.28 0 .653.28.932.28a28.5 28.5 0 0 0 4.163.276 118.3 118.3 0 0 1-12.171.378c-12.489-.262-15.957-1.505-16.219-2.814s1.405-2.814 1.39-3.6" transform="translate(-138.5 -777.078)" style="fill:none"/>
        </clipPath>
        <clipPath id="2g6rn0s3dw">
            <path data-name="Path 7253" d="M161.587 769.459c0 .775 6.6 1.4 14.751 1.4s14.751-.629 14.751-1.4-6.6-1.4-14.751-1.4-14.751.629-14.751 1.4" transform="translate(-161.587 -768.055)" style="fill:none"/>
        </clipPath>
        <clipPath id="2iuacus1ly">
            <path data-name="Path 7254" d="M27.067 566.451c3.2 1.813 32.033 11.768 32.033 11.768l1.906-2.745s-25.39-10.6-30.331-13.619a5.043 5.043 0 0 0-2.582-.855c-2.9 0-3.582 4-1.026 5.452" transform="translate(-25.483 -560.999)" style="fill:none"/>
        </clipPath>
        <clipPath id="4z6wa98woA">
            <path data-name="Path 7255" d="M222.315 581.516a5.207 5.207 0 0 0-1.79 2.943c-.225 1.319.362 1.808.167 3.239-.225 1.652-1.09 1.612-1.7 3.5-.681 2.115.3 2.521-.417 4.664-.607 1.824-1.452 1.944-1.443 3.331.009 1.331.793 1.924.355 2.853-.245.52-.589.544-1.241 1.5-.413.6-.658.926-.661 1.24-.014 1.7 4.293 3.058 5.7 3.5 3.222 1.012 7 1.5 7.562.379a2.384 2.384 0 0 0 .174-.815c.044-.834-.343-1.1-.359-1.7-.01-.369.127-.583 1.112-1.948a15.383 15.383 0 0 0 1.311-1.862c.472-1.17-.192-1.669-.074-3.075.157-1.868 1.409-1.941 1.882-3.953.433-1.84-.562-2.005-.238-3.987.366-2.238 1.752-2.744 1.8-4.737a5.053 5.053 0 0 0-.714-2.611 16.525 16.525 0 0 0-11.428-2.451" transform="translate(-215.589 -581.33)" style="fill:none"/>
        </clipPath>
        <clipPath id="wbyvagxhcC">
            <path data-name="Rectangle 3584" style="fill:none" d="M0 0h18.849v27.965H0z"/>
        </clipPath>
        <clipPath id="iwtnc4dmyD">
            <path data-name="Path 7256" d="M222.314 581.516a16.5 16.5 0 0 1 11.428 2.451 5.245 5.245 0 0 1 .7 2.106 9.718 9.718 0 0 0-6.219-2.745c-.424-.011-3.792-.1-4.584 1.593-.51 1.091.614 1.711.425 3.512-.223 2.131-1.9 2.258-2.387 4.62-.372 1.813.53 2.157.012 3.911-.508 1.72-1.457 1.664-1.761 3.233a5.443 5.443 0 0 0 1.041 4 6.151 6.151 0 0 0 1.884 1.594 9.8 9.8 0 0 0 6.012 1.1 2.132 2.132 0 0 1 .163.952 2.384 2.384 0 0 1-.174.815c-.56 1.117-4.34.633-7.562-.379-1.4-.441-5.712-1.8-5.7-3.5 0-.314.248-.636.661-1.24.652-.953 1-.977 1.241-1.5.438-.929-.346-1.522-.355-2.853-.009-1.386.836-1.507 1.443-3.331.713-2.143-.263-2.549.418-4.664.606-1.884 1.472-1.843 1.7-3.5.195-1.431-.392-1.92-.167-3.239a5.207 5.207 0 0 1 1.79-2.943" transform="translate(-215.588 -581.33)" style="fill:none"/>
        </clipPath>
        <clipPath id="gs2z09ykmF">
            <path data-name="Rectangle 3586" style="fill:none" d="M0 0h30.034v15.974H0z"/>
        </clipPath>
        <clipPath id="64pico6itG">
            <path data-name="Path 7257" d="M29.739 561.374a3.82 3.82 0 0 0 0 .4c.118 3.641 3.7 5.274 6.539 6.792 3.748 2.116 8.031 2.524 12.291 3.386a9.532 9.532 0 0 1 6.949 5.031c-7.827-2.729-25.955-9.108-28.451-10.523-2.985-1.693-1.556-6.866 2.671-5.082" transform="translate(-25.485 -561.005)" style="fill:none"/>
        </clipPath>
        <clipPath id="1hw7li64jI">
            <path data-name="Path 7258" d="M496.317 433.495c-1.867 4.01-4.74 5.641-6.226 4.976s-4.03 6.957 3.577 7.855c4.844.572 8.422-3.364 9.927-6.374s4.26-11.245.06-11.655c0 0-5.47 1.188-7.337 5.2" transform="translate(-488.459 -428.297)" style="fill:none"/>
        </clipPath>
        <clipPath id="xldbxpfgiJ">
            <path data-name="Path 7259" d="M589.872 810.045a29.665 29.665 0 0 0-3.92 2.045c-.038.172.9.1 1.875.02.616-.048 1.245-.1 1.648-.082 1.04.038 1.894-.272 1.8-.712s-.462-1.547-.462-1.547z" transform="translate(-585.951 -809.77)" style="fill:none"/>
        </clipPath>
        <clipPath id="ceyvxyb90L">
            <path data-name="Path 7260" d="m610.217 801.243.239 1.738a1.363 1.363 0 0 0 1.022-.042l.171-1.907z" transform="translate(-610.217 -801.032)" style="fill:none"/>
        </clipPath>
        <clipPath id="d6b86ong9N">
            <path data-name="Path 7261" d="M710.495 805.808a10.86 10.86 0 0 1-.223 1.592c-.135.416-.383.461-.768.743s-.219.515-.219.515 1.858-.188 2-.5c.1-.227.332-1.1.448-1.542a.639.639 0 0 0-.078-.5l-.335-.535z" transform="translate(-709.249 -805.583)" style="fill:none"/>
        </clipPath>
        <clipPath id="ujb269oj4P">
            <path data-name="Path 7262" d="m715.021 797.618.055-.055-.055.054M713.572 796a17.321 17.321 0 0 1 .723 1.907s.194.247.56-.119l.166-.165-.073-1.78z" transform="translate(-713.572 -795.838)" style="fill:none"/>
        </clipPath>
        <clipPath id="edpc3151tR">
            <path data-name="Path 7263" d="M595.325 564.772a189.768 189.768 0 0 0 2.034 35.558 16.659 16.659 0 0 0 1.681-.035 43.152 43.152 0 0 0 1.42-4.58 44.042 44.042 0 0 0 .986-5.36c.73-5.876-.143-6.386.45-10.741.525-3.857 1.285-4.009 2.164-9.485.954-5.942.231-6.831-.12-7.152a2.854 2.854 0 0 0-1.98-.637 14.113 14.113 0 0 0-6.63 2.432" transform="translate(-595.196 -562.34)" style="fill:none"/>
        </clipPath>
        <clipPath id="somwgcehsT">
            <path data-name="Rectangle 3595" style="fill:none" d="M0 0h8.705v37.996H0z"/>
        </clipPath>
        <clipPath id="aak6at92bU">
            <path data-name="Path 7264" d="M607.346 562.981c-1.426-1.3-4.678-.5-8.111 1.5 3.964 4.263 4.4 7.033 3.932 8.832-.531 2.034-2.158 2.623-2.147 4.845.014 2.731 2.481 3.449 2.435 6.339-.03 1.911-1.113 1.894-1.363 4.255-.3 2.793 1.121 3.752.668 5.82a5.592 5.592 0 0 1-2.355 3.253c.118.848.238 1.688.364 2.512a17.535 17.535 0 0 0 1.681-.035 43.144 43.144 0 0 0 1.42-4.579 44.054 44.054 0 0 0 .986-5.36c.729-5.876-.143-6.386.45-10.741.525-3.857 1.285-4.009 2.164-9.485.954-5.942.231-6.831-.12-7.152" transform="translate(-599.235 -562.345)" style="fill:none"/>
        </clipPath>
        <clipPath id="auihbotndW">
            <path data-name="Path 7265" d="M616.582 589.836a105.283 105.283 0 0 1 14.508 30.858 1.881 1.881 0 0 0 1.031.157 1.916 1.916 0 0 0 1.166-.634 30.324 30.324 0 0 0 .25-7.477 25.78 25.78 0 0 0-1.065-5.617c-.856-2.739-1.441-2.891-2.557-5.789-1.158-3.007-.881-3.759-1.992-7.523a49.7 49.7 0 0 0-2.477-6.6l-8.864 2.623" transform="translate(-616.582 -587.213)" style="fill:none"/>
        </clipPath>
        <clipPath id="wqo5789f1Y">
            <path data-name="Path 7266" d="M583.847 420.431a39.94 39.94 0 0 0-9.132 1.451l-.993 5.554a66.146 66.146 0 0 0 .108 7.341c.209 2.971.413 3.015.89 7.209.779 6.837.453 8.623 1.827 9.444.894.534 1.217-.111 5.777-.563 3.058-.3 4.619-.444 6.167.08 2.109.714 2.814 1.912 3.684 1.522.834-.374.941-1.814 1.041-4.325.156-3.874.146-6.506.16-7.449.066-4.324 1.161-7.625 2.563-11.854a57.236 57.236 0 0 1 2.507-6.29 40.416 40.416 0 0 0-12.967-2.154q-.8 0-1.634.034" transform="translate(-573.667 -420.397)" style="fill:none"/>
        </clipPath>
        <clipPath id="ogabjqu8laa">
            <path data-name="Rectangle 3600" style="fill:none" d="M0 0h19.707v21.951H0z"/>
        </clipPath>
        <clipPath id="3wkwop7aoab">
            <path data-name="Path 7267" d="M588.286 504.511c2.243-.957 2.23-2.938 4.325-3.764 2.989-1.18 6.292 1.561 6.808.8.537-.791-3.408-3.215-2.883-5.607.417-1.9 3.171-1.564 4.645-4.165 1.4-2.468.043-4.749 1.281-5.607.444-.307 1.228-.429 2.714.225a31.527 31.527 0 0 0-1.833 9.627c-.014.942 0 3.575-.16 7.449-.1 2.511-.207 3.951-1.041 4.325-.87.39-1.576-.808-3.684-1.522-1.549-.524-3.109-.383-6.167-.08-4.56.452-4.884 1.1-5.777.563a2.394 2.394 0 0 1-1.044-1.876 5.581 5.581 0 0 0 2.817-.369" transform="translate(-585.47 -485.92)" style="fill:none"/>
        </clipPath>
        <clipPath id="ohkadp8irad">
            <path data-name="Path 7269" d="M620.557 394.8c.436.63.817 1.4.544 1.97-.392.82-1.864.662-1.923 1.107s1.316 1.2 2.788 1.333c2.405.21 4.641-1.312 4.528-1.717-.023-.083-.132-.072-.99-.236-1.578-.3-1.863-.467-2.056-.671-.128-.135-.232-.3-.4-.974a12.7 12.7 0 0 1-.362-2.527c-.35.748-1.778.968-2.128 1.716" transform="translate(-619.176 -393.087)" style="fill:none"/>
        </clipPath>
        <clipPath id="bjkjjy0o0af">
            <path data-name="Path 7270" d="M623.868 381.384a1.675 1.675 0 0 0-1.173.6 1.539 1.539 0 0 0 .063 1.765c.35.417.735.226 1.253.793a3.4 3.4 0 0 1 .483.721 3.839 3.839 0 0 1 .246.622c.521-.629.841-1.006 1.045-1.243.147-.171.312-.254.394-.474.072-.195.541-1.28.271-1.777a2.394 2.394 0 0 0-2.114-1.045 2.806 2.806 0 0 0-.468.038" transform="translate(-622.446 -381.346)" style="fill:none"/>
        </clipPath>
        <clipPath id="tmomhdzfbah">
            <path data-name="Path 7271" d="M624.049 392.966c-.671.558-.38 3 .718 3.015a2.088 2.088 0 0 0 1.786-1.025c.572-.239.809-.61.641-.882a.376.376 0 0 0-.153-.134.6.6 0 0 0-.626.243c.176-.729.068-.988-.066-1.089-.107-.081-.2-.038-.546-.108-.373-.076-.454-.165-.682-.216a1.384 1.384 0 0 0-.3-.032 1.28 1.28 0 0 0-.772.229" transform="translate(-623.692 -392.737)" style="fill:none"/>
        </clipPath>
        <clipPath id="0l51ypfwcaj">
            <path data-name="Path 7272" d="M626.466 394.025c-.051.042.121.23.148.508a1.341 1.341 0 0 1-1.016 1.3c-.328.05-.43-.144-.979-.173a2.505 2.505 0 0 0-.793.089 1.317 1.317 0 0 0 .464 1.438 1.372 1.372 0 0 0 1.2-.023 1.568 1.568 0 0 0 .861-.706c.241-.481-.035-.749.253-1.081a2.54 2.54 0 0 0 .524-.566 1.531 1.531 0 0 0 .1-.214 2.707 2.707 0 0 0-.743-.583.033.033 0 0 0-.023.007" transform="translate(-623.781 -394.018)" style="fill:none"/>
        </clipPath>
        <clipPath id="o2m3qag2fal">
            <path data-name="Path 7273" d="M632.132 433.231h1.068l.889-1.451a10.581 10.581 0 0 1-2.221-.085z" transform="translate(-631.872 -431.695)" style="fill:none"/>
        </clipPath>
        <clipPath id="3uzxo29jyan">
            <path data-name="Path 7274" d="M622.795 440.607c0 .008-.018.017-.02.026l-.052.109-1.917 6.829a26.712 26.712 0 0 0 1.053 2.861c.581-1.062 1.166-2.069 1.667-3.019q.327-.618.63-1.2l-.3-5.6a2.879 2.879 0 0 0-.725-.134c-.157 0-.29.033-.336.134" transform="translate(-620.806 -440.473)" style="fill:none"/>
        </clipPath>
        <clipPath id="3b0ijt9csap">
            <path data-name="Rectangle 3609" style="fill:none" d="M0 0h2.719v9.691H0z"/>
        </clipPath>
        <clipPath id="i9yunqpp0aq">
            <path data-name="Path 7275" d="M623.525 448.875c-.5.95-1.086 1.957-1.667 3.019a26.721 26.721 0 0 1-1.053-2.861l1.917-6.829c.187.041.623.239.568 1.17-.07 1.2-1.347 3.317-.624 4.164a6.88 6.88 0 0 1 .859 1.338" transform="translate(-620.806 -442.203)" style="fill:none"/>
        </clipPath>
        <clipPath id="osudm215gas">
            <path data-name="Path 7276" d="m481.44 467.174 37.692 20.9a2.043 2.043 0 0 0 2.739-.716l.347-.585a1.908 1.908 0 0 0-.75-2.654l-37.912-20.87z" transform="translate(-481.44 -463.25)" style="fill:none"/>
        </clipPath>
        <clipPath id="ciqi0pyf7au">
            <path data-name="Path 7277" d="M238.756 284.654c-9.128-5.207-12.618-17.093-7.833-26.783 4.878-9.88 16.575-13.934 26.169-8.809 9.741 5.2 13.326 17.706 7.969 27.671a19.375 19.375 0 0 1-17.033 10.394 18.651 18.651 0 0 1-9.272-2.472m-10.993-28.529c-5.637 11.509-1.491 25.594 9.311 31.793 10.993 6.308 25.044 2.284 31.34-9.333 6.448-11.9 2.168-26.858-9.5-33.052a22.2 22.2 0 0 0-10.44-2.622 23.178 23.178 0 0 0-20.706 13.214" transform="translate(-225.247 -242.911)" style="fill:none"/>
        </clipPath>
        <clipPath id="cc82mtvc3aw">
            <path data-name="Rectangle 3614" style="fill:none" d="M0 0h41.044v25.083H0z"/>
        </clipPath>
        <clipPath id="e1o000ukfax">
            <path data-name="Path 7278" d="m483.554 463.25 4.834 2.661a5.484 5.484 0 0 0 1.07 3.532c2.154 2.712 6.134 1.087 10.461 4.646 2.171 1.786 1.537 2.5 3.636 3.868 3.47 2.264 5.629.594 8.692 2.635 3.1 2.064 2.817 5.055 4.758 5.354.83.128 2.013-.247 3.668-2.263l.793.437a1.908 1.908 0 0 1 .75 2.654l-.347.585a2.043 2.043 0 0 1-2.739.716l-37.692-20.9z" transform="translate(-481.439 -463.25)" style="fill:none"/>
        </clipPath>
        <clipPath id="deasvigsmay">
            <path data-name="Rectangle 3616" style="fill:none" d="M0 0h40.123v41.696H0z"/>
        </clipPath>
        <clipPath id="khvipj06jaz">
            <path data-name="Path 7279" d="M247.53 308.436a19.741 19.741 0 0 0 27.225-8.182c5.555-10.317 1.843-23.268-8.25-28.653-9.935-5.3-22.038-1.094-27.08 9.133-4.942 10.024-1.332 22.314 8.1 27.7" transform="translate(-237.214 -269.303)" style="fill:none"/>
        </clipPath>
        <clipPath id="4patsp63paB">
            <path data-name="Path 7280" d="M232.187 290.43c-9.128-5.207-12.618-17.092-7.833-26.783 4.878-9.88 16.575-13.934 26.169-8.809 9.741 5.2 13.326 17.706 7.969 27.671a19.375 19.375 0 0 1-17.033 10.391 18.65 18.65 0 0 1-9.272-2.472M221.194 261.9c-5.637 11.508-1.491 25.594 9.311 31.793 10.993 6.308 25.044 2.284 31.34-9.333 6.448-11.9 2.168-26.858-9.5-33.052a22.2 22.2 0 0 0-10.441-2.622 23.178 23.178 0 0 0-20.71 13.214" transform="translate(-218.678 -248.687)" style="fill:none"/>
        </clipPath>
        <clipPath id="mi1leufzeaD">
            <path data-name="Path 7281" d="M238.949 297.972c-9.128-5.207-12.618-17.092-7.833-26.783 4.878-9.88 16.575-13.934 26.169-8.809 9.741 5.2 13.326 17.706 7.969 27.671a19.375 19.375 0 0 1-17.033 10.394 18.649 18.649 0 0 1-9.272-2.472m-9.877-27.912c-5.337 10.867-1.423 24.177 8.789 30.025 10.382 5.945 23.634 2.126 29.559-8.838 6.059-11.212 2.026-25.3-8.961-31.145a20.938 20.938 0 0 0-9.867-2.482 21.859 21.859 0 0 0-19.52 12.44" transform="translate(-226.686 -257.619)" style="fill:none"/>
        </clipPath>
        <clipPath id="ukq3iclkkaF">
            <path data-name="Path 7282" d="M688.912 431.492c-3.747.534-6.341 8.214-4.285 10.411.663.708 1.318.326 3.192.9l.1.03a13.018 13.018 0 0 1 4.2 2.2 5.665 5.665 0 0 1 2 2.994c.57 2.408-.851 5.22-3.4 7.136a4.611 4.611 0 0 1-.111.084q.309.764.615 1.53c1.554.138 5.053.2 7.528-2.087 4.118-3.812 2.076-11.065.642-14.185a18.847 18.847 0 0 0-5.426-7.082 9.15 9.15 0 0 0-3.731-1.9 4.338 4.338 0 0 0-.783-.074 3.817 3.817 0 0 0-.538.038" transform="translate(-683.902 -431.455)" style="fill:none"/>
        </clipPath>
        <clipPath id="yexxfe1c8aH">
            <path data-name="Path 7283" d="M501 496.719c-.139.676 1.829 1.064 1.829 1.064 1.292-.288-.676-1.462-1.173-1.857a.505.505 0 0 0-.285-.138c-.228 0-.265.418-.371.93" transform="translate(-500.989 -495.789)" style="fill:none"/>
        </clipPath>
        <clipPath id="xgi771gttaJ">
            <path data-name="Path 7284" d="M710.072 582.9c-.13.036-.623.015-.061.282s.556.466.323.686a4.069 4.069 0 0 1-1.444.715c-.32.023.259.518.582.581a1.994 1.994 0 0 0 1.508-.243c.239-.141 1.089-.624 1.089-.624l-.313-.883a1.5 1.5 0 0 1-.852-.316 1.411 1.411 0 0 0-.724-.21.435.435 0 0 0-.107.011" transform="translate(-708.796 -582.886)" style="fill:none"/>
        </clipPath>
        <linearGradient id="jsny7g7pbd" x1="-.233" y1="1.485" x2="-.232" y2="1.485" gradientUnits="objectBoundingBox">
            <stop offset="0" stop-color="#ff9085"/>
            <stop offset="1" stop-color="#fb6fbb"/>
        </linearGradient>
        <linearGradient id="0ove92p2fi" x1="-.555" y1="1.185" x2="-.553" y2="1.185" gradientUnits="objectBoundingBox">
            <stop offset="0" stop-color="#e38ddd"/>
            <stop offset=".004" stop-color="#e38ddd"/>
            <stop offset="1" stop-color="#9571f6"/>
        </linearGradient>
        <linearGradient id="y8v7xapaqa" x1="-.897" y1="2.223" x2="-.894" y2="2.223" gradientUnits="objectBoundingBox">
            <stop offset="0" stop-color="#ffc444"/>
            <stop offset=".996" stop-color="#f36f56"/>
            <stop offset="1" stop-color="#f36f56"/>
        </linearGradient>
        <linearGradient id="l8ljorryzm" x1=".152" y1="1.037" x2=".154" y2="1.037" xlink:href="#y8v7xapaqa"/>
        <linearGradient id="l8cpu0z9yp" x1=".153" y1="1.037" x2=".154" y2="1.037" xlink:href="#y8v7xapaqa"/>
        <linearGradient id="tueku0kztb" x1="-1.056" y1=".621" x2="-1.05" y2=".621" gradientUnits="objectBoundingBox">
            <stop offset="0" stop-color="#311944"/>
            <stop offset="1" stop-color="#a03976"/>
        </linearGradient>
        <linearGradient id="ebtz05ugvv" x1="-.621" y1=".956" x2="-.616" y2=".956" xlink:href="#tueku0kztb"/>
        <linearGradient id="uu5fh5aysx" x1="-.847" y1="2.373" x2="-.841" y2="2.373" xlink:href="#tueku0kztb"/>
        <linearGradient id="yjeirmh49z" x1="-.551" y1="1.402" x2="-.544" y2="1.402" xlink:href="#tueku0kztb"/>
        <linearGradient id="nxbficq9kB" x1="-.988" y1="1.251" x2="-.983" y2="1.251" xlink:href="#tueku0kztb"/>
        <linearGradient id="y572v5bqdE" x1="-.986" y1="1.251" x2="-.98" y2="1.251" xlink:href="#tueku0kztb"/>
        <linearGradient id="7uxt2apprH" x1="-.416" y1="1.581" x2="-.409" y2="1.581" xlink:href="#tueku0kztb"/>
        <linearGradient id="79ffjx8jbc" x1="-3.723" y1="2.851" x2="-3.715" y2="2.851" gradientUnits="objectBoundingBox">
            <stop offset="0" stop-color="#444b8c"/>
            <stop offset=".996" stop-color="#3e4177"/>
            <stop offset="1" stop-color="#3e4177"/>
        </linearGradient>
        <linearGradient id="apemovl5rK" x1="-16.149" y1="1.437" x2="-16.122" y2="1.437" xlink:href="#79ffjx8jbc"/>
        <linearGradient id="dgb8sistjM" x1="-64.746" y1="2.447" x2="-64.64" y2="2.447" xlink:href="#y8v7xapaqa"/>
        <linearGradient id="ww5rwl75yO" x1="-38.056" y1="1.445" x2="-38.002" y2="1.445" xlink:href="#79ffjx8jbc"/>
        <linearGradient id="1ifkescihQ" x1="-72.029" y1="2.64" x2="-71.928" y2="2.64" xlink:href="#y8v7xapaqa"/>
        <linearGradient id="ptjbp96r6S" x1="-9.282" y1="1.118" x2="-9.267" y2="1.118" xlink:href="#79ffjx8jbc"/>
        <linearGradient id="im1omqhdfV" x1="-10.046" y1="1.116" x2="-10.029" y2="1.116" xlink:href="#79ffjx8jbc"/>
        <linearGradient id="4jpih9vaeX" x1="-5.556" y1="1.145" x2="-5.547" y2="1.145" xlink:href="#79ffjx8jbc"/>
        <linearGradient id="b8ydn1gljZ" x1="-2.486" y1="2.295" x2="-2.481" y2="2.295" xlink:href="#79ffjx8jbc"/>
        <linearGradient id="f2pe9dukoac" x1="-3.239" y1="2.025" x2="-3.234" y2="2.025" xlink:href="#79ffjx8jbc"/>
        <linearGradient id="hx3k3s2lhae" x1="-9.929" y1="7.698" x2="-9.913" y2="7.698" xlink:href="#y8v7xapaqa"/>
        <linearGradient id="wm5kgbq2pag" x1="-22.01" y1="15.571" x2="-21.975" y2="15.571" xlink:href="#79ffjx8jbc"/>
        <linearGradient id="ix9c5n0lrai" x1="-19.565" y1="15.363" x2="-19.534" y2="15.363" xlink:href="#y8v7xapaqa"/>
        <linearGradient id="bpuuaeutdak" x1="-27.359" y1="19.941" x2="-27.315" y2="19.941" xlink:href="#79ffjx8jbc"/>
        <linearGradient id="rm79hzvztam" x1="-44.283" y1="40.887" x2="-44.213" y2="40.887" xlink:href="#jsny7g7pbd"/>
        <linearGradient id="wlab9qmyjao" x1="-27.128" y1="6.131" x2="-27.084" y2="6.131" xlink:href="#jsny7g7pbd"/>
        <linearGradient id="nlcr5wq9bar" x1="-35.525" y1="6.314" x2="-35.468" y2="6.314" xlink:href="#jsny7g7pbd"/>
        <linearGradient id="8npjv8rd4at" x1="-1.545" y1="1.762" x2="-1.541" y2="1.762" xlink:href="#tueku0kztb"/>
        <linearGradient id="frm5bcmweav" x1="-.398" y1="1.54" x2="-.396" y2="1.54" xlink:href="#tueku0kztb"/>
        <linearGradient id="29pp7ttpyaA" x1="-.746" y1="1.913" x2="-.743" y2="1.913" xlink:href="#tueku0kztb"/>
        <linearGradient id="8nhbidzosaC" x1="-.279" y1="1.394" x2="-.277" y2="1.394" xlink:href="#tueku0kztb"/>
        <linearGradient id="s452jn698aE" x1="-.433" y1="1.586" x2="-.43" y2="1.586" xlink:href="#tueku0kztb"/>
        <linearGradient id="1lfzdudgpaG" x1="-3.796" y1="2.782" x2="-3.79" y2="2.782" xlink:href="#79ffjx8jbc"/>
        <linearGradient id="pf49poraqaI" x1="-30.892" y1="15.068" x2="-30.831" y2="15.068" xlink:href="#y8v7xapaqa"/>
        <linearGradient id="ir83d85rnaK" x1="-31.269" y1="9.704" x2="-31.225" y2="9.704" xlink:href="#y8v7xapaqa"/>
    </defs>
    <g data-name="Group 5342" style="clip-path:url(#dxg05bqs5e)">
        <g data-name="Group 5206">
            <g data-name="Group 5205" style="clip-path:url(#dxg05bqs5e)">
                <path data-name="Path 7209" d="M121 70.142c3.329-30.342-26.089-40.886-46.944-33.116-21.024 7.832-25.9-5.151-55.462-1.442C-11.341 39.34 3.858 86.33 3.858 86.33s4.763 40.861 10.406 59.7c5.612 18.732 59.335 11.955 72.4 11.4 12.994-.556 24.284.517 35.59-20.051 11.284-20.531-4.58-36.985-1.26-67.228" transform="translate(0 -29.188)" style="fill:#f4f7fa"/>
            </g>
        </g>
        <g data-name="Group 5208">
            <g data-name="Group 5207" style="clip-path:url(#biqfdkrzpf)" transform="translate(53.853 3.968)">
                <path data-name="Rectangle 3564" transform="rotate(-82.64 50.278 60.673)" style="fill:url(#jsny7g7pbd)" d="M0 0h111.563v74.891H0z"/>
            </g>
        </g>
        <g data-name="Group 5213">
            <g data-name="Group 5212" style="clip-path:url(#biqfdkrzpf)" transform="translate(53.853 3.968)">
                <g data-name="Group 5211" style="isolation:isolate;opacity:.8;mix-blend-mode:soft-light">
                    <g data-name="Group 5210">
                        <g data-name="Group 5209" style="clip-path:url(#uebqshbqrg)" transform="translate(1.735 -3.968)">
                            <path data-name="Path 7211" d="M440.19 116.96a.245.245 0 0 1-.143-.046c-8.283-5.916-12.18-14.949-11.917-27.614.23-11.042 3.467-23.023 6.6-34.61 2.465-9.124 4.793-17.743 5.217-24.665a31.022 31.022 0 0 1 4.707-14.953 32.85 32.85 0 0 1 8.9-9.179A40.118 40.118 0 0 1 466.028.007a.246.246 0 1 1 .111.48 39.6 39.6 0 0 0-12.321 5.819 30.614 30.614 0 0 0-13.383 23.75c-.427 6.972-2.761 15.614-5.233 24.763-6.16 22.8-13.141 48.643 5.13 61.695a.246.246 0 0 1-.143.447" transform="translate(-417.082)" style="fill:#fff"/>
                            <path data-name="Path 7212" d="M465.621 101.435a.247.247 0 0 1-.076-.012 8.263 8.263 0 0 1-3.367-2.6c-1.573-1.87-3.573-5.43-4.173-11.768a.246.246 0 1 1 .49-.046c.585 6.185 2.516 9.649 4.032 11.465a7.992 7.992 0 0 0 3.169 2.478.246.246 0 0 1-.076.481" transform="translate(-442.317 -73.282)" style="fill:#fff"/>
                            <path data-name="Path 7213" d="M489.791 179.264a.246.246 0 0 1-.025-.491 36.39 36.39 0 0 0 9.8-2.9 43.2 43.2 0 0 0 18.179-15.131.246.246 0 0 1 .406.279 43.689 43.689 0 0 1-18.4 15.312 36.861 36.861 0 0 1-9.934 2.933h-.025" transform="translate(-468.95 -135.635)" style="fill:#fff"/>
                            <path data-name="Path 7214" d="M369.155 373.794a.244.244 0 0 1-.082-.014 18.982 18.982 0 0 1-7.6-5.639 18.638 18.638 0 0 1-3.885-8.4 28.306 28.306 0 0 1 1.028-13.27.246.246 0 1 1 .472.139c-3.188 10.823-.264 17.5 2.751 21.2a18.853 18.853 0 0 0 7.4 5.5.246.246 0 0 1-.082.479" transform="translate(-357.202 -292.404)" style="fill:#fff"/>
                            <path data-name="Path 7215" d="M441.875 411.648a.246.246 0 0 1-.032-.49c.2-.026 19.745-2.682 24.535-10.079a.246.246 0 1 1 .413.268c-2.069 3.195-6.891 5.9-14.334 8.039a82.091 82.091 0 0 1-10.55 2.26h-.033" transform="translate(-428.491 -338.569)" style="fill:#fff"/>
                        </g>
                    </g>
                </g>
            </g>
        </g>
        <g data-name="Group 5215">
            <g data-name="Group 5214" style="clip-path:url(#necpxfztbh)" transform="translate(54.88 40.217)">
                <path data-name="Rectangle 3566" transform="rotate(-82.64 36.655 42.875)" style="fill:url(#0ove92p2fi)" d="M0 0h82.971v76.36H0z"/>
            </g>
        </g>
        <g data-name="Group 5220">
            <g data-name="Group 5219" style="clip-path:url(#necpxfztbh)" transform="translate(54.88 40.217)">
                <g data-name="Group 5218" style="isolation:isolate;opacity:.8;mix-blend-mode:soft-light">
                    <g data-name="Group 5217">
                        <g data-name="Group 5216" style="clip-path:url(#ey69tkkahj)" transform="translate(.963 -.246)">
                            <path data-name="Path 7218" d="M359.089 348.144a.246.246 0 0 1-.223-.351 359.253 359.253 0 0 1 19.475-35.036 175.763 175.763 0 0 1 18.933-25.229c7.466-7.989 14.308-12.661 20.335-13.888a.246.246 0 1 1 .1.482c-5.925 1.206-12.679 5.829-20.074 13.742a175.3 175.3 0 0 0-18.878 25.157A358.712 358.712 0 0 0 359.312 348a.246.246 0 0 1-.223.141" transform="translate(-358.843 -271.023)" style="fill:#fff"/>
                            <path data-name="Path 7219" d="M547.275 284.7a.236.236 0 0 1-.039 0 .246.246 0 0 1-.2-.282c.037-.232 3.666-23.265.063-27.151a.246.246 0 0 1 .361-.335c3.765 4.061.216 26.606.063 27.564a.246.246 0 0 1-.243.207" transform="translate(-517.743 -256.85)" style="fill:#fff"/>
                            <path data-name="Path 7220" d="M660.5 336.143a.245.245 0 0 1-.13-.037c-9.659-6.037-29.754-2.884-29.955-2.852a.246.246 0 0 1-.078-.486 84.711 84.711 0 0 1 11.406-.868c5.78-.045 13.75.578 18.888 3.789a.246.246 0 0 1-.131.455" transform="translate(-587.914 -320.218)" style="fill:#fff"/>
                            <path data-name="Path 7221" d="M371.149 494.877a.249.249 0 0 1-.056-.006.246.246 0 0 1-.184-.3c2.636-11.392-7.249-28-7.349-28.168a.246.246 0 1 1 .422-.254 71.322 71.322 0 0 1 4.716 9.856c2 5.174 4.094 12.614 2.691 18.678a.246.246 0 0 1-.24.191" transform="translate(-362.796 -433.48)" style="fill:#fff"/>
                            <path data-name="Path 7222" d="M463.7 518.446a.246.246 0 0 1-.077-.48 183.939 183.939 0 0 1 19.695-5.044c9.93-1.948 23.54-3.589 31.99-.346a.246.246 0 0 1-.176.46c-8.341-3.2-21.853-1.566-31.719.37a183.407 183.407 0 0 0-19.636 5.029.247.247 0 0 1-.077.012" transform="translate(-447.174 -471.225)" style="fill:#fff"/>
                        </g>
                    </g>
                </g>
            </g>
        </g>
        <g data-name="Group 5222">
            <g data-name="Group 5221" style="clip-path:url(#owiq8s1rfk)" transform="translate(62.098 11.829)">
                <path data-name="Rectangle 3568" transform="rotate(-43.152 18.929 47.866)" style="fill:url(#y8v7xapaqa)" d="M0 0h50.799v52.514H0z"/>
            </g>
        </g>
        <g data-name="Group 5224">
            <g data-name="Group 5223" style="clip-path:url(#dxg05bqs5e)">
                <path data-name="Path 7225" d="m350.494 96.736-24.456-1.143V144.9l25.833-.078V98.147a1.441 1.441 0 0 0-1.377-1.411" transform="translate(-275.3 -80.717)" style="fill:#fff"/>
            </g>
        </g>
        <g data-name="Group 5226">
            <g data-name="Group 5225" style="clip-path:url(#e9a5mlgdgl)" transform="translate(9.187 9.418)">
                <path data-name="Rectangle 3570" transform="rotate(-49.87 41.3 88.849)" style="fill:url(#l8ljorryzm)" d="M0 0h128.326v123.858H0z"/>
            </g>
        </g>
        <g data-name="Group 5239">
            <g data-name="Group 5238" style="clip-path:url(#dxg05bqs5e)">
                <g data-name="Group 5231" style="mix-blend-mode:multiply;opacity:.3;isolation:isolate">
                    <g data-name="Group 5230">
                        <g data-name="Group 5229" style="clip-path:url(#r2latt8n7n)" transform="translate(9.187 9.418)">
                            <g data-name="Group 5228">
                                <g data-name="Group 5227" style="clip-path:url(#meary3zuuo)">
                                    <path data-name="Rectangle 3571" transform="rotate(-49.87 41.201 88.894)" style="fill:url(#l8cpu0z9yp)" d="M0 0h128.457v123.976H0z"/>
                                </g>
                            </g>
                        </g>
                    </g>
                </g>
                <path data-name="Path 7228" d="M181.993 234.714a2.056 2.056 0 0 1-1.866 2.086l-65.572 3.406a2.04 2.04 0 0 1-2.182-2.043V140.88a2.018 2.018 0 0 1 2.182-2.023l.878-.047 64.693 4.047a2.079 2.079 0 0 1 1.866 2.1z" transform="translate(-94.886 -117.209)" style="fill:#abc"/>
                <path data-name="Path 7229" d="M190.294 234.656a2.056 2.056 0 0 1-1.866 2.087l-65.572 3.406a2.04 2.04 0 0 1-2.182-2.043v-97.284a2.018 2.018 0 0 1 2.182-2.023l65.572 4a2.079 2.079 0 0 1 1.866 2.1z" transform="translate(-101.895 -117.195)" style="fill:#d8dee8"/>
                <g data-name="Group 5234" style="opacity:.4;mix-blend-mode:multiply;isolation:isolate">
                    <g data-name="Group 5233">
                        <g data-name="Group 5232" style="clip-path:url(#0ic2t50xwq)" transform="translate(36.769 23.194)">
                            <path data-name="Path 7230" d="M237.48 156.6c-1.63 2.1-1.863 6.054.931 7.683 6.054 3.725 13.97 2.561 19.79-1.4 4.284-3 2.46-8.559 1.234-13.055l-12.9-.787c-1.11 3.1-7.015 4.83-9.059 7.556" transform="translate(-236.276 -149.042)" style="fill:#bfc8d6"/>
                        </g>
                    </g>
                </g>
                <path data-name="Path 7231" d="M206.72 283.43a1.812 1.812 0 0 1-1.658 1.839l-59.372 2.779a1.8 1.8 0 0 1-1.91-1.805v-83.274a1.792 1.792 0 0 1 1.91-1.8l59.372 2.991a1.82 1.82 0 0 1 1.658 1.845z" transform="translate(-121.405 -169.863)" style="fill:#fff"/>
                <path data-name="Path 7232" d="M282.769 134.272a1.055 1.055 0 0 0-.992-.9l-3.125-.168a2.52 2.52 0 0 1-2.366-2.733l.155-3.428a1.091 1.091 0 0 0-1.017-1.18l-1.009-.063a1.286 1.286 0 0 1-1.171-1.535 2.292 2.292 0 0 0-2.082-2.728 2.821 2.821 0 0 0-2.874 2.411 1.643 1.643 0 0 1-.569 1 1.52 1.52 0 0 1-1.063.365l-1.03-.064a1.388 1.388 0 0 0-1.385 1.047l-.894 3.436a3.288 3.288 0 0 1-3.258 2.471l-3.287-.177a1.426 1.426 0 0 0-1.32.8l-2.359 4.735.2.259 30.266 1.18zm-12.053-9.784a.672.672 0 0 1-.613-.8.827.827 0 0 1 .841-.707.672.672 0 0 1 .612.8.827.827 0 0 1-.84.707" transform="translate(-213.731 -102.621)" style="fill:#abc"/>
                <path data-name="Path 7233" d="M284.073 135.938a1.055 1.055 0 0 0-.992-.9l-3.125-.168a2.52 2.52 0 0 1-2.366-2.733l.155-3.428a1.091 1.091 0 0 0-1.017-1.18l-1.009-.063a1.286 1.286 0 0 1-1.171-1.535 2.292 2.292 0 0 0-2.082-2.728 2.821 2.821 0 0 0-2.874 2.411 1.643 1.643 0 0 1-.569 1 1.52 1.52 0 0 1-1.063.365l-1.03-.064a1.388 1.388 0 0 0-1.385 1.047l-.895 3.436a3.288 3.288 0 0 1-3.258 2.471l-3.287-.177a1.426 1.426 0 0 0-1.32.8l-2.359 4.734 30.467 1.436zm-12.053-9.784a.672.672 0 0 1-.613-.8.827.827 0 0 1 .841-.707.672.672 0 0 1 .612.8.827.827 0 0 1-.84.707" transform="translate(-214.833 -104.028)" style="fill:#97a6b7"/>
                <path data-name="Path 7234" d="m265.148 255.442 28.024.6v-5.754l-28.024-.7z" transform="translate(-223.886 -210.747)" style="fill:#d8dee8"/>
                <path data-name="Path 7235" d="M177.957 348.1a.394.394 0 0 0 .348.425l24.687.215a.379.379 0 0 0 .337-.412v-4.982a.388.388 0 0 0-.337-.419l-24.687-.3a.385.385 0 0 0-.348.417z" transform="translate(-150.264 -289.301)" style="fill:#d8dee8"/>
                <path data-name="Path 7236" d="M177.957 405.391a.393.393 0 0 0 .348.423l24.687.128a.38.38 0 0 0 .337-.413v-1.384a.385.385 0 0 0-.337-.417l-24.687-.162a.387.387 0 0 0-.348.419z" transform="translate(-150.264 -340.763)" style="fill:#d8dee8"/>
                <path data-name="Path 7237" d="M177.957 439.7a.391.391 0 0 0 .348.422l24.687.048a.381.381 0 0 0 .337-.414v-1.384a.384.384 0 0 0-.337-.416l-24.687-.082a.389.389 0 0 0-.348.421z" transform="translate(-150.264 -369.734)" style="fill:#d8dee8"/>
                <path data-name="Path 7238" d="M177.957 474.014a.389.389 0 0 0 .348.421l24.687-.031a.383.383 0 0 0 .337-.416V472.6a.383.383 0 0 0-.337-.415h-24.687a.39.39 0 0 0-.348.422z" transform="translate(-150.264 -398.706)" style="fill:#d8dee8"/>
                <path data-name="Path 7239" d="M177.957 507.9a.388.388 0 0 0 .348.42l24.687-.111a.384.384 0 0 0 .337-.417v-1.384a.381.381 0 0 0-.337-.414l-24.687.078a.392.392 0 0 0-.348.423z" transform="translate(-150.264 -427.256)" style="fill:#d8dee8"/>
                <path data-name="Path 7240" d="m385.369 371.69 18.161-.084a1.364 1.364 0 0 0 1.183-1.485v-24.287a1.376 1.376 0 0 0-1.183-1.494l-18.161-.225a1.358 1.358 0 0 0-1.212 1.484v24.6a1.371 1.371 0 0 0 1.212 1.493" transform="translate(-324.376 -290.564)" style="fill:#d8dee8"/>
                <path data-name="Path 7241" d="M404.191 345.807v24.311a.764.764 0 0 1-.664.831l-18.161.062a.744.744 0 0 1-.646-.811v-24.574a.759.759 0 0 1 .668-.832l18.16.2h.022a.75.75 0 0 1 .621.809m-.66-1.468-18.161-.225a1.358 1.358 0 0 0-1.212 1.484v24.6a1.373 1.373 0 0 0 1.2 1.493h.008l18.161-.084a1.364 1.364 0 0 0 1.183-1.485v-24.284a1.39 1.39 0 0 0-1.143-1.493h-.04" transform="translate(-324.376 -290.564)" style="fill:#d8dee8"/>
                <path data-name="Path 7242" d="m439.578 587.212 11.4-.232a.158.158 0 0 0 .135-.171v-1.85a.151.151 0 0 0-.135-.166l-11.4.217a.159.159 0 0 0-.136.172v1.864a.152.152 0 0 0 .136.167" transform="translate(-371.057 -493.788)" style="fill:#d8dee8"/>
                <path data-name="Path 7243" d="m385.907 616.244 19.753-.458a.159.159 0 0 0 .135-.172v-1.85a.15.15 0 0 0-.135-.166l-19.753.43a.161.161 0 0 0-.138.174v1.873a.153.153 0 0 0 .138.167" transform="translate(-325.736 -518.111)" style="fill:#d8dee8"/>
                <path data-name="Path 7244" d="m385.907 645.1 19.753-.513a.159.159 0 0 0 .135-.172v-1.85a.15.15 0 0 0-.135-.165l-19.753.486a.162.162 0 0 0-.138.174v1.873a.152.152 0 0 0 .138.167" transform="translate(-325.736 -542.434)" style="fill:#d8dee8"/>
                <path data-name="Path 7245" d="m385.907 673.965 19.753-.568a.16.16 0 0 0 .135-.172v-1.85a.149.149 0 0 0-.135-.165l-19.753.541a.162.162 0 0 0-.138.174v1.875a.152.152 0 0 0 .138.167" transform="translate(-325.736 -566.757)" style="fill:#d8dee8"/>
                <path data-name="Path 7246" d="m218.179 590.7 18.853-.384a.162.162 0 0 0 .139-.174v-1.881a.154.154 0 0 0-.139-.169l-18.853.358a.164.164 0 0 0-.142.176v1.9a.156.156 0 0 0 .142.17" transform="translate(-184.106 -496.571)" style="fill:#d8dee8"/>
                <path data-name="Path 7247" d="m180.334 620.177 24.742-.573a.162.162 0 0 0 .139-.175v-1.881a.154.154 0 0 0-.139-.168l-24.742.539a.165.165 0 0 0-.143.177v1.91a.156.156 0 0 0 .143.171" transform="translate(-152.15 -521.304)" style="fill:#d8dee8"/>
                <path data-name="Path 7248" d="m180.334 649.537 24.742-.642a.163.163 0 0 0 .139-.175v-1.881a.153.153 0 0 0-.139-.168l-24.742.608a.166.166 0 0 0-.143.177v1.91a.156.156 0 0 0 .143.17" transform="translate(-152.15 -546.037)" style="fill:#d8dee8"/>
                <path data-name="Path 7249" d="m180.334 678.9 24.742-.712a.163.163 0 0 0 .139-.175v-1.881a.153.153 0 0 0-.139-.168l-24.742.678a.166.166 0 0 0-.143.178v1.911a.155.155 0 0 0 .143.17" transform="translate(-152.15 -570.769)" style="fill:#d8dee8"/>
                <g data-name="Group 5237" style="mix-blend-mode:multiply;opacity:.3;isolation:isolate">
                    <g data-name="Group 5236">
                        <g data-name="Group 5235" style="clip-path:url(#8qo4w9xkvr)" transform="translate(39.593 29.468)">
                            <path data-name="Path 7250" d="m283.081 190.9-3.125-.168a2.445 2.445 0 0 1-2.089-1.376c-2.9.606-5.946-.027-9 .583-2.1.466-1.863 3.725-4.191 3.958a79.226 79.226 0 0 1-9.914.515l-.34.682 30.467 1.436-.82-4.733a1.055 1.055 0 0 0-.992-.9" transform="translate(-254.426 -189.359)" style="fill:#97a6b7"/>
                        </g>
                    </g>
                </g>
            </g>
        </g>
        <g data-name="Group 5241">
            <g data-name="Group 5240" style="clip-path:url(#zwziqwtxgs)" transform="translate(21.553 120.928)">
                <path data-name="Rectangle 3576" transform="rotate(-61.798 3.962 7.01)" style="fill:url(#tueku0kztb)" d="M0 0h25.475v36.668H0z"/>
            </g>
        </g>
        <g data-name="Group 5248">
            <g data-name="Group 5247" style="clip-path:url(#dxg05bqs5e)">
                <g data-name="Group 5246" style="mix-blend-mode:multiply;opacity:.3;isolation:isolate">
                    <g data-name="Group 5245">
                        <g data-name="Group 5244" style="clip-path:url(#9mrgkrvxct)" transform="translate(21.553 120.928)">
                            <g data-name="Group 5243">
                                <g data-name="Group 5242" style="clip-path:url(#v3wcgtlc5u)">
                                    <path data-name="Rectangle 3577" transform="rotate(-1.313 -.003 19.333)" style="fill:url(#ebtz05ugvv)" d="M0 0h34.175v9.894H0z"/>
                                </g>
                            </g>
                        </g>
                    </g>
                </g>
            </g>
        </g>
        <g data-name="Group 5250">
            <g data-name="Group 5249" style="clip-path:url(#2g6rn0s3dw)" transform="translate(25.146 119.524)">
                <path data-name="Rectangle 3580" transform="rotate(-3.96 .091 2.815)" style="fill:url(#uu5fh5aysx)" d="M0 0h29.626v4.843H0z"/>
            </g>
        </g>
        <g data-name="Group 5252">
            <g data-name="Group 5251" style="clip-path:url(#2iuacus1ly)" transform="translate(3.966 87.302)">
                <path data-name="Rectangle 3581" transform="rotate(-85.24 8.086 9.851)" style="fill:url(#yjeirmh49z)" d="M0 0h20.202v37.804H0z"/>
            </g>
        </g>
        <g data-name="Group 5254">
            <g data-name="Group 5253" style="clip-path:url(#4z6wa98woA)" transform="translate(33.55 90.466)">
                <path data-name="Rectangle 3582" transform="rotate(-24.13 5.813 27.23)" style="fill:url(#nxbficq9kB)" d="M0 0h28.887v33.688H0z"/>
            </g>
        </g>
        <g data-name="Group 5266">
            <g data-name="Group 5265" style="clip-path:url(#dxg05bqs5e)">
                <g data-name="Group 5259" style="mix-blend-mode:multiply;opacity:.3;isolation:isolate">
                    <g data-name="Group 5258">
                        <g data-name="Group 5257" style="clip-path:url(#wbyvagxhcC)" transform="translate(33.55 90.466)">
                            <g data-name="Group 5256">
                                <g data-name="Group 5255" style="clip-path:url(#iwtnc4dmyD)">
                                    <path data-name="Rectangle 3583" transform="rotate(-24.13 5.413 27.316)" style="fill:url(#y572v5bqdE)" d="M0 0h28.923v33.84H0z"/>
                                </g>
                            </g>
                        </g>
                    </g>
                </g>
                <g data-name="Group 5264" style="mix-blend-mode:multiply;opacity:.3;isolation:isolate">
                    <g data-name="Group 5263">
                        <g data-name="Group 5262" style="clip-path:url(#gs2z09ykmF)" transform="translate(3.966 87.303)">
                            <g data-name="Group 5261">
                                <g data-name="Group 5260" style="clip-path:url(#64pico6itG)">
                                    <path data-name="Rectangle 3585" transform="rotate(-85.218 7.194 9.474)" style="fill:url(#7uxt2apprH)" d="M0 0h19.949v32.776H0z"/>
                                </g>
                            </g>
                        </g>
                    </g>
                </g>
            </g>
        </g>
        <g data-name="Group 5268">
            <g data-name="Group 5267" style="clip-path:url(#1hw7li64jI)" transform="translate(76.013 66.651)">
                <path data-name="Rectangle 3588" transform="rotate(-86.177 8.08 11.202)" style="fill:url(#79ffjx8jbc)" d="M0 0h20.013v22.985H0z"/>
            </g>
        </g>
        <g data-name="Group 5270">
            <g data-name="Group 5269" style="clip-path:url(#xldbxpfgiJ)" transform="translate(91.185 126.015)">
                <path data-name="Rectangle 3589" transform="rotate(-4.63 .079 2.952)" style="fill:url(#apemovl5rK)" d="M0 0h5.638v2.924H0z"/>
            </g>
        </g>
        <g data-name="Group 5272">
            <g data-name="Group 5271" style="clip-path:url(#ceyvxyb90L)" transform="translate(94.961 124.656)">
                <path data-name="Rectangle 3590" transform="translate(-.035 .001)" style="fill:url(#dgb8sistjM)" d="M0 0h1.466v2.188H0z"/>
            </g>
        </g>
        <g data-name="Group 5274">
            <g data-name="Group 5273" style="clip-path:url(#d6b86ong9N)" transform="translate(110.372 125.364)">
                <path data-name="Rectangle 3591" transform="rotate(-4.63 .058 4.685)" style="fill:url(#ww5rwl75yO)" d="M0 0h2.894v3.28H0z"/>
            </g>
        </g>
        <g data-name="Group 5276">
            <g data-name="Group 5275" style="clip-path:url(#ujb269oj4P)" transform="translate(111.045 123.847)">
                <path data-name="Rectangle 3592" transform="rotate(-.928 .043 2.285)" style="fill:url(#1ifkescihQ)" d="M0 0h1.541v2.335H0z"/>
            </g>
        </g>
        <g data-name="Group 5278">
            <g data-name="Group 5277" style="clip-path:url(#edpc3151tR)" transform="translate(92.624 87.511)">
                <path data-name="Rectangle 3593" transform="translate(-.154)" style="fill:url(#ptjbp96r6S)" d="M0 0h9.967v38.024H0z"/>
            </g>
        </g>
        <g data-name="Group 5285">
            <g data-name="Group 5284" style="clip-path:url(#dxg05bqs5e)">
                <g data-name="Group 5283" style="mix-blend-mode:multiply;opacity:.3;isolation:isolate">
                    <g data-name="Group 5282">
                        <g data-name="Group 5281" style="clip-path:url(#somwgcehsT)" transform="translate(93.252 87.511)">
                            <g data-name="Group 5280">
                                <g data-name="Group 5279" style="clip-path:url(#aak6at92bU)">
                                    <path data-name="Rectangle 3594" transform="rotate(-.137 -278.997 38.56)" style="fill:url(#im1omqhdfV)" d="M0 0h9.278v38.689H0z"/>
                                </g>
                            </g>
                        </g>
                    </g>
                </g>
            </g>
        </g>
        <g data-name="Group 5287">
            <g data-name="Group 5286" style="clip-path:url(#auihbotndW)" transform="translate(95.952 91.381)">
                <path data-name="Rectangle 3597" transform="rotate(-.138 -.04 33.63)" style="fill:url(#4jpih9vaeX)" d="M0 0h17.264v33.745H0z"/>
            </g>
        </g>
        <g data-name="Group 5289">
            <g data-name="Group 5288" style="clip-path:url(#wqo5789f1Y)" transform="translate(89.273 65.422)">
                <path data-name="Rectangle 3598" transform="rotate(-86.178 16.171 17.337)" style="fill:url(#b8ydn1gljZ)" d="M0 0h34.044v26.935H0z"/>
            </g>
        </g>
        <g data-name="Group 5296">
            <g data-name="Group 5295" style="clip-path:url(#dxg05bqs5e)">
                <g data-name="Group 5294" style="mix-blend-mode:multiply;opacity:.3;isolation:isolate">
                    <g data-name="Group 5293">
                        <g data-name="Group 5292" style="clip-path:url(#ogabjqu8laa)" transform="translate(91.11 75.618)">
                            <g data-name="Group 5291">
                                <g data-name="Group 5290" style="clip-path:url(#3wkwop7aoab)">
                                    <path data-name="Rectangle 3599" transform="rotate(-23.402 4.024 21.431)" style="fill:url(#f2pe9dukoac)" d="M0 0h27v28.425H0z"/>
                                </g>
                            </g>
                        </g>
                    </g>
                </g>
                <path data-name="Path 7268" d="M623.98 419.018c0 .938-1.4 4.122-3.807 8.773-.669 1.288-1.463 2.7-2.3 4.221a26.707 26.707 0 0 1-1.053-2.861 22.668 22.668 0 0 1-.365-9.855c.014-.052.2-.1.2-.1a15.349 15.349 0 0 1 7.317-.179" transform="translate(-520.214 -353.506)" style="fill:#fff"/>
            </g>
        </g>
        <g data-name="Group 5298">
            <g data-name="Group 5297" style="clip-path:url(#ohkadp8irad)" transform="translate(96.355 61.172)">
                <path data-name="Rectangle 3602" transform="rotate(-28.24 1.469 6.07)" style="fill:url(#hx3k3s2lhae)" d="M0 0h9.593v9.123H0z"/>
            </g>
        </g>
        <g data-name="Group 5300">
            <g data-name="Group 5299" style="clip-path:url(#bjkjjy0o0af)" transform="translate(96.864 59.345)">
                <path data-name="Rectangle 3603" transform="translate(-.122)" style="fill:url(#wm5kgbq2pag)" d="M0 0h4.395v4.538H0z"/>
            </g>
        </g>
        <g data-name="Group 5302">
            <g data-name="Group 5301" style="clip-path:url(#tmomhdzfbah)" transform="translate(97.058 61.117)">
                <path data-name="Rectangle 3604" transform="rotate(-22.28 .46 3.932)" style="fill:url(#ix9c5n0lrai)" d="M0 0h4.921v4.525H0z"/>
            </g>
        </g>
        <g data-name="Group 5304">
            <g data-name="Group 5303" style="clip-path:url(#0l51ypfwcaj)" transform="translate(97.072 61.317)">
                <path data-name="Rectangle 3605" transform="translate(-.095)" style="fill:url(#bpuuaeutdak)" d="M0 0h3.545v3.444H0z"/>
            </g>
        </g>
        <g data-name="Group 5306">
            <g data-name="Group 5305" style="clip-path:url(#o2m3qag2fal)" transform="translate(98.331 67.18)">
                <path data-name="Rectangle 3606" style="fill:url(#rm79hzvztam)" d="M0 0h2.221v1.536H0z"/>
            </g>
        </g>
        <g data-name="Group 5308">
            <g data-name="Group 5307" style="clip-path:url(#3uzxo29jyan)" transform="translate(96.609 68.546)">
                <path data-name="Rectangle 3607" transform="rotate(-1.202 .086 9.964)" style="fill:url(#wlab9qmyjao)" d="M0 0h3.557v10.028H0z"/>
            </g>
        </g>
        <g data-name="Group 5315">
            <g data-name="Group 5314" style="clip-path:url(#dxg05bqs5e)">
                <g data-name="Group 5313" style="mix-blend-mode:multiply;opacity:.3;isolation:isolate">
                    <g data-name="Group 5312">
                        <g data-name="Group 5311" style="clip-path:url(#3b0ijt9csap)" transform="translate(96.609 68.815)">
                            <g data-name="Group 5310">
                                <g data-name="Group 5309" style="clip-path:url(#i9yunqpp0aq)">
                                    <path data-name="Rectangle 3608" style="fill:url(#nlcr5wq9bar)" d="M0 0h2.719v9.691H0z"/>
                                </g>
                            </g>
                        </g>
                    </g>
                </g>
            </g>
        </g>
        <g data-name="Group 5317">
            <g data-name="Group 5316" style="clip-path:url(#osudm215gas)" transform="translate(74.921 72.09)">
                <path data-name="Rectangle 3611" transform="rotate(-16.13 3.522 24.857)" style="fill:url(#8npjv8rd4at)" d="M0 0h46.748v35.842H0z"/>
            </g>
        </g>
        <g data-name="Group 5319">
            <g data-name="Group 5318" style="clip-path:url(#ciqi0pyf7au)" transform="translate(35.053 37.801)">
                <path data-name="Rectangle 3612" transform="rotate(-16.13 5.566 61.314)" style="fill:url(#frm5bcmweav)" d="M0 0h64.916v63.946H0z"/>
            </g>
        </g>
        <g data-name="Group 5331">
            <g data-name="Group 5330" style="clip-path:url(#dxg05bqs5e)">
                <g data-name="Group 5324" style="mix-blend-mode:multiply;opacity:.3;isolation:isolate">
                    <g data-name="Group 5323">
                        <g data-name="Group 5322" style="clip-path:url(#cc82mtvc3aw)" transform="translate(74.921 72.09)">
                            <g data-name="Group 5321">
                                <g data-name="Group 5320" style="clip-path:url(#e1o000ukfax)">
                                    <path data-name="Rectangle 3613" transform="rotate(-16.13 3.522 24.857)" style="fill:url(#8npjv8rd4at)" d="M0 0h46.748v35.842H0z"/>
                                </g>
                            </g>
                        </g>
                    </g>
                </g>
                <g data-name="Group 5329" style="opacity:.1">
                    <g data-name="Group 5328">
                        <g data-name="Group 5327" style="clip-path:url(#deasvigsmay)" transform="translate(36.915 41.909)">
                            <g data-name="Group 5326">
                                <g data-name="Group 5325" style="clip-path:url(#khvipj06jaz)">
                                    <path data-name="Rectangle 3615" transform="translate(-2.729 -3.002)" style="fill:url(#29pp7ttpyaA)" d="M0 0h45.826v47.606H0z"/>
                                </g>
                            </g>
                        </g>
                    </g>
                </g>
            </g>
        </g>
        <g data-name="Group 5333">
            <g data-name="Group 5332" style="clip-path:url(#4patsp63paB)" transform="translate(34.03 38.7)">
                <path data-name="Rectangle 3618" transform="rotate(-41.876 15.567 48.839)" style="fill:url(#8nhbidzosaC)" d="M0 0h73.52v73.411H0z"/>
            </g>
        </g>
        <g data-name="Group 5335">
            <g data-name="Group 5334" style="clip-path:url(#mi1leufzeaD)" transform="translate(35.277 40.09)">
                <path data-name="Rectangle 3619" transform="rotate(-16.13 4.013 58.045)" style="fill:url(#s452jn698aE)" d="M0 0h61.336v60.674H0z"/>
            </g>
        </g>
        <g data-name="Group 5337">
            <g data-name="Group 5336" style="clip-path:url(#ukq3iclkkaF)" transform="translate(106.428 67.142)">
                <path data-name="Rectangle 3620" transform="rotate(-86.178 12.072 14.329)" style="fill:url(#1lfzdudgpaG)" d="M0 0h26.829v21.952H0z"/>
            </g>
        </g>
        <g data-name="Group 5339">
            <g data-name="Group 5338" style="clip-path:url(#yexxfe1c8aH)" transform="translate(77.963 77.154)">
                <path data-name="Rectangle 3621" transform="rotate(-79.98 .916 1.25)" style="fill:url(#pf49poraqaI)" d="M0 0h2.531v3.558H0z"/>
            </g>
        </g>
        <g data-name="Group 5341">
            <g data-name="Group 5340" style="clip-path:url(#xgi771gttaJ)" transform="translate(110.302 90.708)">
                <path data-name="Rectangle 3622" transform="rotate(-68.809 1.014 1.812)" style="fill:url(#ir83d85rnaK)" d="M0 0h3.52v4.137H0z"/>
            </g>
        </g>
    </g>
</svg>
