<svg data-name="Group 7523" xmlns="http://www.w3.org/2000/svg" width="185.057" height="122.063" viewBox="0 0 185.057 122.063">
    <defs>
        <clipPath id="9xran5o52a">
            <path data-name="Rectangle 4608" style="fill:none" d="M0 0h185.057v122.063H0z"/>
        </clipPath>
        <clipPath id="0deh617nzb">
            <path data-name="Rectangle 4602" style="fill:none" d="M0 0h7.464v7.464H0z"/>
        </clipPath>
    </defs>
    <g data-name="Group 7522" style="clip-path:url(#9xran5o52a)">
        <path data-name="Rectangle 4599" transform="rotate(-62.733 43.884 -30.247)" style="fill:#aacbe8" d="M0 0h1.631v.719H0z"/>
        <g data-name="Group 7521">
            <g data-name="Group 7520" style="clip-path:url(#9xran5o52a)">
                <path data-name="Path 9533" d="M98.873 35.094a4.4 4.4 0 1 1 3.914-2.38 4.371 4.371 0 0 1-3.914 2.38m.015-8a3.6 3.6 0 0 0-3.435 4.695 3.6 3.6 0 1 0 3.434-4.689" transform="translate(-45.451 -12.653)" style="fill:#aacbe8"/>
                <path data-name="Rectangle 4600" transform="rotate(-62.705 45.697 -26.611)" style="fill:#aacbe8" d="M0 0h4.232v1.476H0z"/>
                <path data-name="Rectangle 4601" transform="rotate(-62.705 45.538 -26.874)" style="fill:#d5eaf5" d="M0 0h3.591v1.476H0z"/>
                <g data-name="Group 7519" style="opacity:.73">
                    <g data-name="Group 7518">
                        <g data-name="Group 7517" style="clip-path:url(#0deh617nzb)" transform="translate(49.697 14.313)">
                            <path data-name="Path 9534" d="M102.813 33.024A3.731 3.731 0 1 1 101.208 28a3.731 3.731 0 0 1 1.605 5.027" transform="translate(-95.765 -27.581)" style="fill:#d5eaf5"/>
                        </g>
                    </g>
                </g>
                <path data-name="Path 9535" d="M169.993 224.171c0 2.137-16.711 3.869-37.324 3.869s-37.324-1.732-37.324-3.869 16.71-3.869 37.324-3.869 37.324 1.732 37.324 3.869" transform="translate(-45.867 -105.977)" style="fill:#f4e8d3"/>
                <path data-name="Path 9536" d="M100.107 88.657a2.8 2.8 0 1 1-2.8-2.8 2.8 2.8 0 0 1 2.8 2.8" transform="translate(-45.461 -41.301)" style="fill:#ffcb48"/>
                <path data-name="Path 9537" d="M99.9 85.974a9.6 9.6 0 0 0 2.054 1.2 10.475 10.475 0 0 0 2.11.68 13.348 13.348 0 0 0 4.2.217 17.538 17.538 0 0 0 4.056-.825 23.61 23.61 0 0 0 3.826-1.7c1.279-.7 2.585-1.5 4-2.288.712-.388 1.428-.8 2.2-1.154.377-.184.774-.36 1.167-.53s.8-.32 1.223-.459a14.5 14.5 0 0 1 5.2-.836 11.734 11.734 0 0 1 4.936 1.266 26.827 26.827 0 0 0-4.586 1.16 20.158 20.158 0 0 0-3.9 1.965c-1.228.778-2.432 1.663-3.71 2.582a38.618 38.618 0 0 1-4.164 2.682 18.351 18.351 0 0 1-5.012 1.878c-.444.1-.9.153-1.35.226-.454.047-.909.089-1.363.095a14.208 14.208 0 0 1-2.7-.161 11.8 11.8 0 0 1-5.051-1.909 8.724 8.724 0 0 1-1.951-1.814 6.183 6.183 0 0 1-1.188-2.28" transform="translate(-48.058 -38.618)" style="fill:#ffcb48"/>
                <path data-name="Path 9538" d="M168.457 45.81a5.334 5.334 0 1 1-5.334-5.333 5.334 5.334 0 0 1 5.334 5.333" transform="translate(-75.905 -19.472)" style="fill:#ffcb48"/>
                <path data-name="Path 9539" d="M167.776 60.058h-10.41a.724.724 0 0 1-.724-.724v-3.425a.724.724 0 0 1 .724-.724h10.41a.724.724 0 0 1 .724.724v3.425a.724.724 0 0 1-.724.724" transform="translate(-75.353 -26.547)" style="fill:#ff9a2e"/>
                <path data-name="Rectangle 4603" transform="translate(83.474 31.672)" style="fill:#ff9a2e" d="M0 0h7.489v79.216H0z"/>
                <path data-name="Path 9540" d="M167.868 211.791h-30.433a1.415 1.415 0 0 1-1.415-1.415 2.647 2.647 0 0 1 2.647-2.647h27.97a2.647 2.647 0 0 1 2.646 2.647 1.415 1.415 0 0 1-1.415 1.415" transform="translate(-65.433 -99.929)" style="fill:#ff9a2e"/>
                <path data-name="Path 9541" d="M169.57 221.4h-41.127a5.848 5.848 0 0 1 5.848-5.848h29.43a5.848 5.848 0 0 1 5.848 5.848" transform="translate(-61.788 -103.694)" style="fill:#ff9a2e"/>
                <path data-name="Path 9542" d="m85.639 152.948-15.326-.5a9.521 9.521 0 0 0 .379 1.287 10.76 10.76 0 0 0 6.851 6.741 29.767 29.767 0 0 0 7.675 1.142h.421a33.381 33.381 0 0 0 8.1-1.142 10.759 10.759 0 0 0 6.851-6.741 9.426 9.426 0 0 0 .379-1.287z" transform="translate(-33.824 -73.335)" style="fill:#ffcb48"/>
                <path data-name="Path 9543" d="M70.779 124.317a.416.416 0 0 1-.371-.6l14.885-29.711a.416.416 0 0 1 .743 0l14.873 29.709a.415.415 0 1 1-.743.372l-14.5-28.967-14.515 28.968a.416.416 0 0 1-.372.229" transform="translate(-33.849 -45.112)" style="fill:#ffcb48"/>
                <path data-name="Path 9544" d="M99.461 128.692a.416.416 0 0 1-.416-.416V94.193a.416.416 0 0 1 .831 0v34.083a.416.416 0 0 1-.416.416" transform="translate(-47.646 -45.112)" style="fill:#ffcb48"/>
                <path data-name="Path 9545" d="M100.966 148.688c0 2.239-6.862 4.053-15.326 4.053s-15.326-1.815-15.326-4.053 6.862-4.053 15.326-4.053 15.326 1.815 15.326 4.053" transform="translate(-33.825 -69.577)" style="fill:#ffe5b0"/>
                <path data-name="Path 9546" d="M202.241 86.552a6.182 6.182 0 0 1-1.188 2.28 8.723 8.723 0 0 1-1.951 1.814 11.8 11.8 0 0 1-5.051 1.909 14.207 14.207 0 0 1-2.7.161 15.222 15.222 0 0 1-1.363-.095c-.448-.073-.907-.122-1.35-.226a18.351 18.351 0 0 1-5.012-1.878 38.619 38.619 0 0 1-4.164-2.682c-1.278-.919-2.482-1.8-3.71-2.582a20.159 20.159 0 0 0-3.9-1.965 26.828 26.828 0 0 0-4.586-1.16 11.734 11.734 0 0 1 4.936-1.266 14.5 14.5 0 0 1 5.2.836c.418.14.817.3 1.223.459s.789.346 1.167.53c.773.356 1.489.766 2.2 1.154 1.412.793 2.718 1.593 4 2.288a23.545 23.545 0 0 0 3.826 1.7 17.538 17.538 0 0 0 4.056.825 13.349 13.349 0 0 0 4.2-.217 10.475 10.475 0 0 0 2.11-.68 9.6 9.6 0 0 0 2.054-1.2" transform="translate(-80.465 -38.896)" style="fill:#ffcb48"/>
                <path data-name="Path 9547" d="m220.51 152.948 15.326-.5a9.521 9.521 0 0 1-.379 1.287 10.761 10.761 0 0 1-6.851 6.741 29.771 29.771 0 0 1-7.675 1.142h-.421a33.381 33.381 0 0 1-8.1-1.142 10.761 10.761 0 0 1-6.851-6.741 9.525 9.525 0 0 1-.379-1.287z" transform="translate(-98.704 -73.335)" style="fill:#ffcb48"/>
                <path data-name="Path 9548" d="M235.429 124.334a.416.416 0 0 1-.372-.229l-14.513-28.967-14.5 28.967a.415.415 0 1 1-.743-.372l14.873-29.709a.433.433 0 0 1 .743 0l14.883 29.708a.416.416 0 0 1-.371.6" transform="translate(-98.739 -45.129)" style="fill:#ffcb48"/>
                <path data-name="Path 9549" d="M234.332 128.692a.416.416 0 0 1-.416-.416V94.193a.416.416 0 1 1 .831 0v34.083a.416.416 0 0 1-.416.416" transform="translate(-112.526 -45.112)" style="fill:#ffcb48"/>
                <path data-name="Path 9550" d="M205.184 148.688c0 2.239 6.862 4.053 15.326 4.053s15.326-1.815 15.326-4.053-6.862-4.053-15.326-4.053-15.326 1.815-15.326 4.053" transform="translate(-98.704 -69.577)" style="fill:#ffe5b0"/>
                <path data-name="Path 9551" d="M168.533 78.216a6.362 6.362 0 1 1-6.362-6.362 6.362 6.362 0 0 1 6.362 6.362" transform="translate(-74.952 -34.566)" style="fill:#ffcb48"/>
                <path data-name="Path 9552" d="M90.637 133.707c-.225-.228-.928-.449-1.189-.263-.442.317-.8 1.208-1.569 2.717-1.519 2.981-1.245 3.456-1.245 3.456l1.155 1.6s2.369-5.116 2.949-6.064a1.041 1.041 0 0 0-.1-1.442" transform="translate(-41.666 -64.16)" style="fill:#295a6e"/>
                <path data-name="Path 9553" d="M78.314 157.142a.2.2 0 0 0-.129-.193 3.213 3.213 0 0 0-1.282-.12 1.347 1.347 0 0 0-.9.649c-.044.1-.143.3-.071.417.043.067.367-.105.615-.366.157-.167.407-.087.558 0 0 0-.381.2-.333.313s.794-.1.983-.235a6.32 6.32 0 0 1 .751-.232c.094-.006-.2-.073-.194-.228" transform="translate(-36.516 -75.431)" style="fill:#ff97a6"/>
                <path data-name="Path 9554" d="M80.438 150.275a.488.488 0 0 0 .414-.257 38.175 38.175 0 0 0 3.282-5.293c.26-.88.465-3.247-.73-2.678a18.237 18.237 0 0 0-2.637 3.181c-1.6 2.311-4.2 4.747-.33 5.048" transform="translate(-37.724 -68.29)" style="fill:#295a6e"/>
                <path data-name="Path 9555" d="M105.124 133.306c.225-.228.577-.6.838-.41a9.531 9.531 0 0 1 1.92 2.865c1.519 2.981 1.245 3.456 1.245 3.456l-1.14 1.627s-2.384-5.146-2.963-6.1a1.041 1.041 0 0 1 .1-1.442" transform="translate(-50.407 -63.905)" style="fill:#1c4d59"/>
                <path data-name="Path 9556" d="M119.063 156.859a.2.2 0 0 1 .129-.193 3.212 3.212 0 0 1 1.282-.12 1.347 1.347 0 0 1 .9.649c.044.1.143.3.071.417-.043.067-.367-.105-.615-.366-.157-.167-.407-.087-.558 0 0 0 .381.2.333.313s-.794-.1-.983-.235a6.305 6.305 0 0 0-.751-.232c-.093-.006.2-.074.194-.228" transform="translate(-57.174 -75.295)" style="fill:#ff97a6"/>
                <path data-name="Path 9557" d="M113.589 150.317c-.179.014-.279-.134-.414-.257a26.993 26.993 0 0 1-3.7-6.18c-.261-.88-.06-1.937 1.135-1.369a12.153 12.153 0 0 1 2.217 2.316c1.784 2.174 4.626 5.19.759 5.49" transform="translate(-52.616 -68.478)" style="fill:#1c4d59"/>
                <path data-name="Path 9558" d="M91.438 143.893a16.007 16.007 0 0 1-1.823 4.1c-.5.974-.885 3.2-.213 4.375a2.6 2.6 0 0 0 1.66 1.054l4.336-2.5.142-6.148z" transform="translate(-42.834 -69.22)" style="fill:#30193b"/>
                <path data-name="Path 9559" d="M94.35 189.523a2.151 2.151 0 0 0-.333-2c.074.108.174.644.011.674-.238.045-.5-.489-.59-.75a1.077 1.077 0 0 0-.141.545c.035.792.738 2.006 1.051 1.529" transform="translate(-44.881 -90.173)" style="fill:#30193b"/>
                <path data-name="Path 9560" d="M93.652 186.064c0 .235.006.363 0 .364a.543.543 0 0 0-.087.118c-.031.318.275 1.055.651.98.186-.037.268-.39.034-.743a4.45 4.45 0 0 0-.285-.407q.047-.134.1-.292c.272-.751-.43-.606-.421-.02" transform="translate(-45.011 -89.27)" style="fill:#ff97a6"/>
                <path data-name="Path 9561" d="M99.954 144.277a21.991 21.991 0 0 0 2.963 4.927 4.311 4.311 0 0 1 .659 3.682c-.283.945-2.171 1.833-2.171 1.833l-4.472-3.45-.563-6.453z" transform="translate(-46.359 -69.405)" style="fill:#30193b"/>
                <path data-name="Path 9562" d="M102.428 189.508a2.151 2.151 0 0 1 .565-1.946c-.086.1-.248.619-.09.668.231.072.557-.427.673-.676a1.081 1.081 0 0 1 .076.558c-.128.783-.969 1.905-1.224 1.394" transform="translate(-49.249 -90.224)" style="fill:#30193b"/>
                <path data-name="Path 9563" d="M103.821 186.123c-.031.233-.048.36-.047.361a.557.557 0 0 1 .073.128c-.007.319-.4 1.015-.762.9-.181-.059-.22-.419.053-.742a4.362 4.362 0 0 1 .332-.371l-.069-.3c-.182-.777.5-.551.42.03" transform="translate(-49.52 -89.281)" style="fill:#ff97a6"/>
                <path data-name="Path 9564" d="M92.075 132.773c.7-.512 2.79-1.112 6.639-.6a4.53 4.53 0 0 1 1.133.3 36.942 36.942 0 0 1-.29 1.518 18.16 18.16 0 0 0-.6 3.267c-.19.92-.383 2.854-.383 2.854a23.159 23.159 0 0 1-2.975.306c-1.036.011-3.16-.089-3.212-.607-.1-1.026-.062-2.577-.177-4.06-.131-1.7-.136-2.985-.136-2.985" transform="translate(-44.293 -63.489)" style="fill:#295a6e"/>
                <path data-name="Path 9566" d="M99.805 131.986s.616.017.886.034c.5.031 1.027.083 1.6.159a4.546 4.546 0 0 1 1.133.3 12.966 12.966 0 0 0-.2 1.967 16.283 16.283 0 0 1-.141 2.756c-.19.92-.735 2.976-.735 2.976s.08.134-2.845.248a14.1 14.1 0 0 0 .638-4.319c-.085-2.388-.338-4.125-.338-4.125" transform="translate(-47.868 -63.492)" style="fill:#1c4d59"/>
                <path data-name="Path 9567" d="M100.222 129.952a7.208 7.208 0 0 1-.07 1.548.4.4 0 0 1-.68-.071 3.729 3.729 0 0 1 .18-1.55z" transform="translate(-47.828 -62.479)" style="fill:#ff97a6"/>
                <path data-name="Path 9568" d="M100.294 130.965c-.232.091-.542-.124-.724-.47a.957.957 0 0 1 .069-.313l.643-.318c0 .2.02.868.012 1.1" transform="translate(-47.898 -62.472)" style="fill:#c95d77"/>
                <path data-name="Path 9569" d="M99.242 131.52a1.209 1.209 0 0 0 .328.9l-.429.438s-.442-.434.1-1.338" transform="translate(-47.611 -63.268)" style="fill:#1c4d59"/>
                <path data-name="Path 9570" d="M100.535 131.709s.071.4-.47.8l.316.56a.93.93 0 0 0 .154-1.357" transform="translate(-48.137 -63.359)" style="fill:#295a6e"/>
                <path data-name="Path 9571" d="M98.585 128.037a2.909 2.909 0 0 1-.01-.932.377.377 0 0 1 .142-.27 1.928 1.928 0 0 1 1.609-.036c.22.157.214.482.215.723s-.193 1.446-.975 1.387c-.852-.064-.856-.4-.98-.872" transform="translate(-47.404 -60.919)" style="fill:#ff97a6"/>
                <path data-name="Path 9572" d="M92.807 170.638h-.858s-3.071-13.46 0-16.992a2.026 2.026 0 0 1 3.3.314c.952 1.873-2.442 16.678-2.442 16.678" transform="translate(-43.575 -73.569)" style="fill:#3b2b5b"/>
                <path data-name="Path 9573" d="m102.765 170.615.853.1s4.818-12.994 2.184-16.863a2.026 2.026 0 0 0-3.316-.076c-1.166 1.748.279 16.838.279 16.838" transform="translate(-49.083 -73.569)" style="fill:#3b2b5b"/>
                <path data-name="Path 9574" d="M100.263 125.308a.542.542 0 0 0-.246-.245c.029-.408-.08-.989-.477-1.168a2.074 2.074 0 0 0-1.093-.094c-.361.054-.848.565-1.2.487-.309-.021-.326-.507-.47-.335a.5.5 0 0 0-.069.229 1.086 1.086 0 0 0 .433 1.022.971.971 0 0 0 .349.154.5.5 0 0 0-.043.216 2.853 2.853 0 0 0 .159.924 2.427 2.427 0 0 0 .107.275c.007.018-.063-.829-.04-.953.055-.306.11-.355.271-.413.437.006 1.078-.182 1.4.067.5.3.065 1.373.087 1.533.01.078.309-.271.359-.344a2.063 2.063 0 0 0 .367-.7 1.134 1.134 0 0 0 .106-.658" transform="translate(-46.516 -59.54)" style="fill:#3b2b5b"/>
                <path data-name="Path 9575" d="M97.688 126.909a2.905 2.905 0 0 1-.257-.685 1.52 1.52 0 0 1-.013-.742l.037.06a1.026 1.026 0 0 1-.716-.594 1.105 1.105 0 0 1-.087-.463.607.607 0 0 1 .154-.429.6.6 0 0 0-.1.43 1.043 1.043 0 0 0 .11.429.987.987 0 0 0 .658.535.048.048 0 0 1 .034.058 1.63 1.63 0 0 0-.01.7 4.146 4.146 0 0 0 .189.7" transform="translate(-46.495 -59.677)" style="fill:#7f65c1"/>
                <path data-name="Path 9576" d="M247.007 158.015c.1-.568-.7-.411-1.158-.539.139.083.278.2.064.269a1.585 1.585 0 0 1-1.215-.207 1.456 1.456 0 0 0-.079.569c.008.208 2.321.3 2.389-.092" transform="translate(-117.674 -75.754)" style="fill:#3b2b5b"/>
                <path data-name="Path 9577" d="M245.988 157.4c.213-.067.075-.186-.064-.269-.286-.079-.526-.134-.579-.157a.334.334 0 0 1-.182-.185l-.144-.026s-.225.381-.245.431a1.584 1.584 0 0 0 1.215.207" transform="translate(-117.749 -75.413)" style="fill:#ff97a6"/>
                <path data-name="Path 9578" d="M224.44 158.344c-.1-.568.7-.411 1.158-.539-.139.083-.278.2-.064.269a1.585 1.585 0 0 0 1.215-.207 1.456 1.456 0 0 1 .079.569c-.008.208-2.321.3-2.389-.092" transform="translate(-107.964 -75.913)" style="fill:#3b2b5b"/>
                <path data-name="Path 9579" d="M226.454 157.732c-.214-.066-.076-.186.063-.269.286-.079.526-.134.58-.157a.334.334 0 0 0 .182-.185l.144-.026s.225.381.245.431a1.584 1.584 0 0 1-1.214.207" transform="translate(-108.884 -75.571)" style="fill:#ff97a6"/>
                <path data-name="Path 9580" d="M234.981 106.676a20.6 20.6 0 0 1 1.577 3.181c1.028 2.77.437 19.429.036 22.393-.054.4-1.008 0-1.03-.5-.139-3.124-3.655-18.66-3.655-18.66l-4.184 19.587h-.982s1.243-25.932 1.716-26.673c.927-.2 5.084.554 6.522.67" transform="translate(-109.076 -50.979)" style="fill:#3b2b5b"/>
                <path data-name="Path 9581" d="M239.652 107.324a20.6 20.6 0 0 1 1.577 3.181c1.028 2.77.437 19.429.036 22.393-.029.213-.313.2-.576.064a84.758 84.758 0 0 0-1.51-12.7c-.56-2.683-1.058-5.758-1.585-7.88-.729-2.93-1.445-4.44-1.008-4.425 1.225.042 2.414-.682 3.066-.629" transform="translate(-113.746 -51.628)" style="fill:#30193b"/>
                <path data-name="Path 9582" d="M231.535 91.768c.71-.518 2.394-1.029 5.968-.138a3.721 3.721 0 0 1 1.036.433 7.119 7.119 0 0 0 .107 2.826 12.178 12.178 0 0 0-.93 2.447c-.278 1.017-.61 3.277-.61 3.277s-2.463.088-3.654 0c-.978-.072-3.565-.951-3.558-1.536a20.766 20.766 0 0 1 .666-4.041 22.64 22.64 0 0 1 .974-3.268" transform="translate(-110.592 -43.845)" style="fill:#ffe5b0"/>
                <path data-name="Path 9584" d="M226.294 74.1c0 .919-.558 5.973-.558 5.973s-1.591.959-1.865-.039c-.3-1.1-.351-2.461-.633-4.111-.278-1.621 1.807-3.846 1.807-3.846s1.252 1.105 1.248 2.024" transform="translate(-107.377 -34.67)" style="fill:#295a6e"/>
                <path data-name="Path 9585" d="M225.323 84.45s2.515 1.677 3.411 2.262a6.937 6.937 0 0 0 2.257 1.221c.47.169-.971.6-.711 1.871a33.233 33.233 0 0 1-5.523-3.365c-.806-.722.566-1.989.566-1.989" transform="translate(-107.998 -40.625)" style="fill:#295a6e"/>
                <path data-name="Path 9586" d="M225.927 70.207c.1-.368.538-.63.714-.364a2.153 2.153 0 0 1 .093.324c.025.106.045.2.045.2s.013-.327.115-.283.1.213.077.344-.053.854-.477 1.074c.04.012-.127 0-.164-.038a1.731 1.731 0 0 1-.4-1.253" transform="translate(-108.673 -33.546)" style="fill:#ff97a6"/>
                <path data-name="Path 9587" d="M226.891 68.95s-.155-.146-.058.436l.356.5a4.9 4.9 0 0 0-.3-.934" transform="translate(-109.103 -33.161)" style="fill:#ff97a6"/>
                <path data-name="Path 9588" d="M238.494 91.291s.476.06.729.1c.463.075.96.177 1.489.309a3.74 3.74 0 0 1 1.036.433 3.325 3.325 0 0 0 .385 2.3 18.335 18.335 0 0 0-1.208 2.975c-.278 1.017-.61 3.276-.61 3.276s-1.516.188-2.022.185c-.409 0-1.73-.195-1.73-.195a21.2 21.2 0 0 0 .325-3.074 26.127 26.127 0 0 1 1.607-6.309" transform="translate(-113.799 -43.916)" style="fill:#f9cb9d"/>
                <path data-name="Path 9589" d="m239.163 92.569.153.465.227.035.412-.4s-.412-.431-.792-.1" transform="translate(-115.05 -44.47)" style="fill:#3b2b5b"/>
                <path data-name="Path 9590" d="M238.264 93.019s.179 3.268.179 4.357-.241 1.343-.241 1.343l-.974.437-.724-.816a41.564 41.564 0 0 1 1.6-5.321c.387-.43.159 0 .159 0" transform="translate(-113.771 -44.655)" style="fill:#3b2b5b"/>
                <path data-name="Path 9591" d="M238.978 85.613c0-.019.217-1.442.281-1.615a1.693 1.693 0 0 1 .349-.65 1.136 1.136 0 0 1 1.554.142c.173.256.27.957.816.73 0 0 .309-.269.127.133a.988.988 0 0 1-.554.59s-.355 1.589-.386 1.609-2.257-.484-2.187-.939" transform="translate(-114.96 -39.978)" style="fill:#ff5e4d"/>
                <path data-name="Path 9592" d="M241.725 84.3c.012-.033.026-.066.036-.1a.19.19 0 0 0 .01-.1c-.013-.025-.056 0-.081.015a.613.613 0 0 0-.082.064.469.469 0 0 1-.335.033.508.508 0 0 1-.256-.227c-.125-.187-.176-.417-.307-.571a1.114 1.114 0 0 0-1.158-.242c-.4.125-.57.6-.664 1l-.235 1.292v.009l-.005.006a3.266 3.266 0 0 0-.31.44 1.229 1.229 0 0 0-.145.515 1.242 1.242 0 0 1 .111-.531 2.521 2.521 0 0 1 .289-.464l-.007.016c.059-.435.115-.87.2-1.3a1.589 1.589 0 0 1 .088-.325 2.3 2.3 0 0 1 .132-.31 1.04 1.04 0 0 1 .208-.277.828.828 0 0 1 .305-.173 1.324 1.324 0 0 1 .679-.039.975.975 0 0 1 .592.332 6.036 6.036 0 0 1 .293.6.479.479 0 0 0 .216.213.426.426 0 0 0 .305-.01.659.659 0 0 1 .09-.061.244.244 0 0 1 .052-.022c.017-.006.047 0 .055.02a.19.19 0 0 1-.017.108c-.012.034-.029.065-.043.1" transform="translate(-114.58 -39.926)" style="fill:#ff766c"/>
                <path data-name="Path 9593" d="M240.653 91.341a7.281 7.281 0 0 1 2.925 1.2l-.2 2.125a28.544 28.544 0 0 0-1.225 3.214 6.025 6.025 0 0 0-.245 1.895s.8 2.884 1.193 3.826a8.248 8.248 0 0 1-3.547.811 6.822 6.822 0 0 1 0-4.681c.9-2.7 1.5-8.3 1.1-8.387" transform="translate(-115.044 -43.94)" style="fill:#1c4d59"/>
                <path data-name="Path 9594" d="M244.958 110.743s-.683-.716-.975-.555-.778.411-.739.55.391-.052.391-.052a2.7 2.7 0 0 0-.154.386c0 .068.2.014.2.014a.163.163 0 0 0 .024.183c.076.1.23-.166.376-.212s.66.2.957.122c.11-.03.12-.248-.078-.436" transform="translate(-117.012 -52.995)" style="fill:#ff97a6"/>
                <path data-name="Path 9595" d="M244.822 92.346s5.158 2.533 5.828 4.982c.5 1.825-2.31 6.067-4.52 6.111-.822.017-.952-1.46-.952-1.46l3-4.48-4.054-3.814z" transform="translate(-117.435 -44.423)" style="fill:#1c4d59"/>
                <path data-name="Path 9596" d="M240.311 91.084a.924.924 0 0 1 .432.9c-.242 1.992-1.307 8.436-1.32 8.54-.016.124 2.793-5.768 2.824-5.983s-.622-.522-.622-.522.96-.449.884-.543a8.617 8.617 0 0 0-.987-1.995 2.852 2.852 0 0 0-1.638-.661z" transform="translate(-115.176 -43.689)" style="fill:#295a6e"/>
                <path data-name="Path 9597" d="m233.343 92.527-2.075 7.888s-.33 3.622-.413 4.051a4.372 4.372 0 0 1-2.484-.344s.264-2.281.641-4.694c0 0 1.106-7.2 1.533-7.829s2.8.927 2.8.927" transform="translate(-109.859 -43.992)" style="fill:#295a6e"/>
                <path data-name="Path 9598" d="M236.677 90.774a.469.469 0 0 0-.41.373l-2.325 8.813c-.025.122-.011-6.418.03-6.631s.756-.295.756-.295-.765-.733-.663-.8a8.636 8.636 0 0 1 1.574-1.572 2.485 2.485 0 0 1 1.759.036z" transform="translate(-112.532 -43.536)" style="fill:#1c4d59"/>
                <path data-name="Path 9599" d="M240.315 89.3s.008 1.347-.152 1.463a.662.662 0 0 1-.893-.182c-.212-.382.3-1.446.3-1.446z" transform="translate(-115.077 -42.879)" style="fill:#ff97a6"/>
                <path data-name="Path 9600" d="M240.395 90.355a1.089 1.089 0 0 1-.937-.57c.041-.236.028-.1.1-.287l.86-.194c0 .193-.006.83-.026 1.051" transform="translate(-115.192 -42.96)" style="fill:#c95d77"/>
                <path data-name="Path 9601" d="M239.036 90.819s-.1.278.354.838l-.422.4s-.521-.428.069-1.234" transform="translate(-114.854 -43.689)" style="fill:#f9cb9d"/>
                <path data-name="Path 9602" d="M240.616 91.167s.006.149-.721.652l.283.572a.857.857 0 0 0 .439-1.224" transform="translate(-115.402 -43.856)" style="fill:#ffe5b0"/>
                <path data-name="Path 9603" d="M239.055 87.165a2.761 2.761 0 0 1 .339-.814.356.356 0 0 1 .224-.182 1.824 1.824 0 0 1 1.413.57c.133.218.006.5-.084.709s-.708 1.185-1.366.841c-.716-.374-.593-.671-.526-1.125" transform="translate(-114.973 -41.443)" style="fill:#ff97a6"/>
                <path data-name="Path 9604" d="M240.851 88.238c.037-.241.25-1.036.226-1.031-.045.01-.328.282-.355.291s-.392.818-.481.924c-.2.236-.564.177-.988.037-.525-.173-.524-.459-.535-.689a3.5 3.5 0 0 1 .024-.442c.012-.047-.053.051-.084.093a1.709 1.709 0 0 0-.474 1.036c-.018.774 2.38 1.646 2.665-.22" transform="translate(-114.58 -41.951)" style="fill:#ff5e4d"/>
                <path data-name="Path 9605" d="M314.339 228.156c0 1.305-10.206 2.363-22.8 2.363s-22.8-1.058-22.8-2.363 10.206-2.363 22.8-2.363 22.8 1.058 22.8 2.363" transform="translate(-129.282 -108.619)" style="fill:#f4e8d3"/>
                <path data-name="Path 9606" d="M281.819 225h33.419a4.953 4.953 0 0 0-4.953-4.953H286.3a4.485 4.485 0 0 0-4.485 4.485z" transform="translate(-135.57 -105.855)" style="fill:#ff9a2e"/>
                <path data-name="Path 9607" d="M289.456 218.457h25.493a1.717 1.717 0 0 0-1.717-1.717h-22.059a1.717 1.717 0 0 0-1.717 1.717" transform="translate(-139.244 -104.264)" style="fill:#f97c15"/>
                <path data-name="Path 9608" d="M306.534 158.687s-1.1-1.9 0-2.525c1.224-.7 1.916.728 1.569 1.683s-1.572.842-1.572.842" transform="translate(-147.226 -75.033)" style="fill:#c43b72"/>
                <path data-name="Path 9609" d="M308.614 155.907s1.909-.757 2.456.7a2.425 2.425 0 0 1-.481 2.015 1.319 1.319 0 0 1-1.489.358c-.548-.311-.487-3.069-.487-3.069" transform="translate(-148.459 -74.905)" style="fill:#c43b72"/>
                <path data-name="Path 9610" d="M302.9 164.642c.44 0 .979 1.372.237 2.384-.672.915-1.875 2.7-3.2 2.939-.981.176-.047-1.775-.047-1.775s.977-1.435 1.323-1.9 1.33-1.65 1.69-1.65" transform="translate(-144.07 -79.202)" style="fill:#357a5f"/>
                <path data-name="Path 9611" d="M296.849 170.745c-.983.169-4.4-2.56-3.916-3.985.18-.53.549-.569.549-.569l3.943 3.091s.532 1.273-.576 1.463" transform="translate(-140.894 -79.947)" style="fill:#357a5f"/>
                <path data-name="Path 9612" d="M330.573 214.988c-.2-.095 0-.8.169-1.178-.01.13-.01.3.133.188a1.277 1.277 0 0 0 .428-.9 1.176 1.176 0 0 1 .411.212c.133.1-1.012 1.737-1.142 1.674" transform="translate(-158.984 -102.513)" style="fill:#30193b"/>
                <path data-name="Path 9613" d="M331.049 213.852c-.143.109-.271.08-.148-.158a1.961 1.961 0 0 0 .167-.463.367.367 0 0 0-.091-.258l.122-.174s.336.148.378.157a1.277 1.277 0 0 1-.428.9" transform="translate(-159.157 -102.368)" style="fill:#ff97a6"/>
                <path data-name="Path 9614" d="M294.285 216.151c-.05-.229.641-.477 1.049-.561-.111.068-.245.168-.073.218a1.277 1.277 0 0 0 .976-.185 1.174 1.174 0 0 1 .073.457 4.486 4.486 0 0 1-2.025.071" transform="translate(-141.565 -103.71)" style="fill:#30193b"/>
                <path data-name="Path 9615" d="M296.035 215.469c-.173-.05-.225-.172.039-.213a1.973 1.973 0 0 0 .472-.141c.112-.049.154-.226.154-.226h.213s.079.358.1.4a1.276 1.276 0 0 1-.975.185" transform="translate(-142.339 -103.372)" style="fill:#ff97a6"/>
                <path data-name="Path 9616" d="M306.326 173.559a5.583 5.583 0 0 0 1.855.408l.069 1.217c1.145 6.316-5.7 9.229-5.7 9.229s-4.635 10.462-4.75 10.587c-.063.074-.567.311-.766.1-.034-.035 1.651-9.823 1.612-11.295-.05-1.918 5.647-7.138 5.647-7.138z" transform="translate(-142.891 -83.491)" style="fill:#6952af"/>
                <path data-name="Path 9617" d="M314.858 185.432a38.333 38.333 0 0 1-2.4-8l-1.953-3.394a15.566 15.566 0 0 0 2.459-1.155 16.611 16.611 0 0 1 1.62-1.03c.41.734.646.889.921 1.03a3.88 3.88 0 0 1 2.029 5.114l-.119 6.282s4.2 8.573 4.282 8.583-.519.617-.519.617c-.151-.108-5.471-6.249-6.318-8.043" transform="translate(-149.369 -82.669)" style="fill:#7f65c1"/>
                <path data-name="Path 9618" d="M311.45 164.408a1.922 1.922 0 0 0-2.275-1.3l-2.089.487-1.227.286c-.6.154.155 2.556.38 3.132a20.453 20.453 0 0 0 2.25 3.363 12.918 12.918 0 0 0 2.383-1.019 13.457 13.457 0 0 0 1.642-1.281c.022-.109-.592-2.132-1.064-3.664" transform="translate(-147.026 -78.437)" style="fill:#357a5f"/>
                <path data-name="Path 9619" d="M313.138 164.408a1.922 1.922 0 0 0-2.275-1.3l-1.721.4a9.455 9.455 0 0 0 .3 2.384c.494 1.907 1.458 4.238 1.817 4.092a9.861 9.861 0 0 0 1.3-.627 13.459 13.459 0 0 0 1.642-1.281c.022-.109-.592-2.132-1.064-3.664" transform="translate(-148.714 -78.437)" style="fill:#2b6b4f"/>
                <path data-name="Path 9620" d="M308.127 161.742a7.343 7.343 0 0 0 .347 1.295c.112.1.424.186.477-.149a3.81 3.81 0 0 0-.426-1.282z" transform="translate(-148.226 -77.741)" style="fill:#ff97a6"/>
                <path data-name="Path 9621" d="M308.373 162.835a.554.554 0 0 0 .562-.141 5.664 5.664 0 0 0-.238-.606l-.461.158c.036.17.086.393.137.589" transform="translate(-148.278 -77.973)" style="fill:#c95d77"/>
                <path data-name="Path 9622" d="M306.757 159.9a3.358 3.358 0 0 1 .307-.876.546.546 0 0 1 .733-.271 3.652 3.652 0 0 1 .988.595c.15.22.034.517-.048.741a1.707 1.707 0 0 1-.515.724 1.09 1.09 0 0 1-.8.042c-.6-.255-.707-.48-.662-.954" transform="translate(-147.562 -76.344)" style="fill:#ff97a6"/>
                <path data-name="Path 9623" d="M312.193 163.364c.413-.152 1.271.185.907 1.386-.329 1.086-.9 3.885-2.076 4.55-.867.492-.612-1.576-.612-1.576l.62-2.229s.449-1.87 1.161-2.131" transform="translate(-149.308 -78.571)" style="fill:#2b6b4f"/>
                <path data-name="Path 9624" d="M311.691 170.6a11.106 11.106 0 0 0 2.277-2.246.063.063 0 0 0 .011-.031 12.482 12.482 0 0 0 .011-1.434 32.092 32.092 0 0 0-.086-1.422c.013.474.019.949.011 1.423a12.541 12.541 0 0 1-.085 1.411l.015-.035a10.837 10.837 0 0 1-2.331 2.075h-.005a.158.158 0 1 0 .172.265h.007" transform="translate(-149.82 -79.597)" style="fill:#357a5f"/>
                <path data-name="Path 9625" d="m309.818 168.294 1.971-.749a.086.086 0 0 0 .054-.1c-.094-.462-.18-.928-.252-1.395a13.15 13.15 0 0 1-.091-.7 2.9 2.9 0 0 1-.007-.706 2.947 2.947 0 0 0-.038.709c.008.237.027.474.047.71.043.473.1.944.164 1.415l.059-.1-2.015.62a.158.158 0 0 0 .092.3h.01" transform="translate(-148.936 -79.201)" style="fill:#357a5f"/>
                <path data-name="Path 9626" d="m287.651 143.141 3.08-.818a1 1 0 0 0 .709-1.222l-5.011 1.331a1 1 0 0 0 1.222.709" transform="translate(-137.788 -67.877)" style="fill:#f97c15"/>
                <path data-name="Rectangle 4604" transform="rotate(-14.9 363.101 -533.237)" style="fill:#ff9a2e" d="M0 0h4.456v.496H0z"/>
                <path data-name="Path 9627" d="m291.141 155.055 3.254-.865-1.671-7.879-4.043 1.075z" transform="translate(-138.871 -70.383)" style="fill:#ff9a2e"/>
                <path data-name="Path 9628" d="M302.734 190.85a2.762 2.762 0 0 0 1.969-3.465l-8.027-25.891-3.254.865 5.883 26.461a2.762 2.762 0 0 0 3.429 2.031" transform="translate(-141.152 -77.687)" style="fill:#ff9a2e"/>
                <path data-name="Path 9629" d="M302.1 128.814a1.7 1.7 0 0 0 1.206-2.078l-1.771-6.664a1.7 1.7 0 0 0-2.078-1.206z" transform="translate(-144.056 -57.154)" style="fill:#ff9a2e"/>
                <path data-name="Path 9630" d="M295.457 130.334a1.209 1.209 0 0 1 1.594-.423l-2.431-9.15a1.625 1.625 0 0 1-1.594.423z" transform="translate(-140.961 -58.092)" style="fill:#ff9a2e"/>
                <path data-name="Path 9631" d="M293.479 131.241a1.182 1.182 0 0 0 .839-1.446l-2.339-8.8a1.182 1.182 0 0 0-1.446-.839z" transform="translate(-139.761 -57.78)" style="fill:#f97c15"/>
                <path data-name="Path 9632" d="M299.8 129.386a1.075 1.075 0 0 0 .762-1.314l-2.521-9.488a1.074 1.074 0 0 0-2.077.552l2.521 9.488a1.074 1.074 0 0 0 1.314.762" transform="translate(-142.357 -56.661)" style="fill:#f97c15"/>
                <path data-name="Path 9633" d="M273.963 136.032a1.7 1.7 0 0 1-2.078-1.206l-1.771-6.664a1.7 1.7 0 0 1 1.205-2.078z" transform="translate(-129.912 -60.654)" style="fill:#ff9a2e"/>
                <path data-name="Path 9634" d="M280.348 134.348a1.209 1.209 0 0 0-1.594.423l-2.431-9.151a1.624 1.624 0 0 0 1.594-.423z" transform="translate(-132.926 -60.227)" style="fill:#ff9a2e"/>
                <path data-name="Path 9635" d="M283 133.845a1.183 1.183 0 0 1-1.446-.839l-2.339-8.8a1.182 1.182 0 0 1 .839-1.446z" transform="translate(-134.299 -59.052)" style="fill:#f97c15"/>
                <path data-name="Path 9636" d="M276.025 135.7a1.074 1.074 0 0 1-1.314-.762l-2.521-9.488a1.074 1.074 0 1 1 2.076-.552l2.521 9.488a1.074 1.074 0 0 1-.762 1.314" transform="translate(-130.921 -59.7)" style="fill:#f97c15"/>
                <path data-name="Path 9637" d="m288.2 146.623 3.786-1.006a.774.774 0 1 0-.4-1.5l-3.786 1.006a.775.775 0 0 0 .4 1.5" transform="translate(-138.171 -69.317)" style="fill:#f97c15"/>
                <path data-name="Rectangle 4605" transform="rotate(-14.9 316.613 -525.751)" style="fill:#ffcb48" d="M0 0h5.187v11.475H0z"/>
                <path data-name="Path 9638" d="M299.928 174.263c-.172-.191-.091-.515.125-.516a1.394 1.394 0 0 1 .218.067l.128.047s-.181-.256-.118-.3.158.15.224.211.564.41.329.56c0 0-.656.2-.9-.073" transform="translate(-144.237 -83.491)" style="fill:#fca7a7"/>
                <path data-name="Path 9639" d="M299.682 173.834s-.078.064.045.134c0 0-.216-.03-.236.063s.165.182.19.213c0 0-.122-.045-.088.026a.645.645 0 0 0 .356.239c.118.011.221-.539.221-.539a1.928 1.928 0 0 0-.487-.137" transform="translate(-144.07 -83.623)" style="fill:#fca7a7"/>
                <path data-name="Path 9640" d="M307.46 172.585c-.382.921-4.513 2.354-5.46 1.184a.742.742 0 0 1-.188-.768l4.718-1.684s1.36.229.929 1.268" transform="translate(-145.17 -82.413)" style="fill:#2b6b4f"/>
                <path data-name="Path 9641" d="M294.1 166.292a1.694 1.694 0 0 0 .3-.252 1 1 0 0 0 .09-.091c.026-.023.072-.056.053-.095a.047.047 0 0 0-.05-.024h-.009l-.025.006-.018.007-.048.02a.617.617 0 0 0 .061-.08c.019-.031.071-.1.067-.136s-.01-.026-.028-.04-.033 0-.042-.013.006-.032 0-.043c0-.031-.11-.106-.244 0 .054-.068.016-.091 0-.086a.627.627 0 0 0-.294.2c-.078.147.143.667.2.63" transform="translate(-141.375 -79.596)" style="fill:#fca7a7"/>
                <path data-name="Path 9642" d="M307.766 157.293a1.613 1.613 0 0 0 1.573 2.088l.261-1.187z" transform="translate(-148.025 -75.666)" style="fill:#c43b72"/>
                <path data-name="Path 9643" d="M312.365 155.514c.062-.278-.245.612.262-1.232a2.27 2.27 0 0 1 1.061-1.251c1.035-.54 2.42.338 2.295.881 0 0 1.462-.331 1.788.632a2.277 2.277 0 0 1-.744 2.505s2.263 1.844.741 3.918c-1.19 1.622-2.87.651-2.51-.559 0 0-1.229-.454-1.1-1.386.156-1.162-.876-.955-.655-2.333.087-.541.741-1.007.762-1.389.031-.559-.546-.721-1.143-.307-1.114.771-.853.976-.751.523" transform="translate(-150.216 -73.534)" style="fill:#c43b72"/>
                <path data-name="Path 9644" d="M312.962 154.217a2.149 2.149 0 0 1 .637-.9 1.664 1.664 0 0 1 .972-.443 1.891 1.891 0 0 1 1.039.228 1.577 1.577 0 0 1 .423.315.523.523 0 0 1 .184.4.106.106 0 0 0 .084.124.112.112 0 0 0 .039 0 2.218 2.218 0 0 1 1.139.052.849.849 0 0 1 .419.322 1.346 1.346 0 0 1 .173.524 2.457 2.457 0 0 1-.108 1.145 1.6 1.6 0 0 1-.65.9.1.1 0 0 0-.041.142.106.106 0 0 0 .023.029 4.5 4.5 0 0 1 .72.8 3.221 3.221 0 0 1 .468.967 2.291 2.291 0 0 1 .043 1.069 2.9 2.9 0 0 1-.426 1 2.717 2.717 0 0 0 .5-.988 2.234 2.234 0 0 0 .012-1.119 3.353 3.353 0 0 0-.452-1.032 4 4 0 0 0-.736-.859l-.018.171a1.8 1.8 0 0 0 .764-1.012 2.676 2.676 0 0 0 .133-1.252 1.544 1.544 0 0 0-.217-.617 1.073 1.073 0 0 0-.531-.4 2.413 2.413 0 0 0-1.263-.047l.124.124a.7.7 0 0 0-.242-.589 1.763 1.763 0 0 0-.486-.336 2.051 2.051 0 0 0-1.134-.2 1.571 1.571 0 0 0-.555.173 2.158 2.158 0 0 0-.456.347 2.076 2.076 0 0 0-.584.956" transform="translate(-150.551 -73.47)" style="fill:#dd5492"/>
                <path data-name="Path 9645" d="M231.9 43.456a3.28 3.28 0 1 1 3.28-3.28 3.283 3.283 0 0 1-3.28 3.28m0-5.879a2.6 2.6 0 1 0 2.6 2.6 2.6 2.6 0 0 0-2.6-2.6" transform="translate(-109.978 -17.749)" style="fill:#d5eaf5"/>
                <path data-name="Path 9646" d="M234.623 43.456a.34.34 0 0 1 0-.681 2.6 2.6 0 1 0 0-5.2.34.34 0 0 1 0-.681 3.28 3.28 0 0 1 0 6.56" transform="translate(-112.703 -17.749)" style="fill:#aacbe8"/>
                <path data-name="Path 9647" d="M235.093 48.683a.213.213 0 1 1-.213-.213.213.213 0 0 1 .213.213" transform="translate(-112.887 -23.317)" style="fill:#d5eaf5"/>
                <path data-name="Path 9648" d="M236.021 37.187s-1.115-.4-1.5-.485-1.521-.187-1.521-.187a.089.089 0 0 1-.067-.105l.344-1.548a.089.089 0 0 1 .105-.067l3.025.673a.089.089 0 0 1 .067.105l-.344 1.547a.088.088 0 0 1-.105.067" transform="translate(-112.05 -16.737)" style="fill:#aacbe8"/>
                <path data-name="Path 9649" d="M236.438 36.254a.413.413 0 1 1-.313-.492.413.413 0 0 1 .313.492" transform="translate(-113.347 -17.198)" style="fill:#81a8cc"/>
                <path data-name="Path 9650" d="M235.985 37.412a.193.193 0 0 1-.146-.23l.1-.43.376.084-.1.43a.193.193 0 0 1-.23.146" transform="translate(-113.449 -17.68)" style="fill:#81a8cc"/>
                <path data-name="Path 9651" d="m236.713 34.2-1.749-.389.285-1.283a.477.477 0 0 1 .569-.362l.818.182a.477.477 0 0 1 .3.21.472.472 0 0 1 .063.36zm-1.4-.61 1.18.262.222-1a.185.185 0 0 0-.141-.221l-.818-.182a.185.185 0 0 0-.221.141z" transform="translate(-113.03 -15.467)" style="fill:#aacbe8"/>
                <path data-name="Path 9652" d="M235.808 31.643a.792.792 0 0 1-.167-.018.845.845 0 0 1-.577-.492 1.39 1.39 0 0 1 .351-1.579.81.81 0 0 1 1.309.291 1.39 1.39 0 0 1-.351 1.58.883.883 0 0 1-.565.22m.173-2.018a.6.6 0 0 0-.379.152 1.1 1.1 0 0 0-.274 1.232.521.521 0 0 0 .858.191 1.1 1.1 0 0 0 .273-1.232.558.558 0 0 0-.376-.331.446.446 0 0 0-.1-.011m.678 1.033z" transform="translate(-113.024 -14.111)" style="fill:#aacbe8"/>
                <path data-name="Path 9653" d="M237.074 29.1a.752.752 0 0 1-.294-.059.845.845 0 0 1-.482-.586 1.39 1.39 0 0 1 .625-1.493.844.844 0 0 1 .755-.069 1.068 1.068 0 0 1 .409 1.433 1.173 1.173 0 0 1-1.013.774m.306-1.974a.633.633 0 0 0-.313.09 1.1 1.1 0 0 0-.487 1.165.561.561 0 0 0 .312.392c.325.136.74-.115.926-.559a.785.785 0 0 0-.253-1.051.476.476 0 0 0-.185-.036m.572 1.144z" transform="translate(-113.653 -12.908)" style="fill:#aacbe8"/>
                <path data-name="Path 9654" d="M238.653 27.388a.825.825 0 0 1-.307-.6 1.193 1.193 0 0 1 2.326-.092 1.068 1.068 0 0 1-1.127.976 1.3 1.3 0 0 1-.893-.287m1.524-1.065a1.015 1.015 0 0 0-.693-.215c-.481.019-.86.321-.846.673s.416.623.9.6.86-.321.846-.673a.538.538 0 0 0-.2-.388m-.637 1.207z" transform="translate(-114.657 -12.418)" style="fill:#aacbe8"/>
                <path data-name="Path 9655" d="M241.709 27.567a.826.826 0 0 1 .08-.666 1.193 1.193 0 1 1 .5 1.405 1.3 1.3 0 0 1-.577-.739m1.859-.025a1.014 1.014 0 0 0-.453-.568.67.67 0 1 0 .4 1 .539.539 0 0 0 .049-.436m-1.2.64z" transform="translate(-116.258 -12.755)" style="fill:#aacbe8"/>
                <path data-name="Path 9656" d="M247.5 41.252q-.162 0-.324-.016a3.276 3.276 0 1 1 .324.016m-.011-5.88a2.6 2.6 0 1 0 .257.012 2.779 2.779 0 0 0-.257-.012" transform="translate(-117.479 -16.689)" style="fill:#d5eaf5"/>
                <path data-name="Path 9657" d="M250.354 40.582a.34.34 0 0 1-.216-.6 2.6 2.6 0 0 0-3.3-4.016.34.34 0 1 1-.432-.526 3.28 3.28 0 0 1 4.164 5.06.34.34 0 0 1-.216.077" transform="translate(-118.474 -16.688)" style="fill:#aacbe8"/>
                <path data-name="Path 9658" d="M254.2 44.967a.213.213 0 1 1-.3-.029.213.213 0 0 1 .3.029" transform="translate(-122.104 -21.594)" style="fill:#d5eaf5"/>
                <path data-name="Path 9659" d="M247.818 34.1s-1.116.4-1.467.578-1.3.824-1.3.824a.088.088 0 0 1-.118-.039l-.717-1.414a.088.088 0 0 1 .038-.118l2.764-1.4a.088.088 0 0 1 .119.038l.717 1.414a.088.088 0 0 1-.039.118" transform="translate(-117.478 -15.642)" style="fill:#aacbe8"/>
                <path data-name="Path 9660" d="M247.424 34.352a.413.413 0 1 1-.555-.182.412.412 0 0 1 .555.182" transform="translate(-118.648 -16.417)" style="fill:#81a8cc"/>
                <path data-name="Path 9661" d="M247.725 35.643a.192.192 0 0 1-.259-.085l-.2-.393.344-.174.2.393a.192.192 0 0 1-.085.259" transform="translate(-118.949 -16.833)" style="fill:#81a8cc"/>
                <path data-name="Path 9662" d="m244.953 32.835-.595-1.173a.477.477 0 0 1 .21-.641l.747-.379a.477.477 0 0 1 .641.21l.6 1.173zm.578-1.953a.18.18 0 0 0-.084.02l-.747.379a.185.185 0 0 0-.081.249l.462.912 1.078-.546-.463-.912a.186.186 0 0 0-.166-.1" transform="translate(-117.525 -14.716)" style="fill:#aacbe8"/>
                <path data-name="Path 9663" d="M245.391 30.452a1.231 1.231 0 0 1-.981-.579 1.328 1.328 0 0 1-.234-.817.81.81 0 0 1 1.114-.746 1.328 1.328 0 0 1 .666.528 1.068 1.068 0 0 1-.125 1.485.78.78 0 0 1-.44.13m-.414-1.9a.5.5 0 0 0-.28.081.56.56 0 0 0-.23.445 1.036 1.036 0 0 0 .185.635.67.67 0 1 0 1.061-.714 1.034 1.034 0 0 0-.517-.413.685.685 0 0 0-.219-.038" transform="translate(-117.46 -13.593)" style="fill:#aacbe8"/>
                <path data-name="Path 9664" d="M40.431 228.92c0 1.157-9.051 2.1-20.216 2.1S0 230.077 0 228.92s9.05-2.1 20.215-2.1 20.216.938 20.216 2.1" transform="translate(0 -109.114)" style="fill:#f4e8d3"/>
                <path data-name="Path 9665" d="M29.434 115.671s-2.572 5.274-2.737 5.974 9.378.961 9.378.961l-2.511-7.214z" transform="translate(-12.842 -55.51)" style="fill:#f4d39a"/>
                <path data-name="Path 9666" d="M57.607 231.13c.034-.9-1.129-.7-1.816-.786.193.1.43.244.15.352a2.121 2.121 0 0 1-1.642-.173 1.945 1.945 0 0 0-.058.768c.029.278 3.357.078 3.366-.161" transform="translate(-26.087 -110.808)" style="fill:#30193b"/>
                <path data-name="Path 9667" d="M56.007 230.218c.28-.107.35-.316-.094-.347a3.293 3.293 0 0 1-.8-.168c-.191-.066-.286-.354-.286-.354l-.353.023s-.083.605-.106.673a2.122 2.122 0 0 0 1.642.173" transform="translate(-26.152 -110.329)" style="fill:#ff97a6"/>
                <path data-name="Path 9668" d="M14.773 231.54c-.172-.887 1.008-.866 1.675-1.054-.175.127-.388.307-.094.37a2.12 2.12 0 0 0 1.6-.421 1.938 1.938 0 0 1 .175.749c.015.279-3.305.59-3.351.355" transform="translate(-7.099 -110.852)" style="fill:#30193b"/>
                <path data-name="Path 9669" d="M17.6 230.255c-.293-.063-.394-.258.04-.358a3.288 3.288 0 0 0 .767-.289c.18-.094.229-.393.229-.393l.352-.032s.174.586.208.65a2.126 2.126 0 0 1-1.6.421" transform="translate(-8.344 -110.25)" style="fill:#ff97a6"/>
                <path data-name="Path 9670" d="M18.78 152.639c1.074-3.039 1.91-4.883 2.435-5.191 1.609-.086 9.063.273 9.7.234.556.246 1.343 2.026 2.441 5.19 2.683 7.723 4.546 37.037 4.546 37.037l-1.664.24A200.268 200.268 0 0 1 30 169.459c-1.485-6.34-3.484-13.232-3.542-13.3-.592 2.868-6.2 28.059-6.565 33.072-.062.847-1.672 1.481-1.742.8-.522-5.067-2.1-29.674.627-37.384" transform="translate(-8.286 -70.924)" style="fill:#7f65c1"/>
                <path data-name="Path 9671" d="M34.551 147.65c2.145.074 4.169.154 4.49.134.556.246 1.342 2.027 2.441 5.19 2.683 7.724 4.546 37.037 4.546 37.037l-.7.1a191.164 191.164 0 0 0-3.635-22.77c-3.13-13.084-9.29-19.766-7.145-19.691" transform="translate(-16.407 -71.027)" style="fill:#6952af"/>
                <path data-name="Path 9672" d="M29.913 136.654c.248-1.241 1.577-8.373-.169-10.673a1.993 1.993 0 0 0-2.2-1.026 16.841 16.841 0 0 1-5.084-.379c-1.321-.249-4.686 1.68-4.686 1.68s1.351 4.334 1.694 6.211a27.891 27.891 0 0 1 .174 3.5c-.058.06-.088.094-.088.094s-1.967 2.533-3.079 8.464-1.885 30.642-1.885 30.642 12.562 3.265 22.508-.38c0 0-2.426-31.244-7.183-38.137" transform="translate(-7.018 -59.917)" style="fill:#3b2b5b"/>
                <path data-name="Path 9673" d="M39.061 137c.248-1.241 1.577-8.373-.169-10.673a1.993 1.993 0 0 0-2.2-1.026c-.365.034-2.142.17-2.142.17l-.942 12.16s1.495 13.049 1.651 17.421c.195 5.449-.5 21.807-.5 21.807h.335a32.517 32.517 0 0 0 11.158-1.724S43.819 143.9 39.061 137" transform="translate(-16.166 -60.267)" style="fill:#30193b"/>
                <path data-name="Path 9674" d="M56.454 119.033a.554.554 0 0 0-.6.289c-.823 1.585-4.143 8.6-4.617 9.407-.442.749-.16 2.422 1.536 1.825a21.936 21.936 0 0 0 3.7-2.745c2.607-2.457 5.162-7.811-.021-8.775" transform="translate(-24.561 -57.257)" style="fill:#30193b"/>
                <path data-name="Path 9675" d="M38.349 125.677a9.236 9.236 0 0 0 2.128 3.64 19.424 19.424 0 0 0 5.118 4.264l1.258-2.153s-3.924-4.1-5.921-5.751a2.321 2.321 0 0 0-2.583 0" transform="translate(-18.448 -60.256)" style="fill:#30193b"/>
                <path data-name="Path 9676" d="M63.587 118.066a.222.222 0 0 0 .251-.088c.142-.21.91-.64 1.18-1.031 0 0 .41-.605.276-.976 0 0-.113-.078-.184.133 0 0 .1-.578-.047-.684s-.282.132-.282.132a.15.15 0 0 0-.193-.1c-.087.028-.243.389-.516.679-.194.207-.483.388-.513.549 0 0 .012-.484-.124-.462s-.3.851-.2 1.1a2.6 2.6 0 0 1-.011.464c-.02.106.192.234.362.286" transform="translate(-30.405 -55.51)" style="fill:#ff97a6"/>
                <path data-name="Path 9677" d="M34.646 122.113s-.286 1.645-.114 1.819a.821.821 0 0 0 1.129-.039c.338-.424-.066-1.828-.066-1.828z" transform="translate(-16.586 -58.719)" style="fill:#ff97a6"/>
                <path data-name="Path 9678" d="M34.507 123.555a1.964 1.964 0 0 0 1.3.02 4.689 4.689 0 0 0-.105-.888l-1.1.057c-.035.237-.079.537-.1.811" transform="translate(-16.6 -59.019)" style="fill:#c95d77"/>
                <path data-name="Path 9679" d="M36.65 119.081a5.253 5.253 0 0 0-.032-1.452.854.854 0 0 0-.96-.758 5.688 5.688 0 0 0-1.758.405c-.33.253-.3.753-.289 1.125a2.676 2.676 0 0 0 .415 1.327 1.71 1.71 0 0 0 1.175.451c1.014-.089 1.284-.372 1.448-1.1" transform="translate(-16.166 -56.218)" style="fill:#ff97a6"/>
                <path data-name="Path 9680" d="M20.049 124.643a5.6 5.6 0 0 0-3.239.46c-2.661 1.1-6.651 3.616-7.576 6.008-1.056 2.733.916 9.292 4.2 9.758 1.223.173 1.716-1.721 1.716-1.721l-2.724-7.55 6.473-4.916z" transform="translate(-4.305 -59.926)" style="fill:#3b2b5b"/>
                <path data-name="Path 9681" d="M19.674 152.687s.512-1.417 1.016-1.353 1.33.142 1.362.363-.574.149-.574.149a4.353 4.353 0 0 1 .448.465c.047.094-.268.133-.268.133a.261.261 0 0 1 .078.276c-.047.181-.42-.1-.651-.088s-.793.668-1.254.725c-.171.021-.317-.286-.157-.669" transform="translate(-9.431 -72.798)" style="fill:#ff97a6"/>
                <path data-name="Path 9682" d="M34.712 124.765s-.49-.71-.639-.7-.468.866-.468.866l.991.541z" transform="translate(-16.166 -59.681)" style="fill:#3b2b5b"/>
                <path data-name="Path 9683" d="M35.817 124.822s.49-.71.639-.7.468.866.468.866l-.991.541z" transform="translate(-17.23 -59.709)" style="fill:#30193b"/>
                <path data-name="Path 9684" d="M33.513 125.476 31.5 128a.2.2 0 0 0 .153.316h.88z" transform="translate(-15.132 -60.361)" style="fill:#ffe5b0"/>
                <path data-name="Path 9685" d="m33.6 125.476-1.934 3.172a.21.21 0 0 0 .18.319h.923z" transform="translate(-15.218 -60.361)" style="fill:#f4d39a"/>
                <path data-name="Path 9686" d="m35.968 125.347 2.015 2.526a.2.2 0 0 1-.153.316h-.88z" transform="translate(-17.303 -60.299)" style="fill:#ffe5b0"/>
                <path data-name="Path 9687" d="m35.968 125.347 1.934 3.172a.21.21 0 0 1-.18.319H36.8z" transform="translate(-17.303 -60.299)" style="fill:#f4d39a"/>
                <path data-name="Path 9688" d="M34.162 125.372c-.337.9-1.092 2.952-1.347 3.644a.173.173 0 0 0 .164.233h2.7a.174.174 0 0 0 .163-.235l-1.351-3.641a.174.174 0 0 0-.326 0" transform="translate(-15.78 -60.256)" style="fill:#ffe5b0"/>
                <path data-name="Path 9689" d="M34.973 125.239a.117.117 0 1 1-.117-.117.117.117 0 0 1 .117.117" transform="translate(-16.711 -60.19)" style="fill:#ffe5b0"/>
                <path data-name="Path 9690" d="M36.57 125.239a.117.117 0 1 1-.117-.117.117.117 0 0 1 .117.117" transform="translate(-17.48 -60.19)" style="fill:#f4d39a"/>
                <path data-name="Path 9691" d="M30.592 114.581a1.888 1.888 0 0 1 1.1-1.707c1.189-.659 1.961-.711 2.3-.336a2.617 2.617 0 0 1-.438 2.412 2.183 2.183 0 0 1-1.838.511 3.508 3.508 0 0 1-1.118-.879" transform="translate(-14.716 -54.024)" style="fill:#ffe5b0"/>
                <path data-name="Path 9692" d="M30.941 117.928a1.2 1.2 0 0 1-1.506.4.922.922 0 0 1-.239-1.38 1.2 1.2 0 0 1 1.506-.4.922.922 0 0 1 .239 1.38" transform="translate(-13.946 -56.006)" style="fill:#ffe5b0"/>
                <path data-name="Path 9693" d="M29.409 120.917a1.163 1.163 0 0 1-1.419.6.942.942 0 0 1-.473-1.332 1.163 1.163 0 0 1 1.419-.6.942.942 0 0 1 .473 1.331" transform="translate(-13.184 -57.495)" style="fill:#ffe5b0"/>
                <path data-name="Path 9694" d="M27.873 124.354a1.163 1.163 0 0 1-1.419.6.942.942 0 0 1-.473-1.332 1.163 1.163 0 0 1 1.419-.6.942.942 0 0 1 .473 1.331" transform="translate(-12.445 -59.148)" style="fill:#ffe5b0"/>
                <path data-name="Path 9695" d="M26.579 127.582a1.162 1.162 0 0 1-1.419.6.941.941 0 0 1-.473-1.331 1.163 1.163 0 0 1 1.419-.6.942.942 0 0 1 .473 1.331" transform="translate(-11.822 -60.701)" style="fill:#ffe5b0"/>
                <path data-name="Path 9696" d="M39.261 114.675a1.821 1.821 0 0 0-.783-1.838c-1.058-.815-1.811-.974-2.21-.65a2.594 2.594 0 0 0 .008 2.443 2.115 2.115 0 0 0 1.725.759 3.689 3.689 0 0 0 1.259-.714" transform="translate(-17.302 -53.892)" style="fill:#ffe5b0"/>
                <path data-name="Path 9697" d="M39.62 118.134a1.162 1.162 0 0 0 1.416.608.942.942 0 0 0 .479-1.33 1.162 1.162 0 0 0-1.415-.612.942.942 0 0 0-.479 1.33" transform="translate(-19.007 -56.158)" style="fill:#ffe5b0"/>
                <path data-name="Path 9698" d="M40.637 121.306a1.12 1.12 0 0 0 1.3.793.973.973 0 0 0 .7-1.249 1.12 1.12 0 0 0-1.295-.793.974.974 0 0 0-.7 1.249" transform="translate(-19.528 -57.741)" style="fill:#ffe5b0"/>
                <path data-name="Path 9699" d="M41.548 124.913a1.12 1.12 0 0 0 1.295.793.973.973 0 0 0 .7-1.249 1.12 1.12 0 0 0-1.295-.793.973.973 0 0 0-.7 1.249" transform="translate(-19.966 -59.476)" style="fill:#ffe5b0"/>
                <path data-name="Path 9700" d="M42.258 128.281a1.12 1.12 0 0 0 1.295.793.973.973 0 0 0 .7-1.249 1.12 1.12 0 0 0-1.295-.793.974.974 0 0 0-.7 1.249" transform="translate(-20.307 -61.097)" style="fill:#ffe5b0"/>
                <path data-name="Rectangle 4606" transform="translate(23.333 46.78)" style="fill:#d5eaf5" d="M0 0h.582v6.042H0z"/>
                <path data-name="Path 9701" d="m44.342 102.944-.907 3.075a2.491 2.491 0 0 0 2.168 0l-.876-3.075z" transform="translate(-20.895 -49.522)" style="fill:#d5eaf5"/>
                <path data-name="Path 9702" d="M45.575 102.08a.707.707 0 1 1-.707-.707.707.707 0 0 1 .707.707" transform="translate(-21.244 -48.766)" style="fill:#aacbe8"/>
                <path data-name="Path 9703" d="m31.835 78.489-6.512 2.836a.165.165 0 0 0 0 .3l6.513 2.981a.162.162 0 0 0 .137 0l6.365-2.906a.165.165 0 0 0 0-.3l-6.369-2.91a.166.166 0 0 0-.134 0" transform="translate(-12.134 -37.751)" style="fill:#d5eaf5"/>
                <path data-name="Path 9704" d="M28.969 86.681v2.4a.453.453 0 0 0 .29.424 12.146 12.146 0 0 0 8.941-.18.457.457 0 0 0 .269-.418v-2.226l-4.842 2.152z" transform="translate(-13.936 -41.698)" style="fill:#aacbe8"/>
                <path data-name="Path 9705" d="M182.475 11.373c.577-1.131-.433-2.527-2.083-2.878s-3.61.412-4.042 1.573a4.317 4.317 0 0 0-.6-2.669 3.335 3.335 0 0 0-3.187-1.177c-1.626.337-2.037 1.779-2.16 2.956a9.514 9.514 0 0 0-1.913-6.738A4.242 4.242 0 0 0 164.889.5a3.844 3.844 0 0 0-3 2.149 12.951 12.951 0 0 0-1.674 8.581c.882-1.468-1.205-3.338-3.468-3.107s-3.491 2.438-2.042 3.668z" transform="translate(-74.121 -.237)" style="fill:#d5eaf5"/>
                <path data-name="Path 9706" d="M182.309 11.184c.687-1.45-.7-2.723-2.023-3.053-1.469-.366-3.675.075-4.344 1.607l.342.092a4.332 4.332 0 0 0-.754-2.949 3.548 3.548 0 0 0-2.658-1.162c-1.922.01-2.774 1.5-2.973 3.221h.513a9.815 9.815 0 0 0-1.658-6.452c-1.023-1.537-2.661-2.82-4.617-2.411s-2.964 2.423-3.637 4.11a13.162 13.162 0 0 0-.778 6.876.257.257 0 0 0 .466.061c1.044-1.956-1.518-3.445-3.162-3.505s-4.037 1.311-3.338 3.279c.131.369.421.838.823.912a3.029 3.029 0 0 0 .549-.008l2.664-.04 19.1-.29 5.407-.082a.253.253 0 0 0 0-.506l-12 .182-15.078.228a2.253 2.253 0 0 1-.619.009c-.155-.051.084.057-.071-.093a1.42 1.42 0 0 1-.224-1.6 3.044 3.044 0 0 1 3.43-1.4c1.1.241 2.789 1.331 2.08 2.658l.466.061a12.582 12.582 0 0 1 .561-6.017c.564-1.625 1.472-3.768 3.294-4.289 1.983-.567 3.579 1 4.51 2.553a9.309 9.309 0 0 1 1.32 5.766c-.034.33.476.324.513 0 .16-1.412.854-2.762 2.46-2.806a3.121 3.121 0 0 1 2.318.956 3.953 3.953 0 0 1 .727 2.74c0 .168.268.269.342.093.518-1.225 2.162-1.682 3.381-1.578 1.288.11 3.159 1.188 2.5 2.741-.047.112.113.212.167.1" transform="translate(-73.871)" style="fill:#d5eaf5"/>
                <path data-name="Path 9707" d="M307.932 59.065a3.967 3.967 0 0 0-7.015-1.59 3.243 3.243 0 0 0-6.395-.652 4.091 4.091 0 0 0-.749-3.5c-.852-.9-2.625-.891-3.137.236-.235-1.941-1.366-6.275-3.811-6.763-1.622-.324-3.6.584-5.051 2.59-2.647 3.664-2.414 6.687-3.151 8.5a3.085 3.085 0 1 0-6.006 1.394z" transform="translate(-131.097 -22.481)" style="fill:#d5eaf5"/>
                <path data-name="Path 9708" d="M307.81 58.844a4.114 4.114 0 0 0-7.206-1.685l.28.116a3.42 3.42 0 0 0-6.742-.7l.366.1c.215-1.383.116-3.193-1.208-4.023a2.147 2.147 0 0 0-3.034.608l.374.1a14.42 14.42 0 0 0-1.034-3.874 5.06 5.06 0 0 0-2.592-2.994 4.547 4.547 0 0 0-4.128 1.019 11.381 11.381 0 0 0-3.388 5.179c-.567 1.607-.659 3.357-1.279 4.938h.414a3.308 3.308 0 1 0-6.435 1.512.234.234 0 0 0 .222.169q5.967-.025 11.935-.064l19.019-.116 4.36-.027a.237.237 0 0 0 0-.473L295.8 58.7q-9.51.057-19.019.117l-4.36.032.222.169a2.863 2.863 0 1 1 5.578-1.276c.051.225.344.181.414 0 .592-1.519.683-3.2 1.205-4.749.75-2.229 2.119-4.713 4.3-5.795a3.584 3.584 0 0 1 2.827-.287 3.875 3.875 0 0 1 1.763 1.736 12.561 12.561 0 0 1 1.506 4.713c.023.177.271.3.374.1a1.789 1.789 0 0 1 2.708-.309c.955.817.986 2.28.822 3.421-.034.234.3.344.366.1a3.066 3.066 0 0 1 6.048.6c.008.127.182.235.28.116a3.912 3.912 0 0 1 6.824 1.495.078.078 0 0 0 .15-.042" transform="translate(-130.9 -22.281)" style="fill:#d5eaf5"/>
                <path data-name="Path 9709" d="M41.155 37.883a.762.762 0 0 0-.019-.231 2.712 2.712 0 0 0-2.286-1.971 4.372 4.372 0 0 0-2.733.611 3 3 0 0 0-2.607-2.13 3.438 3.438 0 0 0-3.1 1.643 26.106 26.106 0 0 0-1.115-2.835 3.124 3.124 0 0 0-2.77-1.711c-2.189.115-3.6 2.571-4.4 4.6a4.418 4.418 0 0 0-2.818-.841 7.46 7.46 0 0 0-2.554.616c-.654.269-1.645.54-1.968 1.222a.944.944 0 0 0-.1.462.736.736 0 0 0 .356 1.362h25.417a.7.7 0 0 0 .7-.8" transform="translate(-6.899 -15.036)" style="fill:#d5eaf5"/>
            </g>
        </g>
    </g>
</svg>
