<svg xmlns="http://www.w3.org/2000/svg" width="236.732" height="117.08" viewBox="0 0 236.732 117.08">
    <defs>
        <clipPath id="zxjp6lv1oa">
            <path data-name="Rectangle 4724" style="fill:none" d="M0 0h236.732v117.08H0z"/>
        </clipPath>
    </defs>
    <g data-name="Group 7573">
        <path data-name="Rectangle 4669" transform="translate(107.306 18.63)" style="fill:#c8deff" d="M0 0h101.272v59.804H0z"/>
        <g data-name="Group 7572">
            <g data-name="Group 7571" style="clip-path:url(#zxjp6lv1oa)">
                <path data-name="Path 9896" d="M1736.466 534.215a.169.169 0 0 1-.03 0l-4.011-.669a.184.184 0 0 1-.152-.212l1.078-6.464a.183.183 0 0 1 .212-.152l6.464 1.078a.185.185 0 0 1 .152.212l-.83 4.977a.185.185 0 0 1-.114.141l-2.7 1.078a.188.188 0 0 1-.068.013m-3.8-1.005 3.778.63 2.556-1.02.783-4.692-6.1-1.018z" transform="translate(-1621.038 -492.891)" style="fill:#f78aab"/>
                <path data-name="Path 9897" d="M1794.924 622.458a.184.184 0 0 1-.162-.272l.541-1a.185.185 0 0 1 .156-.1l2.159-.076a.185.185 0 0 1 .075.356l-2.7 1.078a.189.189 0 0 1-.068.013m.653-1.006-.249.462 1.244-.5z" transform="translate(-1679.496 -581.135)" style="fill:#f689aa"/>
                <path data-name="Path 9898" d="M1944.266 612.776s-.608 4.927.253 7.233l6.55-2.737-.278-.619z" transform="translate(-1819.225 -573.428)" style="fill:#5d47ff"/>
                <path data-name="Path 9899" d="M1971.4 543.478c.039-.008.083-4.328.083-4.328l5.589.23-.1 5.2z" transform="translate(-1844.813 -504.53)" style="fill:#5d47ff"/>
                <path data-name="Path 9900" d="M1948.485 599.942c-1.46-2.256-1.283-5.865-1.283-5.865l5.865-1.283s.507 3.451 1.921 4.681z" transform="translate(-1822.162 -554.73)" style="fill:#c8deff"/>
                <path data-name="Path 9901" d="m1945.705 596.927-.081-.125c-1.476-2.279-1.32-5.824-1.312-5.974l.007-.141 6.2-1.356.029.2c.005.034.514 3.4 1.86 4.569l.233.2zm-1.029-5.941a11.494 11.494 0 0 0 1.179 5.489l6.092-2.311c-1.116-1.206-1.612-3.672-1.736-4.389z" transform="translate(-1819.456 -551.489)" style="fill:#5d47ff"/>
                <path data-name="Path 9902" d="M2685.969 482.089a3.73 3.73 0 0 1-.447.35 10.859 10.859 0 0 1-3.876 3.938 20.615 20.615 0 0 1-5.824 2.321l.093.358a20.969 20.969 0 0 0 5.925-2.365 11.086 11.086 0 0 0 4.149-4.348 4.308 4.308 0 0 1-.02-.253" transform="translate(-2504.002 -451.133)" style="fill:#8bb7fe"/>
                <path data-name="Path 9903" d="M2811.1 471.908a.184.184 0 0 0-.142.066 3.353 3.353 0 0 1-1.627 1.06l.1.355a3.7 3.7 0 0 0 1.025-.477q.157-.288.291-.584l.336.152q-.076.169-.16.335a3.741 3.741 0 0 0 .651 1.725l.3-.213a3.372 3.372 0 0 1-.594-2.219.184.184 0 0 0-.113-.187.189.189 0 0 0-.071-.014" transform="translate(-2628.937 -441.606)" style="fill:#8bb7fe"/>
                <path data-name="Path 9904" d="M2827.167 478.447q-.134.3-.291.584a3.728 3.728 0 0 0 .448-.35c0 .085.01.169.02.253q.083-.166.16-.335z" transform="translate(-2645.356 -447.725)" style="fill:#6da3fd"/>
                <path data-name="Path 9905" d="M2542.31 479.78a2.136 2.136 0 0 0-.429.055l-2.109.439a1.293 1.293 0 0 1-.249.035.38.38 0 0 1-.084-.009.84.84 0 0 1-.313-.192c-.05-.041-.1-.082-.151-.118a.839.839 0 0 0-.469-.161.481.481 0 0 0-.351.139l.261.261a.128.128 0 0 1 .093-.032.479.479 0 0 1 .252.093c.045.032.088.068.131.1a1.145 1.145 0 0 0 .466.267.757.757 0 0 0 .164.017 1.581 1.581 0 0 0 .324-.043l2.109-.439a1.824 1.824 0 0 1 .353-.047.463.463 0 0 1 .237.054.8.8 0 0 1 .093.068 1.046 1.046 0 0 0 .165.112 1.03 1.03 0 0 0 .446.09l4.591.18.014-.369-4.591-.18a.723.723 0 0 1-.291-.049.673.673 0 0 1-.105-.074 1.192 1.192 0 0 0-.136-.1.814.814 0 0 0-.421-.1" transform="translate(-2375.175 -448.972)" style="fill:#8bb7fe"/>
                <path data-name="Path 9906" d="M2532.473 500.121a.548.548 0 0 0-.3.114 1.524 1.524 0 0 1-.807.231 1.48 1.48 0 0 1-.253-.022 3.556 3.556 0 0 1-.248-.057 2.193 2.193 0 0 0-.477-.085h-.031a.75.75 0 0 0-.734.445l.348.123a.392.392 0 0 1 .377-.2h.027a1.872 1.872 0 0 1 .4.074c.092.023.184.047.277.063a1.817 1.817 0 0 0 .313.027 1.922 1.922 0 0 0 1.019-.3.44.44 0 0 1 .089-.049.432.432 0 0 1 .083.056 2.518 2.518 0 0 0 1.559.41c.189 0 .382-.009.577-.02l2.24-.128c.093-.005.187-.01.279-.01a1.168 1.168 0 0 1 .45.073l.143-.34a1.5 1.5 0 0 0-.59-.1c-.1 0-.205.006-.3.011l-2.24.128c-.185.01-.368.018-.546.018a2.214 2.214 0 0 1-1.36-.346.5.5 0 0 0-.256-.118h-.038" transform="translate(-2367.195 -468.007)" style="fill:#8bb7fe"/>
                <path data-name="Path 9907" d="M2530.2 528.055a1.735 1.735 0 0 0-1.18.4l.246.275a1.373 1.373 0 0 1 .932-.307 2.711 2.711 0 0 1 .606.074c.227.053.457.128.679.2a5.846 5.846 0 0 0 1.068.274 3.276 3.276 0 0 0 .416.026 6.239 6.239 0 0 0 1.626-.272 4.523 4.523 0 0 0 1.961-.006l.149-.036a2.23 2.23 0 0 1 .52-.085h.041a1.985 1.985 0 0 1 .445.1l.109.032a4.782 4.782 0 0 0 1.317.184c.142 0 .285-.006.428-.019l-.032-.367a4.444 4.444 0 0 1-.4.018 4.423 4.423 0 0 1-1.213-.17l-.106-.031a2.254 2.254 0 0 0-.53-.112h-.075a2.486 2.486 0 0 0-.593.1l-.144.035a4.139 4.139 0 0 1-1.842 0 .191.191 0 0 0-.042 0 .176.176 0 0 0-.048.007 6.082 6.082 0 0 1-1.577.27 2.922 2.922 0 0 1-.365-.022 5.5 5.5 0 0 1-1-.259 8.608 8.608 0 0 0-.71-.209 3.094 3.094 0 0 0-.687-.082" transform="translate(-2366.625 -494.148)" style="fill:#8bb7fe"/>
                <path data-name="Path 9908" d="M1769.761 1185.335h-101.517v-2.678h101.517zm-101.148-.369h100.779v-1.94h-100.779z" transform="translate(-1561.122 -1106.717)" style="fill:#4f90fd"/>
                <path data-name="Rectangle 4670" transform="translate(111.426 75.2)" style="fill:#0461fc" d="M0 0h7.749v.925H0z"/>
                <path data-name="Path 9909" d="M1797.1 382.252a1.079 1.079 0 0 1-.759-.292 1.209 1.209 0 1 1 1.109.244 1.3 1.3 0 0 1-.35.049m-.162-1.879a.843.843 0 1 0 .732.228.774.774 0 0 0-.732-.228" transform="translate(-1680.7 -355.584)" style="fill:#f689aa"/>
                <path data-name="Path 9910" d="M1862.251 385.607a.765.765 0 0 1-.1-.007.754.754 0 0 1-.636-.709.745.745 0 0 1 .446-.763 1 1 0 0 1 1.07.043.665.665 0 0 1 .088.812.974.974 0 0 1-.865.624m-.373-.766c.032.231.145.37.319.393a.592.592 0 0 0 .58-.4c.055-.13.1-.305 0-.4a.642.642 0 0 0-.649.013.4.4 0 0 0-.252.385" transform="translate(-1741.974 -359.337)" style="fill:#f689aa"/>
                <path data-name="Path 9911" d="M1913.2 387.4a1 1 0 0 1-.382-.077.853.853 0 0 1-.529-.616.769.769 0 0 1 .492-.955 1.221 1.221 0 0 1 1.363.476c.08.161.194.584-.462 1.029a.856.856 0 0 1-.483.142m-.548-.761a.487.487 0 0 0 .308.343.551.551 0 0 0 .516-.03c.172-.117.445-.346.339-.561a.859.859 0 0 0-.916-.29c-.219.073-.3.249-.246.537" transform="translate(-1789.473 -360.933)" style="fill:#f689aa"/>
                <path data-name="Path 9912" d="m1791.42 437.274 2.417.321a4.677 4.677 0 0 0 2.781-.2 4.813 4.813 0 0 1 .706-.37 2.367 2.367 0 0 1 .921-.047l6.635.536a.859.859 0 0 1 0 .8 11.434 11.434 0 0 0-4.231-.224 91.227 91.227 0 0 1-9.194.125l-.044-.455" transform="translate(-1676.381 -408.899)" style="fill:#f689aa"/>
                <path data-name="Path 9913" d="M1763.437 723.465c.143-.637.541-2.3.71-3l2.855 2.877c-.5.005-1.32.017-1.811.044-.585.032-1.166.058-1.754.082m.506-3.733-.077.321c-.032.132-.778 3.237-.84 3.572l-.042.227.23-.009c.672-.028 1.332-.056 2-.092.733-.04 2.216-.047 2.231-.047h.44l-3.94-3.971" transform="translate(-1649.778 -673.517)" style="fill:#9292ff"/>
                <path data-name="Path 9914" d="M1759.3 804.748a2.929 2.929 0 0 1-.652-1.684 2.24 2.24 0 0 1 .338-1.27 1.41 1.41 0 0 1 .159-.339 1.216 1.216 0 0 1 1.193-.552 3.1 3.1 0 0 1 1.111-.012 2.5 2.5 0 0 1 .729.221 1.848 1.848 0 0 1 .589 2.836 1.639 1.639 0 0 1-.616.465 2.427 2.427 0 0 1-.928.143 2.2 2.2 0 0 1-1.016-.2 2.1 2.1 0 0 1-.54-.44 2.89 2.89 0 0 1-.649-1.022v.162a2.564 2.564 0 0 0 .573 1.468zm.026-2.8a1.392 1.392 0 0 0 .016.745 2.439 2.439 0 0 0 .595.969 1.754 1.754 0 0 0 .442.365 1.872 1.872 0 0 0 .848.161 2.034 2.034 0 0 0 .781-.114 1.271 1.271 0 0 0 .476-.361 1.48 1.48 0 0 0-.471-2.27 2.16 2.16 0 0 0-.623-.186 2.2 2.2 0 0 0-1.808.4 1.544 1.544 0 0 0-.256.29" transform="translate(-1645.717 -749.423)" style="fill:#ff9a00"/>
                <path data-name="Path 9915" d="M1842.366 805.867a3.375 3.375 0 0 1-.416-.034 1.451 1.451 0 0 1-.953-.382 1.169 1.169 0 0 1-.208-.383 2.083 2.083 0 0 1 .086-1.621.613.613 0 0 0-.218.165l-.287-.231a1.328 1.328 0 0 1 .864-.415 1.613 1.613 0 0 1 1.671-.349l-.137.342a1.1 1.1 0 0 0-.559-.063 1.769 1.769 0 0 1 .453.09 1.526 1.526 0 0 1 .608 2.493 1.233 1.233 0 0 1-.508.33 1.275 1.275 0 0 1-.4.057m-.955-2.553q-.032.035-.061.072a1.681 1.681 0 0 0-.212 1.56.8.8 0 0 0 .138.263 1.125 1.125 0 0 0 .72.258 1.57 1.57 0 0 0 .654-.008.861.861 0 0 0 .353-.234 1.157 1.157 0 0 0-.461-1.89 2.422 2.422 0 0 0-1.1-.026h-.032" transform="translate(-1722.197 -750.984)" style="fill:#ff9a00"/>
                <path data-name="Path 9916" d="M2093.412 380.894h-9.286l1.107-2.658h9.286z" transform="translate(-1950.3 -353.949)" style="fill:#c8deff"/>
                <path data-name="Path 9917" d="M2089.5 378.39h-9.686l1.261-3.027h9.685zm-9.133-.369h8.886l.954-2.289h-8.886z" transform="translate(-1946.27 -351.26)" style="fill:#f78aab"/>
                <path data-name="Path 9918" d="M2077.85 367.495h-9.286l1.107-2.658h9.286z" transform="translate(-1935.737 -341.41)" style="fill:#c8deff"/>
                <path data-name="Path 9919" d="M2073.94 364.99h-9.686l1.261-3.027h9.686zm-9.132-.369h8.886l.954-2.289h-8.886z" transform="translate(-1931.705 -338.721)" style="fill:#f78aab"/>
                <path data-name="Path 9920" d="M2790.87 705.684a.188.188 0 0 1 .106.2 2.764 2.764 0 0 1-.077.362c-.023.061-.042.108-.1.121a.03.03 0 0 0-.023.029.809.809 0 0 1-.312.641l.065.231a.547.547 0 0 0 .35.369l.8.272a.81.81 0 0 1 .526.577l.1.431a.1.1 0 0 1-.094.119h-4.73a.1.1 0 0 1-.094-.119l.1-.431a.809.809 0 0 1 .526-.577l.8-.272a.546.546 0 0 0 .35-.369l.065-.231a.809.809 0 0 1-.312-.641.03.03 0 0 0-.024-.029c-.055-.013-.074-.06-.1-.121a2.764 2.764 0 0 1-.077-.362.189.189 0 0 1 .106-.2s0-.165-.007-.546a1.044 1.044 0 0 1 .648-.941 1.164 1.164 0 0 1 .894.018c.179.077.329.289.286.384.08.015.216.168.216.509v.575" transform="translate(-2608.406 -658.904)" style="fill:#4f90fd"/>
                <path data-name="Path 9921" d="M2770.131 683.752h-1.956v1.955h.369v-1.586h1.586z" transform="translate(-2590.425 -639.847)" style="fill:#8bb7fe"/>
                <path data-name="Path 9922" d="M2854.781 683.752h-1.955v.369h1.586v1.586h.369z" transform="translate(-2669.639 -639.847)" style="fill:#8bb7fe"/>
                <path data-name="Path 9923" d="M2854.781 768.4h-.369v1.587h-1.586v.369h1.955z" transform="translate(-2669.639 -719.06)" style="fill:#8bb7fe"/>
                <path data-name="Path 9924" d="M2768.544 768.4h-.369v1.955h1.956v-.369h-1.586z" transform="translate(-2590.425 -719.06)" style="fill:#8bb7fe"/>
                <path data-name="Path 9925" d="M1852.071 32.933a7.29 7.29 0 1 1-7.29-7.29 7.29 7.29 0 0 1 7.29 7.29" transform="translate(-1719.501 -23.997)" style="fill:#f0ebf1"/>
                <path data-name="Path 9926" d="M1859.661 10.162a7.29 7.29 0 1 1-7.29-7.29 7.29 7.29 0 0 1 7.29 7.29" transform="translate(-1726.604 -2.688)" style="fill:#ffd0c3"/>
                <path data-name="Path 9927" d="M1849.683 14.951a7.475 7.475 0 1 1 7.474-7.475 7.483 7.483 0 0 1-7.474 7.475m0-14.58a7.106 7.106 0 1 0 7.106 7.106 7.114 7.114 0 0 0-7.106-7.106" transform="translate(-1723.916 -.002)" style="fill:#ffa09a"/>
                <path data-name="Path 9928" d="M1875.979 27.683a6.088 6.088 0 1 1-6.088-6.088 6.088 6.088 0 0 1 6.088 6.088" transform="translate(-1744.124 -20.208)" style="fill:#ffe1dd"/>
                <path data-name="Path 9929" d="M1866.294 30.541a.245.245 0 0 1-.244-.249.251.251 0 0 1 .248-.239.244.244 0 0 1 0 .487m2.871-.911a.245.245 0 0 1 .088-.332.243.243 0 0 1 .239.424.221.221 0 0 1-.122.034.236.236 0 0 1-.21-.127m-6.053 0a.245.245 0 1 1 .336-.083.248.248 0 0 1-.336.083m8.4-2.144a.244.244 0 1 1 .249-.419.239.239 0 0 1 .088.331.247.247 0 0 1-.21.122.289.289 0 0 1-.127-.034m-10.688-.239a.242.242 0 1 1 .424-.234.242.242 0 0 1-.092.331.26.26 0 0 1-.117.029.248.248 0 0 1-.214-.127m11.4-3.041a.241.241 0 0 1 .244-.244.244.244 0 0 1 0 .487.241.241 0 0 1-.244-.244m-11.936.078a.244.244 0 1 1 .01-.487.238.238 0 0 1 .239.249.247.247 0 0 1-.244.239zm11.293-2.744a.239.239 0 0 1 .107-.327.243.243 0 0 1 .327.1.249.249 0 0 1-.107.331.221.221 0 0 1-.112.024.243.243 0 0 1-.214-.131m-10.5-.337a.244.244 0 1 1 .258-.414.242.242 0 0 1-.131.448.235.235 0 0 1-.127-.034m8.451-1.92a.244.244 0 0 1-.073-.336.243.243 0 0 1 .41.263.247.247 0 0 1-.2.112.258.258 0 0 1-.131-.039m-6.214-.346a.241.241 0 0 1 .1-.327.246.246 0 0 1 .332.1.243.243 0 0 1-.1.331.226.226 0 0 1-.112.029.243.243 0 0 1-.215-.132m3.3-.57a.244.244 0 1 1 .02-.487.244.244 0 0 1-.015.487z" transform="translate(-1740.612 -16.735)" style="fill:#f78aab"/>
                <path data-name="Path 9930" d="M1930.675 52.948h-.015a.185.185 0 0 1-.136-.077l-1.766-2.507.3-.213 1.639 2.325 3.977-4.079.264.257-4.132 4.239a.184.184 0 0 1-.132.056" transform="translate(-1804.908 -45.289)" style="fill:#0461fc"/>
                <path data-name="Path 9931" d="M2691.51 871.1a2.341 2.341 0 0 1-.836-.693 3.247 3.247 0 0 1 .177-3.646 7.819 7.819 0 0 1 3.2-2.383 3.952 3.952 0 0 1 1.588-.436 1.285 1.285 0 0 1 .909.32c.638.6.372 1.7-.091 2.529a9.836 9.836 0 0 1-4.943 4.309m4.127-7.526a4.2 4.2 0 0 0-1.748.471 8.151 8.151 0 0 0-3.341 2.506 3.581 3.581 0 0 0-.17 4.077 2.637 2.637 0 0 0 .684.638 9.5 9.5 0 0 1-2.2.475 6.029 6.029 0 0 1-.555.029 2.664 2.664 0 0 1-1.263-.27 1.412 1.412 0 0 1-.763-1.2l.942-.574-.125-.163a.479.479 0 0 0-.388-.191.576.576 0 0 0-.109.011.891.891 0 0 0-.641.6 1.225 1.225 0 0 0-.024.1l-.374.228a1.956 1.956 0 0 1-.942.348.545.545 0 0 1-.37-.127c-.29-.252-.186-.756-.146-.905a2.513 2.513 0 0 1 1.227-1.552l-.174-.326a2.889 2.889 0 0 0-1.409 1.784 1.238 1.238 0 0 0 .248 1.267.891.891 0 0 0 .6.217 2.3 2.3 0 0 0 1.142-.4l.168-.1a1.839 1.839 0 0 0 .947 1.3 3.008 3.008 0 0 0 1.433.314c.207 0 .407-.013.59-.03a9.9 9.9 0 0 0 2.61-.609 3.487 3.487 0 0 0 1.366.267 3.916 3.916 0 0 0 2.053-.574.883.883 0 0 0 .055-.037l.012.008a.808.808 0 0 0 .435.117 1.664 1.664 0 0 0 .556-.116l-.126-.347a1.319 1.319 0 0 1-.432.093.491.491 0 0 1-.176-.029.685.685 0 0 0 .124-.318.435.435 0 0 0-.141-.367l-.072-.066-.1.023a.452.452 0 0 0-.339.387.65.65 0 0 0 .031.324l-.028.019a3.558 3.558 0 0 1-1.862.521 3.237 3.237 0 0 1-.854-.111 10.194 10.194 0 0 0 4.766-4.32c.531-.954.815-2.237.021-2.978a1.637 1.637 0 0 0-1.159-.419" transform="translate(-2511.354 -808.117)" style="fill:#8bb7fe"/>
                <path data-name="Path 9932" d="M2934.235 689.477h-9a.481.481 0 0 1-.481-.481V687.1a.481.481 0 0 1 .481-.481h9a.481.481 0 0 1 .481.481v1.9a.481.481 0 0 1-.481.481" transform="translate(-2736.946 -642.535)" style="fill:#4f90fd"/>
                <path data-name="Path 9933" d="M2935.739 696.807a.826.826 0 1 1-.826-.826.826.826 0 0 1 .826.826" transform="translate(-2745.684 -651.291)" style="fill:#ff8c8c"/>
                <path data-name="Rectangle 4671" transform="translate(190.641 44.643)" style="fill:#c8deff" d="M0 0h1.73v.369H0z"/>
                <path data-name="Rectangle 4672" transform="translate(196.279 44.735)" style="fill:#c8deff" d="M0 0h.865v.369H0z"/>
                <path data-name="Rectangle 4673" transform="translate(190.641 45.332)" style="fill:#c8deff" d="M0 0h3.713v.369H0z"/>
                <path data-name="Rectangle 4674" transform="translate(190.641 46.02)" style="fill:#c8deff" d="M0 0h2.944v.369H0z"/>
                <path data-name="Path 9934" d="M2934.235 745.085h-9a.481.481 0 0 1-.481-.481v-1.891a.481.481 0 0 1 .481-.481h9a.481.481 0 0 1 .481.481v1.887a.481.481 0 0 1-.481.481" transform="translate(-2736.946 -694.572)" style="fill:#4f90fd"/>
                <path data-name="Path 9935" d="M2935.739 752.415a.826.826 0 1 1-.826-.826.826.826 0 0 1 .826.826" transform="translate(-2745.684 -703.328)" style="fill:#ff8c8c"/>
                <path data-name="Rectangle 4675" transform="translate(190.641 48.214)" style="fill:#c8deff" d="M0 0h1.73v.369H0z"/>
                <path data-name="Rectangle 4676" transform="translate(196.279 48.306)" style="fill:#c8deff" d="M0 0h.865v.369H0z"/>
                <path data-name="Rectangle 4677" transform="translate(190.641 48.902)" style="fill:#c8deff" d="M0 0h3.713v.369H0z"/>
                <path data-name="Rectangle 4678" transform="translate(190.641 49.591)" style="fill:#c8deff" d="M0 0h2.944v.369H0z"/>
                <path data-name="Path 9936" d="M2934.235 800.694h-9a.481.481 0 0 1-.481-.481v-1.891a.481.481 0 0 1 .481-.481h9a.481.481 0 0 1 .481.481v1.891a.481.481 0 0 1-.481.481" transform="translate(-2736.946 -746.61)" style="fill:#4f90fd"/>
                <path data-name="Path 9937" d="M2935.739 808.024a.826.826 0 1 1-.826-.826.826.826 0 0 1 .826.826" transform="translate(-2745.684 -755.366)" style="fill:#ff8c8c"/>
                <path data-name="Rectangle 4679" transform="translate(190.641 51.784)" style="fill:#c8deff" d="M0 0h1.73v.369H0z"/>
                <path data-name="Rectangle 4680" transform="translate(196.279 51.877)" style="fill:#c8deff" d="M0 0h.865v.369H0z"/>
                <path data-name="Rectangle 4681" transform="translate(190.641 52.473)" style="fill:#c8deff" d="M0 0h3.713v.369H0z"/>
                <path data-name="Rectangle 4682" transform="translate(190.641 53.162)" style="fill:#c8deff" d="M0 0h2.944v.369H0z"/>
                <path data-name="Path 9938" d="M3094.4 592.529a.759.759 0 0 1-.539-.223l-3.881-3.881a.762.762 0 0 1 1.077-1.077l3.881 3.881a.762.762 0 0 1-.539 1.3" transform="translate(-2891.36 -549.425)" style="fill:#f78aab"/>
                <path data-name="Path 9939" d="M3091.721 590.031a.94.94 0 0 1-.669-.277l-3.881-3.88a.946.946 0 1 1 1.338-1.338l3.881 3.881a.946.946 0 0 1-.669 1.615m-3.881-5.4a.577.577 0 0 0-.408.985l3.88 3.88a.591.591 0 0 0 .816 0 .577.577 0 0 0 0-.816l-3.881-3.881a.575.575 0 0 0-.408-.169" transform="translate(-2888.678 -546.742)" style="fill:#f78aab"/>
                <path data-name="Path 9940" d="M3062.644 557.138a2.872 2.872 0 1 1-2.872-2.872 2.872 2.872 0 0 1 2.872 2.872" transform="translate(-2860.61 -518.676)" style="fill:#c8deff"/>
                <path data-name="Path 9941" d="M3057.084 557.5a3.056 3.056 0 1 1 3.056-3.056 3.06 3.06 0 0 1-3.056 3.056m0-5.743a2.687 2.687 0 1 0 2.687 2.687 2.69 2.69 0 0 0-2.687-2.687" transform="translate(-2857.922 -515.986)" style="fill:#f78aab"/>
                <path data-name="Path 9942" d="M3071.682 566.841a2.206 2.206 0 1 1-2.206-2.206 2.206 2.206 0 0 1 2.206 2.206" transform="translate(-2870.315 -528.379)" style="fill:#c8deff"/>
                <path data-name="Path 9943" d="M3066.787 566.542a2.39 2.39 0 1 1 2.391-2.39 2.393 2.393 0 0 1-2.391 2.39m0-4.411a2.021 2.021 0 1 0 2.021 2.021 2.024 2.024 0 0 0-2.021-2.021" transform="translate(-2867.626 -525.69)" style="fill:#f78aab"/>
                <path data-name="Path 9944" d="M911.938 1300.616h-7.053l-1.113-5.215h7.053z" transform="translate(-845.739 -1212.221)" style="fill:#ff8bae"/>
                <path data-name="Path 9945" d="M908.224 1300.616h-7.053l-1.113-5.215h7.053z" transform="translate(-842.263 -1212.221)" style="fill:#c3b2be"/>
                <path data-name="Path 9946" d="M907.575 1297.575h-7.053l-.463-2.173h7.053z" transform="translate(-842.263 -1212.221)" style="fill:#333"/>
                <path data-name="Path 9947" d="M862.6 1376.618h-11.739a1.084 1.084 0 0 0-1.084 1.084h13.909a1.084 1.084 0 0 0-1.084-1.084" transform="translate(-795.211 -1288.223)" style="fill:#d3c6cf"/>
                <path data-name="Path 9948" d="m652.239 1236.543-.463 2.9a1.122 1.122 0 0 0 1.122.981h31.353a1.772 1.772 0 0 0 1.649-1.36l.535-2.516z" transform="translate(-609.924 -1157.142)" style="fill:#beb2bd"/>
                <path data-name="Path 9949" d="m691.156 962.653 3.518-16.551a1.7 1.7 0 0 0-.583-1.732l-31.461-.246a1.772 1.772 0 0 0-1.649 1.36l-3.881 18.263-.3 1.421a1.067 1.067 0 0 0 1.071 1.36h31.105a1.773 1.773 0 0 0 1.649-1.36z" transform="translate(-614.593 -883.499)" style="fill:#c3b2be"/>
                <path data-name="Path 9950" d="m1110.437 946.953-8.757-.068 4.1 21.444.587.583a1.83 1.83 0 0 0 .6-1.158l.535-2.516 3.518-16.552a1.7 1.7 0 0 0-.583-1.732" transform="translate(-1030.939 -886.084)" style="fill:#ff8bae"/>
                <path data-name="Path 9951" d="M667.075 974.336a.534.534 0 0 1-.536-.68l3.882-18.264a.886.886 0 0 1 .824-.68h31.105a.534.534 0 0 1 .536.68L699 973.656a.886.886 0 0 1-.824.68z" transform="translate(-623.725 -893.408)" style="fill:#fff"/>
                <path data-name="Path 9952" d="m692.074 945.483-3.882 18.264h-31.105l3.882-18.264zm.289-1.36h-31.105a1.772 1.772 0 0 0-1.649 1.36l-3.882 18.264a1.067 1.067 0 0 0 1.071 1.36H687.9a1.773 1.773 0 0 0 1.649-1.36l3.882-18.264a1.067 1.067 0 0 0-1.071-1.36" transform="translate(-613.592 -883.499)" style="fill:#333"/>
                <path data-name="Path 9953" d="M709.822 1029.034a38.225 38.225 0 0 0-8.206-1.641 70.223 70.223 0 0 0-18.294 1.084 33.483 33.483 0 0 0-3.36.718l-2.609 12.274h31.105l2.55-12a16.176 16.176 0 0 0-1.186-.438" transform="translate(-633.859 -961.221)" style="fill:#ffb9cd"/>
                <path data-name="Path 9954" d="M710.528 1085.383a14.979 14.979 0 0 0-9.525-.191c-2.5.742-4.957 2.065-7.459 2.37-2.841.347-5.36-.657-7.851-1.476a14.309 14.309 0 0 0-5.9-.916 12.86 12.86 0 0 0-.337.038l-2.107 9.913h31.105z" transform="translate(-633.859 -1014.872)" style="fill:#ff8bae"/>
                <path data-name="Path 9955" d="M710.605 1092.517a23.5 23.5 0 0 0-8.166 2.561 34.333 34.333 0 0 1-5.587 2.8c-2.619.8-5.18.354-7.656 0a15.519 15.519 0 0 0-8.689.991 24.836 24.836 0 0 0-2.621 1.247l-.532 2.5h31.105z" transform="translate(-633.86 -1022.364)" style="fill:#ff5085"/>
                <path data-name="Path 9956" d="m651.555 1232.692-.535 2.516a1.068 1.068 0 0 0 1.071 1.36H683.2a1.773 1.773 0 0 0 1.649-1.36l.535-2.516z" transform="translate(-609.188 -1153.538)" style="fill:#d3c6cf"/>
                <path data-name="Rectangle 4683" transform="translate(5.744 91.902)" style="fill:#333" d="M0 0h100.659v1.849H0z"/>
                <path data-name="Path 9957" d="M1119.743 1444.267h-3.189l-.747-26.011h4.683z" transform="translate(-1044.159 -1327.187)" style="fill:#333"/>
                <path data-name="Path 9958" d="M1154.575 1444.267h-1.21l-.336-26.011h2.293z" transform="translate(-1078.99 -1327.187)" style="fill:#f689aa"/>
                <path data-name="Rectangle 4684" transform="translate(71.219 91.902)" style="fill:#333" d="M0 0h5.542v1.019H0z"/>
                <path data-name="Path 9959" d="M55.818 1444.267h-3.189l-.747-26.011h4.683z" transform="translate(-48.551 -1327.187)" style="fill:#333"/>
                <path data-name="Path 9960" d="M90.65 1444.267h-1.21l-.336-26.011H91.4z" transform="translate(-83.383 -1327.187)" style="fill:#f689aa"/>
                <path data-name="Rectangle 4685" transform="translate(2.902 91.902)" style="fill:#333" d="M0 0h5.542v1.019H0z"/>
                <path data-name="Path 9961" d="M572.02 1444.267h-3.189l-.747-26.011h4.683z" transform="translate(-531.607 -1327.187)" style="fill:#333"/>
                <path data-name="Path 9962" d="M606.852 1444.267h-1.21l-.336-26.011h2.294z" transform="translate(-566.438 -1327.187)" style="fill:#f689aa"/>
                <path data-name="Rectangle 4686" transform="translate(36.048 91.902)" style="fill:#333" d="M0 0h5.542v1.019H0z"/>
                <path data-name="Path 9963" d="M1583.3 1444.267h-3.189l-.747-26.011h4.683z" transform="translate(-1477.948 -1327.187)" style="fill:#333"/>
                <path data-name="Path 9964" d="M1618.13 1444.267h-1.21l-.336-26.011h2.293z" transform="translate(-1512.78 -1327.187)" style="fill:#f689aa"/>
                <path data-name="Rectangle 4687" transform="translate(100.985 91.902)" style="fill:#2030e0" d="M0 0h5.542v1.019H0z"/>
                <path data-name="Rectangle 4688" transform="translate(66.916 89.412)" style="fill:#f689aa" d="M0 0h44.983v2.49H0z"/>
                <path data-name="Rectangle 4689" transform="translate(0 89.412)" style="fill:#333" d="M0 0h72.96v2.49H0z"/>
                <path data-name="Path 9965" d="M738.071 996.642h-13.412a.53.53 0 0 1-.531-.675l1.954-9.194a.88.88 0 0 1 .818-.675h13.411a.53.53 0 0 1 .531.675l-1.954 9.194a.879.879 0 0 1-.818.675" transform="translate(-677.616 -922.779)" style="fill:#f0ebf1"/>
                <path data-name="Path 9966" d="m752.893 987.344.121-.571a.88.88 0 0 1 .818-.675h13.411a.53.53 0 0 1 .531.675l-.122.571z" transform="translate(-704.548 -922.779)" style="fill:#cfc6ce"/>
                <path data-name="Path 9967" d="M765.935 991.838a.354.354 0 0 1-.33.272.213.213 0 0 1-.214-.272.354.354 0 0 1 .33-.272.213.213 0 0 1 .214.272" transform="translate(-716.238 -927.896)" style="fill:#f1ebf1"/>
                <path data-name="Path 9968" d="M779.509 991.838a.354.354 0 0 1-.33.272.213.213 0 0 1-.214-.272.354.354 0 0 1 .33-.272.213.213 0 0 1 .214.272" transform="translate(-728.941 -927.896)" style="fill:#f1ebf1"/>
                <path data-name="Path 9969" d="M793.084 991.838a.354.354 0 0 1-.33.272.213.213 0 0 1-.214-.272.354.354 0 0 1 .33-.272.213.213 0 0 1 .214.272" transform="translate(-741.644 -927.896)" style="fill:#f1ebf1"/>
                <path data-name="Path 9970" d="M756.577 1032.029h-12.193l1.5-7.058h12.194z" transform="translate(-696.585 -959.156)" style="fill:#fff"/>
                <path data-name="Path 9971" d="M772.5 1037.924h-7.1l.613-2.882h7.1z" transform="translate(-716.258 -968.58)" style="fill:#ff5085"/>
                <path data-name="Path 9972" d="M895.4 1035.633h-1.992l.126-.591h1.992z" transform="translate(-836.044 -968.58)" style="fill:#ffb9cd"/>
                <path data-name="Path 9973" d="M892.817 1053.478h-3.2l.125-.59h3.2z" transform="translate(-832.495 -985.279)" style="fill:#ffb9cd"/>
                <path data-name="Path 9974" d="M888.449 1071.321h-2.623l.125-.59h2.623z" transform="translate(-828.945 -1001.977)" style="fill:#ffb9cd"/>
                <path data-name="Path 9975" d="M892.444 1099.959a1 1 0 0 1-.929.766.6.6 0 0 1-.6-.766 1 1 0 0 1 .929-.766.6.6 0 0 1 .6.766" transform="translate(-833.688 -1028.612)" style="fill:#6445ff"/>
                <path data-name="Path 9976" d="M757.025 1101.485h-3.3l.487-2.292h3.3z" transform="translate(-705.327 -1028.612)" style="fill:#947fff"/>
                <path data-name="Path 9977" d="M816.14 1101.485h-3.3l.487-2.292h3.3z" transform="translate(-760.646 -1028.612)" style="fill:#947fff"/>
                <path data-name="Path 9978" d="M980.06 1057.73h-10.29a.53.53 0 0 1-.531-.675l1.954-9.194a.879.879 0 0 1 .818-.675H982.3a.53.53 0 0 1 .531.675l-1.954 9.194a.88.88 0 0 1-.818.675" transform="translate(-906.988 -979.944)" style="fill:#f0ebf1"/>
                <path data-name="Path 9979" d="m998.006 1048.432.121-.571a.88.88 0 0 1 .818-.675h10.29a.53.53 0 0 1 .531.675l-.121.571z" transform="translate(-933.922 -979.944)" style="fill:#cfc6ce"/>
                <path data-name="Path 9980" d="M1011.047 1052.926a.354.354 0 0 1-.329.272.213.213 0 0 1-.214-.272.354.354 0 0 1 .33-.272.213.213 0 0 1 .214.272" transform="translate(-945.611 -985.061)" style="fill:#f1ebf1"/>
                <path data-name="Path 9981" d="M1024.622 1052.926a.354.354 0 0 1-.33.272.213.213 0 0 1-.214-.272.354.354 0 0 1 .33-.272.213.213 0 0 1 .214.272" transform="translate(-958.315 -985.061)" style="fill:#f1ebf1"/>
                <path data-name="Path 9982" d="M1038.2 1052.926a.354.354 0 0 1-.33.272.213.213 0 0 1-.214-.272.354.354 0 0 1 .33-.272.213.213 0 0 1 .214.272" transform="translate(-971.017 -985.061)" style="fill:#f1ebf1"/>
                <path data-name="Path 9983" d="M1103.156 1093.116h-5.486l1.5-7.057h3.845l1.32 1.478z" transform="translate(-1027.186 -1016.321)" style="fill:#fff"/>
                <path data-name="Path 9984" d="M991.407 1093.116H984.9l1.5-7.057h6.506z" transform="translate(-921.658 -1016.321)" style="fill:#fff"/>
                <path data-name="Path 9985" d="M982.266 802.379h-6.177a.387.387 0 0 1-.389-.493l.77-3.623a.643.643 0 0 1 .6-.493h6.177a.387.387 0 0 1 .388.493l-.77 3.623a.643.643 0 0 1-.6.493" transform="translate(-913.039 -746.543)" style="fill:#d3c6cf"/>
                <path data-name="Path 9986" d="M971.907 791.221h-6.335a.4.4 0 0 1-.4-.506l.79-3.716a.659.659 0 0 1 .613-.506h6.335a.4.4 0 0 1 .4.506l-.79 3.716a.659.659 0 0 1-.614.506" transform="translate(-903.187 -735.991)" style="fill:#f1ebf1"/>
                <path data-name="Path 9987" d="m989.14 743.927-2.471-2.875a.562.562 0 0 0-.769 0l-3.693 2.875" transform="translate(-919.137 -693.326)" style="fill:#f1ebf1"/>
                <path data-name="Path 9988" d="M941.689 719.849a4.881 4.881 0 0 1-3.9-1.744 5.093 5.093 0 0 1-.911-4.355 7.944 7.944 0 0 1 6.153-5.917 6.486 6.486 0 0 1 1.152-.105v.369a6.1 6.1 0 0 0-1.086.1 7.561 7.561 0 0 0-5.858 5.63 4.732 4.732 0 0 0 .837 4.046 4.52 4.52 0 0 0 3.609 1.607 7.476 7.476 0 0 0 6.944-5.729 4.75 4.75 0 0 0-.8-4l.29-.228a5.112 5.112 0 0 1 .873 4.307 7.861 7.861 0 0 1-7.3 6.022" transform="translate(-876.594 -662.284)" style="fill:#c8deff"/>
                <path data-name="Path 9989" d="M1061.417 693.722a2.25 2.25 0 0 1-2.094 1.727 1.355 1.355 0 0 1-1.36-1.727 2.251 2.251 0 0 1 2.094-1.727 1.355 1.355 0 0 1 1.36 1.727" transform="translate(-989.993 -647.561)" style="fill:#ff5085"/>
                <path data-name="Path 9990" d="M1075.535 702.877a.39.39 0 0 0-.223-.059.38.38 0 0 0-.391.282.553.553 0 0 1 .3-.075c.3 0 .491.2.4.608a.793.793 0 0 1-.767.649c-.516 0-.588-.339-.482-.838.11-.518.384-1.04 1-1.04a.693.693 0 0 1 .411.114zm-.727.631c-.04.187-.063.36.139.36a.242.242 0 0 0 .238-.22c.028-.134-.021-.23-.153-.23a.374.374 0 0 0-.224.09" transform="translate(-1005.347 -657.301)" style="fill:#ffeae7"/>
                <path data-name="Path 9991" d="M980.08 789.8h7.159l-4.089 2.4z" transform="translate(-917.147 -739.088)" style="fill:#c3b2be"/>
                <path data-name="Path 9992" d="m999.5 778.664-.813-1.032h-3.971l-.325 1.527 2.151 1.65 2.852-1.65z" transform="translate(-930.544 -727.699)" style="fill:#fff"/>
                <path data-name="Path 9993" d="M1055.2 778.664h1.032l-1.215.261.4-1.293z" transform="translate(-987.275 -727.699)" style="fill:#f1ebf1"/>
                <path data-name="Path 9994" d="M1017.5 788.5c-.282 0-.415-.2-.355-.483a.584.584 0 0 1 .548-.482.288.288 0 0 1 .214.076l.013-.061h.3l-.119.559c-.019.088 0 .133.082.133.1 0 .188-.125.232-.333.093-.439-.135-.654-.591-.654a.929.929 0 0 0-.909.752.566.566 0 0 0 .626.743 1.1 1.1 0 0 0 .492-.128l.087.21a1.2 1.2 0 0 1-.635.177c-.652 0-1-.4-.874-.992a1.3 1.3 0 0 1 1.272-1.02c.627 0 .933.37.821.9-.079.37-.31.605-.6.605a.259.259 0 0 1-.266-.154.448.448 0 0 1-.337.156m.1-.279a.242.242 0 0 0 .225-.206c.022-.105-.028-.2-.138-.2a.242.242 0 0 0-.224.2c-.025.117.03.206.137.206" transform="translate(-951.305 -736.458)" style="fill:#6445ff"/>
                <path data-name="Rectangle 4690" transform="rotate(-65.92 69.125 -32.543)" style="fill:#f78aab" d="M0 0h2.196v.369H0z"/>
                <path data-name="Rectangle 4691" transform="rotate(-3.074 825.99 -1272.683)" style="fill:#f78aab" d="M0 0h.369v1.526H0z"/>
                <path data-name="Rectangle 4692" transform="rotate(-39.313 97.861 -78.251)" style="fill:#f78aab" d="M0 0h1.77v.369H0z"/>
                <path data-name="Rectangle 4693" transform="rotate(-11.567 259.365 -333.461)" style="fill:#f78aab" d="M0 0h.879v.369H0z"/>
                <path data-name="Rectangle 4694" transform="translate(59.242 88.111)" style="fill:#333" d="M0 0h3.217v1.369H0z"/>
                <path data-name="Path 9995" d="M589.466 1250.615H573.63a2.972 2.972 0 0 1-2.011-.784l-5.219-5.344 4.683-3.677 3.645 3.989a5.3 5.3 0 0 0 2.66 1.435l8.619 2.188a1.025 1.025 0 0 0 .659-.052l2.8-1.207a.508.508 0 0 1 .312-.029l2.5.561a.677.677 0 0 1 .41.278l1.249 1.825a.519.519 0 0 1 .059.472l-.049.132a.324.324 0 0 1-.3.213h-.055a.537.537 0 0 1-.468-.274l-.2-.362-.136.434a.287.287 0 0 1-.274.2h-.11a.3.3 0 0 1-.274-.412.513.513 0 0 0 .039-.144.747.747 0 0 0-1.12-.566c-.358.318-.854 1.123-1.57 1.123" transform="translate(-530.031 -1161.136)" style="fill:#ffa298"/>
                <path data-name="Path 9996" d="m568.53 1246.667 2.558-5.852-4.683 3.677z" transform="translate(-530.031 -1161.136)" style="fill:#ff786e"/>
                <path data-name="Path 9997" d="m362.157 989.6-.263 2.745-6.573-1.284a10.837 10.837 0 0 0 2.15-4.579c-1.762-1.843 5.03.573 5.03.573z" transform="translate(-332.505 -922.487)" style="fill:#ffa298"/>
                <path data-name="Path 9998" d="M357.471 996.581a10.838 10.838 0 0 1-2.15 4.579l2.42.473a12.093 12.093 0 0 0 1.315-4.435" transform="translate(-332.505 -932.589)" style="fill:#ff786e"/>
                <path data-name="Path 9999" d="M495.871 917.188s.429-.545.567-.673-.072-.382-1.918-1.637" transform="translate(-462.766 -856.132)" style="fill:#ffa298"/>
                <path data-name="Path 10000" d="M322.664 848.168s-4.887 1.529-5.557-.894c-2.367-.946-6.112-3.963-4.194-8.143 1.275-2.781 6.509-4.538 8.871-2.349l2.1 2.432.032.977s1.525 2.529 1.949 3.369.368 3.8-.092 3.969-3.109.638-3.109.638" transform="translate(-292.326 -782.129)" style="fill:#ffa298"/>
                <path data-name="Path 10001" d="M359.84 909.4c-.125.195-.189.28-.442.247a1 1 0 0 1-.482-.231 1.852 1.852 0 0 1-.234-.238 4.541 4.541 0 0 1-.621-.95 3 3 0 0 1-.418-1.49l.29-.585a7.207 7.207 0 0 0-2.76 1.829 4.071 4.071 0 0 0-.451.459 3.142 3.142 0 0 0-.236.35 6.385 6.385 0 0 0-.548 1.168 3.876 3.876 0 0 1-.339.992 9.318 9.318 0 0 1-.78.925 8.981 8.981 0 0 0 2.126 1.237 1.182 1.182 0 0 0 1.475 1.257s.152-.793.223-1.353a2.61 2.61 0 0 0 1.13-.94 4.728 4.728 0 0 0 .621-1.348.875.875 0 0 1 .229-.442 1.136 1.136 0 0 1 .62-.149.814.814 0 0 0 .665-.434.6.6 0 0 0-.019-.552c.049.075 0 .173-.048.248" transform="translate(-330.162 -847.97)" style="fill:#ff786e"/>
                <path data-name="Path 10002" d="M454.121 1005.615c-.617.175-2.981.567-3.016.544s-.589-1.46-.821-2.022a11.548 11.548 0 0 0 3 .535" transform="translate(-421.371 -939.658)" style="fill:#ff786e"/>
                <path data-name="Path 10003" d="M386.746 861.39c.142 1.081-.27 2.116.2 3.1a2.626 2.626 0 0 0 1.389 1.033 1.409 1.409 0 0 0 .79-.057 1.743 1.743 0 0 0 .941-.743 1.53 1.53 0 0 0 .032-1.272 2.922 2.922 0 0 1-.043-1.142 2.232 2.232 0 0 0-.284-1.374.336.336 0 0 0-.131-.144.391.391 0 0 0-.22-.012 2.106 2.106 0 0 1-1.1-.139c-.5-.218-.708-.651-1.015-1.064a4.739 4.739 0 0 1-1.174-3.783 1.841 1.841 0 0 0-.387-1.36 8.875 8.875 0 0 0-3.151 2.635 5.4 5.4 0 0 0-1.983 4.563 5.21 5.21 0 0 0 .062 1.285 1.754 1.754 0 0 0 .652 1.078c.993.7 1.936-.3 2.36-1.129a4.065 4.065 0 0 0 .269-3.047 4.066 4.066 0 0 1-.232-.82.894.894 0 0 1 .767-1.007c.54-.052.859.426 1.042.865a1.393 1.393 0 0 0 .293.381 3.886 3.886 0 0 1 .925 2.152" transform="translate(-356.158 -799.569)" style="fill:#00066e"/>
                <path data-name="Path 10004" d="M309.646 802.411a1.393 1.393 0 0 0 .806-.641 1.934 1.934 0 0 0-.682-2.352 1.772 1.772 0 0 0-1.97-.023 6.489 6.489 0 0 0-.65-.508c-1.413-.81-3.479.373-3.9 1.823-.016.055-.072.529-.083.533-1.7.618-3.655 2.147-3.868 4.069-.256 2.312 1.347 4.774 3.055 6.175a4.577 4.577 0 0 0 1.907 1.03 2.1 2.1 0 0 0 2.008-.568 2.947 2.947 0 0 0 .3-2.61 5.1 5.1 0 0 1-.232-2.685 5.985 5.985 0 0 1 1.976-2.284 5.026 5.026 0 0 0 .991-1.255c.31-.546-.3-.585.339-.7" transform="translate(-280.057 -747.342)" style="fill:#00066e"/>
                <path data-name="Path 10005" d="M438.084 916.836c-.833-1.122-.63-1.546-.5-1.677a.436.436 0 0 1 .573 0 .778.778 0 0 1 .235.509l-.263.014a.526.526 0 0 0-.138-.319c-.076-.049-.172-.062-.216-.016-.091.094-.1.5.526 1.336z" transform="translate(-409.373 -856.293)" style="fill:#ff786e"/>
                <path data-name="Path 10006" d="m667.678 1647.9 3.743 11.266h-5.4l-6-11.266" transform="translate(-617.645 -1542.081)" style="fill:#00066e"/>
                <path data-name="Path 10007" d="M221.2 1490.47a2.1 2.1 0 0 1-.966-.572 1.258 1.258 0 0 1-.177-.3 2.07 2.07 0 0 1-.37-.344 8.7 8.7 0 0 1-1.468-4.116 15.554 15.554 0 0 1-.159-3.92c.014-.09.027-.184.04-.281.064-.454.194-1.378.462-1.56a1.02 1.02 0 0 1 .073-.173c.152-.281.442-.486.6-.75-.535.143-1.027.285-1.461.427-.855.278-1.016.874-1.153 1.849l-.038.265a16.829 16.829 0 0 0 .16 4.369 10.318 10.318 0 0 0 1.811 4.862c.622.723 2 .549 2.832.549h.26a.515.515 0 0 0-.036-.06.818.818 0 0 0-.413-.247" transform="translate(-202.607 -1383.524)" style="fill:#f689aa"/>
                <path data-name="Path 10008" d="M266.25 1440.038c-.733-1.175-1.937-.746-2.3-.784-1.211-.13-9.835 1.158-14.775 2.475-.162.264-.452.469-.6.75a1.032 1.032 0 0 0-.072.173.2.2 0 0 1 .036-.02c3.992-1.631 13.183-2.551 14.989-2.551.1 0 .176 0 .229.008a1.689 1.689 0 0 1 1.234.738 2.774 2.774 0 0 1-.043 2.379 275.472 275.472 0 0 0-1.681 4.828c-.519 1.52-1.01 2.956-1.155 3.283-.55 1.234-.8 1.8-4.4 1.8h-6.984a1.237 1.237 0 0 1-.73-.243 1.261 1.261 0 0 0 .177.3 2.1 2.1 0 0 0 .966.572.816.816 0 0 1 .413.247.486.486 0 0 1 .037.06l6.149-.053a10.552 10.552 0 0 0 4.229-.513 2.484 2.484 0 0 0 1.5-1.558c.165-.371.546-1.479 1.2-3.408a276.973 276.973 0 0 1 1.671-4.8 4.063 4.063 0 0 0-.094-3.678" transform="translate(-232.541 -1346.794)" style="fill:#333"/>
                <path data-name="Path 10009" d="M249.449 1452.913h-6.984a2.366 2.366 0 0 1-1.825-.92c-1.757-2.044-2.1-7.16-1.848-8.8l.039-.271c.126-.893.282-2.005 1.083-2.332 4.439-1.813 14.606-2.722 15.68-2.608a2.664 2.664 0 0 1 1.944 1.182 3.607 3.607 0 0 1 .045 3.213 278.247 278.247 0 0 0-1.675 4.809c-.572 1.674-1.024 3-1.187 3.364-.749 1.681-1.435 2.365-5.272 2.365m5.866-14.522c-1.842 0-11.189.932-15.242 2.588-.577.235-.714 1.214-.825 2l-.04.276c-.24 1.586.076 6.516 1.751 8.464a1.963 1.963 0 0 0 1.506.773h6.984c3.785 0 4.234-.648 4.887-2.115.156-.349.627-1.73 1.173-3.328.539-1.577 1.149-3.364 1.677-4.817a3.22 3.22 0 0 0-.006-2.845 2.234 2.234 0 0 0-1.631-.987 2.292 2.292 0 0 0-.234-.009" transform="translate(-223.391 -1345.635)" style="fill:#cfc6ce"/>
                <path data-name="Path 10010" d="M456.938 1489.245s17.6 3.033 19.554 3.391 4.467 2.742 2.377 6.2-8.017 11.862-8.017 11.862h-6.221l5.867-10.491h-25.514l5.392-8.526z" transform="translate(-416.411 -1393.618)" style="fill:#00066e"/>
                <path data-name="Rectangle 4695" transform="translate(32.751 106.266)" style="fill:#333" d="M0 0h16.483v1.008H0z"/>
                <path data-name="Path 10011" d="m345.008 1667.393 1.461 1.461h17.677l1.452-1.452" transform="translate(-322.855 -1560.326)" style="fill:#333"/>
                <path data-name="Path 10012" d="M247.781 1061.941a14.3 14.3 0 0 1 4.976.684l5.806 2.471a5.118 5.118 0 0 1 1.575 1.051l6.34 7.142-5.2 4.531-1.538-1.314s-.319 8.4 5.465 12.868c-5.846 3.033-9.908 10.187-9.908 10.187l-12.743-3.16s1.49-12.043.358-14.01-4.649-11.931-1.61-15.56c2.965-3.541 5.2-4.889 6.48-4.889" transform="translate(-224.677 -993.745)" style="fill:#2030e0"/>
                <path data-name="Path 10013" d="M199.44 1246.14c-2.431-1.173-5.488-3.765-3.886-11.3.488-2.295-.168-3.666-1-6.468s-3.48-11.139-3.48-11.139l-15.262 1.124s2.355 7.214 3.19 10.016 1.49 4.173 1 6.468c-1.6 7.533 1.456 10.125 3.886 11.3z" transform="translate(-164.521 -1139.073)" style="fill:#c3b2be"/>
                <path data-name="Path 10014" d="M162.457 1205.076a.984.984 0 1 1-.984-.984.984.984 0 0 1 .984.984" transform="translate(-150.185 -1126.775)" style="fill:#f1ebf1"/>
                <path data-name="Rectangle 4696" transform="translate(11.289 77.317)" style="fill:#f1ebf1" d="M0 0h14.288v1.967H0z"/>
                <path data-name="Path 10015" d="M384.969 1205.076a.984.984 0 1 1-.984-.984.984.984 0 0 1 .984.984" transform="translate(-358.409 -1126.775)" style="fill:#cfc6ce"/>
                <path data-name="Rectangle 4697" transform="translate(18.522 95.584)" style="fill:#d3c6cf" d="M0 0h6.071v.369H0z"/>
                <path data-name="Path 10016" d="m448.554 794.452-.054-.365a1.625 1.625 0 0 0 1.133-1.15 1.708 1.708 0 0 0-.323-1.5 2.166 2.166 0 0 0-1.62-.929v-.369a2.509 2.509 0 0 1 1.914 1.081 2.071 2.071 0 0 1 .377 1.823 1.983 1.983 0 0 1-1.432 1.406" transform="translate(-418.943 -739.405)" style="fill:#00066e"/>
                <path data-name="Path 10017" d="m290.7 836.511-.323-.179a5.749 5.749 0 0 1 4.975-2.914v.369a5.381 5.381 0 0 0-4.657 2.725" transform="translate(-271.731 -779.902)" style="fill:#00066e"/>
                <path data-name="Path 10018" d="M467.956 1490.47a2.1 2.1 0 0 1-.966-.572 1.259 1.259 0 0 1-.177-.3 2.068 2.068 0 0 1-.37-.344 8.7 8.7 0 0 1-1.468-4.116 15.561 15.561 0 0 1-.159-3.92c.014-.09.027-.184.04-.281.064-.454.194-1.378.462-1.56a1.024 1.024 0 0 1 .072-.173c.152-.281.443-.486.6-.75-.535.143-1.027.285-1.461.427-.855.278-1.016.874-1.153 1.849l-.038.265a16.832 16.832 0 0 0 .16 4.369 10.317 10.317 0 0 0 1.812 4.862c.622.723 2 .549 2.832.549h.26a.507.507 0 0 0-.036-.06.818.818 0 0 0-.413-.247" transform="translate(-433.517 -1383.524)" style="fill:#f689aa"/>
                <path data-name="Path 10019" d="M513 1440.038c-.733-1.175-1.937-.746-2.3-.784-1.211-.13-9.835 1.158-14.775 2.475-.162.264-.453.469-.6.75a1.033 1.033 0 0 0-.072.173.2.2 0 0 1 .036-.02c3.992-1.631 13.183-2.551 14.989-2.551.1 0 .176 0 .229.008a1.689 1.689 0 0 1 1.234.738 2.774 2.774 0 0 1-.043 2.379 275.472 275.472 0 0 0-1.681 4.828c-.519 1.52-1.01 2.956-1.155 3.283-.55 1.234-.8 1.8-4.4 1.8h-6.984a1.237 1.237 0 0 1-.73-.243 1.262 1.262 0 0 0 .177.3 2.1 2.1 0 0 0 .966.572.816.816 0 0 1 .413.247.489.489 0 0 1 .037.06l6.149-.053a10.552 10.552 0 0 0 4.229-.513 2.484 2.484 0 0 0 1.5-1.558c.165-.371.546-1.479 1.2-3.408a276.973 276.973 0 0 1 1.671-4.8 4.063 4.063 0 0 0-.094-3.678" transform="translate(-463.451 -1346.794)" style="fill:#333"/>
                <path data-name="Path 10020" d="M496.2 1452.913h-6.984a2.366 2.366 0 0 1-1.825-.92c-1.757-2.044-2.1-7.16-1.848-8.8l.039-.271c.126-.894.282-2.005 1.083-2.333 4.439-1.813 14.605-2.722 15.68-2.608a2.664 2.664 0 0 1 1.944 1.183 3.607 3.607 0 0 1 .045 3.213 275.674 275.674 0 0 0-1.675 4.811c-.572 1.674-1.023 3-1.186 3.362-.749 1.681-1.435 2.365-5.272 2.365m5.866-14.522c-1.842 0-11.189.932-15.242 2.588-.577.235-.714 1.214-.825 2l-.04.275c-.24 1.586.076 6.516 1.751 8.464a1.963 1.963 0 0 0 1.506.773h6.983c3.785 0 4.234-.648 4.887-2.115.156-.349.627-1.729 1.173-3.327.539-1.577 1.149-3.365 1.678-4.818a3.22 3.22 0 0 0-.006-2.845 2.234 2.234 0 0 0-1.631-.987 2.292 2.292 0 0 0-.234-.009" transform="translate(-454.3 -1345.635)" style="fill:#cfc6ce"/>
                <path data-name="Path 10021" d="m1157.03 1306.4.776-5.3a.4.4 0 0 0-.393-.454h-4.748a.4.4 0 0 0-.393.454l.777 5.3a.248.248 0 0 0 .245.212h3.489a.248.248 0 0 0 .245-.212" transform="translate(-1078.28 -1217.134)" style="fill:#5d47ff"/>
                <path data-name="Path 10022" d="M1221.993 1310.966v-.422c.665 0 1.67-1.116 1.749-2.214a.617.617 0 0 0-.293-.613 1.141 1.141 0 0 0-1.088 0l-.214-.363a1.551 1.551 0 0 1 1.525.009 1.036 1.036 0 0 1 .492 1c-.1 1.342-1.3 2.605-2.169 2.605" transform="translate(-1143.526 -1223.218)" style="fill:#5d47ff"/>
                <path data-name="Path 10023" d="M1217.888 1311.183v-.422c.627 0 1.554-1.136 1.609-2.254a.663.663 0 0 0-.3-.663.946.946 0 0 0-.957.113l-.237-.349a1.355 1.355 0 0 1 1.4-.132 1.07 1.07 0 0 1 .51 1.052c-.063 1.291-1.107 2.655-2.031 2.655" transform="translate(-1139.685 -1223.391)" style="fill:#5d47ff"/>
                <path data-name="Rectangle 4698" transform="translate(31.111 108.527)" style="fill:#333" d="M0 0h2.43v8.553H0z"/>
                <path data-name="Path 10024" d="M465.083 1681.608h-5.649a2.825 2.825 0 0 0 5.649 0" transform="translate(-429.933 -1573.629)" style="fill:#333"/>
                <path data-name="Rectangle 4699" transform="rotate(-42.426 120.494 -2.098)" style="fill:#00066e" d="M0 0h.369v2.904H0z"/>
                <path data-name="Path 10025" d="M1046.578 1263.958h-5.042l1.149-5.406h5.043z" transform="translate(-974.657 -1177.738)" style="fill:#ffc842"/>
                <path data-name="Rectangle 4700" transform="translate(68.447 81.604)" style="fill:#ff8793" d="M0 0h2.146v.369H0z"/>
                <path data-name="Rectangle 4701" transform="translate(68.244 82.558)" style="fill:#ff8793" d="M0 0h3.109v.369H0z"/>
                <path data-name="Rectangle 4702" transform="translate(67.814 84.585)" style="fill:#ff8793" d="M0 0h2.524v.369H0z"/>
                <path data-name="Rectangle 4703" transform="translate(68.042 83.512)" style="fill:#ff8793" d="M0 0h.874v.369H0z"/>
                <path data-name="Rectangle 4704" transform="translate(69.314 83.512)" style="fill:#ff8793" d="M0 0h2.504v.369H0z"/>
                <path data-name="Rectangle 4705" transform="translate(71.109 81.604)" style="fill:#ff8793" d="M0 0h.894v.369H0z"/>
                <path data-name="Path 10026" d="M648.9 841.123h-12.171a.4.4 0 0 1-.4-.511l1.725-8.113a.666.666 0 0 1 .619-.511h12.171a.4.4 0 0 1 .4.511l-1.725 8.113a.666.666 0 0 1-.619.511" transform="translate(-595.456 -778.564)" style="fill:#f1ebf1"/>
                <path data-name="Path 10027" d="M667.7 850.421h-11.512l1.224-5.757h11.511z" transform="translate(-614.052 -790.427)" style="fill:#fff"/>
                <path data-name="Path 10028" d="M688.982 861.108a1 1 0 0 1-1-1.267 1.654 1.654 0 0 1 1.537-1.267 1 1 0 0 1 1 1.267 1.654 1.654 0 0 1-1.537 1.267m.458-2.153a1.156 1.156 0 0 0-1.074.886.7.7 0 0 0 .7.886 1.156 1.156 0 0 0 1.074-.886.7.7 0 0 0-.7-.886" transform="translate(-643.78 -803.442)" style="fill:#cfc6ce"/>
                <path data-name="Path 10029" d="m703.49 859.258.139-.654a.978.978 0 0 0 .909-.75.589.589 0 0 0-.59-.75l.139-.654a1.1 1.1 0 0 1 1.105 1.4 1.832 1.832 0 0 1-1.7 1.4" transform="translate(-658.317 -801.456)" style="fill:#ffc842"/>
                <path data-name="Path 10030" d="M742.279 861.108a.981.981 0 0 1-.948-.6 1.138 1.138 0 0 1-.05-.672 1.654 1.654 0 0 1 1.537-1.267 1 1 0 0 1 1 1.267 1.654 1.654 0 0 1-1.537 1.267m.458-2.153a1.156 1.156 0 0 0-1.074.886.791.791 0 0 0 .035.469.686.686 0 0 0 .663.417 1.156 1.156 0 0 0 1.074-.886.7.7 0 0 0-.7-.886" transform="translate(-693.655 -803.442)" style="fill:#cfc6ce"/>
                <path data-name="Path 10031" d="M739.171 858.6a1.257 1.257 0 0 1-.055-.744 1.832 1.832 0 0 1 1.7-1.4l-.139.654a.978.978 0 0 0-.909.75.671.671 0 0 0 .029.4z" transform="translate(-691.626 -801.458)" style="fill:#ff5085"/>
                <path data-name="Path 10032" d="M795.576 861.108a1 1 0 0 1-1-1.267 1.654 1.654 0 0 1 1.537-1.267 1 1 0 0 1 1 1.267 1.654 1.654 0 0 1-1.537 1.267m.458-2.153a1.156 1.156 0 0 0-1.074.886.7.7 0 0 0 .7.886 1.156 1.156 0 0 0 1.074-.886.7.7 0 0 0-.7-.886" transform="translate(-743.53 -803.442)" style="fill:#cfc6ce"/>
                <path data-name="Path 10033" d="m817.849 858.834-.372-.456a.953.953 0 0 0 .324-.523.589.589 0 0 0-.59-.75l.139-.654a1.1 1.1 0 0 1 1.105 1.4 1.785 1.785 0 0 1-.606.979" transform="translate(-764.736 -801.458)" style="fill:#947fff"/>
                <path data-name="Path 10034" d="M659.543 945.159a.663.663 0 0 1-.617.508.4.4 0 0 1-.4-.508.663.663 0 0 1 .617-.508.4.4 0 0 1 .4.508" transform="translate(-616.23 -883.993)" style="fill:#ffc842"/>
                <path data-name="Path 10035" d="M678.357 949.738h-1.145l.089-.417h1.145z" transform="translate(-633.727 -888.363)" style="fill:#cfc6ce"/>
                <path data-name="Path 10036" d="M713.943 945.159a.663.663 0 0 1-.617.508.4.4 0 0 1-.4-.508.662.662 0 0 1 .617-.508.4.4 0 0 1 .4.508" transform="translate(-667.137 -883.993)" style="fill:#ff5085"/>
                <path data-name="Path 10037" d="M732.758 949.738h-1.145l.089-.417h1.145z" transform="translate(-684.634 -888.363)" style="fill:#cfc6ce"/>
                <path data-name="Path 10038" d="M765.955 945.159a.663.663 0 0 1-.617.508.4.4 0 0 1-.4-.508.663.663 0 0 1 .617-.508.4.4 0 0 1 .4.508" transform="translate(-715.809 -883.993)" style="fill:#947fff"/>
                <path data-name="Path 10039" d="M784.769 949.738h-1.145l.089-.417h1.145z" transform="translate(-733.306 -888.363)" style="fill:#cfc6ce"/>
                <path data-name="Path 10040" d="M676.328 907h-8.352l.081-.381h8.352z" transform="translate(-625.084 -848.405)" style="fill:#cfc6ce"/>
                <path data-name="Path 10041" d="M671.338 920.218h-6.172l.081-.381h6.172z" transform="translate(-622.454 -860.772)" style="fill:#cfc6ce"/>
                <path data-name="Path 10042" d="M808.308 907H806.7l.081-.381h1.606z" transform="translate(-754.902 -848.405)" style="fill:#cfc6ce"/>
                <path data-name="Path 10043" d="M638.884 1093.853h-2.545a1.374 1.374 0 0 1-1.378-1.75l.541-2.545a2.281 2.281 0 0 1 2.122-1.75h2.545a1.374 1.374 0 0 1 1.378 1.75l-.541 2.545a2.281 2.281 0 0 1-2.122 1.75" transform="translate(-594.152 -1017.958)" style="fill:#ffc842"/>
                <path data-name="Path 10044" d="M659.781 1106.946a1.916 1.916 0 0 0 .124-.379 1.673 1.673 0 0 0 .037-.379l-.472-.046a1.233 1.233 0 0 0-.056-.279l.387-.373a1.255 1.255 0 0 0-.174-.3 1.22 1.22 0 0 0-.248-.237l-.438.308a1.173 1.173 0 0 0-.254-.115l.057-.481a1.563 1.563 0 0 0-.369-.043 1.8 1.8 0 0 0-.388.043l-.148.481a1.836 1.836 0 0 0-.3.115l-.307-.308a2.263 2.263 0 0 0-.349.237 2.3 2.3 0 0 0-.3.3l.229.373a1.91 1.91 0 0 0-.175.279l-.491.046a1.907 1.907 0 0 0-.124.379 1.664 1.664 0 0 0-.037.379l.472.046a1.239 1.239 0 0 0 .056.279l-.387.373a1.252 1.252 0 0 0 .174.3 1.222 1.222 0 0 0 .248.237l.438-.308a1.159 1.159 0 0 0 .254.115l-.057.481a1.57 1.57 0 0 0 .37.043 1.811 1.811 0 0 0 .388-.043l.148-.481a1.817 1.817 0 0 0 .3-.115l.307.308a2.262 2.262 0 0 0 .349-.237 2.3 2.3 0 0 0 .3-.3l-.229-.373a1.905 1.905 0 0 0 .175-.279zm-1.985.4a.613.613 0 0 1-.615-.781 1.018 1.018 0 0 1 .947-.781.613.613 0 0 1 .615.781 1.018 1.018 0 0 1-.947.781" transform="translate(-613.86 -1033.695)" style="fill:#fff"/>
                <path data-name="Path 10045" d="M763.353 684.442a5.049 5.049 0 0 1-4.7 3.874 3.041 3.041 0 0 1-3.051-3.874 5.049 5.049 0 0 1 4.7-3.874 3.041 3.041 0 0 1 3.051 3.874" transform="translate(-707.004 -636.867)" style="fill:#ffd0c3"/>
                <path data-name="Path 10046" d="m782.2 719.556-1.356-1.722.818-.674.825 1.048 2.647-2.183.531.674z" transform="translate(-730.708 -670.047)" style="fill:#6445ff"/>
                <path data-name="Path 10047" d="m1024.064 1104.331.756 1.17a1.866 1.866 0 0 1-1.084.373 1.211 1.211 0 0 1-1.214-1.542 2.01 2.01 0 0 1 1.87-1.542l-.328 1.542" transform="translate(-956.831 -1031.977)" style="fill:#ffb9cd"/>
                <path data-name="Path 10048" d="M1055.04 1101.929a1.99 1.99 0 0 1-.786 1.17l-.756-1.17.328-1.542a1.21 1.21 0 0 1 1.214 1.542" transform="translate(-985.851 -1029.729)" style="fill:#ff5085"/>
                <path data-name="Path 10049" d="M1018.236 1161.4h-3.409l.089-.417h3.409z" transform="translate(-949.663 -1086.434)" style="fill:#d3c6cf"/>
                <path data-name="Path 10050" d="M1025.385 1175.191h-1.924l.089-.417h1.924z" transform="translate(-957.743 -1099.339)" style="fill:#d3c6cf"/>
                <path data-name="Path 10051" d="m1180.92 1086.059.445 1.478h.875l-1.19.418z" transform="translate(-1105.091 -1016.321)" style="fill:#f0ebf1"/>
                <path data-name="Path 10052" d="M1127.991 1099.958h-3.159l.089-.417h3.159z" transform="translate(-1052.604 -1028.937)" style="fill:#f0ebf1"/>
                <path data-name="Path 10053" d="M1123.919 1115.571h-2.406l.089-.417h2.406z" transform="translate(-1049.498 -1043.547)" style="fill:#f0ebf1"/>
                <path data-name="Path 10054" d="M1165.781 1115.571h-.944l.089-.417h.944z" transform="translate(-1090.041 -1043.547)" style="fill:#f0ebf1"/>
                <path data-name="Path 10055" d="M1118.9 1131.184h-.71l.089-.417h.71z" transform="translate(-1046.392 -1058.158)" style="fill:#f0ebf1"/>
                <path data-name="Path 10056" d="M1135.311 1131.184h-2.321l.089-.417h2.321z" transform="translate(-1060.239 -1058.158)" style="fill:#f0ebf1"/>
                <path data-name="Path 10057" d="M1118.718 1146.8h-3.843l.089-.417h3.843z" transform="translate(-1043.286 -1072.77)" style="fill:#f0ebf1"/>
                <path data-name="Path 10058" d="M1113.064 1162.412h-1.507l.089-.417h1.507z" transform="translate(-1040.182 -1087.381)" style="fill:#f0ebf1"/>
                <path data-name="Path 10059" d="M1141.155 1162.412h-2.418l.089-.417h2.418z" transform="translate(-1065.616 -1087.381)" style="fill:#f0ebf1"/>
                <path data-name="Path 10060" d="M1111.025 1178.026h-2.787l.089-.417h2.787z" transform="translate(-1037.076 -1101.992)" style="fill:#f0ebf1"/>
                <path data-name="Path 10061" d="M2079.5 1161.564a30.092 30.092 0 0 0 2.638-12.294c.715-5.088 3.189-16.3 3.859-19.3a.85.85 0 0 1 1.678.145l1.3 13.626a33.27 33.27 0 0 1 .077 5.057 50.877 50.877 0 0 0 1.023 12.762h6.96c.006-3.76-.278-9.8-.44-12.924a26.187 26.187 0 0 1 .1-4.053c.545-5.274 1.927-19.186 1.58-21.542a30.03 30.03 0 0 0-1.8-6.89h-17.576l-.825 2.472a39.264 39.264 0 0 0-1.789 8.161l-2.275 20.73-1.873 14.047z" transform="translate(-1939.093 -1044.484)" style="fill:#00066e"/>
                <path data-name="Path 10062" d="M2274.353 592.546a9.308 9.308 0 0 0 .5-3.372 25.43 25.43 0 0 0 4.831-1.1c.186.694-.016 3.035.653 3.9" transform="translate(-2128.312 -550.317)" style="fill:#ffa298"/>
                <path data-name="Path 10063" d="M2276.266 604.518a16.957 16.957 0 0 1 .157-3.452c-.577.1-1.124.192-1.565.261a9.307 9.307 0 0 1-.5 3.372z" transform="translate(-2128.312 -562.47)" style="fill:#ff786e"/>
                <path data-name="Path 10064" d="M1952.158 658.752c.369 3.6-.231 13.7-.231 13.7-.553 2.121.138 2.26.784 3.09h17.576a4.11 4.11 0 0 0 .688-2.906 48.361 48.361 0 0 1-.7-5.786 13.708 13.708 0 0 1 .176-3.56l.831-4.908 7.788 2.943c1.2.516 3.249-.378 2.945-1.94l-.513-3.616-4.871-3.1-4.693-3.923a3.871 3.871 0 0 0-1.818-.844l-4.228-.737-.984-1.63a21.865 21.865 0 0 0-6.18 0l-1.168 1.507-8.517 3.229-11.506 8.111a.616.616 0 0 0-.034.981l4.352 3.546c.342.313 1.339.244 1.116-.45z" transform="translate(-1812.883 -603.868)" style="fill:#fff"/>
                <path data-name="Path 10065" d="M1908.705 875.788s-8.917-3.444-11.746-4.674-2.921-4.151-1.176-5.49a18.254 18.254 0 0 0 1.8-1.5l4.354 3.548s5.642 5.212 6.765 5.442c1.86 0 2.82-.095 3.493.276a1.636 1.636 0 0 1 1.088 1.615c.036.752.155 2.256.207 3.063a.573.573 0 0 1-.487.606 5 5 0 0 1-2.194-.765c-1.183-.571-.062-1.382-.062-1.382a1.8 1.8 0 0 1-2.045-.738" transform="translate(-1772.965 -808.636)" style="fill:#ffa298"/>
                <path data-name="Path 10066" d="m1931.6 867.671-4.354-3.548a11.675 11.675 0 0 1-.928.812z" transform="translate(-1802.62 -808.636)" style="fill:#ff786e"/>
                <path data-name="Path 10067" d="M2200.377 1081.093a17.962 17.962 0 0 1-3.252-.4l-.562-.1a8.545 8.545 0 0 0-5.018.2l-.152-.336a8.85 8.85 0 0 1 5.235-.229l.564.1a12.119 12.119 0 0 0 4.533.269l.072.362a7.211 7.211 0 0 1-1.42.133" transform="translate(-2050.679 -1010.6)" style="fill:#c2c2c2"/>
                <path data-name="Path 10068" d="M2444.475 1182.1a13.193 13.193 0 0 0-1.453-3.786l.322-.179a13.18 13.18 0 0 1 1.5 3.941z" transform="translate(-2286.15 -1102.484)" style="fill:#2030e0"/>
                <path data-name="Path 10069" d="m2545.287 539.181 1.04-8.6c-.646-.83-2.122-2.583-1.43-3.505l1.639-.632c-.277-.871-.573-2.43.354-2.554.6-.081.846 1.2.846 1.2 1.776.277 2.4-.023 2.956 2.032a1.467 1.467 0 0 1 .063.381v1.419a1.5 1.5 0 0 1-.36.975l-1.56 1.827 1.1 10.424z" transform="translate(-2381.314 -490.245)" style="fill:#ffa298"/>
                <path data-name="Path 10070" d="M2531.147 554.025a.735.735 0 0 1-.118-.009l-2.037-.329a.738.738 0 0 1 .235-1.457l2.037.329a.738.738 0 0 1-.116 1.467" transform="translate(-2366.019 -516.761)" style="fill:#2030e0"/>
                <path data-name="Path 10071" d="M2233.945 436.447a5.323 5.323 0 0 0-1 .805 34.218 34.218 0 0 0-1.652 1.855 12.357 12.357 0 0 0-1.736 2.578 5.735 5.735 0 0 0-.168 3.657 2.73 2.73 0 0 0 1.748 1.4 7.85 7.85 0 0 0 3.257.547 3.9 3.9 0 0 0 2.405-.681c.4.288 1.767-1.02 1.991-1.747.3-.961-.247-1.858-.517-2.76-.576-1.922-1.873-4.4-.787-6.416a5.242 5.242 0 0 0-3.539.761" transform="translate(-2086.026 -407.657)" style="fill:#ffa298"/>
                <path data-name="Path 10072" d="M2231.619 569.38a3.83 3.83 0 0 1-2.207-1.109c-.013-.017-.022-.036-.034-.053a4.464 4.464 0 0 0 .208 1.2 2.73 2.73 0 0 0 1.748 1.4 7.857 7.857 0 0 0 2.877.593 16.747 16.747 0 0 1 .26-1.909 12.2 12.2 0 0 1-2.853-.122" transform="translate(-2086.226 -531.733)" style="fill:#ff786e"/>
                <path data-name="Path 10073" d="M2299.357 586.422c0-.272.245-.474.478-.615a6.509 6.509 0 0 1 .97-.486 2.633 2.633 0 0 1 .541-.164 2.784 2.784 0 0 1 1.769.448.484.484 0 0 1 .214.186.493.493 0 0 1 .032.24 1.453 1.453 0 0 1-.15.714.99.99 0 0 1-.713.424 2.935 2.935 0 0 1-.853-.042c0-.019-.795-.118-.87-.129a1.542 1.542 0 0 0-.793-.015.561.561 0 0 0-.3.483" transform="translate(-2151.71 -547.56)" style="fill:#ff786e"/>
                <path data-name="Path 10074" d="M1988 857a26.937 26.937 0 0 0-2.424-3.652l.292-.226a26.623 26.623 0 0 1 2.471 3.731z" transform="translate(-1858.081 -798.34)" style="fill:#c2c2c2"/>
                <path data-name="Path 10075" d="M2015.222 866.281h-.369a10.072 10.072 0 0 0-.566-3.034l.346-.129a10.287 10.287 0 0 1 .589 3.163" transform="translate(-1884.946 -807.696)" style="fill:#c2c2c2"/>
                <path data-name="Rectangle 4706" transform="translate(139.09 51.838)" style="fill:#c2c2c2" d="M0 0h.369v2.675H0z"/>
                <path data-name="Path 10076" d="M2284.423 815.182h-.369a8.472 8.472 0 0 1 1.768-4.4 19.857 19.857 0 0 0 1.1-1.871 9.005 9.005 0 0 0 .9-4.623l.368-.027a9.379 9.379 0 0 1-.935 4.813 20.211 20.211 0 0 1-1.12 1.907 8.082 8.082 0 0 0-1.71 4.2" transform="translate(-2137.39 -752.616)" style="fill:#c2c2c2"/>
                <path data-name="Path 10077" d="m2309.982 913.592-.36-.084a6.036 6.036 0 0 1 1.433-2.714l.271.249a5.666 5.666 0 0 0-1.345 2.549" transform="translate(-2161.316 -852.31)" style="fill:#c2c2c2"/>
                <path data-name="Path 10078" d="M2426.958 814.4c-2.154-.925-2.26-2.269-2.264-2.326l.368-.024c0 .048.112 1.183 2.041 2.011z" transform="translate(-2269 -759.905)" style="fill:#c2c2c2"/>
                <path data-name="Path 10079" d="M2241.981 478.3a10.556 10.556 0 0 1-1.932.837 1.135 1.135 0 0 0-.5.255c-.441.468.429 1.243.8 1.437" transform="translate(-2095.625 -447.587)" style="fill:#ffa298"/>
                <path data-name="Path 10080" d="M2261.789 558.71a1.4 1.4 0 0 0 1.681-1.714c.254-.112.49-.263.655-.04a1.868 1.868 0 0 1 .274.779 4.56 4.56 0 0 1 .115 1.572.437.437 0 0 1-.1.249.481.481 0 0 1-.22.1 3.919 3.919 0 0 1-1.263.2 4.392 4.392 0 0 1-1.191-.322" transform="translate(-2116.505 -521.085)" style="fill:#ff786e"/>
                <path data-name="Path 10081" d="M2287.546 411.448a2.647 2.647 0 0 1 .134 1.981 4.266 4.266 0 0 0-.516.9.477.477 0 0 0 .019.3c.1.219.388.265.629.266a.843.843 0 0 1 .672.187.549.549 0 0 1 .032.57 2.633 2.633 0 0 1-.35.489 2.573 2.573 0 0 0-.106 3.039 3.41 3.41 0 0 0 .656.633 3.326 3.326 0 0 0 2.071.759 7.986 7.986 0 0 1 1.02.127c.1-1.265 1.9-1.982 3.211-2.339a3.639 3.639 0 0 0 2.394-2.367c.37-1.061 1-2.482.162-3.558.325-4.068-5.429-5.676-8.644-5.111a2.08 2.08 0 0 0-.688.219c-1.172.676-1.052 2.826-.7 3.9" transform="translate(-2140.286 -381.071)" style="fill:#00066e"/>
                <path data-name="Path 10082" d="M2288.022 522.277c.169-.685.941-.7 1.477-.49.713.274.348 1.1-.033 1.493a8.933 8.933 0 0 1-.781.645 1.408 1.408 0 0 1-.53.328.414.414 0 0 1-.507-.25" transform="translate(-2140.752 -488.172)" style="fill:#ffa298"/>
                <path data-name="Path 10083" d="M2558.256 765.4a.887.887 0 0 0-.133-1.564c-1.083-.566-4.521-1.738-4.521-1.738l1.794 2.81z" transform="translate(-2389.63 -713.164)" style="fill:#fff"/>
                <path data-name="Rectangle 4707" transform="rotate(-54.227 131.1 -135.897)" style="fill:#c2c2c2" d="M0 0h.369v4.094H0z"/>
                <path data-name="Path 10084" d="m2298.774 529.136-.207-.154a5.232 5.232 0 0 1 .664-.576.746.746 0 0 0 .252-.254.21.21 0 0 0-.024-.236.237.237 0 0 0-.088-.04.852.852 0 0 0-.633.141l-.134-.221a1.1 1.1 0 0 1 .834-.169.477.477 0 0 1 .186.09.46.46 0 0 1 .092.547.967.967 0 0 1-.335.353 5.356 5.356 0 0 0-.607.52" transform="translate(-2150.971 -493.72)" style="fill:#ff786e"/>
                <path data-name="Path 10085" d="M2265.354 663.639a13.341 13.341 0 0 0-6.139-.11l-.1-.355a13.715 13.715 0 0 1 6.325.105z" transform="translate(-2114.051 -620.291)" style="fill:#c2c2c2"/>
                <path data-name="Path 10086" d="m2812.023 1498.912 3.649-11.286c-2.841-.269-4.877.349-6.689 2.761a21.41 21.41 0 0 0-2.617 5.289l-2.23 5.8-2.351 7.652h6.337l1.753-3.57-.895 3.57h6.272l4.944-11.927s1.651-.966 3.188-1.656z" transform="translate(-2621.876 -1392.048)" style="fill:#ffa298"/>
                <path data-name="Path 10087" d="m3138.158 1601.88 2.275-.674a5.681 5.681 0 0 0-2.275.674" transform="translate(-2936.65 -1498.382)" style="fill:#ffa298"/>
                <path data-name="Path 10088" d="m2812.023 1498.912 3.649-11.286c-2.841-.269-4.877.349-6.689 2.761a21.41 21.41 0 0 0-2.617 5.289l-2.23 5.8-2.351 7.652h6.337l1.753-3.57-.895 3.57h6.272l4.944-11.927s1.651-.966 3.188-1.656z" transform="translate(-2621.876 -1392.048)" style="fill:#ff786e"/>
                <path data-name="Path 10089" d="m2803.767 1722.816-1.983 6.455h4.391l.861-2.639a7.552 7.552 0 0 1-3.269-3.816" transform="translate(-2621.875 -1612.191)" style="fill:#ffa298"/>
                <path data-name="Path 10090" d="m2914.731 1757.95-.894 3.57h3.451l.424-2.7a20.041 20.041 0 0 1-2.813-1.541z" transform="translate(-2726.733 -1644.439)" style="fill:#ffa298"/>
                <path data-name="Path 10091" d="M3163.892 1212.259c2.431-1.172 5.489-3.765 3.886-11.3-.488-2.3.168-3.666 1-6.468s3.48-11.139 3.48-11.139l15.261 1.124s-2.355 7.214-3.189 10.016-1.49 4.173-1 6.468c1.6 7.533-1.456 10.125-3.886 11.3z" transform="translate(-2960.732 -1107.368)" style="fill:#c3b2be"/>
                <path data-name="Rectangle 4708" transform="translate(212.502 75.142)" style="fill:#f1ebf1" d="M0 0h14.288v1.967H0z"/>
                <path data-name="Path 10092" d="M3294.059 1171.195a.984.984 0 1 0 .983-.984.984.984 0 0 0-.983.984" transform="translate(-3082.541 -1095.07)" style="fill:#cfc6ce"/>
                <path data-name="Rectangle 4709" transform="translate(213.486 93.408)" style="fill:#d3c6cf" d="M0 0h6.071v.369H0z"/>
                <path data-name="Rectangle 4710" transform="translate(188.846 104.09)" style="fill:#333" d="M0 0h16.483v1.008H0z"/>
                <path data-name="Path 10093" d="m3062.631 1633.512-1.46 1.461h-17.677l-1.452-1.452" transform="translate(-2846.706 -1528.62)" style="fill:#333"/>
                <path data-name="Path 10094" d="M3164.807 1456.59a2.1 2.1 0 0 0 .966-.572 1.258 1.258 0 0 0 .177-.3 2.088 2.088 0 0 0 .37-.344 8.711 8.711 0 0 0 1.468-4.116 15.557 15.557 0 0 0 .159-3.92l-.041-.281c-.064-.454-.194-1.378-.461-1.56a1.041 1.041 0 0 0-.073-.173c-.152-.281-.443-.487-.6-.75a27.2 27.2 0 0 1 1.461.427c.854.278 1.016.875 1.153 1.849l.038.265a16.81 16.81 0 0 1-.16 4.369 10.32 10.32 0 0 1-1.812 4.862c-.622.723-2 .55-2.832.55h-.26a.463.463 0 0 1 .036-.061.818.818 0 0 1 .413-.247" transform="translate(-2961.168 -1351.82)" style="fill:#333"/>
                <path data-name="Path 10095" d="M2929.147 1406.157c.734-1.175 1.937-.745 2.3-.784 1.212-.129 9.835 1.158 14.775 2.475.162.264.453.47.6.75a1.024 1.024 0 0 1 .072.173.19.19 0 0 0-.036-.02c-3.992-1.631-13.183-2.551-14.989-2.551-.1 0-.176 0-.229.008a1.688 1.688 0 0 0-1.234.738 2.775 2.775 0 0 0 .043 2.38c.53 1.458 1.142 3.248 1.681 4.828.519 1.52 1.01 2.956 1.155 3.283.55 1.235.8 1.8 4.4 1.8h6.984a1.236 1.236 0 0 0 .73-.244 1.265 1.265 0 0 1-.177.3 2.1 2.1 0 0 1-.966.572.82.82 0 0 0-.413.247.488.488 0 0 0-.036.06l-6.149-.053a10.55 10.55 0 0 1-4.229-.513 2.484 2.484 0 0 1-1.5-1.558c-.165-.37-.546-1.479-1.2-3.408-.538-1.573-1.146-3.356-1.672-4.8a4.064 4.064 0 0 1 .094-3.678" transform="translate(-2740.622 -1315.089)" style="fill:#333"/>
                <path data-name="Path 10096" d="M2965.879 1419.034h-6.979c-3.837 0-4.524-.684-5.272-2.365-.163-.366-.615-1.688-1.187-3.362a278.596 278.596 0 0 0-1.675-4.811 3.607 3.607 0 0 1 .045-3.212 2.664 2.664 0 0 1 1.944-1.182c1.073-.114 11.241.795 15.68 2.608.8.328.957 1.439 1.083 2.333l.039.271c.249 1.641-.091 6.758-1.848 8.8a2.365 2.365 0 0 1-1.825.92m-12.85-14.522c-.1 0-.18 0-.234.009a2.235 2.235 0 0 0-1.631.987 3.22 3.22 0 0 0-.006 2.845c.529 1.453 1.139 3.241 1.678 4.818.546 1.6 1.017 2.978 1.173 3.327.653 1.467 1.1 2.115 4.887 2.115h6.984a1.963 1.963 0 0 0 1.506-.773c1.675-1.948 1.991-6.878 1.75-8.463l-.039-.275c-.111-.786-.249-1.765-.825-2-4.052-1.655-13.4-2.588-15.242-2.588" transform="translate(-2760.961 -1313.932)" style="fill:#cfc6ce"/>
                <path data-name="Rectangle 4711" transform="translate(204.538 106.352)" style="fill:#333" d="M0 0h2.43v10.729H0z"/>
                <path data-name="Path 10097" d="M3160.288 1647.728h5.649a2.825 2.825 0 1 1-5.649 0" transform="translate(-2957.359 -1541.924)" style="fill:#333"/>
                <path data-name="Path 10098" d="M3102.7 1622.018h-12.767v-1.22h9.529z" transform="translate(-2891.523 -1516.723)" style="fill:#333"/>
                <path data-name="Path 10099" d="M2865.115 1391.748c.782 1.224 4.41 13.047-.753 14.708h-13.424c-.977.207-1.358 6.677-1.358 6.677-8.594 1.782-15.887.454-18.637-1.564 0 0 2.738-6.992 4.24-11.367.891-2.6 2.342-3.028 4.423-3.028h6.128c5.712 0 4.987-2.19 5.37-5.426" transform="translate(-2649.162 -1302.381)" style="fill:#ffc842"/>
                <path data-name="Path 10100" d="M3138.234 1463.918a13.586 13.586 0 0 0-3.628-.844l.028-.368a13.716 13.716 0 0 1 3.74.87z" transform="translate(-2933.326 -1368.783)" style="fill:#ff9a00"/>
                <path data-name="Path 10101" d="M3147.059 1456.763a18.539 18.539 0 0 0-4.952-1.152l.029-.368a18.955 18.955 0 0 1 5.063 1.178z" transform="translate(-2940.345 -1361.799)" style="fill:#ff9a00"/>
                <path data-name="Path 10102" d="M3156.5 1393.164c.782 1.224 4.41 13.047-.753 14.708l-13.424-.091" transform="translate(-2940.55 -1303.706)" style="fill:#ffc842"/>
                <path data-name="Path 10103" d="M3411.563 1456.59a2.1 2.1 0 0 0 .966-.572 1.242 1.242 0 0 0 .177-.3 2.054 2.054 0 0 0 .37-.344 8.705 8.705 0 0 0 1.469-4.116 15.554 15.554 0 0 0 .159-3.92l-.04-.281c-.064-.454-.194-1.378-.461-1.56a.984.984 0 0 0-.073-.173c-.152-.281-.442-.487-.6-.75a27.2 27.2 0 0 1 1.461.427c.855.278 1.016.875 1.153 1.849l.038.265a16.824 16.824 0 0 1-.16 4.369 10.318 10.318 0 0 1-1.812 4.862c-.622.723-1.995.55-2.832.55h-.26a.491.491 0 0 1 .036-.061.819.819 0 0 1 .413-.247" transform="translate(-3192.078 -1351.82)" style="fill:#333"/>
                <path data-name="Path 10104" d="M3175.9 1406.157c.734-1.175 1.937-.745 2.3-.784 1.211-.129 9.835 1.158 14.775 2.475.162.264.453.47.6.75a1 1 0 0 1 .073.173.2.2 0 0 0-.036-.02c-3.992-1.631-13.183-2.551-14.989-2.551-.1 0-.176 0-.229.008a1.688 1.688 0 0 0-1.234.738 2.773 2.773 0 0 0 .043 2.38c.53 1.458 1.142 3.248 1.681 4.828.519 1.52 1.01 2.956 1.155 3.283.55 1.235.8 1.8 4.4 1.8h6.984a1.237 1.237 0 0 0 .73-.244 1.258 1.258 0 0 1-.177.3 2.1 2.1 0 0 1-.965.572.818.818 0 0 0-.413.247.523.523 0 0 0-.037.06l-6.148-.053a10.553 10.553 0 0 1-4.229-.513 2.485 2.485 0 0 1-1.5-1.558c-.165-.37-.546-1.479-1.2-3.408a276.973 276.973 0 0 0-1.671-4.8 4.064 4.064 0 0 1 .094-3.678" transform="translate(-2971.531 -1315.089)" style="fill:#333"/>
                <path data-name="Path 10105" d="M3213.737 1419.034h-6.984c-3.837 0-4.524-.684-5.272-2.365-.163-.366-.615-1.688-1.186-3.362a278.596 278.596 0 0 0-1.675-4.811 3.607 3.607 0 0 1 .045-3.212 2.664 2.664 0 0 1 1.945-1.182c1.072-.114 11.241.795 15.68 2.608.8.328.958 1.439 1.083 2.333l.039.271c.249 1.641-.091 6.758-1.848 8.8a2.365 2.365 0 0 1-1.825.92m-12.85-14.522c-.1 0-.181 0-.235.009a2.235 2.235 0 0 0-1.631.987 3.219 3.219 0 0 0-.006 2.845 276.923 276.923 0 0 1 1.677 4.818c.546 1.6 1.017 2.978 1.173 3.327.654 1.467 1.1 2.115 4.887 2.115h6.984a1.963 1.963 0 0 0 1.506-.773c1.675-1.948 1.991-6.878 1.75-8.463l-.04-.275c-.111-.786-.248-1.765-.825-2-4.052-1.655-13.4-2.588-15.242-2.588" transform="translate(-2992.903 -1313.932)" style="fill:#cfc6ce"/>
                <path data-name="Path 10106" d="M2851.061 1322.095c-.391.01-.666-.377-1.009-.621a9.093 9.093 0 0 0-2.625-1.427s-4.8-.51-5.242-.512c-.4 0-.389.6.225.811l1.515.67s-1.863 1.845-2.087 2.05.3.559.689.391 2.672-1.983 2.672-1.983a4.832 4.832 0 0 1 1.816.45c.328.307.2.37-.593.452a1.96 1.96 0 0 0-1.584.652c-.112.168-.037.335.764.335s3.4.242 3.72.242.308.619 1.724.619 6.332.09 6.332.09" transform="translate(-2659.306 -1234.804)" style="fill:#ffa298"/>
                <path data-name="Path 10107" d="M2999.372 1000.267a6.052 6.052 0 0 0-1.183 2.03s-2.946 1.513-3.875 1.967-1.686 1.438-1.345 3.594 1.714 13.627 1.714 13.627l-8.355 1.27a.366.366 0 0 0-.3.426l.387 2.278 23.821-.054-.618-13.046c1.132-2.358 1.738-4.659 1.627-5.523a4.123 4.123 0 0 0-2.005-2.875l-5.523-3.329" transform="translate(-2794.279 -936.038)" style="fill:#ffe1dd"/>
                <path data-name="Path 10108" d="M3188.862 1014.993a39.54 39.54 0 0 1-.643 5.8c1.666-1.07 3.808-3.38 4.15-4.987" transform="translate(-2983.497 -949.818)" style="fill:#ffa298"/>
                <path data-name="Path 10109" d="M3239.436 932.213a3.044 3.044 0 0 1-2.157-.961l.257-.264a2.578 2.578 0 0 0 2.748.711 4.655 4.655 0 0 0 2.78-3.279l.365.053a4.994 4.994 0 0 1-3.026 3.575 3 3 0 0 1-.968.166" transform="translate(-3029.406 -868.804)" style="fill:#00066e"/>
                <path data-name="Path 10110" d="M3147.334 764.481a7.98 7.98 0 0 1 5.011 2.572 5.473 5.473 0 0 1 1.221 2.636c.387 2.415.115 5.554-1.822 7.275a4.035 4.035 0 0 1-4.161.806c-.575-.249-1.068-.652-1.616-.955-.482-.266-1-.453-1.481-.728a6.6 6.6 0 0 1-1.846-1.7 8.139 8.139 0 0 1-1.789-4.036 5.907 5.907 0 0 1 1.224-4.166c.723-.978 2.414-2.168 3.656-1.408a2.131 2.131 0 0 1 1.6-.3" transform="translate(-2939.142 -715.36)" style="fill:#00066e"/>
                <path data-name="Path 10111" d="M3179.144 929.336a7.075 7.075 0 0 1 .741 1.358 8.235 8.235 0 0 1 .326 1.023 9.207 9.207 0 0 1 .266 1.012.255.255 0 0 0 .049.135.231.231 0 0 0 .088.053 2.483 2.483 0 0 0 .813.152 5.573 5.573 0 0 0 2.468-.448.711.711 0 0 0 .291-.192c.145-.184-.011-.5-.052-.7a8.637 8.637 0 0 1-.124-.816 19.989 19.989 0 0 1-.066-2.326l.023-2.007-.238.088" transform="translate(-2975.004 -867.085)" style="fill:#ffa298"/>
                <path data-name="Path 10112" d="M3189.116 933.861a8.637 8.637 0 0 1-.124-.816 19.883 19.883 0 0 1-.066-2.326l.021-1.861c-.047.019-.1.033-.143.055-.709.339-4.193 2.5-4.339 3.093a10.891 10.891 0 0 0 3.266.433 7.5 7.5 0 0 0 .568 1.424 4.921 4.921 0 0 0 .548.9l.028-.01a.717.717 0 0 0 .292-.192c.145-.184-.011-.5-.052-.7" transform="translate(-2979.985 -869.214)" style="fill:#ff786e"/>
                <path data-name="Path 10113" d="M3128.755 791.717a5.108 5.108 0 0 0-.706 1.022c-.366.7-.707 1.448-1.02 2.174a11.947 11.947 0 0 0-.9 2.867 5.543 5.543 0 0 0 .851 3.435c.478.665 1.122.67 2.138.827a6.5 6.5 0 0 0 3.035-.357 3.835 3.835 0 0 0 2.041-1.337 1.689 1.689 0 0 0 1.375-.123 4.966 4.966 0 0 1-.011-2.043c.009-.972-.74-1.653-1.239-2.415-1.063-1.623-2.946-3.558-2.5-5.729a5.067 5.067 0 0 0-3.07 1.68" transform="translate(-2925.365 -739.307)" style="fill:#ffa298"/>
                <path data-name="Path 10114" d="M3326.018 909.878a1.148 1.148 0 1 0 1.417-.792 1.148 1.148 0 0 0-1.417.792" transform="translate(-3112.406 -850.671)" style="fill:#00066e"/>
                <path data-name="Path 10115" d="M3358.319 888.559a2.86 2.86 0 0 1-1.778-.55l.23-.288a2.92 2.92 0 0 0 2.67.282 3.651 3.651 0 0 0 2.371-2.77l.359.086a4.01 4.01 0 0 1-2.61 3.033 3.85 3.85 0 0 1-1.242.208" transform="translate(-3141.01 -828.39)" style="fill:#00066e"/>
                <path data-name="Path 10116" d="m3393.933 884.128.548-.215-1.433-3.655-.49.362z" transform="translate(-3174.715 -823.735)" style="fill:#ff9a00"/>
                <path data-name="Path 10117" d="M3321.291 817.173a3.657 3.657 0 1 0 4.514-2.523 3.657 3.657 0 0 0-4.514 2.523" transform="translate(-3107.894 -762.209)" style="fill:#00066e"/>
                <path data-name="Path 10118" d="m3349.583 771.555-2.162-5.513-.548.215 2.184 5.571z" transform="translate(-3131.965 -716.852)" style="fill:#ff9a00"/>
                <path data-name="Path 10119" d="m3414.542 938.113-.564-.714.548-.215z" transform="translate(-3194.76 -877.006)" style="fill:#ff9a00"/>
                <path data-name="Line 1272" transform="translate(215.102 49.667)" style="fill:#2030e0" d="M.544 0 0 .225"/>
                <path data-name="Rectangle 4712" transform="rotate(-22.502 232.489 -515.607)" style="fill:#2030e0" d="M0 0h.588v.369H0z"/>
                <path data-name="Path 10120" d="M3215.576 797.475a6.517 6.517 0 0 1-3.717-3.2 5.04 5.04 0 0 1-.077-3.958l.346.129a4.619 4.619 0 0 0 .066 3.673 6.143 6.143 0 0 0 3.506 3.01z" transform="translate(-3005.205 -739.567)" style="fill:#00066e"/>
                <path data-name="Path 10121" d="M3156.675 884.4a1.8 1.8 0 0 1-.567-.51c-.311-.489.109-.96.446-1.339a2.212 2.212 0 0 0 .376-.5l.341.141a2.365 2.365 0 0 1-.442.605c-.345.388-.56.659-.41.9a1.5 1.5 0 0 0 .459.4z" transform="translate(-2953.346 -825.414)" style="fill:#ff786e"/>
                <path data-name="Path 10122" d="M3128.992 828.493a1.387 1.387 0 0 1-.428-.067 1.5 1.5 0 0 1-.876-.783 2.546 2.546 0 0 1-.077-1.939 2.11 2.11 0 0 1 2.407-1.631 1.5 1.5 0 0 1 .877.783 2.548 2.548 0 0 1 .077 1.938 2.294 2.294 0 0 1-1.98 1.7m.591-4.119a1.93 1.93 0 0 0-1.623 1.448 2.209 2.209 0 0 0 .056 1.655 1.139 1.139 0 0 0 .66.6c.735.239 1.607-.39 1.944-1.4a2.206 2.206 0 0 0-.056-1.654 1.138 1.138 0 0 0-.661-.6 1.042 1.042 0 0 0-.322-.05" transform="translate(-2926.637 -771.095)" style="fill:#333"/>
                <path data-name="Path 10123" d="M3186.265 848.336a2.029 2.029 0 0 1-.627-.1 2.064 2.064 0 0 1-1.21-1.048 2.4 2.4 0 0 1-.116-1.834 2.285 2.285 0 0 1 2.8-1.543 2.062 2.062 0 0 1 1.21 1.048 2.4 2.4 0 0 1 .116 1.834 2.351 2.351 0 0 1-2.178 1.641m.223-4.253a1.981 1.981 0 0 0-1.826 1.39 2.032 2.032 0 0 0 .1 1.55 1.7 1.7 0 0 0 .994.863 1.918 1.918 0 0 0 2.341-1.309 2.027 2.027 0 0 0-.1-1.55 1.7 1.7 0 0 0-.994-.863 1.674 1.674 0 0 0-.515-.081" transform="translate(-2979.72 -789.537)" style="fill:#333"/>
                <path data-name="Rectangle 4713" transform="rotate(-74.52 138.575 -106.397)" style="fill:#333" d="M0 0h.369v.687H0z"/>
                <path data-name="Path 10124" d="M3152.719 930.382a2.828 2.828 0 0 1-1.244-.318l.163-.331a2.026 2.026 0 0 0 1.9.067l.181.321a2.022 2.022 0 0 1-1 .261" transform="translate(-2949.113 -870.033)" style="fill:#ff786e"/>
                <path data-name="Path 10125" d="M3152.336 938.9a1.69 1.69 0 0 0 1.375-.123 2.089 2.089 0 0 1-.123-.681 1.171 1.171 0 0 1-1.14.17.181.181 0 0 0-.139-.02.183.183 0 0 0-.066.067c-1.371 1.9-4.467 2.489-6.761 1.818a4.15 4.15 0 0 0 1.777.464 6.5 6.5 0 0 0 3.035-.357 3.834 3.834 0 0 0 2.042-1.337" transform="translate(-2943.505 -877.856)" style="fill:#ff786e"/>
                <path data-name="Path 10126" d="M3162.873 1016.995h-.029a.185.185 0 0 1-.156-.182 9.418 9.418 0 0 1 .128-1.517.189.189 0 0 1 .012-.04c.028-.065.694-1.608 1.042-2.266l.326.172c-.321.606-.94 2.034-1.021 2.22a8.892 8.892 0 0 0-.085.689 2.323 2.323 0 0 1 .48-.446l.209.3a2.067 2.067 0 0 0-.733.941.184.184 0 0 1-.175.127" transform="translate(-2959.605 -947.941)" style="fill:#ffd0c3"/>
                <path data-name="Rectangle 4714" transform="rotate(-82.36 148.043 -75.446)" style="fill:#ffd0c3" d="M0 0h15.143v.369H0z"/>
                <path data-name="Path 10127" d="M3273.235 1136.544c-.311-.606-.576-.649-1.166-.469a.185.185 0 0 1-.233-.13l-1.51-5.827.357-.092 1.463 5.645a1.093 1.093 0 0 1 1.417.7z" transform="translate(-3060.332 -1057.465)" style="fill:#ffd0c3"/>
                <path data-name="Path 10128" d="m3295.486 1222.058-.368-.022a3.374 3.374 0 0 0-.766-2.084l.292-.226a3.666 3.666 0 0 1 .843 2.331" transform="translate(-3082.815 -1141.406)" style="fill:#ffd0c3"/>
                <path data-name="Path 10129" d="M3167.1 1048.7a2.5 2.5 0 0 0-1.468-1.9l.143-.34a2.868 2.868 0 0 1 1.688 2.172z" transform="translate(-2962.357 -979.264)" style="fill:#ffd0c3"/>
                <path data-name="Rectangle 4715" transform="translate(156.511 91.902)" style="fill:#333" d="M0 0h68.938v1.849H0z"/>
                <path data-name="Path 10130" d="M3088.682 1444.267h-3.189l-.747-26.011h4.683z" transform="translate(-2886.668 -1327.187)" style="fill:#333"/>
                <path data-name="Path 10131" d="M3123.514 1444.267h-1.21l-.336-26.011h2.293z" transform="translate(-2921.5 -1327.187)" style="fill:#f689aa"/>
                <path data-name="Rectangle 4716" transform="translate(197.649 91.902)" style="fill:#333" d="M0 0h5.542v1.019H0z"/>
                <path data-name="Path 10132" d="M3542.515 1444.267h-3.189l-.747-26.011h4.683z" transform="translate(-3311.36 -1327.187)" style="fill:#333"/>
                <path data-name="Path 10133" d="M3577.347 1444.267h-1.21l-.336-26.011h2.292z" transform="translate(-3346.192 -1327.187)" style="fill:#f689aa"/>
                <path data-name="Rectangle 4717" transform="translate(226.79 91.902)" style="fill:#333" d="M0 0h5.542v1.019H0z"/>
                <path data-name="Path 10134" d="M2496.1 1444.267h-3.189l-.747-26.011h4.683z" transform="translate(-2332.136 -1327.187)" style="fill:#333"/>
                <path data-name="Path 10135" d="M2530.931 1444.267h-1.21l-.336-26.011h2.292z" transform="translate(-2366.969 -1327.187)" style="fill:#f689aa"/>
                <path data-name="Rectangle 4718" transform="translate(159.598 91.902)" style="fill:#333" d="M0 0h5.542v1.019H0z"/>
                <path data-name="Rectangle 4719" transform="translate(207.349 89.412)" style="fill:#f689aa" d="M0 0h29.384v2.49H0z"/>
                <path data-name="Rectangle 4720" transform="translate(150.766 89.412)" style="fill:#333" d="M0 0h56.961v2.49H0z"/>
                <path data-name="Path 10136" d="M3076.9 1325.095c-.676-.676-1.228-3.17-1.429-4.186a.364.364 0 0 1 .358-.435h5.14a.364.364 0 0 1 .358.435 24.888 24.888 0 0 1-.612 2.467 4.747 4.747 0 0 1-.817 1.72" transform="translate(-2877.979 -1235.683)" style="fill:#5d47ff"/>
                <path data-name="Path 10137" d="M3153.805 1329.927a1.1 1.1 0 0 1 1.017-.1.605.605 0 0 1 .334.587 3.444 3.444 0 0 1-1.194 2.16 1.264 1.264 0 0 1-.75.275.988.988 0 0 1-.223-.025l.129-.343a.845.845 0 0 0 .629-.2 3.063 3.063 0 0 0 1.048-1.883.245.245 0 0 0-.135-.252.835.835 0 0 0-.777.155 8.06 8.06 0 0 0-.192.145z" transform="translate(-2950.53 -1244.357)" style="fill:#5d47ff"/>
                <path data-name="Path 10138" d="m3208.474 1098.071-.252-.269c.542-.507 3.572-.674 4.372-.592l-.038.367c-.953-.1-3.722.157-4.082.495" transform="translate(-3002.216 -1026.737)" style="fill:#ffd0c3"/>
                <path data-name="Path 10139" d="m3221.658 906.046 2.031 1.231a.253.253 0 0 1 .1.314l-2.058 4.776a.253.253 0 0 1-.346.13l-2.364-1.164a.253.253 0 0 1-.116-.338l2.391-4.843a.253.253 0 0 1 .359-.106" transform="translate(-3012.191 -847.832)" style="fill:#333"/>
                <path data-name="Path 10140" d="M3260.315 931.838a7.513 7.513 0 0 0 .951 3.9c.1.143.255.3.421.244a.354.354 0 0 0 .2-.342 20.567 20.567 0 0 0-.573-2.653 8.2 8.2 0 0 0-.363-1.712c-.131-.371-.662-.15-.631.566" transform="translate(-3050.962 -871.308)" style="fill:#ffa298"/>
                <path data-name="Path 10141" d="m3213.7 966.355-1.141.3a1.727 1.727 0 0 1-.81.08.457.457 0 0 1-.286-.171.575.575 0 0 1-.074-.3 2.622 2.622 0 0 1 .112-.988 3.571 3.571 0 0 1 1.7-1.672.532.532 0 0 1 .28-.084.565.565 0 0 1 .252.107l.631.4a3.652 3.652 0 0 1 .669.5 1.228 1.228 0 0 1 .371.733" transform="translate(-3005.176 -901.653)" style="fill:#ffa298"/>
                <path data-name="Path 10142" d="M3209.022 966.594a.632.632 0 0 1-.4-.248.747.747 0 0 1-.105-.392 2.8 2.8 0 0 1 .122-1.057 3.01 3.01 0 0 1 1.44-1.719l.174.326a2.611 2.611 0 0 0-1.265 1.513 2.432 2.432 0 0 0-.1.919.446.446 0 0 0 .043.2.283.283 0 0 0 .174.094z" transform="translate(-3002.487 -901.33)" style="fill:#ff786e"/>
                <path data-name="Path 10143" d="m3215.867 988.379-1.2-1.135-.737.559a2.135 2.135 0 0 0-1.3.043.869.869 0 0 0-.624.415c-.578.752-1.136 1.947-.6 2.893a.768.768 0 0 1 .107.347c.038.844.182 4.008.19 4.218.009.243 3.226.093 3.226.093l-1.238-3.949z" transform="translate(-3004.991 -923.851)" style="fill:#ffa298"/>
                <path data-name="Path 10144" d="M3208.807 1004.076c-.008-.21-.152-3.373-.19-4.217a.584.584 0 0 0-.083-.263c-.7-1.226.291-2.68.611-3.1a1.325 1.325 0 0 1 .327-.332l.2.311a1.01 1.01 0 0 0-.233.245c-.285.371-1.169 1.66-.583 2.689a.952.952 0 0 1 .131.43c.038.844.182 4.009.19 4.22z" transform="translate(-3002.278 -932.202)" style="fill:#ff786e"/>
                <path data-name="Path 10145" d="M3211.554 1100.36a4.7 4.7 0 0 1-4.227.543l-.2 1.74a8.686 8.686 0 0 0 4.236-.332c.583-.332.187-1.951.187-1.951" transform="translate(-3001.194 -1029.704)" style="fill:#ffe1dd"/>
                <path data-name="Path 10146" d="M3205.673 1100.283a4.416 4.416 0 0 1-1.288-.148.185.185 0 0 1-.125-.2l.2-1.74a.185.185 0 0 1 .23-.158 4.589 4.589 0 0 0 4.059-.5.185.185 0 0 1 .3.095c.044.18.409 1.766-.274 2.156a8.678 8.678 0 0 1-3.1.495m-1.029-.458a8.958 8.958 0 0 0 3.944-.357c.274-.156.26-.884.156-1.476a5.091 5.091 0 0 1-3.945.459z" transform="translate(-2998.506 -1027.021)" style="fill:#ffd0c3"/>
                <path data-name="Path 10147" d="M3219.67 1151.151a2.01 2.01 0 0 1-.428-.046c-1.165-.25-2.081-1.449-2.39-3.129-.544-2.955-.839-10.626-.842-10.7l.369-.014c0 .077.3 7.72.836 10.649.337 1.829 1.308 2.664 2.1 2.835a1.817 1.817 0 0 0 1.9-.867c1.006-1.451 2.208-5.153 3.175-8.127.393-1.209.732-2.254 1.016-3.021l.346.127c-.281.761-.619 1.8-1.011 3.007-.974 3-2.186 6.728-3.222 8.224a2.274 2.274 0 0 1-1.855 1.064" transform="translate(-3009.503 -1064.234)" style="fill:#ffd0c3"/>
                <path data-name="Path 10148" d="M2439.214 1177.18h-18.6a.636.636 0 0 1-.6-.425l-4.269-12.3a.636.636 0 0 1 .6-.847h18.6a.636.636 0 0 1 .6.425l4.269 12.3a.636.636 0 0 1-.6.847" transform="translate(-2260.593 -1088.894)" style="fill:#cfc6ce"/>
                <path data-name="Path 10149" d="m2709.685 1176.333-4.269-12.3a.637.637 0 0 0-.6-.425h-.716a.636.636 0 0 1 .6.425l4.269 12.3a.636.636 0 0 1-.6.847h.716a.636.636 0 0 0 .6-.847" transform="translate(-2530.464 -1088.894)" style="fill:#fff"/>
                <path data-name="Path 10150" d="M2485.093 1376.072h35.917v-.906a.255.255 0 0 0-.255-.254h-35.407a.254.254 0 0 0-.255.254z" transform="translate(-2325.52 -1286.626)" style="fill:#cfc6ce"/>
                <path data-name="Path 10151" d="M1284.409 1225.528c0 4.137-.6 6.241 1.361 10.727h7.551c-.78-3.105-1.51-6.384-1.9-9.1.246-1.779-.927-9.07-2.28-16.078a116.173 116.173 0 0 0 11.381 10.24c-2.055 3.461-3.349 7.02-4.217 14.938h5.45l6.316-14.658a2.511 2.511 0 0 0-.279-2.476l-16.926-23.151h-13.222c-1.023 2.355-4.3 5.679-.861 12.683s7.625 16.875 7.625 16.875" transform="translate(-1193.362 -1119.174)" style="fill:#5d47ff"/>
                <path data-name="Path 10152" d="M1471.393 836.694a6.71 6.71 0 0 1-3.068-.749l.167-.329a6.434 6.434 0 0 0 5.183.3l.124.347a7.168 7.168 0 0 1-2.406.428" transform="translate(-1374.041 -781.96)" style="fill:#00066e"/>
                <path data-name="Path 10153" d="M1251.2 560.122a4.708 4.708 0 0 0-1.447 1.631 3.029 3.029 0 0 0-.145 1.858 2.367 2.367 0 0 0 .439 1.242 1.469 1.469 0 0 0-.674 1.154 5.27 5.27 0 0 0 1.269 3.764 6.589 6.589 0 0 0 3.5 2.5 14.338 14.338 0 0 1 4.61 1.947c.543.351 1.055.751 1.6 1.1a8.735 8.735 0 0 0 5.977 1.314 8.133 8.133 0 0 0 4.713-2.585 3.589 3.589 0 0 0 .957-2.465c-.058-1.181-.849-2.205-.984-3.382a25.243 25.243 0 0 0-.038-3.027 2.8 2.8 0 0 0-1.319-1.753 11.1 11.1 0 0 0-3.073-.718 5.572 5.572 0 0 1-2.686-1.506c-.343-.348-.64-.741-.99-1.083a7.317 7.317 0 0 0-4.167-1.763 10.609 10.609 0 0 0-5.527.622 9.618 9.618 0 0 0-2.017 1.154" transform="translate(-1169.125 -522.385)" style="fill:#00066e"/>
                <path data-name="Path 10154" d="M1331.717 728.521c.677-.682.754-2.942.369-4.563l4-.487s.369 4.071.492 5.049" transform="translate(-1246.205 -677.017)" style="fill:#ffa298"/>
                <path data-name="Path 10155" d="M1332.976 752.857a7.219 7.219 0 0 0 .1-3.26l-.8-.119c.129 1.387-.035 2.853-.557 3.379z" transform="translate(-1246.205 -701.352)" style="fill:#ff786e"/>
                <path data-name="Path 10156" d="m1199.957 827.4-.922-11.73a4.021 4.021 0 0 0 1.969-3.212l-1.567-2.913v-2.419a2.491 2.491 0 0 0-1.466-2.27l-3.8-1.716a.505.505 0 0 1-.257-.264l-.246-.583a.3.3 0 0 0-.276-.183h-5.551a.3.3 0 0 0-.277.185l-.206.5a1.206 1.206 0 0 1-.737.684 11.071 11.071 0 0 0-4.5 2.654c-1.489 1.677-1.55 3.215-1.54 5.047a7.536 7.536 0 0 1-.2 1.745l-2.2 9.462a3.3 3.3 0 0 0 3.212 4.044h3.475l1.015-4.8.845 5.775z" transform="translate(-1102.453 -750.603)" style="fill:#ffc842"/>
                <path data-name="Path 10157" d="M1271.782 1001.129c-.876.443-1.836 3.427-.277 5.013 1.64-.535 10.344-5.7 10.344-5.7.646-.045 1-.011 1.186-.8l3.69-3.929c-1.384-.784-2.214-1.159-2.675-1.456a.982.982 0 0 0-1.338.581l-1.249.183a.9.9 0 0 0-.755.733l-.4 2.291a.909.909 0 0 1-.515.668l-3.094 1.425a5.694 5.694 0 0 1-1.5.453z" transform="translate(-1189.083 -930.316)" style="fill:#ffa298"/>
                <path data-name="Path 10158" d="m1271.935 1102.416-.153.024c-.876.443-1.836 3.427-.277 5.013a11.653 11.653 0 0 0 1.364-.622 4.764 4.764 0 0 1-.934-4.415" transform="translate(-1189.083 -1031.628)" style="fill:#ff786e"/>
                <path data-name="Path 10159" d="M1469.095 952.677h8.1a.544.544 0 0 1 .411.9l-7.226 8.331a.543.543 0 0 1-.436.187l-8.181-.383a.544.544 0 0 1-.37-.916l3.664-3.895 3.635-4.044a.544.544 0 0 1 .4-.18" transform="translate(-1367.413 -891.504)" style="fill:#00066e"/>
                <path data-name="Path 10160" d="M1352.66 1023.556a14.837 14.837 0 0 1-1.979-.15l.055-.365a10.639 10.639 0 0 0 3.2.018l.094.357a5.609 5.609 0 0 1-1.371.139" transform="translate(-1263.951 -957.35)" style="fill:#ff9a00"/>
                <path data-name="Rectangle 4721" transform="rotate(-64.8 98.54 -41.885)" style="fill:#ff786e" d="M0 0h.369v2.669H0z"/>
                <path data-name="Rectangle 4722" transform="rotate(-33.927 141.652 -128.119)" style="fill:#ff9a00" d="M0 0h.369v1.837H0z"/>
                <path data-name="Path 10161" d="m1235.173 1000.64-.325-.174a2.37 2.37 0 0 1 2.372-1.023.568.568 0 0 0 .159-.631.59.59 0 0 0-.462-.411h-.281l2.325-5.386.339.146-2.126 4.924a1.027 1.027 0 0 1 .552.6.949.949 0 0 1-.324 1.085l-.055.045h-.071a2.141 2.141 0 0 0-2.1.825" transform="translate(-1155.556 -929.252)" style="fill:#ff9a00"/>
                <path data-name="Path 10162" d="M1273.364 1093.893a1.04 1.04 0 0 0-.813-.374l-.039-.367a1.415 1.415 0 0 1 1.125.492z" transform="translate(-1190.801 -1022.956)" style="fill:#ff9a00"/>
                <path data-name="Path 10163" d="M1593.638 1016.289h3.137l1.241-1.431c.48.57 1.249 1.708.419 2.63a15.123 15.123 0 0 1-1.753 1.691c-.338.277-2.643 1.587-3.844-.615-.184-.338.092-2.275.8-2.275" transform="translate(-1490.507 -949.692)" style="fill:#ffa298"/>
                <path data-name="Rectangle 4723" transform="rotate(-13.782 407.322 -347.007)" style="fill:#2e26b6" d="M0 0h.369v5.047H0z"/>
                <path data-name="Path 10164" d="M1314.408 626.407a2.675 2.675 0 0 0 1.522-1.816 3.513 3.513 0 0 0-.007-.836l-.138-1.555a4.787 4.787 0 0 0-1.486-3.561c-.689-.8-1.458-1.734-2.556-1.738-2.133-.008-3.3 3.186-4.561 3.339.038-.005 1.33 2.286.458 3.206a3.65 3.65 0 0 0-.392-.1 1.062 1.062 0 0 0-1.022.476.807.807 0 0 0 .131.942 2.537 2.537 0 0 0 1.508 1.024 2.835 2.835 0 0 0 .745.117.556.556 0 0 0 .511-.372 9.682 9.682 0 0 0 1.167.825 4.923 4.923 0 0 0 1.323.472 4.242 4.242 0 0 0 2.8-.422" transform="translate(-1222.253 -577.288)" style="fill:#ffa298"/>
                <path data-name="Path 10165" d="M1390.994 744.707a3.525 3.525 0 0 1-3.03-.106 2.742 2.742 0 0 0 1.045 1.152 4.29 4.29 0 0 0 1.986-.5 3.347 3.347 0 0 0 1.166-.972l.038-.057a2.107 2.107 0 0 0 .176-.323 3.289 3.289 0 0 1-1.38.8" transform="translate(-1298.84 -696.136)" style="fill:#ff786e"/>
                <path data-name="Path 10166" d="m1407.909 660.521-.172-.326a1.835 1.835 0 0 0 .665-.6.443.443 0 0 0 .106-.31c-.03-.149-.245-.244-.435-.329a3.629 3.629 0 0 1-1.263-.923l.278-.243a3.229 3.229 0 0 0 1.111.818c.269.119.6.268.671.6a.774.774 0 0 1-.162.589 2.21 2.21 0 0 1-.8.719" transform="translate(-1316.476 -615.554)" style="fill:#ff786e"/>
                <path data-name="Path 10167" d="M1410.6 709.064h-.076l.005-.369a1.55 1.55 0 0 0 1.582-.791l.317.189a1.9 1.9 0 0 1-1.829.972" transform="translate(-1319.95 -662.447)" style="fill:#ff786e"/>
                <path data-name="Path 10168" d="M1303.587 549.248a4.375 4.375 0 0 1-1.763-.382 6.62 6.62 0 0 1-1.677-1.185c-.157-.138-.316-.278-.479-.413-2.739-2.262-6.445-2.007-9-1.015a10.36 10.36 0 0 0-2.031 1.057 2.436 2.436 0 0 0-.536.464l-.288-.231a2.76 2.76 0 0 1 .618-.539 10.663 10.663 0 0 1 2.1-1.1c2.653-1.031 6.507-1.289 9.369 1.074.167.138.328.28.488.42a6.257 6.257 0 0 0 1.582 1.125 3.8 3.8 0 0 0 2.437.251l.09.358a3.773 3.773 0 0 1-.913.11" transform="translate(-1205.119 -510.149)" style="fill:#00066e"/>
                <path data-name="Path 10169" d="M1312.765 724.722a.529.529 0 0 1-.226-.56l.142-.043-.129-.007a.418.418 0 0 0-.69-.184.288.288 0 0 0-.048.289.38.38 0 0 0 .176.251l-.093.241a.6.6 0 0 1-.33-.416.549.549 0 0 1 .1-.535.679.679 0 0 1 1.122.24.336.336 0 0 1 .021.129.386.386 0 0 1-.016.083.272.272 0 0 0 .108.3z" transform="translate(-1227.321 -677.093)" style="fill:#ff786e"/>
            </g>
        </g>
    </g>
</svg>
