<svg xmlns="http://www.w3.org/2000/svg" width="233.004" height="130.561" viewBox="0 0 233.004 130.561">
    <defs>
        <clipPath id="98b70exdxa">
            <path data-name="Rectangle 3826" style="fill:none" d="M0 0h233.004v130.561H0z"/>
        </clipPath>
    </defs>
    <g data-name="Group 5594" style="clip-path:url(#98b70exdxa)">
        <path data-name="Path 7517" d="m593.392 1180.274-13.806-4.33a68.588 68.588 0 0 1 4.128-10.2l12.932 6.488a54.058 54.058 0 0 0-3.255 8.042" transform="translate(-529.271 -1064.543)" style="fill:#f2f0ff"/>
        <path data-name="Path 7518" d="m653.333 935.832-12.685-6.959a68.858 68.858 0 0 1 16.62-20.072l9.209 11.16a54.443 54.443 0 0 0-13.144 15.872" transform="translate(-585.032 -829.905)" style="fill:#f2f0ff"/>
        <path data-name="Path 7519" d="m864.279 835.82-8.784-11.5a69.1 69.1 0 0 1 9.819-6.265l6.723 12.812a54.6 54.6 0 0 0-7.757 4.95" transform="translate(-781.228 -747.041)" style="fill:#e9e6ff"/>
        <path data-name="Path 7520" d="M1049.819 750.242a54.215 54.215 0 0 0-51.774-2.557l-6.3-13.026a68.684 68.684 0 0 1 65.621 3.239z" transform="translate(-905.65 -664.655)" style="fill:#f2f0ff"/>
        <path data-name="Path 7521" d="M1682.773 873.254a55.122 55.122 0 0 0-3.37-2.417l7.98-12.069a69.28 69.28 0 0 1 4.262 3.057z" transform="translate(-1533.61 -784.217)" style="fill:#e9e6ff"/>
        <path data-name="Path 7522" d="M1756.442 951.7a54.443 54.443 0 0 0-16.432-24.311l9.372-11.023a68.907 68.907 0 0 1 20.791 30.776z" transform="translate(-1588.956 -836.811)" style="fill:#f2f0ff"/>
        <path data-name="Path 7523" d="M2177.145 1290.91q-.091-.353-.187-.705l.559-.151q.1.354.188.711z" transform="translate(-1987.971 -1178.062)" style="fill:#ccc2ff"/>
        <path data-name="Path 7524" d="M2070.648 1052.805a75.409 75.409 0 0 0-9.032-18.757l.482-.321a75.96 75.96 0 0 1 9.1 18.9z" transform="translate(-1882.643 -943.988)" style="fill:#ccc2ff"/>
        <path data-name="Path 7525" d="M2023.078 980.247q-.508-.68-1.031-1.348l.456-.357q.527.673 1.039 1.358z" transform="translate(-1846.509 -893.594)" style="fill:#ccc2ff"/>
        <path data-name="Path 7526" d="M1823.464 794.649a76.128 76.128 0 0 0-14.164-11.877l.315-.486a76.718 76.718 0 0 1 14.272 11.968z" transform="translate(-1652.231 -714.374)" style="fill:#ccc2ff"/>
        <path data-name="Path 7527" d="M1631.109 695.327a75.494 75.494 0 0 0-15.053-7.062l.186-.548a76.058 76.058 0 0 1 15.169 7.116z" transform="translate(-1475.762 -628.015)" style="fill:#ccc2ff"/>
        <path data-name="Path 7528" d="M1543.038 666.853a76.266 76.266 0 0 0-2.872-.753l.136-.562c.964.232 1.938.488 2.894.759z" transform="translate(-1406.461 -607.761)" style="fill:#ccc2ff"/>
        <path data-name="Path 7529" d="m1091.089 672.84-.161-.556q.532-.154 1.068-.3l.152.558q-.531.145-1.059.3" transform="translate(-996.222 -613.648)" style="fill:#ccc2ff"/>
        <path data-name="Path 7530" d="m819.484 703.509-.34-.468a76.055 76.055 0 0 1 18.886-10.015l.2.544a75.488 75.488 0 0 0-18.742 9.938" transform="translate(-748.032 -632.863)" style="fill:#ccc2ff"/>
        <path data-name="Path 7531" d="m773.663 836.087-.37-.445q.485-.4.977-.8l.363.451q-.488.393-.97.794" transform="translate(-706.162 -762.368)" style="fill:#ccc2ff"/>
        <path data-name="Path 7532" d="m706.083 874.532-.414-.4a77.877 77.877 0 0 1 3.185-3.084l.391.427a76.735 76.735 0 0 0-3.161 3.061" transform="translate(-644.408 -795.426)" style="fill:#ccc2ff"/>
        <path data-name="Path 7533" d="m502.277 1061.479-.549-.184a76.042 76.042 0 0 1 8.181-17.01l.486.314a75.462 75.462 0 0 0-8.119 16.88" transform="translate(-458.172 -953.629)" style="fill:#ccc2ff"/>
        <path data-name="Path 7534" d="m490.748 1261.787-.557-.16q.215-.751.445-1.5l.553.171q-.228.738-.442 1.484" transform="translate(-447.636 -1150.737)" style="fill:#ccc2ff"/>
        <path data-name="Rectangle 3748" transform="translate(115.607 41.529)" style="fill:#ccc2ff" d="M0 0h.579v8.36H0z"/>
        <path data-name="Rectangle 3749" transform="rotate(-67.98 133.136 -53.101)" style="fill:#ccc2ff" d="M0 0h1.314v.579H0z"/>
        <path data-name="Rectangle 3750" transform="rotate(-67.98 130.287 -57.316)" style="fill:#ccc2ff" d="M0 0h32.546v.579H0z"/>
        <path data-name="Rectangle 3751" transform="rotate(-45.97 181.03 -146.066)" style="fill:#ccc2ff" d="M0 0h34.913v.579H0z"/>
        <path data-name="Rectangle 3752" transform="rotate(-24.015 336.83 -350.364)" style="fill:#ccc2ff" d="M0 0h1.256v.579H0z"/>
        <path data-name="Rectangle 3753" transform="rotate(-24.015 334.775 -360.062)" style="fill:#ccc2ff" d="M0 0h15.986v.578H0z"/>
        <path data-name="Rectangle 3754" transform="rotate(-22 211.453 -194.817)" style="fill:#ccc2ff" d="M0 0h.579v6.789H0z"/>
        <path data-name="Rectangle 3755" transform="rotate(-22 174.464 -187.627)" style="fill:#ccc2ff" d="M0 0h.579v12.505H0z"/>
        <path data-name="Rectangle 3756" transform="rotate(-44.03 158.035 -51.475)" style="fill:#ccc2ff" d="M0 0h.579v1.642H0z"/>
        <path data-name="Rectangle 3757" transform="rotate(-44.03 99.315 -27.768)" style="fill:#ccc2ff" d="M0 0h.579v46.134H0z"/>
        <path data-name="Rectangle 3758" transform="rotate(-66 96.147 18.214)" style="fill:#ccc2ff" d="M0 0h.578v26.406H0z"/>
        <path data-name="Path 7535" d="M754.738 326.652a13.558 13.558 0 0 0 4.3-26.415l.09-.27a13.845 13.845 0 0 0-18.067 10.955l.284.045a13.71 13.71 0 0 0-.166 2.13 13.485 13.485 0 0 0 .973 5.053l-.265.107a13.835 13.835 0 0 0 2.282 3.784l.218-.185a13.539 13.539 0 0 0 10.347 4.8m0-25.974a12.415 12.415 0 0 1 5.919 1.5l-.138.254a12.126 12.126 0 1 1-12.541 20.726l-.162.24a12.415 12.415 0 0 1 6.922-22.724" transform="translate(-676.731 -273.273)" style="fill:#c4b8ff"/>
        <path data-name="Path 7536" d="m789.575 304.289-.093.278-.09.27a13.558 13.558 0 1 1-14.649 21.618l-.218.185-.223.189a14.136 14.136 0 1 0 15.275-22.541" transform="translate(-707.081 -277.873)" style="fill:#7760db"/>
        <path data-name="Path 7537" d="M736.337 435.385a13.709 13.709 0 0 1 .166-2.129l-.284-.045-.287-.046a14.289 14.289 0 0 0-.173 2.22 14.059 14.059 0 0 0 1.015 5.269l.272-.109.265-.107a13.485 13.485 0 0 1-.973-5.053" transform="translate(-671.885 -395.561)" style="fill:#7760db"/>
        <path data-name="Path 7538" d="M774.034 322.355a11.837 11.837 0 0 0-6.6 21.665l-.161.239a12.126 12.126 0 1 0 12.54-20.726l-.138.254a11.839 11.839 0 0 0-5.642-1.432m9.361 5.766.017-.01.579 1-.018.011a11.071 11.071 0 0 1 1.206 4.491h.019v1.158h-.014a11.077 11.077 0 0 1-1.208 4.492l.017.01-.579 1-.018-.01a11.25 11.25 0 0 1-3.288 3.287l.011.018-1 .579-.01-.017a11.077 11.077 0 0 1-4.492 1.208v.015h-1.158v-.018a11.069 11.069 0 0 1-4.491-1.207l-.011.019-1-.579.01-.017a11.244 11.244 0 0 1-3.284-3.29l-.021.012-.578-1 .015-.009a11.084 11.084 0 0 1-1.2-4.493h-.02v-1.157h.015a11.082 11.082 0 0 1 1.208-4.492l-.017-.01.579-1 .018.011a11.248 11.248 0 0 1 3.287-3.287l-.01-.018 1-.58.01.018a11.076 11.076 0 0 1 4.493-1.209v-.015h1.157v.02a11.081 11.081 0 0 1 4.493 1.2l.009-.015 1 .579-.012.021a11.251 11.251 0 0 1 3.29 3.284" transform="translate(-696.026 -294.371)" style="fill:#fff"/>
        <path data-name="Path 7539" d="M898.565 587.329z" transform="translate(-820.557 -536.342)" style="fill:#f8f7ff"/>
        <path data-name="Path 7540" d="m850.942 409.456 2.114 1.8-.778.916-2.156-1.831a16.787 16.787 0 0 1-9.811 4.779l-.133.23a11.071 11.071 0 0 0 4.491 1.207v-.577h1.157v.58a11.08 11.08 0 0 0 4.493-1.208l-.288-.5 1-.579.287.5a11.249 11.249 0 0 0 3.287-3.287l-.5-.287.579-1 .5.288a11.076 11.076 0 0 0 1.208-4.492h-.581v-1.157h.576a11.071 11.071 0 0 0-1.206-4.492l-.23.133a16.761 16.761 0 0 1-4.014 8.986" transform="translate(-767.24 -365.583)" style="fill:#f8f7ff"/>
        <path data-name="Path 7541" d="M1027.169 458.642v-.01.023-.013" transform="translate(-937.998 -418.817)" style="fill:#f8f7ff"/>
        <path data-name="Path 7542" d="M898.519 330.146" transform="translate(-820.511 -301.485)" style="fill:#e9e6ff"/>
        <path data-name="Path 7543" d="m786.093 332.024.289-.5a11.082 11.082 0 0 0-4.493-1.2v.575h-1.158v-.581a11.078 11.078 0 0 0-4.492 1.208l.288.5-1 .58-.288-.5a11.252 11.252 0 0 0-3.287 3.287l.5.287-.579 1-.5-.288a11.078 11.078 0 0 0-1.208 4.492h.58v1.157h-.575a11.081 11.081 0 0 0 1.2 4.493l.5-.289.578 1-.495.285a11.244 11.244 0 0 0 3.284 3.29l.288-.5 1 .579-.154.267a16.787 16.787 0 0 0 9.811-4.779l-4.374-3.716a1.318 1.318 0 0 1-1.264-2.285 1.254 1.254 0 0 1 .467-.206l1.56-6.168 1.165.295-1.567 6.2a1.347 1.347 0 0 1 .186.209 1.323 1.323 0 0 1 .219 1.032l4.426 3.766a16.762 16.762 0 0 0 4.014-8.986l-.267.154-.579-1 .5-.288a11.251 11.251 0 0 0-3.29-3.284l-.286.495zm-13.443 7.649c-.61-.325-.283-1.2.214-1.148.964.107.536 1.547-.214 1.148m1.868-2.419c-1.651.524-.832-2.271.405-3.059.815-.519 2.107-.97 2.3-.518.4.963-1.052 3.053-2.7 3.577" transform="translate(-703.303 -301.642)" style="fill:#e9e6ff"/>
        <path data-name="Path 7544" d="m761.023 338.412.162-.24.161-.239a11.837 11.837 0 0 1 12.241-20.233l.138-.254.138-.254a12.415 12.415 0 0 0-12.841 21.221" transform="translate(-689.938 -288.283)" style="fill:#7760db"/>
        <path data-name="Path 7545" d="m892.759 386.26-2.114-1.8-4.429-3.763a1.323 1.323 0 0 0-.216-1.027 1.352 1.352 0 0 0-.186-.209l1.567-6.2-1.165-.295-1.56 6.168a1.252 1.252 0 0 0-.467.206 1.318 1.318 0 0 0 1.264 2.285l4.374 3.716 2.156 1.831zm-8.086-5.646a.341.341 0 1 1 .481.087.346.346 0 0 1-.481-.087" transform="translate(-806.943 -340.592)" style="fill:#7760db"/>
        <path data-name="Path 7546" d="m953.674 561.4.288.5.01.017 1-.579-.011-.018-.287-.5z" transform="translate(-870.883 -512.138)" style="fill:#7760db"/>
        <path data-name="Path 7547" d="m829.809 344.553-.288-.5-.01-.017-1 .58.01.018.288.5z" transform="translate(-756.584 -314.171)" style="fill:#7760db"/>
        <path data-name="Path 7548" d="m1000.674 514.838.5.287.018.011.579-1-.017-.01-.5-.288z" transform="translate(-913.803 -469.229)" style="fill:#7760db"/>
        <path data-name="Path 7549" d="m784.98 388.965-.5-.287-.018-.011-.579 1 .017.01.5.288z" transform="translate(-715.835 -354.926)" style="fill:#7760db"/>
        <path data-name="Path 7550" d="M1020.313 453.226h.595v-1.157h-.595z" transform="translate(-931.737 -412.824)" style="fill:#7760db"/>
        <path data-name="Path 7551" d="M770.584 452.069h-.6v1.157h.6z" transform="translate(-703.145 -412.824)" style="fill:#7760db"/>
        <path data-name="Path 7552" d="m1001.244 389.965.267-.154.23-.133.019-.011-.579-1-.017.01-.5.288z" transform="translate(-913.795 -354.923)" style="fill:#7760db"/>
        <path data-name="Path 7553" d="m784.4 513.833-.5.289-.015.009.579 1 .021-.012.495-.285z" transform="translate(-715.835 -469.226)" style="fill:#7760db"/>
        <path data-name="Path 7554" d="m953.971 344.044-.009.015-.289.5 1 .579.286-.495.012-.021z" transform="translate(-870.883 -314.177)" style="fill:#7760db"/>
        <path data-name="Path 7555" d="m829.808 561.4-1-.579-.288.5-.01.017 1 .579.011-.019.133-.23z" transform="translate(-756.583 -512.138)" style="fill:#7760db"/>
        <path data-name="Path 7556" d="M893.073 330.743v-.6h-1.157v.6z" transform="translate(-814.487 -301.487)" style="fill:#7760db"/>
        <path data-name="Path 7557" d="M891.909 580.47v.6h1.157v-.6z" transform="translate(-814.481 -530.078)" style="fill:#7760db"/>
        <path data-name="Path 7558" d="M895.164 455.377a.35.35 0 1 0-.481-.087.346.346 0 0 0 .481.087" transform="translate(-816.953 -415.269)" style="fill:#fff"/>
        <path data-name="Path 7559" d="M811 367.6c-1.237.788-2.056 3.583-.406 3.059s3.108-2.614 2.7-3.577c-.19-.452-1.483 0-2.3.518" transform="translate(-739.375 -335.046)" style="fill:#fff"/>
        <path data-name="Path 7560" d="M795.547 424.849c-.5-.055-.825.823-.214 1.148.75.4 1.178-1.041.214-1.148" transform="translate(-725.985 -387.965)" style="fill:#fff"/>
        <path data-name="Path 7561" d="M2268.67 918.88a11.044 11.044 0 1 0 11.045 11.044 11.044 11.044 0 0 0-11.045-11.044m0 20.109a9.065 9.065 0 1 1 9.065-9.065 9.065 9.065 0 0 1-9.065 9.065" transform="translate(-2061.637 -839.11)" style="fill:#ffccd6"/>
        <path data-name="Path 7562" d="M2217.082 1038.733h1.656c0-.207.005-.417.014-.623l-1.651-.078a14.83 14.83 0 0 0-.019.7z" transform="translate(-2024.612 -947.918)" style="fill:#e9e6ff"/>
        <path data-name="Path 7563" d="m2193.018 1036.891-1.657-.078c-.012.267-.019.538-.019.807H2193c0-.243.008-.486.02-.728" transform="translate(-2001.107 -946.805)" style="fill:#e9e6ff"/>
        <path data-name="Path 7564" d="M2196.586 1068.325a14.484 14.484 0 0 0 .826 1.264l1.337-.975a12.873 12.873 0 0 1-2.393-6.176l-1.639.179a14.481 14.481 0 0 0 .4 2.191l-.559.15a15.137 15.137 0 0 1-.42-2.279l-1.653.181a16.77 16.77 0 0 0 3.116 8.046l1.339-.977a15.073 15.073 0 0 1-.859-1.314zm-1.046-.738q-.108-.223-.208-.452l.53-.233.2.434z" transform="translate(-2002.155 -970.206)" style="fill:#e9e6ff"/>
        <path data-name="Path 7565" d="M2235.9 1158.471q.133.16.269.316l1.252-1.092a13.544 13.544 0 0 1-.243-.286z" transform="translate(-2041.795 -1056.933)" style="fill:#e9e6ff"/>
        <path data-name="Path 7566" d="M2257.23 1141.256q-.105-.121-.208-.244l-1.27 1.054c.077.093.154.184.233.275z" transform="translate(-2059.925 -1041.958)" style="fill:#e9e6ff"/>
        <path data-name="Path 7567" d="M2296.285 1202.641c.406.21.828.406 1.252.581l.636-1.531a15.37 15.37 0 0 1-1.125-.529z" transform="translate(-2096.939 -1096.887)" style="fill:#e9e6ff"/>
        <path data-name="Path 7568" d="M2309.838 1178.81a12.892 12.892 0 0 1-.961-.447l-.756 1.465c.354.183.714.355 1.083.509z" transform="translate(-2107.748 -1076.067)" style="fill:#e9e6ff"/>
        <path data-name="Path 7569" d="m2329.888 1186.675.044-.577c.372.028.751.043 1.125.043a14.647 14.647 0 0 0 5.582-1.1l-.638-1.538a12.974 12.974 0 0 1-8.874.371l-.5 1.573c.314.1.63.194.951.273l-.138.562a14.52 14.52 0 0 1-.989-.284l-.505 1.582a16.864 16.864 0 0 0 11.549-.484l-.631-1.521a15.225 15.225 0 0 1-5.8 1.142c-.389 0-.782-.015-1.169-.044" transform="translate(-2124.023 -1080.763)" style="fill:#e9e6ff"/>
        <path data-name="Path 7570" d="m2460.5 1158.146.713 1.481a16.942 16.942 0 0 0 5.939-4.778l-1.29-1.013a15.01 15.01 0 0 1-5.363 4.31" transform="translate(-2246.903 -1053.669)" style="fill:#e9e6ff"/>
        <path data-name="Path 7571" d="m2455.155 1138.862-1.314-1.032a13.037 13.037 0 0 1-4.568 3.675l.724 1.5a14.434 14.434 0 0 0 5.158-4.145" transform="translate(-2236.646 -1039.053)" style="fill:#e9e6ff"/>
        <path data-name="Path 7572" d="M2534.438 1133.77c.116-.186.231-.378.342-.572l-1.433-.817q-.148.262-.306.517z" transform="translate(-2313.142 -1034.077)" style="fill:#e9e6ff"/>
        <path data-name="Path 7573" d="M2511.386 1119.6c-.085.149-.173.3-.262.439l1.411.881q.152-.245.294-.5z" transform="translate(-2293.128 -1022.404)" style="fill:#e9e6ff"/>
        <path data-name="Path 7574" d="M2523.155 989.97a15.384 15.384 0 0 1-.665 1.767l1.507.68a16.847 16.847 0 0 0 .467-12.666l-1.558.569a15.024 15.024 0 0 1 .681 2.516l-.57.1a14.453 14.453 0 0 0-.654-2.419l-1.554.567a12.958 12.958 0 0 1-.358 9.731l1.512.683a14.986 14.986 0 0 0 .639-1.7zm.088-4.458h.579c0 .482-.023.968-.068 1.447l-.576-.054c.044-.461.065-.929.065-1.393m-.177 2.282.571.09-.051.3-.57-.1.049-.292" transform="translate(-2301.645 -894.698)" style="fill:#e9e6ff"/>
        <path data-name="Path 7575" d="M2503.371 928.279c-.112-.154-.232-.3-.35-.452l-1.3 1.02c.216.275.423.561.616.85l3.241-2.152c-.25-.377-.519-.749-.8-1.106l-1.307 1.029c.123.156.248.309.364.47z" transform="translate(-2284.545 -846.014)" style="fill:#e9e6ff"/>
        <path data-name="Path 7576" d="M2412.152 858.228a14.421 14.421 0 0 0-3.5-1.022l-.26 1.635a12.957 12.957 0 0 1 7.319 3.861l1.2-1.139a14.64 14.64 0 0 0-1.323-1.234l.367-.447a15.228 15.228 0 0 1 1.375 1.282l1.2-1.141A16.868 16.868 0 0 0 2409 855l-.26 1.636a14.982 14.982 0 0 1 3.643 1.063zm1.431.056q.229.125.453.257l-.294.5q-.215-.127-.435-.247z" transform="translate(-2199.312 -780.775)" style="fill:#e9e6ff"/>
        <path data-name="Path 7577" d="m2374.681 878.363.1 1.65a13.241 13.241 0 0 1 1.773.014l.124-1.647c-.369-.028-.74-.046-1.114-.046-.3 0-.589.012-.882.029" transform="translate(-2168.53 -802.084)" style="fill:#e9e6ff"/>
        <path data-name="Path 7578" d="m2375.311 854.3.124-1.656a17.136 17.136 0 0 0-2.3-.018l.1 1.656c.3-.018.61-.03.917-.03.388 0 .773.019 1.157.048" transform="translate(-2167.12 -778.581)" style="fill:#e9e6ff"/>
        <path data-name="Path 7579" d="M2357.608 853.981q-.19.023-.378.05l.235 1.642c.114-.016.228-.033.342-.046z" transform="translate(-2152.593 -779.845)" style="fill:#e9e6ff"/>
        <path data-name="Path 7580" d="M2361.117 881.233q.146-.021.293-.039l-.2-1.642c-.11.013-.22.029-.329.045z" transform="translate(-2155.929 -803.196)" style="fill:#e9e6ff"/>
        <path data-name="Path 7581" d="m2204.271 860.211.249.522a14.659 14.659 0 0 0-8.086 10.638l1.625.283a12.862 12.862 0 0 1 9.808-10.344l-.371-1.611a14.454 14.454 0 0 0-1.514.433l-.19-.547a15.094 15.094 0 0 1 1.575-.451l-.372-1.617a16.816 16.816 0 0 0-12.768 13.468l1.638.286a15.24 15.24 0 0 1 8.407-11.061" transform="translate(-2003.74 -783.076)" style="fill:#e9e6ff"/>
        <path data-name="Path 7582" d="M2243.536 1137.092a14.758 14.758 0 0 1-.951-.273c-.388-.124-.771-.261-1.146-.417s-.729-.326-1.082-.509a14.7 14.7 0 0 1-4.313-3.378q-.119-.136-.234-.275a13.11 13.11 0 0 1-.569-.724 14.465 14.465 0 0 1-.826-1.264l-.5.291a15.074 15.074 0 0 0 .859 1.314c.189.258.388.508.592.753.08.1.16.192.242.286a15.3 15.3 0 0 0 4.483 3.512c.368.19.742.369 1.126.529s.788.3 1.191.434c.327.1.656.2.99.284z" transform="translate(-2039.984 -1032.132)" style="fill:#b3a4f5"/>
        <path data-name="Path 7583" d="m2387.028 1095.666-.553-.17a14.84 14.84 0 0 1-.639 1.7 14.73 14.73 0 0 1-.616 1.216q-.142.252-.294.5a14.62 14.62 0 0 1-.9 1.294 14.436 14.436 0 0 1-5.159 4.145q-.361.173-.734.326a14.642 14.642 0 0 1-5.582 1.1c-.375 0-.753-.014-1.125-.043l-.044.577c.386.029.78.044 1.169.044a15.229 15.229 0 0 0 5.8-1.142q.387-.159.764-.339a14.97 14.97 0 0 0 6.3-5.655q.158-.255.306-.517c.231-.409.446-.83.641-1.264a15.59 15.59 0 0 0 .665-1.767" transform="translate(-2165.518 -1000.394)" style="fill:#b3a4f5"/>
        <path data-name="Path 7584" d="m2550.625 1072.474-.572-.09c-.015.1-.032.2-.049.292l.569.1.052-.3" transform="translate(-2328.632 -979.288)" style="fill:#b3a4f5"/>
        <path data-name="Path 7585" d="M2552.506 1046.1h-.579c0 .464-.022.932-.066 1.393l.576.054c.045-.479.068-.966.068-1.447" transform="translate(-2330.329 -955.288)" style="fill:#b3a4f5"/>
        <path data-name="Path 7586" d="M2534.784 968.1a15.269 15.269 0 0 0-1.561-4.485l-.51.274a14.646 14.646 0 0 1 1.5 4.312z" transform="translate(-2312.843 -879.964)" style="fill:#b3a4f5"/>
        <path data-name="Path 7587" d="M2491.279 911.705a14.674 14.674 0 0 1 1.323 1.234c.31.327.6.671.879 1.024.118.15.238.3.351.452l.468-.34c-.116-.16-.242-.314-.364-.469-.29-.368-.592-.725-.915-1.065a15.241 15.241 0 0 0-1.375-1.282z" transform="translate(-2275.006 -832.15)" style="fill:#b3a4f5"/>
        <path data-name="Path 7588" d="M2465.756 893.1q-.224-.132-.453-.257l-.277.508c.146.08.292.163.436.247z" transform="translate(-2251.031 -815.334)" style="fill:#b3a4f5"/>
        <path data-name="Path 7589" d="M2327.641 873.054a14.49 14.49 0 0 1 1.514-.433q.593-.136 1.2-.223c.11-.016.219-.032.329-.045.288-.034.578-.059.869-.076s.587-.029.883-.029c.374 0 .744.019 1.113.046.4.03.8.073 1.19.135a14.418 14.418 0 0 1 3.5 1.022l.231-.531a14.979 14.979 0 0 0-3.643-1.063 15.445 15.445 0 0 0-1.237-.141 15.322 15.322 0 0 0-1.157-.048c-.307 0-.613.012-.918.03s-.6.043-.9.079c-.115.014-.228.03-.342.046q-.628.09-1.245.232a15.1 15.1 0 0 0-1.575.451z" transform="translate(-2125.4 -795.997)" style="fill:#b3a4f5"/>
        <path data-name="Path 7590" d="M2211.492 906a14.487 14.487 0 0 1-.4-2.191 14.743 14.743 0 0 1-.094-1.6c0-.234.008-.468.019-.7a14.327 14.327 0 0 1 .2-1.818 14.657 14.657 0 0 1 8.086-10.638l-.249-.522a15.241 15.241 0 0 0-8.407 11.061 14.911 14.911 0 0 0-.212 1.89c-.012.242-.02.484-.02.728a15.279 15.279 0 0 0 .1 1.66 15.02 15.02 0 0 0 .42 2.279z" transform="translate(-2018.524 -811.398)" style="fill:#b3a4f5"/>
        <path data-name="Path 7591" d="M2225.225 1114.085q.1.228.209.452l.521-.251-.2-.434z" transform="translate(-2032.048 -1017.156)" style="fill:#b3a4f5"/>
        <path data-name="Path 7592" d="M2289.5 941.684a9.065 9.065 0 1 0 9.065 9.065 9.065 9.065 0 0 0-9.065-9.065m6.28 10.17h-1.28a5.1 5.1 0 0 1-.686 1.654l.9.9-1.563 1.563-.9-.9a5.1 5.1 0 0 1-1.654.686v1.273h-2.21v-1.273a5.1 5.1 0 0 1-1.654-.686l-.9.9-1.563-1.563.9-.9a5.1 5.1 0 0 1-.686-1.654h-1.273v-2.21h1.273a5.1 5.1 0 0 1 .686-1.654l-.9-.9 1.563-1.563.9.9a5.1 5.1 0 0 1 1.654-.686v-1.273h2.21v1.273a5.1 5.1 0 0 1 1.654.686l.9-.9 1.563 1.563-.9.9a5.108 5.108 0 0 1 .686 1.654h1.273z" transform="translate(-2082.461 -859.935)" style="fill:#ffb0bf"/>
        <path data-name="Path 7593" d="m2323.107 977.279.9-.9-1.562-1.563-.9.9a5.093 5.093 0 0 0-1.654-.686v-1.273h-2.21v1.273a5.1 5.1 0 0 0-1.654.686l-.9-.9-1.563 1.563.9.9a5.1 5.1 0 0 0-.686 1.654h-1.278v2.21h1.272a5.1 5.1 0 0 0 .686 1.654l-.9.9 1.563 1.563.9-.9a5.094 5.094 0 0 0 1.654.686v1.273h2.21v-1.273a5.092 5.092 0 0 0 1.654-.686l.9.9 1.563-1.563-.9-.9a5.087 5.087 0 0 0 .686-1.654h1.273v-2.21h-1.273a5.09 5.09 0 0 0-.686-1.654m-4.322 5a2.239 2.239 0 1 1 2.24-2.239 2.239 2.239 0 0 1-2.24 2.239" transform="translate(-2111.751 -889.224)" style="fill:#fff"/>
        <path data-name="Path 7594" d="M2361.292 1020.307a2.239 2.239 0 1 0 2.24 2.239 2.239 2.239 0 0 0-2.24-2.239" transform="translate(-2154.259 -931.732)" style="fill:#ff95a9"/>
        <path data-name="Path 7595" d="M1656.1 447.441a12.9 12.9 0 0 1-1.6-6.229h-2.026a14.922 14.922 0 0 0 1.866 7.206z" transform="translate(-1509.014 -402.91)" style="fill:#e9e6ff"/>
        <path data-name="Path 7596" d="M1622.467 441.212a17.539 17.539 0 0 0 2.183 8.471l1.781-.985a15.5 15.5 0 0 1-1.938-7.486z" transform="translate(-1481.617 -402.91)" style="fill:#e9e6ff"/>
        <path data-name="Path 7597" d="M1670.288 536.59c.367.24.745.46 1.129.665l.953-1.784a13.114 13.114 0 0 1-4.17-3.528l-1.6 1.234a14.964 14.964 0 0 0 1.834 1.989l-.387.43a15.51 15.51 0 0 1-1.9-2.066l-1.609 1.242a17.772 17.772 0 0 0 5.654 4.783l.955-1.789c-.4-.213-.791-.442-1.172-.691z" transform="translate(-1520.033 -485.763)" style="fill:#e9e6ff"/>
        <path data-name="Path 7598" d="M1758.868 578.466c-.3-.1-.608-.22-.9-.346l-.8 1.861q.516.22 1.046.4z" transform="translate(-1604.626 -527.932)" style="fill:#e9e6ff"/>
        <path data-name="Path 7599" d="M1745.373 607.552c.4.172.816.331 1.23.472l.653-1.919q-.551-.188-1.087-.417z" transform="translate(-1593.853 -553.107)" style="fill:#e9e6ff"/>
        <path data-name="Path 7600" d="M1781.416 617.861c.269.059.543.112.816.158l.339-2a15.889 15.889 0 0 1-.723-.138z" transform="translate(-1626.767 -562.415)" style="fill:#e9e6ff"/>
        <path data-name="Path 7601" d="M1788.842 586.7q-.3-.051-.6-.117l-.431 1.978c.231.05.463.094.7.133z" transform="translate(-1632.603 -535.659)" style="fill:#e9e6ff"/>
        <path data-name="Path 7602" d="M1848.79 595.407a17.335 17.335 0 0 0 7.216-2.684l-1.109-1.7a15.525 15.525 0 0 1-6.378 2.37z" transform="translate(-1688.045 -539.714)" style="fill:#e9e6ff"/>
        <path data-name="Path 7603" d="M1849.836 565.939a12.743 12.743 0 0 1-5.3 1.973l.269 2a14.943 14.943 0 0 0 6.139-2.281z" transform="translate(-1684.405 -516.809)" style="fill:#e9e6ff"/>
        <path data-name="Path 7604" d="m1932.4 388.781-1.963.528a15.476 15.476 0 0 1 .186 7.312l-.566-.123a14.9 14.9 0 0 0-.179-7.039l-1.949.524a12.913 12.913 0 0 1-3.839 12.944l1.354 1.5a14.962 14.962 0 0 0 1.2-1.207l.434.383a15.643 15.643 0 0 1-1.246 1.254l1.358 1.507a17.544 17.544 0 0 0 5.211-17.585m-4.527 13.849-.463-.348c.288-.383.56-.786.81-1.2l.494.3c-.26.426-.543.844-.842 1.242" transform="translate(-1757.053 -355.03)" style="fill:#e9e6ff"/>
        <path data-name="Path 7605" d="M1956.507 369.683a12.614 12.614 0 0 1 .5 1.245l2.182-.747a15.037 15.037 0 0 0-.592-1.475z" transform="translate(-1786.658 -336.698)" style="fill:#e9e6ff"/>
        <path data-name="Path 7606" d="M1989.455 356.335a17.758 17.758 0 0 0-.71-1.763l-2.1.982a15.59 15.59 0 0 1 .615 1.533z" transform="translate(-1814.176 -323.791)" style="fill:#e9e6ff"/>
        <path data-name="Path 7607" d="M1813.206 246.828a15.475 15.475 0 0 1 1.043 1.445l1.708-1.1a17.493 17.493 0 0 0-14.773-8.086 17.7 17.7 0 0 0-2.225.14l.256 2.01a15.514 15.514 0 0 1 9.3 1.717l-.274.51a14.936 14.936 0 0 0-8.952-1.653l.256 2.009a13.051 13.051 0 0 1 1.641-.1 12.883 12.883 0 0 1 10.877 5.958l1.7-1.092a14.841 14.841 0 0 0-1-1.391zm-2.819-1.956q-.275-.216-.56-.419l.335-.471q.3.211.582.435z" transform="translate(-1642.788 -218.334)" style="fill:#e9e6ff"/>
        <path data-name="Path 7608" d="M1709.838 244.555a15.4 15.4 0 0 1 2.418-.615l-.339-2a17.567 17.567 0 0 0-7.485 3.2l2.757 3.719a12.917 12.917 0 0 1 5.5-2.351l-.339-2a14.775 14.775 0 0 0-2.327.592z" transform="translate(-1556.467 -220.939)" style="fill:#e9e6ff"/>
        <path data-name="Path 7609" d="m1676.891 292.924-3.058-3.476a17.8 17.8 0 0 0-1.652 1.66l3.491 3.041a13.069 13.069 0 0 1 1.219-1.225" transform="translate(-1527.015 -264.321)" style="fill:#e9e6ff"/>
        <path data-name="Path 7610" d="m1650.941 431.442.387-.43a14.939 14.939 0 0 1-4.822-13.049l-.574-.075a15.665 15.665 0 0 0-.131 2.025 15.641 15.641 0 0 0 5.14 11.529" transform="translate(-1502.925 -381.61)" style="fill:#b3a4f5"/>
        <path data-name="Path 7611" d="m1747.245 555.515-.433-.383a14.913 14.913 0 0 1-13.688 4.841 15.937 15.937 0 0 1-.7-.133 14.8 14.8 0 0 1-1.614-.45q-.53-.18-1.046-.4-.591-.252-1.16-.557a14.958 14.958 0 0 1-1.129-.665l-.316.485c.381.249.773.478 1.172.691s.8.4 1.205.579q.536.229 1.087.417a15.4 15.4 0 0 0 1.677.468c.24.052.481.1.723.138a15.581 15.581 0 0 0 14.219-5.029" transform="translate(-1577.223 -506.94)" style="fill:#b3a4f5"/>
        <path data-name="Path 7612" d="m1962.337 531.728.463.348c.3-.4.582-.816.842-1.242l-.495-.3c-.25.41-.522.812-.81 1.2" transform="translate(-1791.982 -484.475)" style="fill:#b3a4f5"/>
        <path data-name="Path 7613" d="m1960.931 341.2.566.123a15.476 15.476 0 0 0-.186-7.312 16.866 16.866 0 0 0-.3-.983 15.656 15.656 0 0 0-2.662-4.8l-.448.366a15.162 15.162 0 0 1 1.971 3.148 15.065 15.065 0 0 1 .592 1.475c.106.312.2.627.29.945a14.9 14.9 0 0 1 .178 7.039" transform="translate(-1787.93 -299.736)" style="fill:#b3a4f5"/>
        <path data-name="Path 7614" d="M1924.141 295.912q.286.2.561.419l.357-.456q-.286-.224-.582-.435z" transform="translate(-1757.102 -269.793)" style="fill:#b3a4f5"/>
        <path data-name="Path 7615" d="m1778.789 264.775.274-.51a15.512 15.512 0 0 0-9.3-1.717q-.32.041-.638.095a15.415 15.415 0 0 0-2.418.615l.188.548a14.776 14.776 0 0 1 2.327-.592q.305-.052.614-.091a14.936 14.936 0 0 1 8.952 1.653" transform="translate(-1613.337 -239.642)" style="fill:#b3a4f5"/>
        <path data-name="Path 7616" d="m1698.447 403.754-1.01-.622a11.188 11.188 0 0 0 4.927 5.354l-.437-.719.662-4h.293a1.9 1.9 0 1 0 0-3.8h-1.982v-.289a.84.84 0 0 0-.838-.839h-1.823v-1.67a.674.674 0 0 0-.674-.674h-.289v-1.835a11.1 11.1 0 0 0-.253 7.374V399.8l.54-.948-.727-1.8.536-.217.832 2.058-.6 1.058v2.595l1.328.818.8 2.337-.548.187z" transform="translate(-1549.233 -360.393)" style="fill:#fff"/>
        <path data-name="Path 7617" d="m1801.812 324.486 1.5-.8a.477.477 0 0 0 .255-.423.566.566 0 1 0-1.132 0v.492l-.684.645a.046.046 0 0 0-.013.056c.024.06.056.035.072.026" transform="translate(-1645.323 -294.686)" style="fill:#fff"/>
        <path data-name="Path 7618" d="M1707.379 324.063v.141h.721l1.5-1.7h1.081a1.347 1.347 0 0 0 1.345-1.3l-2.694.626-.563-.995 2.23-1.645.722.722a1.081 1.081 0 0 0 .966-1.074v-.592a11.166 11.166 0 0 0-7.24 6.6z" transform="translate(-1557.389 -290.621)" style="fill:#fff"/>
        <path data-name="Path 7619" d="M1719.229 314.169a1.66 1.66 0 0 1-1.659 1.658h-.12l-.545-.545-1.417 1.045.1.172 2.983-.693v.682a1.927 1.927 0 0 1-1.925 1.924h-.819l-1.5 1.7h-.442v.43a.559.559 0 1 1-1.119 0v-.289l-.79.322v.925a1.255 1.255 0 0 1 .964 1.22v1.091h1.245a1.419 1.419 0 0 1 1.387 1.129h1.433a2.479 2.479 0 0 1 .2 4.95l-.548 3.317.786 1.3a11.1 11.1 0 0 0 11.867-2.1 2.945 2.945 0 0 1-.669-.5 2.913 2.913 0 0 1-.859-2.073v-.12l.932-.932v-1.106a1.229 1.229 0 0 0-.257-.757l.458-.353a1.8 1.8 0 0 1 .378 1.11v1.346l-.929.929a2.337 2.337 0 0 0 .687 1.547 2.367 2.367 0 0 0 .695.477 11.11 11.11 0 0 0-10.516-18.545zm4.276 4.87a.9.9 0 0 1 .612-.854v-.594a.907.907 0 0 1 .544-.829.732.732 0 0 1-.544-.7v-1.752h1.665c.009-.046.021-.091.035-.135l.553.171a.853.853 0 0 0-.038.253v.289h-1.632v1.169a.154.154 0 1 0 .309 0 .145.145 0 0 0-.046-.106l-.054-.053.407-.411.053.053a.722.722 0 0 1 .219.518.734.734 0 0 1-.362.632h.994a.128.128 0 0 0-.024-.119l-.088-.088.409-.409.088.089a.71.71 0 0 1 .14.778.472.472 0 0 1-.42.328h-1.3a.328.328 0 0 0-.327.328v1.125h-.289a.323.323 0 0 0-.323.323v.109a.323.323 0 0 0 .323.323h.52v.579h-.52a.9.9 0 0 1-.9-.9zm.5 2.354.186-.185a1.461 1.461 0 0 1 1.454-1.333h1.82v.289a.486.486 0 0 0 .486.485h1.889a.431.431 0 1 0 0-.862h-2.208l-.933-.936-.658.669-.412-.406 1.068-1.086 1.176 1.18h1.967a1.01 1.01 0 1 1 0 2.019h-1.889a1.066 1.066 0 0 1-1.024-.775h-1.281a.881.881 0 0 0-.88.88v.12l-.351.349a2.373 2.373 0 0 0 1.678 4.05h1.379a1.817 1.817 0 0 1 .606.1l-.193.546a1.237 1.237 0 0 0-.413-.07h-1.372a2.952 2.952 0 0 1-2.087-5.038m-4.116-6.864a1.145 1.145 0 1 1 2.29 0 1.056 1.056 0 0 1-.563.935l-1.5.8a.63.63 0 0 1-.727-1.015l.5-.474z" transform="translate(-1563.357 -285.949)" style="fill:#fff"/>
        <path data-name="Path 7620" d="M1701.542 329.861a11.7 11.7 0 1 0-11.7-11.7 11.71 11.71 0 0 0 11.7 11.7m11.119-11.7a11.078 11.078 0 0 1-3.127 7.719 2.368 2.368 0 0 1-.695-.477 2.336 2.336 0 0 1-.687-1.547l.929-.929v-1.346a1.8 1.8 0 0 0-.378-1.11l-.458.353a1.228 1.228 0 0 1 .257.756v1.106l-.931.932v.12a2.913 2.913 0 0 0 .859 2.073 2.955 2.955 0 0 0 .669.5 11.1 11.1 0 0 1-11.867 2.1l-.786-1.3.549-3.317a2.479 2.479 0 0 0-.2-4.95h-1.433a1.419 1.419 0 0 0-1.387-1.129h-1.245v-1.091a1.254 1.254 0 0 0-.964-1.22v-.925l.79-.322v.289a.559.559 0 0 0 1.119 0v-.43h.442l1.5-1.7h.819a1.927 1.927 0 0 0 1.924-1.924v-.682l-2.983.693-.1-.172 1.416-1.045.545.545h.12a1.66 1.66 0 0 0 1.658-1.658v-.743a11.11 11.11 0 0 1 13.644 10.826m-19.82 4.675-1.328-.818v-2.595l.6-1.058-.832-2.058-.536.217.727 1.8-.54.948v2.233a11.1 11.1 0 0 1 .253-7.374v1.835h.289a.674.674 0 0 1 .674.674v1.67h1.823a.84.84 0 0 1 .838.839v.289h1.982a1.9 1.9 0 1 1 0 3.8h-.292l-.662 4 .437.719a11.189 11.189 0 0 1-4.927-5.354l1.01.622.728 2.14.548-.187zm5.6-15.349v.592a1.081 1.081 0 0 1-.966 1.074l-.722-.722-2.23 1.645.563 1 2.694-.626a1.347 1.347 0 0 1-1.345 1.3h-1.081l-1.5 1.7h-.721v-.145l-1.936.79a11.167 11.167 0 0 1 7.239-6.6" transform="translate(-1543.146 -279.861)" style="fill:#8b77e8"/>
        <path data-name="Path 7621" d="M1845.657 331.011h.52v-.579h-.52a.323.323 0 0 1-.323-.323V330a.324.324 0 0 1 .323-.323h.289v-1.125a.328.328 0 0 1 .327-.328h1.3a.472.472 0 0 0 .42-.328.711.711 0 0 0-.14-.778l-.088-.089-.41.409.088.088a.128.128 0 0 1 .024.119h-.994a.734.734 0 0 0 .362-.632.722.722 0 0 0-.219-.518l-.053-.053-.408.411.054.053a.145.145 0 0 1 .047.106.154.154 0 1 1-.309 0v-1.169h1.635v-.289a.852.852 0 0 1 .038-.253l-.553-.171c-.014.045-.025.09-.035.135h-1.664v1.747a.731.731 0 0 0 .543.7.907.907 0 0 0-.543.829v.594a.9.9 0 0 0-.612.854v.109a.9.9 0 0 0 .9.9" transform="translate(-1684.608 -296.91)" style="fill:#8b77e8"/>
        <path data-name="Path 7622" d="M1843.477 377.936h1.379a1.234 1.234 0 0 1 .413.07l.193-.546a1.817 1.817 0 0 0-.606-.1h-1.379a2.373 2.373 0 0 1-1.678-4.05l.351-.349v-.12a.881.881 0 0 1 .88-.88h1.281a1.066 1.066 0 0 0 1.024.775h1.889a1.01 1.01 0 0 0 0-2.019h-1.968l-1.176-1.18-1.068 1.086.413.406.658-.669.932.936h2.208a.431.431 0 1 1 0 .862h-1.889a.486.486 0 0 1-.486-.485v-.289h-1.82a1.461 1.461 0 0 0-1.454 1.334l-.187.185a2.952 2.952 0 0 0 2.087 5.038" transform="translate(-1680.738 -337.453)" style="fill:#8b77e8"/>
        <path data-name="Path 7623" d="M1795.118 318.585a.63.63 0 0 0 .88.324l1.5-.8a1.055 1.055 0 0 0 .563-.935 1.145 1.145 0 1 0-2.29 0v.242l-.5.474a.626.626 0 0 0-.153.691m.55-.27.684-.645v-.492a.566.566 0 1 1 1.133 0 .478.478 0 0 1-.255.423l-1.5.8c-.016.009-.047.034-.072-.026a.046.046 0 0 1 .012-.056" transform="translate(-1639.239 -288.598)" style="fill:#8b77e8"/>
        <path data-name="Path 7624" d="M124.04 910.734v-4.4h-2.667v-.907h.722v-2.873h-.722v-.908h21.3a12.245 12.245 0 1 0-1.594 9.666H124.04z" transform="translate(-108.273 -814.947)" style="fill:#f3f1ff"/>
        <path data-name="Path 7625" d="M432.03 943.786a15.763 15.763 0 0 0-.5-1.059l-.515.264c.171.333.332.677.481 1.024z" transform="translate(-393.599 -860.886)" style="fill:#b3a4f5"/>
        <path data-name="Path 7626" d="M199.382 834.8a16.788 16.788 0 0 1 13.475 6.824l.466-.343a17.314 17.314 0 0 0-19.662-6.091l.191.546a16.676 16.676 0 0 1 5.529-.936" transform="translate(-176.85 -761.797)" style="fill:#b3a4f5"/>
        <path data-name="Path 7627" d="m128.728 875.3-.351-.461c-.346.263-.685.543-1.009.83l.384.433c.313-.278.641-.547.975-.8" transform="translate(-116.312 -798.889)" style="fill:#b3a4f5"/>
        <path data-name="Path 7628" d="M77.655 944.895a16.715 16.715 0 0 1-13.635-26.382l-.472-.335A17.293 17.293 0 0 0 89.994 940.3l-.413-.405a16.591 16.591 0 0 1-11.926 5" transform="translate(-55.123 -838.469)" style="fill:#b3a4f5"/>
        <path data-name="Path 7629" d="M389.509 1053.623h2.4v-.092h6.11v-.815h-4.709v.29h-4.71v4.109h5.416v.289h4v-.907h-8.509z" transform="translate(-354.867 -961.327)" style="fill:#ff8faa"/>
        <path data-name="Path 7630" d="M198.266 1053.005h-.788v-.289h-.493v.289h-11.406v-.289h-3.953v4.4h17.968v-4.4h-1.328zm-6.288 3.208h-7.9v-2.306h7.9zm5.661-.464a1.147 1.147 0 0 1-.5.5 1.38 1.38 0 0 1-1.879-1.878 1.146 1.146 0 0 1 .5-.5 1.38 1.38 0 0 1 1.878 1.878" transform="translate(-165.859 -961.327)" style="fill:#ffd259"/>
        <path data-name="Path 7631" d="M337.375 1064.211a1.146 1.146 0 0 0-.5.5 1.38 1.38 0 0 0 1.879 1.878 1.145 1.145 0 0 0 .5-.5 1.38 1.38 0 0 0-1.878-1.878m.689 2.1a.907.907 0 1 1 .907-.907.907.907 0 0 1-.907.907" transform="translate(-307.473 -971.668)" style="fill:#fff"/>
        <path data-name="Path 7632" d="M342.837 1069.266a.907.907 0 1 0 .907.907.907.907 0 0 0-.907-.907" transform="translate(-312.246 -976.441)" style="fill:#40327a"/>
        <path data-name="Path 7633" d="M401.453 1063.655v-.486h-2.4v2.873h7.5v-2.387z" transform="translate(-364.412 -970.873)" style="fill:#ccc2ff"/>
        <path data-name="Rectangle 3759" transform="translate(18.218 92.579)" style="fill:#fff" d="M0 0h7.902v2.306H0z"/>
        <path data-name="Path 7634" d="M426.689 1062.2v.486h6.11v-.579h-6.11z" transform="translate(-389.648 -969.9)" style="fill:#7760db"/>
        <path data-name="Path 7635" d="M157.524 1003.113h2.8v-4.4H150.9v.907h8.509v2.873H150.9v.907h6.62z" transform="translate(-137.804 -912.014)" style="fill:#b3a4f5"/>
        <path data-name="Path 7636" d="M259.377 999.621v3.491h8.609v.289h.493v-.289h.788v.289h1.333v-.289h4.7v.289h2.041v-4.688h-17.964zm7.616.284h7.9v2.306h-7.9zm-3.782-.036a1.146 1.146 0 0 1 .5.5 1.38 1.38 0 0 1-1.878 1.878 1.145 1.145 0 0 1-.5-.5 1.38 1.38 0 0 1 1.878-1.878" transform="translate(-236.86 -912.014)" style="fill:#8b77e8"/>
        <path data-name="Path 7637" d="M280.592 1012.587a1.38 1.38 0 0 0 1.878-1.878 1.146 1.146 0 0 0-.5-.5 1.38 1.38 0 0 0-1.878 1.878 1.145 1.145 0 0 0 .5.5m.689-2.1a.907.907 0 1 1-.907.907.907.907 0 0 1 .907-.907" transform="translate(-255.619 -922.353)" style="fill:#fff"/>
        <path data-name="Path 7638" d="M286.052 1017.079a.907.907 0 1 0-.907-.907.907.907 0 0 0 .907.907" transform="translate(-260.391 -927.127)" style="fill:#40327a"/>
        <path data-name="Path 7639" d="M170.048 1009.166h-7.209v2.873h7.209z" transform="translate(-148.439 -921.559)" style="fill:#e9e6ff"/>
        <path data-name="Rectangle 3760" transform="translate(30.133 87.891)" style="fill:#fff" d="M0 0h7.902v2.306H0z"/>
        <path data-name="Path 7640" d="M199.594 1103.387h-17.968v.579h23.384v-.579z" transform="translate(-165.858 -1007.6)" style="fill:#7760db"/>
        <path data-name="Path 7641" d="M227.163 1049.383v.579h11.406v-.579h-11.406z" transform="translate(-207.443 -958.284)" style="fill:#7760db"/>
        <path data-name="Path 7642" d="M388.6 1049.383v.579h4.708v-.579z" transform="translate(-354.867 -958.284)" style="fill:#7760db"/>
        <path data-name="Path 7643" d="M365.014 1049.961v-.579h-.788v.579z" transform="translate(-332.606 -958.284)" style="fill:#7760db"/>
        <path data-name="Path 7644" d="M159.8 1009.165h-.579v2.873h.579z" transform="translate(-145.395 -921.557)" style="fill:#fff"/>
        <path data-name="Path 7645" d="m489.505 694.25.285.5c.238-.134.477-.279.71-.429l-.314-.486a12.93 12.93 0 0 1-.68.411" transform="translate(-447.01 -633.605)" style="fill:#b3a4f5"/>
        <path data-name="Path 7646" d="M266.469 402.9a14.039 14.039 0 0 0-13.987 13.808l.579.007a13.409 13.409 0 1 1 21.895 10.555l.367.448a13.988 13.988 0 0 0-8.853-24.818" transform="translate(-230.563 -367.923)" style="fill:#b3a4f5"/>
        <path data-name="Path 7647" d="M280.311 637.258a13.47 13.47 0 0 1-12.147-7.722l-.524.246a14.011 14.011 0 0 0 15.485 7.772l-.116-.567a13.51 13.51 0 0 1-2.7.271" transform="translate(-244.406 -574.885)" style="fill:#b3a4f5"/>
        <path data-name="Path 7648" d="m503.549 373.565 2.056-2.959c-.5-.351-1.03-.68-1.563-.979l-1.764 3.142c.433.243.861.511 1.271.8" transform="translate(-458.674 -337.539)" style="fill:#e9e6ff"/>
        <path data-name="Path 7649" d="M423.2 343.036a19.176 19.176 0 0 0-8.087-1.84l-.029 3.6a15.6 15.6 0 0 1 6.578 1.5z" transform="translate(-379.053 -311.576)" style="fill:#e9e6ff"/>
        <path data-name="Path 7650" d="m386.642 345.748-.334-3.588q-.3.028-.6.066l.447 3.576q.244-.031.491-.054" transform="translate(-352.22 -312.456)" style="fill:#e9e6ff"/>
        <path data-name="Path 7651" d="M194.362 380.361a15.833 15.833 0 0 1 8.958-14.21l-1.555-3.251a19.359 19.359 0 0 0-8.791 26.458l3.189-1.678a15.774 15.774 0 0 1-1.8-7.319" transform="translate(-174.199 -331.397)" style="fill:#e9e6ff"/>
        <path data-name="Path 7652" d="M240.951 675.778 238.115 678a19.5 19.5 0 0 0 2.327 2.485l2.405-2.683a15.9 15.9 0 0 1-1.9-2.025" transform="translate(-217.444 -617.112)" style="fill:#e9e6ff"/>
        <path data-name="Path 7653" d="M280.247 712.223c.278.208.565.411.853.6l2-3a15.602 15.602 0 0 1-.695-.491z" transform="translate(-255.918 -647.758)" style="fill:#e9e6ff"/>
        <path data-name="Path 7654" d="M301.165 462.283a10.688 10.688 0 1 0-10.688-10.688 10.688 10.688 0 0 0 10.688 10.688m5.161-15.481a7.018 7.018 0 0 1 1.886 4.794c0 .22-.01.434-.029.636a7.015 7.015 0 0 1-1.432 3.656l-.459-.353a6.437 6.437 0 0 0 1.314-3.357 6.03 6.03 0 0 0 .027-.582 6.442 6.442 0 0 0-1.731-4.4zm-.961 8.022-.458-.354a4.7 4.7 0 0 0 .921-2.136l.572.09a5.274 5.274 0 0 1-1.035 2.4m-4.2-10.277a7 7 0 0 1 3.862 1.157c.189.124.375.259.551.4l-.363.451a6.47 6.47 0 0 0-.506-.369 6.427 6.427 0 0 0-3.545-1.062zm0 1.747a5.28 5.28 0 0 1 5.3 5.105l-.578.021a4.7 4.7 0 0 0-4.717-4.547zm-5.838.86a3.255 3.255 0 0 1 1.644-2.324l.973-.535 2.04 3.705-.911.71a1.855 1.855 0 0 0-.692 1.177 1.855 1.855 0 0 0 .207 1.18l1.683 3.061a1.855 1.855 0 0 0 2.25.854l1.088-.388 2.039 3.709-.973.535a3.255 3.255 0 0 1-2.844.142 3.254 3.254 0 0 1-1.085-.754 21.912 21.912 0 0 1-5.363-9.755 3.256 3.256 0 0 1-.055-1.32" transform="translate(-265.26 -402.63)" style="fill:#ffd259"/>
        <path data-name="Path 7655" d="m417.658 484.856.363-.451a6.895 6.895 0 0 0-.551-.4 7 7 0 0 0-3.862-1.157v.579a6.426 6.426 0 0 1 3.545 1.062c.174.114.344.238.506.369" transform="translate(-377.701 -440.929)" style="fill:#fff"/>
        <path data-name="Path 7656" d="M469.875 514.192a6.437 6.437 0 0 1-1.314 3.357l.459.353a7.014 7.014 0 0 0 1.432-3.656c.019-.2.029-.415.029-.636a7.018 7.018 0 0 0-1.886-4.794l-.424.394a6.442 6.442 0 0 1 1.731 4.4c0 .2-.009.4-.027.582" transform="translate(-427.528 -464.645)" style="fill:#fff"/>
        <path data-name="Path 7657" d="m418.324 508.1.578-.021a5.28 5.28 0 0 0-5.3-5.1v.579a4.7 4.7 0 0 1 4.717 4.547" transform="translate(-377.701 -459.306)" style="fill:#fff"/>
        <path data-name="Path 7658" d="m456.709 574.685.458.354a5.276 5.276 0 0 0 1.035-2.4l-.572-.09a4.7 4.7 0 0 1-.921 2.135" transform="translate(-417.061 -522.846)" style="fill:#fff"/>
        <path data-name="Path 7659" d="M345.961 484.12a21.913 21.913 0 0 0 5.363 9.755 3.256 3.256 0 0 0 1.085.753 3.256 3.256 0 0 0 2.844-.142l.973-.535-2.039-3.709-1.088.388a1.855 1.855 0 0 1-2.25-.854l-1.683-3.061a1.855 1.855 0 0 1-.207-1.18 1.855 1.855 0 0 1 .692-1.176l.911-.71-2.039-3.709-.973.535a3.255 3.255 0 0 0-1.589 3.645z" transform="translate(-315.838 -438.276)" style="fill:#fff"/>
        <path data-name="Path 7660" d="M2144.39 519.668h.289V516.5h-.289v-6.161h-2.953v3.019h.29v12.021h17.68v.29h2.473v-.29h1.872v.29h1.369v-2.949h-20.73z" transform="translate(-1955.535 -466.039)" style="fill:#ccc2ff"/>
        <path data-name="Path 7661" d="M2179.071 486.077h-.29v3.164h.29v2.473h1.568l21.536-3.356v-6.528a5.128 5.128 0 0 1-1.478-.274l.189-.547a4.558 4.558 0 0 0 1.5.25h.082v-1.473h-.082a3.107 3.107 0 0 1-2.55-1.33l-4.483 3.037.163.241-.834.565-.163-.241-1.066.722.162.24-2.989 2.024-11.842-8.021v1.946h.29z" transform="translate(-1989.636 -435.613)" style="fill:#e9e6ff"/>
        <path data-name="Path 7662" d="M2200.179 610.942h21.536v-3.356z" transform="translate(-2009.177 -554.84)" style="fill:#fff"/>
        <path data-name="Path 7663" d="m2185.1 473.253 11.293 7.649 2.664-1.8.162.24 1.066-.722-.161-.238.834-.565.161.238 4.483-3.037a3.1 3.1 0 0 1-.562-1.761z" transform="translate(-1995.406 -432.169)" style="fill:#fff"/>
        <path data-name="Path 7664" d="m2516.709 535.627 3.987 4.195a14.207 14.207 0 0 0 1.048-1.11l-4.417-3.74a8.4 8.4 0 0 1-.619.655" transform="translate(-2298.228 -488.53)" style="fill:#e9e6ff"/>
        <path data-name="Path 7665" d="M2531.6 478.755a8.3 8.3 0 0 1-1.406 4.154l4.8 3.24a14.082 14.082 0 0 0 2.387-7.053z" transform="translate(-2310.539 -437.193)" style="fill:#e9e6ff"/>
        <path data-name="Path 7666" d="M2320.64 316.219a8.348 8.348 0 0 1 8.155 6.641l5.67-1.163a14.116 14.116 0 0 0-26.184-3.972l5.065 2.8a8.337 8.337 0 0 1 7.294-4.306" transform="translate(-2107.894 -283.482)" style="fill:#e9e6ff"/>
        <path data-name="Path 7667" d="M2416.525 440.278h-1.725a3.116 3.116 0 0 0 3.112 3.091h.082a3.111 3.111 0 1 0-3.142-3.666h1.673z" transform="translate(-2205.167 -399.194)" style="fill:#ff95a9"/>
        <path data-name="Path 7668" d="M2199.338 532.295c-.069 0-.138-.006-.207-.008v9.884h-23.1V539.7h-.579v3.052h24.262v-10.476c-.124.009-.246.019-.372.019" transform="translate(-1986.593 -486.068)" style="fill:#7760db"/>
        <path data-name="Path 7669" d="m2187.579 475.514 2.989-2.024-.162-.24-.162-.24-2.664 1.8-11.293-7.65h21.665v-.579h-22.5v.71l.289.2z" transform="translate(-1986.592 -426.082)" style="fill:#7760db"/>
        <path data-name="Path 7670" d="m2358.17 526.338.161.238.163.241.834-.565-.163-.241-.161-.238z" transform="translate(-2153.452 -480.13)" style="fill:#7760db"/>
        <path data-name="Path 7671" d="M2175.737 506.543h.29v-7.108h-.579v7.108z" transform="translate(-1986.593 -456.078)" style="fill:#fff"/>
        <path data-name="Path 7672" d="M2138.682 557.142v-12.02h-.579v12.6h18.259v-.579z" transform="translate(-1952.49 -497.799)" style="fill:#8b77e8"/>
        <path data-name="Path 7673" d="M2376.919 683.589v.579h1.872v-.579z" transform="translate(-2170.573 -624.245)" style="fill:#8b77e8"/>
        <path data-name="Path 7674" d="M2426.9 413.507a5.105 5.105 0 0 0-2.257.52l.253.52a4.534 4.534 0 0 1 2-.461 4.584 4.584 0 0 1 .083 9.168h-.083a4.558 4.558 0 0 1-1.5-.25l-.189.547a5.131 5.131 0 0 0 1.478.274c.069 0 .138.008.207.008.125 0 .249-.01.372-.019a5.162 5.162 0 0 0-.372-10.311" transform="translate(-2214.153 -377.61)" style="fill:#8b77e8"/>
        <path data-name="Path 7675" d="M2399.264 434.385a4.626 4.626 0 0 1 .6-.829l-.43-.388a5.213 5.213 0 0 0-.671.933z" transform="translate(-2190.517 -395.565)" style="fill:#8b77e8"/>
        <path data-name="Path 7676" d="m1160.488 106.612 1.4.754a9.4 9.4 0 0 1 5.685-4.577l-1.739-6.124a15.746 15.746 0 0 0-11.221 17.774l4.725-.8a10.924 10.924 0 0 1 1.151-7.027" transform="translate(-1054.175 -88.273)" style="fill:#e9e6ff"/>
        <path data-name="Path 7677" d="M1161.261 306.774a15.661 15.661 0 0 0 2.452 5l3.861-2.837a10.916 10.916 0 0 1-1.7-3.478z" transform="translate(-1060.449 -278.946)" style="fill:#e9e6ff"/>
        <path data-name="Path 7678" d="M1221.741 358.055v1.576a10.9 10.9 0 0 1-7.528-3.011l-3.3 3.475a15.712 15.712 0 0 0 20.516.983l-3.926-5.012a9.262 9.262 0 0 1-5.763 1.989" transform="translate(-1105.791 -325.155)" style="fill:#e9e6ff"/>
        <path data-name="Path 7679" d="m1409.88 297.7 4.384 4.616a15.659 15.659 0 0 0 4.585-8.241l-6.237-1.279a9.32 9.32 0 0 1-2.733 4.9" transform="translate(-1287.485 -267.376)" style="fill:#e9e6ff"/>
        <path data-name="Path 7680" d="M1253.991 240.113v-2.6a5.163 5.163 0 0 1-5.157-5.157 5.092 5.092 0 0 1 .614-2.443l-2.291-1.236a7.762 7.762 0 0 0 6.834 11.441" transform="translate(-1138.042 -208.821)" style="fill:#ccc2ff"/>
        <path data-name="Path 7681" d="M1220.509 225.812v-1.028a8.341 8.341 0 0 1-7.344-12.295l-.9-.483-1.4-.754a10.918 10.918 0 0 0-1.151 7.026 10.907 10.907 0 0 0 1.963 4.63 11.039 11.039 0 0 0 1.3 1.469 10.9 10.9 0 0 0 7.528 3.011z" transform="translate(-1104.559 -192.912)" style="fill:#ccc2ff"/>
        <path data-name="Path 7682" d="M1247.9 201.645a8.352 8.352 0 0 0 6.846-3.575l-.475-.331a7.762 7.762 0 1 1-9.969-11.314l-.269-.513a8.342 8.342 0 0 0 3.867 15.732" transform="translate(-1131.954 -169.774)" style="fill:#8b77e8"/>
        <path data-name="Path 7683" d="M1420.613 292.661c-.049.2-.107.4-.172.59l.549.184c.07-.208.132-.422.185-.635z" transform="translate(-1297.129 -267.255)" style="fill:#8b77e8"/>
        <path data-name="Path 7684" d="M1294.564 226.684a3.87 3.87 0 1 0 4.22 4.08h-4.22z" transform="translate(-1178.976 -207.005)" style="fill:#ffe985"/>
        <path data-name="Rectangle 3761" transform="translate(133.311 1.756)" style="fill:#b3a4f5" d="M0 0h3.387v1.257H0z"/>
        <path data-name="Path 7685" d="M1357.131 20.228v1.257h2.3v19.778h-26.693V21.485h.025v-1.257h-.993v14.818h-.289v.708h.289v1.375h-.289v5.1h28.919v-22z" transform="translate(-1215.889 -18.472)" style="fill:#b3a4f5"/>
        <path data-name="Rectangle 3762" transform="translate(129.346 1.756)" style="fill:#b3a4f5" d="M0 0h3.387v1.257H0z"/>
        <path data-name="Rectangle 3763" transform="translate(125.38 1.756)" style="fill:#b3a4f5" d="M0 0h3.387v1.257H0z"/>
        <path data-name="Rectangle 3764" transform="translate(121.415 1.756)" style="fill:#b3a4f5" d="M0 0h3.387v1.257H0z"/>
        <path data-name="Rectangle 3765" transform="translate(117.45 1.756)" style="fill:#b3a4f5" d="M0 0h3.387v1.257H0z"/>
        <path data-name="Rectangle 3766" transform="translate(137.277 1.756)" style="fill:#b3a4f5" d="M0 0h3.387v1.257H0z"/>
        <path data-name="Path 7686" d="M1369.777 34.71h-23.817v19.2h26.115V35.384l-25.486 3.972v-4.017h25.486v-.629h-2.3zm-1.724 5.478h1.616v1.617h-1.616zm0 3.233h1.616v1.617h-1.616zm0 3.233h1.616v1.617h-1.616zm-3.233-6.466h1.617v1.617h-1.617zm0 3.233h1.617v1.617h-1.617zm0 3.233h1.617v1.617h-1.617zm-3.233-6.466h1.616v1.617h-1.616zm0 3.233h1.616v1.617h-1.616zm0 3.233h1.616v1.617h-1.616zm0 3.233h1.616V51.5h-1.616zm-3.233-9.7h1.617v1.617h-1.617zm0 3.233h1.617v1.617h-1.617zm0 3.233h1.617v1.617h-1.617zm0 3.233h1.617V51.5h-1.617zm-3.233-6.466h1.616v1.617h-1.616zm0 3.233h1.616v1.617h-1.616zm0 3.233h1.616V51.5h-1.616zm-3.233-6.466h1.617v1.617h-1.617zm0 3.233h1.617v1.617h-1.617zm0 3.233h1.617V51.5h-1.617zm-3.233-6.466h1.616v1.617h-1.616zm0 3.233h1.616v1.617h-1.616zm0 3.233h1.616V51.5h-1.616z" transform="translate(-1229.114 -31.697)" style="fill:#fff"/>
        <path data-name="Path 7687" d="M1346.248 3.015h.579V1.283a.7.7 0 1 1 1.4 0v.475h.579v-.475a1.281 1.281 0 1 0-2.561 0v1.732z" transform="translate(-1229.377 -.002)" style="fill:#4f37b3"/>
        <path data-name="Path 7688" d="M1391.925 3.015h.579V1.283a.7.7 0 1 1 1.4 0v.475h.578v-.475a1.281 1.281 0 1 0-2.561 0v1.732z" transform="translate(-1271.089 -.002)" style="fill:#4f37b3"/>
        <path data-name="Path 7689" d="M1437.6 3.015h.579V1.283a.7.7 0 1 1 1.4 0v.475h.579v-.475a1.281 1.281 0 1 0-2.561 0v1.732z" transform="translate(-1312.802 -.002)" style="fill:#4f37b3"/>
        <path data-name="Path 7690" d="M1483.283 3.015h.579V1.283a.7.7 0 1 1 1.4 0v.475h.579v-.475a1.281 1.281 0 1 0-2.561 0v1.732z" transform="translate(-1354.516 -.002)" style="fill:#4f37b3"/>
        <path data-name="Path 7691" d="M1528.96 3.015h.579V1.283a.7.7 0 1 1 1.4 0v.475h.579v-.475a1.281 1.281 0 1 0-2.561 0v1.732z" transform="translate(-1396.228 -.002)" style="fill:#4f37b3"/>
        <path data-name="Path 7692" d="M1574.639 3.015h.579V1.283a.7.7 0 1 1 1.4 0v.475h.578v-.475a1.281 1.281 0 1 0-2.561 0v1.732z" transform="translate(-1437.941 -.002)" style="fill:#4f37b3"/>
        <path data-name="Path 7693" d="M1620.316 3.015h.579V1.283a.7.7 0 1 1 1.4 0v.475h.579v-.475a1.281 1.281 0 1 0-2.562 0v1.732z" transform="translate(-1479.653 -.002)" style="fill:#4f37b3"/>
        <path data-name="Path 7694" d="M1353.2 41.953v4.017l25.488-3.97v-.045z" transform="translate(-1235.728 -38.311)" style="fill:#e9e6ff"/>
        <path data-name="Rectangle 3767" transform="translate(129.239 8.492)" style="fill:#ddd6ff" d="M0 0h1.617v1.617H0z"/>
        <path data-name="Rectangle 3768" transform="translate(132.473 8.492)" style="fill:#ddd6ff" d="M0 0h1.617v1.617H0z"/>
        <path data-name="Rectangle 3769" transform="translate(135.706 8.492)" style="fill:#ddd6ff" d="M0 0h1.617v1.617H0z"/>
        <path data-name="Rectangle 3770" transform="translate(138.939 8.492)" style="fill:#ddd6ff" d="M0 0h1.617v1.617H0z"/>
        <path data-name="Rectangle 3771" transform="translate(119.54 11.725)" style="fill:#ddd6ff" d="M0 0h1.617v1.617H0z"/>
        <path data-name="Rectangle 3772" transform="translate(122.773 11.725)" style="fill:#ddd6ff" d="M0 0h1.617v1.617H0z"/>
        <path data-name="Rectangle 3773" transform="translate(126.006 11.725)" style="fill:#ddd6ff" d="M0 0h1.617v1.617H0z"/>
        <path data-name="Rectangle 3774" transform="translate(129.239 11.725)" style="fill:#ff95a9" d="M0 0h1.617v1.617H0z"/>
        <path data-name="Rectangle 3775" transform="translate(132.473 11.725)" style="fill:#ddd6ff" d="M0 0h1.617v1.617H0z"/>
        <path data-name="Rectangle 3776" transform="translate(135.706 11.725)" style="fill:#ddd6ff" d="M0 0h1.617v1.617H0z"/>
        <path data-name="Rectangle 3777" transform="translate(138.939 11.725)" style="fill:#ddd6ff" d="M0 0h1.617v1.617H0z"/>
        <path data-name="Rectangle 3778" transform="translate(119.54 14.958)" style="fill:#ddd6ff" d="M0 0h1.617v1.617H0z"/>
        <path data-name="Rectangle 3779" transform="translate(122.773 14.958)" style="fill:#ddd6ff" d="M0 0h1.617v1.617H0z"/>
        <path data-name="Rectangle 3780" transform="translate(126.006 14.958)" style="fill:#ddd6ff" d="M0 0h1.617v1.617H0z"/>
        <path data-name="Rectangle 3781" transform="translate(129.239 14.958)" style="fill:#ddd6ff" d="M0 0h1.617v1.617H0z"/>
        <path data-name="Rectangle 3782" transform="translate(132.473 14.958)" style="fill:#ddd6ff" d="M0 0h1.617v1.617H0z"/>
        <path data-name="Rectangle 3783" transform="translate(135.706 14.958)" style="fill:#8b77e8" d="M0 0h1.617v1.617H0z"/>
        <path data-name="Rectangle 3784" transform="translate(138.939 14.958)" style="fill:#ddd6ff" d="M0 0h1.617v1.617H0z"/>
        <path data-name="Rectangle 3785" transform="translate(119.54 18.191)" style="fill:#ddd6ff" d="M0 0h1.617v1.617H0z"/>
        <path data-name="Rectangle 3786" transform="translate(122.773 18.191)" style="fill:#ddd6ff" d="M0 0h1.617v1.617H0z"/>
        <path data-name="Rectangle 3787" transform="translate(126.006 18.191)" style="fill:#ddd6ff" d="M0 0h1.617v1.617H0z"/>
        <path data-name="Rectangle 3788" transform="translate(129.239 18.191)" style="fill:#ddd6ff" d="M0 0h1.617v1.617H0z"/>
        <path data-name="Rectangle 3789" transform="translate(132.473 18.191)" style="fill:#ddd6ff" d="M0 0h1.617v1.617H0z"/>
        <path data-name="Path 7695" d="M1372.075 35.341v18.57h-26.115v.579h26.693V34.712h-.579z" transform="translate(-1229.115 -31.699)" style="fill:#7760db"/>
        <path data-name="Path 7696" d="M1328.723 20.226h-.579v14.819h.579z" transform="translate(-1212.845 -18.47)" style="fill:#7760db"/>
        <path data-name="Path 7697" d="M1328.723 199.077h-.579v1.375h.579z" transform="translate(-1212.845 -181.795)" style="fill:#7760db"/>
        <path data-name="Path 7698" d="M1631.038 1300.36a1.447 1.447 0 1 0-1.858.857 1.447 1.447 0 0 0 1.858-.857" transform="translate(-1486.883 -1185.694)" style="fill:#ff95a9"/>
        <path data-name="Path 7699" d="M1643.141 1298.5a2.025 2.025 0 1 1-.747 3.924l-3.258-1.2.534-2.8z" transform="translate(-1496.839 -1185.698)" style="fill:#ff95a9"/>
        <path data-name="Path 7700" d="M985.54 225.692a2.869 2.869 0 1 1-2.869-2.869 2.869 2.869 0 0 1 2.869 2.869" transform="translate(-894.743 -203.479)" style="fill:#ffccd6"/>
        <path data-name="Rectangle 3790" transform="translate(36.051 117.32)" style="fill:#8b77e8" d="M0 0h158.836v2.894H0z"/>
        <path data-name="Path 7701" d="M839.628 1384.755z" transform="translate(-708.112 -1264.542)" style="fill:#f8f7ff"/>
        <path data-name="Rectangle 3791" transform="translate(67.317 119.924)" style="fill:#40327a" d="M0 0h64.199v.579H0z"/>
        <path data-name="Path 7702" d="M499.269 1384.755z" transform="translate(-440.728 -1264.542)" style="fill:#f8f7ff"/>
        <path data-name="Rectangle 3792" transform="translate(41.898 119.924)" style="fill:#40327a" d="M0 0h16.643v.579H0z"/>
        <path data-name="Path 7703" d="M710.739 1384.755z" transform="translate(-646.599 -1264.542)" style="fill:#f8f7ff"/>
        <path data-name="Rectangle 3793" transform="translate(61.469 119.924)" style="fill:#40327a" d="M0 0h2.671v.579H0z"/>
        <path data-name="Path 7704" d="M1769.883 1384.755z" transform="translate(-1580.841 -1264.542)" style="fill:#f8f7ff"/>
        <path data-name="Rectangle 3794" transform="translate(150.283 119.924)" style="fill:#40327a" d="M0 0h38.759v.579H0z"/>
        <path data-name="Rectangle 3795" transform="rotate(-87.369 118.948 -4.06)" style="fill:#fff" d="M0 0h7.565v.579H0z"/>
        <path data-name="Path 7705" d="m1039.453 1179.868-1.2-4.763.279-.07-.834-3.313-6.08 6.986-.218-.19-2.1 2.41 11.075 1.443-.648-2.574z" transform="translate(-939.949 -1070.002)" style="fill:#ffd259"/>
        <path data-name="Path 7706" d="m1390.456 1217.049-5.413-6.568-.861-1.044a5.22 5.22 0 0 1-.8.4l-.484 8.29-.308-.018-.061 1.322h8.7q-.123-.971-.311-1.922a3.619 3.619 0 0 1-.46-.466" transform="translate(-1262.507 -1104.445)" style="fill:#ffd259"/>
        <path data-name="Path 7707" d="M844.389 1075.115a3.665 3.665 0 0 1-.471-.027 3.627 3.627 0 0 1-2.476-5.712l1.509-2.1-.235-.169.522-.725.235.169 1.5-2.082-.235-.169 11.081-15.4q-1.1.275-2.157.635l.092.272c-.77.26-1.539.557-2.285.885l-.116-.265a28.3 28.3 0 0 0-2.762 1.4l.144.249a28 28 0 0 0-14.066 23.043h9.725z" transform="translate(-762.205 -957.844)" style="fill:#ffd259"/>
        <path data-name="Path 7708" d="m1028.029 1053.59-.092-.272-.093-.276c-.786.265-1.571.569-2.333.9l.116.265.116.265a28.146 28.146 0 0 1 2.285-.885" transform="translate(-936.484 -961.625)" style="fill:#ffaa45"/>
        <path data-name="Path 7709" d="m842.639 1080.206-.144-.249-.146-.252a28.574 28.574 0 0 0-14.356 23.531l.578.027v-.013a28 28 0 0 1 14.066-23.043" transform="translate(-756.114 -985.973)" style="fill:#ffaa45"/>
        <path data-name="Path 7710" d="M1125.435 839.566a6.044 6.044 0 0 1 .289-7.62l-.435-.382a6.622 6.622 0 0 0-.316 8.35z" transform="translate(-1026.097 -759.374)" style="fill:#fff"/>
        <path data-name="Path 7711" d="M1338.4 984.608q.24 0 .475.025-.238-.024-.475-.025" transform="translate(-1222.21 -899.132)" style="fill:#ab9af7"/>
        <path data-name="Path 7712" d="M1336.763 984.587" transform="translate(-1220.716 -899.113)" style="fill:#ab9af7"/>
        <path data-name="Path 7713" d="M1344.845 985.018" transform="translate(-1228.096 -899.507)" style="fill:#ab9af7"/>
        <path data-name="Path 7714" d="M1367.356 992.658" transform="translate(-1248.653 -906.483)" style="fill:#ab9af7"/>
        <path data-name="Path 7715" d="M1375.806 998.735" transform="translate(-1256.369 -912.033)" style="fill:#ab9af7"/>
        <path data-name="Path 7716" d="M1379.749 1002.5q.16.169.305.353-.144-.183-.305-.353" transform="translate(-1259.97 -915.472)" style="fill:#ab9af7"/>
        <path data-name="Path 7717" d="M1383.757 1007.23a5.1 5.1 0 0 0-.231-.321c.081.1.156.213.228.323z" transform="translate(-1263.419 -919.497)" style="fill:#ab9af7"/>
        <path data-name="Path 7718" d="M1371.72 995.508" transform="translate(-1252.638 -909.086)" style="fill:#ab9af7"/>
        <path data-name="Path 7719" d="M1362.633 990.146c-.062-.032-.125-.056-.188-.086.094.044.186.088.276.138-.03-.017-.058-.036-.089-.052" transform="translate(-1244.168 -904.111)" style="fill:#ab9af7"/>
        <path data-name="Path 7720" d="M1356.937 987.812" transform="translate(-1239.138 -902.058)" style="fill:#ab9af7"/>
        <path data-name="Path 7721" d="M1351.043 986.1" transform="translate(-1233.756 -900.499)" style="fill:#ab9af7"/>
        <path data-name="Path 7722" d="M1673.314 1351.157z" transform="translate(-1528.045 -1233.859)" style="fill:#ff95a9"/>
        <path data-name="Path 7723" d="M1133.371 991.575a4.99 4.99 0 0 1-.808 1.28l-3.632 4.177-.443.509.218.19-2.7 3.105.834 3.313.282-.071 1.2 4.763-.282.071.648 2.574 7.571.987 3.777-1.311a2.686 2.686 0 0 1 3.536 2.946h4.7l.061-1.322-.269-.016.47-8.056a3.656 3.656 0 0 1-1.005.167l-1.471-.289.3-.058a4.949 4.949 0 0 1-3.12-1.9l-.068.053-6.455-8.353 7.9-6.1.765.99 3.21-2.363a5.678 5.678 0 0 0-.228-.323l-.022-.03q-.144-.183-.305-.353l-.014-.016a4.035 4.035 0 0 0-.328-.311l-.036-.032c-.1-.087-.21-.169-.319-.248l-.087-.064a5.13 5.13 0 0 0-.292-.184c-.05-.03-.1-.06-.15-.088a5.46 5.46 0 0 0-.276-.138c-.06-.028-.119-.057-.181-.083-.1-.041-.2-.078-.3-.113-.055-.019-.11-.039-.166-.057a5 5 0 0 0-.345-.092c-.044-.01-.087-.021-.131-.03a4.995 4.995 0 0 0-.407-.064l-.085-.011q-.234-.023-.475-.025h-2.132l-.151.791a4.222 4.222 0 0 1-8.368-.791h-4.409c-.109 0-.217 0-.325.009a4.98 4.98 0 0 1 4.314 6.975" transform="translate(-1028.253 -899.116)" style="fill:#ffc7bd"/>
        <path data-name="Path 7724" d="m1180.219 1350.948-2.163.008H1171.123v.013h18.242-9.154z" transform="translate(-1069.459 -1233.67)" style="fill:#ffc7bd"/>
        <path data-name="Path 7725" d="M1406.228 673.688a6.48 6.48 0 0 1-1.7 4.695l.427.39a7.055 7.055 0 0 0 1.856-5.111 13.906 13.906 0 0 0-4.968-10.047l-.37.445a13.326 13.326 0 0 1 4.76 9.628" transform="translate(-1279.803 -606.005)" style="fill:#fff"/>
        <path data-name="Path 7726" d="m1139.877 653.694-.828.037a1.447 1.447 0 0 1-1.51-1.381l-.042-.944a1.447 1.447 0 0 1 1.381-1.51l.472-.021.384-.017a11.72 11.72 0 0 0 6.955-2.681 15.018 15.018 0 0 1 7.344-3.28l.921 8.643a6.5 6.5 0 0 0 3.879-6.241 13.265 13.265 0 1 0-26.015 4.2 6.005 6.005 0 0 0 5.69 10.368z" transform="translate(-1032.43 -578.616)" style="fill:#40327a"/>
        <path data-name="Path 7727" d="M1214.167 776.32a4.222 4.222 0 0 0 4.94-3.354l.151-.791.616-3.224 2.083-.092a6.221 6.221 0 0 0 5.911-6.874l-.145-1.359-.921-8.643a15.016 15.016 0 0 0-7.343 3.28 11.721 11.721 0 0 1-6.955 2.681l-.383.017-.472.021a1.447 1.447 0 0 0-1.381 1.51l.042.944a1.447 1.447 0 0 0 1.51 1.381l.828-.037-1.371 7.171-.465 2.431a4.234 4.234 0 0 0 3.355 4.94m8.975-11.746a2.326 2.326 0 0 1-2.3-1.568l4.456-.192a2.321 2.321 0 0 1-2.156 1.761" transform="translate(-1105.201 -686.7)" style="fill:#ff95a9"/>
        <path data-name="Path 7728" d="M1332.074 876.95a2.325 2.325 0 0 0 4.456-.193z" transform="translate(-1216.434 -800.644)" style="fill:#fff"/>
        <path data-name="Path 7729" d="m1411.467 1166.428 5.413 6.568a3.616 3.616 0 0 0 1.994 1.231l3.091.7 1.39-6.75-1.3-.477-4.245-6.5z" transform="translate(-1288.934 -1060.39)" style="fill:#ff95a9"/>
        <path data-name="Path 7730" d="m1258.014 1012.953-.765-.989-7.9 6.1 6.455 8.353.068-.053a4.949 4.949 0 0 0 3.12 1.9l1.176-.231a3.54 3.54 0 0 0 1.008-.191 4.645 4.645 0 0 0 2.28-7.337l-.2-.249.028-.018-3.7-4.785.458-.354 4.081 5.282-.027.017a5.216 5.216 0 0 1-1.537 7.444l.861 1.044 6.345-5.232-4.645-7.113-3.893-5.962z" transform="translate(-1140.888 -922.855)" style="fill:#ffc7bd"/>
        <path data-name="Path 7731" d="m1133.589 1213.972.28-.071.282-.071-1.2-4.763-.282.071-.279.07z" transform="translate(-1034.085 -1104.106)" style="fill:#8b77e8"/>
        <path data-name="Path 7732" d="m1021.248 998.077 6.12 5.324 5.24-6.021.219.19.443-.51 3.631-4.176a4.99 4.99 0 1 0-7.813-6.193l-1.188 1.653.235.169z" transform="translate(-932.591 -899.145)" style="fill:#ffc7bd"/>
        <path data-name="Path 7733" d="m1057.451 1135.065 2.7-3.1-.218-.19-.218-.19-5.24 6.021-3.542 4.07.219.19.218.19z" transform="translate(-959.7 -1033.345)" style="fill:#fff"/>
        <path data-name="Path 7734" d="M1293.807 1324.6h-13.4a2.678 2.678 0 0 1-2.646 2.277l-1.911.007v.016h21.705l.475-2.3z" transform="translate(-1165.089 -1209.61)" style="fill:#40327a"/>
        <path data-name="Path 7735" d="M1532.594 1048.255h-1.308l-3.457 16.783-1.39 6.75-.094.457-.474 2.3h1.308z" transform="translate(-1393.405 -957.254)" style="fill:#fff"/>
        <path data-name="Path 7736" d="M1581.9 1048.255h-35.544l-5.417 26.3 38.073-5.935 4.2-20.36zm-17.14 13.146a3.473 3.473 0 0 1-3.241 2.687 2.124 2.124 0 0 1-2.133-2.687 3.473 3.473 0 0 1 3.241-2.687 2.124 2.124 0 0 1 2.134 2.687" transform="translate(-1407.166 -957.254)" style="fill:#c4b8ff"/>
        <path data-name="Path 7737" d="M1540.938 1288.727h36.852l1.19-5.785.031-.15z" transform="translate(-1407.166 -1171.43)" style="fill:#ddd6ff"/>
        <path data-name="Path 7738" d="M1756.067 1168.729a3.473 3.473 0 0 0-3.241 2.687 2.124 2.124 0 0 0 2.134 2.687 3.473 3.473 0 0 0 3.241-2.687 2.124 2.124 0 0 0-2.134-2.687" transform="translate(-1600.608 -1067.269)" style="fill:#fff"/>
        <path data-name="Path 7739" d="M934.391 1157.968h.533l2.163-.008 1.911-.007a2.686 2.686 0 1 0-.89-5.224l-3.777 1.311-7.571-.987-11.075-1.443 2.1-2.41-.219-.19 3.542-4.07-6.119-5.324-5.658 7.863-.235-.169-1.5 2.082.235.169-.522.725-.235-.169-1.509 2.1a3.627 3.627 0 0 0 2.476 5.712 3.685 3.685 0 0 0 .471.027h2.008l17.476.009h6.4z" transform="translate(-826.327 -1040.679)" style="fill:#ff95a9"/>
        <path data-name="Path 7740" d="M1360.091 1075.8a5.223 5.223 0 0 0 2.335-7.847l.027-.017-4.081-5.282-.458.354 3.7 4.785-.028.018.2.249a4.646 4.646 0 0 1-2.28 7.338 3.531 3.531 0 0 1-1.008.191l-1.176.232-.3.058 1.471.289a3.667 3.667 0 0 0 1-.167l-.47 8.056.269.016.309.018z" transform="translate(-1239.217 -970.4)" style="fill:#fff"/>
        <path data-name="Path 7741" d="m927.4 1251.006.235.169.235.169.522-.725-.235-.169-.235-.169z" transform="translate(-846.891 -1141.742)" style="fill:#8b77e8"/>
        <path data-name="Path 7742" d="m950.9 1043.109.235.169 5.658-7.864 6.884-9.567-.235-.169-.235-.169-1.461 2.031-11.081 15.4z" transform="translate(-868.137 -936.482)" style="fill:#8b77e8"/>
        <path data-name="Rectangle 3809" transform="translate(52.29 10.881)" style="fill:#ddd6ff" d="M0 0h.579v1.623H0z"/>
        <path data-name="Rectangle 3810" transform="translate(52.29 20.621)" style="fill:#ddd6ff" d="M0 0h.579v1.623H0z"/>
        <path data-name="Rectangle 3811" transform="rotate(-30 46.742 -86.45)" style="fill:#ddd6ff" d="M0 0h.579v1.623H0z"/>
        <path data-name="Rectangle 3812" transform="rotate(-30 64.917 -91.318)" style="fill:#ddd6ff" d="M0 0h.579v1.623H0z"/>
        <path data-name="Rectangle 3813" transform="rotate(-60 35.86 -34.163)" style="fill:#ddd6ff" d="M0 0h.579v1.623H0z"/>
        <path data-name="Rectangle 3814" transform="rotate(-60 44.295 -39.033)" style="fill:#ddd6ff" d="M0 0h.579v1.623H0z"/>
        <path data-name="Rectangle 3815" transform="translate(46.898 16.274)" style="fill:#ddd6ff" d="M0 0h1.623v.579H0z"/>
        <path data-name="Rectangle 3816" transform="translate(56.638 16.274)" style="fill:#ddd6ff" d="M0 0h1.623v.579H0z"/>
        <path data-name="Rectangle 3817" transform="rotate(-30 59.5 -79.084)" style="fill:#ddd6ff" d="M0 0h1.623v.579H0z"/>
        <path data-name="Rectangle 3818" transform="rotate(-30 54.631 -97.259)" style="fill:#ddd6ff" d="M0 0h1.623v.579H0z"/>
        <path data-name="Rectangle 3819" transform="rotate(-59.993 43.226 -32.195)" style="fill:#ddd6ff" d="M0 0h1.623v.579H0z"/>
        <path data-name="Rectangle 3820" transform="rotate(-60.01 38.352 -40.614)" style="fill:#ddd6ff" d="M0 0h1.623v.579H0z"/>
        <path data-name="Path 7743" d="M2143.766 165.61h-.579a4.266 4.266 0 0 0-4.261-4.261v-.579a4.266 4.266 0 0 0 4.261-4.261h.579a4.266 4.266 0 0 0 4.261 4.261v.579a4.266 4.266 0 0 0-4.261 4.261m-3.191-4.551a2.9 2.9 0 1 0 5.8 0 2.9 2.9 0 1 0-5.8 0" transform="translate(-1953.241 -142.922)" style="fill:#ddd6ff"/>
        <path data-name="Path 7744" d="M2619.878 773.268a2.909 2.909 0 1 1 2.909-2.909 2.912 2.912 0 0 1-2.909 2.909m0-5.24a2.331 2.331 0 1 0 2.331 2.331 2.333 2.333 0 0 0-2.331-2.331" transform="translate(-2389.784 -700.825)" style="fill:#ddd6ff"/>
        <path data-name="Path 7745" d="M316.091 1279.409a1.841 1.841 0 1 1 1.841-1.841 1.843 1.843 0 0 1-1.841 1.841m0-3.1a1.262 1.262 0 1 0 1.262 1.262 1.263 1.263 0 0 0-1.262-1.262" transform="translate(-286.969 -1164.979)" style="fill:#ddd6ff"/>
        <path data-name="Path 7746" d="M2.91 759.316a2.909 2.909 0 1 1 2.909-2.91 2.913 2.913 0 0 1-2.909 2.91m0-5.24a2.331 2.331 0 1 0 2.331 2.33 2.333 2.333 0 0 0-2.331-2.33" transform="translate(0 -688.084)" style="fill:#ddd6ff"/>
        <path data-name="Rectangle 3821" transform="translate(95.221 7.536)" style="fill:#ddd6ff" d="M0 0h5.595v.579H0z"/>
        <path data-name="Rectangle 3822" transform="translate(97.729 5.028)" style="fill:#ddd6ff" d="M0 0h.579v5.595H0z"/>
        <path data-name="Rectangle 3823" transform="translate(201.317 115.49)" style="fill:#ddd6ff" d="M0 0h3.205v.579H0z"/>
        <path data-name="Rectangle 3824" transform="translate(202.631 114.177)" style="fill:#ddd6ff" d="M0 0h.579v3.205H0z"/>
        <path data-name="Rectangle 3825" transform="rotate(-78.51 151.83 -51.9)" style="fill:#8b77e8" d="M0 0h16.615v.579H0z"/>
    </g>
</svg>
