<svg xmlns="http://www.w3.org/2000/svg" xmlns:xlink="http://www.w3.org/1999/xlink" width="200.05" height="125.641" viewBox="0 0 200.05 125.641">
    <defs>
        <clipPath id="lzqsgmkv1b">
            <path data-name="Path 6957" d="M263.339 196.312a8.287 8.287 0 1 1 8.554 8.554h-.271a8.287 8.287 0 0 1-8.283-8.559m10.528-16.644a17.178 17.178 0 0 0-4.491 0l-1.69-2.467a19.628 19.628 0 0 0-4.273 1.388l.083 2.99a17.1 17.1 0 0 0-3.627 2.642l-2.819-1a19.832 19.832 0 0 0-2.644 3.634l1.828 2.375a16.923 16.923 0 0 0-1.38 4.262l-2.878.848a19.825 19.825 0 0 0 0 4.495l2.884.85a16.921 16.921 0 0 0 1.383 4.248l-1.837 2.386a19.836 19.836 0 0 0 2.644 3.634l2.843-1.012a17.1 17.1 0 0 0 3.6 2.62l-.084 3.02a19.625 19.625 0 0 0 4.273 1.388l1.71-2.5a17.2 17.2 0 0 0 4.452 0l1.709 2.5a19.625 19.625 0 0 0 4.273-1.388l-.084-3.02a17.1 17.1 0 0 0 3.6-2.62l2.843 1.012a19.843 19.843 0 0 0 2.644-3.634L287 203.929a16.923 16.923 0 0 0 1.383-4.248l2.884-.85a19.823 19.823 0 0 0 0-4.495l-2.878-.848a16.924 16.924 0 0 0-1.38-4.262l1.828-2.375a19.839 19.839 0 0 0-2.644-3.634l-2.819 1a17.1 17.1 0 0 0-3.627-2.642l.083-2.99a19.628 19.628 0 0 0-4.273-1.388z" transform="translate(-251.847 -177.201)" style="fill:none"/>
        </clipPath>
        <clipPath id="31sjw3elzc">
            <path data-name="Rectangle 3471" style="fill:none" d="M0 0h200.05v125.641H0z"/>
        </clipPath>
        <clipPath id="m0ivvelp6d">
            <path data-name="Path 6959" d="M811.976 16.479a13.826 13.826 0 1 0-4.987 26.721h48.835a13.825 13.825 0 1 0-4.987-26.722 20.428 20.428 0 0 0-38.861 0" transform="translate(-793.164 -2.356)" style="fill:none"/>
        </clipPath>
        <clipPath id="7q1vshab6f">
            <path data-name="Path 6974" d="M1800.177 82h17.16c9.579-17.412-15.136-28.706-15.136-28.706 16.357 18.043-2.024 28.706-2.024 28.706" transform="translate(-1800.177 -53.29)" style="fill:none"/>
        </clipPath>
        <linearGradient id="ju1tkswsva" x1="-.515" y1="2.872" x2="-.513" y2="2.872" gradientUnits="objectBoundingBox">
            <stop offset="0" stop-color="#dbe4ff"/>
            <stop offset=".776" stop-color="#fff"/>
            <stop offset="1" stop-color="#fff"/>
        </linearGradient>
        <linearGradient id="fmyd9lhere" x1="-1.955" y1="1.865" x2="-1.953" y2="1.865" gradientUnits="objectBoundingBox">
            <stop offset="0" stop-color="#dbe4ff"/>
            <stop offset=".695" stop-color="#fff"/>
            <stop offset="1" stop-color="#fff"/>
        </linearGradient>
        <linearGradient id="or99rbt7eg" x1="-5.442" y1="4.226" x2="-5.439" y2="4.226" xlink:href="#ju1tkswsva"/>
    </defs>
    <g data-name="Group 5042">
        <g data-name="Group 5029">
            <g data-name="Group 5028" style="clip-path:url(#lzqsgmkv1b)" transform="translate(20.358 14.323)">
                <path data-name="Rectangle 3470" style="fill:url(#ju1tkswsva)" d="M0 0h39.549v38.765H0z"/>
            </g>
        </g>
        <g data-name="Group 5031">
            <g data-name="Group 5030" style="clip-path:url(#31sjw3elzc)">
                <path data-name="Path 6958" d="M342.885 276.895a13.507 13.507 0 1 1 13.507-13.507 13.523 13.523 0 0 1-13.507 13.507m0-26.048a12.541 12.541 0 1 0 12.54 12.541 12.555 12.555 0 0 0-12.54-12.541" transform="translate(-302.752 -229.682)" style="fill:#fff"/>
            </g>
        </g>
        <g data-name="Group 5035">
            <g data-name="Group 5034" style="clip-path:url(#m0ivvelp6d)" transform="translate(64.114 .19)">
                <path data-name="Rectangle 3474" transform="rotate(-89.363 20.421 20.65)" style="fill:url(#fmyd9lhere)" d="M0 0h41.692v76.934H0z"/>
            </g>
        </g>
        <g data-name="Group 5037">
            <g data-name="Group 5043">
                <path data-name="Path 6960" d="M223.435 1519.763c0 .8-43.574 1.455-97.325 1.455s-97.326-.651-97.326-1.455 43.574-1.456 97.326-1.456 97.325.652 97.325 1.456" transform="translate(-26.457 -1395.578)" style="fill:#e7edff"/>
                <path data-name="Path 6961" d="m209 419.452-61.226-54.079-25.121 13.159a.844.844 0 1 1-.784-1.5l26.151-13.7 60.848 53.745 83.315-91.859a.844.844 0 0 1 1.251 1.135z" transform="translate(-111.602 -298.681)" style="fill:#7b93f6"/>
                <path data-name="Path 6962" d="M405.709 764.769a4.174 4.174 0 1 1-4.409-3.925 4.174 4.174 0 0 1 4.409 3.925" transform="translate(-365.248 -699.336)" style="fill:#7b93f6"/>
                <path data-name="Path 6963" d="M88.568 930.9a4.174 4.174 0 1 1-4.409-3.925 4.174 4.174 0 0 1 4.409 3.925" transform="translate(-73.742 -852.042)" style="fill:#7b93f6"/>
                <path data-name="Path 6964" d="M2198.427 287.686a4.174 4.174 0 1 1-4.409-3.925 4.174 4.174 0 0 1 4.409 3.925" transform="translate(-2013.054 -260.818)" style="fill:#7b93f6"/>
                <path data-name="Path 6965" d="M1160.807 1431.725a4.174 4.174 0 1 1-4.409-3.925 4.174 4.174 0 0 1 4.409 3.925" transform="translate(-1059.308 -1312.38)" style="fill:#7b93f6"/>
                <path data-name="Path 6966" d="M1274.311 1107.929a4.594 4.594 0 0 0 0-1.045l-.669-.2a3.928 3.928 0 0 0-.321-.99l.425-.552a4.616 4.616 0 0 0-.615-.844l-.655.233a3.968 3.968 0 0 0-.843-.614l.019-.695a4.579 4.579 0 0 0-.993-.323l-.393.573a3.987 3.987 0 0 0-1.044 0l-.393-.573a4.577 4.577 0 0 0-.993.323l.019.695a3.974 3.974 0 0 0-.843.614l-.655-.233a4.6 4.6 0 0 0-.615.844l.425.552a3.943 3.943 0 0 0-.321.99l-.669.2a4.594 4.594 0 0 0 0 1.045l.67.2a3.93 3.93 0 0 0 .321.987l-.427.555a4.6 4.6 0 0 0 .615.844l.661-.235a3.983 3.983 0 0 0 .838.609l-.019.7a4.557 4.557 0 0 0 .993.322l.4-.58a3.989 3.989 0 0 0 1.035 0l.4.58a4.559 4.559 0 0 0 .993-.322l-.02-.7a3.98 3.98 0 0 0 .838-.609l.661.235a4.616 4.616 0 0 0 .615-.844l-.427-.555a3.939 3.939 0 0 0 .321-.987zm-4.5 1.4a1.926 1.926 0 1 1 1.862-1.862 1.926 1.926 0 0 1-1.862 1.862" transform="translate(-1162.882 -1013.751)" style="fill:#fff"/>
                <path data-name="Path 6967" d="M321.722 555.825h16.148a1.294 1.294 0 0 1 1.29 1.29v9.647a1.294 1.294 0 0 1-1.29 1.29h-16.148a1.294 1.294 0 0 1-1.29-1.29v-9.647a1.294 1.294 0 0 1 1.29-1.29" transform="translate(-294.53 -510.897)" style="fill-rule:evenodd;fill:#fff"/>
                <path data-name="Path 6968" d="m338.139 578.331 6.783 4.544a2.223 2.223 0 0 0 2.234 0l6.783-4.544a.079.079 0 0 0-.078-.137l-6.821 3.286a2.667 2.667 0 0 1-2 0l-6.821-3.286a.079.079 0 0 0-.078.137" transform="translate(-310.773 -531.451)" style="fill-rule:evenodd;fill:#e7edff"/>
                <path data-name="Path 6971" d="M684.707 12.64h11.361a.91.91 0 0 1 .908.908v6.788a.91.91 0 0 1-.908.908h-11.361a.91.91 0 0 1-.908-.908v-6.788a.91.91 0 0 1 .908-.908" transform="translate(-645.757 16.331)" style="fill-rule:evenodd;fill:#e7edff"/>
                <path data-name="Path 6972" d="m696.258 28.475 4.772 3.2a1.564 1.564 0 0 0 1.572 0l4.772-3.2a.055.055 0 0 0-.055-.1l-4.8 2.312a1.876 1.876 0 0 1-1.409 0l-4.8-2.312a.055.055 0 0 0-.055.1" transform="translate(-657.186 1.87)" style="fill:#bac8ff;fill-rule:evenodd"/>
                <path data-name="Path 6973" d="M1511.767 264.219a4.605 4.605 0 1 1-3.256 1.349 4.591 4.591 0 0 1 3.256-1.349m1.44 4.605a1.441 1.441 0 0 0-.96-1.358v-1.579a.48.48 0 1 0-.959 0v1.579a1.444 1.444 0 0 0-.878.878h-1.579a.48.48 0 1 0 0 .96h1.579a1.44 1.44 0 0 0 2.8-.48m-.96 0a.48.48 0 1 0-.48.48.48.48 0 0 0 .48-.48m5.078 0a5.557 5.557 0 1 0-5.557 5.558 5.557 5.557 0 0 0 5.557-5.558" transform="translate(-1384.458 -241.987)" style="fill-rule:evenodd;fill:#fff"/>
            </g>
        </g>
        <g data-name="Group 5039">
            <g data-name="Group 5038" style="clip-path:url(#7q1vshab6f)" transform="translate(145.515 4.307)">
                <path data-name="Rectangle 3476" style="fill:url(#or99rbt7eg)" d="M0 0h26.739v28.706H0z"/>
            </g>
        </g>
        <g data-name="Group 5041">
            <g data-name="Group 5040" style="clip-path:url(#31sjw3elzc)">
                <path data-name="Path 6975" d="m1660.257 4.121-1.657 1.511L1650.664 0z" transform="translate(-1528.508 30.028)" style="fill:#bac8ff"/>
                <path data-name="Path 6976" d="m1662.863 3.14 1.36 3.248L1650.664 0l18.242 2z" transform="translate(-1528.507 30.028)" style="fill:#e7edff"/>
                <path data-name="Path 6977" d="m1736.332 18.326-12.312-.566 6.269 1.7z" transform="translate(-1595.933 13.708)" style="fill:#bac8ff"/>
                <path data-name="Path 6978" d="M701.926 505.732h28a5.862 5.862 0 0 0 5.862-5.862v-58.92a5.862 5.862 0 0 0-5.862-5.862h-28a5.862 5.862 0 0 0-5.862 5.862v58.92a5.862 5.862 0 0 0 5.862 5.862" transform="translate(-639.799 -399.919)" style="fill:#1b4dbc;fill-rule:evenodd"/>
                <path data-name="Path 6979" d="M726.6 505.732h28a5.862 5.862 0 0 0 5.862-5.862v-58.92a5.862 5.862 0 0 0-5.862-5.862h-28a5.862 5.862 0 0 0-5.862 5.862v58.92a5.862 5.862 0 0 0 5.862 5.862" transform="translate(-662.474 -399.919)" style="fill:#2f5ddd;fill-rule:evenodd"/>
                <rect data-name="Rectangle 3477" width="37.229" height="68.152" rx="18.614" transform="translate(59.506 36.416)" style="fill:#4c6ef4"/>
                <path data-name="Path 6980" d="M781.139 463.621v58.919a3.864 3.864 0 0 1-3.868 3.868h-28a3.868 3.868 0 0 1-3.867-3.868v-58.919a3.865 3.865 0 0 1 3.867-3.868h5.229a.781.781 0 0 1 .781.781v.354a1.893 1.893 0 0 0 1.892 1.893h12.194a1.893 1.893 0 0 0 1.892-1.893v-.354a.781.781 0 0 1 .781-.781h5.228a3.868 3.868 0 0 1 3.868 3.868" transform="translate(-685.152 -422.59)" style="fill-rule:evenodd;fill:#e7edff"/>
                <path data-name="Path 6981" d="M908.22 467.328h-10.007a.556.556 0 1 0 0 1.112h10.007a.556.556 0 1 0 0-1.112" transform="translate(-825.096 -429.553)" style="fill:#1b4dbc;fill-rule:evenodd"/>
                <path data-name="Path 6982" d="M704.04 646.622a.234.234 0 0 1-.234-.235v-8.236a.234.234 0 0 1 .234-.234h.274a.234.234 0 0 1 .234.234v8.236a.234.234 0 0 1-.234.235zm.274-10.7a.234.234 0 0 0 .234-.234v-2.638a.234.234 0 0 0-.234-.234h-.274a.234.234 0 0 0-.234.234v2.638a.234.234 0 0 0 .234.234zm0 21.309a.234.234 0 0 0 .234-.234v-8.236a.234.234 0 0 0-.234-.234h-.274a.234.234 0 0 0-.234.234V657a.234.234 0 0 0 .234.234z" transform="translate(-646.915 -581.665)" style="fill:#2f5ddd;fill-rule:evenodd"/>
                <path data-name="Path 6983" d="M826.2 677.113h-.887v-1.135a.049.049 0 0 0-.049-.049h-1.082v-.863a.154.154 0 0 0-.154-.154h-.32a.251.251 0 0 0 .251-.251v-.153a.251.251 0 0 0-.251-.251h-.1a.145.145 0 0 0 .145-.145v-.088a.145.145 0 0 0-.145-.145h-.14V666.1h.279a.079.079 0 0 0 .079-.079v-.669h.166a.064.064 0 0 0 .064-.063v-.559h1.083a.152.152 0 0 0 .152-.152v-.878a.152.152 0 0 0-.152-.152h-.529l-11.8-9.407a.265.265 0 0 0-.33 0l-11.8 9.407h-.559a.152.152 0 0 0-.152.152v.881a.152.152 0 0 0 .152.152h1.255v.559a.063.063 0 0 0 .064.063h.166v.663a.086.086 0 0 0 .085.085h.277v7.772h-.1a.145.145 0 0 0-.145.145v.088a.145.145 0 0 0 .145.145h-.1a.251.251 0 0 0-.251.251v.153a.251.251 0 0 0 .251.251h-.353a.154.154 0 0 0-.154.154v.868h-1.226a.049.049 0 0 0-.049.049v1.135h-.886a.046.046 0 0 0-.047.047v1.139h27.193v-1.14a.046.046 0 0 0-.047-.047m-17.941-3.24h-.111a.145.145 0 0 0-.145.145v.088a.145.145 0 0 0 .145.145h-.1a.251.251 0 0 0-.251.251v.153a.251.251 0 0 0 .251.251h-.347a.154.154 0 0 0-.154.154v.868h-2.225v-.868a.154.154 0 0 0-.154-.154h-.32a.251.251 0 0 0 .251-.251v-.155a.251.251 0 0 0-.251-.251h-.1a.145.145 0 0 0 .145-.145v-.088a.145.145 0 0 0-.145-.145h-.159V666.1h.284a.079.079 0 0 0 .079-.079v-.669h.166a.064.064 0 0 0 .064-.063v-.559h2.483v.559a.063.063 0 0 0 .064.063h.166v.663a.086.086 0 0 0 .085.085h.283zm6.295 0h-.111a.145.145 0 0 0-.145.145v.088a.145.145 0 0 0 .145.145h-.1a.251.251 0 0 0-.251.251v.153a.251.251 0 0 0 .251.251h-.353a.154.154 0 0 0-.154.154v.868H811.6v-.868a.154.154 0 0 0-.154-.154h-.32a.251.251 0 0 0 .251-.251v-.155a.251.251 0 0 0-.251-.251h-.1a.145.145 0 0 0 .145-.145v-.088a.145.145 0 0 0-.145-.145h-.144V666.1h.278a.079.079 0 0 0 .079-.079v-.669h.166a.064.064 0 0 0 .064-.063v-.559h2.488v.559a.063.063 0 0 0 .064.063h.166v.663a.086.086 0 0 0 .085.085h.283zm-1.837-13.047a1.832 1.832 0 1 1 1.835-1.826 1.832 1.832 0 0 1-1.832 1.832m8.131 13.052h-.115a.145.145 0 0 0-.145.145v.088a.145.145 0 0 0 .145.145h-.1a.251.251 0 0 0-.251.251v.153a.251.251 0 0 0 .251.251h-.353a.154.154 0 0 0-.154.154v.863h-2.236v-.868a.154.154 0 0 0-.154-.154h-.32a.251.251 0 0 0 .251-.251v-.161a.251.251 0 0 0-.251-.251h-.1a.145.145 0 0 0 .145-.145v-.088a.145.145 0 0 0-.145-.145h-.144V666.1h.279a.079.079 0 0 0 .079-.079v-.669h.166a.063.063 0 0 0 .064-.063v-.559h2.488v.559a.063.063 0 0 0 .064.063h.166v.663a.086.086 0 0 0 .085.085h.283z" transform="translate(-734.466 -601.211)" style="fill:#95acf4;fill-rule:evenodd"/>
                <path data-name="Path 6984" d="M836.231 1063.862h.974a.31.31 0 0 1 .309.309v1.639a.31.31 0 0 1-.309.309h-.974a.31.31 0 0 1-.309-.309v-1.639a.31.31 0 0 1 .309-.309" transform="translate(-768.352 -977.867)" style="fill:#bac8ff;fill-rule:evenodd"/>
                <path data-name="Path 6985" d="M866.6 1063.862h.974a.31.31 0 0 1 .309.309v1.639a.31.31 0 0 1-.309.309h-.974a.31.31 0 0 1-.309-.309v-1.639a.31.31 0 0 1 .309-.309" transform="translate(-796.269 -977.867)" style="fill:#bac8ff;fill-rule:evenodd"/>
                <path data-name="Path 6986" d="M896.976 1063.862h.974a.31.31 0 0 1 .309.309v1.639a.31.31 0 0 1-.309.309h-.974a.31.31 0 0 1-.309-.309v-1.639a.31.31 0 0 1 .309-.309" transform="translate(-824.186 -977.867)" style="fill:#bac8ff;fill-rule:evenodd"/>
                <path data-name="Path 6987" d="M927.349 1063.862h.974a.31.31 0 0 1 .309.309v1.639a.31.31 0 0 1-.309.309h-.974a.31.31 0 0 1-.309-.309v-1.639a.31.31 0 0 1 .309-.309" transform="translate(-852.104 -977.867)" style="fill:#bac8ff;fill-rule:evenodd"/>
                <path data-name="Path 6988" d="M957.722 1063.862h.974a.31.31 0 0 1 .309.309v1.639a.309.309 0 0 1-.309.309h-.974a.31.31 0 0 1-.309-.309v-1.639a.31.31 0 0 1 .309-.309" transform="translate(-880.022 -977.867)" style="fill:#bac8ff;fill-rule:evenodd"/>
                <path data-name="Path 6989" d="M988.094 1063.862h.974a.31.31 0 0 1 .309.309v1.639a.31.31 0 0 1-.309.309h-.974a.31.31 0 0 1-.309-.309v-1.639a.31.31 0 0 1 .309-.309" transform="translate(-907.939 -977.867)" style="fill:#bac8ff;fill-rule:evenodd"/>
                <path data-name="Path 6990" d="M1018.467 1063.862h.974a.31.31 0 0 1 .309.309v1.639a.31.31 0 0 1-.309.309h-.974a.31.31 0 0 1-.309-.309v-1.639a.31.31 0 0 1 .309-.309" transform="translate(-935.857 -977.867)" style="fill:#bac8ff;fill-rule:evenodd"/>
                <path data-name="Path 6991" d="M1048.839 1063.862h.974a.31.31 0 0 1 .309.309v1.639a.31.31 0 0 1-.309.309h-.974a.31.31 0 0 1-.309-.309v-1.639a.31.31 0 0 1 .309-.309" transform="translate(-963.774 -977.867)" style="fill:#bac8ff;fill-rule:evenodd"/>
                <path data-name="Path 6992" d="M1079.211 1063.862h.974a.31.31 0 0 1 .309.309v1.639a.31.31 0 0 1-.309.309h-.974a.31.31 0 0 1-.309-.309v-1.639a.31.31 0 0 1 .309-.309" transform="translate(-991.691 -977.867)" style="fill:#bac8ff;fill-rule:evenodd"/>
                <path data-name="Path 6993" d="M829.416 1049.174h-21.059a2.6 2.6 0 0 1-2.591-2.592v-.341a2.594 2.594 0 0 1 2.591-2.591h21.058a2.594 2.594 0 0 1 2.592 2.591v.341a2.6 2.6 0 0 1-2.592 2.592m-21.058-4.692a1.762 1.762 0 0 0-1.76 1.76v.341a1.762 1.762 0 0 0 1.76 1.76h21.058a1.762 1.762 0 0 0 1.76-1.76v-.341a1.762 1.762 0 0 0-1.76-1.76z" transform="translate(-740.633 -959.289)" style="fill:#bac8ff"/>
                <path data-name="Path 6994" d="M917.927 1145.834a4.407 4.407 0 1 0 4.224 3.136.138.138 0 0 0-.229-.058l-.453.453a.134.134 0 0 0-.037.126 3.585 3.585 0 1 1-1.3-2.075.137.137 0 0 0 .182-.011l.393-.393a.138.138 0 0 0-.011-.2 4.391 4.391 0 0 0-2.765-.974" transform="translate(-839.673 -1053.213)" style="fill:#bac8ff;fill-rule:evenodd"/>
                <path data-name="Path 6995" d="M937.551 1162.2a.551.551 0 0 1 .78-.78l1.54 1.54 3.47-3.469a.551.551 0 0 1 .78.78l-3.859 3.859a.551.551 0 0 1-.78 0z" transform="translate(-861.617 -1065.62)" style="fill:#e64980;fill-rule:evenodd"/>
                <path data-name="Path 6996" d="M832.8 989.293h-25.312a.358.358 0 0 1-.347-.24.352.352 0 0 1 .334-.462h25.3a.366.366 0 0 1 .373.335.351.351 0 0 1-.35.366" transform="translate(-741.882 -908.681)" style="fill:#bac8ff;fill-rule:evenodd"/>
                <path data-name="Path 6997" d="M1935.278 1029.634a22.135 22.135 0 1 1-1.681-31.258 22.134 22.134 0 0 1 1.681 31.258" transform="translate(-1743.359 -912.467)" style="fill:#ffd43b"/>
                <path data-name="Path 6998" d="M1949.012 1070.92q-.346-.282-.681-.583a18.453 18.453 0 1 1 .681.583m22.916-28.173a17.854 17.854 0 1 0 2.022 25.782l.226.2-.226-.2a17.874 17.874 0 0 0-1.356-25.212q-.327-.294-.666-.57" transform="translate(-1785.216 -954.222)" style="fill:#fab005"/>
                <path data-name="Path 6999" d="M1924.484 1049.392a20.444 20.444 0 1 1 28.87-1.553 20.467 20.467 0 0 1-28.87 1.553m26.936-30a19.872 19.872 0 1 0 1.51 28.063 19.895 19.895 0 0 0-1.51-28.063" transform="translate(-1762.693 -931.802)" style="fill:#fab005"/>
                <path data-name="Path 7000" d="M2043.311 1117.337c2.1-7.2-9.1-10.3-8.449-12.51.243-.831 1.082-1.057 2.505-.642a8.791 8.791 0 0 1 4.336 2.906.868.868 0 0 0 1.121.15l3.133-2.044a.87.87 0 0 0 .264-1.184 11.19 11.19 0 0 0-4.969-4.465l.29-.992a.868.868 0 0 0-.59-1.076l-2.763-.807a.868.868 0 0 0-1.076.59l-.312 1.068c-4.279-.488-7.442 1.236-8.449 4.683-2.171 7.434 9.119 10.216 8.333 12.905-.231.791-1.1.967-2.561.54a13.2 13.2 0 0 1-5.782-3.842.866.866 0 0 0-1.187-.042l-3.057 2.675a.867.867 0 0 0-.124 1.174 15.917 15.917 0 0 0 6.171 4.7l-.324 1.109a.868.868 0 0 0 .59 1.076l2.763.807a.868.868 0 0 0 1.076-.59l.378-1.293c4.675.449 7.726-1.617 8.681-4.89" transform="translate(-1860.212 -1007.992)" style="fill:#fab005"/>
                <path data-name="Path 7004" d="m833.352 253.435-.024 10.047h10.9l-.014-10.075a5.446 5.446 0 0 0-10.86.027" transform="translate(-765.967 -228.313)" style="fill:#bac8ff"/>
                <path data-name="Path 7006" d="m1452.657 859.985 4.186 8.507a1.681 1.681 0 0 1 .173.741l.012 10.4a1.677 1.677 0 0 0 .224.837c.706 1.218 3 4.775 5.711 4.769l15.576-.036a1.682 1.682 0 0 0 1.678-1.684l-.026-22.6c0-1.887-2.214-3.412-4.94-3.406l-21.09.049a1.682 1.682 0 0 0-1.505 2.425" transform="translate(-1335.073 -788.196)" style="fill:#fff"/>
                <path data-name="Path 7008" d="m1249.623 858.331-.086 5.3-.011.669-.019 1.152-.011.669-.04 2.458a5.07 5.07 0 0 1-5.238 4.872h-.371a5.056 5.056 0 0 1-5.251-4.847l-.014-10.247z" transform="translate(-1138.464 -788.95)" style="fill:#fff"/>
                <path data-name="Path 7009" d="M1612.549 1120.164a5.262 5.262 0 0 1 .077.889 5.893 5.893 0 0 1-6.089 5.664l-23.39.056-.009-6.494z" transform="translate(-1455.167 -1029.618)" style="fill:#bac8ff"/>
                <path data-name="Path 7010" d="M1520.852 1067.856v.231a6.105 6.105 0 1 1-6.1-5.865 6.122 6.122 0 0 1 5.593 3.375 5.34 5.34 0 0 1 .264.669 5.259 5.259 0 0 1 .229 1.152c.012.144.018.291.018.438" transform="translate(-1386.708 -976.359)" style="fill:#fff"/>
                <path data-name="Path 7016" d="M1309.368 658.416h-13.539a.36.36 0 0 1-.36-.36v-.422a.36.36 0 0 1 .36-.36h13.539a.36.36 0 0 1 .36.36v.422a.36.36 0 0 1-.36.36" transform="translate(-1190.752 -604.145)" style="fill:#bac8ff"/>
                <path data-name="Path 7017" d="M1309.368 695.146h-13.539a.36.36 0 0 1-.36-.36v-.422a.36.36 0 0 1 .36-.36h13.539a.36.36 0 0 1 .36.36v.422a.36.36 0 0 1-.36.36" transform="translate(-1190.752 -637.906)" style="fill:#bac8ff"/>
                <path data-name="Path 7018" d="M1309.368 731.876h-13.539a.36.36 0 0 1-.36-.36v-.422a.36.36 0 0 1 .36-.36h13.539a.36.36 0 0 1 .36.36v.422a.36.36 0 0 1-.36.36" transform="translate(-1190.752 -671.667)" style="fill:#bac8ff"/>
                <path data-name="Path 7019" d="M1309.368 769.779h-13.539a.36.36 0 0 1-.36-.36V769a.36.36 0 0 1 .36-.36h13.539a.36.36 0 0 1 .36.36v.422a.36.36 0 0 1-.36.36" transform="translate(-1190.752 -706.506)" style="fill:#bac8ff"/>
                <path data-name="Path 7020" d="M1574.457 986.269h-8.3a.36.36 0 0 1-.36-.36v-.422a.36.36 0 0 1 .36-.36h8.3a.36.36 0 0 1 .36.36v.422a.36.36 0 0 1-.36.36" transform="translate(-1439.227 -905.496)" style="fill:#bac8ff"/>
                <path data-name="Path 7021" d="M1579.7 942.484h-13.539a.36.36 0 0 1-.36-.36v-.424a.36.36 0 0 1 .36-.36h13.539a.36.36 0 0 1 .36.36v.422a.36.36 0 0 1-.36.36" transform="translate(-1439.227 -865.25)" style="fill:#bac8ff"/>
                <path data-name="Path 7022" d="M1542.385 811.624a2.289 2.289 0 0 1-3.29.239l-17.432-15.663 1.792-2.153 18.568 14.3a2.289 2.289 0 0 1 .363 3.278" transform="translate(-1398.662 -729.863)" style="fill:#e64980"/>
                <path data-name="Path 7023" d="M1542.692 826.132a2.289 2.289 0 0 1-3.793 1.357l-16.685-14.99-.55.661 17.433 15.662a2.289 2.289 0 0 0 3.595-2.691" transform="translate(-1398.663 -746.823)" style="fill:#c11f61"/>
                <path data-name="Path 7024" d="m1507.155 778.132-1.9 2.279a.753.753 0 0 1-1.061.1l-.5-.414 2.86-3.437.5.414a.753.753 0 0 1 .1 1.061" transform="translate(-1382.151 -713.878)" style="fill:#d6336c"/>
                <path data-name="Path 7025" d="M1282.43 560.787a11.923 11.923 0 1 0 1.538 16.792 11.923 11.923 0 0 0-1.538-16.792m-.634 14.984a9.1 9.1 0 1 1-1.173-12.812 9.1 9.1 0 0 1 1.173 12.812" transform="translate(-1160.797 -512.921)" style="fill:#e64980"/>
                <path data-name="Path 7026" d="M1297.718 587.98a9.1 9.1 0 0 1 15.666 3.077 9.1 9.1 0 1 0-17.543 4.756 9.081 9.081 0 0 1 1.878-7.833" transform="translate(-1190.704 -536.769)" style="fill:#c11f61"/>
                <path data-name="Path 7027" d="M1289.875 662.433a11.924 11.924 0 0 1-23 6.24 11.924 11.924 0 1 0 23-6.24" transform="translate(-1164.465 -608.887)" style="fill:#c11f61"/>
                <path data-name="Path 7028" d="m1750.59 1523.124-.691 1.394s-1.807.018-2.249 0a.123.123 0 0 1-.073-.218 11.345 11.345 0 0 1 3.013-1.177" transform="translate(-1606.273 -1400.005)" style="fill:#212529"/>
                <path data-name="Path 7029" d="M2029.988 1525.165a9.385 9.385 0 0 1 2.637-1.1l-.427 1.318s-1.695.018-2.136 0a.123.123 0 0 1-.073-.218" transform="translate(-1865.856 -1400.869)" style="fill:#212529"/>
                <path data-name="Path 7030" d="M1934.217 554.229c-.265.14-.981-1.077-1.169-.936.006.565-.658.637-.444 1.173l1.613-.237" transform="translate(-1776.346 -508.559)" style="fill:#ff8787"/>
                <path data-name="Path 7031" d="M1937.016 541.185a7.2 7.2 0 0 1 .288 1.961c-.031.61 2.177.332 2.083-.306-.054-.365-.546-2.11-.546-2.11z" transform="translate(-1780.44 -497.021)" style="fill:#ffa8a8"/>
                <path data-name="Path 7032" d="M1914.75 482.8c-.976-.7-2.094-2.6-1.3-3.474-.688-.672-.477-1.331.006-1.43.254.863 2.146-.11 3.212.492a2.3 2.3 0 0 1 1.15 2.021c.7-.1.763.565.726.874-.058.483-.368 2.667-3.6 3.181-.278-.031-.189-1.664-.189-1.664" transform="translate(-1758.37 -439.269)" style="fill:#212529"/>
                <path data-name="Path 7033" d="M1926.381 518.823c.353.05.618.928.632 1.687 0 .023.015.039.022.022.047-.107.312-.31.43-.13.233.356-.374 2.328-.789 2.389-.358.052-.892-4.054-.3-3.969" transform="translate(-1770.418 -476.884)" style="fill:#ffa8a8"/>
                <path data-name="Path 7034" d="M2094.079 644.937s5.663 6.6 0 11.861c0 0 .379 2.88 1.761 2.188s-.124-1.728-.124-1.728 14.757-9.029 5.342-19.827z" transform="translate(-1924.807 -585.906)" style="fill:#ffa8a8"/>
                <path data-name="Path 7035" d="M2094.079 711.194s8-3.129 4.214-12.31a4.275 4.275 0 0 0-1.682-2.274l-2.531 2.723s5.663 6.6 0 11.861" transform="translate(-1924.807 -640.301)" style="fill:#ff8787"/>
                <path data-name="Path 7036" d="M1953.975 567.792s14.055-.842 20 5.7a.365.365 0 0 1 .069.376 19.233 19.233 0 0 1-8 9.2.439.439 0 0 1-.447 0l-5.571-3.292z" transform="translate(-1796.029 -521.864)" style="fill:#2f5ddd"/>
                <path data-name="Path 7037" d="m2020.03 645.388 1.193 6.024 5.1 3.011a.44.44 0 0 0 .448 0 19.5 19.5 0 0 0 3.463-2.622c-3.385-5.05-10.2-6.414-10.2-6.414" transform="translate(-1856.744 -593.22)" style="fill:#1b4dbc"/>
                <path data-name="Path 7038" d="M1965.3 846.366s3.687 11.556-.461 20.84c0 0 8 11.951-2.469 35.259 0 0-.1-16.691-4.247-25.284s-4.148-29.136-4.148-29.136z" transform="translate(-1796.029 -777.952)" style="fill:#393f44"/>
                <path data-name="Path 7039" d="M1964.857 924.342c-7.682-15.666-1.235-19.358-3.581-27.259-.673-2.267-3.18-1.117-5.938 1.067.259 6.571 1.127 18.484 4.038 24.513 4.148 8.593 4.247 25.284 4.247 25.284s4.283-17.388 1.235-23.6" transform="translate(-1797.281 -823.433)" style="fill:#212529"/>
                <path data-name="Path 7040" d="M1784.907 839.035a119.132 119.132 0 0 0-2.864 27.753c.3 15.012-5.235 28.938-5.235 28.938s19.259-12.247 14.321-33.877a49.959 49.959 0 0 0 6.42-21.235z" transform="translate(-1633.182 -771.213)" style="fill:#393f44"/>
                <path data-name="Path 7041" d="M1786.388 873.585c-1.284-13.63 3.14-29.429 3.14-29.429l-4.669-2.669a119.834 119.834 0 0 0-2.817 27.555c.3 15.012-5.235 28.938-5.235 28.938s10.864-10.766 9.58-24.4" transform="translate(-1633.182 -773.467)" style="fill:#212529"/>
                <path data-name="Path 7042" d="M1595.079 699.168s-7.374 8.837-11.654 12c0 0-2.206 1.434-.988 2.38s1.58-.766 1.58-.766 8.823 2.008 17.12-5.7z" transform="translate(-1454.186 -642.652)" style="fill:#ffa8a8"/>
                <path data-name="Path 7043" d="m1623.276 759.492-2.53-3.306a7.064 7.064 0 0 0-.795.771c-4.905 5.5-13.794 8.23-13.794 8.23s8.823 2.008 17.119-5.7" transform="translate(-1476.326 -695.061)" style="fill:#ff8787"/>
                <path data-name="Path 7044" d="M1872.107 568.194s9.035 7.02 11.8 23.191a.359.359 0 0 1-.256.406c-1.828.519-11.4 2.972-18.563-.315a.312.312 0 0 1-.173-.347c.378-1.812 2.9-13.431 7.193-22.935" transform="translate(-1714.161 -522.265)" style="fill:#2f5ddd"/>
                <path data-name="Path 7045" d="m1871.791 725-4.306.13a138.753 138.753 0 0 0-2.571 10.13.312.312 0 0 0 .173.347 18.575 18.575 0 0 0 5.419 1.479z" transform="translate(-1714.161 -666.393)" style="fill:#1b4dbc"/>
                <path data-name="Path 7046" d="M1717.53 579.026a31.02 31.02 0 0 1 19.036-10.832l.988 12.774-11.208 8.218a.688.688 0 0 1-.581.11c-1.276-.332-5.91-2.055-8.3-9.912a.4.4 0 0 1 .066-.359" transform="translate(-1578.619 -522.265)" style="fill:#2f5ddd"/>
                <path data-name="Path 7047" d="M269.073 1285.109c0 13.634 14.338 20.219 15.163 20.586a.187.187 0 0 0 .077.016h3.444a.19.19 0 0 0 .182-.133 47.571 47.571 0 0 0 1.556-6.508c.026-.177-18.72-10.1-20.423-13.962" transform="translate(-247.323 -1181.23)" style="fill:#fbb2cc"/>
                <path data-name="Path 7048" d="M542.153 1285.109c0 13.634-14.338 20.219-15.163 20.586a.187.187 0 0 1-.077.016h-3.444a.19.19 0 0 1-.182-.133 47.567 47.567 0 0 1-1.556-6.508c-.026-.177 18.72-10.1 20.423-13.962" transform="translate(-479.556 -1181.23)" style="fill:#fbb2cc"/>
                <path data-name="Path 7049" d="M294.8 963.406a21.881 21.881 0 1 1-21.881-21.881 21.881 21.881 0 0 1 21.881 21.881" transform="translate(-230.749 -865.419)" style="fill:#fed0e1"/>
                <path data-name="Path 7050" d="M451.617 1177.227s-1.54-.459-6.166 1.482c1.458.485 2.364 4.584 6.166 4.584s4.708-4.1 6.166-4.584c-4.626-1.941-6.166-1.482-6.166-1.482" transform="translate(-409.444 -1082.025)" style="fill:#f783ac"/>
                <path data-name="Path 7051" d="M471.443 1146.435c-2.442 0-4.422 1.527-4.422 3.41s1.98 3.41 4.422 3.41 4.422-1.527 4.422-3.41-1.98-3.41-4.422-3.41" transform="translate(-429.27 -1053.765)" style="fill:#f474a1"/>
                <path data-name="Path 7052" d="M421.335 1060.656c-4.876 0-8.829 3.531-8.829 7.886a3.41 3.41 0 0 0 3.287 3.692c1.986 0 3.235-1.417 5.542-1.417s3.555 1.417 5.542 1.417a3.41 3.41 0 0 0 3.287-3.692c0-4.355-3.953-7.886-8.829-7.886" transform="translate(-379.162 -974.92)" style="fill:#fbb2cc"/>
                <path data-name="Path 7053" d="M473.309 1088.149c-.528-.3-1.334.121-1.8.941s-.417 1.729.111 2.029 1.334-.121 1.8-.941.417-1.729-.111-2.029" transform="translate(-433.101 -1000.102)" style="fill:#f783ac"/>
                <path data-name="Path 7054" d="M541.131 1088.149c.528-.3 1.334.121 1.8.941s.417 1.729-.111 2.029-1.334-.121-1.8-.941-.417-1.729.111-2.029" transform="translate(-496.994 -1000.102)" style="fill:#f783ac"/>
                <path data-name="Path 7055" d="M294.567 1172.328c-5.375 0-4.974 18.235-21.644 18.235s-16.269-18.235-21.644-18.235a21.881 21.881 0 1 0 43.287 0" transform="translate(-230.75 -1077.565)" style="fill:#fcc2d7"/>
                <path data-name="Path 7056" d="M432.111 1063.5c-.153-1.116 1.517-2.17 2.9-1.593a4.808 4.808 0 0 0-2.9 1.593" transform="translate(-397.173 -975.924)" style="fill:#f783ac"/>
                <path data-name="Path 7057" d="M578.241 1063.5c.153-1.116-1.517-2.17-2.9-1.593a4.809 4.809 0 0 1 2.9 1.593" transform="translate(-528.832 -975.924)" style="fill:#f783ac"/>
                <path data-name="Path 7058" d="M278.227 965.323a21.949 21.949 0 0 0-11.641 12.636c3.965-2.594 7.733-1.279 10.65-3.246 1.647-1.11 2.609-5.909.991-9.39" transform="translate(-245.037 -887.293)" style="fill:#fcc2d7"/>
                <path data-name="Path 7059" d="M624.385 974.713c2.917 1.967 6.685.652 10.65 3.246a21.949 21.949 0 0 0-11.641-12.636c-1.618 3.481-.656 8.279.991 9.39" transform="translate(-572.237 -887.293)" style="fill:#fcc2d7"/>
                <path data-name="Path 7060" d="M263.586 938.959c3.71 1.855 8.627-.227 9.687-1.362s1.281-8.172-.076-9.384c-2.119-1.892-13.546 8.778-9.611 10.746" transform="translate(-241.528 -852.978)" style="fill:#fed0e1"/>
                <path data-name="Path 7061" d="M650.541 938.959c-3.71 1.855-8.627-.227-9.687-1.362s-1.281-8.172.076-9.384c2.119-1.892 13.546 8.778 9.611 10.746" transform="translate(-588.253 -852.978)" style="fill:#fed0e1"/>
                <path data-name="Path 7062" d="M322.156 1119.616c-1.2.31-1.692 2.1-1.1 3.993s2.042 3.18 3.241 2.87 1.692-2.1 1.1-3.993-2.042-3.18-3.241-2.87" transform="translate(-294.874 -1029.071)" style="fill:#fbb2cc"/>
                <path data-name="Path 7063" d="M666.243 1119.616c1.2.31 1.692 2.1 1.1 3.993s-2.042 3.18-3.241 2.87-1.692-2.1-1.1-3.993 2.042-3.18 3.241-2.87" transform="translate(-609.179 -1029.071)" style="fill:#fbb2cc"/>
                <path data-name="Path 7064" d="M400.071 1506.853a29.821 29.821 0 0 0 4.574 2.662.187.187 0 0 0 .077.016h3.444a.19.19 0 0 0 .182-.133c.057-.181.168-.541.308-1.024 0-.915-.945-1.369-1.739-1.369-1.447 0-3.036 1.334-6.847-.153" transform="translate(-367.732 -1385.049)" style="fill:#faa2c1"/>
                <path data-name="Path 7065" d="M545.757 1506.853a29.825 29.825 0 0 1-4.574 2.662.188.188 0 0 1-.077.016h-3.444a.19.19 0 0 1-.182-.133 48.345 48.345 0 0 1-.308-1.024c0-.915.945-1.369 1.739-1.369 1.447 0 3.036 1.334 6.847-.153" transform="translate(-493.75 -1385.049)" style="fill:#faa2c1"/>
                <path data-name="Path 7066" d="M1394.706 1536.122h-.936a.137.137 0 0 1-.137-.137v-.245h1.21v.245a.137.137 0 0 1-.137.138" transform="translate(-1280.981 -1411.601)" style="fill:#1b4dbc"/>
                <path data-name="Path 7067" d="M1666.6 1536.122h-.935a.138.138 0 0 1-.138-.137v-.245h1.211v.245a.138.138 0 0 1-.138.138" transform="translate(-1530.901 -1411.601)" style="fill:#1b4dbc"/>
                <path data-name="Path 7068" d="M1397.826 1306.283h-23.718a1.429 1.429 0 0 1-1.429-1.429v-16.766a2.076 2.076 0 0 1 2.076-2.076h22.426a2.076 2.076 0 0 1 2.075 2.076v16.766a1.429 1.429 0 0 1-1.429 1.429" transform="translate(-1261.721 -1182.061)" style="fill:#4c6ef4"/>
                <path data-name="Path 7069" d="M1374.232 1407.924h23.417a1.948 1.948 0 0 0 1.606-.844v-4.346c-6.684 5.031-19.346-3.733-26.577.892v3.527a1.949 1.949 0 0 0 1.554.771" transform="translate(-1261.72 -1288.881)" style="fill:#2b59c1"/>
                <path data-name="Path 7070" d="M1392.552 1300.338h-22.267a2.526 2.526 0 0 1-2.526-2.526v-11.479a.321.321 0 0 1 .321-.321h26.678a.321.321 0 0 1 .321.321v11.479a2.526 2.526 0 0 1-2.526 2.526" transform="translate(-1257.198 -1182.061)" style="fill:#4c6ef4"/>
                <path data-name="Path 7071" d="M1367.759 1366.024v3.018a1.951 1.951 0 0 0 1.951 1.951h23.417a1.951 1.951 0 0 0 1.951-1.951v-4.589a6.967 6.967 0 0 1-5.941 2.964c-5.607 0-9.513-4.535-15.247-4.535a7.117 7.117 0 0 0-6.132 3.143" transform="translate(-1257.198 -1252.715)" style="fill:#3e65e5"/>
                <path data-name="Path 7072" d="M1622.061 1448.22h-.907a.775.775 0 0 1-.775-.775v-3.508a.115.115 0 0 1 .115-.116h2.227a.116.116 0 0 1 .116.116v3.508a.775.775 0 0 1-.775.775" transform="translate(-1489.397 -1327.112)" style="fill:#1b4dbc"/>
                <path data-name="Path 7073" d="M1625.7 1468.842h.038a.849.849 0 0 0 .849-.849v-1.1a.248.248 0 0 0-.248-.248h-1.24a.248.248 0 0 0-.248.248v1.1a.849.849 0 0 0 .849.849" transform="translate(-1493.504 -1348.095)" style="fill:#5f85ff"/>
                <path data-name="Path 7074" d="M1425.032 1448.22h-.908a.775.775 0 0 1-.775-.775v-3.508a.116.116 0 0 1 .116-.116h2.227a.115.115 0 0 1 .115.116v3.508a.775.775 0 0 1-.775.775" transform="translate(-1308.295 -1327.112)" style="fill:#1b4dbc"/>
                <path data-name="Path 7075" d="M1428.666 1468.842h.037a.849.849 0 0 0 .849-.849v-1.1a.248.248 0 0 0-.248-.248h-1.24a.248.248 0 0 0-.248.248v1.1a.849.849 0 0 0 .849.849" transform="translate(-1312.402 -1348.095)" style="fill:#5f85ff"/>
                <path data-name="Path 7076" d="M1434.158 1275.389h2.654v-.934h-2.179a.475.475 0 0 0-.475.475z" transform="translate(-1318.23 -1171.437)" style="fill:#5f85ff"/>
                <path data-name="Path 7077" d="M1609.147 1275.389h-2.654v-.934h2.179a.475.475 0 0 1 .475.475z" transform="translate(-1476.635 -1171.437)" style="fill:#5f85ff"/>
                <path data-name="Path 7078" d="M1472.635 1256.335a11.53 11.53 0 0 0-5.635 1.465v.934a18.281 18.281 0 0 1 11.276 0v-.934a11.531 11.531 0 0 0-5.638-1.465" transform="translate(-1348.415 -1154.781)" style="fill:#2f5ddd"/>
                <path data-name="Path 7079" d="M1467 1268.65v.467a18.278 18.278 0 0 1 11.276 0v-.467a16.109 16.109 0 0 0-11.276 0" transform="translate(-1348.415 -1165.164)" style="fill:#1b4dbc"/>
                <path data-name="Path 7080" d="M801.127 548.077a4.028 4.028 0 0 0 0-.912l-.584-.172a3.429 3.429 0 0 0-.28-.864l.371-.482a4.025 4.025 0 0 0-.536-.737l-.572.2a3.467 3.467 0 0 0-.736-.536l.017-.606a3.986 3.986 0 0 0-.867-.281l-.343.5a3.5 3.5 0 0 0-.911 0l-.343-.5a3.989 3.989 0 0 0-.867.281l.017.606a3.471 3.471 0 0 0-.736.536l-.572-.2a4.016 4.016 0 0 0-.536.737l.371.482a3.427 3.427 0 0 0-.28.864l-.584.172a4.009 4.009 0 0 0 0 .912l.585.172a3.432 3.432 0 0 0 .28.862l-.372.484a4.016 4.016 0 0 0 .536.737l.577-.205a3.462 3.462 0 0 0 .731.531l-.017.613a3.989 3.989 0 0 0 .867.281l.347-.506a3.493 3.493 0 0 0 .9 0l.347.506a3.985 3.985 0 0 0 .867-.281l-.017-.613a3.462 3.462 0 0 0 .731-.531l.577.205a4.025 4.025 0 0 0 .536-.737l-.373-.484a3.434 3.434 0 0 0 .28-.862zM797.2 549.3a1.681 1.681 0 1 1 1.625-1.625 1.681 1.681 0 0 1-1.625 1.625" transform="translate(-729.02 -499.742)" style="fill:#bac8ff"/>
            </g>
        </g>
    </g>
</svg>
