<svg data-name="Group 7516" xmlns="http://www.w3.org/2000/svg" width="221.343" height="98.943" viewBox="0 0 221.343 98.943">
    <defs>
        <clipPath id="irr8sef36a">
            <path data-name="Rectangle 4563" style="fill:none" d="M0 0h221.343v98.943H0z"/>
        </clipPath>
        <clipPath id="ledyyyi1hb">
            <path data-name="Path 9397" d="M51.823 141.083a15.69 15.69 0 1 0 15.69-15.69 15.69 15.69 0 0 0-15.69 15.69" transform="translate(-51.823 -125.393)" style="fill:none"/>
        </clipPath>
        <clipPath id="8698jxvltc">
            <path data-name="Path 9413" d="M196.906 141.083a15.69 15.69 0 1 0 15.69-15.69 15.69 15.69 0 0 0-15.69 15.69" transform="translate(-196.906 -125.393)" style="fill:none"/>
        </clipPath>
        <clipPath id="jvy75t6s1d">
            <path data-name="Path 9432" d="M341.99 141.083a15.69 15.69 0 1 0 15.69-15.69 15.69 15.69 0 0 0-15.69 15.69" transform="translate(-341.99 -125.393)" style="fill:none"/>
        </clipPath>
        <clipPath id="wbmrkqnlbe">
            <path data-name="Path 9451" d="M487.073 141.083a15.69 15.69 0 1 0 15.69-15.69 15.69 15.69 0 0 0-15.69 15.69" transform="translate(-487.073 -125.393)" style="fill:none"/>
        </clipPath>
        <clipPath id="b5srh4422f">
            <path data-name="Path 9467" d="M632.156 141.083a15.69 15.69 0 1 0 15.69-15.69 15.69 15.69 0 0 0-15.69 15.69" transform="translate(-632.156 -125.393)" style="fill:none"/>
        </clipPath>
    </defs>
    <g data-name="Group 7495">
        <g data-name="Group 7494" style="clip-path:url(#irr8sef36a)">
            <path data-name="Path 9374" d="M103.985 125.893h-1.073q0-.276.007-.55l1.072.027q-.006.261-.006.523" transform="translate(-75.31 -91.725)" style="fill:#282d33"/>
            <path data-name="Path 9375" d="m104.211 67.313-1.07-.081c.027-.363.064-.727.109-1.081l1.065.135c-.043.336-.078.682-.1 1.027m40.65-.019a27.64 27.64 0 0 0-.1-1.027l1.065-.135c.046.359.083.723.11 1.081zm-40.391-2.029-1.056-.189c.063-.353.137-.711.218-1.064l1.046.241c-.077.336-.147.676-.207 1.012m40.13-.019c-.06-.337-.13-.677-.208-1.011l1.045-.243c.082.351.156.709.219 1.064zm-39.665-1.992-1.032-.3c.1-.348.209-.7.326-1.039l1.015.347c-.111.325-.215.657-.31.987m39.2-.018c-.094-.329-.2-.66-.309-.985l1.015-.348c.117.341.227.69.326 1.037zM105.6 61.3l-1-.4c.134-.335.279-.672.43-1l.974.449c-.143.312-.281.631-.408.95m37.859-.014a20.56 20.56 0 0 0-.407-.946l.974-.45c.152.329.3.664.429 1zm-36.995-1.864-.95-.5c.168-.319.346-.639.529-.95l.924.545c-.174.3-.344.6-.5.9m36.132-.007c-.158-.3-.327-.6-.5-.9l.924-.546c.184.311.362.63.528.948zm-35.081-1.772-.895-.592c.2-.3.408-.6.622-.892l.864.636c-.2.277-.4.562-.592.847m34.033 0a20.733 20.733 0 0 0-.591-.846l.864-.636c.215.292.424.591.621.89zm-32.808-1.661-.831-.679c.229-.279.467-.557.709-.824l.8.72c-.23.254-.457.517-.673.783m31.585 0a21.986 21.986 0 0 0-.673-.783l.8-.72c.241.267.479.544.708.823zm-1.384-1.53a20.913 20.913 0 0 0-.749-.711l.719-.8c.267.242.533.494.788.748zm-28.815 0-.758-.759c.255-.255.52-.507.787-.748l.719.8c-.254.23-.506.469-.749.711m1.532-1.384-.678-.831c.279-.227.568-.451.859-.665l.635.865c-.277.2-.551.416-.816.632m25.75 0a19.78 19.78 0 0 0-.817-.632l.635-.864c.29.213.58.437.859.666zm-24.088-1.221-.591-.9c.3-.2.611-.392.921-.575l.545.925c-.294.173-.589.357-.875.546m22.424 0a22.396 22.396 0 0 0-.877-.547l.545-.925c.31.183.62.377.923.576zM115.1 50.8l-.5-.951c.319-.167.646-.328.974-.478l.448.975c-.311.143-.622.3-.925.454m18.868 0a20.94 20.94 0 0 0-.928-.456l.448-.975c.327.15.655.311.977.479zm-17-.858-.4-1c.334-.134.676-.26 1.017-.377l.347 1.015c-.323.111-.648.231-.965.358m15.117-.005a21.304 21.304 0 0 0-.97-.359l.346-1.015c.342.116.685.244 1.021.378zm-13.167-.662-.3-1.032c.347-.1.7-.19 1.052-.272l.242 1.045c-.334.078-.67.164-1 .258m11.212 0a19.029 19.029 0 0 0-1-.257l.241-1.045c.352.081.706.172 1.052.271zm-9.2-.46-.189-1.056c.354-.063.716-.118 1.074-.164l.135 1.065c-.341.043-.684.1-1.021.156m7.191 0c-.337-.06-.68-.112-1.021-.154l.134-1.065c.359.045.72.1 1.074.163zm-5.143-.256-.081-1.07c.359-.027.723-.045 1.085-.054l.027 1.072a20.78 20.78 0 0 0-1.032.052m3.1 0a20.741 20.741 0 0 0-1.031-.051l.026-1.073c.362.009.727.027 1.085.054z" transform="translate(-75.477 -34.7)" style="fill:#282d33"/>
            <path data-name="Path 9376" d="M259.967 125.893h-1.073q0-.262-.006-.523l1.072-.027q.007.274.007.55" transform="translate(-189.451 -91.725)" style="fill:#282d33"/>
        </g>
    </g>
    <g data-name="Group 7497">
        <g data-name="Group 7496" style="clip-path:url(#ledyyyi1hb)" transform="translate(13.9 33.632)">
            <path data-name="Path 9377" d="M71.657 227.473v-1.483a3.077 3.077 0 0 1 3.247-2.873h14.248a3.077 3.077 0 0 1 3.248 2.873v1.482" transform="translate(-66.337 -196.906)" style="fill:#5eb4e7"/>
            <path data-name="Path 9378" d="M91.471 226.009H90.4v-1.482a2.547 2.547 0 0 0-2.709-2.337H73.44a2.547 2.547 0 0 0-2.711 2.337v1.482h-1.072v-1.482a3.615 3.615 0 0 1 3.783-3.41h14.249a3.615 3.615 0 0 1 3.782 3.41z" transform="translate(-64.874 -195.443)" style="fill:#282d33"/>
            <path data-name="Path 9379" d="M85.657 231.375v-1a2 2 0 0 1 2.071-1.93h9.089a2 2 0 0 1 2.071 1.93v1" transform="translate(-76.582 -200.809)" style="fill:#fff"/>
            <path data-name="Path 9380" d="M97.961 229.912h-1.073v-1a1.471 1.471 0 0 0-1.534-1.393h-9.089a1.471 1.471 0 0 0-1.535 1.393v1h-1.073v-1a2.543 2.543 0 0 1 2.608-2.466h9.089a2.542 2.542 0 0 1 2.607 2.466z" transform="translate(-75.119 -199.345)" style="fill:#282d33"/>
            <path data-name="Path 9381" d="M98.888 226.543c2.458 0 4.175-1.13 4.175-2.747v-.678h-8.35v.678c0 1.618 1.717 2.747 4.175 2.747" transform="translate(-83.209 -196.906)" style="fill:#5eb4e7"/>
            <path data-name="Path 9382" d="M97.424 225.615c-2.774 0-4.711-1.35-4.711-3.284v-1.215h9.423v1.215c0 1.933-1.938 3.284-4.711 3.284m-3.638-3.426v.142c0 1.3 1.5 2.211 3.638 2.211s3.639-.909 3.639-2.211v-.142z" transform="translate(-81.746 -195.443)" style="fill:#282d33"/>
            <path data-name="Path 9383" d="M103.278 207.057c-1.417 0-2.565-.51-2.565-1.138v-6.092c0-.628 1.149-1.138 2.565-1.138s2.565.51 2.565 1.138v6.092c0 .628-1.149 1.138-2.565 1.138" transform="translate(-87.6 -179.03)" style="fill:#fff"/>
            <path data-name="Path 9384" d="M101.815 206.13c-1.541 0-3.1-.575-3.1-1.675v-6.092c0-1.1 1.56-1.674 3.1-1.674s3.1.575 3.1 1.674v6.092c0 1.1-1.56 1.675-3.1 1.675m0-8.368c-1.326 0-2 .459-2.029.605v6.088c.032.143.7.6 2.029.6s2-.459 2.029-.605v-6.089c-.032-.142-.7-.6-2.029-.6" transform="translate(-86.137 -177.567)" style="fill:#282d33"/>
            <path data-name="Path 9385" d="M99.429 166.749c0 1.777-1.978 5.9-3.755 5.9h-5.1c-1.777 0-3.755-4.123-3.755-5.9v-6.839a3.219 3.219 0 0 1 3.219-3.219h6.172a3.219 3.219 0 0 1 3.219 3.219z" transform="translate(-77.436 -148.297)" style="fill:#fff"/>
            <path data-name="Path 9386" d="M94.21 171.722h-5.1c-2.251 0-4.291-4.634-4.291-6.437v-6.839a3.759 3.759 0 0 1 3.755-3.755h6.169a3.759 3.759 0 0 1 3.755 3.755v6.839c0 1.8-2.04 6.437-4.291 6.437m-5.632-15.959a2.685 2.685 0 0 0-2.682 2.682v6.839a8.224 8.224 0 0 0 1.14 3.35c.71 1.242 1.507 2.014 2.078 2.014h5.1c.572 0 1.368-.772 2.078-2.014a8.224 8.224 0 0 0 1.14-3.35v-6.839a2.685 2.685 0 0 0-2.682-2.682z" transform="translate(-75.972 -146.833)" style="fill:#282d33"/>
            <path data-name="Path 9387" d="M105.065 180.345h-1.073v-3.609a.641.641 0 0 0-.64-.64v-1.073a1.715 1.715 0 0 1 1.713 1.713z" transform="translate(-89.531 -161.712)" style="fill:#282d33"/>
            <path data-name="Path 9388" d="M103.636 201.808h-.2a2.054 2.054 0 0 1-2.052-2.051 2.1 2.1 0 0 1 .013-.227l.052-.478h4.174l.052.478a2.049 2.049 0 0 1-2.038 2.278m-1.109-1.683a.981.981 0 0 0 .907.61h.2a.98.98 0 0 0 .907-.61z" transform="translate(-88.09 -179.296)" style="fill:#282d33"/>
            <path data-name="Path 9389" d="M82.593 175.357h-.447a1.073 1.073 0 0 0-1.073 1.073v2.5a1.073 1.073 0 0 0 1.073 1.073h.447z" transform="translate(-73.228 -161.956)" style="fill:#fff"/>
            <path data-name="Path 9390" d="M81.666 179.079h-.983a1.611 1.611 0 0 1-1.609-1.609v-2.5a1.611 1.611 0 0 1 1.609-1.609h.983zm-1.073-4.642a.537.537 0 0 0-.447.529v2.5a.537.537 0 0 0 .447.529z" transform="translate(-71.764 -160.493)" style="fill:#282d33"/>
            <path data-name="Path 9391" d="M134.073 180.006h.447a1.073 1.073 0 0 0 1.073-1.073v-2.5a1.073 1.073 0 0 0-1.073-1.073h-.447z" transform="translate(-112.013 -161.956)" style="fill:#fff"/>
            <path data-name="Path 9392" d="M133.056 179.079h-.983v-5.722h.983a1.611 1.611 0 0 1 1.609 1.609v2.5a1.611 1.611 0 0 1-1.609 1.609m.09-4.642V178a.537.537 0 0 0 .447-.529v-2.5a.537.537 0 0 0-.447-.529" transform="translate(-110.549 -160.493)" style="fill:#282d33"/>
            <path data-name="Path 9393" d="M93.608 143.534h-.428c.831-.365 1.338-.841 1.338-1.363 0-1.148-2.987-1.611-5.968-1.274a8.815 8.815 0 0 0-5.515 2.816c-.926 0-2.213.75-2.213 1.676a1.62 1.62 0 0 0 .017.2l-.017.006v4.962h1.609v-2.28a3.211 3.211 0 0 1 1.332-2.6l.659-.157a6.746 6.746 0 0 0 4.271 1.979 7.305 7.305 0 0 0 3.887-.542 6.789 6.789 0 0 1-1.751-1.964l2.877.684a3.212 3.212 0 0 1 1.331 2.6v2.28h1.609v-6.035z" transform="translate(-73.045 -136.66)" style="fill:#5eb4e7"/>
            <path data-name="Path 9394" d="M95.72 149.625h-2.682v-2.816a2.692 2.692 0 0 0-1.028-2.109l-1.321-.314a6.577 6.577 0 0 0 .754.672l.7.535-.8.376a7.877 7.877 0 0 1-4.177.589 7.547 7.547 0 0 1-4.387-1.918l-.248.059a2.691 2.691 0 0 0-1.029 2.108v2.816h-2.679l.011-5.889a2.778 2.778 0 0 1 2.483-2.009 9.4 9.4 0 0 1 5.709-2.827 17.372 17.372 0 0 1 1.946-.111c2.892 0 4.618.717 4.618 1.918a1.552 1.552 0 0 1-.5 1.106l2.628.85zm-1.609-1.073h.536v-5.108l-2.588-.838h-.343l-.216-1.028c.751-.33 1.017-.676 1.017-.872 0-.249-1.02-.845-3.545-.845a16.3 16.3 0 0 0-1.825.1 8.36 8.36 0 0 0-5.159 2.623l-.161.2h-.255c-.693 0-1.676.59-1.676 1.14a.951.951 0 0 0 .01.108l.053.435-.062.024v4.06h.536v-1.743a3.767 3.767 0 0 1 1.553-3.038l.087-.063 1.079-.256.213.244a6.237 6.237 0 0 0 3.928 1.8 7.329 7.329 0 0 0 2.792-.195 7.11 7.11 0 0 1-1.18-1.508l-.631-1.082 4.2 1 .087.063a3.767 3.767 0 0 1 1.553 3.038z" transform="translate(-71.581 -135.196)" style="fill:#282d33"/>
            <rect data-name="Rectangle 4564" width="5.364" height="3.084" rx="1.542" transform="translate(16.511 14.161)" style="fill:#fff"/>
            <path data-name="Path 9395" d="M116.48 180.348h-3.755a1.343 1.343 0 0 1-1.341-1.341v-1.475a1.343 1.343 0 0 1 1.341-1.341h3.755a1.343 1.343 0 0 1 1.341 1.341v1.475a1.343 1.343 0 0 1-1.341 1.341m-3.755-3.084a.268.268 0 0 0-.268.268v1.475a.268.268 0 0 0 .268.268h3.755a.268.268 0 0 0 .268-.268v-1.475a.268.268 0 0 0-.268-.268z" transform="translate(-95.409 -162.566)" style="fill:#282d33"/>
            <rect data-name="Rectangle 4565" width="5.364" height="3.084" rx="1.542" transform="translate(9.538 14.161)" style="fill:#fff"/>
            <path data-name="Path 9396" d="M90.48 180.348h-3.755a1.343 1.343 0 0 1-1.341-1.341v-1.475a1.343 1.343 0 0 1 1.341-1.341h3.755a1.343 1.343 0 0 1 1.341 1.341v1.475a1.343 1.343 0 0 1-1.341 1.341m-3.755-3.084a.268.268 0 0 0-.268.268v1.475a.268.268 0 0 0 .268.268h3.755a.268.268 0 0 0 .268-.268v-1.475a.268.268 0 0 0-.268-.268z" transform="translate(-76.383 -162.566)" style="fill:#282d33"/>
            <path data-name="Rectangle 4566" transform="translate(11.874 15.051)" style="fill:#282d33" d="M0 0h1.308v1.073H0z"/>
            <path data-name="Rectangle 4567" transform="translate(17.417 15.051)" style="fill:#282d33" d="M0 0h1.308v1.073H0z"/>
        </g>
    </g>
    <g data-name="Group 7499">
        <g data-name="Group 7498" style="clip-path:url(#irr8sef36a)">
            <path data-name="Path 9398" d="M66.05 155.847a16.227 16.227 0 1 1 16.227-16.227 16.245 16.245 0 0 1-16.227 16.227m0-31.381A15.154 15.154 0 1 0 81.2 139.62a15.171 15.171 0 0 0-15.15-15.154" transform="translate(-36.46 -90.298)" style="fill:#282d33"/>
        </g>
    </g>
    <g data-name="Group 7501">
        <g data-name="Group 7500" style="clip-path:url(#8698jxvltc)" transform="translate(52.812 33.632)">
            <rect data-name="Rectangle 4569" width="12.338" height="19.445" rx="6.169" transform="translate(9.677 7.542)" style="fill:#f8c44f"/>
            <path data-name="Path 9399" d="M238.762 172.031h-2.146a5.639 5.639 0 0 1-5.632-5.632v-9.253a5.639 5.639 0 0 1 5.632-5.632h2.146a5.639 5.639 0 0 1 5.632 5.632v9.254a5.639 5.639 0 0 1-5.632 5.632m-2.146-19.445a4.565 4.565 0 0 0-4.56 4.56v9.253a4.565 4.565 0 0 0 4.56 4.56h2.146a4.565 4.565 0 0 0 4.56-4.56v-9.253a4.565 4.565 0 0 0-4.56-4.56z" transform="translate(-221.844 -144.507)" style="fill:#282d33"/>
            <path data-name="Path 9400" d="M239.425 220.816c-1.593-2.635-5.133-4.47-9.247-4.47s-7.653 1.835-9.246 4.47" transform="translate(-214.488 -191.951)" style="fill:#fff"/>
            <path data-name="Path 9401" d="M237.713 219.631c-1.546-2.558-5-4.211-8.788-4.211s-7.241 1.653-8.787 4.211l-.918-.555c1.736-2.873 5.546-4.729 9.705-4.729s7.97 1.856 9.706 4.729z" transform="translate(-213.235 -190.489)" style="fill:#282d33"/>
            <path data-name="Path 9402" d="M242.114 182.558a2.182 2.182 0 0 1-2.182 2.182h-11.684a2.183 2.183 0 0 1 0-4.365h11.683a2.183 2.183 0 0 1 2.182 2.183" transform="translate(-218.245 -165.628)" style="fill:#fff"/>
            <path data-name="Path 9403" d="M238.468 183.813h-11.683a2.719 2.719 0 0 1 0-5.438h11.684a2.719 2.719 0 0 1 0 5.438m-11.684-4.365a1.646 1.646 0 0 0 0 3.292h11.684a1.646 1.646 0 0 0 0-3.292z" transform="translate(-216.781 -164.165)" style="fill:#282d33"/>
            <path data-name="Path 9404" d="M249.186 181.026a2.28 2.28 0 0 1-2.28-2.28v-12.2a2.28 2.28 0 0 1 4.56 0v12.2a2.28 2.28 0 0 1-2.28 2.28" transform="translate(-233.495 -153.838)" style="fill:#fff"/>
            <path data-name="Path 9405" d="M247.722 180.1a2.819 2.819 0 0 1-2.816-2.816v-12.2a2.816 2.816 0 1 1 5.632 0v12.2a2.819 2.819 0 0 1-2.816 2.816m0-16.763a1.745 1.745 0 0 0-1.743 1.743v12.2a1.743 1.743 0 1 0 3.487 0v-12.2a1.745 1.745 0 0 0-1.743-1.743" transform="translate(-232.032 -152.374)" style="fill:#282d33"/>
            <rect data-name="Rectangle 4570" width="12.338" height="19.445" rx="6.169" transform="translate(9.677 3.519)" style="fill:#fff"/>
            <path data-name="Path 9406" d="M238.762 157.031h-2.146a5.639 5.639 0 0 1-5.632-5.632v-9.253a5.639 5.639 0 0 1 5.632-5.632h2.146a5.639 5.639 0 0 1 5.632 5.632v9.254a5.639 5.639 0 0 1-5.632 5.632m-2.146-19.445a4.565 4.565 0 0 0-4.56 4.56v9.253a4.565 4.565 0 0 0 4.56 4.56h2.146a4.565 4.565 0 0 0 4.56-4.56v-9.253a4.565 4.565 0 0 0-4.56-4.56z" transform="translate(-221.844 -133.53)" style="fill:#282d33"/>
            <path data-name="Path 9407" d="M240.226 138.513h-2.146a5.1 5.1 0 0 0-5.1 5.1v6.1c2.545-.231 4.967-2.606 6.169-6 1.2 3.4 3.624 5.774 6.169 6v-6.1a5.1 5.1 0 0 0-5.1-5.1" transform="translate(-223.307 -134.994)" style="fill:#f8c44f"/>
            <path data-name="Path 9408" d="m244.395 148.835-.585-.053c-2.423-.22-4.732-2.188-6.12-5.129-1.389 2.941-3.7 4.909-6.12 5.129l-.585.053v-6.69a5.639 5.639 0 0 1 5.632-5.632h2.146a5.639 5.639 0 0 1 5.632 5.632zm-6.705-8.2.506 1.43c1.043 2.95 3.012 5.058 5.127 5.554v-5.473a4.565 4.565 0 0 0-4.56-4.56h-2.146a4.565 4.565 0 0 0-4.56 4.56v5.473c2.115-.5 4.084-2.6 5.127-5.554z" transform="translate(-221.844 -133.53)" style="fill:#282d33"/>
            <path data-name="Path 9409" d="M241.764 179.992h-1.073c0-.1-.354-.4-1.03-.4s-1.03.3-1.03.4h-1.073c0-.828.924-1.477 2.1-1.477s2.1.649 2.1 1.477" transform="translate(-226.655 -164.267)" style="fill:#282d33"/>
            <path data-name="Path 9410" d="M260.764 179.992h-1.073c0-.1-.354-.4-1.03-.4s-1.03.3-1.03.4h-1.073c0-.828.924-1.477 2.1-1.477s2.1.649 2.1 1.477" transform="translate(-240.559 -164.267)" style="fill:#282d33"/>
            <path data-name="Path 9411" d="M247.83 192.513v.939a1.341 1.341 0 0 0 1.341 1.341h.939a1.341 1.341 0 0 0 1.341-1.341v-.939z" transform="translate(-234.172 -174.511)" style="fill:#fff"/>
            <path data-name="Path 9412" d="M248.646 193.866h-.939a1.88 1.88 0 0 1-1.877-1.877v-1.475h4.694v1.475a1.88 1.88 0 0 1-1.877 1.877m-1.743-2.28v.4a.806.806 0 0 0 .8.8h.939a.806.806 0 0 0 .8-.8v-.4z" transform="translate(-232.708 -173.047)" style="fill:#282d33"/>
        </g>
    </g>
    <g data-name="Group 7503">
        <g data-name="Group 7502" style="clip-path:url(#irr8sef36a)">
            <path data-name="Path 9414" d="M211.133 155.847a16.227 16.227 0 1 1 16.227-16.227 16.245 16.245 0 0 1-16.227 16.227m0-31.381a15.154 15.154 0 1 0 15.154 15.154 15.171 15.171 0 0 0-15.154-15.154" transform="translate(-142.63 -90.298)" style="fill:#282d33"/>
        </g>
    </g>
    <g data-name="Group 7505">
        <g data-name="Group 7504" style="clip-path:url(#jvy75t6s1d)" transform="translate(91.726 33.632)">
            <path data-name="Path 9415" d="M369.717 170.757v3.04a.894.894 0 1 0 1.788 0v-3.04z" transform="translate(-362.28 -158.59)" style="fill:#fff"/>
            <path data-name="Path 9416" d="M369.148 173.763a1.432 1.432 0 0 1-1.431-1.43v-3.576h2.861v3.576a1.432 1.432 0 0 1-1.43 1.43m-.358-3.934v2.5a.358.358 0 1 0 .715 0v-2.5z" transform="translate(-360.817 -157.126)" style="fill:#282d33"/>
            <path data-name="Path 9417" d="M425.051 170.757v3.04a.894.894 0 1 0 1.788 0v-3.04z" transform="translate(-402.773 -158.59)" style="fill:#fff"/>
            <path data-name="Path 9418" d="M424.481 173.763a1.432 1.432 0 0 1-1.43-1.43v-3.576h2.861v3.576a1.432 1.432 0 0 1-1.431 1.43m-.357-3.934v2.5a.358.358 0 0 0 .715 0v-2.5z" transform="translate(-401.31 -157.126)" style="fill:#282d33"/>
            <path data-name="Path 9419" d="M361.824 224.684v-6.794a3.077 3.077 0 0 1 3.247-2.874h14.248a3.077 3.077 0 0 1 3.246 2.874v6.794" transform="translate(-356.504 -190.979)" style="fill:#c0d44c"/>
            <path data-name="Path 9420" d="M381.638 223.221h-1.073v-6.794a2.547 2.547 0 0 0-2.71-2.337h-14.248a2.547 2.547 0 0 0-2.71 2.337v6.794h-1.073v-6.794a3.615 3.615 0 0 1 3.783-3.41h14.248a3.615 3.615 0 0 1 3.783 3.41z" transform="translate(-355.041 -189.515)" style="fill:#282d33"/>
            <path data-name="Path 9421" d="M392.53 217.293v-2.276h-9.21v2.276l4.605 2.659z" transform="translate(-372.235 -190.978)" style="fill:#fff"/>
            <path data-name="Path 9422" d="m386.462 219.107-5.142-2.969v-3.123h10.28v3.123zm-4.069-3.588 4.069 2.349 4.069-2.349v-1.43h-8.138z" transform="translate(-370.771 -189.515)" style="fill:#282d33"/>
            <path data-name="Path 9423" d="m395.776 203.213-2.728 1.575-2.728-1.575v-5.956h5.455z" transform="translate(-377.357 -177.982)" style="fill:#fff"/>
            <path data-name="Path 9424" d="m391.584 203.943-3.264-1.884v-6.8h6.528v6.8zm-2.191-2.5 2.191 1.265 2.191-1.265v-5.113h-4.383z" transform="translate(-375.894 -176.519)" style="fill:#282d33"/>
            <path data-name="Path 9425" d="M389.1 145.379a3.789 3.789 0 0 0-3.789-3.789h-5.431a3.789 3.789 0 0 0-3.79 3.789l-.012 10.651 3.591 4.129h5.851l3.591-4.129z" transform="translate(-366.938 -137.246)" style="fill:#fff"/>
            <path data-name="Path 9426" d="M384.3 159.232h-6.339l-3.883-4.465.012-10.852a4.331 4.331 0 0 1 4.326-4.325h5.431a4.33 4.33 0 0 1 4.325 4.326l.012 10.851zm-5.851-1.073h5.362l3.3-3.793-.011-10.45a3.256 3.256 0 0 0-3.253-3.253h-5.431a3.257 3.257 0 0 0-3.253 3.253l-.011 10.45z" transform="translate(-365.474 -135.782)" style="fill:#282d33"/>
            <path data-name="Path 9427" d="M384.7 185.09a6.444 6.444 0 0 0-5.728 3.639l2.837 3.263h5.851l2.793-3.212a6.449 6.449 0 0 0-5.753-3.69" transform="translate(-369.055 -169.079)" style="fill:#5eb4e7"/>
            <path data-name="Path 9428" d="M386.159 191.065h-6.34l-3.234-3.719.162-.321a6.865 6.865 0 0 1 12.442.055l.158.32zm-5.851-1.073h5.363l2.392-2.751a5.775 5.775 0 0 0-10.188-.049z" transform="translate(-367.306 -167.615)" style="fill:#282d33"/>
            <path data-name="Path 9429" d="M394.554 195.187a1.489 1.489 0 0 0-.009.163 1.466 1.466 0 0 0 1.467 1.467h.2a1.467 1.467 0 0 0 1.467-1.467 1.536 1.536 0 0 0-.009-.163z" transform="translate(-380.449 -176.467)" style="fill:#fff"/>
            <path data-name="Path 9430" d="M394.744 195.889h-.2a2.006 2.006 0 0 1-2-2 2.057 2.057 0 0 1 .013-.22l.052-.479h4.073l.052.479a2.065 2.065 0 0 1 .013.22 2.006 2.006 0 0 1-2 2m-1.047-1.63a.932.932 0 0 0 .852.557h.2a.932.932 0 0 0 .852-.557z" transform="translate(-378.986 -175.004)" style="fill:#282d33"/>
            <path data-name="Rectangle 4572" transform="translate(11.592 11.72)" style="fill:#282d33" d="M0 0h1.162v1.073H0z"/>
            <path data-name="Rectangle 4573" transform="translate(18.566 11.72)" style="fill:#282d33" d="M0 0h1.162v1.073H0z"/>
            <path data-name="Path 9431" d="M390.706 167.674h-3.576v-3.844h-2.412v-1.073h3.482v3.843h1.431v-3.308h1.073z" transform="translate(-373.257 -152.736)" style="fill:#282d33"/>
        </g>
    </g>
    <g data-name="Group 7507">
        <g data-name="Group 7506" style="clip-path:url(#irr8sef36a)">
            <path data-name="Path 9433" d="M356.217 155.847a16.227 16.227 0 1 1 16.227-16.227 16.245 16.245 0 0 1-16.227 16.227m0-31.381a15.154 15.154 0 1 0 15.154 15.154 15.171 15.171 0 0 0-15.154-15.154" transform="translate(-248.801 -90.298)" style="fill:#282d33"/>
        </g>
    </g>
    <g data-name="Group 7509">
        <g data-name="Group 7508" style="clip-path:url(#wbmrkqnlbe)" transform="translate(130.638 33.632)">
            <path data-name="Path 9434" d="M565.114 167.441a1.948 1.948 0 1 1-1.923-1.638 1.8 1.8 0 0 1 1.923 1.638" transform="translate(-541.368 -154.965)" style="fill:#fff"/>
            <path data-name="Path 9435" d="M561.728 168.151a2.191 2.191 0 1 1 2.459-2.174 2.333 2.333 0 0 1-2.459 2.174m0-3.276a1.131 1.131 0 1 0 1.387 1.1 1.27 1.27 0 0 0-1.387-1.1" transform="translate(-539.904 -153.5)" style="fill:#282d33"/>
            <path data-name="Path 9436" d="M519.744 158.191a20.13 20.13 0 0 0-11.022 4.356c-.017.318-.03.638-.03.961 0 7.867 5.314 14.244 11.87 14.244 5.742 0 10.532-4.893 11.632-11.395a9.989 9.989 0 0 1-1.661.142c-4.79 0-8.914-3.406-10.79-8.309" transform="translate(-502.894 -149.394)" style="fill:#f8c44f"/>
            <path data-name="Path 9437" d="M519.1 176.732c-6.841 0-12.406-6.63-12.406-14.781 0-.3.01-.615.031-.991l.013-.234.181-.149a20.762 20.762 0 0 1 11.315-4.477l.4-.036.145.379c1.851 4.838 5.889 7.964 10.289 7.964a9.494 9.494 0 0 0 1.572-.135l.744-.125-.126.744c-1.161 6.861-6.275 11.842-12.161 11.842m-11.316-15.477c-.012.255-.017.481-.017.7 0 7.558 5.085 13.708 11.333 13.708 5.155 0 9.672-4.259 10.964-10.229-.334.033-.667.049-.994.049-4.729 0-9.063-3.233-11.139-8.272a19.667 19.667 0 0 0-10.148 4.047" transform="translate(-501.431 -147.837)" style="fill:#282d33"/>
            <path data-name="Path 9438" d="M576.953 198.079a10.6 10.6 0 0 1-3.919-.752l.395-1a9.39 9.39 0 0 0 5.1.543l.178 1.058a10.6 10.6 0 0 1-1.75.149" transform="translate(-549.978 -177.303)" style="fill:#282d33"/>
            <path data-name="Path 9439" d="M510.286 221.3v-8.055a2.12 2.12 0 0 1 2.12-2.12h11a2.12 2.12 0 0 1 2.12 2.12v8.055" transform="translate(-504.06 -188.128)" style="fill:#ff7a7a"/>
            <path data-name="Path 9440" d="M524.6 219.833h-1.073v-8.055a1.586 1.586 0 0 0-1.584-1.584h-11a1.586 1.586 0 0 0-1.584 1.584v8.055h-1.073v-8.055a2.66 2.66 0 0 1 2.657-2.657h11a2.66 2.66 0 0 1 2.657 2.657z" transform="translate(-502.596 -186.664)" style="fill:#282d33"/>
            <path data-name="Path 9441" d="M528.954 169.591v-12.963a2.422 2.422 0 0 1 4.843 0v17.212c0-.105-4.869-4.224-4.843-4.25" transform="translate(-517.721 -146.479)" style="fill:#fff"/>
            <path data-name="Path 9442" d="M532.334 172.914a.536.536 0 0 1-.437-.226c-.254-.262-1.935-1.707-3.057-2.672-1.875-1.614-1.875-1.614-1.885-1.866v-12.984a2.958 2.958 0 0 1 5.916 0v17.212a.537.537 0 0 1-.536.536m-4.307-5.02c.281.248.905.785 1.513 1.308 1.047.9 1.765 1.519 2.258 1.952v-15.988a1.885 1.885 0 0 0-3.771 0z" transform="translate(-516.257 -145.016)" style="fill:#282d33"/>
            <path data-name="Path 9443" d="M511.567 139.834a8.146 8.146 0 0 0-7.651 5.351 1.751 1.751 0 0 0-2.242.607 1.8 1.8 0 0 0 .882 2.367 2.187 2.187 0 0 0 .882.272 8.142 8.142 0 1 0 8.129-8.6" transform="translate(-497.626 -135.961)" style="fill:#fff"/>
            <path data-name="Path 9444" d="M510.1 155.191a8.678 8.678 0 0 1-8.631-7.77 2.768 2.768 0 0 1-.642-.259 2.627 2.627 0 0 1-1.2-1.362 2.045 2.045 0 0 1 .106-1.735 2.116 2.116 0 0 1 1.9-1.048 2.59 2.59 0 0 1 .5.049 8.68 8.68 0 1 1 7.968 12.124m-8.466-11.1a1.06 1.06 0 0 0-.958.5.988.988 0 0 0-.038.837 1.555 1.555 0 0 0 .713.8 1.66 1.66 0 0 0 .665.206l.465.039.026.466a7.6 7.6 0 1 0 .446-3.032l-.192.526-.517-.215a1.6 1.6 0 0 0-.609-.125" transform="translate(-496.159 -134.496)" style="fill:#282d33"/>
            <path data-name="Path 9445" d="M510.7 145.066a3.916 3.916 0 0 0 2.644.83c3.472 0 5.7-2.777 6.869-5.836a8.141 8.141 0 0 0-9.513 5.006" transform="translate(-504.36 -135.96)" style="fill:#f8c44f"/>
            <path data-name="Path 9446" d="M511.6 144.97a4.451 4.451 0 0 1-2.988-.955l-.293-.246.137-.358a8.678 8.678 0 0 1 10.139-5.336l.594.142-.218.571c-2.06 5.378-5.5 6.181-7.37 6.181m-1.987-1.55a3.594 3.594 0 0 0 1.987.477c3.373 0 5.226-2.842 6.126-4.9a7.6 7.6 0 0 0-8.113 4.423" transform="translate(-502.62 -134.497)" style="fill:#282d33"/>
            <path data-name="Path 9447" d="M548.95 146.489a8.145 8.145 0 0 0-7.289-6.536 8.145 8.145 0 0 0 7.289 6.536" transform="translate(-527.02 -136.048)" style="fill:#f8c44f"/>
            <path data-name="Path 9448" d="m547.8 145.46-.709-.061a8.7 8.7 0 0 1-7.77-6.967l-.137-.7.709.061a8.7 8.7 0 0 1 7.77 6.967zm-7.241-6.493a7.641 7.641 0 0 0 5.866 5.26 7.64 7.64 0 0 0-5.866-5.26" transform="translate(-525.209 -134.424)" style="fill:#282d33"/>
            <path data-name="Path 9449" d="M520.771 171.726a2.193 2.193 0 0 1-1.556-.643l.758-.759a1.129 1.129 0 0 0 1.6 0l.759.759a2.195 2.195 0 0 1-1.556.643" transform="translate(-510.594 -158.273)" style="fill:#282d33"/>
            <path data-name="Path 9450" d="M545.908 171.726a2.195 2.195 0 0 1-1.556-.643l.759-.759a1.129 1.129 0 0 0 1.6 0l.758.759a2.193 2.193 0 0 1-1.556.643" transform="translate(-528.989 -158.273)" style="fill:#282d33"/>
            <path data-name="Rectangle 4575" transform="translate(13.239 11.028)" style="fill:#282d33" d="M0 0h1.073v3.514H0z"/>
        </g>
    </g>
    <g data-name="Group 7511">
        <g data-name="Group 7510" style="clip-path:url(#irr8sef36a)">
            <path data-name="Path 9452" d="M501.3 155.847a16.227 16.227 0 1 1 16.227-16.227 16.245 16.245 0 0 1-16.227 16.227m0-31.381a15.154 15.154 0 1 0 15.154 15.154 15.171 15.171 0 0 0-15.154-15.154" transform="translate(-354.971 -90.298)" style="fill:#282d33"/>
        </g>
    </g>
    <g data-name="Group 7513">
        <g data-name="Group 7512" style="clip-path:url(#b5srh4422f)" transform="translate(169.551 33.632)">
            <path data-name="Path 9453" d="M654.891 225.133v-6a2.706 2.706 0 0 1 2.855-2.527h12.529a2.706 2.706 0 0 1 2.855 2.527v6" transform="translate(-648.793 -192.143)" style="fill:#b7bec0"/>
            <path data-name="Path 9454" d="M672.2 223.67h-1.073v-6a2.176 2.176 0 0 0-2.318-1.99h-12.527a2.176 2.176 0 0 0-2.318 1.99v6h-1.073v-6a3.243 3.243 0 0 1 3.391-3.063h12.529a3.243 3.243 0 0 1 3.391 3.063z" transform="translate(-647.33 -190.68)" style="fill:#282d33"/>
            <rect data-name="Rectangle 4577" width="4.962" height="10.976" rx="2.481" transform="translate(12.736 15.678)" style="fill:#fff"/>
            <path data-name="Path 9455" d="M680.733 193.9h-.151a2.946 2.946 0 0 1-2.942-2.942v-6.168a2.946 2.946 0 0 1 2.942-2.942h.151a2.946 2.946 0 0 1 2.942 2.942v6.165a2.946 2.946 0 0 1-2.942 2.942m-.151-10.976a1.872 1.872 0 0 0-1.869 1.869v6.165a1.872 1.872 0 0 0 1.869 1.869h.151a1.872 1.872 0 0 0 1.869-1.869v-6.165a1.872 1.872 0 0 0-1.869-1.869z" transform="translate(-665.441 -166.706)" style="fill:#282d33"/>
            <path data-name="Rectangle 4578" d="M1.312 0a1.312 1.312 0 0 1 1.312 1.312v2.2a1.312 1.312 0 0 1-1.312 1.316A1.312 1.312 0 0 1 0 3.516v-2.2A1.312 1.312 0 0 1 1.312 0z" transform="translate(20.269 13.382)" style="fill:#fff"/>
            <path data-name="Path 9456" d="M707.63 179.188h-.106a1.8 1.8 0 0 1-1.8-1.8v-2.309a1.8 1.8 0 0 1 1.8-1.8h.106a1.8 1.8 0 0 1 1.8 1.8v2.309a1.8 1.8 0 0 1-1.8 1.8m-.106-4.828a.724.724 0 0 0-.723.723v2.309a.724.724 0 0 0 .723.723h.106a.724.724 0 0 0 .723-.723v-2.309a.724.724 0 0 0-.723-.723z" transform="translate(-685.996 -160.441)" style="fill:#282d33"/>
            <path data-name="Path 9457" d="M677.2 155.059a6.378 6.378 0 0 1-12.757 0v-5.1a6.378 6.378 0 0 1 12.757 0z" transform="translate(-655.78 -138.701)" style="fill:#fff"/>
            <path data-name="Path 9458" d="M669.355 160.51a6.922 6.922 0 0 1-6.915-6.915v-5.1a6.915 6.915 0 0 1 13.829 0v5.1a6.922 6.922 0 0 1-6.915 6.915m0-17.859a5.848 5.848 0 0 0-5.842 5.841v5.1a5.842 5.842 0 0 0 11.684 0v-5.1a5.849 5.849 0 0 0-5.842-5.841" transform="translate(-654.318 -137.237)" style="fill:#282d33"/>
            <path data-name="Path 9459" d="M675.941 190.883a4.506 4.506 0 0 1-4.5-4.5" transform="translate(-660.904 -170.024)" style="fill:#fff"/>
            <path data-name="Path 9460" d="M674.477 191.419a5.043 5.043 0 0 1-5.037-5.037h1.073a3.969 3.969 0 0 0 3.965 3.964z" transform="translate(-659.44 -170.024)" style="fill:#282d33"/>
            <path data-name="Path 9461" d="M674.542 145.713a2.932 2.932 0 0 0 .182-1.012v-2.414H664a2.947 2.947 0 0 0-2.467 1.334h-1.013a2.286 2.286 0 0 0-2.287 2.287v8.315h1.609v-4.963a1.609 1.609 0 0 1 1.609-1.609h.194a8.419 8.419 0 0 0 6.333 2.621c3.6 0 6.617-1.94 7.455-4.56z" transform="translate(-651.236 -137.756)" style="fill:#f8c44f"/>
            <path data-name="Path 9462" d="M658.911 153.3h-2.682v-8.851a2.826 2.826 0 0 1 2.823-2.823h.739a3.476 3.476 0 0 1 2.741-1.334H673.8v2.95a3.436 3.436 0 0 1-.034.476h.939l-.224.7c-.93 2.9-4.206 4.933-7.966 4.933a9.07 9.07 0 0 1-6.569-2.62 1.074 1.074 0 0 0-1.031 1.072zm-1.609-1.073h.536V147.8a2.148 2.148 0 0 1 2.146-2.146h.438l.16.183a7.91 7.91 0 0 0 5.93 2.438c2.978 0 5.594-1.4 6.656-3.487h-.857l.264-.721a2.4 2.4 0 0 0 .149-.827v-1.88h-10.192a2.41 2.41 0 0 0-2.019 1.092l-.159.242h-1.3a1.752 1.752 0 0 0-1.75 1.75z" transform="translate(-649.772 -136.292)" style="fill:#282d33"/>
            <path data-name="Path 9463" d="M659.894 175.336c-.633.066-1.666.6-1.666 1.246v2.309c0 .651 1.033 1.18 1.666 1.246z" transform="translate(-651.235 -161.941)" style="fill:#fff"/>
            <path data-name="Path 9464" d="m658.967 179.109-.592-.061c-.877-.091-2.147-.777-2.147-1.78v-2.309c0-1 1.27-1.689 2.147-1.78l.592-.061zm-1.073-4.679c-.327.161-.593.387-.593.529v2.309c0 .142.266.368.593.529z" transform="translate(-649.772 -160.318)" style="fill:#282d33"/>
            <path data-name="Path 9465" d="m690.121 173.06.8 4.157h-1.609" transform="translate(-673.985 -160.275)" style="fill:#fff"/>
            <path data-name="Path 9466" d="M691.576 177.475h-2.259V176.4h.959l-.681-3.519 1.054-.2z" transform="translate(-673.985 -159.997)" style="fill:#282d33"/>
            <path data-name="Rectangle 4579" transform="translate(12.783 14.394)" style="fill:#282d33" d="M0 0h1.341v1.073H0z"/>
            <path data-name="Rectangle 4580" transform="translate(17.879 14.394)" style="fill:#282d33" d="M0 0h1.341v1.073H0z"/>
        </g>
    </g>
    <g data-name="Group 7515">
        <g data-name="Group 7514" style="clip-path:url(#irr8sef36a)">
            <path data-name="Path 9468" d="M646.383 155.847a16.227 16.227 0 1 1 16.227-16.227 16.245 16.245 0 0 1-16.227 16.227m0-31.381a15.154 15.154 0 1 0 15.154 15.154 15.171 15.171 0 0 0-15.154-15.154" transform="translate(-461.141 -90.298)" style="fill:#282d33"/>
            <path data-name="Path 9469" d="M396.964 125.893h-1.073q0-.276.007-.55l1.072.027q-.006.261-.006.523" transform="translate(-289.709 -91.725)" style="fill:#282d33"/>
            <path data-name="Path 9470" d="m397.19 67.313-1.07-.081c.027-.363.064-.727.109-1.081l1.064.135c-.043.336-.078.682-.1 1.027m40.65-.019a27.64 27.64 0 0 0-.1-1.027l1.065-.135c.046.359.083.723.11 1.081zm-40.391-2.029-1.056-.189c.063-.353.136-.711.217-1.064l1.046.241c-.078.336-.147.676-.207 1.012m40.13-.019c-.06-.337-.13-.677-.208-1.011l1.045-.243c.082.351.156.709.219 1.064zm-39.665-1.992-1.032-.3c.1-.348.209-.7.326-1.039l1.015.347c-.111.325-.215.657-.31.987m39.2-.018c-.094-.329-.2-.66-.31-.985l1.015-.348c.117.341.227.69.326 1.037zM398.583 61.3l-1-.4c.134-.335.279-.672.43-1l.974.449c-.143.312-.281.631-.409.95m37.859-.014a20.56 20.56 0 0 0-.407-.946l.974-.45c.152.329.3.664.429 1zm-36.995-1.864-.95-.5c.168-.319.346-.639.529-.95l.924.545c-.174.3-.344.6-.5.9m36.132-.007c-.158-.3-.327-.6-.5-.9l.923-.546c.184.311.362.63.528.948zM400.5 57.642l-.895-.592c.2-.3.408-.6.622-.892l.864.636c-.2.277-.4.562-.592.847m34.033 0a20.733 20.733 0 0 0-.591-.846l.864-.636c.215.292.424.591.621.89zm-32.808-1.661-.831-.679c.228-.279.467-.557.709-.824l.795.72c-.23.254-.457.517-.673.783m31.585 0a21.001 21.001 0 0 0-.673-.783l.8-.72c.241.267.48.544.708.823zm-1.384-1.53a20.913 20.913 0 0 0-.749-.711l.719-.8c.267.242.532.494.788.748zm-28.814 0-.758-.759c.255-.255.52-.507.787-.748l.719.8c-.255.23-.506.469-.749.711m1.532-1.384-.678-.831c.279-.227.568-.451.859-.665l.636.865c-.277.2-.551.416-.816.632m25.75 0a19.78 19.78 0 0 0-.817-.632l.635-.864c.29.213.58.437.859.666zM406.3 51.843l-.591-.9c.3-.2.611-.392.921-.575l.545.925c-.294.173-.589.357-.875.546m22.423 0a21 21 0 0 0-.877-.547l.545-.925c.31.183.62.377.923.576zM408.078 50.8l-.5-.951c.319-.167.646-.328.974-.478l.448.975c-.311.143-.622.3-.925.454m18.868 0a20.94 20.94 0 0 0-.928-.456l.448-.975c.326.15.655.311.977.479zm-17-.858-.4-1c.334-.134.676-.26 1.017-.377l.347 1.015c-.323.111-.648.231-.965.358m15.117-.005a21.304 21.304 0 0 0-.97-.359l.346-1.015c.342.116.685.244 1.021.378zm-13.159-.666-.3-1.032c.347-.1.7-.19 1.052-.272l.242 1.045c-.334.078-.67.164-1 .258m11.212 0a19.029 19.029 0 0 0-1-.257l.241-1.045c.352.081.706.172 1.052.271zm-9.2-.46-.189-1.056c.354-.063.716-.118 1.074-.164l.135 1.065c-.341.043-.684.1-1.021.156m7.191 0c-.337-.06-.68-.112-1.021-.154l.134-1.065c.359.045.72.1 1.074.163zm-5.143-.256-.081-1.07c.359-.027.723-.045 1.085-.054l.027 1.072a20.78 20.78 0 0 0-1.032.052m3.1 0a20.801 20.801 0 0 0-1.031-.051l.026-1.073c.361.009.727.027 1.085.054z" transform="translate(-289.876 -34.7)" style="fill:#282d33"/>
            <path data-name="Path 9471" d="M552.946 125.893h-1.073q0-.262-.006-.523l1.072-.027q.007.274.007.55" transform="translate(-403.85 -91.725)" style="fill:#282d33"/>
            <path data-name="Path 9472" d="M460.449 28.369a8.851 8.851 0 1 1-8.851-8.851 8.851 8.851 0 0 1 8.851 8.851" transform="translate(-323.997 -14.283)" style="fill:#fff"/>
            <path data-name="Path 9473" d="M450.134 36.293a9.387 9.387 0 1 1 9.387-9.387 9.4 9.4 0 0 1-9.387 9.387m0-17.7a8.315 8.315 0 1 0 8.315 8.315 8.324 8.324 0 0 0-8.315-8.315" transform="translate(-322.534 -12.819)" style="fill:#282d33"/>
            <path data-name="Path 9474" d="M455.989 40a7.242 7.242 0 1 1 7.242-7.242A7.25 7.25 0 0 1 455.989 40" transform="translate(-328.388 -18.672)" style="fill:#fff"/>
            <path data-name="Path 9475" d="m413.041 244.941-1.072-.027q.006-.26.006-.523h1.073q0 .276-.007.55" transform="translate(-301.474 -178.843)" style="fill:#282d33"/>
            <path data-name="Path 9476" d="M277.086 270.084a21.645 21.645 0 0 1-1.085-.054l.08-1.07c.341.025.688.043 1.031.051zm1.086 0-.027-1.073a20.68 20.68 0 0 0 1.031-.052l.081 1.07c-.359.027-.723.046-1.085.055m-3.252-.161c-.359-.045-.72-.1-1.074-.163l.188-1.056c.337.06.68.112 1.02.155zm5.418 0-.135-1.064c.34-.043.684-.1 1.02-.156l.189 1.056c-.354.063-.716.118-1.074.163m-7.558-.377a21.102 21.102 0 0 1-1.053-.271l.294-1.031c.329.094.666.181 1 .257zm9.7 0-.242-1.046c.334-.077.67-.164 1-.258l.3 1.032c-.346.1-.7.191-1.052.272m-11.786-.591a20.875 20.875 0 0 1-1.022-.378l.4-1c.319.127.646.248.97.359zm13.875-.006-.347-1.015c.323-.111.648-.231.966-.358l.4 1c-.334.134-.676.26-1.017.377m-15.9-.8a21.536 21.536 0 0 1-.977-.479l.5-.951c.3.159.616.312.928.455zm17.911 0-.448-.975c.311-.143.622-.3.925-.454l.5.951c-.319.167-.646.328-.974.478m-19.839-1a21.12 21.12 0 0 1-.922-.576l.59-.9c.287.19.583.374.877.547zm21.762 0-.545-.924c.294-.174.589-.357.875-.546l.591.9c-.3.2-.611.392-.921.575m-23.577-1.195c-.29-.213-.58-.437-.859-.665l.678-.831c.266.217.541.43.817.632zm25.388 0-.635-.865c.277-.2.551-.416.816-.632l.678.831c-.279.227-.568.451-.859.665m1.675-1.4-.719-.8c.254-.23.506-.469.749-.711l.758.759a20.6 20.6 0 0 1-.788.748m-28.755 0a21.37 21.37 0 0 1-.787-.749l.758-.759c.243.242.495.482.749.711zm30.293-1.535-.8-.72a20.1 20.1 0 0 0 .673-.783l.831.679c-.228.28-.467.557-.709.824m-31.829 0a23.218 23.218 0 0 1-.708-.823l.831-.679c.217.266.444.529.673.783zm-1.374-1.682a21.904 21.904 0 0 1-.622-.89l.895-.592c.188.284.387.569.591.846zm34.578 0-.864-.636c.2-.277.4-.563.591-.847l.895.592c-.2.3-.408.6-.622.891m-35.776-1.809c-.183-.31-.361-.629-.528-.948l.95-.5c.159.3.328.606.5.9zm36.975 0-.924-.545c.174-.3.344-.6.5-.9l.95.5c-.168.32-.346.639-.529.95m-37.983-1.917c-.152-.328-.3-.664-.429-1l1-.4c.127.316.264.634.407.945zm38.992-.01-.974-.449c.143-.312.281-.631.409-.95l1 .4a21.49 21.49 0 0 1-.43 1m-39.8-2c-.117-.341-.227-.69-.326-1.037l1.031-.3c.094.329.2.66.31.985zm40.609-.016-1.015-.347c.111-.325.215-.657.31-.987l1.032.3c-.1.348-.209.7-.326 1.039m-41.208-2.072a21.339 21.339 0 0 1-.219-1.064l1.056-.19c.061.337.13.678.208 1.011zm41.806-.019-1.045-.241c.078-.336.147-.676.207-1.012l1.056.189c-.063.353-.137.711-.218 1.065m-42.19-2.119a21.735 21.735 0 0 1-.11-1.081l1.07-.082c.026.342.061.687.1 1.027zm42.571-.02-1.064-.135c.043-.336.077-.682.1-1.027l1.07.081a20.92 20.92 0 0 1-.109 1.081" transform="translate(-187.503 -183.085)" style="fill:#282d33"/>
            <path data-name="Path 9477" d="M256 244.941q-.008-.274-.007-.55h1.073q0 .262.006.523z" transform="translate(-187.333 -178.843)" style="fill:#282d33"/>
            <path data-name="Path 9478" d="m701.937 244.941-1.072-.027q.007-.26.006-.523h1.073q0 .276-.007.55" transform="translate(-512.885 -178.843)" style="fill:#282d33"/>
            <path data-name="Path 9479" d="M565.984 270.084a21.645 21.645 0 0 1-1.085-.054l.08-1.07c.341.025.688.043 1.031.051zm1.086 0-.027-1.073a20.68 20.68 0 0 0 1.031-.052l.081 1.07c-.359.027-.723.046-1.085.055m-3.252-.161c-.359-.045-.72-.1-1.074-.163l.188-1.056c.336.06.68.112 1.02.155zm5.418 0-.135-1.064c.34-.043.684-.1 1.02-.156l.189 1.056c-.354.063-.716.118-1.074.163m-7.558-.377a21.102 21.102 0 0 1-1.053-.271l.294-1.031c.329.094.666.181 1 .257zm9.7 0-.242-1.046c.334-.077.67-.164 1-.258l.3 1.032c-.347.1-.7.191-1.052.272m-11.786-.591a20.875 20.875 0 0 1-1.022-.378l.4-1c.319.127.646.248.97.359zm13.875-.006-.347-1.015c.323-.111.648-.231.966-.358l.4 1c-.334.134-.676.26-1.017.377m-15.9-.8a21.031 21.031 0 0 1-.977-.479l.5-.951c.3.159.616.312.928.455zm17.911 0-.449-.975c.311-.143.622-.3.925-.454l.5.951c-.319.167-.646.328-.974.478m-19.839-1a21.12 21.12 0 0 1-.922-.576l.59-.9c.287.19.583.374.877.547zm21.762 0-.545-.924c.294-.174.589-.357.875-.546l.591.9c-.3.2-.611.392-.921.575m-23.577-1.195c-.29-.213-.58-.437-.859-.665l.678-.831c.266.217.541.43.817.632zm25.388 0-.635-.865c.276-.2.551-.416.816-.632l.678.831c-.279.227-.568.451-.859.665m1.683-1.373-.719-.8c.254-.23.506-.469.749-.711l.758.759a20.6 20.6 0 0 1-.788.748m-28.755 0a22.23 22.23 0 0 1-.788-.749l.758-.759c.243.242.495.482.749.711zm30.293-1.535-.8-.72c.23-.254.457-.517.674-.783l.831.679c-.228.28-.467.557-.709.824m-31.829 0a23.218 23.218 0 0 1-.708-.823l.831-.679c.217.266.444.529.673.783zm-1.374-1.682a21.904 21.904 0 0 1-.622-.89l.895-.592c.188.284.387.569.591.846zm34.578 0-.864-.636c.2-.277.4-.563.591-.847l.895.592c-.2.3-.408.6-.622.891m-35.776-1.809c-.183-.31-.361-.629-.528-.948l.95-.5c.159.3.328.606.5.9zm36.975 0-.924-.545c.174-.3.344-.6.5-.9l.95.5c-.168.32-.346.639-.529.95m-37.983-1.917c-.151-.328-.3-.664-.429-1l1-.4c.127.316.264.634.407.945zm38.992-.01-.974-.449c.143-.312.281-.631.409-.95l1 .4a21.49 21.49 0 0 1-.43 1m-39.8-2c-.117-.341-.227-.69-.326-1.037l1.031-.3c.094.329.2.66.31.985zm40.609-.016-1.015-.347c.111-.325.215-.657.31-.987l1.031.3c-.1.348-.209.7-.326 1.039m-41.208-2.072a21.339 21.339 0 0 1-.219-1.064l1.056-.19c.061.337.13.678.208 1.011zm41.806-.019-1.045-.241c.078-.336.147-.676.207-1.012l1.056.189c-.063.353-.136.711-.218 1.065m-42.19-2.119a21.735 21.735 0 0 1-.11-1.081l1.07-.082c.026.342.061.687.1 1.027zm42.571-.02-1.065-.135c.043-.336.078-.682.1-1.027l1.07.081a20.92 20.92 0 0 1-.109 1.081" transform="translate(-398.914 -183.085)" style="fill:#282d33"/>
            <path data-name="Path 9480" d="M544.9 244.941q-.007-.274-.007-.55h1.073q0 .262.006.523z" transform="translate(-398.744 -178.843)" style="fill:#282d33"/>
            <path data-name="Path 9481" d="M591.89 295.241a8.851 8.851 0 1 1 8.851 8.851 8.851 8.851 0 0 1-8.851-8.851" transform="translate(-433.139 -209.577)" style="fill:#fff"/>
            <path data-name="Path 9482" d="M599.277 303.165a9.387 9.387 0 1 1 9.387-9.387 9.4 9.4 0 0 1-9.387 9.387m0-17.7a8.315 8.315 0 1 0 8.315 8.315 8.324 8.324 0 0 0-8.315-8.315" transform="translate(-431.675 -208.113)" style="fill:#282d33"/>
            <path data-name="Path 9483" d="M302.993 295.241a8.851 8.851 0 1 1 8.851 8.851 8.851 8.851 0 0 1-8.851-8.851" transform="translate(-221.727 -209.577)" style="fill:#fff"/>
            <path data-name="Path 9484" d="M310.38 303.165a9.387 9.387 0 1 1 9.387-9.387 9.4 9.4 0 0 1-9.387 9.387m0-17.7a8.315 8.315 0 1 0 8.315 8.315 8.324 8.324 0 0 0-8.315-8.315" transform="translate(-220.263 -208.113)" style="fill:#282d33"/>
            <path data-name="Path 9485" d="M314.78 289.213h6.685a3.96 3.96 0 0 1 .587-1.984 11.908 11.908 0 0 0 2.624-6.416 6.548 6.548 0 0 0-13.1 0 11.88 11.88 0 0 0 2.624 6.416 3.925 3.925 0 0 1 .576 1.984" transform="translate(-228.011 -200.704)" style="fill:#f8c44f"/>
            <path data-name="Rectangle 4581" transform="rotate(-10.213 498.671 -443.583)" style="fill:#282d33" d="M0 0h1.073v7.312H0z"/>
            <path data-name="Rectangle 4582" transform="rotate(-79.8 98.535 -10.403)" style="fill:#282d33" d="M0 0h7.312v1.073H0z"/>
            <path data-name="Path 9486" d="M329.374 304.455h-.507l-.746-.4-.745.4h-.508l-.744-.4-.745.4h-.507l-1-.536.508-.945.745.4.745-.4h.507l.744.4.745-.4h.507l.747.4.747-.4.507.945z" transform="translate(-237.007 -221.712)" style="fill:#282d33"/>
            <path data-name="Rectangle 4583" transform="translate(85.86 88.049)" style="fill:#282d33" d="M0 0h8.515v1.073H0z"/>
            <path data-name="Rectangle 4584" transform="translate(85.86 89.704)" style="fill:#282d33" d="M0 0h8.515v1.073H0z"/>
            <path data-name="Rectangle 4585" transform="translate(87.333 91.358)" style="fill:#282d33" d="M0 0h5.569v1.073H0z"/>
            <path data-name="Rectangle 4586" transform="translate(86.312 88.674)" style="fill:#282d33" d="M0 0h1.073v1.737H0z"/>
            <path data-name="Path 9487" d="m106 244.941-1.072-.027q.006-.26.006-.523h1.073q0 .276-.007.55" transform="translate(-76.787 -178.843)" style="fill:#282d33"/>
            <path data-name="Path 9488" d="m34.995 270.122-.083-1.07c.354-.028.711-.065 1.062-.11l.139 1.064a21.81 21.81 0 0 1-1.118.116m2.228-.29-.194-1.055c.349-.064.7-.139 1.044-.221l.25 1.043c-.362.087-.732.165-1.1.233m2.186-.523-.3-1.029c.34-.1.682-.211 1.015-.33l.358 1.011a21.84 21.84 0 0 1-1.069.347m2.116-.749-.411-.991c.326-.135.654-.281.973-.434l.462.968c-.337.161-.682.314-1.025.457m2.025-.967-.512-.943c.31-.169.621-.348.923-.534l.561.914c-.318.2-.645.384-.972.562m1.914-1.175-.609-.883c.293-.2.584-.413.863-.628l.653.851c-.294.226-.6.448-.908.661m1.781-1.368-.7-.815c.271-.232.538-.472.793-.715l.739.778c-.269.255-.55.508-.835.752m1.629-1.546-.778-.739c.243-.256.484-.523.715-.793l.815.7c-.243.285-.5.566-.753.835m1.461-1.708-.851-.654c.217-.282.428-.573.629-.864l.883.608c-.211.307-.434.612-.662.909m1.275-1.852-.914-.562c.185-.3.365-.613.535-.925l.942.513c-.179.329-.369.657-.563.974m1.074-1.976-.968-.463c.153-.32.3-.649.435-.976l.991.411a24.9 24.9 0 0 1-.458 1.028m.862-2.079-1.011-.358c.118-.333.229-.676.33-1.018l1.029.3c-.106.36-.223.72-.347 1.071m.637-2.157-1.043-.249c.082-.343.156-.694.22-1.044l1.055.194a22.11 22.11 0 0 1-.232 1.1m.407-2.211-1.064-.138c.046-.353.083-.71.11-1.062l1.07.083c-.029.37-.068.746-.116 1.117" transform="translate(-25.548 -183.181)" style="fill:#282d33"/>
            <path data-name="Path 9489" d="M28.954 321.445v-1.073q.262 0 .523-.006l.027 1.073c-.183 0-.366.007-.55.007" transform="translate(-21.188 -234.44)" style="fill:#282d33"/>
            <path data-name="Path 9490" d="M18.054 312.973a4.291 4.291 0 1 1 4.291-4.291 4.3 4.3 0 0 1-4.291 4.291" transform="translate(-10.072 -222.749)" style="fill:#fff"/>
            <path data-name="Path 9491" d="M16.591 312.046a4.828 4.828 0 1 1 4.828-4.828 4.833 4.833 0 0 1-4.828 4.828m0-8.583a3.755 3.755 0 1 0 3.755 3.755 3.759 3.759 0 0 0-3.755-3.755" transform="translate(-8.608 -221.286)" style="fill:#282d33"/>
            <path data-name="Path 9492" d="M457.737 40.287h-2.823l-.15-1.8a5.484 5.484 0 0 1-1.083-.477l-1.328 1.123-2-2 1.168-1.38a5.479 5.479 0 0 1-.428-1.1l-1.733-.145v-2.824l1.8-.15a5.486 5.486 0 0 1 .477-1.083l-1.124-1.327 2-2L453.9 28.3a5.489 5.489 0 0 1 1.1-.428l.145-1.733h2.822l.15 1.8a5.483 5.483 0 0 1 1.083.476l1.327-1.123 2 2-1.168 1.38a5.48 5.48 0 0 1 .428 1.1l1.733.145v2.823l-1.8.15a5.477 5.477 0 0 1-.477 1.083l1.123 1.327-2 2-1.38-1.168a5.473 5.473 0 0 1-1.1.428zm-1.837-1.073h.849l.129-1.546.4-.076a4.426 4.426 0 0 0 1.487-.574l.33-.2 1.207 1.021.6-.6-1-1.184.229-.337a4.425 4.425 0 0 0 .645-1.458l.091-.377 1.577-.132V32.9l-1.546-.129-.076-.4a4.429 4.429 0 0 0-.574-1.487l-.2-.33 1.021-1.207-.6-.6-1.184 1-.337-.229a4.426 4.426 0 0 0-1.458-.645l-.377-.091-.131-1.577h-.849L456 28.753l-.4.076a4.428 4.428 0 0 0-1.488.574l-.331.2-1.207-1.022-.6.6 1 1.184-.229.337a4.421 4.421 0 0 0-.645 1.458l-.091.377-1.576.131v.849l1.546.129.076.4a4.418 4.418 0 0 0 .574 1.487l.2.33-1.022 1.207.6.6 1.184-1 .337.229a4.411 4.411 0 0 0 1.457.645l.377.091z" transform="translate(-328.84 -19.125)" style="fill:#282d33"/>
            <path data-name="Path 9493" d="M469.632 42.863a3.538 3.538 0 1 1-3.538-3.538 3.538 3.538 0 0 1 3.538 3.538" transform="translate(-338.493 -28.778)" style="fill:#c0d44c"/>
            <path data-name="Path 9494" d="M472.228 46.961a2.036 2.036 0 1 1-2.036-2.036 2.036 2.036 0 0 1 2.036 2.036" transform="translate(-342.591 -32.876)" style="fill:#fff"/>
            <path data-name="Path 9495" d="M468.728 48.07a2.573 2.573 0 1 1 2.572-2.57 2.576 2.576 0 0 1-2.572 2.573m0-4.072a1.5 1.5 0 1 0 1.5 1.5 1.5 1.5 0 0 0-1.5-1.5" transform="translate(-341.128 -31.412)" style="fill:#282d33"/>
            <path data-name="Path 9496" d="M694.511 125.893h-1.073q0-.276.007-.55l1.072.027q-.006.261-.006.523" transform="translate(-507.45 -91.725)" style="fill:#282d33"/>
            <path data-name="Path 9497" d="m694.747 67.437-1.07-.083c.029-.37.068-.746.116-1.117l1.064.138c-.046.353-.083.71-.11 1.062m.275-2.117-1.055-.194c.068-.369.146-.739.232-1.1l1.043.249c-.082.343-.156.694-.22 1.045m.5-2.076-1.029-.3c.106-.36.223-.72.347-1.072l1.012.358c-.118.334-.229.676-.33 1.018m.714-2.016-.991-.411c.143-.345.3-.691.458-1.028l.968.463c-.153.32-.3.649-.435.976m.921-1.929-.942-.513c.179-.329.368-.657.563-.974l.914.562c-.185.3-.365.612-.535.925m1.118-1.821-.884-.608c.211-.307.434-.612.662-.909l.851.654c-.217.282-.429.573-.629.864m1.3-1.693-.815-.7c.243-.285.5-.565.753-.835l.778.739c-.244.256-.484.523-.715.793m1.47-1.549-.739-.778c.269-.255.55-.508.835-.752l.7.816c-.271.231-.538.472-.793.715m1.623-1.387-.66-.852c.294-.226.6-.448.908-.66l.609.883c-.293.2-.583.413-.863.628m1.758-1.209-.561-.914c.318-.2.645-.384.972-.562l.512.942c-.31.169-.621.348-.923.534m1.873-1.018-.463-.968a21.21 21.21 0 0 1 1.025-.457l.411.991c-.326.135-.654.281-.973.434m1.968-.816-.358-1.011a21.84 21.84 0 0 1 1.069-.347l.3 1.029c-.34.1-.682.212-1.015.33m2.046-.605-.25-1.043c.362-.087.732-.165 1.1-.233l.194 1.055c-.349.064-.7.138-1.044.221m2.1-.386-.139-1.064a21.81 21.81 0 0 1 1.118-.116l.083 1.07c-.354.027-.711.065-1.062.11" transform="translate(-507.625 -34.859)" style="fill:#282d33"/>
            <path data-name="Path 9498" d="m771.415 48.472-.027-1.073q.274-.007.55-.007v1.073q-.262 0-.523.006" transform="translate(-564.493 -34.682)" style="fill:#282d33"/>
            <path data-name="Path 9499" d="M758.14 28.244a8.851 8.851 0 1 1-8.851-8.851 8.851 8.851 0 0 1 8.851 8.851" transform="translate(-541.844 -14.192)" style="fill:#fff"/>
            <path data-name="Path 9500" d="M747.825 36.168a9.387 9.387 0 1 1 9.387-9.387 9.4 9.4 0 0 1-9.387 9.387m0-17.7a8.315 8.315 0 1 0 8.315 8.315 8.324 8.324 0 0 0-8.315-8.315" transform="translate(-540.381 -12.728)" style="fill:#282d33"/>
            <path data-name="Path 9501" d="M9.447 255.065A7.444 7.444 0 0 0 2 262.51c0 4.115 7.447 10.463 7.447 10.463s7.446-6.348 7.446-10.463a7.444 7.444 0 0 0-7.446-7.445" transform="translate(-1.464 -186.654)" style="fill:#5eb4e7"/>
            <path data-name="Path 9502" d="m7.983 272.214-.348-.3C7.324 271.652 0 265.359 0 261.046a7.983 7.983 0 0 1 15.966 0c0 4.313-7.323 10.606-7.634 10.871zm0-18.076a6.917 6.917 0 0 0-6.91 6.908c0 1.549 1.241 3.769 3.588 6.419a42.6 42.6 0 0 0 3.322 3.329 42.653 42.653 0 0 0 3.33-3.338c2.342-2.646 3.58-4.862 3.58-6.41a6.917 6.917 0 0 0-6.91-6.908" transform="translate(0 -185.19)" style="fill:#282d33"/>
            <path data-name="Path 9503" d="M14.84 273.375a5.468 5.468 0 1 1 5.465-5.469 5.469 5.469 0 0 1-5.465 5.469" transform="translate(-6.856 -192.05)" style="fill:#fff"/>
            <path data-name="Path 9504" d="M18.211 275.51a4.232 4.232 0 1 1 4.23-4.233 4.239 4.239 0 0 1-4.23 4.233m0-7.392a3.159 3.159 0 1 0 3.158 3.158 3.164 3.164 0 0 0-3.158-3.158" transform="translate(-10.227 -195.421)" style="fill:#282d33"/>
            <path data-name="Path 9505" d="M168.118 29.144a8.551 8.551 0 1 0-2.5 6.056 8.506 8.506 0 0 0 2.5-6.056" transform="translate(-110.5 -15.064)" style="fill:#fff"/>
            <path data-name="Path 9506" d="M158.1 36.778a9.075 9.075 0 1 1 .015 0zm0-17.12a8.024 8.024 0 1 0 0 16.047v.536l.013-.536a8.024 8.024 0 0 0-.017-16.047" transform="translate(-109.037 -13.6)" style="fill:#282d33"/>
            <path data-name="Path 9507" d="M169.22 38.783A6.767 6.767 0 1 1 171.2 34a6.736 6.736 0 0 1-1.978 4.781" transform="translate(-115.356 -19.921)" style="fill:#5eb4e7"/>
            <path data-name="Path 9508" d="M163.069 37.2H162a5.618 5.618 0 0 1 5.609-5.613v1.073a4.545 4.545 0 0 0-4.536 4.54" transform="translate(-118.547 -23.113)" style="fill:#fff"/>
            <path data-name="Rectangle 4587" transform="translate(46.793 25.039)" style="fill:#f8c44f" d="M0 0h4.531v8.003H0z"/>
            <path data-name="Line 1271" transform="translate(49.864 28.025)" style="fill:#fff" d="M0 3.596.001 0"/>
            <path data-name="Rectangle 4588" transform="translate(49.328 28.025)" style="fill:#fff" d="M0 0h1.073v3.596H0z"/>
            <path data-name="Rectangle 4589" transform="translate(47.31 25.038)" style="fill:#fff" d="M0 0h3.497v1.713H0z"/>
            <path data-name="Path 9509" d="M174.392 94.138v-2.786h4.57v2.785zm1.073-1.713v.64h2.424v-.639z" transform="translate(-127.618 -66.85)" style="fill:#282d33"/>
            <path data-name="Path 9510" d="M179.889 124.031a2.474 2.474 0 0 1-3.5 0v-.839h3.5v.84" transform="translate(-129.082 -90.15)" style="fill:#fff"/>
            <path data-name="Path 9511" d="M176.677 123.826a2.993 2.993 0 0 1-2.129-.881l-.157-.157v-1.6h4.567v1.6l-.157.157a2.989 2.989 0 0 1-2.127.881m-1.213-1.5a1.939 1.939 0 0 0 2.424 0v-.065h-2.424z" transform="translate(-127.617 -88.685)" style="fill:#282d33"/>
            <path data-name="Rectangle 4590" transform="translate(47.617 23.652)" style="fill:#282d33" d="M0 0h1.073v1.465H0z"/>
            <path data-name="Rectangle 4591" transform="translate(49.428 22.704)" style="fill:#282d33" d="M0 0h1.073v1.896H0z"/>
            <path data-name="Path 9512" d="M758.854 27.407a7.31 7.31 0 1 0 0 10.336 7.317 7.317 0 0 0 0-10.336" transform="translate(-546.189 -18.491)" style="fill:#5eb4e7"/>
            <path data-name="Path 9513" d="M763.49 35.285a5.016 5.016 0 1 0 0 7.093 5.021 5.021 0 0 0 0-7.093" transform="translate(-552.447 -24.747)" style="fill:#fff"/>
            <path data-name="Path 9514" d="M769.022 44.684a2.28 2.28 0 1 0 0 3.223 2.282 2.282 0 0 0 0-3.223" transform="translate(-559.914 -32.211)" style="fill:#5eb4e7"/>
            <path data-name="Path 9515" d="m800.245 8.973-.609-1.824 3.446-3.449.609 1.825z" transform="translate(-585.165 -2.71)" style="fill:#f8c44f"/>
            <path data-name="Path 9516" d="m801.905 13.953 1.825.609 3.445-3.446-1.824-.608z" transform="translate(-586.825 -7.689)" style="fill:#f8c44f"/>
            <path data-name="Path 9517" d="m798.337 7.256-.988-2.962L801.643 0l.988 2.963zm.24-2.672.229.687 2.6-2.6-.229-.687z" transform="translate(-583.491)" style="fill:#282d33"/>
            <path data-name="Path 9518" d="m801.165 13.5-2.962-.988L802.5 8.22l2.962.987zm-.977-1.456.687.229 2.6-2.6-.686-.229z" transform="translate(-584.116 -6.015)" style="fill:#282d33"/>
            <path data-name="Path 9519" d="M771.725 19.374a.536.536 0 0 1-.379-.916l11.67-11.67a.536.536 0 0 1 .758.759L772.1 19.217a.535.535 0 0 1-.379.157" transform="translate(-564.347 -4.853)" style="fill:#282d33"/>
            <path data-name="Path 9520" d="m614.6 303.286 3.733 2.134-3.757 2.168-3.732-2.133z" transform="translate(-447.01 -221.942)" style="fill:#f8c44f"/>
            <path data-name="Path 9521" d="M613.114 306.661a.536.536 0 0 1-.266-.071l-3.732-2.133a.536.536 0 0 1 0-.93l3.757-2.169a.536.536 0 0 1 .534 0l3.733 2.134a.536.536 0 0 1 0 .93l-3.757 2.169a.537.537 0 0 1-.268.072m-2.656-2.672 2.654 1.517 2.682-1.548-2.655-1.518z" transform="translate(-445.546 -220.477)" style="fill:#282d33"/>
            <path data-name="Path 9522" d="m628.337 311.06.043 4.336-3.757 2.169-.043-4.336z" transform="translate(-457.061 -227.63)" style="fill:#f8c44f"/>
            <path data-name="Path 9523" d="M623.341 316.82a.537.537 0 0 1-.536-.531l-.043-4.336a.538.538 0 0 1 .268-.47l3.757-2.168a.537.537 0 0 1 .8.459l.043 4.335a.537.537 0 0 1-.268.47l-3.757 2.17a.535.535 0 0 1-.268.072m.5-4.565.031 3.1 2.691-1.553-.031-3.1z" transform="translate(-455.73 -226.3)" style="fill:#282d33"/>
            <path data-name="Path 9524" d="m614.578 313.507.043 4.336-3.733-2.133-.043-4.336z" transform="translate(-447.01 -227.86)" style="fill:#fff"/>
            <path data-name="Path 9525" d="M613.158 316.917a.536.536 0 0 1-.266-.071l-3.733-2.133a.537.537 0 0 1-.27-.461l-.043-4.336a.536.536 0 0 1 .8-.471l3.732 2.133a.536.536 0 0 1 .27.46l.043 4.26a.583.583 0 0 1 .006.082.536.536 0 0 1-.536.536h-.005m-3.2-2.983 2.654 1.517-.031-3.094-2.653-1.516z" transform="translate(-445.547 -226.397)" style="fill:#282d33"/>
            <path data-name="Path 9526" d="M604.712 306.6h-.012a7.482 7.482 0 0 1-1.148-.089l.165-1.06a6.376 6.376 0 0 0 .983.076zm1.157-.091-.168-1.06a6.31 6.31 0 0 0 .964-.232l.332 1.02a7.414 7.414 0 0 1-1.128.271m-3.442-.266a7.359 7.359 0 0 1-1.073-.443l.486-.956a6.315 6.315 0 0 0 .917.379zm5.641-.45-.488-.955a6.358 6.358 0 0 0 .845-.519l.632.867a7.4 7.4 0 0 1-.988.608m-7.7-.6a7.364 7.364 0 0 1-.883-.753l.758-.759a6.392 6.392 0 0 0 .755.644zm9.575-.763-.76-.758a6.456 6.456 0 0 0 .645-.755l.867.631a7.492 7.492 0 0 1-.753.882m-11.213-.87a7.458 7.458 0 0 1-.609-.987l.955-.49a6.338 6.338 0 0 0 .521.845zm12.573-1-.956-.487a6.3 6.3 0 0 0 .38-.917l1.02.331a7.354 7.354 0 0 1-.444 1.073m-13.632-1.06a7.391 7.391 0 0 1-.272-1.128l1.06-.169a6.287 6.287 0 0 0 .232.964zm14.342-1.144-1.06-.166a6.454 6.454 0 0 0 .077-.99v-.028h1.07v.028a7.49 7.49 0 0 1-.09 1.156m-14.706-1.141v-.014a7.467 7.467 0 0 1 .087-1.14l1.06.164a6.4 6.4 0 0 0-.075.976zm13.642-1.03a6.316 6.316 0 0 0-.234-.963l1.019-.335a7.359 7.359 0 0 1 .275 1.127zm-12.266-.926-1.021-.329a7.37 7.37 0 0 1 .442-1.074l.957.486a6.293 6.293 0 0 0-.378.917m11.648-.952a6.354 6.354 0 0 0-.522-.843l.865-.635a7.433 7.433 0 0 1 .611.986zm-10.753-.812-.869-.629a7.446 7.446 0 0 1 .752-.883l.761.756a6.356 6.356 0 0 0-.643.756m9.583-.783a6.357 6.357 0 0 0-.756-.642l.628-.87a7.391 7.391 0 0 1 .884.75zm-8.188-.62-.634-.866a7.388 7.388 0 0 1 .987-.61l.49.954a6.311 6.311 0 0 0-.843.521m6.584-.539a6.323 6.323 0 0 0-.918-.377l.328-1.021a7.335 7.335 0 0 1 1.074.441zm-4.825-.365-.334-1.019a7.423 7.423 0 0 1 1.128-.274l.17 1.059a6.315 6.315 0 0 0-.963.234m2.943-.24a6.389 6.389 0 0 0-.97-.074l-.021-1.073h.021a7.5 7.5 0 0 1 1.133.086z" transform="translate(-437.103 -213.541)" style="fill:#282d33"/>
            <path data-name="Path 9527" d="m620.646 272.994-1.6-1.6-1.6 1.6-.758-.759 2.356-2.355 2.357 2.355z" transform="translate(-451.288 -197.495)" style="fill:#282d33"/>
            <path data-name="Rectangle 4592" transform="translate(167.224 73.534)" style="fill:#282d33" d="M0 0h1.073v3.345H0z"/>
            <path data-name="Path 9528" d="M591.364 287.294h-1.073v-3.331h3.331v1.073h-2.259z" transform="translate(-431.968 -207.799)" style="fill:#282d33"/>
            <path data-name="Rectangle 4593" transform="rotate(-45.01 172.731 -152.912)" style="fill:#282d33" d="M0 0h1.073v3.344H0z"/>
            <path data-name="Path 9529" d="M592.791 344.895h-3.331v-3.331h1.073v2.259h2.259z" transform="translate(-431.359 -249.951)" style="fill:#282d33"/>
            <path data-name="Rectangle 4594" transform="rotate(-45 192.433 -144.492)" style="fill:#282d33" d="M0 0h3.345v1.073H0z"/>
            <path data-name="Path 9530" d="M647.06 345.727v-1.073h2.259v-2.259h1.073v3.331z" transform="translate(-473.511 -250.561)" style="fill:#282d33"/>
            <path data-name="Rectangle 4595" transform="rotate(-45.007 198.14 -163)" style="fill:#282d33" d="M0 0h1.073v3.344H0z"/>
            <path data-name="Path 9531" d="m617.871 360.406-2.357-2.355.758-.759 1.6 1.6 1.6-1.6.759.759z" transform="translate(-450.427 -261.463)" style="fill:#282d33"/>
            <path data-name="Rectangle 4596" transform="translate(166.908 94.449)" style="fill:#282d33" d="M0 0h1.073v3.345H0z"/>
            <path data-name="Path 9532" d="M650.151 288.126v-2.259h-2.26v-1.073h3.331v3.331z" transform="translate(-474.119 -208.408)" style="fill:#282d33"/>
            <path data-name="Rectangle 4597" transform="rotate(-45 182.358 -169.897)" style="fill:#282d33" d="M0 0h3.345v1.073H0z"/>
        </g>
    </g>
</svg>
