<svg data-name="Group 4971" xmlns="http://www.w3.org/2000/svg" width="225" height="127.104" viewBox="0 0 225 127.104">
    <defs>
        <clipPath id="3ubj8t9uja">
            <path data-name="Rectangle 3417" style="fill:none" d="M0 0h225v127.104H0z"/>
        </clipPath>
        <clipPath id="t4afscubdb">
            <path data-name="Rectangle 3407" style="fill:none" d="M0 0h103.149v101.413H0z"/>
        </clipPath>
        <clipPath id="k1ookuspnc">
            <path data-name="Rectangle 3409" style="fill:none" d="M0 0h103.104v100.987H0z"/>
        </clipPath>
        <clipPath id="z3kzyjc2hd">
            <path data-name="Rectangle 3410" style="fill:none" d="M0 0h90.681v93.872H0z"/>
        </clipPath>
        <clipPath id="rxj8ygo4je">
            <path data-name="Rectangle 3411" style="fill:none" d="M0 0h61.246v63.401H0z"/>
        </clipPath>
        <clipPath id="zt9m3y0hdf">
            <path data-name="Rectangle 3412" style="fill:none" d="M0 0h103.029v100.987H0z"/>
        </clipPath>
        <clipPath id="0jrabsgvxg">
            <path data-name="Rectangle 3413" style="fill:none" d="M0 0h45.558v47.161H0z"/>
        </clipPath>
        <clipPath id="pjw5398nmh">
            <path data-name="Rectangle 3414" style="fill:none" d="M0 0h36.566v37.853H0z"/>
        </clipPath>
    </defs>
    <g data-name="Group 4970" style="clip-path:url(#3ubj8t9uja)">
        <g data-name="Group 4947">
            <g data-name="Group 4946" style="clip-path:url(#3ubj8t9uja)">
                <path data-name="Path 5841" d="M300.222 70.628c-.052-18.445-8.149-36.589-21.274-47.953q-1.905-1.649-3.95-3.1a45.6 45.6 0 0 0-30.511-8.524c-32.041 2.614-35.4-10.5-58.829-11.012-20.245-.444-48.441 3.206-74.741 27.949a128.421 128.421 0 0 0-12.224 13.3c-29.46 36.785-9.981 85.412-9.981 85.412l22.246.111H289.5a153.427 153.427 0 0 0 10.721-56.182" transform="translate(-75.222 -.004)" style="fill:#c5e1f9"/>
                <path data-name="Path 5842" d="M574.057 19.574V126.7l-164.04.111-.04-98.822C434.075 5.316 459.765.353 479.471.023c1.8-.031 3.551-.023 5.246.015 15.619.343 22.319 6.284 34.544 9.433 6.112 1.575 13.606 2.45 24.285 1.579a45.6 45.6 0 0 1 30.511 8.524" transform="translate(-374.282 -.004)" style="fill:#8cb7ea"/>
                <path data-name="Path 5843" d="m519.263 9.471-109.285 97.338V57.943L479.472.023c1.8-.031 3.551-.023 5.246.015 15.619.343 22.319 6.284 34.544 9.433" transform="translate(-374.283 -.004)" style="fill:#97c2f0"/>
                <path data-name="Path 5844" d="M1497.7 732.422V791.3l-4.567 4.068-71.425.385z" transform="translate(-1297.929 -668.654)" style="fill:#80afe3"/>
                <path data-name="Rectangle 3396" transform="translate(61.92 25.501)" style="fill:#d4ebff" d="M0 0h116.849v101.305H0z"/>
                <path data-name="Rectangle 3397" transform="translate(87.452 25.501)" style="fill:#c5e1f9" d="M0 0h.433v101.603H0z"/>
                <path data-name="Rectangle 3398" transform="translate(110.831 25.501)" style="fill:#c5e1f9" d="M0 0h.434v101.603H0z"/>
                <path data-name="Rectangle 3399" transform="translate(131.874 25.501)" style="fill:#c5e1f9" d="M0 0h.434v101.603H0z"/>
                <path data-name="Rectangle 3400" transform="translate(152.804 25.501)" style="fill:#c5e1f9" d="M0 0h.434v101.603H0z"/>
                <path data-name="Path 5845" d="M353.652 545.522v.58s.156 1.814-2.055 2.078-4.024.231-3.964-1.169a29.868 29.868 0 0 0 .571-3.662 6.376 6.376 0 0 0-.079-1.086l4.284-.086 1.262.208z" transform="translate(-317.363 -494.972)" style="fill:#ffb27d"/>
                <path data-name="Path 5846" d="m358.843 542.385-.016 3.137a6.425 6.425 0 0 1-1.911-.327 6.8 6.8 0 0 1-3.618-2.931l4.284-.086z" transform="translate(-322.537 -494.972)" style="fill:#e2915a"/>
                <path data-name="Path 5847" d="M342.19 463.817c.5 2.7 3.949 2.613 5.44 2.443.42-.047.684-.1.684-.1.473-.128.737-.881.86-1.867a15.51 15.51 0 0 0-.391-5.551c-.491-1.1-1.417-2.3-4.893-1.435s-2.339 3.049-1.7 6.511" transform="translate(-311.758 -417.222)" style="fill:#ffb27d"/>
                <path data-name="Path 5848" d="M317.089 1422.279h4.891a12.047 12.047 0 0 0-.39-1.773 5.073 5.073 0 0 0-.277-.712c-.476-.959-3.5-.349-3.5-.349a2.361 2.361 0 0 0-.5 1.171 9.921 9.921 0 0 0-.227 1.664" transform="translate(-289.481 -1295.685)" style="fill:#233862"/>
                <path data-name="Path 5849" d="M486.823 1399.635a2.7 2.7 0 0 0 .339 1.559h9.674a1.672 1.672 0 0 0-1.464-1.048 7.307 7.307 0 0 1-3.915-1.83 2.952 2.952 0 0 1-.758-1.386c-.455-2.047-3.763.627-3.763.627a16.712 16.712 0 0 0-.112 2.079" transform="translate(-444.435 -1274.6)" style="fill:#233862"/>
                <path data-name="Path 5850" d="M361.945 920.6a15.556 15.556 0 0 1 .243 1.805c.308 6.06 5.05 19.915 5.9 20.238 1.312.5 3.379-.563 4.46-.911a.937.937 0 0 0 .651-1.064c-2.349-10.905-3.212-26.609-3.526-35.906a42.6 42.6 0 0 0-.954-7.918s-11.566-3.117-11.635.826c-.061 3.489 3.831 17.174 4.863 22.93" transform="translate(-325.992 -817.693)" style="fill:#2b478b"/>
                <path data-name="Path 5851" d="m361.945 920.6 7.727-15.838a42.6 42.6 0 0 0-.954-7.918s-11.566-3.117-11.635.826c-.061 3.489 3.831 17.174 4.863 22.93" transform="translate(-325.992 -817.693)" style="fill:#233862"/>
                <path data-name="Path 5852" d="m306.454 903.824-6.114 44.763a11.846 11.846 0 0 1-4.773.131s-1.79-23.807-1.641-29.562-1.285-15.4.327-16.464 12.2 1.133 12.2 1.133" transform="translate(-267.927 -823.832)" style="fill:#2b478b"/>
                <path data-name="Path 5853" d="M333.97 435.041a11.4 11.4 0 0 1-3.335-.911 5.041 5.041 0 0 0-3.912.384.907.907 0 0 1 .146-.365.813.813 0 0 0-.309.462c-.028.021-.04.035-.033.04a1.023 1.023 0 0 0-.5.033s.137-.02.186.069a.084.084 0 0 0 .022.024c-2.285 1.115-2.5 4.763-1.76 5.606a18.56 18.56 0 0 1 1.945 3.3 1.976 1.976 0 0 0 .226-1.434c-.161-.894.6-.894 1.568-1.3s.161-1.543 1.005-2.234 3.941-.284 3.9-.812c1.149-.423.852-2.747.852-2.866" transform="translate(-295.878 -396.094)" style="fill:#233862"/>
                <path data-name="Path 5854" d="m341.656 606.633 1.408 30.51s11.749.194 11.414-2.492-4.235-27.084-4.235-27.084z" transform="translate(-311.909 -553.816)" style="fill:#e9f3fe"/>
                <path data-name="Path 5855" d="M269.806 612.03c.7 2.118-.619 9.226-1.089 11.633-.1.509-.172.81-.172.81 1.627 2.674 7.586 2.639 7.586 2.639a116.15 116.15 0 0 0 1.742-13.266L273.3 593.6l-5.753 5.371s.435 3.276.974 6.61a55.77 55.77 0 0 0 1.283 6.448" transform="translate(-244.254 -541.919)" style="fill:#22407a"/>
                <path data-name="Path 5856" d="M429.237 595.82v.013c.278.272 8.121 7.964 9.641 10.977 1.547 3.056-7.071 9.145-7.071 9.145a1.988 1.988 0 0 1-.939.135c.406 3.379.862 6.5.592 7.828-.488 2.405-2.691 3.213-2.691 3.028 0-.059-.806-8.741-1.243-13.271a158.2 158.2 0 0 0-3.288-19.362 16.422 16.422 0 0 1 5 1.508m4.67 12.31a.071.071 0 0 0 .011-.046c0-.44-1.662-1.412-3.461-2.558l-.034-.035c.032.936.028 1.855-.027 2.71a34.988 34.988 0 0 0 .2 5.412c.857-1.351 3.145-4.982 3.312-5.48" transform="translate(-387.303 -542.568)" style="fill:#22407a"/>
                <path data-name="Path 5857" d="M337.831 585.911c-.014-.291 1.351-.693 1.351-.693a5.663 5.663 0 0 0 4.137 2.227 4.6 4.6 0 0 1-1.6 1.816s-3.805-1.62-3.89-3.349" transform="translate(-308.417 -534.266)" style="fill:#d9e9f9"/>
                <path data-name="Path 5858" d="M400.871 592.22s1.364-.817 1.369-1.7c0 0 .881-.111 1.266.32a4.627 4.627 0 0 1-.106 2.4s-1.964-.3-2.529-1.017" transform="translate(-365.969 -539.092)" style="fill:#d9e9f9"/>
                <path data-name="Path 5859" d="m389.423 604 1.85-.448a.282.282 0 0 1 .235.326 2.383 2.383 0 0 1-.749 1.265c-.228.071-1.773-.527-1.336-1.142" transform="translate(-355.446 -551.003)" style="fill:#ba4c43"/>
                <path data-name="Path 5860" d="M340.305 582.114c-.014-.291.91-.891.91-.891a6.49 6.49 0 0 0 4.363 2.149 4.6 4.6 0 0 1-1.6 1.816s-3.59-1.345-3.675-3.074" transform="translate(-310.676 -530.619)" style="fill:#e9f3fe"/>
                <path data-name="Path 5861" d="M400.871 588.881s1.38-.739 1.384-1.624a4.4 4.4 0 0 1 1.217.8 2.581 2.581 0 0 1-.073 1.839s-1.964-.3-2.529-1.017" transform="translate(-365.969 -536.127)" style="fill:#e9f3fe"/>
                <path data-name="Path 5862" d="M402.448 635.63a2.891 2.891 0 0 1-.908 1.861l-.819.762a.476.476 0 0 1-.7-.057L399 636.9a1.741 1.741 0 0 1-.358-1.233c.095-.985.272-2.883.413-4.715.115-1.484.207-2.926.214-3.8.022-2.8-.528-11.732-.528-11.732l.665.035a36.215 36.215 0 0 1 2.515 8.184 31.515 31.515 0 0 1 .46 3.677 68.737 68.737 0 0 1 .063 8.322" transform="translate(-363.93 -561.831)" style="fill:#c65447"/>
                <path data-name="Path 5863" d="M402.448 721.812a2.891 2.891 0 0 1-.908 1.861l-.819.762a.476.476 0 0 1-.7-.057l-1.015-1.3a1.741 1.741 0 0 1-.358-1.233c.095-.985.272-2.883.413-4.715a13.628 13.628 0 0 0 2.867-7.316 31.515 31.515 0 0 1 .46 3.677 68.736 68.736 0 0 1 .063 8.322" transform="translate(-363.93 -648.013)" style="fill:#ba4c43"/>
                <path data-name="Path 5864" d="M490.383 834.954a1.276 1.276 0 0 0-1.438-1.285.785.785 0 0 0-.534.3c-.524.7-1.022 2.754-.094 2.849a2.028 2.028 0 0 0 1.237-.516 1.819 1.819 0 0 0 .829-1.23z" transform="translate(-445.327 -761.071)" style="fill:#ffb27d"/>
                <path data-name="Path 5865" d="M278.931 749.288c1.685-1.771 4.6-5.255 4.492-8.115-.137-4.005-4.687-9.966-4.687-9.966a55.774 55.774 0 0 0 1.283 6.448c.7 2.118-.619 9.226-1.089 11.634" transform="translate(-254.468 -667.544)" style="fill:#233862"/>
                <path data-name="Path 5866" d="M276.881 858.865a2.99 2.99 0 0 0 1.946.306 1.869 1.869 0 0 1 2.422.409c.822.945.995 1.6.822 1.95s-2.089.218-2.407 0-.821-.756-1.14-.662a2.006 2.006 0 0 1-2.036-.96c-.25-.326.425-.484.393-1.043" transform="translate(-252.364 -784.087)" style="fill:#ffb27d"/>
                <path data-name="Path 5867" d="M199.148 593.6s-4.823.539-5.961 2.661-7.053 10.721-6.859 14.294 8.069 7.581 8.069 7.581 1.744-.744 1.77-1.545-5.445-5.589-5.113-6.482 6.355-7.959 6.937-10.289 1.157-6.219 1.157-6.219" transform="translate(-170.101 -541.919)" style="fill:#22407a"/>
                <path data-name="Path 5868" d="m495.172 699.746.034.035c1.8 1.146 3.461 2.118 3.461 2.558.241-.776-2.1-4.017-2.854-4.677s-.642 2.083-.642 2.083" transform="translate(-452.052 -636.823)" style="fill:#233862"/>
                <path data-name="Path 5869" d="M328.544 581.222s3.662 15.492 3.079 21.328a40 40 0 0 0-4.586-11.345s1.182-1.05 1.118-1.438a4.009 4.009 0 0 0-1.729-.086s.094-6.678.625-7.383a3.869 3.869 0 0 1 1.493-1.077" transform="translate(-298.005 -530.617)" style="fill:#233862"/>
                <path data-name="Path 5870" d="M416.763 587.254c-.059-.059 3.629 15.139 3.938 19.977 0 0-.367-8.633-.331-11.122 0 0-1.264-.87-1.264-1.155s1.366-1 1.366-1-1.027-5.317-1.588-5.9a4.658 4.658 0 0 0-2.121-.8" transform="translate(-380.476 -536.124)" style="fill:#233862"/>
                <path data-name="Rectangle 3401" transform="translate(171.919 25.501)" style="fill:#5f9cce" d="M0 0h6.85v101.305H0z"/>
                <path data-name="Rectangle 3402" transform="translate(61.92 25.501)" style="fill:#5f9cce" d="M0 0h6.85v101.305H0z"/>
                <path data-name="Path 5871" d="M1259.423 98.136h-21.508a2.906 2.906 0 0 1-2.9-2.9v-3.95a2.906 2.906 0 0 1 2.9-2.9h21.508a2.906 2.906 0 0 1 2.9 2.9v3.95a2.906 2.906 0 0 1-2.9 2.9" transform="translate(-1127.489 -80.695)" style="fill:#d4ebff"/>
                <path data-name="Rectangle 3403" transform="translate(61.92 23.073)" style="fill:#73a8dd" d="M0 0h117.416v2.428H0z"/>
                <path data-name="Rectangle 3404" transform="translate(59.492 23.073)" style="fill:#73a8dd" d="M0 0h2.428v103.621H0z"/>
                <path data-name="Rectangle 3405" transform="translate(178.769 23.073)" style="fill:#73a8dd" d="M0 0h2.428v103.621H0z"/>
                <path data-name="Path 5872" d="M1269.542 126.686a1.613 1.613 0 0 1 .1-.482 1.1 1.1 0 0 1 .249-.393 1.187 1.187 0 0 1 .412-.265 1.578 1.578 0 0 1 .585-.1 1.6 1.6 0 0 1 .581.1 1.144 1.144 0 0 1 .412.265 1.159 1.159 0 0 1 .251.393 1.564 1.564 0 0 1 .1.485q0 .087.007.192t0 .217v.217q0 .105-.007.192a1.614 1.614 0 0 1-.1.482 1.1 1.1 0 0 1-.249.393 1.154 1.154 0 0 1-.414.263 1.826 1.826 0 0 1-1.168 0 1.16 1.16 0 0 1-.412-.263 1.1 1.1 0 0 1-.249-.393 1.614 1.614 0 0 1-.1-.482q0-.087-.007-.192t0-.217v-.217q0-.105.007-.192m2.071.023a.727.727 0 0 0-1.454 0q-.009.174-.009.386t.009.386a.711.711 0 0 0 .213.508.831.831 0 0 0 1.029 0 .711.711 0 0 0 .213-.508q.009-.174.009-.386t-.009-.386" transform="translate(-1159 -114.525)" style="fill:#233862"/>
                <path data-name="Path 5873" d="M1309.525 125.972a.125.125 0 0 1 .123.124v.325a.125.125 0 0 1-.123.124h-1.459v.887h1.367a.125.125 0 0 1 .124.123v.325a.125.125 0 0 1-.124.123h-1.367v1.047a.125.125 0 0 1-.123.123h-.37a.125.125 0 0 1-.123-.123v-2.95a.125.125 0 0 1 .123-.124z" transform="translate(-1193.614 -115.004)" style="fill:#233862"/>
                <path data-name="Path 5874" d="M1340.876 125.972a.125.125 0 0 1 .123.124v.325a.125.125 0 0 1-.123.124h-1.459v.887h1.367a.125.125 0 0 1 .123.123v.325a.125.125 0 0 1-.123.123h-1.367v1.047a.125.125 0 0 1-.123.123h-.37a.125.125 0 0 1-.123-.123v-2.95a.125.125 0 0 1 .123-.124z" transform="translate(-1222.236 -115.004)" style="fill:#233862"/>
                <path data-name="Path 5875" d="M1370.274 129.173a.125.125 0 0 1-.123-.123v-2.95a.125.125 0 0 1 .123-.124h.37a.125.125 0 0 1 .123.124v2.954a.125.125 0 0 1-.123.123z" transform="translate(-1250.857 -115.004)" style="fill:#233862"/>
                <path data-name="Path 5876" d="M1386.1 127.678a.132.132 0 0 1 .048-.089.137.137 0 0 1 .084-.03h.37a.13.13 0 0 1 .089.034.1.1 0 0 1 .034.089 1.167 1.167 0 0 1-.094.375.981.981 0 0 1-.245.338 1.285 1.285 0 0 1-.416.247 1.708 1.708 0 0 1-.608.1 1.541 1.541 0 0 1-.558-.094 1.185 1.185 0 0 1-.411-.261 1.163 1.163 0 0 1-.263-.4 1.646 1.646 0 0 1-.112-.508q-.009-.174-.009-.384t.009-.384a1.646 1.646 0 0 1 .112-.507 1.163 1.163 0 0 1 .263-.4 1.188 1.188 0 0 1 .411-.261 1.543 1.543 0 0 1 .558-.094 1.708 1.708 0 0 1 .608.1 1.288 1.288 0 0 1 .416.247.977.977 0 0 1 .245.341 1.186 1.186 0 0 1 .094.373.1.1 0 0 1-.034.089.13.13 0 0 1-.089.034h-.37a.145.145 0 0 1-.087-.03.128.128 0 0 1-.05-.089.505.505 0 0 0-.064-.178.552.552 0 0 0-.137-.155.708.708 0 0 0-.219-.112 1 1 0 0 0-.311-.043.807.807 0 0 0-.311.055.653.653 0 0 0-.222.146.625.625 0 0 0-.137.219.94.94 0 0 0-.057.27q-.009.174-.009.384t.009.384a.923.923 0 0 0 .057.272.63.63 0 0 0 .137.217.655.655 0 0 0 .222.146.81.81 0 0 0 .311.055 1 1 0 0 0 .311-.043.737.737 0 0 0 .222-.112.534.534 0 0 0 .14-.155.5.5 0 0 0 .064-.178" transform="translate(-1263.513 -114.525)" style="fill:#233862"/>
                <path data-name="Path 5877" d="M1423.483 128.6a.125.125 0 0 1 .123.123v.325a.125.125 0 0 1-.123.123h-2.007a.125.125 0 0 1-.123-.123V126.1a.125.125 0 0 1 .123-.124h1.971a.125.125 0 0 1 .124.124v.325a.125.125 0 0 1-.124.124h-1.477v.727h1.376a.125.125 0 0 1 .124.123v.325a.125.125 0 0 1-.124.123h-1.376v.759z" transform="translate(-1297.6 -115.004)" style="fill:#233862"/>
                <path data-name="Path 5878" d="M1465.475 126.9a.512.512 0 0 0 .176-.224.662.662 0 0 0 .039-.21.465.465 0 0 0-.114-.318.614.614 0 0 0-.748-.007.713.713 0 0 0-.167.315.145.145 0 0 1-.055.089.139.139 0 0 1-.082.03h-.361a.131.131 0 0 1-.089-.034.1.1 0 0 1-.034-.089 1.007 1.007 0 0 1 .105-.389 1.065 1.065 0 0 1 .245-.32 1.165 1.165 0 0 1 .359-.217 1.323 1.323 0 0 1 .942.014 1.043 1.043 0 0 1 .348.242.98.98 0 0 1 .2.329 1.04 1.04 0 0 1 .066.359 1.642 1.642 0 0 1-.014.217.667.667 0 0 1-.064.206 1.028 1.028 0 0 1-.146.215 1.915 1.915 0 0 1-.256.24l-.846.773h1.271a.125.125 0 0 1 .123.123v.325a.125.125 0 0 1-.123.123h-2.135a.125.125 0 0 1-.123-.123v-.279a.209.209 0 0 1 .046-.135.434.434 0 0 1 .078-.08z" transform="translate(-1336.53 -114.525)" style="fill:#ed7d2b"/>
                <path data-name="Path 5879" d="M1494.808 127.005a.119.119 0 0 1-.025-.091.122.122 0 0 1 .048-.082l.992-.782.075-.053a.154.154 0 0 1 .085-.025h.357a.125.125 0 0 1 .123.124v2.954a.125.125 0 0 1-.123.123h-.37a.125.125 0 0 1-.123-.123v-2.26l-.649.508a.114.114 0 0 1-.089.025.137.137 0 0 1-.085-.048z" transform="translate(-1364.636 -115.004)" style="fill:#ed7d2b"/>
            </g>
        </g>
        <g data-name="Group 4949">
            <g data-name="Group 4948" style="clip-path:url(#t4afscubdb)" transform="translate(68.77 25.501)">
                <path data-name="Path 5880" d="m1594 1369.708.974 4.142 1.458-.008.053-4.134z" transform="translate(-1523.986 -1275.954)" style="fill:#e49963"/>
                <path data-name="Path 5881" d="m1734.9 1366.019 2.77 3.966 1.08-1.4-1.667-3.11z" transform="translate(-1652.614 -1272.088)" style="fill:#e49963"/>
                <path data-name="Path 5882" d="M1513.391 739.712a2.8 2.8 0 0 0-1.529-.3.711.711 0 0 1 .322-.154 2.351 2.351 0 0 0-.846.223c-3.64-1.417-4.212 4-4.136 5.255s-1.223 1.668-3.117 2.659c-3.614 1.891-3.931 4.423-3.931 4.423.028.017.057.036.089.058.179-.307.548-.883.86-.97a13.106 13.106 0 0 0-.5 1.232c1.066.819 3.06 2.634 4.45 3.921a2.084 2.084 0 0 1 .095-.8l.172 1.044c.744.691 1.257 1.176 1.257 1.176-.092-1.016 4.551-6.38 6.973-7.986a7.119 7.119 0 0 0 .815-2.548 6.742 6.742 0 0 1-.5 2.305c2.051-1.907.857-8.779-.478-9.545" transform="translate(-1438.312 -700.388)" style="fill:#163560"/>
                <path data-name="Path 5883" d="M1616.385 819.9a3.328 3.328 0 0 1-2.058.38 2.684 2.684 0 0 1-1.371-1.328c.354-.071.456-.562.449-2.674l.16.032 2.691.538s-.061.856-.063 1.661c0 .677.039 1.319.192 1.391" transform="translate(-1541.291 -770.709)" style="fill:#e49963"/>
                <path data-name="Path 5884" d="M1617.387 747.848a2.137 2.137 0 0 1 2.995-.073 11.55 11.55 0 0 0-2.995.073" transform="translate(-1545.337 -707.637)" style="fill:#e58638"/>
                <path data-name="Path 5885" d="M1622.641 817.181s-.061.856-.063 1.661a3.2 3.2 0 0 1-2.628-2.2z" transform="translate(-1547.677 -771.042)" style="fill:#d68d5d"/>
                <path data-name="Path 5886" d="M1606.252 754.675a8.035 8.035 0 0 1-.979-2.337c-.135-.769.253-3.619 3.088-3.209a3.825 3.825 0 0 1 1.6.61c.616.42 1.5 1.327.511 3.814l-.258.84z" transform="translate(-1534.257 -709.37)" style="fill:#163560"/>
                <path data-name="Path 5887" d="m1613.881 1061.768-1.427.044-1.544.048a30.866 30.866 0 0 1-5.568-10.442q-.07-.224-.148-.454c-1.095-3.225-3.365-7.273-4.561-10.937a65.105 65.105 0 0 1-.515-1.653c-.049-.167-.1-.33-.142-.491a39.2 39.2 0 0 1-1.372-7.3l8.638.07a164.1 164.1 0 0 0 6.639 31.111" transform="translate(-1528.189 -966.359)" style="fill:#2b478b"/>
                <path data-name="Path 5888" d="M1571.516 855.241a19.761 19.761 0 0 0 .6 5.933 11.5 11.5 0 0 1-8.094.5 954.57 954.57 0 0 0-3.229-.749c.074-.168.82-2.973.892-3.127a13.733 13.733 0 0 0 1.24-3.6 13.292 13.292 0 0 0 .107-3.479 28.159 28.159 0 0 0-1.066-5.463 27.916 27.916 0 0 0 3.566-1.231 2.77 2.77 0 0 0 1.924.721c.875-.02 1.159-.4 1.114-.811a29.06 29.06 0 0 1 1.678 1.02c.793 1.391 2.4 2.742 2.518 4.877.029.525-1.251 5.294-1.252 5.411" transform="translate(-1493.673 -795.957)" style="fill:#a8d29f"/>
                <path data-name="Path 5889" d="M1618.829 767.91s-3.563.059-3.566-2.182-.464-3.744 1.811-3.877 2.718.722 2.9 1.47-.217 4.516-1.144 4.589" transform="translate(-1543.361 -721.007)" style="fill:#e49963"/>
                <path data-name="Path 5890" d="M1606.684 756.337s-.976 2.63-2.473 3.019a2.921 2.921 0 0 1-2.147-.016 7.582 7.582 0 0 0 .891-2.659s2.992-1.6 3.728-.344" transform="translate(-1531.348 -715.549)" style="fill:#163560"/>
                <path data-name="Path 5891" d="M1652.345 759.318a3.171 3.171 0 0 1 .906 1.158c.178.571.257 1.746.6 1.706 0 0 .735-1.788-.091-2.8-.876-1.072-1.412-.065-1.412-.065" transform="translate(-1577.251 -718.316)" style="fill:#163560"/>
                <path data-name="Path 5892" d="M1602.435 1414.623a4.03 4.03 0 0 1-.186 1.7s-.239 1.1.833 1.119 1.334-.082 1.213-.755-.352-1.839-.352-1.839z" transform="translate(-1531.496 -1316.958)" style="fill:#e49963"/>
                <path data-name="Path 5893" d="M1603.255 1435.983s-.023.014-.068.036h-2.12a.505.505 0 0 1-.06-.036 5.309 5.309 0 0 1 .078-1.588c1.227 1.123 1.994-.028 1.994-.028a5.739 5.739 0 0 1 .176 1.616" transform="translate(-1530.346 -1334.983)" style="fill:#82b378"/>
                <path data-name="Path 5894" d="M1766.3 1404.626a30.219 30.219 0 0 1-2.581-3.428l-1.469.76 3.282 3.114.768-.1z" transform="translate(-1677.586 -1304.702)" style="fill:#e49963"/>
                <path data-name="Path 5895" d="M1763.621 1414.656h-2.7a3.875 3.875 0 0 1-.805-1.261 1.324 1.324 0 0 0-.894-.6v1.844h-.561l-.531-1.96a1.819 1.819 0 0 1 .219-1.75c.286 0 1.056.2 2.515 1.857a1.9 1.9 0 0 0 1.535.723l.021.012a1.969 1.969 0 0 1 1.2 1.139" transform="translate(-1673.683 -1313.582)" style="fill:#82b378"/>
                <path data-name="Path 5896" d="M1650.113 843.934a50.177 50.177 0 0 1 2.122 6.185c.061 1.041.242 17.025.242 17.025s-.121.735 1.273.429a4.655 4.655 0 0 0 1.758-.612s-1.334-9.86-.97-13.29-2.789-9.023-2.789-9.023z" transform="translate(-1575.213 -795.957)" style="fill:#2b478b"/>
                <path data-name="Path 5897" d="m1626.84 1128.088-1.544.048a30.87 30.87 0 0 1-5.568-10.442q-.07-.224-.148-.454c-1.095-3.225-3.365-7.273-4.561-10.937a65.105 65.105 0 0 1-.515-1.653c-.049-.167-.1-.33-.143-.491l1.272-.975s3.819 6.247 5 12.125c1.027 5.106 5.14 11.251 6.2 12.779" transform="translate(-1542.575 -1032.635)" style="fill:#233862"/>
                <path data-name="Path 5898" d="M1943.075 837.647h-.107a.278.278 0 0 1-.268-.34l13.275-58.754h1.876l-14.526 58.9a.257.257 0 0 1-.249.2" transform="translate(-1842.32 -736.267)" style="fill:#b27f5d"/>
                <path data-name="Path 5899" d="M1658.372 837.647h-.107a.278.278 0 0 1-.268-.34l13.275-58.754h1.875l-14.526 58.9a.257.257 0 0 1-.249.2" transform="translate(-1582.405 -736.267)" style="fill:#b27f5d"/>
                <path data-name="Path 5900" d="m1833.721 837.381-8.613-58.829h2.132l7.034 58.818a.251.251 0 0 1-.245.275.3.3 0 0 1-.306-.264" transform="translate(-1734.972 -736.267)" style="fill:#c6916d"/>
                <path data-name="Path 5901" d="m1818.962 778.552-.586 2.666 8.849 56.018a.479.479 0 0 0 .483.41h.176z" transform="translate(-1728.826 -736.267)" style="fill:#916140"/>
                <path data-name="Path 5902" d="m2106.63 837.381-8.356-58.829h1.875l7.034 58.818a.251.251 0 0 1-.245.275.3.3 0 0 1-.306-.264" transform="translate(-1984.355 -736.267)" style="fill:#c6916d"/>
                <path data-name="Path 5903" d="m2089.439 778.552-.843 2.666 8.85 56.018a.479.479 0 0 0 .482.41h.176z" transform="translate(-1975.519 -736.267)" style="fill:#916140"/>
                <path data-name="Path 5904" d="M1881.94 1019.708h-23.6l.126-1.429h23.6z" transform="translate(-1765.315 -955.122)" style="fill:#916140"/>
                <path data-name="Path 5905" d="M1725.924 813.664h-1.146l7.933-35.112h.8z" transform="translate(-1643.377 -736.268)" style="fill:#b27f5d"/>
                <path data-name="Path 5906" d="M1743.4 813.664h-26.827l8.031-35.112h27.084z" transform="translate(-1635.887 -736.268)" style="fill:#e5bd9e"/>
                <path data-name="Path 5907" d="M1756.147 820.359h-24.509l7.337-32.078h24.744z" transform="translate(-1649.64 -745.149)" style="fill:#e9f3fe"/>
                <path data-name="Path 5908" d="M1561.13 1098.474c.022 2.859-.121 9.431-.49 12.152h-1.368c-.756 0-1.133-.011-1.133-.011-.925-4.731-1.582-8.646-2.061-12.019-.393-2.768-.742-5.141-1.011-7.184s-.458-3.777-.526-5.232c-.01-.229-.018-.452-.022-.668s-.005-.429 0-.634l7.464-.735c-.094 5.009-.861 12.669-.849 14.33" transform="translate(-1487.938 -1015.253)" style="fill:#2b478b"/>
                <path data-name="Path 5909" d="M1559.554 1131.985c-.756 0-1.133-.011-1.133-.011-.925-4.731-1.583-8.646-2.062-12.019-.393-2.768-.742-5.141-1.011-7.184s-.458-3.777-.526-5.232l2.739 1.627s-1.748.623-1.081 5.338 2.145 16.813 3.073 17.48" transform="translate(-1488.22 -1036.611)" style="fill:#233862"/>
                <path data-name="Path 5910" d="M1542.432 867.938a2.227 2.227 0 0 1-2.344 1.674 21.767 21.767 0 0 1-4.405-1.347s.777-2.481 1.744-5.74c1.17-3.946 2.619-9.032 3.3-12.241a20.029 20.029 0 0 0 .371-2.188l1.509-2.957s2.25 5.1 2.371 6.387-2.547 16.413-2.547 16.413" transform="translate(-1470.745 -797.056)" style="fill:#2b478b"/>
                <path data-name="Path 5911" d="m1559.015 851.333 1.992-6.2a30.524 30.524 0 0 0-3.778 1.4 8.928 8.928 0 0 0-1.277 3.4s-.516 5.692.636 7.775c0 0 3.638.735 9.458-1.286v-1.347s-6.366.337-7.67.49z" transform="translate(-1489.144 -797.056)" style="fill:#e49963"/>
                <path data-name="Path 5912" d="M1560.635 908.167c-.081 2.082-.566 6.124-4.891 8.288l-.035.017c1.17-3.946 2.619-9.032 3.3-12.241.794 1.2 1.668 2.79 1.624 3.937" transform="translate(-1489.03 -851.003)" style="fill:#233862"/>
                <path data-name="Path 5913" d="M1558.979 845.138s-3.692.263-4.581 2.263-1.172 8.656-.041 10.615a10.2 10.2 0 0 0 4.314-.072l.1-.02s.879-2.174.091-2.6c0 0-2.324.122-2.082-.653s2.2-9.531 2.2-9.531" transform="translate(-1487.116 -797.056)" style="fill:#2b478b"/>
                <path data-name="Path 5914" d="M1665.6 936.621a3.227 3.227 0 0 0 .615-1.255 1.356 1.356 0 0 1 1.319-1.22c.875-.116 1.252-.129 1.25.12a6.608 6.608 0 0 1-1.971 3.029c-1.256 1.039-1.213-.674-1.213-.674" transform="translate(-1589.349 -878.242)" style="fill:#e49963"/>
                <path data-name="Path 5915" d="m869.328 1029.067-.469 2.466c1.78.906 6.187.949 6.187.949l.05-.877s-5.584-2.182-5.768-2.538" transform="translate(-861.98 -964.971)" style="fill:#f4a269"/>
                <path data-name="Path 5916" d="M935.163 1056.621a12.672 12.672 0 0 1 2.146.108c.2.131 1.188 1.422 1.028 1.615a1.048 1.048 0 0 1-1.188-.027c-.514-.285-1.682-.594-1.845-.909a1.849 1.849 0 0 1-.141-.787" transform="translate(-922.51 -990.125)" style="fill:#ffb27d"/>
                <path data-name="Path 5917" d="M757.749 813.633s-.138-1.763-2.648-1.305c-.664.121-1.12-1.074-2.206-.648-2.339.917-2.477-.294-3.153 1.406-.283.712-2.083 1.54-1.533 2.769s-.37 2.057.276 3.02c.334.5.2 1.39 1.776 1.422.786.016 2.009 1.486 2.891 1.753s3.529-.118 3.429-1.34c-.078-.953 1.023-.874 1.7-1.97.591-.958-.464-1.2.1-2.748.413-1.135-.664-1.411-.631-2.359" transform="translate(-751.74 -766.426)" style="fill:#1c468a"/>
                <path data-name="Path 5918" d="M1014 1289.4c-.054.59.759.733 1.7.781s.657.242 1.947.478 1.807-.121 1.9-.3c.083-.156-.516-.4-1.156-.677l-.242-.106a5.661 5.661 0 0 1-1.684-1.575 8.4 8.4 0 0 1-1.036-2.4l-1.753-.378s.492 1.649.663 2.353a2.2 2.2 0 0 1-.179 1.229 2.335 2.335 0 0 0-.161.6" transform="translate(-994.189 -1198.819)" style="fill:#ffb27d"/>
                <path data-name="Path 5919" d="M1019.054 1327.742c.941.047.657.242 1.947.478s1.807-.121 1.9-.3c.083-.156-.517-.4-1.156-.677l-.01.011a3.638 3.638 0 0 1-1.954.024c-.854-.234-1.679-.749-2.267-.916a2.332 2.332 0 0 0-.161.6c-.054.59.759.733 1.7.781" transform="translate(-997.544 -1236.385)" style="fill:#c65447"/>
                <path data-name="Path 5920" d="M795.007 1077.027s9.547.209 11.74 1.607 5.71 17.683 5.71 17.683a1.42 1.42 0 0 1-.7.229 5.832 5.832 0 0 1-1.444-.219s-5.055-7.286-5.411-9.122-.269-3.474-1.08-3.517-10.918 1.241-12.446-1.479a6.325 6.325 0 0 1-.265-5.413z" transform="translate(-790.552 -1008.544)" style="fill:#163560"/>
                <path data-name="Path 5921" d="M967.962 1290.157c-.054.59.759.733 1.7.781s.657.242 1.947.478 1.807-.121 1.9-.3c.083-.156-.517-.4-1.156-.677l-.242-.106a5.661 5.661 0 0 1-1.684-1.575 8.4 8.4 0 0 1-1.036-2.4l-1.753-.378s.492 1.649.663 2.353a2.2 2.2 0 0 1-.179 1.229 2.331 2.331 0 0 0-.161.6" transform="translate(-952.161 -1199.515)" style="fill:#ffb27d"/>
                <path data-name="Path 5922" d="M973.018 1328.505c.941.047.657.242 1.947.478s1.807-.12 1.9-.3c.083-.156-.517-.4-1.156-.677l-.01.011a3.639 3.639 0 0 1-1.954.024c-.853-.234-1.679-.749-2.267-.916a2.333 2.333 0 0 0-.161.6c-.054.59.759.733 1.7.781" transform="translate(-955.516 -1237.082)" style="fill:#c65447"/>
                <path data-name="Path 5923" d="M761.288 1079.459s10.349.495 12.486 1.978 5.025 17.894 5.025 17.894a1.422 1.422 0 0 1-.71.2 5.831 5.831 0 0 1-1.434-.275s-4.77-7.479-5.055-9.328-.135-3.481-.944-3.557-10.957.811-12.38-1.968 3.013-4.945 3.013-4.945" transform="translate(-760.768 -1010.976)" style="fill:#1c468a"/>
                <path data-name="Path 5924" d="M755.025 890.061c0-.006.008-.01.013-.016a1.642 1.642 0 0 1 .289-.255 5.8 5.8 0 0 1 2.356-.724s.165-.016.427-.028a7.981 7.981 0 0 0 .494-2.407l.15.04 2.518.682s-.112.807-.164 1.571c-.012.167-.02.333-.024.487.073.027.141.053.2.079s1.44.172 1.78.541a22.3 22.3 0 0 1 1.193 3.27l-9.694.16s-.244-2.559.458-3.4" transform="translate(-757.603 -834.933)" style="fill:#ffb27d"/>
                <path data-name="Path 5925" d="M752.79 940.7c1.168.112 5.15-2.332 6.37-3.055a6.1 6.1 0 0 1 2.01-.589c.914-.151 1.768-.253 2.042-.583.326-.394-.631-.829-1.4-1.281a2.128 2.128 0 0 1-.834-.694 2.684 2.684 0 0 1-.021-1.095c.009-.1.022-.2.035-.3a4.775 4.775 0 0 0 2.008 2.038c.556.136 1.131-.486 1.556-1.079.316-.444.547-.872.621-.954.172-.191-.692-.572-1.045-.858s-1.744-5.829-1.744-5.829a22.349 22.349 0 0 0-1.194-3.27 4.235 4.235 0 0 1-3.051 1.545c-1.711-.092-4.64-1.759-4.685-1.786l-.3.272c-.7.838-.457 3.4-.457 3.4s1.341 5.968 1.341 6.571c0 1.1-.9 3.644-1.335 5.473-.275 1.158-.359 2.031.093 2.074" transform="translate(-755.725 -868.058)" style="fill:#6bb7bf"/>
                <path data-name="Path 5926" d="M805.639 887.772s-.112.807-.164 1.571a3.049 3.049 0 0 1-2.354-2.253z" transform="translate(-801.966 -835.356)" style="fill:#f4a269"/>
                <path data-name="Path 5927" d="M802.911 842.19s-3.382-.171-3.244-2.3-.206-3.58 1.96-3.56 2.531.858 2.656 1.579-.489 4.268-1.372 4.278" transform="translate(-798.809 -789.018)" style="fill:#ffb27d"/>
                <path data-name="Path 5928" d="M761.807 989.921c.874 1.5-2.369 1.957-2.906 2.275-1.219.723-4.947 3.344-6.115 3.233-.453-.043-.368-.916-.094-2.074.431-1.829 1.335-4.368 1.335-5.473a32.38 32.38 0 0 1 .464-3.659l1.405-1.363s1.506 3.931 2.941 4.575a11.986 11.986 0 0 0 2.115.7 2.693 2.693 0 0 0 .021 1.1 2.111 2.111 0 0 0 .833.694" transform="translate(-755.722 -922.788)" style="fill:#599dad"/>
                <path data-name="Path 5929" d="M757.364 930.332s-1.108-1.735-2.27-.337.826 11.392 2.547 11.906c1.912.57 7.435-.091 7.435-.091l-.106-.872s-5.88-1.139-6.124-1.456-.871-8.988-1.482-9.149" transform="translate(-757.804 -874.028)" style="fill:#ffb27d"/>
                <path data-name="Path 5930" d="M799.113 830.207s-.808-.191-1.072.206-.076.619-.665.786-.79.155-.731.572-.593.727-.621 1.06a.58.58 0 0 1-.559.524c-.259.024-.141-4.3.861-4.491a3.344 3.344 0 0 1 2.264.274 2.84 2.84 0 0 1 .523 1.068" transform="translate(-794.868 -782.135)" style="fill:#1c468a"/>
                <path data-name="Path 5931" d="M835.284 833.041s.786-.055.928.4-.047.56.153.834a1.094 1.094 0 0 1 .085.76s1.555-2.892-.085-3.083-1.6.147-1.081 1.092" transform="translate(-831.039 -784.969)" style="fill:#1c468a"/>
                <path data-name="Path 5932" d="M759.528 939.379s-.317 2.934-1.921 3.269-3.887-1.262-4.62-6.439-.765-7.8.933-7.672 2.362 1.675 2.319 3.516c-.045 1.914.233 4.742 1.011 5.253a20.675 20.675 0 0 1 2.278 2.072" transform="translate(-755.76 -873.189)" style="fill:#6bb7bf"/>
                <path data-name="Path 5933" d="M849.926 1007.54c.009-.1.022-.2.035-.3a4.774 4.774 0 0 0 2.007 2.038c.556.136 1.131-.486 1.556-1.079-.793-.408-2.975-1.686-3.18-3.513-.252-2.238-.418 2.851-.418 2.851z" transform="translate(-844.695 -942.195)" style="fill:#599dad"/>
                <path data-name="Path 5934" d="M866.648 1057.689a12.675 12.675 0 0 1 2.13-.281c.216.094 1.421 1.185 1.3 1.4a1.049 1.049 0 0 1-1.173.187c-.556-.187-1.76-.281-1.976-.562a1.846 1.846 0 0 1-.278-.749" transform="translate(-859.962 -990.831)" style="fill:#ffb27d"/>
                <path data-name="Path 5935" d="M868.772 1002.024h-.447l2.99-7.116h.447z" transform="translate(-861.493 -933.786)" style="fill:#d86713"/>
                <path data-name="Path 5936" d="M871.208 1002.024h11.523l2.99-7.116H874.2z" transform="translate(-864.125 -933.786)" style="fill:#f1a34f"/>
                <path data-name="Path 5937" d="M829.491 1076.873h15.065l.091-.229h-15.156z" transform="translate(-826.04 -1008.406)" style="fill:#d86713"/>
                <path data-name="Path 5938" d="M726.115 1079.275H647.7a1.328 1.328 0 0 0-1.318 1.331v29.811a1.328 1.328 0 0 0 1.318 1.331h78.42a1.328 1.328 0 0 0 1.318-1.331v-29.811a1.328 1.328 0 0 0-1.318-1.331" transform="translate(-658.869 -1010.808)" style="fill:#9fc1f4"/>
                <path data-name="Path 5939" d="M970.549 1117.79h-50.993a1.2 1.2 0 0 0-1.185 1.2v26.81a1.2 1.2 0 0 0 1.185 1.2h50.993a1.2 1.2 0 0 0 1.185-1.2v-26.812a1.2 1.2 0 0 0-1.185-1.2" transform="translate(-907.181 -1045.969)" style="fill:#719dd3"/>
                <path data-name="Path 5940" d="M927.957 1333.588s-1.73 1.3-2.067 1.22 1.264-1.4 1.264-1.4a7.49 7.49 0 0 0-2.476-.109s-.428 1.607-.736 1.447.448-1.346.448-1.346a3.175 3.175 0 0 0-1.494.462c-1.127.9.074 2.314.074 2.314a3.463 3.463 0 0 1-.943 1.337 3.009 3.009 0 0 0-1.087 2.116l.185.017a5.269 5.269 0 0 1 .824-1.861l.088-.09c.087-.081.147-.142.188-.187a2.7 2.7 0 0 1 .806-.615.345.345 0 0 1-.008-.089l.008.089c.06.715 1.434 1.34 2.279 1.469s.584-.223.293-.743-1.213-.753-1.423-.993.224-.24.734-.005.579.861 1.4 1.257 2.046-.974 2.046-.974c-.651-.033-1.581-.748-1.547-.966s1.578.377 1.842.406.865-.3.958-1.377-1.651-1.374-1.651-1.374" transform="translate(-909.527 -1242.661)" style="fill:#82b378"/>
                <path data-name="Path 5941" d="M822.546 1294.1s1.91-1.081 1.019-2.547a3.8 3.8 0 0 0-1.477-1.132s.408 2.187 0 2.239-.28-2.47-.28-2.47a8.912 8.912 0 0 0-2.8-.9s1.248 2.136.841 2.084-1.809-2.213-1.809-2.213-2.063-.386-2.395.849.2 1.853.51 1.93 2.267.051 2.216.309-1.375.669-2.114.438c0 0 .815 2.033 1.885 1.93s1.4-.772 2.063-.823 1.146.129.815.309-1.452.059-1.987.518-.968.742.025.948 2.777.077 3.133-.695z" transform="translate(-813.302 -1202.37)" style="fill:#a8d29f"/>
                <path data-name="Path 5942" d="M834.033 1309.53a4.137 4.137 0 0 1-.509-1.878c-.612-1.956-5.961-3.705-5.961-3.705 6.8 2.779 5.6 4.477 5.6 4.477a3.232 3.232 0 0 1 .649 1.018c.027.067.07.16.134.287l.061.136a6.276 6.276 0 0 1 .165 2.413l.212.057a3.594 3.594 0 0 0-.355-2.806" transform="translate(-824.28 -1215.918)" style="fill:#82b378"/>
                <path data-name="Path 5943" d="M913.575 1257.941s-2.518-1.425-1.343-3.358a5.01 5.01 0 0 1 1.948-1.492s-.537 2.883 0 2.951.369-3.256.369-3.256 2.653-1.289 3.694-1.187c0 0-1.645 2.815-1.108 2.747s2.384-2.917 2.384-2.917 3.321-1 3.757.632a2.764 2.764 0 0 1-1.272 3.031c-.4.1-2.989.068-2.921.407s1.81.575 2.784.269c0 0-1.072 2.987-2.482 2.851s-1.847-1.017-2.72-1.085-1.511.17-1.075.407 1.914.078 2.619.683 1.276.979-.034 1.25-3.66.1-4.13-.916z" transform="translate(-901.291 -1167.697)" style="fill:#a8d29f"/>
                <path data-name="Path 5944" d="M923.71 1273.288s-7.051 2.306-7.857 4.884a5.454 5.454 0 0 1-.672 2.476 4.767 4.767 0 0 0-.59 3.783l.4-.16a8.276 8.276 0 0 1 .217-3.181c.019-.043.046-.1.08-.18a5.44 5.44 0 0 0 .177-.378 4.263 4.263 0 0 1 .855-1.342s-1.578-2.239 7.387-5.9" transform="translate(-903.57 -1187.929)" style="fill:#82b378"/>
                <path data-name="Path 5945" d="M878.234 1398.626a4.958 4.958 0 0 0 4.933-4.983H873.3a4.958 4.958 0 0 0 4.933 4.983" transform="translate(-866.036 -1297.805)" style="fill:#f1a34f"/>
                <path data-name="Path 5946" d="M885.752 1398.587a4.834 4.834 0 0 1-.613.038 4.958 4.958 0 0 1-4.933-4.983h1.225a4.967 4.967 0 0 0 4.32 4.945" transform="translate(-872.339 -1297.804)" style="fill:#ffb973"/>
                <path data-name="Path 5947" d="M881.912 1446.939h-8.785a.612.612 0 0 0-.609.615h10a.612.612 0 0 0-.609-.615" transform="translate(-865.321 -1346.461)" style="fill:#f1a34f"/>
                <path data-name="Path 5948" d="M881.5 1393.642h-9.989a.077.077 0 0 0 0 .153h9.989a.077.077 0 0 0 0-.153" transform="translate(-864.335 -1297.804)" style="fill:#d86713"/>
                <path data-name="Path 5949" d="M989.282 983.377h-14.053l-3.71-8.83h14.054z" transform="translate(-955.702 -915.198)" style="fill:#d86713"/>
                <path data-name="Path 5950" d="M992.08 983.377h-14.054l-3.71-8.83h14.054z" transform="translate(-958.256 -915.198)" style="fill:#f1a34f"/>
                <path data-name="Path 5951" d="M999.331 986.013h-13.06l-3.448-8.205h13.06z" transform="translate(-966.023 -918.175)" style="fill:#d0e0f7"/>
                <path data-name="Path 5952" d="M1032.936 1076.244h-18.691l-.112-.284h18.8z" transform="translate(-994.605 -1007.781)" style="fill:#d86713"/>
                <path data-name="Path 5953" d="M1271.441 829.829a1.74 1.74 0 0 0 .086-.5c.064-2.131.544-3.547-1.616-3.737s-2.6.611-2.8 1.317.083 4.3.962 4.4a6.017 6.017 0 0 0 .685-.02l.088 1.087c.07.853.153 1.854.177 2.083l2.389-.118 1.262-1.587a7.065 7.065 0 0 1-1.236-2.922" transform="translate(-1225.508 -779.188)" style="fill:#e49963"/>
                <path data-name="Path 5954" d="M1201.1 1119.085a20.264 20.264 0 0 1-1.572 2.271c-1.729 2.2-3.611 4.023-3.939 5.741a7.85 7.85 0 0 1-.3 1.1 14.76 14.76 0 0 1-.5 1.235 38.157 38.157 0 0 1-2.926 5.053 127.545 127.545 0 0 1-3.675 5.2l-3.266-.14c.131-.331 1.555-4.245 3.461-9.027l2.39-6 .316-.793.715-1.794 3.214-8.067s7.151-2.736 7.894-.963c.612 1.462.113 2.894-1.807 6.183" transform="translate(-1150.523 -1040.961)" style="fill:#163560"/>
                <path data-name="Path 5955" d="M1151.844 1411.828s-.167 2.722-.688 2.761c-.07.005-2.645.005-2.645.005l-3.287-.019a1.074 1.074 0 0 1 .982-.969 4.454 4.454 0 0 0 3.151-2.134c.612-1.349 2.486.356 2.486.356" transform="translate(-1114.283 -1313.607)" style="fill:#163560"/>
                <path data-name="Path 5956" d="M1290.183 1330.587s2.271 1.475 2.051 1.953c-.029.064-1.285 2.335-1.285 2.335l-1.619 2.89a1.082 1.082 0 0 1-.359-1.339 4.542 4.542 0 0 0-.309-3.819c-.868-1.2 1.52-2.02 1.52-2.02" transform="translate(-1245.06 -1240.239)" style="fill:#163560"/>
                <path data-name="Path 5957" d="M1271.815 894.276a21.981 21.981 0 0 1 3.563-.656c.334.131.5.806.5.806l-5.177.9a2.558 2.558 0 0 1 1.113-1.05" transform="translate(-1228.836 -841.303)" style="fill:#c65447"/>
                <path data-name="Path 5958" d="M1265.642 813.257s.837 2.358 1.3 2.123.9-.432 1.012.314-.35 1.769 1.206 1.494 2.715-4.823 2.1-5.464c-1.771-1.848-8.055-.649-5.623 1.533" transform="translate(-1223.712 -765.722)" style="fill:#163560"/>
                <path data-name="Path 5959" d="M1167.486 1116.246s-8.851 5.567-9.852 9.362 11.94 11.892 11.94 11.892a6.648 6.648 0 0 0 1.67-2.193s-5.85-7.079-7.119-8.666c-.779-.975 11.523-3.374 13.026-5.735a5.825 5.825 0 0 0 .965-4.348z" transform="translate(-1125.562 -1044.56)" style="fill:#1c468a"/>
                <path data-name="Path 5960" d="M1102.228 1056.5s-1.075-1.021-1.588-.914a5.428 5.428 0 0 0-1.746 1c-.169.2-.322.52.108.6s.451.089.451.089a4.33 4.33 0 0 1 1.039-.242c.165.051.736.625 1.2.366a1.266 1.266 0 0 0 .534-.9" transform="translate(-1071.832 -989.177)" style="fill:#e49963"/>
                <path data-name="Path 5961" d="M1257.7 920.78c-.854 1.02-8.125.754-10.255-.107a1.5 1.5 0 0 1-.375-.2c-1.252-1.012 1.574-1.9-1.586-9.615v-.011c-1.987-5.711.629-7.368 1.547-8.211 0 0 4.439-1.363 6.861-.6 3.145.984 4.732 17.656 3.813 18.752" transform="translate(-1205.141 -848.783)" style="fill:#c65447"/>
                <path data-name="Path 5962" d="M1257.676 1006.843c-.144 1.05-.98 3.641-2.61 3.679a1.5 1.5 0 0 1-.375-.2c-1.252-1.012 1.574-1.9-1.586-9.615v-.011c.528-.367 1.385-.782 1.941-.147.854.974 2.783 5.21 2.635 6.3" transform="translate(-1212.767 -938.632)" style="fill:#a03732"/>
                <path data-name="Path 5963" d="M1140.3 913.368a6 6 0 0 0-2.26 3.036c-.972 2.4-2.261 7.785-2.616 8.019s-5.686 1.083-7.273 1.707c0 0-.623 1.128-.034 1.595s7.729.21 8.161.1c3.6-.943 5.5-8.126 5.928-9.229s-1.907-5.224-1.907-5.224" transform="translate(-1098.436 -859.346)" style="fill:#c65447"/>
                <path data-name="Path 5964" d="M1289.406 1229.148v-3.8h3.845a.275.275 0 0 0 .272-.275v-1.035a.275.275 0 0 0-.272-.275h-3.845V1211.5a.73.73 0 0 0-.724-.731h-.777a.73.73 0 0 0-.724.731v12.256h-3.845a.275.275 0 0 0-.272.275v1.035a.274.274 0 0 0 .272.275h3.845v3.8c-2.84.217-5.267 1.361-5.905 2.7h13.883c-.638-1.334-2.913-2.478-5.753-2.7" transform="translate(-1238.49 -1130.856)" style="fill:#163560"/>
                <path data-name="Path 5965" d="M1267.749 1198.608h-18.37a.673.673 0 0 0-.668.675v3.711a.673.673 0 0 0 .668.675h18.37a.673.673 0 0 0 .668-.675v-3.711a.673.673 0 0 0-.668-.675" transform="translate(-1208.76 -1119.751)" style="fill:#f1a34f"/>
                <path data-name="Path 5966" d="M1658.232 849.073c-1.268-1.5-4.553-4.741-7.944-5.139l2.925 5.757a2.552 2.552 0 0 0 1.031 1.562 16.881 16.881 0 0 0 4.82 2.031 25.261 25.261 0 0 0 4.325-2.654 15.125 15.125 0 0 0 2.162-2.794l-.371-1.256s-2.339 1.321-3.175 1.7c-.476.217-1.572.736-2.345 1.1a1.2 1.2 0 0 1-1.428-.311" transform="translate(-1575.373 -795.957)" style="fill:#2b478b"/>
                <path data-name="Path 5967" d="M1821.321 857.6a2.227 2.227 0 0 1 2.493-1.57c.229.072.9.341.469 1.063-.314.532-.451.258-.945.973a1.57 1.57 0 0 1-1.645.791z" transform="translate(-1731.515 -806.978)" style="fill:#e49963"/>
                <path data-name="Path 5968" d="m1832.5 825.522 3.151 1.052-.632.532 2.726 2.883 2.39-2.073 9.539 7.895h-2.46l-7.055-5.839-2.519 2.185-3.821-4.041-.683.575z" transform="translate(-1741.723 -779.148)" style="fill:#699dee"/>
                <path data-name="Path 5969" d="M1832.65 988.14a5.645 5.645 0 0 1 5.155-6.037 5.539 5.539 0 0 1 5.894 5.224 5.645 5.645 0 0 1-5.155 6.037 5.539 5.539 0 0 1-5.894-5.224" transform="translate(-1741.847 -922.082)" style="fill:#e2810e"/>
                <path data-name="Path 5970" d="M1825.97 984.792a5.645 5.645 0 0 1 5.155-6.037 5.538 5.538 0 0 1 5.894 5.224 5.645 5.645 0 0 1-5.155 6.037 5.538 5.538 0 0 1-5.894-5.224" transform="translate(-1735.748 -919.026)" style="fill:#ffb93e"/>
                <path data-name="Path 5971" d="M1837.041 995.54a4.929 4.929 0 0 1-3.658-1.241 5.115 5.115 0 0 1-1.712-3.519 5.2 5.2 0 0 1 1.236-3.736 5.009 5.009 0 0 1 3.461-1.764 4.929 4.929 0 0 1 3.658 1.241 5.116 5.116 0 0 1 1.712 3.519 5.2 5.2 0 0 1-1.236 3.736 5.008 5.008 0 0 1-3.46 1.764m-.653-9.954a4.709 4.709 0 0 0-3.254 1.659 4.887 4.887 0 0 0-1.162 3.513 4.811 4.811 0 0 0 1.61 3.309 4.634 4.634 0 0 0 3.439 1.167 4.71 4.71 0 0 0 3.254-1.659 4.887 4.887 0 0 0 1.162-3.513 4.81 4.81 0 0 0-1.61-3.309 4.634 4.634 0 0 0-3.439-1.167" transform="translate(-1740.954 -924.984)" style="fill:#ffa412"/>
                <path data-name="Path 5972" d="M1868.012 1005.857a.858.858 0 0 0-.031-.3.615.615 0 0 0-.14-.238 1.145 1.145 0 0 0-.262-.2 2.993 2.993 0 0 0-.4-.19 7.9 7.9 0 0 1-.733-.344 2.489 2.489 0 0 1-.557-.4 1.5 1.5 0 0 1-.348-.512 1.732 1.732 0 0 1 .05-1.292 1.437 1.437 0 0 1 .361-.47 1.754 1.754 0 0 1 .541-.312 2.308 2.308 0 0 1 .692-.133l.043-.853.673.032-.043.865a2.057 2.057 0 0 1 .646.226 1.62 1.62 0 0 1 .481.406 1.659 1.659 0 0 1 .29.571 2.186 2.186 0 0 1 .075.725l-1.216-.057a1.057 1.057 0 0 0-.172-.725.7.7 0 0 0-.545-.263.893.893 0 0 0-.329.038.616.616 0 0 0-.233.137.588.588 0 0 0-.141.215.876.876 0 0 0-.056.273.8.8 0 0 0 .029.269.578.578 0 0 0 .134.228 1.138 1.138 0 0 0 .264.2 3.814 3.814 0 0 0 .414.205q.4.175.726.354a2.524 2.524 0 0 1 .555.4 1.521 1.521 0 0 1 .347.514 1.565 1.565 0 0 1 .1.676 1.583 1.583 0 0 1-.152.624 1.417 1.417 0 0 1-.363.466 1.692 1.692 0 0 1-.544.3 2.489 2.489 0 0 1-.7.127l-.04.793-.669-.031.04-.789a2.778 2.778 0 0 1-.667-.187 1.772 1.772 0 0 1-.561-.372 1.624 1.624 0 0 1-.375-.587 2.015 2.015 0 0 1-.11-.828l1.216.057a1.246 1.246 0 0 0 .054.476.791.791 0 0 0 .193.313.747.747 0 0 0 .288.173 1.27 1.27 0 0 0 .336.062 1.061 1.061 0 0 0 .35-.035.718.718 0 0 0 .257-.132.585.585 0 0 0 .162-.21.721.721 0 0 0 .064-.271" transform="translate(-1771.471 -938.994)" style="fill:#ffa412"/>
                <path data-name="Path 5973" d="m1672.163 1068.533-.058 3.5a.671.671 0 0 0 .684.686 4.176 4.176 0 0 0 1.85-.424 3.341 3.341 0 0 1-2.076.627.837.837 0 0 1-.833-.944z" transform="translate(-1594.941 -1001.001)" style="fill:#233862"/>
                <path data-name="Path 5974" d="m1581.818 1082.117-.577 3.129a.919.919 0 0 1-.982.753l-1.848-.164 1.633.6a1.085 1.085 0 0 0 1.451-.924z" transform="translate(-1509.754 -1013.402)" style="fill:#233862"/>
            </g>
        </g>
        <g data-name="Group 4969">
            <g data-name="Group 4968" style="clip-path:url(#3ubj8t9uja)">
                <g data-name="Group 4952" style="opacity:.2">
                    <g data-name="Group 4951">
                        <g data-name="Group 4950" style="clip-path:url(#k1ookuspnc)" transform="translate(68.759 25.5)">
                            <path data-name="Rectangle 3408" style="fill:#fff" d="M0 0h103.104v100.987H0z"/>
                        </g>
                    </g>
                </g>
                <g data-name="Group 4955" style="opacity:.3">
                    <g data-name="Group 4954">
                        <g data-name="Group 4953" style="clip-path:url(#z3kzyjc2hd)" transform="translate(81.182 32.616)">
                            <path data-name="Path 5975" d="M1023.1 388.032v-13.417l-90.681 93.872h12.961z" transform="translate(-932.418 -374.614)" style="fill:#fff"/>
                        </g>
                    </g>
                </g>
                <g data-name="Group 4958" style="opacity:.3">
                    <g data-name="Group 4957">
                        <g data-name="Group 4956" style="clip-path:url(#rxj8ygo4je)" transform="translate(110.618 63.087)">
                            <path data-name="Path 5976" d="M1331.742 738.823V724.59l-61.246 63.4h13.749z" transform="translate(-1270.497 -724.59)" style="fill:#fff"/>
                        </g>
                    </g>
                </g>
                <g data-name="Group 4961" style="opacity:.3">
                    <g data-name="Group 4960">
                        <g data-name="Group 4959" style="clip-path:url(#zt9m3y0hdf)" transform="translate(68.759 25.5)">
                            <path data-name="Path 5977" d="m855.612 292.893-65.879 68.2v32.79h5.474l97.554-100.987z" transform="translate(-789.733 -292.893)" style="fill:#fff"/>
                        </g>
                    </g>
                </g>
                <g data-name="Group 4964" style="opacity:.3">
                    <g data-name="Group 4963">
                        <g data-name="Group 4962" style="clip-path:url(#0jrabsgvxg)" transform="translate(126.305 79.327)">
                            <path data-name="Path 5978" d="M1450.679 958.274h45.558v-47.161z" transform="translate(-1450.679 -911.113)" style="fill:#fff"/>
                        </g>
                    </g>
                </g>
                <g data-name="Group 4967" style="opacity:.3">
                    <g data-name="Group 4966">
                        <g data-name="Group 4965" style="clip-path:url(#pjw5398nmh)" transform="translate(68.759 25.5)">
                            <path data-name="Path 5979" d="M826.3 292.893h-36.567v37.853z" transform="translate(-789.733 -292.893)" style="fill:#fff"/>
                        </g>
                    </g>
                </g>
                <path data-name="Rectangle 3415" transform="translate(120.113 25.501)" style="fill:#73a8dd" d="M0 0h.396v100.987H0z"/>
                <path data-name="Path 5980" d="M1889.788 626.877s-.4-1.925-1.4-2.366-1.6-2.206-2.005-1.724.12 3.689.882 4.09a4.14 4.14 0 0 1 1.123.815z" transform="translate(-1722.013 -568.489)" style="fill:#9c5f33"/>
                <path data-name="Path 5981" d="M1925.6 582.643s-6.391 11.146-8.709 13.2l-8.5-6.338a3.1 3.1 0 0 0-1.774 1.617s5.162 10.517 10.245 10.963 12.216-12.606 12.216-12.606z" transform="translate(-1740.61 -531.915)" style="fill:#e58638"/>
                <path data-name="Path 5982" d="M2295.667 1367.951s1.478 1.369 1.189 2.342-1.622 1.622-1.8 2.811-.9 1.838-1.55 1.838h-3.093s-.478-.837.676-1.089 1.588-1.65 1.516-2.947a23.246 23.246 0 0 1 .108-3.027l2.45-.577z" transform="translate(-2090.906 -1248.256)" style="fill:#233862"/>
                <path data-name="Path 5983" d="M2052.473 1408.195a.874.874 0 0 1-.219.059h-8.154a1.405 1.405 0 0 1 1.312-1.033c1.292-.21 3.53-.96 4.029-2.612.016-.053.031-.107.043-.163.4-1.766 3.28.54 3.28.54l.021.191c.067.648.239 2.743-.309 3.017" transform="translate(-1866.126 -1281.56)" style="fill:#233862"/>
                <path data-name="Path 5984" d="M2063.1 904.078s.438 5.463.953 12.029c.7 8.92 1.541 19.877 1.624 21.953.144 3.6.721 9.37.721 9.37a4.533 4.533 0 0 0 4.108.792 94.331 94.331 0 0 0 3.138-16.939l.032-.43c.649-8.865 1.658-27.532 1.658-27.532z" transform="translate(-1883.477 -824.673)" style="fill:#2b478b"/>
                <path data-name="Path 5985" d="M2063.1 904.078s.438 5.463.953 12.029l9.591 15.177.032-.43c.649-8.865 1.658-27.532 1.658-27.532z" transform="translate(-1883.477 -824.673)" style="fill:#233862"/>
                <path data-name="Path 5986" d="M2086.069 882.056s7.892 19.784 13.081 29.082 6.811 11.892 6.811 11.892 2.973-1.189 3.243-2c0 0-1.984-17.949-5.46-22.325-1.964-2.473-4.27-9.892-4.378-12.487s-.7-7.73-.7-7.73z" transform="translate(-1904.443 -802.002)" style="fill:#2b478b"/>
                <path data-name="Path 5987" d="M2110.717 500.274a23.177 23.177 0 0 1-.362-3.3l4-3.227a8.03 8.03 0 0 0 2.694 6.571s-5.336 2.627-8.42 1.654a7.381 7.381 0 0 1 2.083-1.7" transform="translate(-1925.043 -450.759)" style="fill:#9c5f33"/>
                <path data-name="Path 5988" d="M2107.15 441.6s5.094.846 5.572-2.334 1.458-5.213-1.775-5.888-4.048.444-4.466 1.466-.645 6.454.668 6.756" transform="translate(-1922.781 -395.461)" style="fill:#ab7041"/>
                <path data-name="Path 5989" d="M2058.122 586.651a.5.5 0 0 0 .324.123c1.158-.016 4.535.628 7.393.334a21.288 21.288 0 0 0 6.831-1.971c.3-.136 1-.51.988-.85-.01-.372-.047-.912-.093-1.592a85.071 85.071 0 0 1-.169-11.118c.05-.873.076-1.74.079-2.592.024-6.356-1.237-11.947-3.77-13.839-.216-.155-1.544.494-2.764 1.1a5.051 5.051 0 0 1-3.32.4l-1.065.942a10.647 10.647 0 0 0-3.336 5.328 59.986 59.986 0 0 0-1 9.884c-.077 1.791-.139 3.6-.155 5.313v.061c-.015.17-.015.356-.015.525-.062 4.4 0 7.891.077 7.953" transform="translate(-1878.835 -506.791)" style="fill:#ee9849"/>
                <path data-name="Path 5990" d="M2184.813 681.754a85.159 85.159 0 0 1-.169-11.118c.05-.873.076-1.74.079-2.592a122.13 122.13 0 0 0-1.917-4.415h-2.659s-1.949 13.316 4.667 18.126" transform="translate(-1990.084 -605.849)" style="fill:#e58638"/>
                <path data-name="Path 5991" d="m2238.117 918.375-.708-4.972a2.729 2.729 0 0 0-3.077-2.31l-3.9.555-.151-1.06a.9.9 0 0 0-1.016-.762l-3.387.483a.9.9 0 0 0-.762 1.016l.151 1.06-2.258.322a2.671 2.671 0 0 0-.264.051l-1.24.177a2.719 2.719 0 0 0-2.3 3.066l.7 4.915a2.719 2.719 0 0 0 3.066 2.3l.926-.132a2.691 2.691 0 0 0 .588-.019l11.322-1.613a2.729 2.729 0 0 0 2.31-3.078m-12.158-7.509 3.387-.483a.335.335 0 0 1 .379.285l.151 1.06-4.051.577-.151-1.06a.336.336 0 0 1 .285-.379" transform="translate(-2025.963 -830.603)" style="fill:#233862"/>
                <path data-name="Path 5992" d="m2295.981 873.309.5.87a2.02 2.02 0 0 0 1.357 2.877s1.009.255 1.1-.445-.062-.425.084-1.413a1.805 1.805 0 0 0-.968-2.1l-.575-.55z" transform="translate(-2096.078 -796.576)" style="fill:#ab7041"/>
                <path data-name="Path 5993" d="M2168.24 588.438a8.721 8.721 0 0 1-2 .111s-2.843-8.782-3.209-9.584-8.444-10.3-8.444-10.3l3.365-8.422s8.738 14.6 9.625 16.646c1.466 3.389 1.975 10.987 1.975 10.987a3.659 3.659 0 0 1-1.316.56" transform="translate(-1966.999 -511.467)" style="fill:#ee9849"/>
                <path data-name="Path 5994" d="M2098.837 414.911s-.523-.087-.438-.807.083-1.661-.5-1.486-.615.644-.855.37-.245-1.427-1.987-1.507-2.45.526-3.26.17-.853-1.582-.853-1.582a1.393 1.393 0 0 0 .578.577s-1.352-1.848.213-3.116 3.16-.438 4.066-.383c1.995.121 3.283.241 3.935 1.551s.383 4.951-.9 6.213" transform="translate(-1908.891 -371.41)" style="fill:#2b478b"/>
                <path data-name="Path 5995" d="m1885.967 606.168-2.072-4.2a.166.166 0 0 0-.221-.075l-1.153.568a.166.166 0 0 0-.075.221l2.072 4.2a.165.165 0 0 0 .221.075l1.153-.569a.165.165 0 0 0 .075-.221" transform="translate(-1718.533 -549.469)" style="fill:#2b478b"/>
                <path data-name="Path 5996" d="m1879.057 612.241-2.107-4.275a.126.126 0 0 0-.168-.057l-.676.333a.126.126 0 0 0-.057.168l2.107 4.275a.126.126 0 0 0 .168.057l.676-.333a.126.126 0 0 0 .057-.168" transform="translate(-1712.696 -554.969)" style="fill:#233862"/>
                <path data-name="Path 5997" d="M1320.286 954.285a1.785 1.785 0 1 1-1.785-1.785 1.785 1.785 0 0 1 1.785 1.785" transform="translate(-1202.074 -869.57)" style="fill:#233862"/>
                <path data-name="Path 5998" d="M1320.286 1202.785a1.785 1.785 0 1 1-1.786-1.785 1.785 1.785 0 0 1 1.785 1.785" transform="translate(-1202.074 -1096.434)" style="fill:#233862"/>
                <path data-name="Path 5999" d="M1328.575 991.143a.824.824 0 0 1-.824-.824v-20.537a.824.824 0 1 1 1.648 0v20.536a.824.824 0 0 1-.824.824" transform="translate(-1212.149 -884.595)" style="fill:#2b478b"/>
                <path data-name="Path 6000" d="M1410.286 954.285a1.785 1.785 0 1 1-1.785-1.785 1.785 1.785 0 0 1 1.785 1.785" transform="translate(-1284.239 -869.57)" style="fill:#233862"/>
                <path data-name="Path 6001" d="M1410.286 1202.785a1.785 1.785 0 1 1-1.786-1.785 1.785 1.785 0 0 1 1.785 1.785" transform="translate(-1284.239 -1096.434)" style="fill:#233862"/>
                <path data-name="Path 6002" d="M1418.575 991.143a.824.824 0 0 1-.824-.824v-20.537a.824.824 0 1 1 1.648 0v20.536a.824.824 0 0 1-.824.824" transform="translate(-1294.313 -884.595)" style="fill:#2b478b"/>
                <path data-name="Path 6003" d="M224.745 1453.6H.255a.256.256 0 0 1-.255-.255v-.087a.256.256 0 0 1 .255-.258h224.49a.256.256 0 0 1 .255.255v.087a.256.256 0 0 1-.255.255" transform="translate(0 -1326.495)" style="fill:#2e3552"/>
            </g>
        </g>
    </g>
</svg>
