<svg xmlns="http://www.w3.org/2000/svg" width="410.743" height="108.204" viewBox="0 0 410.743 108.204">
    <defs>
        <clipPath id="onn9kfwraa">
            <path data-name="Rectangle 3464" style="fill:none" d="M0 0h410.743v108.204H0z"/>
        </clipPath>
    </defs>
    <g data-name="Group 5016">
        <g data-name="Group 5015" style="clip-path:url(#onn9kfwraa)">
            <path data-name="Path 6215" d="M50.093 64.046a11.607 11.607 0 0 0 .172-2.006c0-5.557-3.876-10.064-8.655-10.064s-8.656 4.507-8.656 10.064a11.786 11.786 0 0 0 .172 2.006z" transform="translate(42.048 40.651)" style="fill:#c0c272"/>
            <path data-name="Path 6216" d="M52.593 61.162c-.961-3.185-3.563-5.475-6.63-5.475s-5.671 2.291-6.63 5.475z" transform="translate(47.005 43.535)" style="fill:#6b7a48"/>
            <path data-name="Rectangle 3440" transform="translate(119.478 28.532)" style="fill:#b4c7e0" d="M0 0h94.913v78.462H0z"/>
            <path data-name="Path 6217" d="M52.358 0v108.2h26.817V28.741h95.7V0z" transform="translate(40.689 -.001)" style="fill:#6b7493"/>
            <path data-name="Rectangle 3441" transform="translate(215.561 57.595)" style="fill:#a0646d" d="M0 0h93.74v50.572H0z"/>
            <path data-name="Rectangle 3442" transform="translate(237.162 68.821)" style="fill:#404460" d="M0 0h50.643v36.531H0z"/>
            <path data-name="Path 6218" d="M219.854 86.4h-5.746V35.848L121.3 35.82v-7.812l98.556.03z" transform="translate(94.263 21.764)" style="fill:#404460"/>
            <path data-name="Path 6219" d="M86.269 26.67h3.252l-5.6 6.776 12.4-8.978-4.981 1.459 1.432-2.181z" transform="translate(65.22 18.453)" style="fill:#e8efec"/>
            <path data-name="Path 6220" d="M99.58 51.813h3.252l-5.594 6.776 12.4-8.978-4.981 1.459 1.432-2.181z" transform="translate(75.565 37.992)" style="fill:#e8efec"/>
            <path data-name="Rectangle 3443" transform="translate(215.561 14.158)" style="fill:#b4c7e0" d="M0 0h93.74v35.614H0z"/>
            <path data-name="Rectangle 3444" transform="translate(272.978 14.159)" style="fill:#dde6ee" d="M0 0h.781v35.614H0z"/>
            <path data-name="Rectangle 3445" transform="translate(262.041 14.159)" style="fill:#dde6ee" d="M0 0h.782v35.614H0z"/>
            <path data-name="Rectangle 3446" transform="translate(251.105 14.159)" style="fill:#dde6ee" d="M0 0h.781v35.614H0z"/>
            <path data-name="Rectangle 3447" transform="translate(240.168 14.159)" style="fill:#dde6ee" d="M0 0h.781v35.614H0z"/>
            <path data-name="Rectangle 3448" transform="translate(229.231 14.158)" style="fill:#dde6ee" d="M0 0h.782v35.614H0z"/>
            <path data-name="Rectangle 3449" transform="translate(218.295 14.158)" style="fill:#dde6ee" d="M0 0h.782v35.614H0z"/>
            <path data-name="Rectangle 3450" transform="translate(305.788 14.158)" style="fill:#dde6ee" d="M0 0h.78v35.614H0z"/>
            <path data-name="Rectangle 3451" transform="translate(294.851 14.158)" style="fill:#dde6ee" d="M0 0h.782v35.614H0z"/>
            <path data-name="Rectangle 3452" transform="translate(283.915 14.158)" style="fill:#dde6ee" d="M0 0h.782v35.614H0z"/>
            <path data-name="Path 6221" d="M66.571 96.2h97.257V15.395H66.571zM135.9 44.833h-19.529V17.739H135.9zm.066 21.151h-19.593v-9.013h19.593zm-43.81-20.369h21.873v9.014H92.156zm-23.241 0h20.9v9.014h-20.9zm20.9 20.369h-20.9v-9.013h20.9zm2.346-9.014h21.873v9.014H92.156zm43.739-2.341h-19.529v-9.014H135.9zm-21.871-9.8H92.156v-27.09h21.873zm-24.219 0h-20.9v-27.09h20.9zM68.91 66.76h20.9v27.098h-20.9zm23.241 0h21.873v27.098H92.156zm24.215 0h19.595v27.098h-19.59zm45.112 27.094H138.31v-27.09h23.174zm0-27.874H138.31v-9.009h23.174zm0-11.356H138.31l-.016-9.014h23.19zm0-9.8h-23.186l-.048-27.094h23.239z" transform="translate(51.734 11.963)" style="fill:#404460"/>
            <path data-name="Rectangle 3453" transform="translate(238.387 78.728)" style="fill:#b4c7e0" d="M0 0h15.495v29.438H0z"/>
            <path data-name="Rectangle 3454" transform="translate(238.387 68.821)" style="fill:#b4c7e0" d="M0 0h15.495v9.127H0z"/>
            <path data-name="Rectangle 3455" transform="translate(254.685 78.728)" style="fill:#b4c7e0" d="M0 0h15.495v29.438H0z"/>
            <path data-name="Rectangle 3456" transform="translate(254.685 68.821)" style="fill:#b4c7e0" d="M0 0h15.495v9.127H0z"/>
            <path data-name="Rectangle 3457" transform="translate(271.054 78.728)" style="fill:#b4c7e0" d="M0 0h15.493v29.438H0z"/>
            <path data-name="Rectangle 3458" transform="translate(271.054 68.821)" style="fill:#b4c7e0" d="M0 0h15.493v9.127H0z"/>
            <path data-name="Path 6222" d="M184.1 78.756h-1.269V39.409h-48.1v39.347h-1.269V37.847H184.1z" transform="translate(103.709 29.411)" style="fill:#404460"/>
            <path data-name="Rectangle 3461" transform="translate(315.669 98.326)" style="fill:#e6d9cb" d="M0 0h6.38v9.801H0z"/>
            <path data-name="Rectangle 3462" transform="translate(315.669 95.472)" style="fill:#e6d9cb" d="M0 0h6.38v1.567H0z"/>
            <path data-name="Path 6224" d="M76.655 0h247.953v3.507H76.655z" transform="translate(-1.653 104.697)" style="fill:#404460"/>
            <path data-name="Path 6223" d="M52.759 30.175q-20.52.107-41.05.217c-.73-3.656 3.4-3.835 5.107-2.294-.279-4.953 5.205-5.98 7.531-1.379-.54-1.765 1.455-5.26 4.972-3.16-1.082-4.4 8.532-9.156 9.723-.188.11-3.718 6.558-3.3 5.8 2.595 0 0 3.536-3.432 6.373-1.637s1.539 5.847 1.539 5.847" transform="translate(262.903 -18.291)" style="fill:#dee5e4;fill-rule:evenodd"/>
        </g>
    </g>
</svg>
