<svg data-name="Group 5014" xmlns="http://www.w3.org/2000/svg" width="146.471" height="141.269" viewBox="0 0 146.471 141.269">
    <defs>
        <clipPath id="1dtzuev4qa">
            <path data-name="Rectangle 3439" style="fill:none" d="M0 0h146.471v141.269H0z"/>
        </clipPath>
        <clipPath id="brbf4eauvb">
            <path data-name="Rectangle 3430" style="fill:none" d="M0 0h26.873v48.938H0z"/>
        </clipPath>
        <clipPath id="k66h1lc2hc">
            <path data-name="Rectangle 3431" style="fill:none" d="M0 0h13.819v14.085H0z"/>
        </clipPath>
        <clipPath id="ohgec6hvtd">
            <path data-name="Path 6209" d="M1046.052 562.5a2.832 2.832 0 0 0 1.321 1.162c1.039.538.9 2.435.149 3.342-.842 1.015-2.259 2.745 1.657 6.792 4.326 4.471-1.6 8.128 2.544 10.779a3.035 3.035 0 0 0 3.859-.041c-5.838-1.365-1.826-5.367-2.466-8.806s-3.721-4.182-4.748-6.133c-.72-1.369 1.005-2.218 1.006-3.97a3.33 3.33 0 0 0-2.165-3.09c-1.234-.656-1.16-2.465-.89-3.247-.672 1.682-.582 2.625-.268 3.213" transform="translate(-1045.813 -559.284)" style="fill:none"/>
        </clipPath>
        <linearGradient id="w6xz0jouue" x1="-3.176" y1="6.097" x2="-3.172" y2="6.097" gradientUnits="objectBoundingBox">
            <stop offset="0" stop-color="#20196f"/>
            <stop offset=".513" stop-color="#2a227f"/>
            <stop offset="1" stop-color="#362e94"/>
        </linearGradient>
    </defs>
    <g data-name="Group 5013" style="clip-path:url(#1dtzuev4qa)">
        <g data-name="Group 4990">
            <g data-name="Group 4989" style="clip-path:url(#1dtzuev4qa)">
                <path data-name="Path 6126" d="M876.719 1383.227c0-1.513-10.03-2.74-22.4-2.74s-22.4 1.227-22.4 2.74 10.03 2.74 22.4 2.74 22.4-1.226 22.4-2.74" transform="translate(-755.246 -1253.262)" style="fill:#e9efff"/>
                <path data-name="Path 6127" d="M321.628 1328.714c0-1.21-8.017-2.19-17.906-2.19s-17.906.98-17.906 2.19 8.017 2.19 17.906 2.19 17.906-.98 17.906-2.19" transform="translate(-259.476 -1204.272)" style="fill:#e9efff"/>
            </g>
        </g>
        <g data-name="Group 4992">
            <g data-name="Group 4991" style="clip-path:url(#1dtzuev4qa)">
                <path data-name="Path 6128" d="M35.067 581.9c-5.419-3.722-10.963-1.055-14.42 5.874 5.562 2.382 13.236 1.216 14.42-5.874" transform="translate(-18.744 -526.741)" style="fill:#e9edf7"/>
                <path data-name="Path 6129" d="M997.452 370.181c4.237 6.671 11.624 6.336 18.713.306-5.026-5.256-14.061-7.586-18.713-.306" transform="translate(-905.527 -331.89)" style="fill:#ced3f8"/>
                <path data-name="Path 6130" d="M1009.7 413.681c-2.433 0-5.251-.125-7.8-.238-2.677-.119-5.206-.231-6.7-.17a.23.23 0 1 1-.019-.46c1.518-.062 4.056.051 6.743.17 3.247.144 6.927.307 9.677.207a.23.23 0 1 1 .017.461c-.6.022-1.241.031-1.912.031" transform="translate(-903.258 -374.752)" style="fill:#a3a9d0"/>
                <path data-name="Path 6131" d="M40.574 474.1c1.35-7.786-4.342-12.507-13.644-12.811.185 7.271 5.305 15.071 13.644 12.811" transform="translate(-24.448 -418.774)" style="fill:#ced3f8"/>
                <path data-name="Path 6132" d="M55.489 486.739a.23.23 0 0 1-.148-.054c-1.165-.975-2.968-2.765-4.877-4.661-2.306-2.29-4.92-4.886-7.023-6.661a.23.23 0 0 1 .3-.352c2.117 1.787 4.738 4.389 7.05 6.686 1.9 1.889 3.7 3.672 4.848 4.634a.23.23 0 0 1-.148.407" transform="translate(-39.363 -431.186)" style="fill:#bbc0e6"/>
                <path data-name="Path 6133" d="M199.711 868.44c-.593-9.149-8.3-12.926-18.87-10.741 2.185 8.15 10.08 15.556 18.87 10.741" transform="translate(-164.175 -778.106)" style="fill:#5652cc"/>
                <path data-name="Path 6134" d="M220.814 884.239a.229.229 0 0 1-.1-.024c-1.577-.782-4.1-2.31-6.762-3.929-3.225-1.957-6.88-4.175-9.736-5.606a.23.23 0 0 1 .206-.412c2.873 1.44 6.536 3.663 9.769 5.624 2.658 1.613 5.168 3.136 6.728 3.91a.23.23 0 0 1-.1.437" transform="translate(-185.278 -793.674)" style="fill:#423eaf"/>
                <path data-name="Path 6135" d="M982.587 229.647c10.19 1.076 15.807-6.7 15.4-18.756-9.391.866-19.041 8.163-15.4 18.756" transform="translate(-891.317 -191.455)" style="fill:#dde2f8"/>
                <path data-name="Path 6136" d="M988.075 251.105a.23.23 0 0 1-.186-.366c1.159-1.589 3.319-4.074 5.605-6.706 2.765-3.183 5.9-6.79 8.017-9.666a.23.23 0 1 1 .371.273c-2.128 2.891-5.269 6.506-8.04 9.695-2.28 2.624-4.433 5.1-5.581 6.675a.23.23 0 0 1-.186.095" transform="translate(-896.806 -212.683)" style="fill:#bbc0e6"/>
                <path data-name="Path 6137" d="M120.522 970.88c-.967-2.234-5.177-6.94-10.068-4.828-2.214.956-2.739 1.337-3.049 2.257-.2.6-.068 1.206-.575 1.453-.926.453-2.621-3.012-6.14-1.691s-3.165 4.036-4.12 4.382-1.93-.915-3.286.262.533 3.443-1 5.2c-1.6 1.823-3.572 5.432-1.841 6.947s2.893.046 4.465.159 4.913 3.188 7.27.494c2.343-2.677 2.819-4.012 6.987-2.443s7.775-1.061 8.352-3.164 1.36-1.112 1.445.164 1.682.127 2.19-1.384a12.75 12.75 0 0 0-.629-7.8" transform="translate(-81.496 -876.538)" style="fill:#807dfb"/>
                <path data-name="Path 6138" d="M127.536 1031.524a.23.23 0 0 1-.155-.4 46.577 46.577 0 0 1 28.424-11.347h.008a.23.23 0 0 1 .008.461 46.1 46.1 0 0 0-28.131 11.228.229.229 0 0 1-.154.059" transform="translate(-115.573 -925.794)" style="fill:#6b67e9"/>
                <path data-name="Path 6139" d="M152.868 1071.821a.228.228 0 0 1-.1-.022 11.759 11.759 0 0 1-3.444-2.805.23.23 0 0 1 .379-.263 11.371 11.371 0 0 0 3.263 2.651.23.23 0 0 1-.1.439" transform="translate(-135.527 -970.147)" style="fill:#6b67e9"/>
                <path data-name="Path 6140" d="M169.034 1112.953a.23.23 0 0 1-.224-.179 13.3 13.3 0 0 1-.1-3.665.23.23 0 1 1 .451.094 13.144 13.144 0 0 0 .094 3.468.23.23 0 0 1-.173.276.226.226 0 0 1-.051.006" transform="translate(-153.083 -1006.728)" style="fill:#6b67e9"/>
                <path data-name="Path 6141" d="M220.223 1029.917a.229.229 0 0 1-.082-.015 8.07 8.07 0 0 1-3.948-3.21.23.23 0 0 1 .381-.26 7.593 7.593 0 0 0 3.731 3.038.231.231 0 0 1-.082.446" transform="translate(-196.233 -931.746)" style="fill:#6b67e9"/>
                <path data-name="Path 6142" d="M225.216 1078.785a.23.23 0 0 1-.23-.215 15.95 15.95 0 0 1 .366-4.756.23.23 0 1 1 .417.2 15.9 15.9 0 0 0-.323 4.529.23.23 0 0 1-.215.245h-.015" transform="translate(-204.226 -974.731)" style="fill:#6b67e9"/>
                <path data-name="Path 6143" d="M315.506 1042.713a.23.23 0 0 1-.23-.215 28.21 28.21 0 0 0-.042-.52 7.427 7.427 0 0 1 .181-3.147.23.23 0 0 1 .431.162 7.09 7.09 0 0 0-.153 2.945c.016.187.032.364.042.529a.23.23 0 0 1-.215.245h-.016" transform="translate(-286.11 -942.958)" style="fill:#6b67e9"/>
                <path data-name="Path 6144" d="M313.645 1003.983a.238.238 0 0 1-.053-.006 10.043 10.043 0 0 1-4.1-2.749.23.23 0 1 1 .341-.309 9.684 9.684 0 0 0 3.866 2.609.23.23 0 0 1-.052.455" transform="translate(-280.913 -908.606)" style="fill:#6b67e9"/>
                <path data-name="Path 6145" d="M1364.4 929.445c.432-2.119 2.448-2.434 3.657-2.521-.181.638-1.066 3.178-3.657 2.521" transform="translate(-1238.661 -841.499)" style="fill:#e9edf7"/>
                <path data-name="Path 6146" d="M1174.608 958.775a.23.23 0 0 1-.037-.458 39.805 39.805 0 0 0 17.379-8.268.23.23 0 0 1 .29.358 40.292 40.292 0 0 1-17.594 8.365.239.239 0 0 1-.038 0" transform="translate(-1066.148 -862.446)" style="fill:#e9edf7"/>
                <path data-name="Path 6147" d="M1207.862 1045.886c4.252 1 4.257 4.207 4.358 6.655-1.278-.4-5.841-1.463-4.358-6.655" transform="translate(-1096.28 -949.498)" style="fill:#e9edf7"/>
                <path data-name="Path 6148" d="M1254.348 1033.246c3.505-.072 4.15 2.421 4.717 4.3-1.074-.059-4.834.029-4.717-4.3" transform="translate(-1138.746 -938.021)" style="fill:#e9edf7"/>
                <path data-name="Path 6149" d="M1298.2 1008.672c2.914-.766 3.955 1.188 4.808 2.647-.909.167-4.033 1-4.808-2.647" transform="translate(-1178.559 -915.557)" style="fill:#e9edf7"/>
                <path data-name="Path 6150" d="M1338.65 980.934c1.607-.962 2.566.025 3.328.748-.514.257-2.234 1.294-3.328-.748" transform="translate(-1215.281 -890.17)" style="fill:#e9edf7"/>
                <path data-name="Path 6151" d="M1195.522 953.1c3.076-2.322 1.936-4.914 1.145-6.925-.888.782-4.193 3.263-1.145 6.925" transform="translate(-1084.195 -858.974)" style="fill:#e9edf7"/>
                <path data-name="Path 6152" d="M1248.148 950.08c2.932-1.566 2.31-3.927 1.906-5.747-.861.547-4.011 2.217-1.906 5.747" transform="translate(-1132.473 -857.304)" style="fill:#e9edf7"/>
                <path data-name="Path 6153" d="M1298.5 940.389c1.63-1.583.774-3.015.165-4.134-.462.522-2.214 2.214-.165 4.134" transform="translate(-1177.95 -849.97)" style="fill:#e9edf7"/>
                <path data-name="Path 6154" d="M1338.857 938.209c1.1-.732.765-1.644.536-2.35a1.531 1.531 0 0 0-.536 2.35" transform="translate(-1215.129 -849.611)" style="fill:#e9edf7"/>
                <path data-name="Path 6155" d="M1160.416 1144.2c-2.455-1.613-8.5-13.5-3.748-15.8 4.507-2.183 5.937 7.114 6.206 8.321.939-4.562 2.169-8.99 5.177-8.185s0 7.245 0 7.245c2.74-3.489 9.567-8.857 12.675-7.246s-6.312 7.392-6.312 7.392c4.281-2.428 17.074-5.7 4.3.474 5.849-1.892 17.257-2.821 4.576 1.126 7.632-.663 11.506.376 11.64 1.45s-2.1 2.592-11.968 2.841c4.872.805 7.315 1.945 6.06 2.382z" transform="translate(-1048.461 -1024.107)" style="fill:#807dfb"/>
                <path data-name="Path 6156" d="M1392.151 1236.963a.4.4 0 1 1 .4.4.4.4 0 0 1-.4-.4" transform="translate(-1263.851 -1122.606)" style="fill:#fff"/>
                <path data-name="Path 6157" d="M1244.557 1260.16a.61.61 0 1 1 .61.61.61.61 0 0 1-.61-.61" transform="translate(-1129.859 -1143.471)" style="fill:#fff"/>
                <path data-name="Path 6158" d="M1330.7 1212.022a.52.52 0 1 1 .521.521.52.52 0 0 1-.521-.521" transform="translate(-1208.068 -1099.851)" style="fill:#fff"/>
            </g>
        </g>
        <path data-name="Path 6159" d="m423.28 1226.748 5.736 1.466-4.138 4.235-5.736-1.466z" transform="translate(-380.515 -1113.692)" style="fill:#ffd03e"/>
        <path data-name="Path 6160" d="m481.386 1246.887 4.137-4.235 1.6 5.7-4.138 4.235z" transform="translate(-437.022 -1128.13)" style="fill:#ed9f00"/>
        <path data-name="Path 6161" d="m424.879 1274.165-5.736-1.466 1.6 5.7 5.736 1.466z" transform="translate(-380.515 -1155.408)" style="fill:#fcba06"/>
        <g data-name="Group 5000">
            <g data-name="Group 4999" style="clip-path:url(#1dtzuev4qa)">
                <path data-name="Path 6162" d="M175.923 641.372c-14.816 0-27.273-2.973-30.879-7l23.969 35.228v12.049c0 1.125 3.093 2.036 6.91 2.036s6.909-.911 6.909-2.036V669.6l23.97-35.231c-3.606 4.032-16.063 7-30.879 7" transform="translate(-131.677 -575.904)" style="fill:#bbc0e6"/>
                <g data-name="Group 4995" style="mix-blend-mode:multiply;isolation:isolate">
                    <g data-name="Group 4994">
                        <g data-name="Group 4993" style="clip-path:url(#brbf4eauvb)" transform="translate(48.252 58.463)">
                            <path data-name="Path 6163" d="m526.44 681.866.039-.216V669.6l23.969-35.231c-2.765 3.091-10.734 5.56-20.981 6.543l-5.892 30.346v12.049c1.57-.33 2.652-.848 2.864-1.443" transform="translate(-523.576 -634.37)" style="fill:#e9edf7"/>
                        </g>
                    </g>
                </g>
                <path data-name="Path 6164" d="m169.013 681.65.039.216c.213.595 1.295 1.113 2.864 1.443v-12.05l-5.892-30.346c-10.246-.983-18.216-3.452-20.981-6.543l23.97 35.23z" transform="translate(-131.677 -575.907)" style="fill:#ced3f8"/>
                <path data-name="Path 6165" d="M165.543 506.19c-17.636 0-31.933 4.212-31.933 9.409s14.3 9.409 31.933 9.409 31.933-4.212 31.933-9.409-14.3-9.409-31.933-9.409m0 18.331c-17.146 0-31.045-3.994-31.045-8.922s13.9-8.922 31.045-8.922 31.045 3.994 31.045 8.922-13.9 8.922-31.045 8.922" transform="translate(-121.297 -459.54)" style="fill:#dde2f8"/>
                <path data-name="Path 6166" d="M143.242 520.4c0-4.927 13.9-8.922 31.045-8.922s31.045 3.994 31.045 8.922-13.9 8.922-31.045 8.922-31.045-3.994-31.045-8.922" transform="translate(-130.041 -464.34)" style="fill:#bbc0e6"/>
                <g data-name="Group 4998" style="mix-blend-mode:multiply;isolation:isolate">
                    <g data-name="Group 4997">
                        <g data-name="Group 4996" style="clip-path:url(#k66h1lc2hc)" transform="translate(37.337 93.694)">
                            <path data-name="Path 6167" d="M412.041 1018.689c-3.816 0-6.91-.911-6.91-2.036v12.047c0 1.125 3.093 2.036 6.91 2.036s6.91-.911 6.91-2.036v-12.049c0 1.124-3.093 2.036-6.91 2.036" transform="translate(-405.131 -1016.653)" style="fill:#dde2f8"/>
                        </g>
                    </g>
                </g>
            </g>
        </g>
        <path data-name="Path 6168" d="m511.758 585.768 3.632.467-2.22 2.912-3.632-.467z" transform="translate(-462.579 -531.784)" style="fill:#ffd03e"/>
        <path data-name="Path 6169" d="m548.943 593.744 2.22-2.912 1.412 3.378-2.22 2.912z" transform="translate(-498.353 -536.382)" style="fill:#ed9f00"/>
        <path data-name="Path 6170" d="m513.169 617.829-3.632-.467 1.412 3.378 3.632.467z" transform="translate(-462.579 -560.467)" style="fill:#fcba06"/>
        <path data-name="Path 6171" d="m594.706 299.69 1.585 2.329-2.81.209-1.581-2.328z" transform="translate(-537.347 -272.071)" style="fill:#e9edf7"/>
        <path data-name="Path 6172" d="m597.039 325.169 2.81-.208-1.224 2.537-2.809.208z" transform="translate(-540.905 -295.012)" style="fill:#bbc0e6"/>
        <path data-name="Path 6173" d="m581.422 304.282-1.585-2.329-1.224 2.537 1.585 2.329z" transform="translate(-525.288 -274.125)" style="fill:#dde2f8"/>
        <path data-name="Path 6174" d="m307.472 513.159 3.645-1.923-.157 4.118-3.645 1.923z" transform="translate(-278.993 -464.121)" style="fill:#ffd03e"/>
        <path data-name="Path 6175" d="m346.868 515.354.157-4.118 3.488 2.2-.157 4.118z" transform="translate(-314.9 -464.121)" style="fill:#ed9f00"/>
        <path data-name="Path 6176" d="m310.96 555.922-3.645 1.923 3.488 2.2 3.645-1.923z" transform="translate(-278.993 -504.688)" style="fill:#fcba06"/>
        <g data-name="Group 5002">
            <g data-name="Group 5001" style="clip-path:url(#1dtzuev4qa)">
                <path data-name="Path 6177" d="M450.732 459.98a3.263 3.263 0 1 1 3.263 3.263 3.263 3.263 0 0 1-3.263-3.263" transform="translate(-409.193 -414.626)" style="fill:#ed9f00"/>
                <path data-name="Path 6178" d="M450.732 459.98a3.263 3.263 0 1 1 3.263 3.263 3.263 3.263 0 0 1-3.263-3.263" transform="translate(-409.193 -414.626)" style="fill:#423eaf"/>
                <path data-name="Path 6179" d="M453.89 457.106a3.26 3.26 0 0 0-2.769 2.768 2.4 2.4 0 1 0 2.769-2.768" transform="translate(-409.546 -414.979)" style="fill:#5652cc"/>
                <path data-name="Path 6180" d="M458.967 464.951c.434-.434.937-.634 1.124-.447s-.013.69-.447 1.124-.937.634-1.124.447.013-.69.447-1.124" transform="translate(-416.199 -421.632)" style="fill:#9f9cff"/>
                <path data-name="Path 6181" d="M414.478 643.528a1.912 1.912 0 1 1 1.912 1.912 1.912 1.912 0 0 1-1.912-1.912" transform="translate(-376.28 -582.485)" style="fill:#ed9f00"/>
                <path data-name="Path 6182" d="M414.478 643.528a1.912 1.912 0 1 1 1.912 1.912 1.912 1.912 0 0 1-1.912-1.912" transform="translate(-376.28 -582.485)" style="fill:#ced3f8"/>
                <path data-name="Path 6183" d="M416.329 641.845a1.91 1.91 0 0 0-1.623 1.623 1.409 1.409 0 1 0 1.623-1.623" transform="translate(-376.487 -582.693)" style="fill:#e9edf7"/>
                <path data-name="Path 6184" d="M419.3 646.443c.254-.254.549-.372.659-.262s-.008.4-.262.659-.549.372-.659.262.008-.4.262-.659" transform="translate(-380.386 -586.592)" style="fill:#fff"/>
                <path data-name="Path 6185" d="m358.2 357.976-2.692-3.427 6.244 2.544z" transform="translate(-322.741 -321.874)" style="fill:#5652cc"/>
                <path data-name="Path 6186" d="m358.2 357.976-2.692-3.427.993 6.669z" transform="translate(-322.741 -321.874)" style="fill:#807dfb"/>
                <path data-name="Path 6187" d="m366.28 386.282 3.552-.883 1.7-3.242-3.552.883z" transform="translate(-332.524 -346.938)" style="fill:#362e94"/>
                <path data-name="Path 6188" d="m619.315 449.988 3.568-.918-4.093 3.968z" transform="translate(-561.763 -407.684)" style="fill:#dc8b00"/>
                <path data-name="Path 6189" d="m605.456 435.223 3.568-.918-5.5-1.5z" transform="translate(-547.904 -392.919)" style="fill:#fcba06"/>
                <path data-name="Path 6190" d="m598.357 432.806-.525 3.049 1.931 2.417.525-3.049z" transform="translate(-542.736 -392.919)" style="fill:#ed9f00"/>
            </g>
        </g>
        <g data-name="Group 5004">
            <g data-name="Group 5003" style="clip-path:url(#1dtzuev4qa)">
                <path data-name="Path 6191" d="m664.16 289.228-27.067-9.768c-1.777-.641-5.419 4.94-8.135 12.465s-3.477 14.146-1.7 14.787l27.066 9.768z" transform="translate(-568.58 -253.66)" style="fill:#807dfb"/>
                <path data-name="Path 6192" d="M930.786 385.447c1.777.641 1.016 7.262-1.7 14.787s-6.358 13.106-8.135 12.465-1.016-7.262 1.7-14.787 6.358-13.106 8.135-12.465" transform="translate(-835.206 -349.879)" style="fill:#5652cc"/>
                <path data-name="Path 6193" d="M762.479 368.52a49.448 49.448 0 0 0-3.921 8.5 50.961 50.961 0 0 0-2.307 8.423l5.823 2.1a50.983 50.983 0 0 1 2.307-8.423 49.431 49.431 0 0 1 3.921-8.5z" transform="translate(-686.555 -334.557)" style="fill:#e9edf7"/>
                <path data-name="Path 6194" d="M787.451 390.728a53.046 53.046 0 0 0-3.173 7.188 54.834 54.834 0 0 0-1.948 6.612l1.5.541a54.81 54.81 0 0 1 1.948-6.612 53.032 53.032 0 0 1 3.173-7.188z" transform="translate(-710.231 -354.719)" style="fill:#5652cc"/>
            </g>
        </g>
        <g data-name="Group 5006">
            <g data-name="Group 5005" style="clip-path:url(#1dtzuev4qa)">
                <path data-name="Path 6195" d="M842.145 577.431c-.1-.537.344-.656.383-1.685 0-1.8-.365-2.351-.513-1.993s-.074 1.621-.379 1.743c-.457.182-1.85-1.535-2.532-1.954-1.062-.652-1.1 1.174-.825 1.824.23.551 1.621 1.337 1.845 1.833a2.291 2.291 0 0 1 .2.723z" transform="translate(-760.893 -520.559)" style="fill:#f2d5cc"/>
                <path data-name="Path 6196" d="M1010.446 509.171a3.089 3.089 0 0 1-.284-2.852c.186-.564-.067-1.9.322-1.919.257-.01.492.259.477.9s0 1.308.236 1.35c.177.031.265-.488.462-1.116a2.219 2.219 0 0 1 .441 1.987 2.8 2.8 0 0 0-.029 1.168z" transform="translate(-916.864 -457.915)" style="fill:#f2d5cc"/>
                <path data-name="Path 6197" d="M1027.268 562.772c-1.827-.923-6.727-1.939-8.814-6.071-1.339-2.65-3.472-8.589-3.472-8.589a11.029 11.029 0 0 0-1.91.584c.4 3.468 1.918 11.208 4.732 14.021 5.181 5.181 9.464.054 9.464.054" transform="translate(-919.708 -497.599)" style="fill:#ed9f00"/>
                <path data-name="Path 6198" d="M962.544 1366.916v-.723h-1.974a4.881 4.881 0 0 1-.226 1.313c.513.2 1.264-.312 2.2-.591" transform="translate(-871.839 -1240.286)" style="fill:#f8d8d0"/>
                <path data-name="Path 6199" d="M913.67 1374.031c-.936.279-1.687.787-2.2.591-.272.2-4.273 1.636-4.68 1.915s-.356.728.085.728c.645 0 5.958-.234 5.958-.234.108.117.2.234.2.234h1.214a3.293 3.293 0 0 0-.573-3.233" transform="translate(-822.966 -1247.401)" style="fill:#20196f"/>
                <path data-name="Path 6200" d="M1174.173 1366.935c-.127-.379-.226-.723-.226-.723l-2.016.019a3.476 3.476 0 0 1 .043 1.294c.513.2 1.264-.312 2.2-.59" transform="translate(-1063.926 -1240.303)" style="fill:#f8d8d0"/>
                <path data-name="Path 6201" d="M1125.722 1374.052c-.936.279-1.687.787-2.2.59-.271.2-4.273 1.636-4.68 1.915s-.356.728.085.728c.646 0 5.958-.234 5.958-.234.108.117.2.234.2.234h1.214a3.291 3.291 0 0 0-.573-3.233" transform="translate(-1015.475 -1247.42)" style="fill:#20196f"/>
                <path data-name="Path 6202" d="M1072.292 926.6c1.434 3.345.988 6.212.765 8.649.491 2.915 2.9 31.54 2.9 31.54-.717 0-2.016.019-2.016.019s-4.5-17.81-5.359-20.68c-.921-3.079-4.773-15.049-4.582-19.885 2.794.258 8.3.359 8.3.359" transform="translate(-965.932 -840.883)" style="fill:#f8d8d0"/>
                <path data-name="Path 6203" d="M932.669 924.7c-1.243 2.89-8.215 19.015-8.368 20.748s3.544 19.94 3.544 19.94h1.973c.831-7.57-.332-18.242-1.057-20.023 2.854-3.365 10.785-9.947 12.031-11.611a11.006 11.006 0 0 0 1.87-8.327c-1.912-.469-9.993-.727-9.993-.727" transform="translate(-839.114 -839.478)" style="fill:#f8d8d0"/>
                <path data-name="Path 6204" d="M1037.635 560.2c.661-.7 1.439-2.247 1.221-2.8s-1.841-.542-2.049-1.347a10.189 10.189 0 0 1 .243-4.6c.646-2.256 1.7-3.631 4.193-2.871a3.81 3.81 0 0 1 2.681 4.513c-.433 2.336-2.167 4.408-2.2 5.246a1.527 1.527 0 0 0 .506 1.248z" transform="translate(-941.107 -497.838)" style="fill:#f8d8d0"/>
                <path data-name="Path 6205" d="M931.745 674.195c.846 2.116 2.244 3.253 2.271 7.051.035 4.969-4.075 12.126-10.714 22.1 10.585 5.6 22.127 5.241 26.292 2.742-4.839-8.964-3.293-11.2-4.794-16.694-.825-3.018-2.261-4.607-2.394-7.716-.153-3.588.948-11.316-1.271-14.656-1.631-2.455-4.827-2.2-6.688-.553-1.939 1.713-2.7 7.727-2.7 7.727" transform="translate(-838.211 -603.9)" style="fill:#fcba06"/>
                <path data-name="Path 6206" d="M1111.034 725.286c-4.839-8.964-3.293-11.2-4.794-16.694-.825-3.018-2.261-4.607-2.394-7.716-.152-3.542.918-11.115-1.19-14.522.71 1.292-1.8-.1.167 6.743.862 3 .278 4.8-.773 9.341-.886 3.826-2.13 4.823 1.725 10.65a12.818 12.818 0 0 1-.352 13.911 16.721 16.721 0 0 0 7.611-1.714" transform="translate(-999.65 -623.101)" style="fill:#ed9f00"/>
                <path data-name="Path 6207" d="M862.186 615.032s2.154 7.532 2.838 8.686c.543.918 9.648-2.113 12.632-3.292.952-.376.266 7.025-3.02 6.216 0 0-11.12 2.208-11.969 1.089s-2.652-12.115-2.652-12.115z" transform="translate(-780.756 -558.351)" style="fill:#fcba06"/>
                <path data-name="Path 6208" d="M1017.847 749.974a17.722 17.722 0 0 1-2.648 6.982 18.3 18.3 0 0 0 1.99-7.375c-.027-3.8-1.425-4.935-2.271-7.051 0 0 .176-1.11.346-2 .979-.261 1.906.533 1.76 1.941-.285 2.756 1.077 5.956.824 7.508" transform="translate(-921.384 -672.233)" style="fill:#ffd03e"/>
            </g>
        </g>
        <g data-name="Group 5008">
            <g data-name="Group 5007" style="clip-path:url(#ohgec6hvtd)" transform="translate(96.382 51.543)">
                <path data-name="Rectangle 3436" transform="rotate(-82.47 12.796 15.22)" style="fill:url(#w6xz0jouue)" d="M0 0h27.475v13.678H0z"/>
            </g>
        </g>
        <g data-name="Group 5010">
            <g data-name="Group 5009" style="clip-path:url(#1dtzuev4qa)">
                <path data-name="Path 6210" d="M1054.961 547.121a4.774 4.774 0 0 1 .221 6.056c-.628.831-.514 2.176 2.369 4.447 3.2 2.518 10.146 3.051 12.471 5.527-.956 4.424-4.478 7.126-7.005 6.278-1.513-.508-2.566 1.493-4.057 2.612-5.839-1.365-1.826-5.366-2.466-8.806s-3.721-4.181-4.748-6.133c-.72-1.369 1-2.218 1.006-3.97a3.33 3.33 0 0 0-2.165-3.091c-1.234-.656-1.16-2.465-.89-3.247.068-.17.141-.345.225-.53.949-.957 3.032-1.272 5.039.857" transform="translate(-952.809 -495.251)" style="fill:#362e94"/>
            </g>
        </g>
        <g data-name="Group 5012">
            <g data-name="Group 5011" style="clip-path:url(#1dtzuev4qa)">
                <path data-name="Path 6212" d="m705.8 1481.393 1.288-2.531a.594.594 0 0 1 .8-.26l2.531 1.288a.594.594 0 0 1 .26.8l-1.288 2.531a.594.594 0 0 1-.8.26l-2.531-1.288a.594.594 0 0 1-.26-.8" transform="translate(-640.697 -1342.276)" style="fill:#807dfb"/>
                <path data-name="Path 6213" d="m.266 939.183 3.523 2.326a.594.594 0 0 0 .92-.46l.253-4.214a.594.594 0 0 0-.858-.567l-3.776 1.888a.594.594 0 0 0-.061 1.027" transform="translate(0 -849.924)" style="fill:#fcba06"/>
                <path data-name="Path 6214" d="m1430.615 626.584-2.884 3.083a.594.594 0 0 0 .3.984l4.112.956a.594.594 0 0 0 .7-.751l-1.228-4.039a.593.593 0 0 0-1-.233" transform="translate(-1296.006 -568.667)" style="fill:#6b67e9"/>
            </g>
        </g>
    </g>
</svg>
