<svg data-name="Group 5622" xmlns="http://www.w3.org/2000/svg" width="131.269" height="125.387" viewBox="0 0 131.269 125.387">
    <defs>
        <clipPath id="ffqmt1bwwa">
            <path data-name="Rectangle 3841" style="fill:none" d="M0 0h131.269v125.387H0z"/>
        </clipPath>
        <clipPath id="37h1w3upnb">
            <path data-name="Rectangle 3830" style="fill:none" d="M0 0h131.268v125.387H0z"/>
        </clipPath>
        <clipPath id="qo3fycrakc">
            <path data-name="Rectangle 3828" style="fill:none" d="M0 0h36.779v3.294H0z"/>
        </clipPath>
        <clipPath id="1izxx3304d">
            <path data-name="Rectangle 3829" style="fill:none" d="M0 0h44.894v3.294H0z"/>
        </clipPath>
        <clipPath id="n6p2bblb7e">
            <path data-name="Rectangle 3835" style="fill:none" d="M0 0h41.043v39.606H0z"/>
        </clipPath>
        <clipPath id="2jmz3hvv1f">
            <path data-name="Rectangle 3838" style="fill:none" d="M0 0h6.508v9.872H0z"/>
        </clipPath>
    </defs>
    <g data-name="Group 5621" style="clip-path:url(#ffqmt1bwwa)">
        <g data-name="Group 5604">
            <g data-name="Group 5603" style="clip-path:url(#37h1w3upnb)">
                <g data-name="Group 5599" style="mix-blend-mode:multiply;isolation:isolate">
                    <g data-name="Group 5598">
                        <g data-name="Group 5597" style="clip-path:url(#qo3fycrakc)" transform="translate(27.178 122.093)">
                            <path data-name="Path 7783" d="M349.32 1405.706c0-.91-8.234-1.647-18.39-1.647s-18.39.737-18.39 1.647 8.233 1.647 18.39 1.647 18.39-.737 18.39-1.647" transform="translate(-312.541 -1404.059)" style="fill:#e7eeff"/>
                        </g>
                    </g>
                </g>
                <g data-name="Group 5602" style="mix-blend-mode:multiply;isolation:isolate">
                    <g data-name="Group 5601">
                        <g data-name="Group 5600" style="clip-path:url(#1izxx3304d)" transform="translate(61.113 112.419)">
                            <path data-name="Path 7784" d="M747.689 1294.456c0-.91-10.05-1.647-22.447-1.647s-22.447.738-22.447 1.647 10.05 1.647 22.447 1.647 22.447-.737 22.447-1.647" transform="translate(-702.795 -1292.809)" style="fill:#e7eeff"/>
                        </g>
                    </g>
                </g>
            </g>
        </g>
        <g data-name="Group 5606">
            <g data-name="Group 5605" style="clip-path:url(#37h1w3upnb)">
                <path data-name="Path 7785" d="M702.632 133.967a.217.217 0 0 1-.18-.1c-2.1-3.111-7.4-14.61-9.311-21.358a.217.217 0 1 1 .418-.119c1.906 6.713 7.163 18.143 9.253 21.233a.217.217 0 0 1-.18.339" transform="translate(-632.859 -102.477)" style="fill:#dae0f5"/>
                <path data-name="Path 7786" d="M683.481 97.968a.825.825 0 1 1 1.027-.553.825.825 0 0 1-1.027.553z" transform="translate(-623.511 -87.975)" style="stroke:#dae0f5;stroke-linecap:round;stroke-linejoin:round;stroke-width:5px;fill:none"/>
                <path data-name="Path 7787" d="M671.78 183.046a.8.8 0 1 1 .994-.536.8.8 0 0 1-.994.536z" transform="translate(-612.845 -165.701)" style="stroke:#dae0f5;stroke-linecap:round;stroke-linejoin:round;stroke-width:5px;fill:none"/>
                <path data-name="Path 7788" d="M760.849 210.214a.906.906 0 1 1 1.128-.608.906.906 0 0 1-1.128.608z" transform="translate(-694.098 -190.314)" style="stroke:#dae0f5;stroke-linecap:round;stroke-linejoin:round;stroke-width:5px;fill:none"/>
                <path data-name="Path 7789" d="M715.706 273.459a1.049 1.049 0 1 1 1.306-.7 1.049 1.049 0 0 1-1.306.7z" transform="translate(-652.787 -247.804)" style="stroke:#dae0f5;stroke-linecap:round;stroke-linejoin:round;stroke-width:5px;fill:none"/>
                <path data-name="Path 7790" d="M716.307 107.488a.684.684 0 1 1 .852-.459.685.685 0 0 1-.852.459z" transform="translate(-653.573 -96.917)" style="stroke:#dae0f5;stroke-linecap:round;stroke-linejoin:round;stroke-width:5px;fill:none"/>
                <path data-name="Path 7791" d="M707.231 122.244a.217.217 0 0 1-.217-.2 9.606 9.606 0 0 1 .82-2.879c.056-.145.1-.267.137-.358a.217.217 0 0 1 .408.15c-.034.093-.083.218-.139.365a10.442 10.442 0 0 0-.792 2.7.217.217 0 0 1-.2.23h-.014" transform="translate(-645.533 -108.342)" style="fill:#dae0f5"/>
                <path data-name="Path 7792" d="M690.608 193.072a.216.216 0 0 1-.137-.048 13.058 13.058 0 0 0-3.624-1.791.217.217 0 1 1 .125-.417 13.252 13.252 0 0 1 3.772 1.87.217.217 0 0 1-.137.386" transform="translate(-626.98 -174.215)" style="fill:#dae0f5"/>
                <path data-name="Path 7793" d="M752.258 230.082a.217.217 0 0 1-.217-.206 8.556 8.556 0 0 1 1.186-3.449.217.217 0 1 1 .336.276 8.443 8.443 0 0 0-1.088 3.149.217.217 0 0 1-.205.229h-.012" transform="translate(-686.645 -206.666)" style="fill:#dae0f5"/>
                <path data-name="Path 7794" d="M737.957 290.5a.216.216 0 0 1-.14-.052c-.382-.324-2.758-1.615-3.443-1.966a.217.217 0 0 1 .2-.387c.428.219 3.062 1.628 3.526 2.021a.217.217 0 0 1-.141.383" transform="translate(-670.407 -263.023)" style="fill:#dae0f5"/>
                <path data-name="Path 7795" d="M214.116 1232.9c-5.885.961-7.845 6.187-5.764 12.9 5.139-1.929 9.436-7.507 5.764-12.9" transform="translate(-189.499 -1125.687)" style="fill:#423eaf"/>
                <path data-name="Path 7796" d="M75.221 1195.919c-6.451-5.133-13.617-2.278-18.546 6.093 6.747 3.467 16.445 2.677 18.546-6.093" transform="translate(-51.747 -1089.586)" style="fill:#6b67e9"/>
                <path data-name="Path 7797" d="M80.108 1226a.217.217 0 0 1-.079-.42c2.693-1.046 6.386-2.145 9.644-3.115 2.679-.8 5.209-1.551 6.666-2.124a.217.217 0 0 1 .159.4c-1.473.579-4.012 1.335-6.7 2.136-3.25.968-6.933 2.065-9.61 3.1a.22.22 0 0 1-.079.015" transform="translate(-72.943 -1114.211)" style="fill:#5652cc"/>
                <path data-name="Path 7798" d="M1250.972 668.685c-2.187 8.091 3.364 13.633 13.159 14.864.515-7.7-4.13-16.436-13.159-14.864" transform="translate(-1141.758 -610.37)" style="fill:#362e94"/>
                <path data-name="Path 7799" d="M1174.75 260.617c-2.631-1.1-4.967-5.233-4.206-7.931s3.423-2.687 3.43-4.262-2.365-3.956-1.439-5.895c1.645-3.444 6.751.233 8.223-2.18s-1.5-4.282-.479-6.753 5.06.808 7.376-1.49 8.12-6.277 10.016-2.651c1.5 2.866-2.59 3.16-2.822 4.536-.265 1.57 1.687 2.145 1.016 3.811-.948 2.355-4.265 1.8-4.723 3.863s2.088 3.2.111 5.158c-2.448 2.428-6.089-1.618-7.494 2.689s4.4 3.723 3.912 6.5c-.537 3.036-5.882 1.482-5.753 3.578.176 2.851-3.087 2.726-7.168 1.022" transform="translate(-1068.623 -208.167)" style="fill:#362e94"/>
                <path data-name="Path 7800" d="M1210.416 306a.225.225 0 0 1-.055-.007.218.218 0 0 1-.156-.265 4.194 4.194 0 0 0 .042-.909 3.977 3.977 0 0 1 .743-2.929 11.119 11.119 0 0 1 1.292-1.046 6.922 6.922 0 0 0 1.951-1.864 7.6 7.6 0 0 0 .938-4.606 5.573 5.573 0 0 1 .411-2.912 2.045 2.045 0 0 1 1.733-1.016 3.1 3.1 0 0 0 1.9-.863 2.264 2.264 0 0 0 .755-1.568 3.289 3.289 0 0 1 1.135-2.213 3.379 3.379 0 0 1 2.15-1.035 3.307 3.307 0 0 0 1.986-.9 6.38 6.38 0 0 0 2.024-3.926 2.785 2.785 0 0 1 .629-1.6 1.646 1.646 0 0 1 1.741-.395.217.217 0 1 1-.179.4 1.226 1.226 0 0 0-1.272.323 2.565 2.565 0 0 0-.492 1.361 6.757 6.757 0 0 1-2.16 4.165 3.757 3.757 0 0 1-2.208 1.007 2.943 2.943 0 0 0-1.913.915 2.854 2.854 0 0 0-1.011 1.962 2.684 2.684 0 0 1-.88 1.819 3.55 3.55 0 0 1-2.133.983c-.631.108-1.087.186-1.426.8a5.193 5.193 0 0 0-.357 2.688 7.963 7.963 0 0 1-1 4.847 7.26 7.26 0 0 1-2.065 1.987 10.594 10.594 0 0 0-1.242 1 3.609 3.609 0 0 0-.615 2.615 4.393 4.393 0 0 1-.056 1.023.218.218 0 0 1-.21.163" transform="translate(-1104.963 -253.688)" style="fill:#5652cc"/>
                <path data-name="Path 7801" d="M1218.458 570.221c3.782 10.307 13.91 12.034 25.315 5.941-5.272-8.62-16.85-14.451-25.315-5.941" transform="translate(-1112.504 -516.838)" style="fill:#423eaf"/>
                <path data-name="Path 7802" d="M1238.356 617.2a.22.22 0 0 1-.039 0c-3.785-.68-8.745-1.991-13.121-3.148-3.6-.952-7-1.852-9.059-2.212a.217.217 0 1 1 .075-.428c2.074.363 5.484 1.265 9.1 2.219 4.368 1.155 9.319 2.464 13.086 3.14a.217.217 0 0 1-.038.431" transform="translate(-1110.222 -558.243)" style="fill:#5652cc"/>
            </g>
        </g>
        <g data-name="Group 5608">
            <g data-name="Group 5607" style="clip-path:url(#37h1w3upnb)">
                <path data-name="Path 7803" d="m250.754 1066.935-11.318 8.727c-3.216-2.463-6.593-6.259-8.682-15.078l11.318-8.727c.385 8.489 4.766 12.659 8.682 15.078" transform="translate(-210.688 -960.391)" style="fill:#e9edf7"/>
                <path data-name="Path 7804" d="m255.146 1107.679 6.238-4.81a22.2 22.2 0 0 1-.293-1.981l-6.463 4.983c.166.628.339 1.232.518 1.807" transform="translate(-232.486 -1005.159)" style="fill:#dde2f8"/>
                <path data-name="Path 7805" d="m274.278 1126.471-7.788 6.005c.106.158.212.313.318.464l7.823-6.032q-.179-.214-.354-.437m-.743-1.038-7.724 5.956q.145.247.292.484l7.75-5.976q-.162-.228-.318-.464m2.468 2.928-7.964 6.141c.125.144.251.283.377.418l8.009-6.176a16.635 16.635 0 0 1-.422-.384m.978.856-8.068 6.221c.136.136.272.267.408.4l8.113-6.256c-.151-.116-.3-.237-.453-.36m-1.878-1.773-7.871 6.069q.173.227.347.442l7.911-6.1q-.2-.2-.388-.411m-2.231-3.11-7.683 5.924q.133.257.267.5l7.7-5.936q-.144-.241-.282-.492m-1.491-3.682-7.751 5.977.2.553 7.719-5.952q-.089-.284-.171-.577m.411 1.293-7.69 5.93q.11.274.223.537l7.676-5.919q-.108-.27-.209-.548m.5 1.227-7.669 5.914c.081.177.162.35.244.521l7.671-5.915q-.126-.255-.245-.52" transform="translate(-240.706 -1023.204)" style="fill:#dde2f8"/>
                <path data-name="Path 7806" d="m1064.978 65.7-6.6 10.207c-4.448-.632-11.194-2.194-15.973-8.656l6.6-10.208c4.505 6.6 11.683 8.188 15.973 8.656" transform="translate(-951.76 -52.087)" style="fill:#e9edf7"/>
                <path data-name="Path 7807" d="m1080.066 95.893-5.816 8.993q.266.217.536.421l5.813-8.989q-.269-.206-.533-.425m-1.2-1.085-5.826 9.01q.251.24.505.468l5.821-9q-.252-.232-.5-.476m2.478 2.054-5.81 8.985q.281.194.565.375l5.809-8.984q-.283-.182-.564-.377m2.77 1.6-5.812 8.987c.207.1.415.195.622.287l5.813-8.99q-.312-.137-.624-.285m-1.419-.748-5.81 8.984q.3.171.594.331l5.81-8.985q-.3-.159-.595-.33m4.46 1.933-5.824 9.005c.226.073.451.142.673.208l5.828-9.011c-.224-.063-.45-.131-.677-.2m1.615.446-5.834 9.021q.354.09.7.169l5.839-9.029q-.347-.074-.7-.161m-3.167-.988-5.817 8.994c.217.086.432.169.648.247l5.819-9a27.473 27.473 0 0 1-.651-.243" transform="translate(-979.73 -86.564)" style="fill:#dde2f8"/>
                <path data-name="Path 7808" d="m1209.446 892.937 10.4 3.684c.377 4.061.416 10.347-4.287 15.926l-10.4-3.684c4.883-5.367 4.776-12.039 4.287-15.926" transform="translate(-1100.362 -815.29)" style="fill:#e9edf7"/>
                <path data-name="Path 7809" d="m1234.645 937.286 9.165 3.246q.135-.281.259-.562l-9.16-3.244q-.126.28-.263.56m-.706 1.289 9.182 3.252q.159-.272.307-.544l-9.173-3.249q-.151.272-.316.541m1.293-2.62 9.156 3.243q.112-.289.213-.578l-9.155-3.242q-.1.289-.214.577m.833-2.783 9.159 3.244c.045-.2.085-.407.123-.61l-9.161-3.245c-.037.2-.077.406-.121.61m-.362 1.411 9.155 3.242q.089-.3.167-.594l-9.156-3.243q-.078.3-.166.594m.77-4.345 9.177 3.25c.017-.215.031-.428.042-.638l-9.183-3.252a20.48 20.48 0 0 1-.036.641m.054-1.52 9.193 3.256v-.652l-9.2-3.259q.008.322.006.655m-.207 3 9.166 3.246c.03-.209.058-.418.082-.624l-9.17-3.248q-.034.31-.078.626" transform="translate(-1126.639 -847.361)" style="fill:#dde2f8"/>
                <path data-name="Path 7810" d="m157.757 239.016-20.728-7.243c5.336-4.505 14.864-15.57 16.119-23.176l20.728 7.243c-1.96 7.829-11.7 19.31-16.119 23.176" transform="translate(-125.113 -190.458)" style="fill:#e9edf7"/>
                <path data-name="Path 7811" d="M353.223 259.165a26.531 26.531 0 0 1-1.4 3.175l11.311 3.952a33.078 33.078 0 0 0 1.51-3.137z" transform="translate(-321.227 -236.629)" style="fill:#9f9cff"/>
                <path data-name="Path 7812" d="m186.243 305.042 17.412 6.084.377-.467-17.4-6.081c-.128.155-.256.311-.385.464m-1.146 1.334 17.444 6.1q.194-.229.389-.463l-17.434-6.095q-.2.232-.4.459M182.677 309l17.523 6.123c.137-.148.276-.3.415-.454l-17.507-6.117c-.145.152-.288.3-.432.448m-1.283 1.287 17.569 6.139q.214-.219.433-.448l-17.552-6.133c-.152.151-.3.3-.45.442m5.953-6.594 17.387 6.075c.122-.157.244-.313.365-.471l-17.382-6.074q-.185.236-.371.469m-3.438 4 17.483 6.108c.133-.151.267-.3.4-.459l-17.466-6.1c-.139.154-.278.3-.416.454m4.5-5.367 17.371 6.07c.118-.158.234-.317.351-.476l-17.364-6.067c-.118.159-.238.316-.358.474m4.073-6.115c-.093.166-.191.332-.288.5l17.372 6.07q.148-.249.292-.5zm-3.053 4.737 17.357 6.065q.171-.24.339-.48l-17.355-6.064q-.169.24-.342.479m1.9-2.807 17.359 6.066c.1-.164.206-.327.308-.491l-17.361-6.066q-.151.246-.307.492m-.922 1.412 17.352 6.063c.109-.162.219-.323.327-.485l-17.355-6.064c-.107.162-.214.324-.323.486" transform="translate(-165.62 -270.457)" style="fill:#ced3f8"/>
            </g>
        </g>
        <g data-name="Group 5613">
            <g data-name="Group 5612" style="clip-path:url(#37h1w3upnb)">
                <path data-name="Path 7813" d="M1157.672 295.283a12.553 12.553 0 0 0-3.049-1.17l8.852 57.772a10.483 10.483 0 0 0 2.495-1.986 3.555 3.555 0 0 0 .974-3.168l-7.4-48.712a3.558 3.558 0 0 0-1.871-2.736" transform="translate(-1054.22 -268.538)" style="fill:#5652cc"/>
                <path data-name="Path 7814" d="m686.91 351.729-40.756 6.191a3.455 3.455 0 0 1-4.11-2.594l-7.889-51.926a3.455 3.455 0 0 1 3.155-3.7l40.756-6.191a3.455 3.455 0 0 1 4.111 2.594l7.888 51.924a3.455 3.455 0 0 1-3.155 3.7" transform="translate(-578.982 -267.946)" style="fill:#807dfb"/>
                <path data-name="Rectangle 3833" transform="rotate(-8.62 271.083 -348.66)" style="fill:#f6f6fb" d="M0 0h48.572v11.088H0z"/>
                <path data-name="Path 7815" d="m763.482 904.018-5.892.895a.968.968 0 0 1-1.1-.812l-.9-5.892a.969.969 0 0 1 .812-1.1l5.892-.9a.969.969 0 0 1 1.1.812l.9 5.892a.969.969 0 0 1-.812 1.1" transform="translate(-689.878 -818.269)" style="fill:#e8ecf7"/>
                <path data-name="Path 7816" d="m890.8 884.675-5.892.895a.968.968 0 0 1-1.1-.812l-.9-5.892a.969.969 0 0 1 .812-1.1l5.892-.9a.969.969 0 0 1 1.1.812l.9 5.892a.969.969 0 0 1-.812 1.1" transform="translate(-806.122 -800.608)" style="fill:#e8ecf7"/>
                <path data-name="Path 7817" d="m1018.114 865.335-5.892.9a.969.969 0 0 1-1.1-.812l-.895-5.892a.969.969 0 0 1 .812-1.1l5.892-.9a.969.969 0 0 1 1.1.812l.9 5.892a.969.969 0 0 1-.812 1.1" transform="translate(-922.368 -782.949)" style="fill:#e8ecf7"/>
                <path data-name="Path 7818" d="m1145.43 845.993-5.892.9a.969.969 0 0 1-1.1-.812l-.9-5.892a.969.969 0 0 1 .812-1.1l5.892-.9a.969.969 0 0 1 1.1.812l.9 5.892a.969.969 0 0 1-.812 1.1" transform="translate(-1038.612 -765.289)" style="fill:#e8ecf7"/>
                <path data-name="Path 7819" d="m744.694 780.342-5.892.9a.969.969 0 0 1-1.1-.812l-.9-5.892a.969.969 0 0 1 .812-1.1l5.892-.9a.969.969 0 0 1 1.1.812l.9 5.892a.969.969 0 0 1-.812 1.1" transform="translate(-672.724 -705.347)" style="fill:#e8ecf7"/>
                <path data-name="Path 7820" d="m872.01 761-5.892.9a.969.969 0 0 1-1.1-.812l-.9-5.892a.969.969 0 0 1 .812-1.1l5.892-.9a.968.968 0 0 1 1.1.812l.9 5.892a.969.969 0 0 1-.812 1.1" transform="translate(-788.968 -687.689)" style="fill:#e8ecf7"/>
                <path data-name="Path 7821" d="m999.325 741.659-5.892.9a.969.969 0 0 1-1.1-.812l-.9-5.892a.968.968 0 0 1 .812-1.1l5.892-.9a.969.969 0 0 1 1.1.812l.9 5.892a.969.969 0 0 1-.812 1.1" transform="translate(-905.213 -670.028)" style="fill:#e8ecf7"/>
                <path data-name="Path 7822" d="m1126.641 722.318-5.892.9a.969.969 0 0 1-1.1-.812l-.9-5.892a.969.969 0 0 1 .812-1.1l5.892-.9a.969.969 0 0 1 1.1.812l.9 5.892a.969.969 0 0 1-.812 1.1" transform="translate(-1021.457 -652.369)" style="fill:#e8ecf7"/>
                <path data-name="Path 7823" d="m725.906 656.667-5.892.9a.969.969 0 0 1-1.1-.812l-.9-5.892a.969.969 0 0 1 .812-1.1l5.892-.9a.969.969 0 0 1 1.1.812l.9 5.892a.969.969 0 0 1-.812 1.1" transform="translate(-655.569 -592.427)" style="fill:#e8ecf7"/>
                <path data-name="Path 7824" d="m853.222 637.326-5.892.9a.969.969 0 0 1-1.1-.812l-.9-5.892a.969.969 0 0 1 .812-1.1l5.892-.895a.969.969 0 0 1 1.1.812l.9 5.892a.969.969 0 0 1-.812 1.1" transform="translate(-771.815 -574.767)" style="fill:#e8ecf7"/>
                <path data-name="Path 7825" d="m980.537 617.984-5.892.9a.968.968 0 0 1-1.1-.812l-.9-5.892a.969.969 0 0 1 .812-1.1l5.892-.9a.969.969 0 0 1 1.1.812l.9 5.892a.969.969 0 0 1-.812 1.1" transform="translate(-888.059 -557.107)" style="fill:#e8ecf7"/>
                <path data-name="Path 7826" d="m1107.853 598.643-5.892.895a.968.968 0 0 1-1.1-.812l-.9-5.892a.969.969 0 0 1 .812-1.1l5.892-.9a.969.969 0 0 1 1.1.812l.895 5.892a.969.969 0 0 1-.812 1.1" transform="translate(-1004.303 -539.448)" style="fill:#ffd03e"/>
                <path data-name="Path 7827" d="m711.9 564.45-5.892.895a.969.969 0 0 1-1.1-.812l-.467-3.076a.969.969 0 0 1 .812-1.1l5.892-.895a.969.969 0 0 1 1.1.812l.467 3.076a.969.969 0 0 1-.812 1.1" transform="translate(-643.168 -510.799)" style="fill:#e8ecf7"/>
                <path data-name="Path 7828" d="m839.212 545.109-5.892.9a.969.969 0 0 1-1.1-.812l-.467-3.076a.969.969 0 0 1 .812-1.1l5.892-.895a.969.969 0 0 1 1.1.812l.467 3.076a.969.969 0 0 1-.812 1.1" transform="translate(-759.413 -493.14)" style="fill:#e8ecf7"/>
                <path data-name="Path 7829" d="m966.528 525.768-5.892.9a.969.969 0 0 1-1.1-.812l-.467-3.077a.968.968 0 0 1 .812-1.1l5.892-.9a.968.968 0 0 1 1.1.812l.467 3.076a.969.969 0 0 1-.812 1.1" transform="translate(-875.658 -475.481)" style="fill:#e8ecf7"/>
                <path data-name="Path 7830" d="m1093.844 506.426-5.892.9a.969.969 0 0 1-1.1-.812l-.467-3.077a.969.969 0 0 1 .812-1.1l5.892-.9a.969.969 0 0 1 1.1.812l.467 3.076a.969.969 0 0 1-.812 1.1" transform="translate(-991.903 -457.821)" style="fill:#e8ecf7"/>
                <path data-name="Path 7831" d="m978.4 395.463-.456.619.353 2.321.619.456.456-.619-.353-2.322z" transform="translate(-892.906 -361.075)" style="fill:#ced3f8"/>
                <path data-name="Path 7832" d="m936.394 401.846.619.456.353 2.321-.456.619-.619-.456-.353-2.321z" transform="translate(-854.552 -366.903)" style="fill:#ced3f8"/>
                <path data-name="Path 7833" d="m984.783 437.471-.456.619.353 2.321.619.456.456-.619-.353-2.322z" transform="translate(-898.733 -399.43)" style="fill:#ced3f8"/>
                <path data-name="Path 7834" d="m945.653 389.3-.619-.456-2.321.353-.456.619.619.456 2.321-.353z" transform="translate(-860.321 -355.031)" style="fill:#ced3f8"/>
                <path data-name="Path 7835" d="m952.036 431.307-.619-.456-2.322.353-.456.619.619.456 2.321-.353z" transform="translate(-866.149 -393.386)" style="fill:#ced3f8"/>
                <path data-name="Path 7836" d="m1057.121 383.505-.456.619.353 2.321.619.456.456-.619-.353-2.321z" transform="translate(-964.78 -350.157)" style="fill:#ced3f8"/>
                <path data-name="Path 7837" d="m1015.115 389.887.619.456.353 2.321-.456.619-.619-.456-.353-2.321z" transform="translate(-926.427 -355.984)" style="fill:#ced3f8"/>
                <path data-name="Path 7838" d="m1063.5 425.513-.456.619.353 2.321.619.456.456-.619-.353-2.321z" transform="translate(-970.608 -388.512)" style="fill:#ced3f8"/>
                <path data-name="Path 7839" d="m1021.5 431.894-.456.619.353 2.321.619.456.456-.619-.353-2.322z" transform="translate(-932.253 -394.338)" style="fill:#ced3f8"/>
                <path data-name="Path 7840" d="m1024.374 377.341-.619-.456-2.321.353-.456.619.619.456 2.321-.353z" transform="translate(-932.197 -344.113)" style="fill:#ced3f8"/>
                <path data-name="Path 7841" d="m1037.137 461.355-.456.619-2.321.353-.619-.456.456-.619 2.321-.353z" transform="translate(-943.85 -420.822)" style="fill:#ced3f8"/>
                <path data-name="Path 7842" d="m1030.755 419.349-.619-.456-2.321.353-.456.619.619.456 2.321-.353z" transform="translate(-938.023 -382.468)" style="fill:#ced3f8"/>
                <path data-name="Path 7843" d="m1128.79 372.616-.456.619.352 2.321.619.456.456-.619-.352-2.321z" transform="translate(-1030.218 -340.215)" style="fill:#ced3f8"/>
                <path data-name="Path 7844" d="m1135.172 414.625-.456.619.353 2.322.619.456.456-.619-.353-2.321z" transform="translate(-1036.045 -378.571)" style="fill:#ced3f8"/>
                <path data-name="Path 7845" d="m1096.043 366.452-.619-.456-2.322.353-.456.619.619.456 2.322-.353z" transform="translate(-997.633 -334.171)" style="fill:#ced3f8"/>
                <g data-name="Group 5611" style="mix-blend-mode:multiply;isolation:isolate">
                    <g data-name="Group 5610">
                        <g data-name="Group 5609" style="clip-path:url(#n6p2bblb7e)" transform="translate(63.957 45.169)">
                            <path data-name="Path 7846" d="m755.068 673.779.674 4.433-.627.1-.59-3.882-1 .152-.084-.551z" transform="translate(-751.881 -660.358)" style="fill:#dae0f5"/>
                            <path data-name="Path 7847" d="m875.916 659.006.084.551-3.185.484-.065-.431 1.54-2.016a2.175 2.175 0 0 0 .36-.615 1.058 1.058 0 0 0 .043-.483.658.658 0 0 0-.326-.5 1.116 1.116 0 0 0-.729-.087 1.4 1.4 0 0 0-1.06.653l-.488-.308a1.749 1.749 0 0 1 .606-.6 2.434 2.434 0 0 1 .913-.32 1.732 1.732 0 0 1 1.159.164 1.111 1.111 0 0 1 .549.84 1.547 1.547 0 0 1-.05.695 2.73 2.73 0 0 1-.466.81l-1.157 1.51z" transform="translate(-860.212 -643.489)" style="fill:#dae0f5"/>
                            <path data-name="Path 7848" d="M1003.817 635.938a1.178 1.178 0 0 1 .474.813 1.292 1.292 0 0 1-.086.716 1.321 1.321 0 0 1-.493.574 2.138 2.138 0 0 1-.894.32 2.954 2.954 0 0 1-.933 0 1.964 1.964 0 0 1-.776-.287l.216-.545a1.689 1.689 0 0 0 .635.257 2.2 2.2 0 0 0 .773.015 1.262 1.262 0 0 0 .738-.326.691.691 0 0 0 .188-.618.677.677 0 0 0-.359-.529 1.394 1.394 0 0 0-.854-.077l-.354.054-.067-.443.907-1.538-2.134.324-.084-.551 2.926-.444.065.431-.942 1.607a1.6 1.6 0 0 1 1.055.251" transform="translate(-977.65 -623.718)" style="fill:#dae0f5"/>
                            <path data-name="Path 7849" d="m768.1 800.34-.842.128.165 1.09-.614.093-.166-1.09-2.463.374-.067-.443 1.826-3.245.684-.1-1.747 3.13 1.7-.259-.146-.963.6-.09.146.963.842-.128z" transform="translate(-761.626 -772.995)" style="fill:#dae0f5"/>
                            <path data-name="Path 7850" d="M898.884 778.942a1.2 1.2 0 0 1 .6.911 1.371 1.371 0 0 1-.079.734 1.291 1.291 0 0 1-.489.579 2.158 2.158 0 0 1-.9.321 2.937 2.937 0 0 1-.927 0 2.026 2.026 0 0 1-.782-.286l.215-.544a1.687 1.687 0 0 0 .635.257 2.176 2.176 0 0 0 .767.016 1.259 1.259 0 0 0 .743-.33.7.7 0 0 0 .187-.621.691.691 0 0 0-.4-.559 1.962 1.962 0 0 0-1.07-.048l-1.006.153-.118-2.354 2.5-.38.084.551-1.97.3.065 1.235.494-.075a2.248 2.248 0 0 1 1.451.146" transform="translate(-882.28 -754.409)" style="fill:#dae0f5"/>
                            <path data-name="Path 7851" d="M1022.644 760.464a1.278 1.278 0 0 1 .917 1.066 1.335 1.335 0 0 1-.094.766 1.389 1.389 0 0 1-.489.576 1.821 1.821 0 0 1-.775.3 1.718 1.718 0 0 1-1.465-.367 2.5 2.5 0 0 1-.733-1.56 2.818 2.818 0 0 1 .071-1.3 1.855 1.855 0 0 1 .614-.9 2.2 2.2 0 0 1 1.058-.436 2.714 2.714 0 0 1 .618-.026 1.706 1.706 0 0 1 .523.118l-.166.53a1.538 1.538 0 0 0-.88-.08 1.413 1.413 0 0 0-1.018.592 1.8 1.8 0 0 0-.2 1.3 1.46 1.46 0 0 0 .03.157 1.217 1.217 0 0 1 .457-.513 1.839 1.839 0 0 1 .728-.262 1.813 1.813 0 0 1 .807.046m.129 1.853a.793.793 0 0 0 .177-.668.781.781 0 0 0-.37-.582 1.121 1.121 0 0 0-.773-.119 1.193 1.193 0 0 0-.511.194.908.908 0 0 0-.314.365.813.813 0 0 0 .125.866.885.885 0 0 0 .408.255 1.286 1.286 0 0 0 .584.031 1.062 1.062 0 0 0 .674-.342" transform="translate(-995.227 -737.771)" style="fill:#dae0f5"/>
                            <path data-name="Path 7852" d="m784.492 919.628.065.431-1.184 4.275-.671.1 1.164-4.149-2.026.308.12.792-.608.092-.2-1.343z" transform="translate(-777.179 -884.83)" style="fill:#dae0f5"/>
                            <path data-name="Path 7853" d="M914.495 904.635a1.075 1.075 0 0 1 .3.622 1.158 1.158 0 0 1-.11.726 1.378 1.378 0 0 1-.545.546 2.558 2.558 0 0 1-.913.3 2.512 2.512 0 0 1-.952-.017 1.379 1.379 0 0 1-.68-.36 1.159 1.159 0 0 1-.32-.661 1.087 1.087 0 0 1 .1-.683 1.265 1.265 0 0 1 .516-.506 1.123 1.123 0 0 1-.521-.316 1.022 1.022 0 0 1-.245-.546 1.064 1.064 0 0 1 .1-.67 1.269 1.269 0 0 1 .5-.5 2.242 2.242 0 0 1 .814-.273 2.287 2.287 0 0 1 .868.017 1.274 1.274 0 0 1 .627.332 1.065 1.065 0 0 1 .3.609 1.014 1.014 0 0 1-.076.591 1.136 1.136 0 0 1-.406.46 1.288 1.288 0 0 1 .646.329m-.549 1.337a.7.7 0 0 0 .214-.638.678.678 0 0 0-.392-.533 1.444 1.444 0 0 0-.862-.086 1.411 1.411 0 0 0-.791.337.682.682 0 0 0-.21.625.7.7 0 0 0 .388.547 1.379 1.379 0 0 0 .856.093 1.411 1.411 0 0 0 .8-.345m-2.009-2.863a.662.662 0 0 0 .155 1.043 1.194 1.194 0 0 0 .741.082 1.235 1.235 0 0 0 .7-.3.651.651 0 0 0-.164-1.041 1.223 1.223 0 0 0-.748-.084 1.177 1.177 0 0 0-.68.3" transform="translate(-895.841 -868.974)" style="fill:#dae0f5"/>
                            <path data-name="Path 7854" d="M1040.288 883.611a2.5 2.5 0 0 1 .733 1.561 2.82 2.82 0 0 1-.071 1.3 1.852 1.852 0 0 1-.614.9 2.206 2.206 0 0 1-1.058.436 2.721 2.721 0 0 1-.618.026 1.711 1.711 0 0 1-.523-.118l.166-.53a1.573 1.573 0 0 0 .887.079 1.4 1.4 0 0 0 1.015-.592 1.807 1.807 0 0 0 .2-1.3l-.024-.159a1.211 1.211 0 0 1-.46.514 1.855 1.855 0 0 1-.731.263 1.816 1.816 0 0 1-.807-.046 1.277 1.277 0 0 1-.61-.39 1.313 1.313 0 0 1-.3-.677 1.336 1.336 0 0 1 .094-.766 1.4 1.4 0 0 1 .486-.576 1.808 1.808 0 0 1 .771-.3 1.721 1.721 0 0 1 1.465.367m-.555 1.659a.9.9 0 0 0 .317-.366.812.812 0 0 0-.125-.865.881.881 0 0 0-.409-.255 1.3 1.3 0 0 0-.591-.03 1.048 1.048 0 0 0-.67.342.8.8 0 0 0-.174.668.784.784 0 0 0 .367.582 1.112 1.112 0 0 0 .77.119 1.208 1.208 0 0 0 .514-.195" transform="translate(-1011.197 -851.583)" style="fill:#dae0f5"/>
                            <path data-name="Path 7855" d="M1166.129 868.119a1.824 1.824 0 0 1-.762-.685A3.311 3.311 0 0 1 1165 865a1.825 1.825 0 0 1 .524-.88 1.764 1.764 0 0 1 1.861-.283 1.828 1.828 0 0 1 .762.685 3.314 3.314 0 0 1 .369 2.431 1.826 1.826 0 0 1-.524.88 1.765 1.765 0 0 1-1.862.283m1.675-1a2.7 2.7 0 0 0-.385-2.533 1.067 1.067 0 0 0-1.71.26 2.7 2.7 0 0 0 .385 2.533 1.067 1.067 0 0 0 1.71-.26" transform="translate(-1127.565 -833.755)" style="fill:#dae0f5"/>
                            <path data-name="Path 7856" d="m738.157 582.353-1.05.159.157 1.033-.485.074-.157-1.033-1.051.16-.069-.456 1.051-.16-.158-1.039.485-.074.158 1.039 1.05-.16z" transform="translate(-735.502 -575.663)" style="fill:#dae0f5"/>
                            <path data-name="Path 7857" d="m993.8 545.922-.856-.63-.619.841-.395-.291.619-.841-.856-.63.274-.372.856.63.623-.846.395.291-.623.846.855.63z" transform="translate(-969.414 -541.667)" style="fill:#dae0f5"/>
                            <path data-name="Rectangle 3834" transform="rotate(-8.639 37.555 -72.725)" style="fill:#dae0f5" d="M0 0h2.026v.625H0z"/>
                            <path data-name="Path 7858" d="m1127.39 626.736 3.334-.506.089.587-3.335.507zm.268 1.764 3.335-.507.089.588-3.334.507z" transform="translate(-1093.313 -616.944)" style="fill:#c4cae9"/>
                            <path data-name="Path 7859" d="m1115.18 520.968.094.618 2.955-.449-.094-.618zm1.409-.677a.427.427 0 1 0-.486-.358.426.426 0 0 0 .486.358m.235 1.547a.427.427 0 1 0 .486.358.427.427 0 0 0-.486-.358" transform="translate(-1082.164 -519.443)" style="fill:#dae0f5"/>
                            <path data-name="Path 7860" d="M1156.4 749.623a3.047 3.047 0 0 1-.924 1l-.168-.248a2.3 2.3 0 0 0 .768-.918 1.506 1.506 0 0 0 .138-.739c-.009-.063-.036-.1-.078-.111a.312.312 0 0 0-.131-.008l-.442.115a.823.823 0 0 1-.543-.106.643.643 0 0 1-.315-.5.862.862 0 0 1 .115-.552.757.757 0 0 1 .6-.351 1.061 1.061 0 0 1 .807.216 1.252 1.252 0 0 1 .474.869 1.945 1.945 0 0 1-.3 1.332" transform="translate(-1118.247 -727.389)" style="fill:#dae0f5"/>
                        </g>
                    </g>
                </g>
            </g>
        </g>
        <g data-name="Group 5618">
            <g data-name="Group 5617" style="clip-path:url(#37h1w3upnb)">
                <path data-name="Path 7861" d="M676 600c.119-.475-.088-1.687.113-2.377s1.526-2.935 1.918-2.846c.357.081-.653 1.576-.683 1.933.34.161 1.563.817 1.29 1.488a3.257 3.257 0 0 1-.8 1.4 1.706 1.706 0 0 0-.394.848z" transform="translate(-617.22 -543.051)" style="fill:#fcddd6"/>
                <path data-name="Path 7862" d="M407.34 993.074a189.792 189.792 0 0 1-.337 19.033c-.425 7.111-1.431 12.5-1.63 15.076h1.86c1.2-3.185 7.66-17.054 8.246-34.109z" transform="translate(-370.123 -906.719)" style="fill:#362e94"/>
                <path data-name="Path 7863" d="M403.586 1385.923a1.156 1.156 0 0 0 .155-.6h1.86a2.231 2.231 0 0 0-.193 1.087c-.425.163-1.047-.258-1.822-.49" transform="translate(-368.491 -1264.861)" style="fill:#ffd3c9"/>
                <path data-name="Path 7864" d="M396.866 1392.2c.775.232 1.4.652 1.822.49.225.163 3.539 1.356 3.877 1.586s.295.6-.071.6c-.534 0-4.936-.193-4.936-.193-.089.1-.161.193-.161.193h-1.006a2.726 2.726 0 0 1 .475-2.678" transform="translate(-361.771 -1271.138)" style="fill:#20196f"/>
                <path data-name="Path 7865" d="M427.993 993.074c0 8.2 5.354 8.572 8.952 16.535 2.47 5.466 2.96 16.13 3.072 17.574h1.634c.889-3.889 3.479-18.733-1.634-34.109z" transform="translate(-390.776 -906.719)" style="fill:#423eaf"/>
                <path data-name="Path 7866" d="M566.263 1385.923v-.6h1.634a2.488 2.488 0 0 0 .192 1.087c-.425.163-1.047-.258-1.822-.49" transform="translate(-517.018 -1264.861)" style="fill:#ffd3c9"/>
                <path data-name="Path 7867" d="M559.589 1392.2c.775.232 1.4.652 1.822.49.225.163 3.539 1.356 3.877 1.586s.295.6-.071.6c-.535 0-4.936-.193-4.936-.193-.089.1-.161.193-.161.193h-1.006a2.728 2.728 0 0 1 .475-2.678" transform="translate(-510.344 -1271.138)" style="fill:#20196f"/>
                <path data-name="Rectangle 3837" transform="rotate(-31.957 156.284 -4.24)" style="fill:#1f196f" d="M0 0h.926v.793H0z"/>
                <path data-name="Path 7868" d="m311.423 948.4-3.126-5.007-.752.47 3.6 5.76a.887.887 0 0 0 .283-1.222" transform="translate(-280.801 -861.355)" style="fill:#362e93"/>
                <path data-name="Path 7869" d="m298.891 949.262 3.126 5.007a.887.887 0 0 0 1.222.283l-3.6-5.76z" transform="translate(-272.9 -866.288)" style="fill:#1f196f"/>
                <path data-name="Path 7870" d="M214.644 827.12a5.442 5.442 0 1 0 4.076 6.529 5.443 5.443 0 0 0-4.076-6.529m1.421 9.491a4.955 4.955 0 1 1 1.54-6.836 4.955 4.955 0 0 1-1.54 6.836" transform="translate(-189.889 -755.067)" style="fill:#362e93"/>
                <g data-name="Group 5616" style="mix-blend-mode:multiply;isolation:isolate">
                    <g data-name="Group 5615">
                        <g data-name="Group 5614" style="clip-path:url(#2jmz3hvv1f)" transform="translate(21.976 72.438)">
                            <path data-name="Path 7871" d="M254.886 833.039a4.955 4.955 0 0 1-2.168 9.622 4.955 4.955 0 1 0 2.168-9.622" transform="translate(-252.718 -833.039)" style="fill:#e9edf7"/>
                        </g>
                    </g>
                </g>
                <path data-name="Path 7872" d="M309 955.316c-.3.152-.9.5-1.317-.343s-1.181-1.239-.624-1.42a2.923 2.923 0 0 0 1.255-1.34.392.392 0 0 1 .4.01c.117.061.584-.392.7-.268a4.173 4.173 0 0 1 .852 1.3c.044.225-.5.581-.6 1.05a1.676 1.676 0 0 1-.673 1.011" transform="translate(-280.176 -869.155)" style="fill:#f7d3c9"/>
                <path data-name="Path 7873" d="M329.28 798.567c5.788-3.258 6.916-10.453 9.941-14.56a40.284 40.284 0 0 1 1.5 6.044c-1 4.239-3.664 7.668-10 10.754-1.159-.04-1.44-2.238-1.44-2.238" transform="translate(-300.647 -715.832)" style="fill:#ed9f00"/>
                <path data-name="Path 7874" d="M448.3 652.935s-2.286 5.77-3.666 7.731c-1.166 1.009-4.939 2.083-8.206 1.863-.38-.04-1.087-.111-1.149-.116a37.232 37.232 0 0 0-4.4.055c-2.35.835-2.876 1.9-3.494 6.223s-.292 13.821-.292 13.821h12.023c.413-2.518.119-10.1-.69-14.27 2.27-.833 7.439-2.912 8.9-5.073a31.462 31.462 0 0 0 3.214-9.758s-1.013-.21-2.233-.476" transform="translate(-389.875 -596.158)" style="fill:#fcba06"/>
                <path data-name="Path 7875" d="M462.541 672.495c.329.957 1.612 3.719 1.25 4.886-.3.958-1.238 1.3-2.912 1.093s-2.324-3.041-2.7-3.819c-.592-1.233 3.669-4.172 4.36-2.159" transform="translate(-418.287 -613.39)" style="fill:#ffd3c9"/>
                <path data-name="Path 7876" d="M476.683 729.032c.089.51.313 1.259.313 1.259-.22.3-3.472.675-3.155.144a30.085 30.085 0 0 0 .038-3.109z" transform="translate(-432.618 -664.08)" style="fill:#ffd3c9"/>
                <path data-name="Path 7877" d="M453.639 639.064c1.467-1.059 3.26-3.049 3.533-2.9.05.028-.03.16.029.195.1.056.609-1.22 1.352-.908s.8 2.531-.547 3.8.307 1.985-.27 2.66-.135 2.585-1.278 2.838-1.669 1.094-1.782.366-1.06-2.024-1.243-3.262-.607-2.208.207-2.8" transform="translate(-413.752 -580.153)" style="fill:#20196f"/>
                <path data-name="Path 7878" d="M500.358 700.331c-.073-.286.018-.555.2-.6s.392.147.464.433-.017.555-.2.6-.391-.147-.464-.433" transform="translate(-456.825 -638.877)" style="fill:#f7d3c9"/>
                <path data-name="Path 7879" d="M533.546 792.177c.413-2.518.118-10.1-.69-14.271 2.2-.805 7.106-2.778 8.742-4.862-.474.682-6.375 3.876-9.693 4.108s-.046 1.364.279 3.188a54.259 54.259 0 0 1 .17 11.837z" transform="translate(-484.306 -705.823)" style="fill:#ed9f00"/>
            </g>
        </g>
        <g data-name="Group 5620">
            <g data-name="Group 5619" style="clip-path:url(#37h1w3upnb)">
                <path data-name="Path 7880" d="m1383.75 1193.89-1.99-.791a.468.468 0 0 0-.464.068l-1.68 1.328a.469.469 0 0 0-.173.436l.31 2.119a.468.468 0 0 0 .291.367l1.99.791a.469.469 0 0 0 .464-.068l1.68-1.328a.469.469 0 0 0 .173-.436l-.31-2.119a.469.469 0 0 0-.291-.368" transform="translate(-1259.486 -1089.321)" style="fill:#6b67e9"/>
                <path data-name="Path 7881" d="m.112 989.593 2.352 3.074a.544.544 0 0 0 .935-.122l1.486-3.573a.544.544 0 0 0-.573-.749l-3.838.5a.544.544 0 0 0-.362.871" transform="translate(0 -902.285)" style="fill:#ced3f8"/>
                <path data-name="Path 7882" d="M895.073.074 891.7 1.979a.544.544 0 0 0-.008.943l3.334 1.965a.545.545 0 0 0 .821-.464l.034-3.87a.544.544 0 0 0-.812-.479" transform="translate(-813.912 -.003)" style="fill:#fcba06"/>
            </g>
        </g>
    </g>
</svg>
