<svg xmlns="http://www.w3.org/2000/svg" xmlns:xlink="http://www.w3.org/1999/xlink" width="238.743" height="116.16" viewBox="0 0 238.743 116.16">
    <defs>
        <clipPath id="94df6orbmc">
            <path data-name="Rectangle 3724" style="fill:none" d="M0 0h238.743v116.16H0z"/>
        </clipPath>
        <clipPath id="pi1mcjmw4d">
            <path data-name="Path 7392" d="m2383.121 1.774 12.9 1.209L2397 0z" transform="translate(-2383.121 .001)" style="fill:none"/>
        </clipPath>
        <clipPath id="kggfmgvfse">
            <path data-name="Path 7393" d="m2392.644 28.751 1.668-4.3-11.191-3.526z" transform="translate(-2383.121 -20.922)" style="fill:none"/>
        </clipPath>
        <clipPath id="l4eclqj1ag">
            <path data-name="Path 7397" d="m545.271 34.5 17.158 5.4-9.048-4.994-4.619-.924z" transform="translate(-545.271 -33.988)" style="fill:none"/>
        </clipPath>
        <clipPath id="15o1wnklfi">
            <path data-name="Path 7400" d="m503.977 47.334 4.941 2.5 15.611.464-18.135-4.924z" transform="translate(-503.977 -45.372)" style="fill:none"/>
        </clipPath>
        <clipPath id="juaab3vq3k">
            <path data-name="Path 7436" d="M1506.722 835.4a.351.351 0 1 0 .352-.351.351.351 0 0 0-.352.351" transform="translate(-1506.722 -835.051)" style="fill:none"/>
        </clipPath>
        <clipPath id="yyhmqz251l">
            <path data-name="Rectangle 3739" style="fill:none" d="M0 0h11.953v7.153H0z"/>
        </clipPath>
        <clipPath id="n95b2by3sn">
            <path data-name="Path 7493" d="M2565.428 728.273c-.625 0 .235-5.865.235-5.865h-2.58s-3.244 10.053-.665 11.89 8.247-5.2 8.247-5.2l-1.375-8.009s-3.08 7.183-3.862 7.183" transform="translate(-2561.422 -721.09)" style="fill:none"/>
        </clipPath>
        <clipPath id="hzobjt23zp">
            <path data-name="Path 7495" d="M2653 703.3s-1.609 1.091-1.609 2.342v16.6h9.426v-15.524s-.193-3.451-3.567-3.451-4.25.03-4.25.03" transform="translate(-2651.391 -703.267)" style="fill:none"/>
        </clipPath>
        <clipPath id="fs55vtjbqr">
            <path data-name="Path 7503" d="M2713.341 719.281s3.961 3.018 3.961 5.077-1.928 9.8-1.928 9.8l2.137.625s4.325-6.254 4.325-9.8-5.329-9.468-5.329-9.468z" transform="translate(-2713.341 -715.511)" style="fill:none"/>
        </clipPath>
        <linearGradient id="292qbodooa" x1="-14.573" y1="38.92" x2="-14.567" y2="38.92" gradientUnits="objectBoundingBox">
            <stop offset="0" stop-color="#eef7f6"/>
            <stop offset="1" stop-color="#b2deeb"/>
        </linearGradient>
        <linearGradient id="k3fpefdn4f" x1="-18.071" y1="14.611" x2="-18.063" y2="14.611" xlink:href="#292qbodooa"/>
        <linearGradient id="dpjn4hls5h" x1="-2.697" y1="19.141" x2="-2.692" y2="19.141" xlink:href="#292qbodooa"/>
        <linearGradient id="kcchhjos5j" x1="-2.081" y1="22.81" x2="-2.077" y2="22.81" xlink:href="#292qbodooa"/>
        <linearGradient id="nrckih7yxb" x1="-181.946" y1="64.457" x2="-181.826" y2="64.457" gradientUnits="objectBoundingBox">
            <stop offset="0" stop-color="#daece5"/>
            <stop offset="1" stop-color="#b2deeb"/>
        </linearGradient>
        <linearGradient id="pdladgm9hm" x1="-15.021" y1="1.781" x2="-15.014" y2="1.781" xlink:href="#nrckih7yxb"/>
        <linearGradient id="ru4ezwpzdo" x1="-19.93" y1="3.653" x2="-19.922" y2="3.653" xlink:href="#nrckih7yxb"/>
        <linearGradient id="4h1yjpe6bq" x1="-23.869" y1="2.977" x2="-23.86" y2="2.977" xlink:href="#nrckih7yxb"/>
        <linearGradient id="506u1qpd6s" x1="-27.105" y1="2.877" x2="-27.095" y2="2.877" gradientUnits="objectBoundingBox">
            <stop offset="0" stop-color="#b2deeb"/>
            <stop offset="1" stop-color="#daece5"/>
        </linearGradient>
    </defs>
    <g data-name="Group 5593">
        <g data-name="Group 5558">
            <g data-name="Group 5557" style="clip-path:url(#94df6orbmc)">
                <path data-name="Path 7385" d="m326.233 338.021-.252-3.282c-.757-6.816 1.515-14.262 7.825-21.835 5.68-6.689 8.835-11.612 8.835-17.291 0-6.437-4.039-10.728-11.99-10.855a22.433 22.433 0 0 0-12.748 3.913l-3.029-7.952c4.165-3.029 11.359-5.049 18.049-5.049 14.515 0 21.078 8.961 21.078 18.554 0 8.583-4.8 14.767-10.854 21.961-5.553 6.563-7.573 12.117-7.194 18.554l.126 3.282zm-2.777 17.67c0-4.67 3.155-7.952 7.573-7.952s7.447 3.282 7.447 7.952c0 4.418-2.9 7.825-7.573 7.825-4.417 0-7.447-3.408-7.447-7.825" transform="translate(-288.154 -252.278)" style="fill:#002f4c"/>
                <path data-name="Path 7386" d="M325.6 359.528c-4.551 0-7.854-3.462-7.854-8.233a8.607 8.607 0 0 1 2.243-6.008 7.822 7.822 0 0 1 5.738-2.351c4.624 0 7.854 3.437 7.854 8.359 0 4.848-3.282 8.233-7.98 8.233m.126-15.777c-4.219 0-7.165 3.1-7.165 7.544 0 4.3 2.96 7.418 7.039 7.418 4.219 0 7.165-3.05 7.165-7.418 0-4.442-2.894-7.544-7.039-7.544m5.472-9.718h-10.647l-.281-3.651a24.628 24.628 0 0 1 1.283-10.8 36.495 36.495 0 0 1 6.635-11.33c5.537-6.521 8.741-11.4 8.741-17.031 0-6.522-4.224-10.33-11.589-10.447a21.913 21.913 0 0 0-12.495 3.83l-.434.33-3.334-8.752.252-.183c4.216-3.066 11.566-5.127 18.289-5.127 6.833 0 12.459 2.005 16.269 5.8a18.346 18.346 0 0 1 5.216 13.163 23.307 23.307 0 0 1-3.207 11.7 69.372 69.372 0 0 1-7.743 10.525c-5.357 6.331-7.48 11.794-7.1 18.267zm-9.891-.815h9.044l-.11-2.858c-.394-6.693 1.786-12.328 7.29-18.832 6.3-7.48 10.758-13.415 10.758-21.7 0-8.371-5.413-18.146-20.67-18.146-6.431 0-13.43 1.917-17.556 4.79l2.727 7.159a23.139 23.139 0 0 1 12.556-3.677c3.984.063 7.1 1.13 9.257 3.172a10.781 10.781 0 0 1 3.141 8.09c0 5.884-3.275 10.893-8.932 17.555-5.926 7.111-8.528 14.355-7.731 21.526v.014z" transform="translate(-282.85 -247.882)" style="fill:#002f4c"/>
                <path data-name="Path 7387" d="M1040.622 641.546v-5.263q3.621-.563 4.84-2.085t1.218-6.034v-34.4q0-4.229-1.274-5.525t-5.181-1.41v-5.462q5.758-.284 11.968-.743t12.759-1.143v48.682q0 4.51 1.209 6.034t4.749 2.085v5.263z" transform="translate(-951.954 -530.307)" style="fill:#122043"/>
                <path data-name="Path 7388" d="M1133.629 334.364c0-4.893 3.306-8.332 7.935-8.332s7.8 3.438 7.8 8.332c0 4.629-3.042 8.2-7.935 8.2-4.629 0-7.8-3.571-7.8-8.2" transform="translate(-1037.432 -298.366)" style="fill:#122043"/>
                <path data-name="Path 7389" d="M1802.23 326.032a40.906 40.906 0 0 0-40.906 40.906c0 8.41 2.531 13.2 7.331 22.726 6.986 13.865-4.541 19.732-4.541 19.732s30.219.208 38.115.208c22.592 0 40.906-20.075 40.906-42.666a40.906 40.906 0 0 0-40.906-40.906" transform="translate(-1611.862 -298.366)" style="fill:#5963d9"/>
                <path data-name="Path 7390" d="m2396.025 22.13 1.558 3.064-3.271-.746-11.191-3.526z" transform="translate(-2180.895 -19.146)" style="fill:#a5d1bb"/>
                <path data-name="Path 7391" d="m2493.618 60.083-5.557-.345 1.362-.692z" transform="translate(-2276.929 -54.035)" style="fill:#53b6b9"/>
            </g>
        </g>
        <g data-name="Group 5560">
            <g data-name="Group 5559" transform="translate(202.226)" style="clip-path:url(#pi1mcjmw4d)">
                <path data-name="Rectangle 3725" style="fill:url(#292qbodooa)" d="M0 0h13.877v2.985H0z"/>
            </g>
        </g>
        <g data-name="Group 5562">
            <g data-name="Group 5561" style="clip-path:url(#kggfmgvfse)" transform="translate(202.226 1.775)">
                <path data-name="Rectangle 3726" style="fill:url(#k3fpefdn4f)" d="M0 0h11.191v7.829H0z"/>
            </g>
        </g>
        <g data-name="Group 5564">
            <g data-name="Group 5563" style="clip-path:url(#94df6orbmc)">
                <path data-name="Path 7394" d="M2523.557 94.024a.259.259 0 0 0 .079-.061.261.261 0 0 0-.026-.369 7.324 7.324 0 0 0-1.1-.793.261.261 0 0 0-.265.451 6.793 6.793 0 0 1 1.022.736.261.261 0 0 0 .29.036" transform="translate(-2308.095 -84.893)" style="fill:#53b6b9"/>
                <path data-name="Path 7395" d="M2409.458 143.34a.262.262 0 0 1 .093-.358 7.348 7.348 0 0 0 1.917-1.662.262.262 0 0 1 .4.333 7.875 7.875 0 0 1-2.055 1.779l-.015.008a.261.261 0 0 1-.343-.1m2.979-2.931a.261.261 0 0 1-.1-.356 9.349 9.349 0 0 0 .948-2.38.262.262 0 1 1 .508.126 9.873 9.873 0 0 1-1 2.512.256.256 0 0 1-.108.1.261.261 0 0 1-.248-.006m1.331-3.975a.261.261 0 0 1-.242-.279l.007-.118a12.088 12.088 0 0 0-.128-2.457.261.261 0 1 1 .517-.078 12.586 12.586 0 0 1 .134 2.564l-.008.126a.262.262 0 0 1-.28.242m-.363-4.189a.261.261 0 0 1-.319-.186 19.1 19.1 0 0 0-.849-2.461.261.261 0 0 1 .482-.2 19.458 19.458 0 0 1 .872 2.529.26.26 0 0 1-.134.3.275.275 0 0 1-.052.02m-1.469-3.955a.262.262 0 0 1-.35-.119l-.1-.2a8.743 8.743 0 0 1-.845.282.261.261 0 0 1-.14-.5q.379-.1.746-.246c-.272-.52-.571-1.06-.908-1.642a.261.261 0 0 1 .452-.262c.35.6.659 1.162.94 1.7a7.945 7.945 0 0 0 1.089-.607.261.261 0 1 1 .291.435 8.526 8.526 0 0 1-1.141.638l.085.172a.261.261 0 0 1-.116.348m2.065-2.2a.261.261 0 0 1-.005-.37 6.559 6.559 0 0 0 1.387-2.11.261.261 0 0 1 .484.2 7.088 7.088 0 0 1-1.5 2.276.256.256 0 0 1-.069.051.262.262 0 0 1-.3-.046m-4.963 2.455a8.17 8.17 0 0 1-2.707-.211.261.261 0 1 1 .128-.507 7.64 7.64 0 0 0 2.534.2.261.261 0 0 1 .14.494.259.259 0 0 1-.1.027m6.979-6.1a.261.261 0 0 1-.212-.3 7.948 7.948 0 0 0 .024-2.546.261.261 0 0 1 .517-.077 8.456 8.456 0 0 1-.026 2.713.262.262 0 0 1-.3.212m-11.22 5.309a6.761 6.761 0 0 1-.614-.355 5.577 5.577 0 0 1-1.478-1.412.261.261 0 0 1 .425-.3 5.064 5.064 0 0 0 1.338 1.278 6.316 6.316 0 0 0 .567.328.261.261 0 1 1-.238.465m4.729-3.238a9.7 9.7 0 0 0-1.615-1.992.261.261 0 1 1 .35-.388 10.2 10.2 0 0 1 1.7 2.1.262.262 0 0 1-.078.361l-.023.013a.261.261 0 0 1-.338-.092m6.27-6.247a.261.261 0 0 1-.332-.162 8.428 8.428 0 0 0-.455-1.074 8 8 0 0 0-.735-1.18.261.261 0 1 1 .417-.314 8.454 8.454 0 0 1 .783 1.257 8.9 8.9 0 0 1 .483 1.141.262.262 0 0 1-.128.318l-.034.014m-13.5 6.4a.261.261 0 0 1-.317-.19 2.9 2.9 0 0 1 .214-2.084 2.669 2.669 0 0 1 .446-.614.261.261 0 1 1 .375.364 2.129 2.129 0 0 0-.358.493 2.36 2.36 0 0 0-.17 1.715.261.261 0 0 1-.135.3.255.255 0 0 1-.055.021m4.37-2.986a3.742 3.742 0 0 0-2.407-.227.261.261 0 0 1-.128-.507 4.222 4.222 0 0 1 2.755.259.261.261 0 1 1-.219.475" transform="translate(-2198.064 -105.639)" style="fill:#53b6b9"/>
                <path data-name="Path 7396" d="M2459.857 447.656a.262.262 0 0 0-.19-.485 5.6 5.6 0 0 1-1.229.207.261.261 0 1 0 .029.522 6.129 6.129 0 0 0 1.344-.226.274.274 0 0 0 .047-.019" transform="translate(-2249.594 -409.217)" style="fill:#53b6b9"/>
            </g>
        </g>
        <g data-name="Group 5566">
            <g data-name="Group 5565" style="clip-path:url(#l4eclqj1ag)" transform="translate(46.27 2.884)">
                <path data-name="Rectangle 3728" style="fill:url(#dpjn4hls5h)" d="M0 0h17.158v5.918H0z"/>
            </g>
        </g>
        <g data-name="Group 5568">
            <g data-name="Group 5567" style="clip-path:url(#94df6orbmc)">
                <path data-name="Path 7398" d="m562.43 45.442-16.944-4.356-.215-1.049" transform="translate(-499.001 -36.64)" style="fill:#a5d1bb"/>
                <path data-name="Path 7399" d="m542.1 86.658.022.035.711 2.631 16.651-1.216z" transform="translate(-496.102 -79.305)" style="fill:#53b6b9"/>
            </g>
        </g>
        <g data-name="Group 5570">
            <g data-name="Group 5569" style="clip-path:url(#15o1wnklfi)" transform="translate(42.766 3.85)">
                <path data-name="Rectangle 3730" style="fill:url(#kcchhjos5j)" d="M0 0h20.552v4.924H0z"/>
            </g>
        </g>
        <g data-name="Group 5572">
            <g data-name="Group 5571" style="clip-path:url(#94df6orbmc)">
                <path data-name="Path 7401" d="M46.414 456.164a12.668 12.668 0 0 0 1.63-.707.246.246 0 1 1 .227.437 13.174 13.174 0 0 1-1.693.735q-.312.11-.628.2a.246.246 0 1 1-.142-.471q.3-.092.607-.2" transform="translate(-41.76 -416.782)" style="fill:#53b6b9"/>
                <path data-name="Path 7402" d="M442.639 46.852c.768.1 1.568.225 2.445.387a.246.246 0 0 1-.089.484 45.165 45.165 0 0 0-2.418-.383.246.246 0 1 1 .063-.489" transform="translate(-404.824 -42.874)" style="fill:#53b6b9"/>
                <path data-name="Path 7403" d="M396.174 44.3a.246.246 0 0 1 .145-.444c.79-.007 1.625.026 2.482.1a.246.246 0 0 1-.041.491c-.842-.07-1.661-.1-2.436-.1a.244.244 0 0 1-.148-.048" transform="translate(-362.464 -40.131)" style="fill:#53b6b9"/>
                <path data-name="Path 7404" d="M89.442 428.351a.243.243 0 0 1 .348 0 .245.245 0 0 1 0 .348 13.712 13.712 0 0 1-1.943 1.578.246.246 0 0 1-.283-.007.234.234 0 0 1-.058-.061.246.246 0 0 1 .067-.341 13.291 13.291 0 0 0 1.873-1.522" transform="translate(-80.038 -391.937)" style="fill:#53b6b9"/>
                <path data-name="Path 7405" d="M121.808 393.952a.246.246 0 0 1-.034-.347q.208-.255.4-.519a12.758 12.758 0 0 0 .946-1.479.246.246 0 0 1 .334-.1.249.249 0 0 1 .1.334 13.227 13.227 0 0 1-.982 1.536q-.2.275-.42.538a.246.246 0 0 1-.337.042l-.01-.007" transform="translate(-111.39 -358.259)" style="fill:#53b6b9"/>
                <path data-name="Path 7406" d="M145.553 351.029a.245.245 0 0 1-.134-.321 16.8 16.8 0 0 0 .749-2.3.246.246 0 1 1 .477.12 17.137 17.137 0 0 1-.771 2.371.246.246 0 0 1-.321.134" transform="translate(-133.062 -318.668)" style="fill:#53b6b9"/>
                <path data-name="Path 7407" d="M203.9 129.431q-.308.375-.6.765c-.29.392-.567.8-.824 1.206a.246.246 0 0 1-.339.078l-.016-.011a.246.246 0 0 1-.061-.328c.263-.419.547-.836.845-1.238q.3-.4.612-.784a.234.234 0 0 1 .347-.034.246.246 0 0 1 .034.346" transform="translate(-184.881 -118.074)" style="fill:#53b6b9"/>
                <path data-name="Path 7408" d="M183.157 168.063a17.946 17.946 0 0 0-.976 2.221.246.246 0 1 1-.463-.166 18.38 18.38 0 0 1 1-2.283.246.246 0 1 1 .437.228" transform="translate(-166.284 -153.472)" style="fill:#53b6b9"/>
                <path data-name="Path 7409" d="M232.713 96.778a20.014 20.014 0 0 0-1.782 1.653.246.246 0 0 1-.324.028l-.024-.02a.246.246 0 0 1-.008-.348A20.589 20.589 0 0 1 232.4 96.4a.246.246 0 0 1 .313.381" transform="translate(-210.947 -88.166)" style="fill:#53b6b9"/>
                <path data-name="Path 7410" d="M306.259 54.233a.246.246 0 0 1-.2-.45 19.49 19.49 0 0 1 2.338-.861.246.246 0 1 1 .14.472 19.012 19.012 0 0 0-2.279.839" transform="translate(-279.954 -48.422)" style="fill:#53b6b9"/>
                <path data-name="Path 7411" d="M164.705 259.365a.246.246 0 0 1-.216-.272l.035-.31c.081-.714.163-1.428.257-2.139a.246.246 0 0 1 .488.065c-.094.709-.175 1.42-.256 2.13l-.035.31a.246.246 0 0 1-.272.217" transform="translate(-150.529 -234.669)" style="fill:#53b6b9"/>
                <path data-name="Path 7412" d="M266 72.306a.246.246 0 0 1-.288 0 .25.25 0 0 1-.055-.056.246.246 0 0 1 .059-.343 20.459 20.459 0 0 1 2.119-1.309.246.246 0 0 1 .233.434A19.874 19.874 0 0 0 266 72.306" transform="translate(-243.07 -64.578)" style="fill:#53b6b9"/>
                <path data-name="Path 7413" d="M158.707 302.53a.245.245 0 0 1 .213.275c-.121.959-.24 1.737-.373 2.449a.246.246 0 0 1-.484-.091c.132-.7.249-1.47.369-2.419a.246.246 0 0 1 .275-.214" transform="translate(-144.646 -276.856)" style="fill:#53b6b9"/>
                <path data-name="Path 7414" d="M2.638 470.459a.246.246 0 0 1 .095.483 19.874 19.874 0 0 1-2.469.319.246.246 0 1 1-.035-.491 19.564 19.564 0 0 0 2.409-.311" transform="translate(0 -430.533)" style="fill:#53b6b9"/>
                <path data-name="Path 7415" d="M171.3 210.864a.247.247 0 0 1 .174.3c-.194.724-.36 1.5-.508 2.383a.246.246 0 1 1-.485-.081c.15-.9.319-1.69.518-2.429a.246.246 0 0 1 .3-.174" transform="translate(-156.011 -192.963)" style="fill:#53b6b9"/>
                <path data-name="Path 7416" d="M351.789 44.672q.431-.051.863-.084a.246.246 0 0 1 .037.491q-.422.031-.842.081a17.33 17.33 0 0 0-1.561.258.246.246 0 1 1-.1-.481c.53-.113 1.07-.2 1.6-.265" transform="translate(-320.29 -40.803)" style="fill:#53b6b9"/>
                <path data-name="Path 7417" d="m1503.891 747.054-2.945 5.546 3.245-.156.228-5.569z" transform="translate(-1373.58 -683.497)" style="fill:#f7a57a"/>
                <path data-name="Path 7418" d="M1548.648 719.977h-2.72l-1.127 17.581h4.874z" transform="translate(-1413.712 -658.877)" style="fill:#fff"/>
                <path data-name="Path 7419" d="M1586.245 1328.189a1.424 1.424 0 0 1 .549 1.2c-.123.674-.3 2.251-.3 2.251h-.691l.021-1.471c0-.1-1.483 1.471-1.733 1.471h-3.658s-.243-.992 1.9-1.311a7.923 7.923 0 0 0 3.9-2.141" transform="translate(-1446.316 -1215.482)" style="fill:#002f4c"/>
                <path data-name="Path 7420" d="m1599.256 1320.279-.5 1.29a1.658 1.658 0 0 1-.675.857 6.488 6.488 0 0 1-1.708.775c.994.849 2.576-.037 3.48-.664a2.213 2.213 0 0 0 .884-1.281l.207-.978z" transform="translate(-1460.912 -1208.243)" style="fill:#f7a57a"/>
                <path data-name="Path 7421" d="M1504.134 1328.189a1.424 1.424 0 0 1 .549 1.2c-.124.674-.3 2.251-.3 2.251h-.691l.021-1.471c0-.1-1.483 1.471-1.733 1.471h-3.657s-.243-.992 1.9-1.311a7.924 7.924 0 0 0 3.9-2.141" transform="translate(-1371.173 -1215.482)" style="fill:#002f4c"/>
                <path data-name="Path 7422" d="m1517.146 1320.279-.5 1.29a1.657 1.657 0 0 1-.676.857 6.485 6.485 0 0 1-1.708.775c.994.849 2.576-.037 3.481-.664a2.217 2.217 0 0 0 .884-1.281l.207-.978z" transform="translate(-1385.77 -1208.243)" style="fill:#f7a57a"/>
                <path data-name="Path 7423" d="M1532.5 927.149s.457 2.628-2.171 15.543c2.127 6.731-1.279 17.993-1.279 17.993h-2.483l-1.691-33.536z" transform="translate(-1395.481 -848.473)" style="fill:#122043"/>
                <path data-name="Path 7424" d="m1520.566 720.019-.882 21.331-2.923-1.251a31.378 31.378 0 0 0 1.192-9.567c.447-4.023-1.835-1.9.961-9.649a2.991 2.991 0 0 1 1.652-.863" transform="translate(-1388.052 -658.92)" style="fill:#53b6b9"/>
                <path data-name="Path 7425" d="m1557.107 661.276.342 1.8a1.144 1.144 0 0 0 1.732.756l1.2-.752-2.142-4.842z" transform="translate(-1424.974 -602.38)" style="fill:#f18c72"/>
                <path data-name="Path 7426" d="M1560.66 927.149s3.253 2.628.626 15.543c2.127 6.731.25 17.993.25 17.993h-2.229l-6.271-33.536z" transform="translate(-1421.249 -848.473)" style="fill:#002f4c"/>
                <path data-name="Path 7427" d="M1580.427 698.717s2.746 1.543 3.6 2.921c.813 1.313 1.095 4.3 1.173 6.964.107 3.654 1.872 13.253 1.872 13.253h-7.361l-.184-20.9z" transform="translate(-1445.491 -639.425)" style="fill:#53b6b9"/>
                <path data-name="Path 7428" d="M1513.261 601.878c1.665-.422 3.267 1.285 3.267 1.285l1.253 6.746 1.926-2.969s.11-4.034-1.752-6.705c-1.333-1.618-3.893-1.153-5.186.42a3.975 3.975 0 0 0-.7 2.794c.082 1.305.452 8.8.452 8.8l3.814-2.825a17.754 17.754 0 0 0-.456-2.147c-.628-2.384-3.735-5.111-2.617-5.395" transform="translate(-1383.745 -548.376)" style="fill:#122043"/>
                <path data-name="Path 7429" d="M1562.191 644.093a.6.6 0 0 0-.711.371.519.519 0 0 0 .18.733.6.6 0 0 0 .711-.371.519.519 0 0 0-.18-.733" transform="translate(-1428.91 -589.41)" style="fill:#f7a57a"/>
                <path data-name="Path 7430" d="M1519.547 629.255a1.326 1.326 0 0 1-.814.106c-1.448-1.049-1.971-5.242-1.971-5.242l1.147-1.218 2.284.5 1.125 2.5a2.3 2.3 0 0 1-.094 2.073 3.685 3.685 0 0 1-1.677 1.283" transform="translate(-1388.052 -570.043)" style="fill:#f7a57a"/>
                <path data-name="Path 7431" d="M1521.761 613.525c.119 1.268 3.648 1.372 3.648 1.372l.184-1.717-2.057-1.133-1.629.98a1.079 1.079 0 0 0-.146.5" transform="translate(-1392.626 -560.111)" style="fill:#122043"/>
                <path data-name="Path 7432" d="M1515.765 630.109a2.422 2.422 0 0 1-.361 1.294l-.281-.507.008-.439.277-.343s.239-.477.356-.005" transform="translate(-1386.553 -576.448)" style="fill:#122043"/>
                <path data-name="Path 7433" d="M1531.455 732.97c3.562.416 1.88 9.6 1.114 13.378a1.6 1.6 0 0 1-2.041 1.21c-3.1-.977-7.627-5.036-7.627-5.036l.718-.9 6.015 1.4s-2.308-10.534 1.821-10.052" transform="translate(-1393.671 -670.757)" style="fill:#f7a57a"/>
                <path data-name="Path 7434" d="m1482.94 806.517 1.163 7.2a.343.343 0 0 1-.339.4h-4.6a.343.343 0 0 1-.339-.289l-1.142-7.2a.343.343 0 0 1 .339-.4h4.585a.343.343 0 0 1 .338.288" transform="translate(-1352.282 -737.814)" style="fill:#0e787a"/>
                <path data-name="Path 7435" d="M1479.3 822.441a3.151 3.151 0 0 1 .08-.935c.11-.681.081-1.748.776-1.216a3.5 3.5 0 0 1 .733 1.7 2.032 2.032 0 0 1-.439 1.52l-.478 1.042a3.013 3.013 0 0 1-.673-2.112" transform="translate(-1353.751 -750.55)" style="fill:#f7a57a"/>
            </g>
        </g>
        <g data-name="Group 5574">
            <g data-name="Group 5573" style="clip-path:url(#juaab3vq3k)" transform="translate(127.857 70.861)">
                <path data-name="Rectangle 3732" style="fill:url(#nrckih7yxb)" d="M0 0h.703v.703H0z"/>
            </g>
        </g>
        <g data-name="Group 5576">
            <g data-name="Group 5575" style="clip-path:url(#94df6orbmc)">
                <path data-name="Path 7437" d="m2090.135 1118.139-1.107-.7 3.454-1.54-1.429-3.256a4.717 4.717 0 0 0-4-2.515h-7.111a4.717 4.717 0 0 0-4 2.515l-1.43 3.256 3.454 1.54-1.107.7-.613 5.291 7.251-.114 7.25.114z" transform="translate(-1898.474 -1015.93)" style="fill:#0e787a"/>
                <path data-name="Path 7438" d="m2232.335 1178.141.713 2.355a4.553 4.553 0 0 1-1.438 4.78l-3.235 2.527-1.04-2.828 1.79-1.669a1.82 1.82 0 0 0 .444-2.087l-.687-1.538z" transform="translate(-2038.328 -1078.167)" style="fill:#f7a57a"/>
                <path data-name="Path 7439" d="m2082.762 1338.272-2.881.391-.555-.609.281-1.1 2.769-.4z" transform="translate(-1902.879 -1223.134)" style="fill:#f7a57a"/>
                <path data-name="Path 7440" d="m2013.259 1336.655-3.626.447s-3.57.464-3.055-1.5c.5-1.9 3.7-1.057 3.7-1.057l2.981.36a1.508 1.508 0 0 0-.041 1.691z" transform="translate(-1836.257 -1221.125)" style="fill:#0e787a"/>
                <path data-name="Path 7441" d="M2006.576 1336.123a1.688 1.688 0 0 1 1.531-1.194v2.709c-.9-.1-1.808-.454-1.531-1.515" transform="translate(-1836.256 -1221.65)" style="fill:#53b6b9"/>
                <path data-name="Line 1246" transform="translate(175.39 113.974)" style="fill:#f7a57a" d="M0 0v1.164"/>
                <path data-name="Rectangle 3733" transform="translate(175.241 113.974)" style="fill:#fff" d="M0 0h.298v1.164H0z"/>
                <path data-name="Line 1247" transform="translate(174.654 113.974)" style="fill:#f7a57a" d="M0 0v1.164"/>
                <path data-name="Rectangle 3734" transform="translate(174.505 113.974)" style="fill:#fff" d="M0 0h.298v1.164H0z"/>
                <path data-name="Path 7442" d="m2065.172 1178.141-.713 2.355a4.551 4.551 0 0 0 1.438 4.78l3.235 2.527 1.04-2.828-1.79-1.669a1.819 1.819 0 0 1-.444-2.087l.687-1.538z" transform="translate(-1889.098 -1078.167)" style="fill:#f7a57a"/>
                <path data-name="Path 7443" d="m2244.609 1338.488 2.93.175.555-.61-.282-1.1-2.769-.4z" transform="translate(-2054.136 -1223.133)" style="fill:#f7a57a"/>
                <path data-name="Path 7444" d="m2279.134 1336.655 3.626.447s3.569.464 3.055-1.5c-.5-1.9-3.7-1.057-3.7-1.057l-2.98.36a1.509 1.509 0 0 1 .041 1.691z" transform="translate(-2085.732 -1221.125)" style="fill:#0e787a"/>
                <path data-name="Path 7445" d="M2341.365 1336.123a1.688 1.688 0 0 0-1.531-1.194v2.709c.9-.1 1.808-.454 1.531-1.515" transform="translate(-2141.281 -1221.65)" style="fill:#53b6b9"/>
                <path data-name="Line 1248" transform="translate(195.014 113.974)" style="fill:#f7a57a" d="M0 0v1.164"/>
                <path data-name="Rectangle 3735" transform="translate(194.865 113.974)" style="fill:#fff" d="M0 0h.298v1.164H0z"/>
                <path data-name="Line 1249" transform="translate(195.749 113.974)" style="fill:#f7a57a" d="M0 0v1.164"/>
                <path data-name="Rectangle 3736" transform="translate(195.6 113.974)" style="fill:#fff" d="M0 0h.298v1.164H0z"/>
            </g>
        </g>
        <g data-name="Group 5578">
            <g data-name="Group 5577" style="clip-path:url(#yyhmqz251l)" transform="translate(179.542 103.421)">
                <path data-name="Rectangle 3738" style="fill:url(#pdladgm9hm)" d="M0 0h11.953v7.153H0z"/>
            </g>
        </g>
        <g data-name="Group 5580">
            <g data-name="Group 5579" style="clip-path:url(#94df6orbmc)">
                <path data-name="Rectangle 3740" transform="translate(179.542 110.277)" style="fill:#bca9c2" d="M0 0h11.953v.596H0z"/>
                <path data-name="Path 7446" d="M2180.6 1248a.478.478 0 1 0 .478-.478.478.478 0 0 0-.478.478" transform="translate(-1995.556 -1141.655)" style="fill:#fff"/>
                <path data-name="Path 7447" d="M2119.477 1264.412c2.388 4.253-21.663 6.864-21.663 6.864l-.408-1.895s19.126-10.214 22.071-4.969" transform="translate(-1919.425 -1155.746)" style="fill:#122043"/>
                <path data-name="Path 7448" d="M2006.185 1264.407c-2.029 4.436 21.862 7.1 21.862 7.1l.177-2.131s-19.641-10.21-22.04-4.965" transform="translate(-1835.833 -1155.741)" style="fill:#002f4c"/>
                <path data-name="Path 7449" d="M2160.909 1081.28c-.221-.671-.623-2.659-.623-2.659l-2.56.5v2.171a3.429 3.429 0 0 0 1.564.608 2.55 2.55 0 0 0 1.618-.62" transform="translate(-1974.627 -987.092)" style="fill:#f18c72"/>
                <path data-name="Path 7450" d="m2137.01 1006.441-.482-2.843-4.918.582.3 3.275s.38 4.053 3 3.571c2.832-.522 2.23-4.622 2.1-4.586" transform="translate(-1950.726 -918.435)" style="fill:#f7a57a"/>
                <path data-name="Path 7451" d="M2124.041 985.734a1.948 1.948 0 0 1 .209-1.183c.849-1.39-.436-1.794-.884-1.914-.5-.133-.654-.9-1.32-1.151-1.016-.376-1.589.534-2.141.6s-1.1-.519-1.736.09-.366 1.177-.528 1.505-.83-.222-1.315.806a1.038 1.038 0 0 0 .538 1.5 2.183 2.183 0 0 0 1.88.045 8.493 8.493 0 0 0 1.973-1.2c.191-.156 1.692-.259 1.817-.046a10.3 10.3 0 0 1 .458 3.126l.438-.613a1.557 1.557 0 0 0 .612-1.575" transform="translate(-1936.609 -898.117)" style="fill:#122043"/>
                <path data-name="Path 7452" d="M2189.083 1036.081c-.132.343-.053.692.176.78s.522-.119.654-.461.053-.693-.176-.781-.522.119-.654.462" transform="translate(-2003.264 -947.721)" style="fill:#f7a57a"/>
                <path data-name="Path 7453" d="M934.821 647.575a2.064 2.064 0 0 0-.089 1.471l.269 1.909.328.221 1.221.5a1.315 1.315 0 0 1 0-.765l.536-1.975s.834-3.333-1.429-3.19c.011-2.715-.745-2.267-.745-2.267l-.052 2.347z" transform="translate(-855.326 -588.854)" style="fill:#f7a57a"/>
                <path data-name="Path 7454" d="M864.6 732.906s1.582 6.037 2.931 6.145 2.752-9.564 2.752-9.564l1.835.222s.713 13.909-3.4 14.162-4.659-2.823-4.659-2.823z" transform="translate(-790.735 -667.584)" style="fill:#ffd159"/>
                <path data-name="Path 7455" d="M752.328 749.412h-10.766v-16.351c3.076-4.694 6.909-3.415 6.909-3.415s3.485.063 4.029 3.26c0 2.314-.172 16.507-.172 16.507" transform="translate(-678.635 -667.584)" style="fill:#f99200"/>
                <path data-name="Path 7456" d="m806.436 705.768-.159 2.311.076.072a2.005 2.005 0 0 0 2.723.038l.036-1.739z" transform="translate(-737.858 -645.878)" style="fill:#f18c72"/>
                <path data-name="Path 7457" d="m798.191 648.853.195 3.821a.59.59 0 0 1 .531.75.711.711 0 0 1 .064.281 4.383 4.383 0 0 0 3.4.793c2.418-.463.959-5.137.959-5.137z" transform="translate(-730.458 -593.793)" style="fill:#f7a57a"/>
                <path data-name="Path 7458" d="M770.467 620.6a2.342 2.342 0 0 0-.613-1.058c-1.369-1.184-.144-2.048.29-2.327.48-.309.386-1.18 1.008-1.667.95-.743 1.865.027 2.474-.086s.986-.922 1.871-.493.787 1.123 1.07 1.416.8-.517 1.667.408c1.312 1.407-1.261 2.009-1.261 2.009a4.67 4.67 0 0 1-3.273-.149.612.612 0 0 0-.722.177c-.445.608-.45 3.8-.45 3.8l-.622-.517a1.729 1.729 0 0 1-1.439-1.509" transform="translate(-703.949 -562.672)" style="fill:#122043"/>
                <path data-name="Path 7459" d="M800.487 677.634a.587.587 0 1 0 .321-.765.586.586 0 0 0-.321.765" transform="translate(-732.52 -619.391)" style="fill:#f7a57a"/>
                <path data-name="Path 7460" d="M811.671 1327.621s.607.84 3.467 1.568c.63.161 1.309.27 1.309 1.309h-2.823l-2.887-.5v.5h-1.559s-.434-2.55.476-2.877z" transform="translate(-740.418 -1214.962)" style="fill:#122043"/>
                <path data-name="Path 7461" d="m818.072 1306.037-.148 1.832a1.764 1.764 0 0 1-1.91.064l-.107-.064v-1.832z" transform="translate(-746.671 -1195.209)" style="fill:#f7a57a"/>
                <path data-name="Path 7462" d="M717.156 1327.621s.607.84 3.467 1.568c.63.161 1.309.27 1.309 1.309h-2.823l-2.887-.5v.5h-1.559s-.434-2.55.476-2.877z" transform="translate(-653.923 -1214.962)" style="fill:#122043"/>
                <path data-name="Path 7463" d="m723.558 1306.037-.148 1.832a1.764 1.764 0 0 1-1.91.064l-.107-.064v-1.832z" transform="translate(-660.177 -1195.209)" style="fill:#f7a57a"/>
                <path data-name="Path 7464" d="M728.675 771.606s-3.227 7.447.89 11.252a13.317 13.317 0 0 0 9.707 3.157v-2.145s-5.052-.427-6.671-3.8a6.34 6.34 0 0 1 .648-6.3" transform="translate(-665.74 -706.129)" style="fill:#f99200"/>
                <path data-name="Path 7465" d="m862.64 905.621 2.577.054c1.046-.058 1.743-1.62 1.916-2.782a.236.236 0 0 0-.312-.255 32.806 32.806 0 0 0-3.706 1.461z" transform="translate(-789.438 -826.03)" style="fill:#f7a57a"/>
                <path data-name="Path 7466" d="M792.484 964.3c3.211 9.066-1.808 29.141-1.808 29.141h-2.86s1.349-28.466-2.375-29.141z" transform="translate(-718.791 -882.469)" style="fill:#005558"/>
                <path data-name="Path 7467" d="M732.13 844.74a5.8 5.8 0 0 0 .575 2.253c1.619 3.377 6.934 3.825 6.934 3.825v2.167s-5.852.606-9.97-3.2a6.975 6.975 0 0 1-2.083-5.046z" transform="translate(-665.845 -773.057)" style="fill:#ffd159"/>
                <path data-name="Path 7468" d="M777.589 799.474c-.113-.051-.227-.1-.338-.154a6.917 6.917 0 0 1 1.284-4.4l.254.2a6.531 6.531 0 0 0-1.2 4.353" transform="translate(-711.279 -727.464)" style="fill:#ef7100"/>
                <path data-name="Path 7469" d="M928.7 673.158s-.594-.178-.687-1.262-.6-.749-.6-.749.266 4.272.947 4.433.344-2.422.344-2.422" transform="translate(-848.712 -614.151)" style="fill:#f7a57a"/>
                <path data-name="Path 7470" d="M727.338 964.3c.874 11.117-6.224 29.141-6.224 29.141h-3.4a134.906 134.906 0 0 0 2.358-22.342 57.794 57.794 0 0 0-.334-6.8z" transform="translate(-656.81 -882.469)" style="fill:#0e787a"/>
                <path data-name="Path 7471" d="M127.146 660.623 126 663.177l-1.861-1.677 1.313-3.721z" transform="translate(-113.607 -601.962)" style="fill:#f18c72"/>
                <path data-name="Path 7472" d="M141.477 625.574a1.27 1.27 0 0 0 .782-.072c1.132-1.282.743-5.057.743-5.057l-1.324-1.142-2.026.945-.528 2.075a3.318 3.318 0 0 0 .521 2.4 3.524 3.524 0 0 0 1.832.846" transform="translate(-127.277 -566.751)" style="fill:#f7a57a"/>
                <path data-name="Path 7473" d="M153.519 780.35a2.928 2.928 0 0 0 1.373.979c.915.314 7.73-1.116 7.73-1.116l1.369.143a3.477 3.477 0 0 0 2.168-.112l2-.775-11.757-.245-4.5-5.589z" transform="translate(-139.015 -707.986)" style="fill:#f7a57a"/>
                <path data-name="Path 7474" d="M78.692 701.628s-2.717 3.479-3.351 5.767-.863 8.594-.863 8.594h5.716s1.641-2.975 2.915-5.674a3.087 3.087 0 0 0 .035-2.565c-.933-2.114-2.334-5.021-2.334-5.021z" transform="translate(-68.158 -642.089)" style="fill:#ffc632"/>
                <path data-name="Path 7475" d="m141.649 1319.422.453 1.18a1.515 1.515 0 0 0 .617.784 5.941 5.941 0 0 0 1.561.709c-.909.776-2.355-.034-3.182-.608a2.023 2.023 0 0 1-.808-1.171l-.189-.894z" transform="translate(-128.212 -1207.459)" style="fill:#f7a57a"/>
                <path data-name="Path 7476" d="M135.7 1326.654a1.3 1.3 0 0 0-.5 1.1c.113.616.272 2.058.272 2.058h.632l-.019-1.345c0-.088 1.355 1.345 1.584 1.345h3.344s.222-.907-1.741-1.2a7.242 7.242 0 0 1-3.569-1.958" transform="translate(-123.713 -1214.077)" style="fill:#002f4c"/>
                <path data-name="Path 7477" d="m65.054 1319.422.453 1.18a1.516 1.516 0 0 0 .618.784 5.94 5.94 0 0 0 1.561.709c-.909.776-2.355-.034-3.182-.608a2.023 2.023 0 0 1-.808-1.171l-.189-.894z" transform="translate(-58.117 -1207.459)" style="fill:#f7a57a"/>
                <path data-name="Path 7478" d="M59.1 1326.654a1.3 1.3 0 0 0-.5 1.1c.113.616.272 2.058.272 2.058h.632l-.019-1.345c0-.088 1.355 1.345 1.584 1.345h3.344s.222-.907-1.741-1.2a7.242 7.242 0 0 1-3.569-1.958" transform="translate(-53.617 -1214.077)" style="fill:#002f4c"/>
                <path data-name="Path 7479" d="M97.73 870.964s2.836 4.252.409 21.2c.381 6.406 1.093 16.95 1.093 16.95h-1.61s-4.463-11.23-2.966-16.824c.356-5.541-1.017-21.427-1.017-21.427z" transform="translate(-85.693 -796.964)" style="fill:#0e787a"/>
                <path data-name="Path 7480" d="M42.458 870.864a8.443 8.443 0 0 0-2.969 5.935c0 2.782 1.341 8.544 2.11 12.316a8.75 8.75 0 0 1-.388 4.127c-1.57 5.471.338 15.873.338 15.873h1.6s.088-5.35 2.279-17.345c2.516-13.776 2.746-20.906 2.746-20.906z" transform="translate(-36.138 -796.964)" style="fill:#53b6b9"/>
                <path data-name="Path 7481" d="M246.56 753.69h-9.339V753h8.924l3.965-7.538.607.319z" transform="translate(-217.091 -682.206)" style="fill:#53b6b9"/>
                <path data-name="Path 7482" d="M93.638 753.552s2.982 6.943 4.416 6.943 9.37-3.394 9.37-3.394l-.211-1.185-8.1 1.373a35.542 35.542 0 0 1-1.216-4.109 2.261 2.261 0 0 0-1.748-1.745c-1.916-.362-2.507 2.118-2.507 2.118" transform="translate(-85.692 -687.637)" style="fill:#f7a57a"/>
                <path data-name="Path 7483" d="M57.593 603.128s.884.535 3.592-1.2c.415.108-.247-3.794-3.75-2.648-2.452.8-2.335 3.176-2.222 4.49.122 1.419-.616 2.355-1.592 3.393-.818.87-.805 2.471-1.351 3.332-.671 1.06-1.382 1-1.914 2.073a3.4 3.4 0 0 0 .113 3.511c.424.574 1.411 1.959 2.974 1.465.877-.277 1.114-1.808 1.152-3.1a3.907 3.907 0 0 1 1.49-2.931 5.546 5.546 0 0 0 2.01-2.55c.483-1.882-.5-5.834-.5-5.834" transform="translate(-45.688 -548.233)" style="fill:#122043"/>
                <path data-name="Path 7484" d="M134.806 647.055a.575.575 0 0 1 .74.2.5.5 0 0 1-.015.721.575.575 0 0 1-.74-.2.5.5 0 0 1 .015-.721" transform="translate(-123.219 -592.083)" style="fill:#f7a57a"/>
                <path data-name="Path 7485" d="M253.9 798.847a.389.389 0 0 0-.231-.4l-1.524-.662a1.67 1.67 0 0 0-1.191-.053l-1.511.5-.2.008-.163 1.406c.3-.111.479-.18.479-.18l.956-.348s2.085 1.768 2.831.163c.223 1.59.676 1.413.676 1.413z" transform="translate(-227.939 -729.959)" style="fill:#f7a57a"/>
                <path data-name="Path 7486" d="M123.9 598.542c.3 1.086 1.844 1.607 3.448 1.164a2.825 2.825 0 0 0 2.362-2.769c-.149-1.473-1.844-1.607-3.448-1.164s-2.662 1.683-2.362 2.769" transform="translate(-113.336 -545.013)" style="fill:#122043"/>
                <path data-name="Path 7487" d="M2622.561 1338.554s-.453.626-2.585 1.169c-.47.12-.976.2-.976.976h2.105l2.152-.372v.372h1.163s.324-1.9-.355-2.145z" transform="translate(-2396.758 -1224.967)" style="fill:#122043"/>
                <path data-name="Path 7488" d="m2659.661 1322.461.111 1.366a1.316 1.316 0 0 0 1.425.048l.08-.048v-1.366z" transform="translate(-2433.968 -1210.24)" style="fill:#f7a57a"/>
                <path data-name="Path 7489" d="M2749.811 1341.761s-.453.626-2.585 1.169c-.469.12-.976.2-.976.976h2.105l2.152-.372v.372h1.163s.323-1.9-.355-2.145z" transform="translate(-2513.209 -1227.902)" style="fill:#122043"/>
                <path data-name="Path 7490" d="m2786.911 1325.668.111 1.365a1.315 1.315 0 0 0 1.424.048l.08-.048v-1.365z" transform="translate(-2550.42 -1213.175)" style="fill:#f7a57a"/>
                <path data-name="Path 7491" d="m2649.55 895.267.524 34.3h2.5s3.8-27.7 2.992-34.3-6.015 0-6.015 0" transform="translate(-2424.715 -816.609)" style="fill:#122043"/>
                <path data-name="Path 7492" d="M2680.679 926.854s.87 10.538 2.868 16.371 5.607 17.94 5.607 17.94h2.587s-4.32-25.3-3.332-34.311z" transform="translate(-2453.202 -848.203)" style="fill:#002b49"/>
            </g>
        </g>
        <g data-name="Group 5582">
            <g data-name="Group 5581" style="clip-path:url(#n95b2by3sn)" transform="translate(217.356 61.19)">
                <path data-name="Rectangle 3742" transform="translate(-1.583)" style="fill:url(#ru4ezwpzdo)" d="M0 0h10.827v15.044H0z"/>
            </g>
        </g>
        <g data-name="Group 5584">
            <g data-name="Group 5583" style="clip-path:url(#94df6orbmc)">
                <path data-name="Path 7494" d="m2716.005 935.907-.933 2.308c-.449.907-2.1.93-3.2.642a.228.228 0 0 1-.108-.374 31.714 31.714 0 0 1 2.708-2.733z" transform="translate(-2481.596 -856.344)" style="fill:#f7a57a"/>
            </g>
        </g>
        <g data-name="Group 5586">
            <g data-name="Group 5585" style="clip-path:url(#hzobjt23zp)" transform="translate(224.991 59.678)">
                <path data-name="Rectangle 3744" style="fill:url(#4h1yjpe6bq)" d="M0 0h9.426v18.973H0z"/>
            </g>
        </g>
        <g data-name="Group 5588">
            <g data-name="Group 5587" style="clip-path:url(#94df6orbmc)">
                <path data-name="Path 7496" d="M2649.863 766.136v-14.91l-.312.01v14.9z" transform="translate(-2424.715 -687.479)" style="fill:#85c6ba"/>
                <path data-name="Path 7497" d="M2678.227 659.925v3.915a2.392 2.392 0 0 1-1.827.894c-1.176 0-1.176-.848-1.176-.848v-2.509l1.74-.453z" transform="translate(-2448.211 -603.925)" style="fill:#f18c72"/>
                <path data-name="Path 7498" d="M2659.413 617.023a1.457 1.457 0 0 1-.873-.227c-1.044-1.664.145-6.15.145-6.15l3.79.679.12 3.006a2.524 2.524 0 0 1-.947 2.074 4.051 4.051 0 0 1-2.236.618" transform="translate(-2432.55 -558.828)" style="fill:#f7a57a"/>
                <path data-name="Path 7499" d="M2652.676 600.952a8.11 8.11 0 0 1-2.581 0c-1.323-.235-.477-1.694-.477-1.694a5.205 5.205 0 0 0 2.72.19c1.175-.174 1.49-.4 2.243 0 1.023.546.776 2.4.776 2.4l-.564 3.913h-.211s-.052-2.327-.052-3.119c-.221-.361-.461-.361-.646-.27a.592.592 0 0 0-.314.538v4.063s-2.587 1.115-3.246.913-.219-3.213-.219-3.213a1.209 1.209 0 0 1 1.347.329c.583.653 1.29-.026 1.29-.026z" transform="translate(-2424.533 -548.376)" style="fill:#122043"/>
                <path data-name="Path 7500" d="m2586.828 700.872.09-.5a4.125 4.125 0 0 1 2.306-2.819h1.1l-.339 2.34-1.545.975z" transform="translate(-2367.316 -638.364)" style="fill:#f7a57a"/>
                <path data-name="Path 7501" d="M2699.813 635.038a.661.661 0 0 0-.624.622.569.569 0 0 0 .429.709.66.66 0 0 0 .623-.622.569.569 0 0 0-.429-.709" transform="translate(-2470.134 -581.149)" style="fill:#f7a57a"/>
                <path data-name="Path 7502" d="m2595.654 713.246-2.133 1.234s1.338-.013 1.36 0l2.258-1.889s-.164-.33-.676-.051a2.6 2.6 0 0 0-.809.706" transform="translate(-2373.441 -651.973)" style="fill:#f7a57a"/>
            </g>
        </g>
        <g data-name="Group 5590">
            <g data-name="Group 5589" style="clip-path:url(#fs55vtjbqr)" transform="translate(230.248 60.717)">
                <path data-name="Rectangle 3746" style="fill:url(#506u1qpd6s)" d="M0 0h8.495v19.27H0z"/>
            </g>
        </g>
        <g data-name="Group 5592">
            <g data-name="Group 5591" style="clip-path:url(#94df6orbmc)">
                <path data-name="Path 7504" d="M2716.121 763.678c0 1.772-1.569 8.252-1.937 9.762.108.029.153.037.317.079.453-1.865 1.933-8.1 1.933-9.842 0-2.112-3.858-5.076-4.022-5.2l-.19.249c.04.03 3.9 2.994 3.9 4.953" transform="translate(-2482.069 -694.114)" style="fill:#85c6ba"/>
                <path data-name="Path 7505" d="M2607.567 676.046a5.654 5.654 0 0 1-.976 4.135.616.616 0 0 1-.4.221 1.567 1.567 0 0 1-.737-.122.684.684 0 0 1-.446-.32.3.3 0 0 1 .031-.309 4.192 4.192 0 0 0 .771-3.2 2.316 2.316 0 0 1 1.756-.405" transform="translate(-2383.926 -618.648)" style="fill:#f4872e"/>
                <path data-name="Path 7506" d="M2605.258 680.773a.455.455 0 0 1-.25-.24.3.3 0 0 1 .031-.309 4.192 4.192 0 0 0 .771-3.2 1.954 1.954 0 0 1 .837-.385 6.381 6.381 0 0 1-1.389 4.134" transform="translate(-2383.926 -619.221)" style="fill:#fda630"/>
                <path data-name="Path 7507" d="M2615.213 691.739c-.067.328-.227.573-.356.546s-.179-.314-.112-.642.227-.573.356-.547.179.314.111.642" transform="translate(-2392.837 -632.45)" style="fill:#f4872e"/>
                <path data-name="Path 7508" d="m2618.1 690.884-.136-.032.01.068.09.036z" transform="translate(-2395.812 -632.228)" style="fill:#f4872e"/>
                <path data-name="Path 7509" d="m2614.975 704.5-.165-.032.187-.027z" transform="translate(-2392.923 -644.662)" style="fill:#de1d4c"/>
                <path data-name="Path 7510" d="M2613.916 691.472c-.067.328-.227.573-.355.546s-.179-.314-.111-.642.227-.573.355-.546.179.314.112.642" transform="translate(-2391.65 -632.206)" style="fill:#ffc630"/>
                <path data-name="Path 7511" d="M2642.261 653.627h.253a.86.86 0 0 1 .878.836v.664a.86.86 0 0 1-.878.836h-.253z" transform="translate(-2418.045 -598.162)" style="fill:#ffc630"/>
                <path data-name="Path 7512" d="M2551.256 625.975c0 1.813.417 3.283.931 3.283s.931-1.47.931-3.283-.417-3.283-.931-3.283-.931 1.47-.931 3.283" transform="translate(-2334.762 -569.852)" style="fill:#122043"/>
                <path data-name="Path 7513" d="m2565.746 647.123-.736.479v1.062l.759.688.262-1.381z" transform="translate(-2347.349 -592.209)" style="fill:#fff"/>
                <path data-name="Path 7514" d="M2565.7 627.154a5.334 5.334 0 0 0-.694-3.171 15 15 0 0 0 6.7 2.539v2.318s-4.889-.275-6.7 1.491a5.327 5.327 0 0 0 .695-3.172" transform="translate(-2347.349 -571.03)" style="fill:#f99200"/>
                <path data-name="Path 7515" d="M2563.826 653.243c0 .295.045.533.1.533s.1-.239.1-.533-.045-.533-.1-.533-.1.239-.1.533" transform="translate(-2346.265 -597.322)" style="fill:#ffc630"/>
                <path data-name="Path 7516" d="M2600.8 699.691a2.513 2.513 0 0 0 1.191.194c.62 0 .9-.762 1.006-1.177.037-.146.07-.353-.112-.446l-1-.138z" transform="translate(-2380.101 -638.882)" style="fill:#f7a57a"/>
            </g>
        </g>
    </g>
</svg>
