<svg xmlns="http://www.w3.org/2000/svg" width="206.245" height="122.032" viewBox="0 0 206.245 122.032">
    <defs>
        <clipPath id="jx68o0rcta">
            <path data-name="Rectangle 3386" style="fill:none" d="M0 0h206.245v122.032H0z"/>
        </clipPath>
    </defs>
    <g data-name="Group 4945">
        <g data-name="Group 4920" style="clip-path:url(#jx68o0rcta)">
            <path data-name="Path 5435" d="M242.117 197.64h-56.684l.069-.113a15.645 15.645 0 0 1 5.03-5.236 14.788 14.788 0 0 1 5.324-2.031 16.308 16.308 0 0 1 5.89.024 14 14 0 0 1 2.98-2.575 15.923 15.923 0 0 1 8.774-2.609c3.98 0 7.387 2.467 9.544 4.536a26.589 26.589 0 0 1 3.722 4.466 13.408 13.408 0 0 1 6.8-1.756 9.482 9.482 0 0 1 6.279 2.59 12.452 12.452 0 0 1 2.2 2.589l.066.113m-56.411-.148h56.153a12.663 12.663 0 0 0-2.109-2.444 9.335 9.335 0 0 0-6.176-2.549 13.072 13.072 0 0 0-6.782 1.771l-.064.044-.041-.066a26.117 26.117 0 0 0-3.741-4.5c-2.137-2.049-5.509-4.492-9.438-4.492a15.774 15.774 0 0 0-8.688 2.58 13.563 13.563 0 0 0-2.979 2.582l-.03.038-.047-.011a15.99 15.99 0 0 0-5.881-.032 14.736 14.736 0 0 0-10.177 7.079" transform="translate(-171.577 -171.271)" style="fill:#5963d9"/>
            <path data-name="Path 5436" d="M1429.849 6.706H1400l.021-.091a4.972 4.972 0 0 1 2.164-3.351 5.241 5.241 0 0 1 3.641-.51A8.727 8.727 0 0 1 1412.64 0a6.432 6.432 0 0 1 5.271 2.547 8.034 8.034 0 0 1 1.276 2.428 7.818 7.818 0 0 1 4.883-1.848c3.725 0 5.7 3.429 5.717 3.464zm-29.658-.149h29.4a6.914 6.914 0 0 0-5.518-3.276 7.642 7.642 0 0 0-4.87 1.887l-.092.089-.032-.124a7.709 7.709 0 0 0-1.287-2.495 6.286 6.286 0 0 0-5.152-2.485c-4.644 0-6.7 2.7-6.722 2.729l-.03.041-.049-.013a5.109 5.109 0 0 0-3.574.482 4.786 4.786 0 0 0-2.073 3.164" transform="translate(-1295.393 -.004)" style="fill:#5963d9"/>
            <path data-name="Path 5437" d="M2203.739 608.813h-40.383l.043-.1a6.155 6.155 0 0 1 4.562-3.217c3.1-.579 4.6-.129 4.907-.017a9.7 9.7 0 0 1 2.139-2.039 11.465 11.465 0 0 1 6.717-2.083 10.693 10.693 0 0 1 6.743 2.361 10.567 10.567 0 0 1 2.156 2.3 13.975 13.975 0 0 1 6.5-1.4c4.179 0 6.525 4.043 6.549 4.084zm-40.153-.149h39.891c-.41-.649-2.649-3.9-6.35-3.9a13.484 13.484 0 0 0-6.491 1.415l-.064.039-.039-.064a10.15 10.15 0 0 0-2.166-2.329 10.546 10.546 0 0 0-6.645-2.325 11.318 11.318 0 0 0-6.63 2.055 9.274 9.274 0 0 0-2.137 2.05l-.035.051-.057-.025c-.015-.006-1.5-.626-4.876 0a6.09 6.09 0 0 0-4.4 3.025" transform="translate(-2001.706 -556.418)" style="fill:#5963d9"/>
            <path data-name="Path 5438" d="M39 1293.556a17.958 17.958 0 0 1-6.767 2.12c-6.321.432-8.7-.057-11.258-3.951q-.286-.436-.544-.833c-2.136-3.281-3.021-4.638-6.348-4.621-.569 0-1.266.051-2 .1-4.067.283-10.214.711-11.879-4.938a4.2 4.2 0 0 1 .726-3.914c2.861-3.763 11.829-5.392 16.99-5.309a56.08 56.08 0 0 1 13.217 1.925 38.374 38.374 0 0 1 15.081 7.518 3.755 3.755 0 0 1 1.464 2.907c0 2.594-2.79 5.021-2.837 5.061a31.834 31.834 0 0 1-3.958 2.865c-.561.346-1.2.712-1.885 1.068m-34.9-18.32a8.972 8.972 0 0 0-3.057 2.376 4.061 4.061 0 0 0-.7 3.782c1.632 5.534 7.706 5.111 11.726 4.831.741-.052 1.44-.1 2.014-.1 3.409-.018 4.306 1.36 6.474 4.688q.259.4.544.833c2.519 3.831 4.869 4.311 11.123 3.884 6.128-.418 12.457-5.96 12.521-6.016.028-.024 2.785-2.414 2.785-4.948a3.612 3.612 0 0 0-1.412-2.793c-10.147-8.685-25.274-9.36-28.2-9.408-3.864-.062-9.872.837-13.811 2.875" transform="translate(0 -1177.147)" style="fill:#6cbd7c"/>
            <path data-name="Path 5439" d="M77.089 1333.8q-1.177-1.089-2.43-2.087l-.116-.092a47.388 47.388 0 0 0-7.627-4.916 59.785 59.785 0 0 0-21.643-6.175 85.741 85.741 0 0 0-14.75-.112c-.092.005-.181.012-.272.019.073-.057.149-.112.225-.167l.286-.021q1.962-.14 3.931-.2a71.254 71.254 0 0 1 23.3 2.856 51.206 51.206 0 0 1 16.626 8.59l.116.093q1.267 1.008 2.46 2.11c.071.065-.04.166-.11.1" transform="translate(-27.991 -1221.376)" style="fill:#6cbd7c"/>
            <path data-name="Path 5440" d="M101.9 882.791a67.561 67.561 0 0 0-11.646-15.285c-6.922-6.479-13.2-9.95-17.682-9.772a5.748 5.748 0 0 0-4.189 1.832 4.991 4.991 0 0 0-.877 4.2 24.194 24.194 0 0 0 3.75 8.876c1.875 2.924 4.059 5.365 5.7 6.37a15.337 15.337 0 0 0 5.694 1.853c2.347.419 4.564.816 6.332 2.946a40.483 40.483 0 0 1 2.589 3.563 23.22 23.22 0 0 0 2.614 3.436c.067.07.137.139.206.207l.314.092q-.114-.106-.224-.213a21.833 21.833 0 0 1-2.786-3.605 41.2 41.2 0 0 0-2.6-3.576c-1.8-2.172-4.046-2.572-6.42-3a15.238 15.238 0 0 1-5.642-1.834c-1.619-.994-3.784-3.417-5.649-6.324a24.051 24.051 0 0 1-3.728-8.815 4.854 4.854 0 0 1 .84-4.082 5.236 5.236 0 0 1 1.474-1.135 6.144 6.144 0 0 1 2.61-.649c4.44-.175 10.681 3.281 17.573 9.732a67.4 67.4 0 0 1 11.618 15.247 80.255 80.255 0 0 1 4.174 8.279c.322 1.737.082 2.91-.714 3.484a2.3 2.3 0 0 1-1.037.39 3.69 3.69 0 0 1-.243.026l.211.125a2.64 2.64 0 0 0 .225-.036 2.494 2.494 0 0 0 .679-.228 1.942 1.942 0 0 0 .253-.155c.848-.612 1.108-1.837.772-3.64v-.015a80.256 80.256 0 0 0-4.184-8.3" transform="translate(-62.378 -793.637)" style="fill:#6cbd7c"/>
            <path data-name="Path 5441" d="M114.337 919.358c.041.086-.091.155-.133.069a64.823 64.823 0 0 0-6.8-11.2 68.252 68.252 0 0 0-16.84-15.787 66.866 66.866 0 0 0-13.731-6.955c-.047-.019-.1-.036-.145-.054.03-.044.061-.087.093-.128l.147.054q2.445.9 4.813 2a68.418 68.418 0 0 1 19.048 13.14 66.222 66.222 0 0 1 13.547 18.861" transform="translate(-70.959 -819.156)" style="fill:#6cbd7c"/>
            <path data-name="Path 5442" d="M1465.4 296.9c-1.594-.964-1.77-3.247-1.711-4.917a11.564 11.564 0 0 1 .307-2.357 14.069 14.069 0 0 1 1.531-3.546 32.849 32.849 0 0 1 11.628-11.741c2.375-1.408 5.2-2.7 8.03-2.473a4.71 4.71 0 0 1 3.44 1.5 4.541 4.541 0 0 1 .65 2.944 7.185 7.185 0 0 1-1.4 3.5 58.435 58.435 0 0 1-2.383 3.339 42.257 42.257 0 0 1-5.321 5.565c-3.767 3.372-7.951 6.615-12.959 7.827a18.422 18.422 0 0 1-1.872.349c-.095.013-.055.157.04.144 5.376-.725 9.927-3.884 13.928-7.36a46.545 46.545 0 0 0 5.715-5.695 50.731 50.731 0 0 0 2.459-3.32 10.1 10.1 0 0 0 1.8-3.438 5.676 5.676 0 0 0-.136-3.159 3.22 3.22 0 0 0-2.03-1.915c-2.638-1.041-5.615-.156-8.058 1a30.086 30.086 0 0 0-7.148 4.9 32.6 32.6 0 0 0-5.625 6.494 15.234 15.234 0 0 0-2.669 6.378c-.2 1.725-.21 3.89.874 5.353a2.885 2.885 0 0 0 .83.758.075.075 0 0 0 .075-.129" transform="translate(-1354.163 -251.386)" style="fill:#6cbd7c"/>
            <path data-name="Path 5443" d="m1461.791 272.063-.2.136a54.646 54.646 0 0 0-6.777 5.616 57.136 57.136 0 0 0-11.251 15.466q-.957 1.927-1.767 3.921l-.025.064-.036.09a54.917 54.917 0 0 0-3.639 14.329c-.01.095-.16.1-.149 0a54.6 54.6 0 0 1 2.29-10.63q.611-1.9 1.357-3.751c.019-.047.037-.094.057-.14a57.472 57.472 0 0 1 7.519-13.191 55.8 55.8 0 0 1 12.192-11.8c.067-.049.134-.1.2-.142.076.007.151.014.226.023" transform="translate(-1330.502 -251.713)" style="fill:#6cbd7c"/>
            <path data-name="Path 5444" d="m1385.573 587.46-.159.062a55.31 55.31 0 0 0-12.769 7.094l-.139.1q-1.4 1.044-2.733 2.174a57.361 57.361 0 0 0-11.356 13.027l.075.162a56.542 56.542 0 0 1 3.812-5.327 57.36 57.36 0 0 1 10.233-9.874.084.084 0 0 1 .017-.013c.019-.015.037-.029.055-.041s.039-.031.058-.044q1.928-1.437 3.974-2.7a54.424 54.424 0 0 1 8.871-4.436l.156-.061a1.017 1.017 0 0 0-.094-.123" transform="translate(-1256.912 -543.564)" style="fill:#6cbd7c"/>
            <path data-name="Path 5445" d="M1547 587.925c-.243-.871.485-1.8 1.054-2.385a20.381 20.381 0 0 1 2.663-2.293 23.608 23.608 0 0 1 2.882-1.779 12.08 12.08 0 0 1 3.3-1.254c.85-.162 2.4-.362 2.951.523.427.684-.33 1.741-.709 2.3a12.317 12.317 0 0 1-4.984 3.817 16.555 16.555 0 0 1-3.59 1.234 5.449 5.449 0 0 1-3.6-.2c-.085-.044-.161.085-.075.129a5.025 5.025 0 0 0 3.042.338 14.939 14.939 0 0 0 3.606-1.061 16.555 16.555 0 0 0 3.351-1.867 9.985 9.985 0 0 0 2.28-2.165 3.717 3.717 0 0 0 .949-2.223c-.1-.884-1.253-1.087-1.963-1.089a8.508 8.508 0 0 0-3.326.771 21.565 21.565 0 0 0-3.556 1.962 20.962 20.962 0 0 0-3.281 2.713c-.624.637-1.4 1.621-1.138 2.576a.075.075 0 0 0 .144-.04" transform="translate(-1431.219 -536.609)" style="fill:#6cbd7c"/>
            <path data-name="Path 5446" d="M2556.378 86.278V87.9a.075.075 0 0 0 .149 0v-1.622a.075.075 0 0 0-.149 0" transform="translate(-2365.361 -79.765)" style="fill:#242136"/>
            <path data-name="Path 5447" d="m2573.386 94.424-.686 1.476a.075.075 0 0 0 .135.063l.685-1.473a.075.075 0 0 0-.136-.063" transform="translate(-2380.457 -87.33)" style="fill:#242136"/>
            <path data-name="Path 5448" d="m2531.026 94.424.685 1.473a.075.075 0 0 1-.135.063l-.685-1.473a.075.075 0 0 1 .136-.063" transform="translate(-2341.771 -87.33)" style="fill:#242136"/>
            <path data-name="Path 5449" d="M2556.378 150v-1.62a.075.075 0 0 1 .149 0V150a.075.075 0 0 1-.149 0" transform="translate(-2365.361 -137.227)" style="fill:#242136"/>
            <path data-name="Path 5450" d="m2573.386 143.7-.685-1.473a.075.075 0 0 1 .135-.063l.685 1.473a.075.075 0 0 1-.136.063" transform="translate(-2380.457 -131.506)" style="fill:#242136"/>
            <path data-name="Path 5451" d="m2531.026 143.7.685-1.473a.075.075 0 0 0-.135-.063l-.685 1.473a.075.075 0 0 0 .136.063" transform="translate(-2341.771 -131.506)" style="fill:#242136"/>
            <path data-name="Path 5452" d="m1474.267 756.877-27.555 54.465h-16.755l30.4-58.561z" transform="translate(-1323.108 -696.535)" style="fill:#d16f4b"/>
            <path data-name="Path 5453" d="M1399.5 1538.2s.595.721.918 1.151 1.261 1.63-.517 3.868h-19.863l3.73-6.759h16.755z" transform="translate(-1276.92 -1421.652)" style="fill:#242136"/>
            <path data-name="Path 5454" d="M1409.129 1608.53c-.019.049-.041.1-.064.15h-19.955l.082-.15z" transform="translate(-1285.313 -1488.338)" style="fill:#776eab"/>
            <path data-name="Path 5455" d="M1612.823 1562.229c-.788.183-1.575.37-2.364.552l-.045.01a.075.075 0 0 1-.058-.136.051.051 0 0 1 .019-.007l2.343-.548.1.129" transform="translate(-1489.995 -1445.377)" style="fill:#776eab"/>
            <path data-name="Path 5456" d="M1622.191 1573.18c-.747.175-1.492.351-2.239.524l-.114.027c-.094.022-.134-.122-.04-.143h.015q1.14-.265 2.278-.534l.1.13" transform="translate(-1498.714 -1455.509)" style="fill:#776eab"/>
            <path data-name="Path 5457" d="M1590.985 1505.9s2.366-3.037 5.954-2.378l-1.231 2.375z" transform="translate(-1472.103 -1391.088)" style="fill:#242136"/>
            <path data-name="Path 5458" d="M1430.786 1515.125a5.347 5.347 0 0 1 3.379 1.753l-4.208-.155z" transform="translate(-1323.108 -1401.912)" style="fill:#242136"/>
            <path data-name="Path 5459" d="M1594.071 1540.573a3.1 3.1 0 0 1-2.925-.594 9.968 9.968 0 0 1-2.379-3.469h.164a11.5 11.5 0 0 0 1.482 2.468c.034.042.068.084.1.126q.177.212.368.412a4.287 4.287 0 0 0 .406.379 2.721 2.721 0 0 0 1.667.66 3.177 3.177 0 0 0 1.089-.135c.01.049.019.1.025.154" transform="translate(-1470.051 -1421.699)" style="fill:#776eab"/>
            <path data-name="Path 5460" d="m1595.785 1534.51-.076.146h-4.723s.049-.055.143-.149z" transform="translate(-1472.105 -1419.849)" style="fill:#776eab"/>
            <path data-name="Path 5461" d="M2005.943 825.106s7.128 8.094 8.047 9.657 3.494 6.943.643 11.634-20.241 31.866-20.241 31.866h-16.784l23.119-35.959-9.211-10.7z" transform="translate(-1829.838 -763.453)" style="fill:#d16f4b"/>
            <path data-name="Path 5462" d="M2195.627 109.047c0 .894-.443 1.619-.989 1.619s-.988-.725-.988-1.619.442-1.619.988-1.619.989.725.989 1.619" transform="translate(-2029.736 -99.401)" style="fill:#5963d9"/>
            <path data-name="Path 5463" d="M2206.88 77.04v3.238l33.879 2.454v-8.146z" transform="translate(-2041.977 -69.013)" style="fill:#5963d9"/>
            <path data-name="Path 5464" d="M2319.741 136.716s-.956 2.03-2.369 4.7a65.875 65.875 0 0 1-6.276 10.044c-3.954 4.782-7.187 7.853-11.266 8.185-3.954.322-6.07-1.15-8.874-4.046l4.368-9.7a4.251 4.251 0 0 0 3.587 1.563c2.161-.276 7.656-4.368 9.855-7.434a20.549 20.549 0 0 0 2.468-6.2c.323-1.218 1.455-1.3 1.954-.3a5.543 5.543 0 0 1 .036 2.72z" transform="translate(-2119.771 -122.911)" style="fill:#d16f4b"/>
            <path data-name="Path 5465" d="M2593.776 181.6c.016.094-.128.135-.144.04a10.9 10.9 0 0 0-.924-2.925l.171.013a11 11 0 0 1 .9 2.873" transform="translate(-2398.976 -165.357)" style="fill:#242136"/>
            <path data-name="Path 5466" d="M1930.615 197.323s-3.337-2.743-4.41-3.533a8.61 8.61 0 0 0-6.008-1.4c-3.066.245-8.951.705-13.979 3.954s-4.353 9.135-4.353 10.545 2.667 12.139 2.667 12.139h16.329z" transform="translate(-1759.725 -177.973)" style="fill:#f5b45b"/>
            <path data-name="Path 5467" d="M2026.794 297.9a2.8 2.8 0 1 0 .618 5.524 2.717 2.717 0 0 0 .292-.084l.271-.276a2.648 2.648 0 0 1-.354.146 2.616 2.616 0 0 1-.828.133 2.656 2.656 0 1 1 2.394-1.52l.269-.277a2.51 2.51 0 0 0 .077-.292 2.8 2.8 0 0 0-2.74-3.354" transform="translate(-1872.761 -275.641)" style="fill:#ffe0d1"/>
            <path data-name="Path 5468" d="M1992.572 479.21a4.286 4.286 0 0 0-4.176 5.247h.154a4.093 4.093 0 0 1-.114-.962 4.135 4.135 0 0 1 8.27 0 4.08 4.08 0 0 1-.114.962h.154a4.286 4.286 0 0 0-4.175-5.247" transform="translate(-1839.719 -443.403)" style="fill:#ffe0d1"/>
            <path data-name="Path 5469" d="m2121.8 192.935-.168-.028a9.696 9.696 0 0 0-.751-.087 4.135 4.135 0 1 1-3.918 6.7c-.043-.052-.084-.1-.125-.158h-.01a2.372 2.372 0 0 1-.191-.025c.04.058.081.114.123.168a4.283 4.283 0 1 0 5.041-6.565" transform="translate(-1958.479 -178.412)" style="fill:#ffe0d1"/>
            <path data-name="Path 5470" d="M2221.877 287.067a2.8 2.8 0 1 1 2.8-2.8 2.8 2.8 0 0 1-2.8 2.8m0-5.443a2.647 2.647 0 1 0 2.647 2.647 2.65 2.65 0 0 0-2.647-2.647" transform="translate(-2053.267 -260.443)" style="fill:#ffe0d1"/>
            <path data-name="Path 5471" d="M2110.681 376.727a4.285 4.285 0 1 1 4.285-4.285 4.29 4.29 0 0 1-4.285 4.285m0-8.42a4.135 4.135 0 1 0 4.135 4.135 4.14 4.14 0 0 0-4.135-4.135" transform="translate(-1949.002 -340.648)" style="fill:#ffe0d1"/>
            <path data-name="Path 5472" d="M2206.968 304.23a37.18 37.18 0 0 1-.9 7.7c-.021.094.123.134.144.04a37.345 37.345 0 0 0 .907-7.741.075.075 0 0 0-.149 0" transform="translate(-2041.222 -281.431)" style="fill:#242136"/>
            <path data-name="Path 5473" d="m2101.669 313.17 3.666 4.006c.065.071.17-.035.106-.106l-3.666-4.006c-.065-.071-.17.035-.106.106" transform="translate(-1944.61 -289.65)" style="fill:#242136"/>
            <path data-name="Path 5474" d="m2015.079 443.688 2.8-2.857c.067-.069-.038-.175-.106-.106l-2.8 2.857c-.067.069.038.174.106.106" transform="translate(-1864.391 -407.773)" style="fill:#242136"/>
            <path data-name="Path 5475" d="M1760.942 549.428s-6.306 8.245-14.293 27.584l18.813 1.17 3.527-8.657 7.754 7.487 15.5-6.985-15.573-18.039.878-2.56z" transform="translate(-1616.136 -508.374)" style="fill:#dee6ff"/>
            <path data-name="Path 5476" d="M1961.42 589.858c1.66.6 2.778-1.2 3.4-2.437a42.208 42.208 0 0 0 2.139-5.409c.031-.091-.113-.13-.144-.04a49.91 49.91 0 0 1-1.88 4.87c-.594 1.28-1.7 3.511-3.476 2.871-.091-.032-.13.112-.04.144" transform="translate(-1814.812 -538.44)" style="fill:#242136"/>
            <path data-name="Path 5477" d="m1901.876 581.726-6.8 15.989-1.547 3.637c-.037.089.1.137.141.049l6.8-15.989 1.546-3.637c.038-.089-.1-.137-.141-.049" transform="translate(-1752.036 -538.216)" style="fill:#242136"/>
            <path data-name="Path 5478" d="m2051.333 647.6-.748 1.707-3.235 7.388-1.608 3.672-.114-.11.3-.686 3.236-7.388 2.04-4.658c.039-.088.167-.012.13.075" transform="translate(-1892.775 -599.1)" style="fill:#242136"/>
            <path data-name="Path 5479" d="M2046.844 194.666a7.991 7.991 0 0 1-.833 3.111 2.372 2.372 0 0 1-2.594 1.267 6.928 6.928 0 0 1-3.394-2.261 21.731 21.731 0 0 1-2.475-3.028l.151-.045a21.135 21.135 0 0 0 2.606 3.144 6.057 6.057 0 0 0 3.344 2.071 2.2 2.2 0 0 0 1.757-.554 3.75 3.75 0 0 0 .768-1.306 10.238 10.238 0 0 0 .539-4.712h.137a12.2 12.2 0 0 1-.006 2.313" transform="translate(-1885.299 -177.98)" style="fill:#242136"/>
            <path data-name="Path 5480" d="m2045.062 104.149 4.486 4.782s4.445-8.6 5.135-13.473.809-5.952.809-5.952l1.542.112s2.84-3.995 4.622-5.1a1.706 1.706 0 0 1 2.315.429s1.435-1.1 2.529-.724c.969.33.628 1.23.368 1.613s-1.548 1.717-1.548 1.717 3.188-.245 3.878.828a1.457 1.457 0 0 1-1.563 2.161s.383 2.023-.276 3.035a1.394 1.394 0 0 1-2.59-.153l-1.441 1.272a44.686 44.686 0 0 1-2.652 17.5c-3.356 8.737-6.438 9.426-10.162 8.967s-9.045-4.736-13.007-9.2z" transform="translate(-1885.261 -77.855)" style="fill:#d16f4b"/>
            <path data-name="Path 5481" d="M2631.149 73.3c0 2.489-1.232 4.506-2.752 4.506s-2.751-2.017-2.751-4.506 1.232-4.506 2.751-4.506 2.752 2.017 2.752 4.506" transform="translate(-2429.453 -63.649)" style="fill:#5963d9"/>
            <path data-name="Path 5482" d="M2662.47 65.412v9.012l3.055.273v-9.558z" transform="translate(-2463.526 -60.272)" style="fill:#5963d9"/>
            <path data-name="Path 5483" d="M2672.13 69.84c0 2.643-1.308 4.785-2.922 4.785s-2.922-2.142-2.922-4.785 1.308-4.785 2.922-4.785 2.922 2.142 2.922 4.785" transform="translate(-2467.056 -60.194)" style="fill:#d16f4b"/>
            <path data-name="Path 5484" d="M2704.39 86.278V87.9a.075.075 0 0 0 .149 0v-1.622a.075.075 0 0 0-.149 0" transform="translate(-2502.313 -79.765)" style="fill:#242136"/>
            <path data-name="Path 5485" d="m2721.4 94.424-.685 1.473a.075.075 0 0 0 .135.063l.685-1.473a.075.075 0 0 0-.136-.063" transform="translate(-2517.41 -87.33)" style="fill:#242136"/>
            <path data-name="Path 5486" d="m2679.039 94.424.685 1.473a.075.075 0 0 1-.136.063l-.685-1.473a.075.075 0 0 1 .135-.063" transform="translate(-2478.724 -87.33)" style="fill:#242136"/>
            <path data-name="Path 5487" d="M2704.39 150v-1.62a.075.075 0 0 1 .149 0V150a.075.075 0 0 1-.149 0" transform="translate(-2502.313 -137.227)" style="fill:#242136"/>
            <path data-name="Path 5488" d="m2721.4 143.7-.685-1.473a.075.075 0 0 1 .135-.063l.685 1.473a.075.075 0 0 1-.136.063" transform="translate(-2517.41 -131.506)" style="fill:#242136"/>
            <path data-name="Path 5489" d="m2679.039 143.7.685-1.473a.075.075 0 0 0-.136-.063l-.685 1.473a.075.075 0 0 0 .135.063" transform="translate(-2478.724 -131.506)" style="fill:#242136"/>
            <path data-name="Path 5490" d="M2669.209 65.2c1.529 0 2.773 2.08 2.773 4.636s-1.244 4.636-2.773 4.636-2.772-2.08-2.772-4.636 1.243-4.636 2.772-4.636m0-.149c-1.614 0-2.922 2.142-2.922 4.785s1.308 4.785 2.922 4.785 2.922-2.142 2.922-4.785-1.308-4.785-2.922-4.785" transform="translate(-2467.057 -60.194)" style="fill:#242136"/>
            <path data-name="Path 5491" d="M2623.8 79.662a5.356 5.356 0 0 1 1.475-3.992l-.241.017a3.727 3.727 0 0 0-.555.711 6.851 6.851 0 0 0 0 6.528 3.677 3.677 0 0 0 .555.711l.242.017a5.356 5.356 0 0 1-1.475-3.992" transform="translate(-2427.604 -70.016)" style="fill:#242136"/>
            <path data-name="Path 5492" d="M2673.832 101.6a2.841 2.841 0 0 1-5.545 0 2.841 2.841 0 0 1 5.545 0" transform="translate(-2468.907 -91.951)" style="fill:#fff"/>
            <path data-name="Path 5493" d="M2687.173 101.6c0 1.226-.717 2.221-1.6 2.221s-1.6-.994-1.6-2.221.717-2.221 1.6-2.221 1.6.994 1.6 2.221" transform="translate(-2483.42 -91.951)" style="fill:#242136"/>
            <path data-name="Path 5494" d="m2053.1 154.026-.886 3.291s2.749 3.878 5.409 3.878c1.991 0 1.717-4.935 1.717-4.935l-4.878-2.96z" transform="translate(-1898.869 -141.844)" style="fill:#d16f4b"/>
            <path data-name="Path 5495" d="M2068.006 53.114c-.231 1.763-1.063 3.09-3.44 2.886-1.926-.166-3.676-1.914-4.152-2.431-.084-.09-.129-.143-.129-.143s-.867-3.93-.466-6.106a.048.048 0 0 1 0-.013 3.112 3.112 0 0 1 .206-.7v-.01a1.683 1.683 0 0 1 .146-.261 4.208 4.208 0 0 1 7.308 1.793 8.976 8.976 0 0 1 .214 1.386 10.041 10.041 0 0 1 .305 3.6" transform="translate(-1905.808 -41.5)" style="fill:#d16f4b"/>
            <path data-name="Path 5496" d="M2007.428 39.213a2.527 2.527 0 0 0-2.7-1.655 2.231 2.231 0 0 0-1.966 2.311 2.25 2.25 0 0 0-1.173 2.678c.322 1.736 2.494 1.816 2.494 1.816a1.424 1.424 0 0 0 .908 1.752c1.264.386 2.184-1 2.184-1z" transform="translate(-1851.969 -34.728)" style="fill:#242136"/>
            <path data-name="Path 5497" d="M2119.667 107.458a2.427 2.427 0 0 1 .558-.025c.152 0 .2-.319-.021-.423a1.362 1.362 0 0 0-.828-.036c-.212.054-.51.278-.5.469s.207.209.364.155a3.02 3.02 0 0 1 .423-.139" transform="translate(-1960.552 -98.937)" style="fill:#242136"/>
            <path data-name="Path 5498" d="M2156.942 115.763c.044.242.185.392.318.367s.21-.214.165-.456-.184-.385-.318-.36-.21.207-.165.449" transform="translate(-1995.759 -106.696)" style="fill:#242136"/>
            <path data-name="Path 5499" d="M2150.315 100.776a.5.5 0 0 1-.138.021 2.966 2.966 0 0 0-.445.009 2.424 2.424 0 0 0-.534.161c-.145.05-.292-.235-.122-.406a1.365 1.365 0 0 1 .77-.309.886.886 0 0 1 .423.084c.018.145.034.292.046.439" transform="translate(-1988.422 -92.76)" style="fill:#242136"/>
            <path data-name="Path 5500" d="M2123.768 121.369a1.22 1.22 0 0 0 1.132-.124c.08-.053 0-.183-.075-.129a1.078 1.078 0 0 1-1.017.109c-.09-.035-.129.109-.04.144" transform="translate(-1965.03 -112.054)" style="fill:#242136"/>
            <path data-name="Path 5501" d="M2147.689 112.212a4.412 4.412 0 0 0 .653 1.848c.051.081.181.006.129-.075a4.244 4.244 0 0 1-.633-1.773c-.011-.094-.161-.1-.149 0" transform="translate(-1987.209 -103.762)" style="fill:#242136"/>
            <path data-name="Path 5502" d="M2145.763 136.935a.743.743 0 0 0 .882-.465.075.075 0 0 0-.144-.04c-.084.335-.444.389-.738.355-.1-.011-.095.138 0 .149" transform="translate(-1985.361 -126.187)" style="fill:#242136"/>
            <path data-name="Path 5503" d="M2131.882 151.092a1.517 1.517 0 0 0 1.355.371c.094-.02.054-.164-.04-.144a1.357 1.357 0 0 1-1.209-.333c-.071-.065-.177.041-.106.106" transform="translate(-1972.562 -139.686)" style="fill:#242136"/>
            <path data-name="Path 5504" d="M2066.477 48.13a4.74 4.74 0 0 1-2.725-.333s-.445 1.579-3 2.314l.322 2.374a3.086 3.086 0 0 1-1.665 1.084 3.579 3.579 0 0 1-.375.114 20.547 20.547 0 0 1-.219-6.363.048.048 0 0 1 0-.013 4.046 4.046 0 0 1 .151-.543 2.487 2.487 0 0 1 .206-.426 4.208 4.208 0 0 1 7.308 1.793" transform="translate(-1904.798 -41.5)" style="fill:#242136"/>
            <path data-name="Path 5505" d="m2061.476 117.766-.012.008a6.213 6.213 0 0 1-2.088.6c0-.049-.008-.1-.011-.149a6.02 6.02 0 0 0 2.023-.577.074.074 0 0 1 .072 0 .071.071 0 0 1 .016.119" transform="translate(-1905.485 -108.847)" style="fill:#776eab"/>
            <path data-name="Path 5506" d="M2119.536 187.156v.155a2.683 2.683 0 0 1-2.241-.316c-.078-.055 0-.185.075-.129a2.561 2.561 0 0 0 2.168.29" transform="translate(-1959.053 -172.891)" style="fill:#242136"/>
            <path data-name="Path 5507" d="M2101.349 47.977a1.477 1.477 0 0 1-.055.138 3.209 3.209 0 0 1-1.555-1.51 4.577 4.577 0 0 1-.481-1.555h.015l.133-.012a4.4 4.4 0 0 0 .463 1.493 3.052 3.052 0 0 0 1.48 1.447" transform="translate(-1942.397 -41.672)" style="fill:#776eab"/>
            <path data-name="Path 5508" d="M2076.1 116.094a1.221 1.221 0 0 0 .874 1.489 1.252 1.252 0 0 0 .23.037 5.35 5.35 0 0 0-.322-2.374 1.22 1.22 0 0 0-.782.848" transform="translate(-1920.929 -106.636)" style="fill:#d16f4b"/>
            <path data-name="Path 5509" d="M2073.386 144.782a1.364 1.364 0 1 0 1.364 1.364 1.364 1.364 0 0 0-1.364-1.364m0 1.55a.693.693 0 1 1 .694-.693.694.694 0 0 1-.694.693" transform="translate(-1917.197 -133.964)" style="fill:#ffe0d1"/>
            <path data-name="Path 5510" d="M2082.555 120.834a1.078 1.078 0 0 0 .337 1.659c.082.051.157-.078.076-.129a.926.926 0 0 1-.307-1.425c.062-.073-.043-.179-.106-.106" transform="translate(-1926.7 -111.782)" style="fill:#242136"/>
            <path data-name="Path 5511" d="M2083.8 128.8a.61.61 0 0 0-.632-.153c-.091.03-.052.175.04.144a.461.461 0 0 1 .487.115c.067.069.173-.037.105-.106" transform="translate(-1927.458 -119.007)" style="fill:#242136"/>
            <path data-name="Path 5512" d="m1967.443 402.842 3.549 5.7c.051.082.18.007.129-.075l-3.549-5.7c-.051-.081-.18-.007-.129.075" transform="translate(-1820.421 -372.639)" style="fill:#242136"/>
            <path data-name="Path 5513" d="M1994.788 335.312q4.52-4.371 8.873-8.909c.067-.069-.039-.175-.106-.106q-4.353 4.538-8.874 8.909c-.069.067.036.173.106.106" transform="translate(-1845.615 -301.895)" style="fill:#242136"/>
            <path data-name="Path 5514" d="m1932.119 581.68-.052.149H1914.6l.1-.149z" transform="translate(-1771.535 -538.216)" style="fill:#242136"/>
            <path data-name="Path 5515" d="m1780.968 880.953-.065.16-18.775-1.175.063-.148z" transform="translate(-1630.458 -814.051)" style="fill:#242136"/>
            <path data-name="Path 5516" d="m2136.571 793.918-.257.116q-7.709 3.488-15.341 7.143l-.115-.111q1.158-.555 2.318-1.105 6.619-3.142 13.293-6.161z" transform="translate(-1962.383 -734.486)" style="fill:#242136"/>
            <path data-name="Path 5517" d="M1940.456 1538.25s.595.721.918 1.151 1.261 1.63-.517 3.868h-20.4l4.271-6.759h16.784z" transform="translate(-1776.953 -1421.699)" style="fill:#242136"/>
            <path data-name="Path 5518" d="M2155.469 1563.442c-.833 0-2.139 0-2.885-.005h-.046a.075.075 0 0 1-.025-.146.069.069 0 0 1 .021 0h2.815l.121.15" transform="translate(-1991.627 -1446.475)" style="fill:#776eab"/>
            <path data-name="Path 5519" d="M2165.9 1576.121c-.78 0-2.031 0-2.761-.005h-.117c-.1 0-.1-.15-.006-.149h2.779c.032.043.069.093.106.149" transform="translate(-2001.33 -1458.208)" style="fill:#776eab"/>
            <path data-name="Path 5520" d="M2058.05 51.657a3.587 3.587 0 0 0-.874.893 2.6 2.6 0 0 0-.222.459 3.95 3.95 0 0 0-.156.558.164.164 0 0 0 0 .022 18 18 0 0 0 .083 5.585 1.531 1.531 0 0 0 .144-.054 17.937 17.937 0 0 1-.081-5.5.119.119 0 0 1 0-.013 4.048 4.048 0 0 1 .151-.543 2.462 2.462 0 0 1 .206-.426 3.423 3.423 0 0 1 .834-.854 2.983 2.983 0 0 0-.083-.124" transform="translate(-1902.928 -47.797)" style="fill:#776eab"/>
            <path data-name="Path 5521" d="M1951.309 1608.53c-.02.049-.041.1-.064.15h-20.4l.094-.15z" transform="translate(-1786.571 -1488.338)" style="fill:#776eab"/>
            <path data-name="Path 5522" d="M2138.636 1506.479s2.655-2.989 6.242-2.33l-1.49 2.33z" transform="translate(-1978.833 -1391.668)" style="fill:#242136"/>
            <path data-name="Path 5523" d="M1978.619 1515.488a5.3 5.3 0 0 1 3.317 1.766l-4.327-.195z" transform="translate(-1829.838 -1402.248)" style="fill:#242136"/>
            <path data-name="Path 5524" d="M2141.721 1540.573a3.1 3.1 0 0 1-2.925-.594 9.964 9.964 0 0 1-2.379-3.469h.164a11.493 11.493 0 0 0 1.482 2.468c.033.042.068.084.1.126q.177.212.368.412a4.586 4.586 0 0 0 .406.379 2.721 2.721 0 0 0 1.667.66 3.178 3.178 0 0 0 1.089-.135q.015.074.025.154" transform="translate(-1976.781 -1421.699)" style="fill:#776eab"/>
            <path data-name="Path 5525" d="m2143.485 1534.51-.1.149h-4.751s.049-.055.143-.149z" transform="translate(-1978.835 -1419.849)" style="fill:#776eab"/>
            <path data-name="Path 5526" d="M2342.979 327.28a41.521 41.521 0 0 1-2.379 9.886q-.282.735-.562 1.4l.133.072q.287-.674.57-1.413a41.98 41.98 0 0 0 2.384-9.9 2.05 2.05 0 0 1-.145-.035" transform="translate(-2165.186 -302.825)" style="fill:#242136"/>
            <path data-name="Path 5527" d="M2351.559 93.414a32.493 32.493 0 0 0-3.095 3.533c-.057.076-.187 0-.128-.075a32.933 32.933 0 0 1 3.126-3.572c.057.061.09.1.1.114" transform="translate(-2172.85 -86.329)" style="fill:#242136"/>
            <path data-name="Path 5528" d="m2376.512 127.01-.194.2a4.557 4.557 0 0 0-2.558 1.8c-.054.078-.184 0-.129-.075a4.729 4.729 0 0 1 2.881-1.927" transform="translate(-2196.257 -117.52)" style="fill:#242136"/>
            <path data-name="Path 5529" d="M2395.724 156.417a1.294 1.294 0 0 1-.18-.036 1.737 1.737 0 0 0-1.489-.931 3.533 3.533 0 0 0-2.052.916c-.079.055-.154-.074-.076-.129a3.418 3.418 0 0 1 2.3-.921 1.856 1.856 0 0 1 1.5 1.1" transform="translate(-2213.166 -143.697)" style="fill:#242136"/>
            <path data-name="Path 5530" d="M2603.975 192.762a3.905 3.905 0 0 1 1.477-1.378c.085-.046.009-.175-.076-.129a4.064 4.064 0 0 0-1.53 1.432c-.052.082.078.157.129.075" transform="translate(-2409.27 -176.955)" style="fill:#242136"/>
            <path data-name="Path 5531" d="m2209.36 106.29-.412.03a2.452 2.452 0 0 0 0 3.348l.412.03c-.52-.1-.923-.826-.923-1.7s.4-1.6.923-1.7" transform="translate(-2043.28 -98.348)" style="fill:#242136"/>
            <path data-name="Path 5532" d="m1909.817 239.13-.147.086a4.134 4.134 0 1 1-4.8 6.688l-.032.169a4.283 4.283 0 1 0 4.979-6.942" transform="translate(-1762.504 -221.262)" style="fill:#ffe0d1"/>
            <path data-name="Path 5533" d="M1910.117 418.32a2.785 2.785 0 0 0-1.5.436c.012.052.023.1.034.158a2.647 2.647 0 1 1 1.1 4.823c.012.052.025.1.037.156a2.865 2.865 0 0 0 .332.019 2.8 2.8 0 0 0 0-5.593" transform="translate(-1766.002 -387.063)" style="fill:#ffe0d1"/>
            <path data-name="Path 5534" d="M2122.411 48.5a3.99 3.99 0 0 1-3.136-2.591l.167.028a3.835 3.835 0 0 0 2.9 2.4l.062.163" transform="translate(-1960.919 -42.477)" style="fill:#776eab"/>
            <path data-name="Path 5535" d="M2062.585 72.006a5.536 5.536 0 0 1-3.95 2.277v-.151a5.373 5.373 0 0 0 3.821-2.2c.055-.078.185 0 .128.075" transform="translate(-1904.81 -66.526)" style="fill:#776eab"/>
            <path data-name="Path 5536" d="M2059.441 55.162a5.932 5.932 0 0 0 3.143-1.742c.066-.07-.039-.176-.105-.106a5.8 5.8 0 0 1-3.077 1.7c-.094.019-.054.163.04.144" transform="translate(-1905.469 -49.309)" style="fill:#776eab"/>
            <path data-name="Path 5537" d="m2083.672 973.569-.177.063c-2.33.838-4.618 1.789-6.877 2.8-3.695 1.651-7.339 3.442-10.86 5.437a148.791 148.791 0 0 0-14.07 9.076 99.942 99.942 0 0 0-13.37 11.365 45.161 45.161 0 0 0-4.866 5.876q-.305.448-.6.908c-.028.043-.054.087-.081.131a18.969 18.969 0 0 0-2.159 4.642.075.075 0 0 1-.144-.04q.206-.7.479-1.379a21.305 21.305 0 0 1 1.718-3.336l.082-.131c.481-.763 1-1.5 1.541-2.221a52.872 52.872 0 0 1 5.2-5.848 109.265 109.265 0 0 1 13.681-11.214 142.515 142.515 0 0 1 13.608-8.571 131.385 131.385 0 0 1 11.753-5.693 91.846 91.846 0 0 1 4.8-1.9l.187-.067c.053.033.1.068.155.105" transform="translate(-1878.746 -900.725)" style="fill:#6cbd7c"/>
            <path data-name="Path 5538" d="M2362.611 1297.78c-.04.043-.081.087-.123.129a20.833 20.833 0 0 1-3.226 2.733c-4.936 3.39-10.966 4.568-16.874 4.373a33.9 33.9 0 0 1-.637-.026c.2-.036.408-.077.612-.122.191.007.383.013.574.016a35.091 35.091 0 0 0 3.545-.1c5.925-.478 11.816-2.693 15.963-7.046.04-.041.079-.082.117-.124.015.041.028.084.039.127 0 .013.007.026.01.039" transform="translate(-2166.771 -1200.654)" style="fill:#6cbd7c"/>
            <path data-name="Path 5539" d="m2037.047 1004.634-5.708-6.138.019-.044c.02-.047 2.053-4.779 7.766-10.934a71.936 71.936 0 0 1 11.733-10.078 95.116 95.116 0 0 1 18.772-9.974 42.72 42.72 0 0 1 9.815-2.859c3.064-.4 5.007.1 5.775 1.466a5.12 5.12 0 0 1 .234 4.252 12.842 12.842 0 0 1-3.3 4.918 18.484 18.484 0 0 1-5.248 3.626c-3.5 1.564-4.681 3.334-6.182 5.575-.471.7-.959 1.432-1.56 2.219a30.164 30.164 0 0 1-11.756 9.4 20.564 20.564 0 0 1-7.833 1.178c-2.6.047-5.05.09-7.246 1.165-2.827 1.384-5.211 6.081-5.235 6.128zm-5.533-6.168 5.5 5.91c.358-.68 2.609-4.805 5.253-6.1 2.226-1.09 4.7-1.134 7.309-1.18a20.451 20.451 0 0 0 7.777-1.167 30.008 30.008 0 0 0 11.7-9.357c.6-.783 1.085-1.509 1.555-2.211 1.514-2.261 2.71-4.047 6.245-5.628 3.855-1.725 7.415-5.28 8.465-8.455a4.977 4.977 0 0 0-.223-4.132c-1.374-2.451-6.987-1.919-15.4 1.458-15.64 6.277-25.192 14.349-30.452 20.015a43.475 43.475 0 0 0-7.718 10.847" transform="translate(-1879.553 -892.406)" style="fill:#6cbd7c"/>
            <path data-name="Path 5540" d="M2162.963 1281.083a1.768 1.768 0 0 0-1.046-1.216c-1.767-.775-5.232.353-7.809 1.425l-.361.152q-.153.153-.311.306l.378-.163c2.586-1.1 6.263-2.364 8.042-1.583a1.624 1.624 0 0 1 .961 1.117c.475 1.8-.646 3.892-3.328 6.23a42.152 42.152 0 0 1-8.955 5.639c-4.87 2.365-8.373 1.748-12.807.966-1.419-.25-2.886-.508-4.534-.7a29.426 29.426 0 0 0-3.321-.2 15.7 15.7 0 0 0-3.52.347c-.076.018-.15.036-.221.055-.049.069-.1.137-.143.205.071-.02.145-.04.222-.059a19.7 19.7 0 0 1 6.967-.2c1.643.188 3.108.445 4.525.695a34.138 34.138 0 0 0 5.922.7 15.375 15.375 0 0 0 6.975-1.683 42.329 42.329 0 0 0 8.988-5.661c2.729-2.378 3.864-4.525 3.374-6.381" transform="translate(-1967.133 -1183.996)" style="fill:#6cbd7c"/>
            <path data-name="Path 5541" d="m662.534 644.2.774 2.069a9.686 9.686 0 0 1-3.081.333 8.468 8.468 0 0 1-2.128-.462z" transform="translate(-608.924 -596.063)" style="fill:#d16f4b"/>
            <path data-name="Path 5542" d="M616.515 528.38a10.525 10.525 0 0 0-.812 3.587c-.015 1.778.276 3.234 2.544 3.341s5.058-1.962 5.058-1.962 1.962-5.273 1.088-7a3.815 3.815 0 0 0-3.755-1.947c-1.18.015-3.311.4-4.123 3.985" transform="translate(-569.696 -485.211)" style="fill:#d16f4b"/>
            <path data-name="Path 5543" d="M626.786 581.906c-.038.243.044.431.178.452s.269-.133.307-.376-.047-.424-.181-.445-.267.126-.3.369" transform="translate(-579.942 -538.082)" style="fill:#242136"/>
            <path data-name="Path 5544" d="M657.092 581.906c-.038.243.044.431.178.452s.269-.133.307-.376-.047-.424-.181-.445-.267.126-.3.369" transform="translate(-607.984 -538.082)" style="fill:#242136"/>
            <path data-name="Path 5545" d="M643.55 533.346a2.433 2.433 0 0 1-1.471-2.162 5.929 5.929 0 0 1 .921-2.344c-.034.014-.987.421-1.348 0s.046-.981.306-1.441.429-1.042-.123-1.165-2.177.429-3.418.337c0 0-.5-.182-.833-.326a3.7 3.7 0 0 1 3.3-1.851 3.816 3.816 0 0 1 3.755 1.946c.874 1.732-1.089 7.005-1.089 7.005" transform="translate(-589.941 -485.21)" style="fill:#242136"/>
            <path data-name="Path 5546" d="m714.568 570.1-.041.207q-.647-.977-1.363-1.908c-.058-.077.072-.151.129-.076q.667.868 1.275 1.776" transform="translate(-659.861 -525.825)" style="fill:#776eab"/>
            <path data-name="Path 5547" d="m717.663 553.336-.022.233q-.637-.957-1.338-1.869c-.058-.076.072-.15.129-.076q.642.837 1.231 1.711" transform="translate(-662.766 -510.378)" style="fill:#776eab"/>
            <path data-name="Path 5548" d="M628.989 505.911a5.745 5.745 0 0 0-1.774-2.9c-1.41-1.18-2.284 0-2.284 0s-1.565-1.3-2.974-.981-2.576 3.4.689 3.8l3.94-1.15z" transform="translate(-574.172 -464.467)" style="fill:#242136"/>
            <path data-name="Path 5549" d="M699.359 584.918a1.221 1.221 0 0 1-1.221 1.221 1.246 1.246 0 0 1-.232-.022 5.353 5.353 0 0 1 .908-2.216 1.22 1.22 0 0 1 .545 1.017" transform="translate(-645.757 -540.271)" style="fill:#d16f4b"/>
            <path data-name="Path 5550" d="M654.961 568.662a2.423 2.423 0 0 0-.557-.025c-.152 0-.2-.319.02-.423a1.362 1.362 0 0 1 .828-.036c.212.054.51.278.5.469s-.208.209-.364.155a3.028 3.028 0 0 0-.423-.139" transform="translate(-605.386 -525.679)" style="fill:#242136"/>
            <path data-name="Path 5551" d="M627.953 568.22a2.478 2.478 0 0 0-.557-.024 2.642 2.642 0 0 0-.4.094c.052-.213.107-.414.168-.6a1.349 1.349 0 0 1 .81.111c.208.123.134.436-.017.423" transform="translate(-580.142 -525.253)" style="fill:#242136"/>
            <path data-name="Path 5552" d="M630.394 578.888a11.071 11.071 0 0 0 .92-2.194.075.075 0 0 0-.144-.04 10.89 10.89 0 0 1-.9 2.158c-.047.084.083.16.129.075" transform="translate(-583.161 -533.518)" style="fill:#242136"/>
            <path data-name="Path 5553" d="M629.738 606.171a1.217 1.217 0 0 0 1.035.067c.089-.034.05-.179-.04-.144a1.074 1.074 0 0 1-.92-.052c-.085-.046-.16.083-.076.129" transform="translate(-582.648 -560.749)" style="fill:#242136"/>
            <path data-name="Path 5554" d="M645.985 615.665a1.8 1.8 0 0 0 1.425-.9c.055-.079-.075-.154-.129-.076a1.645 1.645 0 0 1-1.3.831.075.075 0 0 0 0 .149" transform="translate(-597.649 -568.724)" style="fill:#242136"/>
            <path data-name="Path 5555" d="M702.28 587.725a.928.928 0 0 1-.358 1.413.075.075 0 0 0 .075.129 1.077 1.077 0 0 0 .388-1.648c-.06-.075-.165.031-.106.106" transform="translate(-649.44 -543.688)" style="fill:#242136"/>
            <path data-name="Path 5556" d="M701.609 595.688a.461.461 0 0 1 .491-.1c.09.034.129-.111.04-.144a.61.61 0 0 0-.636.135c-.07.066.036.172.106.106" transform="translate(-649.064 -550.92)" style="fill:#242136"/>
            <path data-name="Path 5557" d="M413.266 1065.736s-17.835 19.716-21.083 23.451c-6.438 7.4-3.633 18.485 5.978 18.485h36.125z" transform="translate(-359.664 -986.102)" style="fill:#dee6ff"/>
            <path data-name="Path 5558" d="M669.32 1173.234h-10.276s-11-24.621-12.968-30.182l-.114.125c2.023 5.652 12.836 29.87 12.946 30.117l.04.088h10.448z" transform="translate(-597.694 -1057.641)" style="fill:#242136"/>
            <path data-name="Path 5559" d="m615.875 1434.559 16.109-2.35c.095-.014.054-.158-.04-.144l-16.109 2.35c-.095.014-.055.158.04.144" transform="translate(-569.769 -1325.057)" style="fill:#242136"/>
            <path data-name="Path 5560" d="M529.854 1458.978a5.907 5.907 0 0 0 .83 4.478 4.467 4.467 0 0 0 3.488 1.928.075.075 0 0 0 0-.149 4.319 4.319 0 0 1-3.422-1.946 5.789 5.789 0 0 1-.752-4.271c.017-.094-.127-.134-.144-.04" transform="translate(-490.152 -1349.91)" style="fill:#242136"/>
            <path data-name="Path 5561" d="M531.446 1281.055a5.075 5.075 0 0 1 .854-1.606q.55-.77 1.132-1.515a61.276 61.276 0 0 1 2.376-2.862c1.665-1.894 3.424-3.7 5.219-5.474q1.474-1.453 2.975-2.878c.07-.066-.036-.172-.106-.106a104.981 104.981 0 0 0-10.529 11.162q-.594.761-1.158 1.545a5.335 5.335 0 0 0-.907 1.695.075.075 0 0 0 .144.04" transform="translate(-491.6 -1171.95)" style="fill:#242136"/>
            <path data-name="Path 5562" d="m588.221 1525.882 18.153-1.425c.1-.007.1-.157 0-.15l-18.153 1.425c-.1.007-.1.157 0 .149" transform="translate(-544.201 -1410.409)" style="fill:#242136"/>
            <path data-name="Path 5563" d="M289.653 594.639a31.559 31.559 0 0 1-8.272-.55l-22.4 2.756-13.131-13.656s-7.02 1.954-9.994 2.751-7.051.49-8.92-2.974-.169-6.7 4.291-10.362c2.57-2.11 13.887-10.668 13.887-10.668l.022.036.053.081.029.044c.037.055.084.123.142.2l.036.049c.144.2.343.455.6.745l.075.087c.184.208.395.431.63.659l.109.1q.115.11.239.22l.112.1c.126.109.257.218.394.327s.264.2.4.3l.1.074c.031.024.089.064.134.095l.2.14c.064.045.127.085.19.126l.168.109.032.02.136.085.164.1.188.113.011.007.2.116c.065.038.13.076.194.111l.01.006.154.085c.259.143.5.27.714.379l.077.039.129.064a6.5 6.5 0 0 0 .432-.082l.293.424-5.693 5.7c.068-.032 4.409-2.118 7.632-2.2 3.292-.084 10.247-.251 10.247-.251h5.449c2 0 3.954.491 7.15 2.9 3.027 2.279 14.063 10.346 16.481 12.692s.164 8.491-3.1 8.9" transform="translate(-209.289 -519.948)" style="fill:#73c984"/>
            <path data-name="Path 5564" d="M494.268 520.356a.534.534 0 0 1-.08.386c-.149.549-3.174.755-3.174.755.059.273-.2.59-.573.893-.776.626-.811.954-2.162 2.177a6.367 6.367 0 0 1-3.13 1.4 19.014 19.014 0 0 1-3.206-1.973 11.475 11.475 0 0 1-2.415-2.618l-.022-.036c3.317-2.493 4.759-3.222 6.828-3.222.886 0 5.208-.127 6.441 0s1.146.954 1.146.954a.607.607 0 0 1 .347.382.942.942 0 0 1-.084.536 2.261 2.261 0 0 1 .084.365" transform="translate(-443.675 -479.351)" style="fill:#d16f4b"/>
            <path data-name="Path 5565" d="M576.629 864.13a11.754 11.754 0 0 0-4.662-4.536 16.393 16.393 0 0 0-12.213-1 19.361 19.361 0 0 0-6.576 3.345l-.106-.111a19.314 19.314 0 0 1 2.033-1.39 18.825 18.825 0 0 1 11.846-2.577 12.923 12.923 0 0 1 9.807 6.191.075.075 0 0 1-.129.076" transform="translate(-511.745 -793.637)" style="fill:#5963d9"/>
            <path data-name="Path 5566" d="M602.177 906.4a11.771 11.771 0 0 0-4.663-4.536 16.4 16.4 0 0 0-12.213-1 19.35 19.35 0 0 0-5.08 2.289l-.108-.112c.179-.113.359-.225.54-.332a18.834 18.834 0 0 1 11.847-2.578 12.924 12.924 0 0 1 9.806 6.191c.047.084-.082.16-.129.075" transform="translate(-536.765 -832.753)" style="fill:#5963d9"/>
            <path data-name="Path 5567" d="M832.388 687.568a35.094 35.094 0 0 1-6.794-.853 32.934 32.934 0 0 1-7.077-2.478 20.817 20.817 0 0 1-6.021-4.072 7.967 7.967 0 0 1-2.434-6.115 7.158 7.158 0 0 1 .3-1.487l.152.017a6.631 6.631 0 0 0-.319 2.534 8.907 8.907 0 0 0 3.52 5.98 25.576 25.576 0 0 0 6.126 3.59 33.974 33.974 0 0 0 12.363 2.728l.179.156" transform="translate(-749.508 -622.307)" style="fill:#5963d9"/>
            <path data-name="Path 5568" d="M885.736 706.319a28.54 28.54 0 0 1-3.107-.778 28.959 28.959 0 0 1-4.295-1.726 14.869 14.869 0 0 1-3.726-2.373 4 4 0 0 1-1.365-3.54 2.513 2.513 0 0 1 .25-.69l.125.081a2.771 2.771 0 0 0-.185 1.941 5.48 5.48 0 0 0 2.583 3.105 25.829 25.829 0 0 0 3.6 1.914 28.679 28.679 0 0 0 5.85 1.861l.266.2" transform="translate(-807.94 -645.115)" style="fill:#5963d9"/>
            <path data-name="Path 5569" d="M265.656 591.952a.03.03 0 0 0 0 .008c-.235 5-1.145 10.162-4.054 14.354a13.728 13.728 0 0 1-9.868 6.086c-.052-.046-.1-.093-.151-.141a12.291 12.291 0 0 0 5.7-1.926c3.947-2.5 6.248-6.88 7.31-11.318a37.68 37.68 0 0 0 .91-6.946l.155-.117" transform="translate(-232.783 -547.721)" style="fill:#5963d9"/>
            <path data-name="Path 5570" d="M242.4 628.622a22.711 22.711 0 0 1-3.541 9.32 14.123 14.123 0 0 1-8.468 5.883l-.052-.145a12.62 12.62 0 0 0 4.2-1.719c3.946-2.5 6.247-6.88 7.309-11.318q.225-.942.386-1.894l.165-.126" transform="translate(-213.13 -581.651)" style="fill:#5963d9"/>
            <path data-name="Path 5571" d="M500.072 674.5a10.818 10.818 0 0 1-.643 2.972c-1.627 4.466-5.342 7.22-8.968 10.071l-.12-.125a44.83 44.83 0 0 0 6.093-5.349 13.244 13.244 0 0 0 3.494-7.566h.143" transform="translate(-453.703 -624.102)" style="fill:#5963d9"/>
            <path data-name="Path 5572" d="M530.958 709.637c-.009.049-.018.1-.028.147a11.355 11.355 0 0 1-.465 1.649c-1.787 4.9-6.085 7.741-10.024 10.909l-.119-.124a55.994 55.994 0 0 0 7.148-6.187 14.021 14.021 0 0 0 3.318-6.291q.016-.074.029-.148c.046.016.093.031.14.045" transform="translate(-481.443 -656.57)" style="fill:#5963d9"/>
            <path data-name="Path 5573" d="M645.559 652.4s-1.685 2.123-6.054 1.089l.184.9a2.9 2.9 0 0 0 2.644 1.425 4.523 4.523 0 0 0 3.771-1.954z" transform="translate(-591.72 -603.65)" style="fill:#d16f4b"/>
            <path data-name="Path 5574" d="M874.519 880.354a13.774 13.774 0 0 1 4.618 7.149.075.075 0 0 0 .144-.04 13.909 13.909 0 0 0-4.656-7.215c-.074-.06-.18.045-.106.106" transform="translate(-809.149 -814.458)" style="fill:#242136"/>
            <path data-name="Path 5575" d="m840.4 877.93 5.227-.4c.1-.007.1-.157 0-.149l-5.227.4c-.1.007-.1.157 0 .149" transform="translate(-777.537 -811.819)" style="fill:#242136"/>
            <path data-name="Path 5576" d="M657.387 907.533s-3.659 1.9-4.188 2.275c-.552.4-1.032 1.994.942 2.355l4.189-2.212z" transform="translate(-603.942 -839.721)" style="fill:#d16f4b"/>
            <path data-name="Path 5577" d="M678.311 910a6.611 6.611 0 0 0-.616.9c-.588 1.018-1.2 2.3-1.613 3.2l.217-.115c.4-.876.977-2.06 1.525-3.009a5.962 5.962 0 0 1 .858-1.168l-.371.194" transform="translate(-625.564 -841.82)" style="fill:#242136"/>
            <path data-name="Path 5578" d="M657.633 936.837a21.329 21.329 0 0 0-16.214-4.255c-9.84 1.379-9.382 10.1-7.542 15.4s13.014 30.311 13.014 30.311h17.152l-8.251-18.466c17.867-10.189 1.841-22.986 1.841-22.986" transform="translate(-585.54 -862.696)" style="fill:#dee6ff"/>
            <path data-name="Path 5579" d="m845.028 1072.71 6.024 15.124c.035.088.18.05.144-.04l-6.024-15.124c-.035-.088-.18-.05-.144.04" transform="translate(-781.88 -992.472)" style="fill:#242136"/>
            <path data-name="Path 5580" d="m788.543 1062.576 2.019 5.072 3.2 8.05 3.647 9.166 3.3 8.29 2.209 5.55.163.408c.035.088.18.05.144-.04l-2.019-5.072-3.2-8.05-3.647-9.166-3.3-8.29q-1.1-2.775-2.209-5.55l-.162-.408c-.035-.088-.18-.05-.144.04" transform="translate(-729.616 -983.095)" style="fill:#242136"/>
            <path data-name="Path 5581" d="M785.277 987.3a4.5 4.5 0 0 1 2.052-5.529 6.341 6.341 0 0 1 4.168-.183 9.988 9.988 0 0 1 3.921 2.021 38.594 38.594 0 0 1 4.155 4.453c.062.074.166-.032.106-.106-2.376-2.9-4.621-5.564-8.024-6.482a6.661 6.661 0 0 0-4.209.083 4.159 4.159 0 0 0-2.2 2.249 4.832 4.832 0 0 0-.115 3.533c.033.089.178.051.144-.04" transform="translate(-726.206 -907.862)" style="fill:#242136"/>
            <path data-name="Path 5582" d="M684.244 882.762s-5.452.4-7.077.674a4.658 4.658 0 0 0-3.556 2.514 43.123 43.123 0 0 0-2.023 4.138 1.316 1.316 0 0 0 1.012 1.625s-.183 1.709 2.023 1.2c0 0 1.5.812 2.851-1.042a1.956 1.956 0 0 0 2.192-.506c.92-1.058 3.648-4.892 3.648-4.892z" transform="translate(-621.35 -816.801)" style="fill:#d16f4b"/>
            <path data-name="Path 5583" d="M832.726 888.059a21.762 21.762 0 0 0-5.284-1.4l1.066-3.9a8 8 0 0 1 4.219 5.3" transform="translate(-765.614 -816.801)" style="fill:#d16f4b"/>
            <path data-name="Path 5584" d="M449.167 702.2q-1.773 1.766-3.492 3.587c-.067.07-.172-.036-.105-.106q1.58-1.672 3.206-3.3c.044-.021.18-.085.391-.18" transform="translate(-412.256 -649.732)" style="fill:#242136"/>
            <path data-name="Path 5585" d="M827.983 815.928q2.592 2.261 5.028 4.69a.075.075 0 0 0 .106-.106q-2.436-2.428-5.028-4.69c-.072-.063-.178.042-.106.106" transform="translate(-766.092 -754.845)" style="fill:#242136"/>
            <path data-name="Path 5586" d="m465.571 581.474-.123.124a10.542 10.542 0 0 1-3.491-1.785 10.133 10.133 0 0 1-2.974-3.46l.12-.091a9.986 9.986 0 0 0 3.022 3.49 10.277 10.277 0 0 0 3.447 1.722" transform="translate(-424.686 -533.203)" style="fill:#242136"/>
            <path data-name="Path 5587" d="m687.277 923.174-2.907 5.888v-.061a1.521 1.521 0 0 1-.12-.037l2.9-5.865c.043-.087.172-.01.129.075" transform="translate(-633.123 -854.088)" style="fill:#242136"/>
            <path data-name="Path 5588" d="M708.753 1008.933a4.504 4.504 0 0 1-.165.035.888.888 0 0 1-.141-.76.075.075 0 0 1 .144.04.731.731 0 0 0 .161.685" transform="translate(-655.482 -932.825)" style="fill:#242136"/>
            <path data-name="Path 5589" d="M708.963 942.293q1.347-2.646 2.629-5.325c.041-.086-.087-.162-.129-.075q-1.284 2.677-2.629 5.325c-.044.086.085.161.129.076" transform="translate(-655.861 -866.851)" style="fill:#242136"/>
            <path data-name="Path 5590" d="M746.728 994.77c-.031.042-.06.082-.091.121a.888.888 0 0 1-.229-.863.075.075 0 0 1 .144.04.733.733 0 0 0 .176.7" transform="translate(-690.605 -919.704)" style="fill:#242136"/>
            <path data-name="Path 5591" d="M746.921 953.226q.827-1.642 1.627-3.3c.042-.086-.087-.162-.129-.075q-.8 1.656-1.628 3.3c-.043.086.086.161.129.075" transform="translate(-690.982 -878.845)" style="fill:#242136"/>
            <path data-name="Path 5592" d="M662.039 550.39c-.065.651-.731.8-1.314.855-.1.008-.1-.141 0-.149.484-.041 1.072-.147 1.156-.677a1.033 1.033 0 0 1 .159-.028" transform="translate(-611.287 -509.264)" style="fill:#242136"/>
            <path data-name="Path 5593" d="m626.672 563.3.047-.2a.812.812 0 0 0 .438-.847c-.022-.093.122-.133.144-.04.122.528-.236.824-.629 1.082" transform="translate(-579.846 -520.163)" style="fill:#242136"/>
            <path data-name="Path 5594" d="m599.98 560.326 4.539-.346c.1-.007.1-.157 0-.149l-4.539.346c-.1.007-.1.157 0 .149" transform="translate(-555.082 -517.999)" style="fill:#242136"/>
            <path data-name="Path 5595" d="M661.845 544.052a1.711 1.711 0 0 1-1.122.4c-.1.008-.1-.141 0-.149a1.368 1.368 0 0 0 1.072-.436.952.952 0 0 1 .05.182" transform="translate(-611.286 -503.231)" style="fill:#242136"/>
            <path data-name="Path 5596" d="m596.04 550.215 4.833-.368c.1-.007.1-.157 0-.149l-4.833.368c-.1.007-.1.157 0 .149" transform="translate(-551.437 -508.622)" style="fill:#242136"/>
            <path data-name="Path 5597" d="M658.905 531.661a1.616 1.616 0 0 1-1.162.453c-.1.008-.1-.141 0-.149a1.467 1.467 0 0 0 1.031-.382.6.6 0 0 1 .131.079" transform="translate(-608.529 -491.862)" style="fill:#242136"/>
            <path data-name="Path 5598" d="m593.061 537.212 4.833-.368c.1-.007.1-.157 0-.15l-4.833.368c-.1.007-.1.157 0 .149" transform="translate(-548.68 -496.591)" style="fill:#242136"/>
            <path data-name="Path 5599" d="M551.407 568.627a3.906 3.906 0 0 1 3.128-.832c.095.016.1-.134.008-.149a4.048 4.048 0 0 0-3.237.871c-.074.061.027.171.1.11" transform="translate(-510.087 -525.18)" style="fill:#242136"/>
            <path data-name="Path 5600" d="M567.321 558.849q-.011-.472.021-.943a.075.075 0 0 0-.149-.008q-.033.471-.021.943c0 .1.152.1.149.008" transform="translate(-524.789 -516.148)" style="fill:#242136"/>
            <path data-name="Path 5601" d="M643.69 649.7a5.225 5.225 0 0 1-1.482 1.2 3.634 3.634 0 0 1-.575.237 3.019 3.019 0 0 1-1.628.071l-.034-.164a2.776 2.776 0 0 0 1.218.052 3.162 3.162 0 0 0 .592-.165 4.765 4.765 0 0 0 1.8-1.335c.064-.072.17.034.106.106" transform="translate(-592.152 -601.036)" style="fill:#242136"/>
            <path data-name="Path 5602" d="M634.968 671.892a4.728 4.728 0 0 1-4.441 3.206 4.313 4.313 0 0 1-2.765-.764 4.627 4.627 0 0 1-1.57-2.258h.156a4.479 4.479 0 0 0 1.513 2.15 4.17 4.17 0 0 0 2.665.726 4.574 4.574 0 0 0 4.282-3.057z" transform="translate(-579.402 -621.687)" style="fill:#242136"/>
            <path data-name="Path 5603" d="m1173.176 55.66.373 1.2-4.713 2.989-.58-1.821a3.512 3.512 0 0 1-1.793-.506c-.8-.529-1.127-1.655-.8-3.288s.727-6.047 3.9-6.53a3.588 3.588 0 0 1 4.373 4.115c-.394 1.925-.759 3.84-.759 3.84" transform="translate(-1078.443 -44.086)" style="fill:#ffa875"/>
            <path data-name="Path 5604" d="M1200.444 167.911a4.085 4.085 0 0 0 1.96-1.636c.056-.079-.074-.154-.129-.075a3.917 3.917 0 0 1-1.87 1.568c-.09.031-.052.176.04.144" transform="translate(-1110.66 -153.75)" style="fill:#242136"/>
            <path data-name="Path 5605" d="M1172.846 91.107a2.425 2.425 0 0 0-.557-.025c-.152 0-.2-.319.021-.423a1.361 1.361 0 0 1 .828-.036c.212.054.51.278.5.469s-.208.209-.364.155a3.032 3.032 0 0 0-.423-.139" transform="translate(-1084.574 -83.808)" style="fill:#242136"/>
            <path data-name="Path 5606" d="M1164.049 26.952s-1.977.713-2.6-2.8l-.811-.69s.5 4.472-1.281 5.932-3.414.322-3.633-1.1.248-2.288.682-2.322.905.437 1.5.437 1.736-.3 1.713-4.564c0 0-2.506.867-2.633-1.471a1.98 1.98 0 0 1-.31-2.288c.644-1.4 3.046-.77 3.529-.322a2.692 2.692 0 0 1 2.184-1.127 2.186 2.186 0 0 1 1.92 2.1s2.717.6 1.943 2.678z" transform="translate(-1069.317 -15.378)" style="fill:#242136"/>
            <path data-name="Path 5607" d="m1214.739 92.155-.076.193a2.979 2.979 0 0 1-2.3-.053 1.8 1.8 0 0 1-2.023 1.26h-.021a2.91 2.91 0 0 1-1.848-1.219c0-.088 0-.179.005-.272a2.77 2.77 0 0 0 1.872 1.344 1.658 1.658 0 0 0 1.892-1.215.08.08 0 0 1 .112-.063 2.829 2.829 0 0 0 2.384.027" transform="translate(-1118.174 -85.183)" style="fill:#776eab"/>
            <path data-name="Path 5608" d="M1223.242 108.468a1.221 1.221 0 0 1-.152 1.72 1.249 1.249 0 0 1-.19.131 5.356 5.356 0 0 1-.727-2.281 1.218 1.218 0 0 1 1.07.43" transform="translate(-1130.849 -99.959)" style="fill:#ffa875"/>
            <path data-name="Path 5609" d="M1225.962 112.181a.931.931 0 0 1 .215 1.454c-.058.077.072.151.129.075a1.075 1.075 0 0 0-.268-1.659c-.084-.047-.16.082-.076.129" transform="translate(-1134.321 -103.67)" style="fill:#242136"/>
            <path data-name="Path 5610" d="M1224.887 119.251a.463.463 0 0 1 .412-.286c.1 0 .1-.153 0-.149a.608.608 0 0 0-.541.36c-.038.087.091.163.129.075" transform="translate(-1133.236 -109.938)" style="fill:#242136"/>
            <path data-name="Path 5611" d="M823.527 1559.793s-.861.639-1.539 1.249a3.961 3.961 0 0 0-1.655 3.771h19.6l.8-5.019z" transform="translate(-759.002 -1443.243)" style="fill:#242136"/>
            <path data-name="Path 5612" d="M1269 1559.793s-.762.639-1.345 1.249a3.429 3.429 0 0 0-1.071 3.771h19.6l.019-5.019z" transform="translate(-1171.778 -1443.243)" style="fill:#242136"/>
            <path data-name="Path 5613" d="m841.455 1605.25-.024.149h-19.765c.011-.051.025-.1.038-.149z" transform="translate(-760.27 -1485.303)" style="fill:#776eab"/>
            <path data-name="Path 5614" d="M1286.33 1605.25v.149h-19.765c0-.051.01-.1.016-.149z" transform="translate(-1171.925 -1485.303)" style="fill:#776eab"/>
            <path data-name="Path 5615" d="M1251.591 187.121a6.474 6.474 0 0 1 3.23 3.284l-5.725-1.847z" transform="translate(-1155.762 -173.139)" style="fill:#d19273"/>
            <path data-name="Path 5616" d="m1215.565 170.967.724 1.207-2.495 1.437-2.851.184s3.265-2.564 4.621-2.828" transform="translate(-1120.46 -158.192)" style="fill:#d19273"/>
            <path data-name="Path 5617" d="m1251.591 187.12-2.495 1.437.192.062 2.378-1.37.094-.054c-.107-.052-.169-.075-.169-.075" transform="translate(-1155.761 -173.138)" style="fill:#242136"/>
            <path data-name="Path 5618" d="M1136.9 404.876s-2.678 15.607-2.747 16.48c-.042.526.23.744.874.823.424.053 2.89.028 3.655.01l.087-19.081z" transform="translate(-1049.401 -372.988)" style="fill:#d19273"/>
            <path data-name="Path 5619" d="M896.234 558.306c.1-11.36-.714-35.035-2.191-46.074 0 0-9.328 22.76-13.306 46.074h-17.2a281.286 281.286 0 0 1 25.085-76.6l15.243-4.276s7.212 30.845 9.564 80.876z" transform="translate(-799.014 -441.756)" style="fill:#f0ccbb"/>
            <path data-name="Path 5620" d="m1178.684 411.134-.9 12.471h5.6l-3.311-8.123z" transform="translate(-1089.781 -380.414)" style="fill:#f0ccbb"/>
            <path data-name="Path 5621" d="M1186.4 576.105h-8.608l.01-.149h8.6a.075.075 0 0 1 0 .149" transform="translate(-1089.788 -532.92)" style="fill:#242136"/>
            <path data-name="Path 5622" d="M1181.952 553.125h-2.507l.01-.149h2.5a.075.075 0 0 1 0 .149" transform="translate(-1091.314 -511.657)" style="fill:#242136"/>
            <path data-name="Path 5623" d="M1293.381 404.368q2.57 13.884 4.658 27.85 2.091 13.991 3.693 28.048.9 7.875 1.642 15.766c.009.095.158.1.149 0q-1.33-14.093-3.148-28.135-1.811-13.976-4.1-27.883-1.3-7.857-2.745-15.687c-.018-.094-.162-.054-.144.04" transform="translate(-1196.736 -374.066)" style="fill:#242136"/>
            <path data-name="Path 5624" d="M926.712 76.967a18.112 18.112 0 0 1 3.4-6.236 8.5 8.5 0 0 0 0-3.434.845.845 0 0 1 .813-.959s-.193-1.214 1.022-1.092a.8.8 0 0 1 .908-.338c.223.04.538-.142.776.241a.9.9 0 0 1 1.22-.227A4.405 4.405 0 0 1 936.1 67.1a1.528 1.528 0 0 1 .678-.422.872.872 0 0 1 1.147.662 10.277 10.277 0 0 1 0 3.582c-.164 1.578-2.312 3-2.59 3.455a22.673 22.673 0 0 0-1.321 3.907l-8.4 1.738s.838-2.284 1.1-3.052" transform="translate(-856.45 -59.919)" style="fill:#ffa875"/>
            <path data-name="Rectangle 3381" transform="translate(70.081 4.843)" style="fill:#5963d9" d="M0 0h4.044v7.624H0z"/>
            <path data-name="Path 5625" d="M919.206 68.625c0 2.105-.737 3.812-1.646 3.812s-1.646-1.707-1.646-3.812.737-3.812 1.646-3.812 1.646 1.707 1.646 3.812" transform="translate(-847.476 -59.97)" style="fill:#ffa875"/>
            <path data-name="Rectangle 3382" transform="translate(73.749 4.843)" style="fill:#5963d9" d="M0 0h4.486v7.624H0z"/>
            <path data-name="Path 5626" d="M968.241 68.625c0 2.105-.737 3.812-1.646 3.812s-1.646-1.707-1.646-3.812.737-3.812 1.646-3.812 1.646 1.707 1.646 3.812" transform="translate(-892.847 -59.97)" style="fill:#ffa875"/>
            <path data-name="Path 5627" d="M966.6 64.962c.811 0 1.5 1.677 1.5 3.663s-.685 3.663-1.5 3.663-1.5-1.677-1.5-3.663.685-3.663 1.5-3.663m0-.149c-.909 0-1.646 1.707-1.646 3.812s.737 3.812 1.646 3.812 1.646-1.707 1.646-3.812-.737-3.812-1.646-3.812" transform="translate(-892.848 -59.97)" style="fill:#242136"/>
            <path data-name="Path 5628" d="M985.875 120.32v-1.62a.075.075 0 0 1 .15 0v1.625a.075.075 0 0 1-.15 0" transform="translate(-912.208 -109.76)" style="fill:#242136"/>
            <path data-name="Path 5629" d="m973.6 118.193.378-1.58a.075.075 0 0 1 .145.035l-.377 1.58a.075.075 0 0 1-.145-.035" transform="translate(-900.852 -107.848)" style="fill:#242136"/>
            <path data-name="Path 5630" d="m993.614 118.193-.377-1.58a.075.075 0 0 0-.145.035l.378 1.58a.075.075 0 0 0 .145-.035" transform="translate(-918.883 -107.848)" style="fill:#242136"/>
            <path data-name="Path 5631" d="M985.875 89.347v1.625a.075.075 0 0 0 .15 0v-1.625a.075.075 0 0 0-.15 0" transform="translate(-912.208 -82.605)" style="fill:#242136"/>
            <path data-name="Path 5632" d="m973.6 92.016.378 1.58a.075.075 0 0 0 .145-.035l-.377-1.58a.075.075 0 0 0-.145.035" transform="translate(-900.852 -85.058)" style="fill:#242136"/>
            <path data-name="Path 5633" d="m993.614 92.016-.377 1.58a.075.075 0 0 1-.145-.035l.378-1.58a.075.075 0 0 1 .145.035" transform="translate(-918.883 -85.058)" style="fill:#242136"/>
            <path data-name="Path 5634" d="M934.782 211.57a49.285 49.285 0 0 0-.772 2.553l-8.4 1.739s.649-1.767.982-2.715a41.825 41.825 0 0 1 8.188-1.576" transform="translate(-856.447 -195.761)" style="fill:#f0ccbb"/>
            <path data-name="Path 5635" d="M966.2 170.992c-.129.338-.244.663-.348.969-.138.4-.422 1.2-.682 1.91l.172-.035c.251-.69.519-1.436.651-1.826.109-.321.236-.677.381-1.055a22.038 22.038 0 0 1 2.041-4.1h-.178a22.247 22.247 0 0 0-2.037 4.142" transform="translate(-893.047 -154.383)" style="fill:#242136"/>
            <path data-name="Path 5636" d="M895.075 223.2a38.487 38.487 0 0 1 9.114-1.815l-1.563 7.265s6.589-5.165 8.53-6.489a35.939 35.939 0 0 1 4.765-2.743s.269 7.841.17 7.946c-16.852 17.714-21.769 9.552-22.247 7.759-1.53-5.729 1.231-11.923 1.231-11.923" transform="translate(-826.627 -203.024)" style="fill:#d19273"/>
            <path data-name="Path 5637" d="M942.2 219.743a21.859 21.859 0 0 0-2.091 1.964c-1.414 1.5-5.8 6.09-7.122 7.476l.945-3.919-.189.145-1.032 4.279s5.822-6.085 7.507-7.878a20.755 20.755 0 0 1 2.625-2.379c-.022.01-.255.117-.643.313m-17.819 4.246-.026.059a24.587 24.587 0 0 0-1.32 4.232 19.62 19.62 0 0 0-.045 9.011 3.85 3.85 0 0 0 .278.707c.073.037.148.072.224.1a3.987 3.987 0 0 1-.357-.85c-1.686-6.315 1.356-13.144 1.356-13.144s.31-.108.859-.275l.064-.174c-.608.182-.96.3-.972.309z" transform="translate(-853.555 -203.034)" style="fill:#242136"/>
            <path data-name="Path 5638" d="M1164.046 92.635c0 1.035-.362 1.873-.809 1.873s-.809-.839-.809-1.873.362-1.873.809-1.873.809.839.809 1.873" transform="translate(-1075.57 -83.98)" style="fill:#5963d9"/>
            <path data-name="Path 5639" d="M1104.886 83.518v4.829l5.108-.541v-3.747z" transform="translate(-1022.326 -77.277)" style="fill:#5963d9"/>
            <path data-name="Path 5640" d="M961.181 66.463a19.965 19.965 0 0 1 3.748-6.874 9.373 9.373 0 0 0 0-3.786.931.931 0 0 1 .9-1.058s-.213-1.338 1.127-1.2c0 0 .345-.881 1.092-.747a1.2 1.2 0 0 1 .764.641.991.991 0 0 1 1.345-.25 4.856 4.856 0 0 1 1.374 2.4 1.684 1.684 0 0 1 .747-.466.962.962 0 0 1 1.265.73 11.332 11.332 0 0 1 0 3.949c-.18 1.74-2.548 3.3-2.855 3.809a24.966 24.966 0 0 0-1.456 4.307l-9.258 1.916s.924-2.518 1.211-3.364" transform="translate(-888.239 -48.838)" style="fill:#ffa875"/>
            <path data-name="Path 5641" d="M970.075 217.61c-.251.741-.541 1.7-.851 2.814l-9.258 1.917s.715-1.948 1.083-2.993a46.109 46.109 0 0 1 9.026-1.737" transform="translate(-888.235 -201.35)" style="fill:#f0ccbb"/>
            <path data-name="Path 5642" d="M926.305 214.285a42.426 42.426 0 0 1 10.047-2l-1.828 7.579s5.822-6.085 7.507-7.878a16.606 16.606 0 0 1 3.817-3.173s3.734 9.948 3.625 10.063c-18.577 19.527-24 10.529-24.524 8.553-1.686-6.315 1.357-13.143 1.357-13.143" transform="translate(-855.364 -193.21)" style="fill:#d19273"/>
            <path data-name="Path 5643" d="M1188.022 196.248a7.687 7.687 0 0 1 2.9-1.928c1.412-.355 5.8-1.356 7.781 2.464 5.33 10.262 6.886 23.815 7.92 29.839 0 0-11.573 5.024-14.81 6.227-1.609.6-2.253-.575-2.276-1.7s-1.514-22.561-1.514-22.561z" transform="translate(-1099.251 -179.444)" style="fill:#d19273"/>
            <path data-name="Path 5644" d="M1176.948 345.507a.075.075 0 0 0-.1 0c-1.8 1.886-3.48 3.5-5.04 4.882l-.14.123c-.287.253-.995.853-1.273 1.089l-.038.224c.3-.248 1.026-.866 1.327-1.129l.141-.124a86.713 86.713 0 0 0 5.133-4.961.074.074 0 0 0 0-.105" transform="translate(-1082.899 -319.671)" style="fill:#242136"/>
            <path data-name="Path 5645" d="M1015.6 286.5a.627.627 0 1 1 .627-.627.627.627 0 0 1-.627.627m0-1.1a.477.477 0 1 0 .477.477.478.478 0 0 0-.477-.477" transform="translate(-939.128 -263.935)" style="fill:#242136"/>
            <path data-name="Path 5646" d="M1009.8 314.194a.627.627 0 1 1 .626-.626.627.627 0 0 1-.626.626m0-1.1a.477.477 0 1 0 .477.477.478.478 0 0 0-.477-.477" transform="translate(-933.766 -289.558)" style="fill:#242136"/>
            <path data-name="Path 5647" d="M1115.092 91.981c-.015.095-.158.054-.144-.04a7.061 7.061 0 0 0-.252-3.165 1.369 1.369 0 0 1 .12-.116 7.23 7.23 0 0 1 .276 3.321" transform="translate(-1031.404 -82.036)" style="fill:#242136"/>
            <path data-name="Path 5648" d="M1079.889 64.493c0 .1-.146.1-.149 0a7.732 7.732 0 0 0-1.334-4.474 1.2 1.2 0 0 1 .1-.108 7.882 7.882 0 0 1 1.38 4.583" transform="translate(-997.825 -55.434)" style="fill:#242136"/>
            <path data-name="Path 5649" d="M1054.967 65.589c0 .1-.146.1-.149 0a7.669 7.669 0 0 0-1.372-4.521 1.275 1.275 0 0 1 .073-.147 7.788 7.788 0 0 1 1.449 4.669" transform="translate(-974.73 -56.368)" style="fill:#242136"/>
            <path data-name="Path 5650" d="M1037.208 82.561c0 .1-.146.1-.15 0a9.075 9.075 0 0 0-.722-3.462c.046-.012.1-.021.148-.029a9.277 9.277 0 0 1 .724 3.491" transform="translate(-958.899 -73.162)" style="fill:#242136"/>
            <path data-name="Path 5651" d="M998.236 264.83c-.389 1.554-.779 3.109-1.156 4.667-.022.093-.167.054-.144-.04.371-1.533.755-3.064 1.137-4.594l.163-.034" transform="translate(-922.441 -245.042)" style="fill:#242136"/>
            <path data-name="Path 5652" d="m1235.856 518.72 6.283 1.939c.092.029.131-.116.04-.144l-6.283-1.939c-.092-.029-.132.116-.04.144" transform="translate(-1143.462 -479.824)" style="fill:#242136"/>
            <path data-name="Path 5653" d="m1235.856 537.592 6.283 1.939c.092.029.131-.116.04-.144l-6.283-1.939c-.092-.029-.132.116-.04.144" transform="translate(-1143.462 -497.286)" style="fill:#242136"/>
            <path data-name="Path 5654" d="M1319.853 544.647v1.41a.075.075 0 0 0 .15 0v-1.41a.075.075 0 0 0-.15 0" transform="translate(-1221.231 -503.884)" style="fill:#242136"/>
            <path data-name="Path 5655" d="M1235.768 518.692v1.41a.075.075 0 0 0 .149 0v-1.41a.075.075 0 0 0-.149 0" transform="translate(-1143.429 -479.868)" style="fill:#242136"/>
            <path data-name="Path 5656" d="M970.515 100.884a1.47 1.47 0 1 1-1.446-1.207 1.68 1.68 0 0 1 1.446 1.207" transform="translate(-895.32 -92.229)" style="fill:#fff"/>
            <path data-name="Path 5657" d="M977.474 100.884c0 .667-.374 1.207-.835 1.207s-.835-.54-.835-1.207.374-1.207.835-1.207.835.54.835 1.207" transform="translate(-902.891 -92.229)" style="fill:#242136"/>
            <path data-name="Path 5658" d="M917.51 64.962c.811 0 1.5 1.677 1.5 3.663s-.685 3.663-1.5 3.663-1.5-1.677-1.5-3.663.685-3.663 1.5-3.663m0-.149c-.909 0-1.646 1.707-1.646 3.812s.737 3.812 1.646 3.812 1.646-1.707 1.646-3.812-.737-3.812-1.646-3.812" transform="translate(-847.429 -59.97)" style="fill:#242136"/>
            <path data-name="Path 5659" d="M936.789 120.32v-1.62a.075.075 0 0 1 .149 0v1.625a.075.075 0 0 1-.149 0" transform="translate(-866.79 -109.76)" style="fill:#242136"/>
            <path data-name="Path 5660" d="m924.517 118.193.378-1.58a.075.075 0 0 1 .145.035l-.378 1.58a.075.075 0 0 1-.145-.035" transform="translate(-855.433 -107.848)" style="fill:#242136"/>
            <path data-name="Path 5661" d="m944.528 118.193-.378-1.58a.075.075 0 0 0-.145.035l.378 1.58a.075.075 0 0 0 .145-.035" transform="translate(-873.465 -107.848)" style="fill:#242136"/>
            <path data-name="Path 5662" d="M936.789 89.347v1.625a.075.075 0 0 0 .149 0v-1.625a.075.075 0 0 0-.149 0" transform="translate(-866.79 -82.605)" style="fill:#242136"/>
            <path data-name="Path 5663" d="m924.517 92.016.378 1.58a.075.075 0 0 0 .145-.035l-.378-1.58a.075.075 0 0 0-.145.035" transform="translate(-855.433 -85.058)" style="fill:#242136"/>
            <path data-name="Path 5664" d="m944.528 92.016-.378 1.58a.075.075 0 0 1-.145-.035l.378-1.58a.075.075 0 0 1 .145.035" transform="translate(-873.465 -85.058)" style="fill:#242136"/>
            <path data-name="Path 5665" d="M921.428 100.884a1.47 1.47 0 1 1-1.446-1.207 1.68 1.68 0 0 1 1.446 1.207" transform="translate(-849.901 -92.229)" style="fill:#fff"/>
            <path data-name="Path 5666" d="M928.387 100.884c0 .667-.374 1.207-.835 1.207s-.835-.54-.835-1.207.374-1.207.835-1.207.835.54.835 1.207" transform="translate(-857.472 -92.229)" style="fill:#242136"/>
            <path data-name="Path 5667" d="M857.739 1564.319h-2.454l.189-.149h2.265a.075.075 0 0 1 0 .149" transform="translate(-791.376 -1447.292)" style="fill:#776eab"/>
            <path data-name="Path 5668" d="M844.422 1575.549h-2.477l.075-.067.094-.083h2.309a.075.075 0 0 1 0 .149" transform="translate(-779.033 -1457.684)" style="fill:#776eab"/>
            <path data-name="Path 5669" d="M1296.308 1564.319h-2.493l.167-.149h2.326a.075.075 0 0 1 0 .149" transform="translate(-1197.139 -1447.292)" style="fill:#776eab"/>
            <path data-name="Path 5670" d="M1284.6 1575.549h-2.387l.065-.067.081-.083h2.241a.075.075 0 0 1 0 .149" transform="translate(-1186.405 -1457.684)" style="fill:#776eab"/>
            <path data-name="Path 5671" d="M841.089 1559.79a8.745 8.745 0 0 1-2.387 1.857 3.1 3.1 0 0 1-2.918-.118l.115-.113a3.18 3.18 0 0 0 .906.335 2.714 2.714 0 0 0 1.779-.223 4.202 4.202 0 0 0 .487-.266c.158-.1.31-.2.459-.306.045-.031.089-.064.131-.1a10.2 10.2 0 0 0 1.214-1.072z" transform="translate(-773.333 -1443.24)" style="fill:#776eab"/>
            <path data-name="Path 5672" d="M1282.355 1559.79a8.733 8.733 0 0 1-2.386 1.857 3.1 3.1 0 0 1-2.932-.126c.035-.042.07-.081.1-.119a3.164 3.164 0 0 0 .93.35 2.714 2.714 0 0 0 1.779-.223 4.402 4.402 0 0 0 .488-.266c.157-.1.31-.2.459-.306l.131-.1a10.165 10.165 0 0 0 1.214-1.072z" transform="translate(-1181.613 -1443.24)" style="fill:#776eab"/>
            <path data-name="Path 5673" d="m1247.2 747.872-.116.286-.155-1.326q-.859-7.334-1.71-14.666c-.011-.1.138-.095.149 0l.481 4.143q.672 5.782 1.351 11.564" transform="translate(-1152.173 -677.391)" style="fill:#242136"/>
            <path data-name="Path 5674" d="m891.777 1494.89-.03.15h-17.252l.028-.15z" transform="translate(-809.151 -1383.189)" style="fill:#242136"/>
            <path data-name="Path 5675" d="M1317.981 1495.04h-16.965v-.15h16.958c0 .05.005.1.008.15" transform="translate(-1203.802 -1383.189)" style="fill:#242136"/>
            <path data-name="Path 5676" d="M1227.953 192.792a5.817 5.817 0 0 0-2.538-.878 8.522 8.522 0 0 0-3.59.427c-.095.069-.185.134-.27.2a7.925 7.925 0 0 1 3.638-.5 6 6 0 0 1 1.893.457 5.152 5.152 0 0 1 1.389.876 6.7 6.7 0 0 0-.524-.584" transform="translate(-1130.278 -177.534)" style="fill:#242136"/>
            <path data-name="Path 5677" d="M1001.542 1510.644h-.235a6.369 6.369 0 0 1-3.788-1.37 3.406 3.406 0 0 0-1.281-.668 7.424 7.424 0 0 0-1.953.146 16.082 16.082 0 0 1-6.086.007c-2.4-.547-4.5-2.076-5.09-3.719a2.111 2.111 0 0 1 .266-2.092c.684-.891 2.774-1.253 5.736-.992a26.671 26.671 0 0 1 7.947 1.955 90.763 90.763 0 0 1 9.547 5.211l.11.07-.115.06a13.224 13.224 0 0 1-5.057 1.4m-5.661-2.219a2.218 2.218 0 0 1 .383.029 3.507 3.507 0 0 1 1.34.692 6.238 6.238 0 0 0 3.709 1.343 12.368 12.368 0 0 0 5.1-1.315 89.554 89.554 0 0 0-9.415-5.131c-4.447-1.986-12.08-2.865-13.5-1.009a1.968 1.968 0 0 0-.244 1.95c.576 1.6 2.625 3.087 4.983 3.624a15.95 15.95 0 0 0 6.031-.009 12.453 12.453 0 0 1 1.617-.174" transform="translate(-909.503 -1389.647)" style="fill:#6cbd7c"/>
            <path data-name="Path 5678" d="m1240.748 861.314-.023-.063c-3.583-9.992-4.774-22.123-3.352-34.156 1.15-9.738 3.974-18 5.16-20.069 1.2-2.1 3.33-4.131 5.154-3.643 1.135.3 2.03 1.512 2.66 3.59a39.594 39.594 0 0 1 1.1 10.822c-.02 10.223-2.406 21.375-4.4 28.93-2.165 8.185-4.354 14.029-4.375 14.087l-.014.037zm6.368-57.856c-1.619 0-3.4 1.8-4.454 3.642-1.181 2.058-3.994 10.3-5.141 20.012-1.416 11.986-.236 24.066 3.322 34.025l1.7-.415c.19-.51 2.284-6.2 4.357-14.038 2-7.546 4.379-18.684 4.4-28.891.021-10.979-1.973-13.818-3.649-14.267a2.05 2.05 0 0 0-.532-.069" transform="translate(-1144.373 -743.284)" style="fill:#6cbd7c"/>
            <path data-name="Path 5679" d="M942.081 1087.42c0-.019-.05-.292-.138-.776l-.027-.148-.146.036.028.148.125.71a3.66 3.66 0 0 1-1.1.311 4.911 4.911 0 0 1-.247.026l.212.129c.079-.01.157-.021.233-.034a3.65 3.65 0 0 0 1.018-.323l.049-.025zm-4.876-20.9a97.195 97.195 0 0 0-1.4-4.268c-1.914-5.334-4.126-9.148-6.763-11.658a12 12 0 0 0-9.147-3.514c-3.2.127-5.338 1.084-6.344 2.846a5.9 5.9 0 0 0-.539 3.874 17.11 17.11 0 0 0 1.97 5.342c3.661 6.808 7.489 8.806 10.022 10.128.244.127.474.247.693.366.636.344 1.241.632 1.775.885 1.653.786 2.744 1.3 2.945 2.511a17.061 17.061 0 0 1 .07 2.248c-.007 2.2-.017 5.361.857 7.438.027.065.055.129.084.191l.2.081a3.403 3.403 0 0 1-.093-.2c-.92-2.039-.911-5.276-.9-7.513a17.221 17.221 0 0 0-.071-2.274c-.214-1.283-1.4-1.844-3.029-2.621a37.099 37.099 0 0 1-1.769-.882c-.22-.12-.451-.24-.7-.368-2.517-1.313-6.32-3.3-9.96-10.066-2.1-3.9-2.594-7.037-1.432-9.07.979-1.714 3.071-2.646 6.22-2.771.19-.007.377-.011.564-.011 6.673 0 11.513 4.813 15.2 15.086a93.034 93.034 0 0 1 1.577 4.843l.188.64-.039-.66-.182-.6" transform="translate(-844.695 -968.828)" style="fill:#6cbd7c"/>
            <path data-name="Path 5680" d="m937.386 1067.123-.182-.6a97.195 97.195 0 0 0-1.4-4.268c-1.914-5.334-4.126-9.148-6.763-11.658a12 12 0 0 0-9.147-3.514 11.2 11.2 0 0 0-3.789.721l-.157.067a4.933 4.933 0 0 0-2.4 2.058 5.9 5.9 0 0 0-.539 3.874 17.11 17.11 0 0 0 1.97 5.342c3.661 6.808 7.489 8.806 10.022 10.128.244.127.474.247.693.366.636.344 1.241.632 1.775.885 1.653.786 2.745 1.3 2.945 2.511a17.069 17.069 0 0 1 .07 2.248c-.007 2.2-.017 5.361.857 7.438.027.065.055.129.085.191l.2.081a3.403 3.403 0 0 1-.093-.2c-.921-2.039-.911-5.276-.9-7.513a17.2 17.2 0 0 0-.071-2.274c-.214-1.283-1.4-1.844-3.029-2.621a37.099 37.099 0 0 1-1.769-.882c-.22-.12-.451-.24-.7-.368-2.517-1.313-6.32-3.3-9.96-10.066-2.1-3.9-2.594-7.037-1.432-9.07a4.824 4.824 0 0 1 2.4-2.027c.052-.022.1-.044.159-.065a11.176 11.176 0 0 1 3.66-.679c.19-.007.377-.011.564-.011 6.673 0 11.513 4.813 15.2 15.086a93.995 93.995 0 0 1 1.577 4.843l.188.64-.039-.66" transform="translate(-844.695 -968.828)" style="fill:#6cbd7c"/>
            <path data-name="Path 5681" d="M979.019 1098.938c.017.094-.127.134-.144.04q-.19-1.033-.41-2.061c-.01-.049-.02-.1-.031-.146a68.279 68.279 0 0 0-2.715-9.268 70.676 70.676 0 0 0-10.315-18.557 69.428 69.428 0 0 0-11.725-11.9l-.133-.105.157-.067.134.107a68.254 68.254 0 0 1 5.439 4.825 70.844 70.844 0 0 1 12.688 17.01 69.38 69.38 0 0 1 6.617 17.936l.031.146q.22 1.019.406 2.044" transform="translate(-882.295 -977.899)" style="fill:#6cbd7c"/>
            <path data-name="Path 5682" d="m1308.716 807.431-.046.149q-1.255 4.053-2.27 8.175a146.176 146.176 0 0 0-3.587 48.725l.015.15-.146.036-.014-.15q-.549-5.738-.64-11.506a146.375 146.375 0 0 1 6.512-45.512c.015-.049.03-.1.046-.147.044.025.088.052.131.081" transform="translate(-1204.72 -747.024)" style="fill:#6cbd7c"/>
            <path data-name="Rectangle 3383" transform="translate(123.121 64.365)" style="fill:#fff" d="M0 0h12.691v22.373H0z"/>
            <path data-name="Path 5683" d="M1679.342 888.213c1.543 2.115 3.106 4.217 4.649 6.333.056.077.186 0 .129-.075-1.543-2.115-3.105-4.217-4.649-6.333-.056-.077-.186 0-.129.075" transform="translate(-1553.846 -821.745)" style="fill:#242136"/>
            <path data-name="Path 5684" d="m1745.209 884.68-3.6 6.587c-.046.084.083.16.129.075l3.6-6.587c.046-.084-.083-.16-.129-.075" transform="translate(-1611.467 -818.541)" style="fill:#242136"/>
            <path data-name="Path 5685" d="M1519.376 666.69a5.774 5.774 0 0 0-6.411-3.918 4.07 4.07 0 0 0-8 1.064 4.634 4.634 0 0 0-6.382 1.547 3.191 3.191 0 0 0-5.378 1.52s-.987 3.8 2.046 5.521c1.887 1.07 5.182.547 7.405 0a4.612 4.612 0 0 0 2.308-.678l3.809-.582a5.772 5.772 0 0 0 6.691 2.864 4.634 4.634 0 1 0 3.91-7.335" transform="translate(-1381.488 -610.468)" style="fill:#242136"/>
            <path data-name="Path 5686" d="m1663.672 754.761-.085-1.594-5.329-2 .28 3.512-1.476.28-1.868 2.036 6.332 7.852 2.668-5.058z" transform="translate(-1531.515 -695.038)" style="fill:#ffa875"/>
            <path data-name="Path 5687" d="M1685.119 638.138a2.85 2.85 0 0 0 3.479-2.307 16.014 16.014 0 0 0-1.226-7.77 3.662 3.662 0 0 0-5.288-.79c-2.15 1.74-1.381 7.176-.028 8.933a5.331 5.331 0 0 0 3.063 1.934" transform="translate(-1555.154 -579.657)" style="fill:#ffa875"/>
            <path data-name="Path 5688" d="m1728.078 735.441 1.749.373a.135.135 0 0 1 .1.17.866.866 0 0 1-.863.649 1.237 1.237 0 0 1-1.146-1.021.135.135 0 0 1 .158-.17" transform="translate(-1598.801 -680.485)" style="fill:#fff"/>
            <path data-name="Path 5689" d="M1687.781 630.852a10.074 10.074 0 0 1-3.986-1.953s-1.356 2.641-3.515 3.224c-.278-2.062.147-3.918 1.3-4.852a3.662 3.662 0 0 1 5.288.791 10.222 10.222 0 0 1 .913 2.79" transform="translate(-1554.65 -579.658)" style="fill:#242136"/>
            <path data-name="Path 5690" d="M1678.9 668.623a6.41 6.41 0 0 1-.127-2.922c.056-.032.112-.062.17-.091a6.273 6.273 0 0 0 .1 2.973.075.075 0 0 1-.144.04" transform="translate(-1553.225 -615.875)" style="fill:#776eab"/>
            <path data-name="Path 5691" d="M1735.075 640.391a5.291 5.291 0 0 1 3.047 2.618c.044.086.173.01.129-.075a5.443 5.443 0 0 0-3.136-2.687c-.092-.03-.131.114-.04.144" transform="translate(-1605.379 -592.403)" style="fill:#776eab"/>
            <path data-name="Path 5692" d="M1669.022 613.691a1.339 1.339 0 1 1-1.339-1.339 1.339 1.339 0 0 1 1.339 1.339" transform="translate(-1541.831 -566.596)" style="fill:#242136"/>
            <path data-name="Path 5693" d="M1687.91 632.57a3.267 3.267 0 0 0-.77.919 1.3 1.3 0 0 0 .2-.049 3.07 3.07 0 0 1 .663-.754 3.8 3.8 0 0 1 .212-.16 1.239 1.239 0 0 0 .04-.206 4.026 4.026 0 0 0-.346.25" transform="translate(-1561.073 -585.072)" style="fill:#776eab"/>
            <path data-name="Rectangle 3384" transform="translate(100.613 106.87)" style="fill:#ffa875" d="M0 0h12.443v13.152H0z"/>
            <path data-name="Path 5694" d="m1354.016 1430.24-3.738 13.152h-3.778v-13.152z" transform="translate(-1245.887 -1323.37)" style="fill:#fff"/>
            <path data-name="Path 5695" d="M1265.041 1430.236h-5.7l-5.15 14.7c.644.69 2.1.444 2.514.291s4.568-1.839 4.568-1.839z" transform="translate(-1160.473 -1323.366)" style="fill:#5963d9"/>
            <path data-name="Path 5696" d="m1275.874 1430.24-1.1 3.129-4.228 12.033c-.052 0-.1 0-.156-.005l.1-.3 5.221-14.86z" transform="translate(-1175.464 -1323.37)" style="fill:#242136"/>
            <path data-name="Path 5697" d="m1313.776 1595.383-.612 1.741-.185.075.652-1.855c.032-.09.177-.052.144.04" transform="translate(-1214.872 -1476.089)" style="fill:#242136"/>
            <path data-name="Path 5698" d="m1335.957 1586.766-.6 1.716-.185.074.643-1.829c.032-.09.176-.051.144.04" transform="translate(-1235.403 -1468.116)" style="fill:#242136"/>
            <path data-name="Path 5699" d="m1301.351 1565.36-.049.17a11.392 11.392 0 0 0-2.587 1.078 3.986 3.986 0 0 0-.14.084q-.235.143-.462.3-.155.109-.3.225a3.266 3.266 0 0 0-.14.12 2.717 2.717 0 0 0-.9 1.551 3.162 3.162 0 0 0-.037 1.033l-.148.059a3.093 3.093 0 0 1 1.022-2.8 9.909 9.909 0 0 1 3.734-1.825" transform="translate(-1199.678 -1448.394)" style="fill:#242136"/>
            <path data-name="Path 5700" d="M1525 1123.463c-2.262-2.292-19.112-17.975-19.112-17.975l-1.661-3.752c-5.874 4.138-16.887 1.862-16.887 1.862-8.139 9.794-2.483 22.684-2.483 22.684h-3.789a22.993 22.993 0 0 0-2.2 14.7h40.373c3.694 0 6.971-1.522 8.614-5.587 1.6-3.962.667-8.369-2.851-11.933" transform="translate(-1368.013 -1019.412)" style="fill:#f0ccbb"/>
            <path data-name="Path 5701" d="M1571.374 1428.385h-8.418s-.023-.051-.062-.149h8.48a.075.075 0 0 1 0 .149" transform="translate(-1446.112 -1321.516)" style="fill:#242136"/>
            <path data-name="Path 5702" d="m1660.769 1294.158 13.343 10.028c.077.058.151-.072.075-.129l-13.343-10.028c-.077-.058-.151.072-.075.129" transform="translate(-1536.644 -1197.324)" style="fill:#242136"/>
            <path data-name="Path 5703" d="m1841.715 1246.219 12.042 11.557c.07.067.175-.039.106-.106l-12.042-11.557c-.069-.067-.175.039-.106.105" transform="translate(-1704.078 -1152.982)" style="fill:#242136"/>
            <path data-name="Path 5704" d="M1975.268 1413.139a11.593 11.593 0 0 1-2.3 2.98 7.479 7.479 0 0 1-2.13 1.521h-.431a7.2 7.2 0 0 0 2.873-2.045 10.566 10.566 0 0 0 2-2.83 9.964 9.964 0 0 0 .868-4.229 11.6 11.6 0 0 0-3.3-7.671c-.066-.07.04-.176.105-.105a12.714 12.714 0 0 1 2.63 4.128 10.253 10.253 0 0 1-.324 8.252" transform="translate(-1823.177 -1296.071)" style="fill:#242136"/>
            <path data-name="Path 5705" d="M1524.43 1430.24h.158q-.328.791-.61 1.6a31.077 31.077 0 0 0-1.592 13.1h-.15q-.132-1.4-.137-2.816a31.242 31.242 0 0 1 2.331-11.884" transform="translate(-1408.365 -1323.37)" style="fill:#242136"/>
            <path data-name="Path 5706" d="M1532.373 1501.5h19.934a.075.075 0 0 0 0-.15h-19.934a.075.075 0 0 0 0 .15" transform="translate(-1417.804 -1389.168)" style="fill:#242136"/>
            <path data-name="Path 5707" d="M1799.15 1433.923a4.162 4.162 0 0 0 3.714-1.943 2.97 2.97 0 0 0-.658-3.645c-.073-.062-.179.043-.106.106a2.83 2.83 0 0 1 .6 3.538 4.051 4.051 0 0 1-3.547 1.795.075.075 0 0 0 0 .15" transform="translate(-1664.647 -1321.59)" style="fill:#242136"/>
            <path data-name="Path 5708" d="M1631.214 1120.438a19.04 19.04 0 0 0 12.559-.6 18.511 18.511 0 0 0 3.2-1.682c.08-.053.005-.182-.075-.129a18.906 18.906 0 0 1-12.077 2.972 18.338 18.338 0 0 1-3.572-.7.075.075 0 0 0-.04.144" transform="translate(-1509.278 -1034.474)" style="fill:#242136"/>
            <path data-name="Path 5709" d="M1484.057 799.275s-.575 29.061-2.69 41.844c0 0-7.541 3.4-14.255-1.747l9.794-29.015z" transform="translate(-1357.487 -739.552)" style="fill:#5963d9"/>
            <path data-name="Path 5710" d="m1377.045 1307.4.981-3.433-8.731-1.65-.849 2.662a7.091 7.091 0 0 0 4.292 2.284 12.7 12.7 0 0 0 4.307.138" transform="translate(-1266.193 -1205.006)" style="fill:#fff"/>
            <path data-name="Path 5711" d="M1383.2 1322.551a.627.627 0 1 1 .626-.627.627.627 0 0 1-.626.627m0-1.1a.477.477 0 1 0 .477.477.478.478 0 0 0-.477-.477" transform="translate(-1279.267 -1222.568)" style="fill:#242136"/>
            <path data-name="Path 5712" d="M1384.326 799.275s-5.725.552-9.059 2.552a21.439 21.439 0 0 0-8.775 10.476c-1.87 4.874-7.165 23.85-7.165 23.85a22.094 22.094 0 0 0 10.261 2.36l7.955-25.444z" transform="translate(-1257.755 -739.552)" style="fill:#5963d9"/>
            <path data-name="Path 5713" d="M1768.651 799.275s6.806.207 8.645.322a23.819 23.819 0 0 1 9.166 2.682l7.306 12.525s-14.817-3.052-17.79-3.727l-1.608 14.55a9.664 9.664 0 0 1-4.554-7.009c-.858-5.15-1.165-19.343-1.165-19.343" transform="translate(-1636.494 -739.552)" style="fill:#5963d9"/>
            <path data-name="Path 5714" d="M2063.544 881.522a4.94 4.94 0 1 1-4.94-4.94 4.94 4.94 0 0 1 4.94 4.94" transform="translate(-1900.21 -811.082)" style="fill:#5963d9"/>
            <path data-name="Path 5715" d="M1749.791 625.582a5.909 5.909 0 1 1-5.909 5.909 5.915 5.915 0 0 1 5.909-5.909" transform="translate(-1613.576 -578.838)" style="fill:#242136"/>
            <path data-name="Path 5716" d="M1762.873 639.722a4.852 4.852 0 1 1-4.852 4.852 4.858 4.858 0 0 1 4.852-4.852" transform="translate(-1626.658 -591.921)" style="fill:#ffa875"/>
            <path data-name="Path 5717" d="m1798.015 662.475-.62-1.243c-.043-.086-.172-.01-.129.076l.62 1.243c.043.086.172.011.129-.075l-.62-1.243-.129.076.62 1.243c.043.086.172.011.129-.075" transform="translate(-1662.962 -611.789)" style="fill:#242136"/>
            <path data-name="Path 5718" d="m1772.631 674.945-.932-1.031-.106.106.931 1.031c.065.072.17-.034.106-.106l-.932-1.031c-.065-.071-.17.034-.106.106l.931 1.031c.065.072.17-.034.106-.106" transform="translate(-1639.198 -623.537)" style="fill:#242136"/>
            <path data-name="Path 5719" d="m1839.619 662.551.62-1.243c.043-.086-.086-.162-.129-.075l-.62 1.243c-.043.086.086.162.129.076l.62-1.243-.129-.075-.62 1.243c-.043.086.086.162.129.076" transform="translate(-1702.032 -611.789)" style="fill:#242136"/>
            <path data-name="Path 5720" d="m1861.131 675.051.931-1.031c.064-.071-.041-.177-.106-.106l-.931 1.031c-.064.071.041.177.106.106l.931-1.031-.106-.106-.931 1.031c-.064.071.041.177.106.106" transform="translate(-1721.948 -623.536)" style="fill:#242136"/>
            <path data-name="Path 5721" d="M1822.647 658.228v-1.389a.075.075 0 0 0-.15 0v1.389a.075.075 0 0 0 .15 0v-1.389h-.15v1.389a.075.075 0 0 0 .15 0" transform="translate(-1686.317 -607.693)" style="fill:#242136"/>
            <path data-name="Path 5722" d="m1798.015 723.837-.62 1.243c-.043.086-.172.01-.129-.075l.62-1.243c.043-.086.172-.01.129.076l-.62 1.243-.129-.075.62-1.243c.043-.086.172-.01.129.076" transform="translate(-1662.962 -669.646)" style="fill:#242136"/>
            <path data-name="Path 5723" d="m1772.631 713.974-.932 1.031-.106-.106.931-1.031c.065-.072.17.034.106.106l-.932 1.031c-.065.072-.17-.034-.106-.106l.931-1.031c.065-.072.17.034.106.106" transform="translate(-1639.198 -660.505)" style="fill:#242136"/>
            <path data-name="Path 5724" d="m1839.619 723.761.62 1.243c.043.086-.086.162-.129.075l-.62-1.243c-.043-.086.086-.162.129-.075l.62 1.243-.129.075-.62-1.243c-.043-.086.086-.162.129-.075" transform="translate(-1702.032 -669.645)" style="fill:#242136"/>
            <path data-name="Path 5725" d="m1861.131 713.868.931 1.031c.064.071-.041.177-.106.106l-.931-1.031c-.064-.071.041-.177.106-.106l.931 1.031-.106.106-.931-1.031c-.064-.071.041-.177.106-.106" transform="translate(-1721.948 -660.505)" style="fill:#242136"/>
            <path data-name="Path 5726" d="M1822.647 726.361v1.389a.075.075 0 0 1-.15 0v-1.389a.075.075 0 0 1 .15 0v1.389h-.15v-1.389a.075.075 0 0 1 .15 0" transform="translate(-1686.317 -672.02)" style="fill:#242136"/>
            <path data-name="Path 5727" d="M1774.636 671.158a4.957 4.957 0 1 1-4.292-2.478 4.953 4.953 0 0 1 4.292 2.478" transform="translate(-1634.088 -618.715)" style="fill:#fff"/>
            <path data-name="Path 5728" d="M1795.293 671.049a2.478 2.478 0 1 1-2.478-2.478 2.478 2.478 0 0 1 2.478 2.478" transform="translate(-1656.559 -618.614)" style="fill:#242136"/>
            <path data-name="Rectangle 3385" transform="rotate(-10.862 372.465 -690.432)" style="fill:#242136" d="M0 0h1.2v3.516H0z"/>
            <path data-name="Path 5729" d="M1821.858 797.995a37.494 37.494 0 0 0-3.986-1.53 14.072 14.072 0 0 0-4.446-.273l.287 1.494-2.708.389s-1.456.935.031 2.412c0 0-.684 1.826 1.109 2.178 0 0-.492 1.521 1.378 1.689a1.494 1.494 0 0 0 1.471.935c1.18.015 4.18.128 4.18.128l.889.475z" transform="translate(-1675.093 -736.65)" style="fill:#ffa875"/>
            <path data-name="Path 5730" d="m1940.7 820.977 3.11.861-2.238 8.783-2.767-1.334a24.95 24.95 0 0 1 1.894-8.311" transform="translate(-1793.933 -759.632)" style="fill:#fff"/>
            <path data-name="Path 5731" d="M1952.818 900.809a.626.626 0 1 1 .626-.626.627.627 0 0 1-.626.626m0-1.1a.477.477 0 1 0 .477.477.478.478 0 0 0-.477-.477" transform="translate(-1806.32 -832.34)" style="fill:#242136"/>
            <path data-name="Path 5732" d="m1983.334 845.37-9.156-3.454s-.122-6.008 2.361-9.411l10.166 3.575z" transform="translate(-1826.662 -770.299)" style="fill:#5963d9"/>
            <path data-name="Path 5733" d="M1309.384 1340.364s-3.066 8-3.433 9.013-1.97.544-1.77-.828.284-1.985.284-1.985-3.5 2.061-4.09 2.4-1.873.26-2.164-.475a1.428 1.428 0 0 1-1.812-1.433s-1.192-.084-.747-1.786c0 0-.751-.582.015-1.7a33.377 33.377 0 0 1 4-3.755l1.119-1.87s2.391 2.7 8.6 2.422" transform="translate(-1198.532 -1237.969)" style="fill:#ffa875"/>
            <path data-name="Path 5734" d="m1672.294 718.777.327 5.116-1.643-3.273-.483-2.15 1.367-.164a4.26 4.26 0 0 1 .432.471" transform="translate(-1545.672 -664.633)" style="fill:#242136"/>
            <path data-name="Path 5735" d="M1548.162 774.789a5.729 5.729 0 0 0-2.73.139l-.095.029a5.477 5.477 0 0 0-1.877 1.034 5.619 5.619 0 0 0-1.844 3.143 2.952 2.952 0 0 1-.146-.025 5.754 5.754 0 0 1 1.974-3.3c.077-.063.156-.123.236-.182.04-.03.081-.058.122-.087a5.663 5.663 0 0 1 1.483-.725c.048-.016.1-.031.143-.044a5.9 5.9 0 0 1 2.773-.13c.1.019.055.162-.039.144" transform="translate(-1426.288 -716.663)" style="fill:#776eab"/>
            <path data-name="Path 5736" d="M1630.424 725.624a5.427 5.427 0 0 1 4.508-4.017c.1-.007.1-.157 0-.149a5.578 5.578 0 0 0-4.652 4.127c-.03.091.114.131.144.04" transform="translate(-1508.458 -667.549)" style="fill:#776eab"/>
            <path data-name="Path 5737" d="M1678.2 720.98c-.187 0-.029-.219.02-.317.091-.184.2-.362.3-.538.174-.293.355-.581.545-.864.108-.16-.151-.31-.258-.151a13.231 13.231 0 0 0-.829 1.369c-.164.32-.319.788.222.8a.15.15 0 0 0 0-.3" transform="translate(-1552.458 -665.315)" style="fill:#ffe0d1"/>
            <path data-name="Path 5738" d="M1678.627 692.982a1.192 1.192 0 1 0 1.192-1.192 1.192 1.192 0 0 0-1.192 1.192" transform="translate(-1553.197 -640.098)" style="fill:#ffa875"/>
            <path data-name="Path 5739" d="M1684.989 696.3a1.079 1.079 0 0 0-.225 1.678c.059.076.165-.031.105-.106a.927.927 0 0 1 .2-1.444.075.075 0 0 0-.075-.129" transform="translate(-1558.6 -644.266)" style="fill:#242136"/>
            <path data-name="Path 5740" d="M1686.6 703.529a.608.608 0 0 0-.547-.35.075.075 0 0 0 0 .149.462.462 0 0 1 .418.276c.04.087.169.011.129-.076" transform="translate(-1559.998 -650.636)" style="fill:#242136"/>
            <path data-name="Path 5741" d="M1726.219 705.809c-.005.246-.12.416-.255.413s-.242-.178-.236-.424.121-.409.257-.406.24.171.235.417" transform="translate(-1596.778 -652.685)" style="fill:#242136"/>
            <path data-name="Path 5742" d="M1718.619 690.954a2.428 2.428 0 0 1 .556-.05c.152-.007.184-.327-.039-.422a1.362 1.362 0 0 0-.829 0c-.209.064-.5.3-.474.491s.217.2.37.138a3.044 3.044 0 0 1 .417-.158" transform="translate(-1589.471 -638.829)" style="fill:#242136"/>
            <path data-name="Path 5743" d="M1682.692 742.134a10.944 10.944 0 0 1-1.614.208c-.191.014-.192.313 0 .3a11.5 11.5 0 0 0 1.693-.218c.188-.042.108-.331-.079-.288" transform="translate(-1555.332 -686.677)" style="fill:#ffe0d1"/>
            <path data-name="Path 5744" d="M1690.874 719.109c.2.263.406.526.6.8.065.09.495.643.384.684-.179.066-.1.355.079.288.306-.113.312-.332.158-.588a14.49 14.49 0 0 0-1.009-1.392c-.118-.152-.328.061-.211.211" transform="translate(-1564.497 -665.133)" style="fill:#ffe0d1"/>
            <path data-name="Path 5745" d="M1741.241 778.676a2.923 2.923 0 0 1-2.081.224.075.075 0 0 1 .04-.144 2.8 2.8 0 0 0 2.04-.246z" transform="translate(-1609.157 -720.339)" style="fill:#242136"/>
            <path data-name="Path 5746" d="m1821.088 844.843-3.735.541a4.727 4.727 0 0 1-.123-.132l3.819-.553c.094-.013.134.131.039.144" transform="translate(-1681.443 -781.581)" style="fill:#242136"/>
            <path data-name="Path 5747" d="m1856.156 812.263-1.379.2-.028-.146 1.366-.2c.094-.014.135.131.04.144" transform="translate(-1716.159 -751.435)" style="fill:#242136"/>
            <path data-name="Path 5748" d="m1836.27 875.6-3.838.555c.014-.064.026-.1.026-.1-.048-.01-.093-.019-.137-.031l3.909-.566c.095-.013.135.13.041.144" transform="translate(-1695.405 -810.042)" style="fill:#242136"/>
            <path data-name="Path 5749" d="m1855.714 900.011-3.164.459a.932.932 0 0 1-.061-.139h-.009l3.194-.463c.094-.014.134.13.039.143" transform="translate(-1714.059 -832.627)" style="fill:#242136"/>
            <path data-name="Path 5750" d="m1641.253 931.553-.018.281a18.893 18.893 0 0 1-.859-1.737c-2.02-4.662-2.236-9.816-2.256-14.825a.075.075 0 0 1 .149 0c.006 1.474.026 2.949.1 4.422a27.99 27.99 0 0 0 2.879 11.859" transform="translate(-1515.717 -846.815)" style="fill:#242136"/>
            <path data-name="Path 5751" d="M1638.291 880.788q1.09-1.416 2.274-2.755c.063-.072-.042-.178-.106-.106q-1.195 1.354-2.3 2.786c-.059.076.071.151.129.075" transform="translate(-1515.741 -812.304)" style="fill:#242136"/>
            <path data-name="Path 5752" d="M1645 851.373a9.953 9.953 0 0 0 1.786 2.011c.073.062.179-.043.106-.106a9.808 9.808 0 0 1-1.762-1.981c-.053-.079-.183 0-.129.075" transform="translate(-1522.066 -787.656)" style="fill:#242136"/>
            <path data-name="Path 5753" d="M1648.026 800.33a13.215 13.215 0 0 0-2.845 3.915c-.041.087-.17.01-.129-.076a13.315 13.315 0 0 1 2.722-3.805l.252-.034" transform="translate(-1522.122 -740.528)" style="fill:#242136"/>
            <path data-name="Path 5754" d="M1792.066 911.516q-.105 2.214-.431 4.407a39.508 39.508 0 0 1-1.995 8.339 4.738 4.738 0 0 1-.07-.211 34.237 34.237 0 0 0 1.321-4.826 49.115 49.115 0 0 0 1.024-7.683v-.026a.078.078 0 0 1 .123-.058.062.062 0 0 1 .027.058" transform="translate(-1655.85 -843.34)" style="fill:#242136"/>
            <path data-name="Path 5755" d="M1792.1 880.446c-.745-.867-1.552-1.676-2.344-2.5-.067-.069-.172.036-.106.106.791.825 1.6 1.634 2.344 2.5.063.073.168-.033.106-.106" transform="translate(-1655.908 -812.322)" style="fill:#242136"/>
            <path data-name="Path 5756" d="M1791.408 851.3a9.793 9.793 0 0 1-1.762 1.981c-.073.063.033.168.106.106a9.944 9.944 0 0 0 1.786-2.011c.054-.08-.076-.155-.129-.075" transform="translate(-1655.897 -787.656)" style="fill:#242136"/>
            <path data-name="Path 5757" d="m1777.445 803.431-.021-.044a13.211 13.211 0 0 0-2.893-3.937l.225.008a13.294 13.294 0 0 1 2.818 3.9c.04.086-.087.161-.129.075" transform="translate(-1641.934 -739.714)" style="fill:#242136"/>
            <path data-name="Path 5758" d="M1980.931 931.131q-2.779-1.011-5.531-2.1c0-.051.009-.1.013-.155q2.765 1.091 5.557 2.107c.09.032.051.176-.04.143" transform="translate(-1827.795 -859.473)" style="fill:#242136"/>
            <path data-name="Path 5759" d="m1388.321 1203.339-1.91 7.55-.141-.052 1.907-7.537a.075.075 0 0 1 .144.04" transform="translate(-1282.685 -1113.338)" style="fill:#242136"/>
            <path data-name="Path 5760" d="M1302.286 1388.077q-1.928 1.73-3.852 3.463a.771.771 0 0 1-.1-.106l3.85-3.462c.071-.064.177.041.105.105" transform="translate(-1201.316 -1284.242)" style="fill:#242136"/>
            <path data-name="Path 5761" d="M1314.495 1404.187q-2.367 2.123-4.728 4.252a1.77 1.77 0 0 1-.016-.185q2.321-2.084 4.639-4.172c.072-.064.177.041.105.105" transform="translate(-1211.883 -1299.148)" style="fill:#242136"/>
            <path data-name="Path 5762" d="M1334.934 1418.2q2.28-2.045 4.555-4.1c.072-.064-.034-.17-.105-.106q-2.281 2.045-4.555 4.1c-.072.064.034.17.106.106" transform="translate(-1235.065 -1308.32)" style="fill:#242136"/>
            <path data-name="Path 5763" d="M1332.3 1468.931a.988.988 0 0 0-.2.66s-.056.013-.149.023a1.126 1.126 0 0 1 .223-.757c.057-.076.186 0 .129.075" transform="translate(-1232.424 -1359.07)" style="fill:#242136"/>
            <path data-name="Path 5764" d="M1504.152 984.225a.072.072 0 0 0-.028-.005.073.073 0 0 0-.071.052l-7.931 25.367-.042.149a.209.209 0 0 0 .2-.147l7.917-25.324a.074.074 0 0 0-.044-.092" transform="translate(-1384.29 -910.677)" style="fill:#242136"/>
            <path data-name="Path 5765" d="m1981.124 952.422-8.795-3.318s-.005-.253.008-.684l-.147-.071c-.016.47-.011.751-.011.758v.1l.094.036 8.607 3.247.731.15z" transform="translate(-1824.814 -877.488)" style="fill:#242136"/>
            <path data-name="Path 5766" d="M1429.7 1430.24c-.77 2.019-1.547 4.06-1.722 4.538a.78.78 0 0 1-.732.543l-.043.149h.018a.928.928 0 0 0 .9-.643c.175-.479.964-2.552 1.742-4.589z" transform="translate(-1320.557 -1323.37)" style="fill:#242136"/>
            <path data-name="Path 5767" d="m1728.466 629.272-.116-.1a4.305 4.305 0 0 0 .406-2.41l.15.02a4.469 4.469 0 0 1-.44 2.492" transform="translate(-1599.204 -579.928)" style="fill:#776eab"/>
            <path data-name="Path 5768" d="M1682.269 627.59a7.562 7.562 0 0 1-2.8 4.417.063.063 0 0 1-.044.014.081.081 0 0 1-.031-.143l.032-.025a7.386 7.386 0 0 0 2.682-4.223l.161-.04" transform="translate(-1553.877 -580.696)" style="fill:#776eab"/>
            <path data-name="Path 5769" d="M1499.729 765.069a3.57 3.57 0 0 0-3.854-1.691 2.637 2.637 0 0 0-1.853 1.782 5.96 5.96 0 0 1-.051-.281 2.74 2.74 0 0 1 1.864-1.645 3.724 3.724 0 0 1 4.018 1.751l.006.009c.051.081-.075.155-.128.078" transform="translate(-1382.338 -706.102)" style="fill:#776eab"/>
            <path data-name="Path 5770" d="M1569.2 736.574a.078.078 0 0 1-.013.059.084.084 0 0 1-.1.029.057.057 0 0 1-.036-.049c-.005-.03-.01-.06-.017-.09a5.838 5.838 0 0 0-1.9-3.247c.026-.043.053-.085.081-.127a5.974 5.974 0 0 1 1.959 3.33c.007.031.012.063.018.094" transform="translate(-1450.04 -678.368)" style="fill:#776eab"/>
            <path data-name="Path 5771" d="m1628.295 769.254.012.146c-.235 0-.743.047-.975.078a5.491 5.491 0 0 0-2.786 1.172 8.651 8.651 0 0 0-1.627 1.812l-.224.063a8.694 8.694 0 0 1 1.936-2.132 5.554 5.554 0 0 1 2.653-1.059c.25-.033.761-.077 1.012-.08" transform="translate(-1501.444 -711.774)" style="fill:#776eab"/>
        </g>
    </g>
</svg>
