<svg data-name="Group 7610" xmlns="http://www.w3.org/2000/svg" xmlns:xlink="http://www.w3.org/1999/xlink" width="182.063" height="120.76" viewBox="0 0 182.063 120.76">
    <defs>
        <clipPath id="f2jpqmrw9b">
            <path data-name="Rectangle 4773" style="fill:none" d="M0 0h182.063v120.76H0z"/>
        </clipPath>
        <clipPath id="cfthzwivgc">
            <path data-name="Rectangle 4765" style="fill:none" d="M0 0h182.063v120.759H0z"/>
        </clipPath>
        <clipPath id="akrmo7usnd">
            <path data-name="Path 10399" d="M1345.063 34.387a1.676 1.676 0 0 0-.982.248 1.024 1.024 0 0 0-.347.892v2a1 1 0 0 1-.047.333.532.532 0 0 1-.237.251 1.642 1.642 0 0 1-.589.186.4.4 0 0 0-.242.631.382.382 0 0 0 .242.128 1.679 1.679 0 0 1 .589.186.533.533 0 0 1 .237.251.993.993 0 0 1 .047.333v2a1.024 1.024 0 0 0 .347.892 1.669 1.669 0 0 0 .982.248h.115a.333.333 0 0 0 0-.665h-.142a.64.64 0 0 1-.461-.114.416.416 0 0 1-.1-.285V39.8a1.136 1.136 0 0 0-.855-1.121 1.136 1.136 0 0 0 .855-1.121v-2.107a.415.415 0 0 1 .1-.285.634.634 0 0 1 .461-.114h.142a.333.333 0 0 0 0-.665z" transform="translate(-1342.537 -34.387)" style="fill:none"/>
        </clipPath>
        <clipPath id="cvot8t0ppe">
            <path data-name="Path 10400" d="M1414.76 34.387a.317.317 0 0 0-.233.1.321.321 0 0 0 0 .466.316.316 0 0 0 .233.1h.142a.633.633 0 0 1 .461.114.416.416 0 0 1 .1.285v2.108a1.136 1.136 0 0 0 .854 1.121 1.135 1.135 0 0 0-.854 1.121v2.109a.418.418 0 0 1-.1.285.639.639 0 0 1-.461.114h-.142a.342.342 0 0 0-.333.333.341.341 0 0 0 .333.333h.114a1.67 1.67 0 0 0 .983-.248 1.023 1.023 0 0 0 .347-.892v-2a1.006 1.006 0 0 1 .047-.333.535.535 0 0 1 .238-.251 1.673 1.673 0 0 1 .589-.186.356.356 0 0 0 .323-.38.356.356 0 0 0-.323-.38 1.637 1.637 0 0 1-.589-.186.534.534 0 0 1-.238-.251 1.01 1.01 0 0 1-.047-.333v-2a1.022 1.022 0 0 0-.347-.892 1.677 1.677 0 0 0-.983-.248z" transform="translate(-1414.427 -34.387)" style="fill:none"/>
        </clipPath>
        <clipPath id="5yrqctm9mg">
            <path data-name="Rectangle 4771" style="fill:none" d="M0 0h40.552v40.552H0z"/>
        </clipPath>
        <clipPath id="tcifg4u1oh">
            <path data-name="Path 10448" d="M1389.8 719.356a20.276 20.276 0 1 1 20.277-20.276 20.3 20.3 0 0 1-20.277 20.276" transform="translate(-1369.529 -678.804)" style="fill:none"/>
        </clipPath>
        <linearGradient id="8d9tyhc5qa" x1="-37.524" y1="13.731" x2="-37.496" y2="13.731" gradientUnits="objectBoundingBox">
            <stop offset="0" stop-color="#2e719d"/>
            <stop offset="1" stop-color="#2e3c84"/>
        </linearGradient>
        <linearGradient id="emqr1saurf" x1="-39.535" y1="13.731" x2="-39.507" y2="13.731" xlink:href="#8d9tyhc5qa"/>
        <linearGradient id="l8mdye3ayi" x1="-2.806" y1="1.587" x2="-2.804" y2="1.587" gradientUnits="objectBoundingBox">
            <stop offset="0" stop-color="#eefbf4"/>
            <stop offset="1" stop-color="#d0d9f2"/>
        </linearGradient>
    </defs>
    <g data-name="Group 7609" style="clip-path:url(#f2jpqmrw9b)">
        <g data-name="Group 7597">
            <g data-name="Group 7596" style="clip-path:url(#cfthzwivgc)">
                <path data-name="Path 10390" d="M514.346 1290.692c0 1.642-28.177 2.974-62.94 2.974s-62.939-1.332-62.939-2.974 28.179-2.974 62.939-2.974 62.94 1.331 62.94 2.974" transform="translate(-356.19 -1180.722)" style="fill:#b2bfeb"/>
                <path data-name="Path 10391" d="M1516.322 1405.42c0 1.147-12.6 2.078-28.149 2.078s-28.148-.931-28.148-2.078 12.6-2.078 28.148-2.078 28.149.93 28.149 2.078" transform="translate(-1338.711 -1286.739)" style="fill:#b2bfeb"/>
                <path data-name="Path 10392" d="M598.36 40.349v101.486H488.077V40.349a4.278 4.278 0 0 1 4.264-4.265H594.1a4.277 4.277 0 0 1 4.265 4.265" transform="translate(-447.523 -33.086)" style="fill:#2d2e85"/>
                <path data-name="Path 10393" d="M598.36 40.349v4.265H488.077v-4.265a4.278 4.278 0 0 1 4.264-4.265H594.1a4.277 4.277 0 0 1 4.265 4.265" transform="translate(-447.523 -33.086)" style="fill:#6d7bed"/>
                <path data-name="Path 10394" d="M1751.786 76.555a.984.984 0 1 0 .984-.983.984.984 0 0 0-.984.983" transform="translate(-1606.23 -69.293)" style="fill:#ffcd3a"/>
                <path data-name="Path 10395" d="M1707.367 76.555a.984.984 0 1 0 .985-.983.984.984 0 0 0-.985.983" transform="translate(-1565.502 -69.293)" style="fill:#fff"/>
                <path data-name="Path 10396" d="M1662.953 76.555a.984.984 0 1 0 .984-.983.984.984 0 0 0-.984.983" transform="translate(-1524.778 -69.293)" style="fill:#fff"/>
                <path data-name="Path 10397" d="M561.161 76.555a.987.987 0 0 1-.984.984h-16.238a.984.984 0 1 1 0-1.968h16.238a.987.987 0 0 1 .984.983" transform="translate(-497.84 -69.293)" style="fill:#fff"/>
                <path data-name="Path 10398" d="M1292.274 13.186a.962.962 0 0 1-.96.958h-19.054a.962.962 0 0 1-.96-.958V.963a.962.962 0 0 1 .96-.959h19.054a.962.962 0 0 1 .96.959z" transform="translate(-1165.669 -.004)" style="fill:#ffcd3a"/>
            </g>
        </g>
        <g data-name="Group 7599">
            <g data-name="Group 7598" style="clip-path:url(#akrmo7usnd)" transform="translate(111.551 2.857)">
                <path data-name="Rectangle 4766" style="fill:url(#8d9tyhc5qa)" d="M0 0h2.973v8.586H0z"/>
            </g>
        </g>
        <g data-name="Group 7601">
            <g data-name="Group 7600" style="clip-path:url(#cvot8t0ppe)" transform="translate(117.525 2.857)">
                <path data-name="Rectangle 4767" style="fill:url(#emqr1saurf)" d="M0 0h2.973v8.586H0z"/>
            </g>
        </g>
        <g data-name="Group 7608">
            <g data-name="Group 7607" style="clip-path:url(#cfthzwivgc)">
                <path data-name="Path 10401" d="M32.7 1378.341c0 .709-7.319 1.285-16.349 1.285S0 1379.05 0 1378.341s7.32-1.285 16.349-1.285 16.349.575 16.349 1.285" transform="translate(0 -1262.637)" style="fill:#b2bfeb"/>
                <path data-name="Path 10402" d="m184.819 1032.889-1.24-1.243-15.214 15.2 1.24 1.242z" transform="translate(-154.375 -945.926)" style="fill:#b2bfeb"/>
                <path data-name="Path 10403" d="M40.267 1167.665a3.517 3.517 0 0 0 0-4.96l-.069-.07a3.519 3.519 0 0 0-4.96 0l-10.592 10.576a3.517 3.517 0 0 0 0 4.96l.069.069a3.517 3.517 0 0 0 4.96 0z" transform="translate(-21.661 -1065.093)" style="fill:#2d2e85"/>
                <path data-name="Rectangle 4768" transform="rotate(-44.961 131.791 49.642)" style="fill:#6d7bed" d="M0 0h.702v4.886H0z"/>
                <path data-name="Path 10404" d="m68.352 1270.285-3.452-3.457.5-.5 3.453 3.456z" transform="translate(-59.508 -1161.113)" style="fill:#6d7bed"/>
                <path data-name="Rectangle 4769" transform="rotate(-44.97 129.037 43.046)" style="fill:#6d7bed" d="M0 0h.702v4.884H0z"/>
                <path data-name="Path 10405" d="m114.853 1223.844-3.451-3.458.5-.5 3.451 3.457z" transform="translate(-102.145 -1118.53)" style="fill:#6d7bed"/>
                <path data-name="Path 10406" d="m36.433 1038.162-16.118-14.875 1.325-4.943a1.267 1.267 0 0 0-.294-1.1l-4.015-4.015a1.259 1.259 0 0 0-1.1-.294l-2.393.644a.348.348 0 0 0-.17.635l4.011 4.01a1.269 1.269 0 0 1 .3 1.1l-.735 2.75a1.26 1.26 0 0 1-.8.805l-2.755.737a1.259 1.259 0 0 1-1.1-.294l-4.01-4.01a.348.348 0 0 0-.636.17l-.643 2.393a1.259 1.259 0 0 0 .294 1.1l4.016 4.015a1.261 1.261 0 0 0 1.1.294l4.941-1.326 14.884 16.126a1.392 1.392 0 0 0 1.1.386l2.14-.32a.946.946 0 0 0 .746-.748l.314-2.146a1.4 1.4 0 0 0-.387-1.1" transform="translate(-6.656 -928.742)" style="fill:#6d7bed"/>
                <path data-name="Path 10407" d="M108.2 736.2v9.431a1.892 1.892 0 0 1-1.886 1.886H91.226a1.892 1.892 0 0 1-1.886-1.886V736.2a1.892 1.892 0 0 1 1.886-1.886h15.09a1.892 1.892 0 0 1 1.884 1.886" transform="translate(-81.917 -673.301)" style="fill:#f55877"/>
                <path data-name="Path 10408" d="M242.747 780.383a.5.5 0 0 1-.352-.85l2.478-2.477-2.478-2.477a.5.5 0 0 1 .7-.7l2.829 2.829a.5.5 0 0 1 0 .7l-2.829 2.83a.5.5 0 0 1-.352.146" transform="translate(-222.121 -709.439)" style="fill:#fff"/>
                <path data-name="Path 10409" d="M120.729 780.383a.5.5 0 0 1-.352-.146l-2.829-2.83a.5.5 0 0 1 0-.7l2.829-2.829a.5.5 0 0 1 .7.7l-2.477 2.477 2.477 2.477a.5.5 0 0 1-.352.85" transform="translate(-107.647 -709.439)" style="fill:#fff"/>
                <path data-name="Path 10410" d="M185.995 780.376a.492.492 0 0 1-.157-.025.5.5 0 0 1-.315-.63l1.886-5.659a.5.5 0 1 1 .945.315l-1.886 5.658a.5.5 0 0 1-.473.34" transform="translate(-170.084 -709.433)" style="fill:#fff"/>
                <path data-name="Path 10411" d="M588.438 243.523h-1.916a.92.92 0 1 1 0-1.839h1.916a.92.92 0 1 1 0 1.839" transform="translate(-536.944 -221.603)" style="fill:#fff"/>
                <path data-name="Path 10412" d="M588.438 331.819h-1.916a.92.92 0 1 1 0-1.839h1.916a.92.92 0 1 1 0 1.839" transform="translate(-536.944 -302.562)" style="fill:#fff"/>
                <path data-name="Path 10413" d="M588.438 420.11h-1.916a.919.919 0 1 1 0-1.839h1.916a.919.919 0 1 1 0 1.839" transform="translate(-536.944 -383.517)" style="fill:#fff"/>
                <path data-name="Path 10414" d="M588.438 508.406h-1.916a.92.92 0 0 1 0-1.839h1.916a.92.92 0 1 1 0 1.839" transform="translate(-536.944 -464.477)" style="fill:#fff"/>
                <path data-name="Path 10415" d="M588.438 596.705h-1.916a.92.92 0 1 1 0-1.839h1.916a.92.92 0 1 1 0 1.839" transform="translate(-536.944 -545.439)" style="fill:#fff"/>
                <path data-name="Path 10416" d="M588.438 685h-1.916a.919.919 0 1 1 0-1.839h1.916a.919.919 0 1 1 0 1.839" transform="translate(-536.944 -626.395)" style="fill:#fff"/>
                <path data-name="Path 10417" d="M588.438 773.292h-1.916a.919.919 0 1 1 0-1.839h1.916a.919.919 0 1 1 0 1.839" transform="translate(-536.944 -707.353)" style="fill:#fff"/>
                <path data-name="Path 10418" d="M588.438 861.587h-1.916a.919.919 0 1 1 0-1.839h1.916a.919.919 0 1 1 0 1.839" transform="translate(-536.944 -788.312)" style="fill:#fff"/>
                <path data-name="Path 10419" d="M588.438 949.87h-1.916a.92.92 0 0 1 0-1.839h1.916a.92.92 0 1 1 0 1.839" transform="translate(-536.944 -869.258)" style="fill:#fff"/>
                <path data-name="Path 10420" d="M588.438 1038.165h-1.916a.92.92 0 0 1 0-1.84h1.916a.92.92 0 1 1 0 1.84" transform="translate(-536.944 -950.217)" style="fill:#fff"/>
                <path data-name="Path 10421" d="M588.438 1126.468h-1.916a.919.919 0 1 1 0-1.839h1.916a.919.919 0 1 1 0 1.839" transform="translate(-536.944 -1031.184)" style="fill:#fff"/>
                <path data-name="Path 10422" d="M588.438 1214.762h-1.916a.919.919 0 1 1 0-1.839h1.916a.919.919 0 1 1 0 1.839" transform="translate(-536.944 -1112.141)" style="fill:#fff"/>
                <path data-name="Path 10423" d="M727.275 243.523h-16.361a.92.92 0 0 1 0-1.839h16.362a.92.92 0 0 1 0 1.839" transform="translate(-651.001 -221.603)" style="fill:#fff"/>
                <path data-name="Path 10424" d="M946.06 243.519a.92.92 0 1 1 0-1.839h16.361a.919.919 0 1 1 0 1.839z" transform="translate(-866.608 -221.599)" style="fill:#6d7bed"/>
                <path data-name="Path 10425" d="M793.852 331.819H772.09a.92.92 0 1 1 0-1.839h21.762a.92.92 0 0 1 0 1.839" transform="translate(-707.093 -302.562)" style="fill:#ffcd3a"/>
                <path data-name="Path 10426" d="M1086.234 331.819h-10.167a.92.92 0 1 1 0-1.839h10.167a.92.92 0 0 1 0 1.839" transform="translate(-985.813 -302.562)" style="fill:#fff"/>
                <path data-name="Path 10427" d="M1243 331.819h-10.166a.92.92 0 1 1 0-1.839H1243a.92.92 0 0 1 0 1.839" transform="translate(-1129.556 -302.562)" style="fill:#6d7bed"/>
                <path data-name="Path 10428" d="M835.827 420.11h-12.243a.919.919 0 0 1 0-1.839h12.242a.919.919 0 0 1 0 1.839" transform="translate(-754.31 -383.517)" style="fill:#fff"/>
                <path data-name="Path 10429" d="M845.993 508.406h-22.409a.92.92 0 0 1 0-1.839h22.409a.92.92 0 0 1 0 1.839" transform="translate(-754.31 -464.477)" style="fill:#fff"/>
                <path data-name="Path 10430" d="M1144.05 508.405h-14.456a.919.919 0 1 1 0-1.838h14.456a.919.919 0 1 1 0 1.838" transform="translate(-1034.893 -464.477)" style="fill:#ffcd3a"/>
                <path data-name="Path 10431" d="M1361.02 508.405h-23.033a.919.919 0 1 1 0-1.838h23.033a.919.919 0 0 1 0 1.838" transform="translate(-1225.97 -464.477)" style="fill:#6d7bed"/>
                <path data-name="Path 10432" d="M914.959 596.705h-16.69a.92.92 0 1 1 0-1.839h16.69a.92.92 0 1 1 0 1.839" transform="translate(-822.788 -545.439)" style="fill:#ffcd3a"/>
                <path data-name="Path 10433" d="M1144.255 596.705h-16.69a.92.92 0 0 1 0-1.839h16.69a.92.92 0 0 1 0 1.839" transform="translate(-1033.033 -545.439)" style="fill:#fff"/>
                <path data-name="Path 10434" d="M832.491 685h-8.906a.919.919 0 0 1 0-1.839h8.906a.919.919 0 0 1 0 1.839" transform="translate(-754.31 -626.395)" style="fill:#fff"/>
                <path data-name="Path 10435" d="M972.055 685h-8.906a.919.919 0 1 1 0-1.839h8.906a.919.919 0 0 1 0 1.839" transform="translate(-882.277 -626.395)" style="fill:#fff"/>
                <path data-name="Path 10436" d="M1113.79 685h-11.079a.919.919 0 0 1 0-1.839h11.079a.919.919 0 1 1 0 1.839" transform="translate(-1010.244 -626.395)" style="fill:#6d7bed"/>
                <path data-name="Path 10437" d="M914.006 773.292h-15.737a.919.919 0 1 1 0-1.839h15.737a.919.919 0 1 1 0 1.839" transform="translate(-822.788 -707.353)" style="fill:#6d7bed"/>
                <path data-name="Path 10438" d="M926.4 861.587h-28.131a.919.919 0 1 1 0-1.839H926.4a.919.919 0 0 1 0 1.839" transform="translate(-822.788 -788.312)" style="fill:#fff"/>
                <path data-name="Path 10439" d="M839.639 949.87h-16.055a.92.92 0 0 1 0-1.839h16.055a.92.92 0 0 1 0 1.839" transform="translate(-754.31 -869.258)" style="fill:#6d7bed"/>
                <path data-name="Path 10440" d="M908.6 1038.165h-10.331a.92.92 0 1 1 0-1.84H908.6a.92.92 0 0 1 0 1.84" transform="translate(-822.788 -950.217)" style="fill:#ffcd3a"/>
                <path data-name="Path 10441" d="M1074.1 1038.165h-17.156a.92.92 0 0 1 0-1.84h17.156a.92.92 0 0 1 0 1.84" transform="translate(-968.283 -950.217)" style="fill:#fff"/>
                <path data-name="Path 10442" d="M783.061 1126.468H772.09a.919.919 0 1 1 0-1.839h10.971a.919.919 0 1 1 0 1.839" transform="translate(-707.093 -1031.184)" style="fill:#fff"/>
                <path data-name="Path 10443" d="M965.5 1126.468h-25.424a.919.919 0 1 1 0-1.839H965.5a.919.919 0 1 1 0 1.839" transform="translate(-861.121 -1031.184)" style="fill:#6d7bed"/>
                <path data-name="Path 10444" d="M841.229 1214.762h-17.644a.919.919 0 0 1 0-1.839h17.643a.919.919 0 0 1 0 1.839" transform="translate(-754.311 -1112.141)" style="fill:#fff"/>
                <path data-name="Path 10445" d="M1330.943 614.607a25.614 25.614 0 1 0 25.6 25.612 25.616 25.616 0 0 0-25.6-25.612m0 45.886a20.276 20.276 0 1 1 20.277-20.276 20.3 20.3 0 0 1-20.277 20.276" transform="translate(-1196.872 -563.54)" style="fill:#ffcd3a"/>
                <path data-name="Path 10446" d="m1822.42 1142.811 10.4 10.219a7.879 7.879 0 0 0 11.142-11.142l-10.4-10.222z" transform="translate(-1670.995 -1037.636)" style="fill:#ffcd3a"/>
                <path data-name="Path 10447" d="m1789.256 1090.176-8.354 8.367-5.278-5.291.13-.131a25.489 25.489 0 0 0 8.108-8.107l.117-.117z" transform="translate(-1628.087 -994.754)" style="fill:#4d4d97"/>
                <g data-name="Group 7606" style="opacity:.5;mix-blend-mode:hard-light;isolation:isolate">
                    <g data-name="Group 7605">
                        <g data-name="Group 7604" style="clip-path:url(#5yrqctm9mg)" transform="translate(113.794 56.402)">
                            <g data-name="Group 7603">
                                <g data-name="Group 7602" style="clip-path:url(#tcifg4u1oh)">
                                    <path data-name="Rectangle 4770" style="fill:url(#l8mdye3ayi)" d="M0 0h40.552v40.552H0z"/>
                                </g>
                            </g>
                        </g>
                    </g>
                </g>
                <path data-name="Path 10449" d="m1516.453 847.967.873-.872.107-1.664a5.528 5.528 0 0 1-1.062-.53l-.6 2.013a.555.555 0 1 1-1.064-.315l.718-2.419c0-.006.005-.008.007-.014s-.029-.022-.041-.036c-.061-.06-.106-.13-.165-.193-.01 0-.017.014-.027.017l-2.42.718a.555.555 0 0 1-.316-1.064l2.063-.612a5.4 5.4 0 0 1-.57-1.252l-1.865.121-.873.872a.555.555 0 1 1-.785-.784l1.021-1.022a.561.561 0 0 1 .357-.161l1.978-.128a3.4 3.4 0 0 1 3.691-3.716l.125-1.949a.558.558 0 0 1 .161-.356l1.021-1.02a.555.555 0 0 1 .785.785l-.873.872-.119 1.83a5.391 5.391 0 0 1 1.262.567l.6-2.025a.555.555 0 0 1 1.064.316l-.715 2.411c.066.06.138.107.2.171.017.018.03.038.046.055l2.394-.71a.555.555 0 0 1 .551.924.544.544 0 0 1-.234.14l-1.976.588a5.342 5.342 0 0 1 .53 1.069l1.626-.106.873-.872a.555.555 0 0 1 .785.784l-1.02 1.021a.558.558 0 0 1-.358.162l-1.632.106a3.47 3.47 0 0 1-4.054 4.022l-.108 1.664a.558.558 0 0 1-.162.357l-1.021 1.02a.555.555 0 0 1-.785-.785" transform="translate(-1384.784 -764.188)" style="fill:#f55877"/>
                <path data-name="Path 10450" d="M138.292 177.324c1.489 2.383.409 4.333-2.4 4.333h-39.61c-2.81 0-3.891-1.95-2.4-4.333l19.5-31.2c1.489-2.383 3.926-2.383 5.416 0z" transform="translate(-85.467 -132.348)" style="fill:#ffcd3a"/>
                <path data-name="Path 10451" d="M332.283 245.4c0 2.951-1.617 13.575-3.611 13.575s-3.61-10.624-3.61-13.575 1.617-6.5 3.61-6.5 3.611 3.548 3.611 6.5" transform="translate(-298.053 -219.046)" style="fill:#2d2e85"/>
                <path data-name="Path 10452" d="M346.994 515.855a1.788 1.788 0 1 0 1.788-1.788 1.788 1.788 0 0 0-1.788 1.788" transform="translate(-318.162 -471.353)" style="fill:#2d2e85"/>
                <path data-name="Path 10453" d="M1781.142 271.629a5.091 5.091 0 0 1-3.123-1.294l-7.685-7.685a5.091 5.091 0 0 1-1.294-3.123v-10.869a5.089 5.089 0 0 1 1.294-3.123l7.685-7.685a5.09 5.09 0 0 1 3.123-1.294h10.868a5.089 5.089 0 0 1 3.123 1.294l7.685 7.685a5.088 5.088 0 0 1 1.294 3.123v10.869a5.09 5.09 0 0 1-1.294 3.123l-7.685 7.685a5.09 5.09 0 0 1-3.123 1.294z" transform="translate(-1622.049 -216.901)" style="fill:#fff"/>
                <path data-name="Path 10454" d="M1806.393 285.578h-8.959a5.944 5.944 0 0 1-3.77-1.561l-6.335-6.335a5.942 5.942 0 0 1-1.562-3.771v-8.958a5.943 5.943 0 0 1 1.562-3.771l6.335-6.335a5.943 5.943 0 0 1 3.77-1.562h8.959a5.942 5.942 0 0 1 3.77 1.562l6.335 6.335a5.94 5.94 0 0 1 1.562 3.771v8.958a5.941 5.941 0 0 1-1.562 3.771l-6.335 6.335a5.943 5.943 0 0 1-3.77 1.561m-8.959-30.463a4.23 4.23 0 0 0-2.477 1.026l-6.335 6.335a4.228 4.228 0 0 0-1.026 2.477v8.958a4.232 4.232 0 0 0 1.026 2.477l6.335 6.335a4.232 4.232 0 0 0 2.477 1.026h8.959a4.232 4.232 0 0 0 2.477-1.026l6.335-6.335a4.232 4.232 0 0 0 1.026-2.477v-8.958a4.229 4.229 0 0 0-1.026-2.477l-6.335-6.335a4.23 4.23 0 0 0-2.477-1.026z" transform="translate(-1637.387 -232.24)" style="fill:#f55877"/>
                <path data-name="Path 10455" d="M1844.5 407.135a.47.47 0 0 1-.14-.346v-6.55a.487.487 0 0 1 .14-.35.46.46 0 0 1 .345-.145h2.546a2.711 2.711 0 0 1 1.786.528 1.763 1.763 0 0 1 .631 1.424 1.742 1.742 0 0 1-.3 1.041 1.822 1.822 0 0 1-.76.621 2.387 2.387 0 0 1 1.063.658 1.631 1.631 0 0 1 .415 1.144 1.917 1.917 0 0 1-.669 1.554 3.242 3.242 0 0 1-2.1.561h-2.612a.468.468 0 0 1-.345-.14m2.633-4.133a2.144 2.144 0 0 0 1.349-.324 1.114 1.114 0 0 0 .388-.907.953.953 0 0 0-.416-.809 1.9 1.9 0 0 0-1.138-.3h-1.975V403zm.226 3.356a2.568 2.568 0 0 0 1.484-.324 1.075 1.075 0 0 0 .437-.917q0-1.231-1.909-1.23h-2.029v2.471zm6.043.7a2.782 2.782 0 0 1-1.165-.987 2.811 2.811 0 0 1-.454-1.624v-4.262a.487.487 0 0 1 .14-.351.46.46 0 0 1 .345-.146.5.5 0 0 1 .5.5v4.295a1.964 1.964 0 0 0 .3 1.1 1.854 1.854 0 0 0 .782.679 2.48 2.48 0 0 0 2.072 0 1.864 1.864 0 0 0 .782-.679 1.967 1.967 0 0 0 .3-1.1v-4.295a.487.487 0 0 1 .14-.351.46.46 0 0 1 .345-.146.5.5 0 0 1 .5.5v4.262a2.735 2.735 0 0 1-1.618 2.611 3.535 3.535 0 0 1-2.957 0m7.974-.166a3.409 3.409 0 0 1-1.337-1.371 4.143 4.143 0 0 1-.475-2 4.075 4.075 0 0 1 .5-2.029 3.521 3.521 0 0 1 1.354-1.37 3.8 3.8 0 0 1 1.9-.486 4.78 4.78 0 0 1 1.473.205 5.423 5.423 0 0 1 1.214.572.38.38 0 0 1 .151.151.454.454 0 0 1 .065.237.435.435 0 0 1-.454.443.5.5 0 0 1-.227-.054 4.507 4.507 0 0 0-1.014-.453 3.833 3.833 0 0 0-1.1-.151 3.138 3.138 0 0 0-1.479.345 2.5 2.5 0 0 0-1.03 1.009 3.476 3.476 0 0 0-.022 3.086 2.592 2.592 0 0 0 1.014 1.047 3.087 3.087 0 0 0 1.57.382 3.9 3.9 0 0 0 1.889-.474v-1.953h-1.781a.443.443 0 1 1 0-.885h2.126a.516.516 0 0 1 .518.518v2.449a.739.739 0 0 1-.114.4.7.7 0 0 1-.3.265 5.469 5.469 0 0 1-2.471.6 3.933 3.933 0 0 1-1.975-.49" transform="translate(-1691.108 -366.43)" style="fill:#2d2e85"/>
            </g>
        </g>
    </g>
</svg>
