<svg data-name="Group 5204" xmlns="http://www.w3.org/2000/svg" width="178.69" height="121.433" viewBox="0 0 178.69 121.433">
    <defs>
        <clipPath id="2brw5hsqea">
            <path data-name="Rectangle 3562" style="fill:none" d="M0 0h178.69v121.433H0z"/>
        </clipPath>
    </defs>
    <g data-name="Group 5203" style="clip-path:url(#2brw5hsqea)">
        <path data-name="Path 7153" d="M156 120.5H19.047C17.75 118.853-11.771 80.06 5.3 39.84 6.023 38.132 21.007 4.391 49.4.357c21.357-3.035 26.338 14.146 61.2 20.5 29.846 5.442 39.6-4.709 52.907 5.48 19.771 15.144 14.739 50.222 14.3 53.047-3.428 21.928-16.5 35.987-21.8 41.117" style="fill:#efeefe"/>
        <path data-name="Path 7154" d="M1221.682 1210.3a8.147 8.147 0 1 0-8.147 8.147 8.147 8.147 0 0 0 8.147-8.147" transform="translate(-1120.703 -1117.699)" style="fill:#46b283"/>
        <path data-name="Path 7155" d="m1279.577 1282.23 1.829 1.917 4.041-4.953" transform="translate(-1189.68 -1189.325)" style="stroke-linejoin:round;stroke-linecap:round;stroke:#fff;stroke-width:22.627px;fill:none"/>
        <path data-name="Path 7156" d="M782.359 1281.523v-6.223a8.8 8.8 0 0 0-8.8-8.8h0a8.8 8.8 0 0 0-8.8 8.8v6.227" transform="translate(-711.025 -1177.516)" style="stroke-width:26.034px;stroke:#d3d5fc;stroke-linejoin:round;stroke-linecap:round;fill:none"/>
        <path data-name="Rectangle 3551" transform="translate(53.158 103.187)" style="fill:#f89f4f" d="M0 0h22.088v16.404H0z"/>
        <path data-name="Rectangle 3552" transform="translate(50.208 103.187)" style="fill:#fdc854" d="M0 0h22.088v16.404H0z"/>
        <path data-name="Path 7157" d="M845.234 1539.591a2.176 2.176 0 1 0-2.176 2.176 2.176 2.176 0 0 0 2.176-2.176" transform="translate(-781.807 -1429.404)" style="fill:#f89f4f"/>
        <path data-name="Rectangle 3553" transform="translate(59.973 109.794)" style="fill:#f89f4f" d="M0 0h2.558v4.973H0z"/>
        <path data-name="Rectangle 3554" transform="translate(69.763 100.52)" style="fill:#f89f4f" d="M0 0h3.142v2.667H0z"/>
        <path data-name="Line 1244" transform="translate(13.017 120.501)" style="stroke-width:26.51px;stroke-miterlimit:10;stroke:#d3d5fc;stroke-linecap:round;fill:none" d="M0 0h137.804"/>
        <path data-name="Line 1245" transform="translate(154.783 120.501)" style="stroke-width:26.51px;stroke-miterlimit:10;stroke:#d3d5fc;stroke-linecap:round;fill:none" d="M0 0h8.416"/>
        <path data-name="Rectangle 3555" transform="translate(56.079 27.805)" style="fill:#fff" d="M0 0h80.942v46.645H0z"/>
        <path data-name="Path 7158" d="M899.409 467.661c-3.77.449-7.957 1.538-9.087 4.387-2.3 5.809 10.741 12.284 9.4 20.368-1.327 8.007-16.256 14.491-20.994 10.654-2.829-2.292-2.1-8.391 0-12.221 5.251-9.6 22.21-10.7 28.071-4.778 1.491 1.507 3.472 4.691 2.539 6-.717 1.008-3.214.989-3.934-.07-1.238-1.818 1.8-8.109 6.042-8.431 4.773-.362 8.625 7.027 7.391 8.844a2.529 2.529 0 0 1-3.447 0c-1.183-1.655 1.748-7.758 6-8.267 4.9-.587 9.254 6.53 8.1 8.58-.654 1.16-3.4 1.288-4.074.313-.932-1.353 1.9-5.317 5.013-7.52a16.673 16.673 0 0 1 6.58-2.507 34.552 34.552 0 0 1 10.335-.708" transform="translate(-815.267 -434.806)" style="stroke-width:2.31px;stroke:#191245;stroke-linejoin:round;stroke-linecap:round;fill:none"/>
        <path data-name="Rectangle 3556" transform="translate(135.498 26.283)" style="stroke:#bbb4f8;stroke-width:22.887px;stroke-linejoin:round;stroke-linecap:round;fill:none" d="M0 0h3.044v3.044H0z"/>
        <path data-name="Rectangle 3557" transform="translate(54.557 26.283)" style="stroke:#bbb4f8;stroke-width:22.887px;stroke-linejoin:round;stroke-linecap:round;fill:none" d="M0 0h3.044v3.044H0z"/>
        <path data-name="Rectangle 3558" transform="translate(54.557 72.927)" style="stroke:#bbb4f8;stroke-width:22.887px;stroke-linejoin:round;stroke-linecap:round;fill:none" d="M0 0h3.044v3.044H0z"/>
        <path data-name="Rectangle 3559" transform="translate(135.498 72.927)" style="stroke:#bbb4f8;stroke-width:22.887px;stroke-linejoin:round;stroke-linecap:round;fill:none" d="M0 0h3.044v3.044H0z"/>
        <path data-name="Path 7159" d="M359.6 432.508a37.548 37.548 0 0 1-12.752-2.772A37.552 37.552 0 0 1 334 431.98a22.37 22.37 0 0 0 3.594 16.217 21.445 21.445 0 0 0 8.753 7.117 21.446 21.446 0 0 0 9.039-6.749 22.37 22.37 0 0 0 4.259-16.055" transform="translate(-310.266 -399.545)" style="fill:#9087f4"/>
        <path data-name="Path 7160" d="M357.327 432.349a37.525 37.525 0 0 1-10.476-2.613 37.551 37.551 0 0 1-12.856 2.244 22.37 22.37 0 0 0 3.594 16.217 21.128 21.128 0 0 0 6.348 5.861 21.444 21.444 0 0 0 9.028-6.745 22.181 22.181 0 0 0 4.362-14.965" transform="translate(-310.266 -399.546)" style="fill:#9087f4"/>
        <path data-name="Path 7161" d="M428.723 488.877a7.409 7.409 0 1 0-7.409 7.409 7.409 7.409 0 0 0 7.409-7.409" transform="translate(-384.827 -447.643)" style="fill:#efeefe"/>
        <path data-name="Path 7162" d="M428.723 488.877a7.409 7.409 0 1 0-7.409 7.409 7.409 7.409 0 0 0 7.409-7.409" transform="translate(-384.827 -447.643)" style="fill:#9087f4"/>
        <path data-name="Path 7163" d="M437.508 599.432a7.4 7.4 0 0 0 6.185-3.33 7.025 7.025 0 0 0-12.37 0 7.4 7.4 0 0 0 6.185 3.33" transform="translate(-401.02 -550.789)" style="fill:#fff"/>
        <path data-name="Path 7164" d="M484.436 503.682a2.855 2.855 0 1 0-2.855 2.855 2.854 2.854 0 0 0 2.855-2.855" transform="translate(-445.094 -465.642)" style="fill:#fff"/>
        <path data-name="Path 7165" d="m1904.67 679.717.609-.923a1.354 1.354 0 0 0-.518-.432 5.26 5.26 0 0 0-.84-.187 2.55 2.55 0 0 1-.609-.254l-.06.091.92.607a.219.219 0 1 1-.1.149l-.92-.607-.06.091a2.545 2.545 0 0 1 .474.46 5.239 5.239 0 0 0 .5.7 1.357 1.357 0 0 0 .6.306" transform="translate(-1769.392 -630.294)" style="fill:#fdc854"/>
        <path data-name="Path 7166" d="m1904.984 682.424-.5-.332-.009.014a.219.219 0 0 1-.4-.156l-.92-.607-.06.091a2.548 2.548 0 0 1 .474.46 5.236 5.236 0 0 0 .5.7 1.357 1.357 0 0 0 .6.306l.314-.475" transform="translate(-1769.392 -633.476)" style="fill:#f89f4f"/>
        <path data-name="Path 7167" d="M1933.557 696.566a.63.63 0 0 0 .609-.923l-8.026-5.3-.1.073a1.261 1.261 0 0 0-.474.708l-.036.142z" transform="translate(-1790.254 -641.848)" style="fill:#4463cd"/>
        <path data-name="Path 7168" d="M1934.138 702.326a.077.077 0 0 0 .007-.012s-.063.072-.123.144q-3.085-1.942-6.112-3.969c-2.015-1.349-.237-.236-2.214-1.642a1.95 1.95 0 0 0-.127.325 2.24 2.24 0 0 0-.035.142l8.026 5.3a.632.632 0 0 0 .58-.284" transform="translate(-1790.255 -647.891)" style="fill:#2e3192"/>
        <path data-name="Path 7169" d="m2040.445 765.778-.606.919a.63.63 0 0 0 .606-.919" transform="translate(-1896.53 -711.978)" style="fill:#f89f4f"/>
        <path data-name="Path 7170" d="m1995.868 754.633.75-1.137-.216-.142-.652 1a.17.17 0 0 1-.236.048l-2.629-1.735a.253.253 0 0 0 .072.35l2.561 1.689a.252.252 0 0 0 .35-.072" transform="translate(-1852.838 -699.787)" style="fill:#f89f4f"/>
        <path data-name="Path 7171" d="M1956.89 723.346c-.921-.641-1.074-.891-1.025-1 .067-.146.594-.183.9.141a.757.757 0 0 1 .124.856" transform="translate(-1818.448 -671.499)" style="fill:#fb9c98"/>
        <path data-name="Path 7172" d="M1822.333 843.91a7.355 7.355 0 0 0-.013 1.212c-1.753-.085-3.1-.17-3.907-.224a14.562 14.562 0 0 0-5.027.5c-.381.14-.751.327-.786.62-.044.368.466.694.552.748 0 0 6.569 2.774 9.938 1.562.923-.332 1.449-1.372 1.726-2.706a8.2 8.2 0 0 0-2.484-1.707" transform="translate(-1685.253 -784.621)" style="fill:#fb9c98"/>
        <path data-name="Path 7173" d="M1953.405 739.693a42.117 42.117 0 0 0-.134-.979l-.019-.127c-.056-.365-.094-.576-.094-.576l-.354.24-.708.48s-.612 2.7-.953 5.06l-.023.164a29.12 29.12 0 0 0-.083.642 17.1 17.1 0 0 0-.1 1.116c.475.35 1.012.671 1.557 1 .319.191.631.358.931.5a23.507 23.507 0 0 0 .079-6.7 21.468 21.468 0 0 0-.1-.823" transform="translate(-1813.871 -686.163)" style="fill:#fb9c98"/>
        <path data-name="Path 7174" d="m1965.1 709.893-.046-.741a1.766 1.766 0 0 0-.016-1.3 1.489 1.489 0 0 0-.661-.731c-.112-.057-.456-.234-.626-.107-.188.14-.128.623.16 1.194v1.663z" transform="translate(-1825.691 -657.299)" style="fill:#fb9c98"/>
        <path data-name="Path 7175" d="m1835.006 1579.524.573-7.082h-2.656l.913 7.082z" transform="translate(-1704.152 -1461.971)" style="fill:#f6a19e"/>
        <path data-name="Rectangle 3560" transform="translate(128.921 119.05)" style="fill:#ffc5ae" d="M0 0h5.652v.541H0z"/>
        <path data-name="Path 7176" d="M1837.871 1670.894s-.562.228-.531 1.662h5.329v-.343a.562.562 0 0 0-.422-.544l-3-.775z" transform="translate(-1708.257 -1553.505)" style="fill:#9087f4"/>
        <path data-name="Path 7177" d="m1757.142 1088.6 4.627 30.037a.945.945 0 0 0 .934.8h.729a.944.944 0 0 0 .943-.881c.535-8.033 1.282-28.381 1.174-31.241a25.9 25.9 0 0 0-1.758-7.745 75.16 75.16 0 0 1-7.59 0c-.119 1.544.354 4.4.4 6.231.038 1.6.39 1.423.545 2.8" transform="translate(-1632.802 -1003.727)" style="fill:#2e3192"/>
        <path data-name="Path 7178" d="M1847.052 1098.353a2.332 2.332 0 0 0-1.559.823c-.549.76-.205 1.7.42 4.494.352 1.578.529 2.368.681 3.4a24.808 24.808 0 0 1 .272 4.4v.109c-.028.89-.189 6.058-.146 7.749 0 .062.009.322.014.676.039 2.747-.1 3.343-.318 8.489a361.127 361.127 0 0 0-.256 8.4h.058a.944.944 0 0 0 .943-.881c.535-8.032 1.282-28.381 1.174-31.241a24.358 24.358 0 0 0-1.278-6.425" transform="translate(-1715.583 -1021.188)" style="fill:#191245"/>
        <path data-name="Path 7179" d="m1680.389 1579.524-.886-7.082H1682l-.439 7.082z" transform="translate(-1561.51 -1461.971)" style="fill:#f6a19e"/>
        <path data-name="Path 7180" d="M1646.324 900.6a3.139 3.139 0 0 1-2.355 1.048 3.215 3.215 0 0 1-.711-.08 46.818 46.818 0 0 0-.782 18.1l1.1.046q.217-2.307.49-4.687.34-2.956.738-5.783l1.526-8.639" transform="translate(-1526.62 -837.328)" style="fill:#fb9c98"/>
        <path data-name="Path 7181" d="m1646.458 1161.175.022.756a1.566 1.566 0 0 0-.2.75 1.808 1.808 0 0 0 .472 1.251c.219.227.6.486.762.379s.108-.67.107-.656l-.069-2.4z" transform="translate(-1530.624 -1079.597)" style="fill:#fb9c98"/>
        <path data-name="Path 7182" d="M1663.1 1172.59c.725.673.828.911.772 1-.077.12-.541.087-.77-.235a.668.668 0 0 1 0-.763" transform="translate(-1546.148 -1090.21)" style="fill:#fb9c98"/>
        <path data-name="Path 7183" d="m1649.61 854 3.2.823 2.994-5.146-.013-1.7a6.326 6.326 0 0 0-2.417.818 6.706 6.706 0 0 0-1.771 1.555 10.3 10.3 0 0 0-2 3.654" transform="translate(-1533.717 -788.397)" style="fill:#9087f4"/>
        <path data-name="Path 7184" d="M1683.088 1677.554a1.9 1.9 0 0 1 .3-.856 1.713 1.713 0 0 0 1.625 0 1.6 1.6 0 0 1 .343.885 1.563 1.563 0 0 1-.1.651h-2.113a1.887 1.887 0 0 1-.058-.68" transform="translate(-1564.835 -1558.902)" style="fill:#f95f6a"/>
        <path data-name="Rectangle 3561" transform="translate(118.052 119.05)" style="fill:#ffc5ae" d="M0 0h2.676v.541H0z"/>
        <path data-name="Path 7185" d="M1682.4 1670.894h1.375l.124.032c.14.1.5.47.478 1.63h-2.508c-.031-1.434.532-1.662.532-1.662" transform="translate(-1563.703 -1553.505)" style="fill:#9087f4"/>
        <path data-name="Path 7186" d="m1663.9 1119.711 1.164-.008a.54.54 0 0 0 .531-.466l4.234-30.637-.2-8.417-6.075-.611a24.54 24.54 0 0 0-1.667 9.746c.028 2.573 1.059 23.628 1.475 29.89a.539.539 0 0 0 .542.5" transform="translate(-1545.127 -1003.727)" style="fill:#2e3192"/>
        <path data-name="Path 7187" d="M1685.638 856.855a105.75 105.75 0 0 1 1.248-13.876 2.87 2.87 0 0 1 2.539-2.412 26.944 26.944 0 0 0 3.7-.541l2.63.744a2.508 2.508 0 0 1 1.164.715 2.68 2.68 0 0 1 .62 1.219c.486 2.015.155 7.676.259 10.534a23.237 23.237 0 0 0 .438 3.708 30.021 30.021 0 0 1-12.6-.091" transform="translate(-1567.214 -781.01)" style="fill:#9087f4"/>
        <path data-name="Path 7188" d="M1699.057 1143.309h-3.081a.188.188 0 0 1 0-.375h3.081a.188.188 0 0 1 0 .375" transform="translate(-1576.651 -1062.637)" style="fill:#191245"/>
        <path data-name="Path 7189" d="M1733.034 1218.334a11.544 11.544 0 0 1-1.811.032 2.5 2.5 0 0 1-.545-.091" transform="translate(-1609.089 -1132.685)" style="stroke-width:5.033px;stroke:#191245;stroke-miterlimit:10;stroke-linecap:round;fill:none"/>
        <path data-name="Path 7190" d="m1729.35 1217.547-.018-.762-1.362.041s-.476 9.818-1.327 14.04l-.539 10.172z" transform="translate(-1604.837 -1131.3)" style="fill:#191245"/>
        <path data-name="Path 7191" d="M1687.322 892.021a27.159 27.159 0 0 1-9.9 1.328 21.68 21.68 0 0 1-5.03-1.055c.5-4.914 1.474-11.938 1.975-16.852l11.144 1.067q.247 3.92.636 8.035c.183 1.915.963 5.634 1.18 7.479" transform="translate(-1554.894 -813.937)" style="fill:#9087f4"/>
        <path data-name="Path 7192" d="M1853.986 918.123c-.218-1.844-1-5.563-1.18-7.479q-.346-3.639-.577-7.129l-.583.029s.487 10.28.418 15.126c.76-.187 1.417-.38 1.922-.548" transform="translate(-1721.559 -840.04)" style="fill:#706ee0"/>
        <path data-name="Path 7193" d="M1797.133 844.4a44.256 44.256 0 0 1 7.034.486q.393.059.78.124c.008 1.282.015 3.321.023 4.6-1.316.215-2.631-.328-3.947-.113l-3.89-5.1" transform="translate(-1670.875 -785.072)" style="fill:#9087f4"/>
        <path data-name="Path 7194" d="M1760.7 763.308a2.27 2.27 0 0 1 .86 1.326c.208 1.066-.451 2.5-1.528 2.621-1.031.115-1.986-1.024-2.069-2.107a2.125 2.125 0 0 1 1.4-2.242 1.812 1.812 0 0 1 1.332.4" transform="translate(-1634.451 -709.289)" style="fill:#f6a19e"/>
        <path data-name="Path 7195" d="m1764.026 815.846 1.63-.023a.41.41 0 0 0 .4-.437l-.093-1.984-2.234-.033-.1 2.039a.41.41 0 0 0 .406.438" transform="translate(-1639.717 -756.226)" style="fill:#f6a19e"/>
        <path data-name="Path 7196" d="M1759.479 840.709a4.369 4.369 0 0 0 1.86-.383l-1.064-.3a18.482 18.482 0 0 1-2.417.4 4.578 4.578 0 0 0 1.621.28" transform="translate(-1634.36 -781.01)" style="fill:#f6a19e"/>
        <path data-name="Path 7197" d="M1735.222 745.271a1.038 1.038 0 0 1-.882-.775.967.967 0 0 1 .085-.6 6.357 6.357 0 0 0-.332-2.5.9.9 0 0 1 .658-.5 1 1 0 0 1 .363-.794 1.057 1.057 0 0 1 1.385.431.775.775 0 0 1 .261-.567.813.813 0 0 1 1 .079.948.948 0 0 1 .284.806.583.583 0 0 1 .862.749c.3.078.552.26.579.465.036.28-.328.678-.942.7a.675.675 0 0 1-.318.6.73.73 0 0 1-.942-.363.627.627 0 0 1 .114 1.214.614.614 0 0 1 .125.533.653.653 0 0 1-.488.409.948.948 0 0 1-.834-.272 1.166 1.166 0 0 1-.976.386" transform="translate(-1611.639 -687.846)" style="fill:#f95f6a"/>
        <path data-name="Path 7198" d="M1792.329 785.143a.5.5 0 1 1 .542.457.5.5 0 0 1-.542-.457" transform="translate(-1666.407 -729.477)" style="fill:#f6a19e"/>
        <path data-name="Path 7199" d="M1962.89 707.189a.222.222 0 1 0-.222.222.222.222 0 0 0 .222-.222" transform="translate(-1824.574 -657.299)" style="fill:#fb9c98"/>
        <path data-name="Path 7200" d="M1954.714 721.3a.213.213 0 1 0-.213.228.221.221 0 0 0 .213-.228" transform="translate(-1816.99 -670.417)" style="fill:#fb9c98"/>
        <path data-name="Path 7201" d="M356.693 956h22.681a.47.47 0 0 0 .47-.47v-4.3a.47.47 0 0 0-.47-.47h-22.681a.47.47 0 0 0-.47.47v4.3a.47.47 0 0 0 .47.47" transform="translate(-331.197 -883.964)" style="fill:#fff"/>
        <path data-name="Path 7202" d="M356.693 865.137h22.681a.47.47 0 0 0 .47-.47v-4.3a.47.47 0 0 0-.47-.47h-22.681a.47.47 0 0 0-.47.47v4.3a.47.47 0 0 0 .47.47" transform="translate(-331.197 -799.481)" style="fill:#fff"/>
        <path data-name="Path 7203" d="M531.838 978.342a.736.736 0 1 0-.736.736.736.736 0 0 0 .736-.736" transform="translate(-493.105 -908.924)" style="fill:#9087f4"/>
        <path data-name="Path 7204" d="M495.46 978.342a.736.736 0 1 0-.736.736.736.736 0 0 0 .736-.736" transform="translate(-459.283 -908.924)" style="fill:#9087f4"/>
        <path data-name="Path 7205" d="M459.081 978.342a.736.736 0 1 0-.736.736.736.736 0 0 0 .736-.736" transform="translate(-425.46 -908.924)" style="fill:#9087f4"/>
        <path data-name="Path 7206" d="M422.7 978.342a.736.736 0 1 0-.736.736.736.736 0 0 0 .736-.736" transform="translate(-391.637 -908.924)" style="fill:#9087f4"/>
        <path data-name="Path 7207" d="M386.325 978.342a.736.736 0 1 0-.736.736.736.736 0 0 0 .736-.736" transform="translate(-357.815 -908.924)" style="fill:#9087f4"/>
        <path data-name="Path 7208" d="M401.588 886.74h-16.483a.253.253 0 0 0-.253.253v.965a.253.253 0 0 0 .253.253h16.483a.253.253 0 0 0 .253-.253v-.965a.253.253 0 0 0-.253-.253" transform="translate(-357.814 -824.442)" style="fill:#9087f4"/>
    </g>
</svg>
