<svg xmlns="http://www.w3.org/2000/svg" width="199.263" height="141.139" viewBox="0 0 199.263 141.139">
    <defs>
        <clipPath id="cbec4uopqa">
            <path data-name="Path 6229" d="M896.276 702.284c-11.7 6.172-14.9 3.858-20.208 13.884s-7.036 8.512-5.465 12.931 11.658 24.018 11.658 24.018l28.286-.12s4.6-34.667 4.744-40.445-1.339-10.621-4.444-10.9c-1.968-.177-2.595-2.355-5.769-2.356-1.834 0-4.518.727-8.8 2.987" transform="translate(-870.047 -699.297)" style="fill:none"/>
        </clipPath>
        <clipPath id="b4joicsnmb">
            <path data-name="Path 6232" d="M126.6 742.348c-4.7 4.987 3.89 21.783 3.89 21.783a54.473 54.473 0 0 0-5.27 8.282c-1.8 3.816 11.381 14.172 11.381 14.172l29.359.154s-1.276-32.453-2.526-39.186-14.69-7.331-21.013-10.4a10.882 10.882 0 0 0-4.785-1.189c-4.1 0-7.6 2.732-11.035 6.382" transform="translate(-125.054 -735.966)" style="fill:none"/>
        </clipPath>
        <clipPath id="ksre6zihhc">
            <path data-name="Rectangle 3467" style="fill:none" d="M0 0h199.263v141.139H0z"/>
        </clipPath>
    </defs>
    <g data-name="Group 5023">
        <g data-name="Group 5018">
            <g data-name="Group 5017" style="clip-path:url(#cbec4uopqa)" transform="translate(88.742 71.326)">
                <path data-name="Path 6225" d="M947.631 966.462s-4.251-27.566-11.839-30.718 5.113 33.1 5.113 33.1z" transform="translate(-926.916 -911.453)" style="fill:#5f9563"/>
                <path data-name="Path 6226" d="M933.384 939.434q-.005-.209 0-.407l2.489 1.068a860.838 860.838 0 0 0-1.481-4.248 1.119 1.119 0 0 1 .34-.116c.323.919.821 2.342 1.422 4.076l.775-3.239q.147.112.293.235l-.862 3.6c.356 1.032.743 2.159 1.148 3.345l2.16-3.91c.067.11.133.221.2.335l-2.213 4.006c.253.744.512 1.508.773 2.285l2.66-3.933.164.358-2.689 3.976c.332.987.667 1.992 1 3l3.117-3.425.129.36-3.125 3.433c.261.793.52 1.586.773 2.368l3.336-2.812.108.354-3.331 2.808c.231.717.457 1.424.675 2.116l3.282-2.766.1.361-3.271 2.757c.314 1 .609 1.961.88 2.866l2.79-4.125.112.435-2.777 4.107.11.373c.2.7.406 1.393.6 2.078l2.694-3.984q.053.225.1.447l-2.677 3.959c.267.937.522 1.848.76 2.707l2.551-3.772c.032.155.064.309.1.46l-2.529 3.739c.3 1.082.567 2.068.792 2.905l-.337.12c-.218-.81-.476-1.761-.764-2.8l-4.459-.752-.127-.395 4.478.756c-.239-.865-.5-1.784-.766-2.73l-4.581-.773-.122-.394 4.59.775c-.207-.726-.421-1.465-.638-2.2l-.1-.326-4.626-.781-.116-.393 4.625.78c-.275-.923-.578-1.906-.9-2.927l-4.488-.491-.107-.381 4.474.49c-.218-.69-.443-1.4-.674-2.111l-4.374-.478-.1-.38 4.351.476c-.248-.768-.5-1.545-.759-2.323l-4.244-.716-.094-.39 4.207.71a729.69 729.69 0 0 0-.983-2.952l-3.877-.654-.08-.387 3.823.645a583.35 583.35 0 0 0-.773-2.284l-3.5-.795-.063-.393 3.424.777a917.886 917.886 0 0 0-1.15-3.353z" transform="translate(-926.92 -911.615)" style="fill:#75a378"/>
                <path data-name="Path 6227" d="M1060.8 894.86a1.951 1.951 0 0 0 1.764-1.134c1.564-3.394 6-13.5 5.218-17.309a17.467 17.467 0 0 1 .079-8.988c1.43-6.376 2.155-11.436-1.774-11.317s-6.777 9.282-7.618 10.6c-1.486 2.331-4.442 1.434-6.057 6.779-1.268 4.194-1.435 14.992-1.448 19.445a1.952 1.952 0 0 0 1.96 1.957z" transform="translate(-1032.509 -840.115)" style="fill:#75a378"/>
                <path data-name="Path 6228" d="M1070.609 907.1a.136.136 0 0 1 .192.019l3.708 4.547a77.697 77.697 0 0 1 1.617-6.536l-1.8-7.437a.136.136 0 0 1 .265-.064l1.692 6.984q.133-.439.275-.882c.75-2.348 1.726-5.195 2.7-7.959l-.487-3.575a.136.136 0 0 1 .27-.037l.416 3.05c1.908-5.4 3.744-10.331 3.772-10.407a.136.136 0 1 1 .255.1c-.029.077-1.921 5.161-3.859 10.655l3.674-1.4a.136.136 0 1 1 .1.254l-3.89 1.482a303.943 303.943 0 0 0-2.687 7.925q-.18.563-.346 1.118l5.511-1.618a.136.136 0 1 1 .077.261l-5.681 1.668c-.7 2.38-1.227 4.63-1.611 6.53l6.731-2.158a.136.136 0 0 1 .083.259l-6.875 2.2c-.619 3.123-.847 5.227-.851 5.263a.136.136 0 0 1-.15.121h-.015a.136.136 0 0 1-.106-.147c0-.037.233-2.155.857-5.3l-3.85-4.721a.136.136 0 0 1 .02-.192" transform="translate(-1050.107 -865.799)" style="fill:#9fc6a2"/>
            </g>
        </g>
        <g data-name="Group 5020">
            <g data-name="Group 5019" style="clip-path:url(#b4joicsnmb)" transform="translate(12.755 75.066)">
                <path data-name="Path 6230" d="M185.134 799.151s-6.326-15.532-13.947-14.381-4.044 18.446 3.36 25.365a6.589 6.589 0 0 0-7.495 4.556c-1.893 5.663 19.881 20.486 22.373 27.973s15.191 1.2 10.269-14.458 2.671-29.335-3.051-34.451c-4.64-4.148-11.509 5.4-11.509 5.4" transform="translate(-162.663 -779.738)" style="fill:#75a378"/>
                <path data-name="Path 6231" d="M195.229 841.427a296.703 296.703 0 0 0-5.05-12l-20.261-11.055c.054-.134.112-.262.17-.387l19.812 10.803-.2-.445c-3.053-6.781-6.791-15.07-10.111-22.43l-8.461-1.68q-.081-.237-.159-.474l8.4 1.668c-3.06-6.781-5.739-12.717-7.162-15.867.108-.067.218-.131.333-.188l3.427 7.592 3.33-6.217q.153.12.3.245l-3.435 6.413c3.154 6.987 7.4 16.4 11.167 24.759l11.3-24.732c.108.064.215.135.321.212l-11.409 24.981 2.483 5.513q1.589 3.529 2.913 6.673l7.762-11.847q.018.322.042.646l-7.622 11.633a286.146 286.146 0 0 1 2.612 6.418.221.221 0 0 1 .011.027 235.888 235.888 0 0 1 2.851 7.63 6.681 6.681 0 0 1-.339.169 236.565 236.565 0 0 0-2.813-7.533l-9.575-3.327q-.337-.344-.684-.692z" transform="translate(-165.342 -783.926)" style="fill:#9fc6a2"/>
            </g>
        </g>
        <g data-name="Group 5022">
            <g data-name="Group 5021" style="clip-path:url(#ksre6zihhc)">
                <path data-name="Path 6233" d="M11.561 1219.344s-13.93.122-11.209 1.127 56.442.056 56.442.056 23.474.63 34.986.406 12.725-.77 12.725-.77 41.4-.474 42.435-.774 0-1-5.889-1.032-129.491.988-129.491.988" transform="translate(0 -1094.087)" style="fill:#5cbec6"/>
                <path data-name="Rectangle 3465" transform="translate(54.426 15.358)" style="fill:#ffca76" d="M0 0h3.857v106.792H0z"/>
                <path data-name="Path 6234" d="M350.171 1156.819c0-3.772 9.24-6.83 20.638-6.83s20.638 3.058 20.638 6.83z" transform="translate(-314.455 -1032.693)" style="fill:#ffca76"/>
                <path data-name="Path 6235" d="M671.065 182.5a.275.275 0 0 1-.228-.429l16.052-54.454a.275.275 0 0 1 .227-.121.275.275 0 0 1 .227.119l16.327 54.454a.275.275 0 0 1-.453.312l-16.1-54.122-15.826 54.121a.275.275 0 0 1-.228.121" transform="translate(-602.372 -114.49)" style="fill:#ffca76"/>
                <path data-name="Path 6236" d="M659.1 658.229a6.879 6.879 0 0 0 6.879 6.879h21.28a6.879 6.879 0 0 0 6.879-6.879z" transform="translate(-591.874 -591.092)" style="fill:#ffca76"/>
                <path data-name="Path 6237" d="M692.407 658.229a6.875 6.875 0 0 1-5.957 3.44h-21.28a6.861 6.861 0 0 1-5.133-2.3 6.88 6.88 0 0 0 6.784 5.74H688.1a6.879 6.879 0 0 0 6.879-6.879z" transform="translate(-592.715 -591.092)" style="fill:#f4ad6e"/>
                <path data-name="Path 6238" d="M271.612 109.194h57.3v-1.612a.773.773 0 0 0-.773-.773h-55.754a.773.773 0 0 0-.773.773z" transform="translate(-243.908 -95.915)" style="fill:#ffca76"/>
                <path data-name="Path 6239" d="M144.042 182.5a.275.275 0 0 0 .228-.429l-16.052-54.454a.275.275 0 0 0-.227-.121.275.275 0 0 0-.227.119l-16.327 54.454a.275.275 0 0 0 .453.312l16.1-54.122 15.826 54.121a.275.275 0 0 0 .228.121" transform="translate(-100.027 -114.49)" style="fill:#ffca76"/>
                <path data-name="Path 6240" d="M137.434 658.229a6.879 6.879 0 0 1-6.879 6.879h-21.28a6.879 6.879 0 0 1-6.879-6.879z" transform="translate(-91.951 -591.092)" style="fill:#ffca76"/>
                <path data-name="Path 6241" d="M104.969 658.229a6.875 6.875 0 0 0 5.957 3.44h21.28a6.861 6.861 0 0 0 5.133-2.3 6.88 6.88 0 0 1-6.784 5.74h-21.28a6.879 6.879 0 0 1-6.879-6.879z" transform="translate(-91.951 -591.092)" style="fill:#f4ad6e"/>
                <path data-name="Path 6242" d="M348.214 1211.945h-50.908a.642.642 0 1 1 0-1.284h50.907a.642.642 0 0 1 0 1.284" transform="translate(-266.405 -1087.177)" style="fill:#f4ad6e"/>
                <path data-name="Path 6243" d="M527.442 103.17a3.212 3.212 0 1 1-3.212-3.212 3.212 3.212 0 0 1 3.212 3.212" transform="translate(-467.875 -89.763)" style="fill:#ffca76"/>
                <path data-name="Path 6244" d="M538.235 115.347a1.83 1.83 0 1 1-1.83-1.83 1.83 1.83 0 0 1 1.83 1.83" transform="translate(-480.051 -101.939)" style="fill:#f4ad6e"/>
                <path data-name="Path 6245" d="M431.743 1165.874a.394.394 0 0 1-.089-.777 53.755 53.755 0 0 1 12.22-1.367h.045a.394.394 0 0 1 0 .787.217.217 0 0 1-.045 0 52.971 52.971 0 0 0-12.04 1.346.4.4 0 0 1-.09.01" transform="translate(-387.354 -1045.033)" style="fill:#fff"/>
                <path data-name="Path 6246" d="M378.12 1185.975a.394.394 0 0 1-.162-.753 25.547 25.547 0 0 1 2.777-.988.394.394 0 0 1 .229.753 25.387 25.387 0 0 0-2.684.953.392.392 0 0 1-.161.035" transform="translate(-339.199 -1063.431)" style="fill:#fff"/>
                <path data-name="Path 6247" d="M540.64 5.811A50.7 50.7 0 0 0 539.44 0a50.685 50.685 0 0 0-1.2 5.812c-.244 2.236-.285 4.918-.285 4.918h2.97s-.041-2.683-.285-4.918" transform="translate(-483.085 .001)" style="fill:#ffca76"/>
                <path data-name="Path 6248" d="M599.015 1201.6a.2.2 0 0 0-.02-.025c-1.286-1.578-5.654-2.161-5.654-2.161l-15.406.276-15.406-.276s-4.369.6-5.667 2.174a.12.12 0 0 0-.03.077c0 .765 9.448 1.386 21.1 1.386s21.1-.62 21.1-1.386a.113.113 0 0 0-.023-.064" transform="translate(-500.036 -1077.073)" style="fill:#7f635d"/>
                <path data-name="Path 6249" d="M639.131 1192.888c0 .579-7.148 1.048-15.966 1.048s-15.966-.469-15.966-1.048 7.148-1.048 15.966-1.048 15.966.469 15.966 1.048" transform="translate(-545.267 -1070.276)" style="fill:#93726d"/>
                <path data-name="Path 6250" d="M856.409 977.733a3.778 3.778 0 0 0 2.19 4.856l49.091 18.573a3.778 3.778 0 0 0 4.856-2.19 3.777 3.777 0 0 0-2.19-4.855l-49.091-18.573a3.778 3.778 0 0 0-4.856 2.19" transform="translate(-768.84 -875.823)" style="fill:#7f635d"/>
                <path data-name="Path 6251" d="M766.475 771.191a2.5 2.5 0 0 0-.08.252 2.769 2.769 0 0 0-.291 5.255l2.267 4.5 10.6 4.009 4.68-1.874a2.769 2.769 0 0 0 3.261-4.131 2.564 2.564 0 0 0 .107-.242 2.518 2.518 0 0 0-1.46-3.237l-15.843-5.994a2.518 2.518 0 0 0-3.237 1.46" transform="translate(-686.38 -691.076)" style="fill:#7f635d"/>
                <path data-name="Path 6252" d="M659.031 1055.807a2.518 2.518 0 0 1 .107-.242 2.769 2.769 0 0 1 3.261-4.132l4.68-1.874 10.6 4.009 2.267 4.5a2.769 2.769 0 0 1-.291 5.255 2.51 2.51 0 0 1-3.317 1.712l-15.843-5.994a2.518 2.518 0 0 1-1.46-3.237" transform="translate(-591.492 -942.508)" style="fill:#7f635d"/>
                <path data-name="Path 6253" d="M696.616 859.81a.834.834 0 0 0 .228.917l-2.927 7.737-2.927 7.736a.831.831 0 0 0-.295 1.608l19.319 7.309a.831.831 0 0 0 .844-1.4l2.927-7.737 2.927-7.737a.831.831 0 0 0 .295-1.608l-19.319-7.309a.834.834 0 0 0-1.072.483" transform="translate(-619.764 -771.63)" style="fill:#7f635d"/>
                <path data-name="Rectangle 3466" transform="rotate(-69.276 111.297 .735)" style="fill:#f2a25c" d="M0 0h16.545v21.242H0z"/>
                <path data-name="Path 6254" d="m910.138 996.121 3.337-6.792-2.074-.785-2.666 7.045z" transform="translate(-816.047 -887.717)" style="fill:#434a59"/>
                <path data-name="Path 6255" d="M751.476 896.931a.381.381 0 0 1-.356-.516l.948-2.508a.381.381 0 1 1 .713.27l-.948 2.508a.381.381 0 0 1-.356.246" transform="translate(-674.485 -802.51)" style="fill:#fff"/>
                <path data-name="Path 6256" d="M717.919 943.357a.381.381 0 0 1-.356-.516l2.766-7.313a.381.381 0 1 1 .713.27l-2.766 7.313a.381.381 0 0 1-.357.246" transform="translate(-644.351 -839.886)" style="fill:#fff"/>
                <path data-name="Path 6257" d="M836.954 819.41a.38.38 0 0 1-.133-.024l-10.96-4.086a.381.381 0 1 1 .266-.714l10.96 4.086a.381.381 0 0 1-.133.738" transform="translate(-741.404 -731.479)" style="fill:#fff"/>
                <path data-name="Path 6258" d="M781.439 798.712a.383.383 0 0 1-.133-.024l-2.206-.823a.381.381 0 1 1 .266-.714l2.206.823a.381.381 0 0 1-.133.738" transform="translate(-699.411 -715.823)" style="fill:#fff"/>
                <path data-name="Path 6259" d="m1461.357 1297.8 45.36.136a6.677 6.677 0 0 0 1.716-.2c.706-.189.527-.612-2.749-.579-8.894 0-36.561-.353-39.628-.167-2.518.153-5.04-.186-5.431.337-.174.233.217.477.732.477" transform="translate(-1311.608 -1164.653)" style="fill:#5cbec6"/>
                <path data-name="Path 6260" d="M1364.317 388.155c-2.156.046-14.34 14.933-14.34 14.933s-7.562-9.722-11.156-13.891c-.427-.5-4.484 3.774-4.484 3.774s10.643 23.27 20.041 16.767c7.688-5.32 12.6-15.138 13.4-18.092.434-1.59-1.524-3.533-3.464-3.491" transform="translate(-1198.238 -348.564)" style="fill:#89433a"/>
                <path data-name="Path 6261" d="M1897.118 1120.037a5 5 0 0 0-2.041-1.673c-.288-.308-.349-1.752.588-1.412 1.847.671.834-1.981 1.294-1.424 1.371 1.657 4.2 3.709 3.9 4.3-.65 1.25-2.776 6.288-3.442 5.761-.4-.316.184-4.782-.3-5.548" transform="translate(-1701.617 -1001.678)" style="fill:#333f56"/>
                <path data-name="Path 6262" d="M1494.328 1250.385c.915-.337 1.076-1.124 1.5-1.854.029-.049.24-1.122.247-1.208.027-.373 1.165-1.3 1.62-.491.9 1.591 2.281-.684 2.185-.048-.286 1.892.25 4.96-.471 5.125-1.536.352-8.613.444-8.7-.3-.054-.449 2.039-.637 3.621-1.219" transform="translate(-1338.659 -1119.371)" style="fill:#333f56"/>
                <path data-name="Path 6263" d="M1493.062 673.454s-5.921 23.178-5.342 29.828 2.163 26.66 2.163 26.66l8.382.534s.32-24.227.276-25.725c-.069-2.35 6.963-27.456 5.6-31.3-2.384-6.742-11.083 0-11.083 0" transform="translate(-1335.942 -602.073)" style="fill:#434a59"/>
                <path data-name="Path 6264" d="M1596.4 689.512s6.841 26.425 8.734 29.824c2.167 3.891 9.7 11.317 14.549 15.685a18.993 18.993 0 0 1 3.568 4.736s2.749-2.59 3.291-3.168a19.849 19.849 0 0 0 3.631-5.2s-14.1-13.983-14.868-17.591c-.426-2.011-.776-23.073-2.757-25.685s-16.148 1.4-16.148 1.4" transform="translate(-1433.568 -617.135)" style="fill:#434a59"/>
                <path data-name="Path 6265" d="M1536.162 698.395s.078-.061.221-.164h6.306c1.249 0 4.239 2.722 9.906 3.659 2.7.446 4.966.669 6.608.781a89.79 89.79 0 0 1 .461 4.244c-3.444-.288-12.869-2.128-15.875-2.75-2.943-.609-6.985-3.1-8.113-3.818.3-1.227.486-1.953.486-1.953" transform="translate(-1379.042 -627.014)" style="fill:#2c323d"/>
                <path data-name="Path 6266" d="M1524.8 407.146c3.208-11.769 5.447-29.377 10.049-31.815 8.027-4.251 16.056.054 18.016 6.883 2.132 7.424-4.746 16.807-2.366 30.588-2.146 1.019-9.06.829-16.527-1.482-.369-.114-.3-3.6-.671-3.734-.4-.141-.915 3.619-1.318 3.458a41.969 41.969 0 0 1-7.182-3.9" transform="translate(-1369.275 -335.53)" style="fill:#af5546"/>
                <path data-name="Path 6267" d="M1629.846 378.8a72.023 72.023 0 0 0-6.294 9.8c-2.074 4.284-4.462 10.916-4.462 10.916s1.632-18.512 6.284-21.146c3.332-1.887 4.472.434 4.472.434" transform="translate(-1453.948 -339.109)" style="fill:#fff"/>
                <path data-name="Path 6268" d="M1571.234 547.824s-2.281 10.959-7.212 14.724-10.726.669-12.562-.736-3.953-5.244-3.953-5.244a85.747 85.747 0 0 0 10.214-.449c4.148-.552 13.512-8.295 13.512-8.295" transform="translate(-1389.667 -491.948)" style="fill:#753530"/>
                <path data-name="Path 6269" d="m1171.039 154.482 1.282 18.5-1.282 21.719h47.7v-11.079l-1.285-1.644 1.285-1.174v-15.462l-.854-10.86z" transform="translate(-1051.596 -138.725)" style="fill:#cececc"/>
                <path data-name="Path 6270" d="m1029.951 154.482.69 9.957 7.656 1.868-7.45 1.107.385 5.563-1.282 21.719h47.7v-5.909l-12.51-1.487 12.51-1.1v-20.858l-.854-10.86z" transform="translate(-924.9 -138.725)" style="fill:#f4f4f4"/>
                <path data-name="Path 6271" d="M1233.09 319.7s16.209 2.583 20.478 4.383a19.4 19.4 0 0 1 6.5 4.3l7.172-8.688z" transform="translate(-1107.319 -287.094)" style="fill:#fff"/>
                <path data-name="Path 6272" d="M1036.715 252.106h41.159l-33.5 1.868z" transform="translate(-930.974 -226.392)" style="fill:#cececc"/>
                <path data-name="Path 6273" d="M1651.068 466.684s6.2-13.527 10.061-15.121c1.737-.717 4.931 2.583 4.931 2.583s-2.122 13.391-9.257 19.942c-.261-3.628-5.735-7.4-5.735-7.4" transform="translate(-1482.665 -405.414)" style="fill:#af5546"/>
                <path data-name="Path 6274" d="M1454.157 528.023a15.645 15.645 0 0 1-2.25-.86c-.363-.269-.577-.983-.806-.416s.73 1.042.924 1.284-1.474.829-1.94.741-1.26-.067-1.255.147c.011.48 1.385.986 1.47 1.222a3.308 3.308 0 0 0 2.609.653c.862-.333 2.2-.769 2.065-1.486a1.981 1.981 0 0 0-.818-1.284" transform="translate(-1301.055 -472.829)" style="fill:#ff867a"/>
                <path data-name="Path 6275" d="M1767.848 928.831a.187.187 0 0 0 .129-.322 7.343 7.343 0 0 1-2.115-3.583.187.187 0 0 0-.368.066 7.575 7.575 0 0 0 2.224 3.787.186.186 0 0 0 .129.052" transform="translate(-1585.417 -830.448)" style="fill:#2c323d"/>
                <path data-name="Path 6276" d="m1482.162 537.711 13.546 6.425s5.474 3.776 5.735 7.4c-.179.165-.361.326-.547.48-7.57 6.265-22.834-9.853-22.834-9.853z" transform="translate(-1327.304 -482.866)" style="fill:#af5546"/>
                <path data-name="Path 6277" d="M1689.81 289.885s-.87-.1-.93-.7a1.263 1.263 0 0 1 .549-1.05c.007.025.355.419.415.415s.586-1.542 1.968-.646c1.194.775 1.6.653 1.783.931a.7.7 0 0 1-.019.641.459.459 0 0 1 .409.319c.334.82-.746 3.493-1.716 3.43s-2.458-3.337-2.458-3.337" transform="translate(-1516.617 -258.284)" style="fill:#ce4949"/>
                <path data-name="Path 6278" d="M1693.5 336.525c-.037.525-2.289 1.381-2.771.432-.141-.278-.733-.178-.377-.792l.882-2.444.405-1.124.37-1.025 1.645-.27s-.089 4.3-.154 5.223" transform="translate(-1517.843 -297.51)" style="fill:#ff867a"/>
                <path data-name="Path 6279" d="M1701.988 342.385s-.316.973-1.078 1.173a3.52 3.52 0 0 1-.925.116l.405-1.125a5.6 5.6 0 0 0 1.6-.164" transform="translate(-1526.592 -307.463)" style="fill:#c66c67"/>
                <path data-name="Path 6280" d="m1692.037 303.259.189 2.183a1.362 1.362 0 0 1-1.309 1.224 2.2 2.2 0 0 1-1.671-.307 1.28 1.28 0 0 1-.467-1.471 7.284 7.284 0 0 1 1.012-2.263c.658-.993 2.018-.78 2.246.634" transform="translate(-1516.48 -271.208)" style="fill:#ff867a"/>
                <path data-name="Path 6281" d="M1708.908 306.862a3.031 3.031 0 0 0-.688-.21c-.038.048-.142.12.021.172a3.119 3.119 0 0 0 .636.177c.049-.027.03-.139.03-.139" transform="translate(-1533.926 -275.369)" style="fill:#ce4949"/>
                <path data-name="Path 6282" d="M1698 306.368s-.479.058-.484.118-.041.17.076.144.422-.079.441-.124-.033-.138-.033-.138" transform="translate(-1524.368 -275.119)" style="fill:#ce4949"/>
                <path data-name="Path 6283" d="M1687.3 307.272a.894.894 0 0 1-.132-.024.3.3 0 0 1-.217-.131.309.309 0 0 1-.035-.262l.183-.623a.425.425 0 0 1 .438-.294l.5.057a.3.3 0 0 1 .223.132.31.31 0 0 1 .035.262l-.079.269a.981.981 0 0 1-.112.253.806.806 0 0 1-.8.362m.224-1.214a.3.3 0 0 0-.307.207l-.183.623a.189.189 0 0 0 .019.161.182.182 0 0 0 .135.078h.011a.711.711 0 0 0 .8-.285.844.844 0 0 0 .1-.222l.079-.269a.189.189 0 0 0-.019-.161.182.182 0 0 0-.135-.078z" transform="translate(-1514.845 -274.73)" style="fill:#3a4b66"/>
                <path data-name="Path 6284" d="M1704.841 309.166c-.3-.034-.67-.173-.694-.551a.857.857 0 0 1 .031-.265l.07-.27a.409.409 0 0 1 .428-.3l.66.075a.311.311 0 0 1 .225.132.316.316 0 0 1 .043.262l-.161.625a.409.409 0 0 1-.424.3 1.282 1.282 0 0 1-.178-.008m-.178-1.262a.287.287 0 0 0-.3.206l-.07.27a.75.75 0 0 0-.027.227c.028.461.743.445.751.445h.009a.287.287 0 0 0 .3-.206l.161-.625a.2.2 0 0 0-.025-.162.19.19 0 0 0-.138-.08z" transform="translate(-1530.329 -276.388)" style="fill:#3a4b66"/>
                <path data-name="Path 6285" d="M1699.428 311.209a.06.06 0 0 1-.035-.016.438.438 0 0 0-.518-.06.061.061 0 0 1-.063-.1.558.558 0 0 1 .664.075.061.061 0 0 1-.048.105" transform="translate(-1525.512 -279.236)" style="fill:#3a4b66"/>
                <path data-name="Path 6286" d="M1718.784 312.825c-.066-.07-.751-.5-1.2-.773l.058-.094c.114.07 1.12.689 1.217.791z" transform="translate(-1542.401 -280.139)" style="fill:#3a4b66"/>
                <path data-name="Path 6287" d="M1718.818 317.839a1.924 1.924 0 0 0 .3-.276c.172-.192.473-.438.632-.042.232.576-.6 1.515-1.144 1.168-.4-.258-.062-.648.215-.849" transform="translate(-1543.145 -284.944)" style="fill:#ff867a"/>
                <path data-name="Path 6288" d="M1718.686 316.7a5.755 5.755 0 0 1-.215.568c-.09.219-.232.356-.006.418.139.038.343-.323.466-.565z" transform="translate(-1543.079 -284.396)" style="fill:#ce4949"/>
                <path data-name="Path 6289" d="M1697.711 316.921a.107.107 0 0 1-.1-.117c.008-.141-.212-.14-.22 0a.322.322 0 0 0 .261.328.113.113 0 0 0 .135-.077.111.111 0 0 0-.077-.135" transform="translate(-1524.263 -284.396)" style="fill:#c66c67"/>
                <path data-name="Path 6290" d="M1580.928 566.771a.176.176 0 0 0 .026.017 29.224 29.224 0 0 0 3.379 1.547 16.526 16.526 0 0 1 3.72 1.885 14.9 14.9 0 0 1 3.6 4.453.187.187 0 0 0 .332-.172 15.113 15.113 0 0 0-3.715-4.584 16.826 16.826 0 0 0-3.8-1.929 28.921 28.921 0 0 1-3.338-1.528.187.187 0 0 0-.207.31" transform="translate(-1419.615 -508.663)" style="fill:#753530"/>
                <path data-name="Path 6291" d="M1652.06 546.1a.182.182 0 0 0 .059.031.187.187 0 0 0 .235-.121 35.8 35.8 0 0 1 2.773-5.978.187.187 0 0 0-.322-.19 36.238 36.238 0 0 0-2.807 6.054.187.187 0 0 0 .062.2" transform="translate(-1483.492 -484.694)" style="fill:#753530"/>
                <path data-name="Path 6292" d="M1680.723 373.454a15.5 15.5 0 0 0 3.09-1.079s.5.94.2 1.538a5.483 5.483 0 0 1-2.556 1.062 9.931 9.931 0 0 1-1.043-.7s-.981-.073-1-.309.807-1.219.95-1.488a.622.622 0 0 1 .517-.29s-.087.859-.129 1.059a.962.962 0 0 0-.024.211" transform="translate(-1508.113 -334.222)" style="fill:#fff"/>
                <path data-name="Path 6293" d="M1693.731 324.439a4.021 4.021 0 0 0 1.295.288 1.9 1.9 0 0 1-.987.307c-.39-.066-.308-.6-.308-.6" transform="translate(-1520.97 -291.347)" style="fill:#fff"/>
                <path data-name="Path 6294" d="M1602.655 771.861a.494.494 0 0 1-.487-.412 27.085 27.085 0 0 0-2.657-6.946.494.494 0 1 1 .864-.48 27.6 27.6 0 0 1 2.768 7.263.494.494 0 0 1-.405.569.523.523 0 0 1-.083.007" transform="translate(-1436.31 -685.866)" style="fill:#2c323d"/>
                <path data-name="Path 6295" d="M1574.239 1006.311a.329.329 0 0 1-.327-.3c-.183-1.772 1.53-5.475 1.6-5.632a.329.329 0 1 1 .6.278c-.017.037-1.71 3.694-1.545 5.286a.329.329 0 0 1-.294.361h-.034" transform="translate(-1413.366 -898.177)" style="fill:#2c323d"/>
            </g>
        </g>
    </g>
</svg>
