<svg xmlns="http://www.w3.org/2000/svg" xmlns:xlink="http://www.w3.org/1999/xlink" width="177" height="775" viewBox="0 0 177 775"><defs><clipPath id="a"><rect width="177" height="775"/></clipPath><clipPath id="b"><rect width="20" height="20" transform="translate(1384 139)" fill="#fff" stroke="#707070" stroke-width="1"/></clipPath><clipPath id="c"><path d="M17.974,226.423H31.617c.538,0,.974.023.974.562v12.668a.975.975,0,0,1-.974.974H17.974a.975.975,0,0,1-.974-.974V226.985C17,226.447,17.437,226.423,17.974,226.423Z" transform="translate(-17 -226.423)" fill="none"/></clipPath><clipPath id="d"><rect width="15" height="15" transform="translate(1362 54)" fill="#2a7db9" stroke="#707070" stroke-width="1"/></clipPath></defs><g id="e" clip-path="url(#a)"><rect width="177" height="775" fill="rgba(255,255,255,0)"/><g clip-path="url(#a)"><rect width="177" height="775" fill="rgba(255,255,255,0)"/><g transform="translate(17.266 85)"><circle cx="17" cy="17" r="17" transform="translate(-0.266)" fill="#f5f5f5"/><g transform="translate(8.399 7.796)"><path d="M126.577,1.112h3.079V1.63h1.112V1.04A1.04,1.04,0,0,0,129.73,0H126.5a1.041,1.041,0,0,0-1.039,1.04v.59h1.112Zm0,0" transform="translate(-120.95)" fill="#8091b8"/><path d="M51.421,167.75H40.98a.49.49,0,0,0-.488.529l.873,10.793a1.159,1.159,0,0,0,1.155,1.067h7.361a1.159,1.159,0,0,0,1.155-1.067l.873-10.793a.49.49,0,0,0-.488-.529Zm-7.912,11.238h-.035a.556.556,0,0,1-.554-.522l-.547-8.861a.556.556,0,0,1,1.11-.068l.547,8.861a.556.556,0,0,1-.522.59Zm3.255-.555a.556.556,0,1,1-1.112,0v-8.861a.556.556,0,0,1,1.112,0Zm3.266-8.828-.522,8.861a.556.556,0,0,1-.555.523H48.92a.556.556,0,0,1-.522-.588l.522-8.861a.556.556,0,1,1,1.11.065Zm0,0" transform="translate(-39.033 -161.713)" fill="#8091b8"/><path d="M14.311,77.79l-.365-1.1a.707.707,0,0,0-.671-.483H1.06a.707.707,0,0,0-.671.483l-.365,1.1a.459.459,0,0,0,.435.6H13.876a.453.453,0,0,0,.243-.07.458.458,0,0,0,.192-.534Zm0,0" transform="translate(0 -73.469)" fill="#8091b8"/></g></g><g transform="translate(16.682 135)"><ellipse cx="16.5" cy="17" rx="16.5" ry="17" transform="translate(0.318)" fill="#f5f5f5"/><path d="M5.263,9.363l1.043.689-.814.537a4.9,4.9,0,0,0-2.208,4.1H2.135A6.05,6.05,0,0,1,4.859,9.63ZM14.7,2.709,11.991,0,9.282,2.709l.813.813L11.416,2.2v.456a4.9,4.9,0,0,1-2.208,4.1L8.394,7.3l1.043.689.4-.267a6.05,6.05,0,0,0,2.725-5.063V2.2l1.322,1.322ZM9.841,9.63,5.492,6.76a4.9,4.9,0,0,1-2.208-4.1V2.2L4.606,3.522l.813-.813L2.709,0,0,2.709l.813.813L2.135,2.2v.456A6.05,6.05,0,0,0,4.859,7.719l4.349,2.87a4.9,4.9,0,0,1,2.208,4.1h1.149A6.05,6.05,0,0,0,9.841,9.63Zm0,0" transform="translate(24.236 9.54) rotate(90)" fill="#8091b8" stroke="#8091b8" stroke-width="1"/></g><g transform="translate(-962 -346)"><g transform="translate(933.16 395)"><path d="M61.087,1.562H59.915v-.39A1.173,1.173,0,0,0,58.743,0h0a1.173,1.173,0,0,0-1.172,1.172v.391H55.228V1.172A1.173,1.173,0,0,0,54.056,0h0a1.173,1.173,0,0,0-1.172,1.172v.391H50.54V1.172A1.173,1.173,0,0,0,49.368,0h0A1.173,1.173,0,0,0,48.2,1.172v.391H47.024A1.18,1.18,0,0,0,45.84,2.734V18.828A1.18,1.18,0,0,0,47.024,20H61.087a1.173,1.173,0,0,0,1.172-1.172V2.734a1.173,1.173,0,0,0-1.172-1.172Zm-2.734-.391a.391.391,0,1,1,.781,0V2.734a.391.391,0,1,1-.781,0Zm-4.687,0a.391.391,0,1,1,.781,0V2.734a.391.391,0,1,1-.781,0Zm-4.687,0a.391.391,0,1,1,.781,0V2.734a.391.391,0,1,1-.781,0ZM47.024,2.344H48.2v.391a1.172,1.172,0,0,0,2.344,0V2.344h2.344v.391a1.172,1.172,0,0,0,2.344,0V2.344h2.344v.391a1.172,1.172,0,0,0,2.344,0V2.344h1.172a.391.391,0,0,1,.391.391V5.078H46.621V2.734a.4.4,0,0,1,.4-.391ZM61.087,19.219H47.024a.4.4,0,0,1-.4-.391V5.859H61.478V18.828A.391.391,0,0,1,61.087,19.219Z" fill="#8091b8" fill-rule="evenodd"/><path d="M-.068.223,14.2,0a.892.892,0,0,1,.892.892V13.375a.892.892,0,0,1-.892.892L.671,14.183c-.985,0-1.142-.659-1.142-1.644L-.43,1.853C-.43.868-1.052.223-.068.223Z" transform="translate(46.757 5.35)" fill="#8091b8"/></g><g transform="translate(958.448 347.368)"><path d="M30.074,57.313H25.681l.473-.473a.495.495,0,0,0-.7-.7L24.14,57.454a.493.493,0,0,0,0,.7l1.314,1.314a.495.495,0,0,0,.7-.7l-.473-.473h4.393a2.463,2.463,0,0,1,0,4.926H27.119a.493.493,0,1,0,0,.985h2.956a3.45,3.45,0,1,0,0-6.9Z" fill="#fff"/></g></g><g transform="translate(-516 -391)"><g transform="translate(487.16 404)"><path d="M61.087,1.562H59.915v-.39A1.173,1.173,0,0,0,58.743,0h0a1.173,1.173,0,0,0-1.172,1.172v.391H55.228V1.172A1.173,1.173,0,0,0,54.056,0h0a1.173,1.173,0,0,0-1.172,1.172v.391H50.54V1.172A1.173,1.173,0,0,0,49.368,0h0A1.173,1.173,0,0,0,48.2,1.172v.391H47.024A1.18,1.18,0,0,0,45.84,2.734V18.828A1.18,1.18,0,0,0,47.024,20H61.087a1.173,1.173,0,0,0,1.172-1.172V2.734a1.173,1.173,0,0,0-1.172-1.172Zm-2.734-.391a.391.391,0,1,1,.781,0V2.734a.391.391,0,1,1-.781,0Zm-4.687,0a.391.391,0,1,1,.781,0V2.734a.391.391,0,1,1-.781,0Zm-4.687,0a.391.391,0,1,1,.781,0V2.734a.391.391,0,1,1-.781,0ZM47.024,2.344H48.2v.391a1.172,1.172,0,0,0,2.344,0V2.344h2.344v.391a1.172,1.172,0,0,0,2.344,0V2.344h2.344v.391a1.172,1.172,0,0,0,2.344,0V2.344h1.172a.391.391,0,0,1,.391.391V5.078H46.621V2.734a.4.4,0,0,1,.4-.391ZM61.087,19.219H47.024a.4.4,0,0,1-.4-.391V5.859H61.478V18.828A.391.391,0,0,1,61.087,19.219Z" fill="#2a7db9" fill-rule="evenodd"/><path d="M-.068.223,14.2,0a.892.892,0,0,1,.892.892V13.375a.892.892,0,0,1-.892.892L.671,14.183c-.985,0-1.142-.659-1.142-1.644L-.43,1.853C-.43.868-1.052.223-.068.223Z" transform="translate(46.757 5.35)" fill="#2a7db9"/></g><path d="M27.486,57.313h4.443l-.478-.473a.489.489,0,0,1,0-.7.5.5,0,0,1,.7,0l1.328,1.314a.489.489,0,0,1,0,.7l-1.328,1.314a.5.5,0,0,1-.7,0,.489.489,0,0,1,0-.7l.478-.473H27.486a2.463,2.463,0,0,0,0,4.926h2.989a.493.493,0,1,1,0,.985H27.486a3.45,3.45,0,0,1,0-6.9Z" transform="translate(512.395 356)" fill="#fff"/></g><g transform="translate(-1367 118)" clip-path="url(#b)"><g transform="translate(1386.555 139)"><path d="M12.671,1.516H11.208a.411.411,0,0,1-.385-.308A1.489,1.489,0,0,0,9.308,0,1.515,1.515,0,0,0,7.793,1.233a.385.385,0,0,1-.385.282H6V4.083h6.675Z" transform="translate(-1.888)" fill="#fff"/><path d="M17.19,18.514V3.8a1.053,1.053,0,0,0-1.05-1.055H13.852V4.06c0,.2-.128.488-.334.488H5.945c-.2,0-.308-.282-.308-.488V2.751H3.429A1.053,1.053,0,0,0,2.3,3.723q0,.04,0,.08v14.71a1.155,1.155,0,0,0,1.129,1.181H16.06a1.155,1.155,0,0,0,1.13-1.18ZM7.665,15.125,5.663,17a.359.359,0,0,1-.257.128A.411.411,0,0,1,5.123,17L4.071,15.921a.391.391,0,0,1,.565-.539l.77.822L7.152,14.56a.385.385,0,0,1,.513.565Zm0-4.108h0l-2,1.874a.359.359,0,0,1-.257.128.411.411,0,0,1-.282-.128L4.071,11.813a.391.391,0,0,1,.565-.539l.77.822,1.746-1.643a.385.385,0,0,1,.513.565Zm0-4.108-2,1.874a.359.359,0,0,1-.257.128.411.411,0,0,1-.282-.128L4.071,7.706a.391.391,0,0,1,.565-.539l.77.822L7.152,6.345a.385.385,0,0,1,.513.565Zm7.471,9.7h-5.9a.385.385,0,1,1,0-.77h5.9a.385.385,0,0,1,0,.77Zm0-4.108h-5.9a.385.385,0,1,1,0-.77h5.9a.385.385,0,0,1,0,.77Zm0-4.108h-5.9a.385.385,0,0,1,0-.77h5.9a.385.385,0,1,1,0,.77Z" transform="translate(-2.299 0.305)" fill="#fff"/></g></g><g transform="translate(13 289)"><path d="M10,20h1.413v1.413H10Z" transform="translate(-3.88 -10.347)" fill="#fff"/><path d="M10,30h1.413v1.413H10Z" transform="translate(-3.88 -16.813)" fill="#fff"/><path d="M20.254,7H18.84v.353a1.413,1.413,0,0,1-2.827,0V7H8.24v.353a1.413,1.413,0,0,1-2.827,0V7H4V9.473H20.254Z" transform="translate(0 -1.94)" fill="#fff"/><path d="M10,40h1.413v1.413H10Z" transform="translate(-3.88 -23.28)" fill="#fff"/><path d="M10.707,6.12a.709.709,0,0,0,.707-.707V4H10V5.413A.709.709,0,0,0,10.707,6.12Z" transform="translate(-3.88)" fill="#fff"/><path d="M40.707,6.12a.709.709,0,0,0,.707-.707V4H40V5.413A.709.709,0,0,0,40.707,6.12Z" transform="translate(-23.28)" fill="#fff"/><path d="M42,25.06v.127a4.48,4.48,0,0,1,2.12,0V25.06a1.06,1.06,0,0,0-2.12,0Z" transform="translate(-24.573 -12.933)" fill="#fff"/><path d="M13.894,24.48a4.6,4.6,0,0,1,2.827-4.24v-.353a1.767,1.767,0,0,1,3.533,0V16H4V27.307h9.894ZM8.24,26.247a.353.353,0,0,1-.353.353H5.767a.353.353,0,0,1-.353-.353v-2.12a.353.353,0,0,1,.353-.353h2.12a.353.353,0,0,1,.353.353Zm0-3.533a.353.353,0,0,1-.353.353H5.767a.353.353,0,0,1-.353-.353v-2.12a.353.353,0,0,1,.353-.353h2.12a.353.353,0,0,1,.353.353Zm0-3.533a.353.353,0,0,1-.353.353H5.767a.353.353,0,0,1-.353-.353V17.06a.353.353,0,0,1,.353-.353h2.12a.353.353,0,0,1,.353.353Zm2.12,7.42a1.413,1.413,0,1,1,1.413-1.413A1.413,1.413,0,0,1,10.36,26.6Zm0-3.533a1.413,1.413,0,1,1,1.413-1.413,1.413,1.413,0,0,1-1.413,1.413Zm0-3.533a1.413,1.413,0,1,1,1.413-1.413,1.413,1.413,0,0,1-1.413,1.413Zm2.131-1.424A1.413,1.413,0,1,1,13.9,19.522a1.413,1.413,0,0,1-1.409-1.411Z" transform="translate(0 -7.76)" fill="#fff"/><path d="M40.2,37.378a.365.365,0,0,1-.1-.251v-4.24a3.887,3.887,0,1,0-7.774,0v4.24a.365.365,0,0,1-.1.251l-.813.809h9.6Z" transform="translate(-17.725 -16.166)" fill="#fff"/><path d="M42.5,58.06A1.413,1.413,0,0,0,43.868,57H41.14A1.413,1.413,0,0,0,42.5,58.06Z" transform="translate(-24.017 -34.273)" fill="#fff"/></g><g transform="translate(17.354 184.998)"><path d="M18.242,10.588A.586.586,0,0,0,18.828,10V8.244h.586a.586.586,0,0,0,.352-1.055L10.352.119a.586.586,0,0,0-.7,0L.234,7.19A.586.586,0,0,0,.586,8.244h.586V10a.586.586,0,0,0,.586.586h.586v5.859H1.758a.586.586,0,0,0-.586.586v1.8H.586A.586.586,0,1,0,.586,20H19.414a.586.586,0,0,0,0-1.172h-.586v-1.8a.586.586,0,0,0-.586-.586h-.586V10.588ZM10,1.321l7.658,5.752H2.342Zm7.656,6.924V9.416H2.344V8.244Zm-5.9,8.2V10.588H14.1v5.859Zm-5.859,0V10.588H8.242v5.859Zm3.516,0Zm-5.9,0ZM2.344,18.83V17.619H17.656V18.83Zm14.141-2.383Zm0,0" transform="translate(-0.354)" fill="#fff" stroke="#fff" stroke-width="0.2"/><path d="M212.758,60a1.758,1.758,0,1,0,1.758,1.758A1.758,1.758,0,0,0,212.758,60Zm0,2.344a.586.586,0,1,1,.586-.586.586.586,0,0,1-.586.586Zm0,0" transform="translate(-202.677 -57.654)" fill="#fff"/></g><g transform="translate(17 396)"><path d="M0,77.794V81.15H3.356l9.9-9.9L9.9,67.893Z" transform="translate(0 -65.045)" fill="#8697ba"/><path d="M263.659,2.351,261.57.262a.9.9,0,0,0-1.266,0L258.666,1.9l3.356,3.356,1.638-1.638a.9.9,0,0,0,0-1.267Z" transform="translate(-247.816)" fill="#8697ba"/></g><g transform="translate(15.369 428)"><g transform="translate(1.63)"><path d="M14.337,2.222a7.414,7.414,0,0,0-12.7,5.417,7.066,7.066,0,0,0,.5,2.481,7.344,7.344,0,0,0,1.048,1.835L2.577,13.4a1.1,1.1,0,0,0,1.206,1.52l2.831-.489A7.423,7.423,0,0,0,14.337,2.222ZM8.5,10.382H6.561a.559.559,0,1,1,0-1.118H8.5a.563.563,0,0,1,.559.559.552.552,0,0,1-.559.559ZM11.523,8.11H6.561A.563.563,0,0,1,6,7.551a.552.552,0,0,1,.559-.559h4.962a.559.559,0,0,1,0,1.118Zm0-2.289H6.561a.559.559,0,0,1,0-1.118h4.962a.563.563,0,0,1,.559.559.575.575,0,0,1-.559.559Z" transform="translate(-1.63)" fill="#8697ba"/></g></g><g transform="translate(-104 362)"><g transform="translate(121)"><path d="M127.87,93.81a4.079,4.079,0,0,0,1.944-2.954l-.5-.007a5.532,5.532,0,0,1-3.532-1.437,5.532,5.532,0,0,1-3.532,1.437l-.5.007a4.079,4.079,0,0,0,1.944,2.954,4.784,4.784,0,0,0-2.688,4.3v5.735a.531.531,0,0,0,.531.531h8.5a.531.531,0,0,0,.531-.531V98.106a4.784,4.784,0,0,0-2.7-4.3Zm.67,3.945a.531.531,0,0,1-.46.265h-.938v2.339a.531.531,0,0,1-.531.531h-1.664a.531.531,0,0,1-.531-.531V98.021h-.938a.531.531,0,0,1-.46-.8l1.715-2.971a4.079,4.079,0,0,0,2.091,0l1.715,2.971a.531.531,0,0,1,0,.535Z" transform="translate(-121 -86.248)" fill="#8697ba"/><path d="M145.551,2.035a.531.531,0,0,1,.874,0,4.251,4.251,0,0,0,3.112,1.5l.489.007a4.071,4.071,0,0,0-8.074,0l.49-.007a4.251,4.251,0,0,0,3.109-1.505Z" transform="translate(-141.209)" fill="#8697ba"/></g></g><g transform="translate(16.99 329)"><path d="M241.5,421.75h8.131a.506.506,0,0,1,.506.506v2.033a.506.506,0,0,1-.506.506H241.5a.506.506,0,0,1-.506-.506v-2.033A.506.506,0,0,1,241.5,421.75Z" transform="translate(-232.849 -407.52)" fill="#8697ba"/><g transform="translate(0.011)"><path d="M.456,233.322l5.395-5.4L8,230.08l-5.395,5.4a1.522,1.522,0,0,1-2.153-2.153Z" transform="translate(-0.011 -220.237)" fill="#8697ba"/><path d="M0,0H5.078V5.086H0Z" transform="translate(5.833 6.253) rotate(-45)" fill="#8697ba"/><path d="M290.822,191.774l.722.722a.506.506,0,0,1,0,.716l-4.312,4.312a.506.506,0,0,1-.716,0l-.722-.722a.506.506,0,0,1,0-.716l4.312-4.312a.506.506,0,0,1,.716,0Z" transform="translate(-276.008 -185.16)" fill="#8697ba"/><path d="M95.605,5.9a.506.506,0,0,1-.716,0l-.722-.722a.506.506,0,0,1,0-.716L98.48.148a.506.506,0,0,1,.716,0l.722.722a.506.506,0,0,1,0,.716Z" transform="translate(-90.848)" fill="#8697ba"/></g></g><g transform="translate(-1708 166.581)"><g transform="translate(1725 417)"><circle cx="18" cy="18" r="18" transform="translate(0 0.419)" fill="#f5f5f5"/><g transform="translate(9.912 9.912)"><path d="M15.881,7.618H8.909V.646a.646.646,0,0,0-1.291,0V7.618H.646a.646.646,0,0,0,0,1.291H7.618v6.972a.646.646,0,0,0,1.291,0V8.909h6.972a.646.646,0,0,0,0-1.291Z" fill="#8091b8" stroke="#8091b8" stroke-width="1"/></g></g></g><g transform="translate(17 548)"><rect width="18.745" height="1.973" fill="#8091b8"/><g transform="translate(0 2.96)"><rect width="14.798" height="1.973" fill="#8091b8"/></g><g transform="translate(0 5.92)"><rect width="11.839" height="1.973" fill="#8091b8"/></g><g transform="translate(0 8.879)"><rect width="7.892" height="1.973" fill="#8091b8"/></g><g transform="translate(0 11.839)"><rect width="5.919" height="1.973" fill="#8091b8"/></g><g transform="translate(0 14.799)"><rect width="3.946" height="0.987" fill="#8091b8"/></g><g transform="translate(0 16.771)"><rect width="2.96" height="0.987" fill="#8091b8"/></g><g transform="translate(0 18.745)"><rect width="0.987" height="0.987" fill="#8091b8"/></g><g transform="translate(16.376 5.936)"><path d="M359.373,160.174a.608.608,0,0,0-.86,0L356.688,162l.86.86.786-.786v9.48h1.217v-9.48l.786.786.86-.86Z" transform="translate(-356.688 -159.996)" fill="#8091b8"/></g></g><g transform="translate(-14 459)"><g transform="translate(33.4)"><path d="M124.6,0a3.6,3.6,0,1,0,3.6,3.6A3.6,3.6,0,0,0,124.6,0Z" transform="translate(-121)" fill="#9c9c9c"/></g><g transform="translate(31 8)"><path d="M41.479,301.552A5.132,5.132,0,0,0,37.8,300H36.2a5.132,5.132,0,0,0-3.679,1.552,5.246,5.246,0,0,0-1.521,3.7.4.4,0,0,0,.4.4H42.6a.4.4,0,0,0,.4-.4,5.246,5.246,0,0,0-1.521-3.7Z" transform="translate(-31 -300)" fill="#9c9c9c"/></g></g><g transform="translate(17 489)"><rect width="0.751" height="1.126" transform="translate(5.625 5.249)" fill="#9c9c9c"/><path d="M10.594.938h-.562V0H9.094V.938H2.906V0H1.969V.938H1.406A1.408,1.408,0,0,0,0,2.344v8.25A1.408,1.408,0,0,0,1.406,12H6.229a4.134,4.134,0,0,1-.836-.937H1.406a.469.469,0,0,1-.469-.469V4.406H11.063v.987A4.135,4.135,0,0,1,12,6.229V2.344A1.408,1.408,0,0,0,10.594.938Zm.469,2.531H.938V2.344a.469.469,0,0,1,.469-.469H1.97v.938h.938V1.875H9.094v.938h.938V1.875h.563a.469.469,0,0,1,.469.469Z" fill="#9c9c9c"/><path d="M245.164,242a3.164,3.164,0,1,0,3.164,3.164A3.164,3.164,0,0,0,245.164,242Zm0,5.391a2.227,2.227,0,1,1,2.227-2.227,2.227,2.227,0,0,1-2.227,2.227Z" transform="translate(-236.328 -236.328)" fill="#9c9c9c"/><path d="M356.938,310H356v2.039h1.734V311.1h-.8Z" transform="translate(-347.656 -302.734)" fill="#9c9c9c"/><rect width="0.751" height="1.126" transform="translate(3.747 7.126)" fill="#9c9c9c"/><rect width="0.751" height="1.126" transform="translate(1.87 7.126)" fill="#9c9c9c"/><rect width="0.751" height="1.126" transform="translate(1.87 5.249)" fill="#9c9c9c"/><rect width="0.751" height="1.126" transform="translate(1.87 9.004)" fill="#9c9c9c"/><rect width="0.751" height="1.126" transform="translate(3.747 5.249)" fill="#9c9c9c"/><rect width="0.751" height="1.126" transform="translate(3.747 9.004)" fill="#9c9c9c"/></g><path d="M10.817,9.815V3.282A1.184,1.184,0,0,0,9.635,2.1H5.913V6.327a1.774,1.774,0,0,1-3.548,0V3.784a.591.591,0,0,1,1.183,0V6.327a.592.592,0,1,0,1.183,0V1.774A.591.591,0,0,0,3.563,1.64a.591.591,0,0,1-.62.457L2.9,2.1H2.365A1.184,1.184,0,0,0,1.183,3.282v9.49a1.184,1.184,0,0,0,1.183,1.183h7.27a1.184,1.184,0,0,0,1.183-1.183.591.591,0,0,1,1.183,0,2.368,2.368,0,0,1-2.365,2.365H2.365A2.368,2.368,0,0,1,0,12.772V3.282A2.368,2.368,0,0,1,2.365.917h.22a1.774,1.774,0,0,1,3.106,0H9.635A2.368,2.368,0,0,1,12,3.282V9.815a.591.591,0,1,1-1.183,0ZM2.956,11.589a.591.591,0,0,0,0,1.183H7.243a.591.591,0,1,0,0-1.183ZM9.608,9.845a.591.591,0,0,0-.591-.591H2.956a.591.591,0,0,0,0,1.183H9.017a.591.591,0,0,0,.591-.592Zm-.591-2.9H7.657a.592.592,0,0,0,0,1.183h1.36a.592.592,0,0,0,0-1.183Zm0-2.336H7.657a.592.592,0,0,0,0,1.183h1.36a.592.592,0,1,0,0-1.183Zm0,0" transform="translate(17 517)" fill="#9c9c9c"/><g transform="translate(17 635.863)"><path d="M3.629,366.3a.717.717,0,0,0,0-1.433,2.2,2.2,0,0,1-2.2-2.149.716.716,0,1,0-1.432,0A3.62,3.62,0,0,0,3.629,366.3Zm0,0" transform="translate(0 -349.776)" fill="#9c9c9c"/><path d="M.716,10.075a.716.716,0,0,0,.716-.716V6.446A2.2,2.2,0,0,1,3.629,4.3H6.993L4.664,5.85a.716.716,0,1,0,.8,1.192l4.3-2.865a.716.716,0,0,0,0-1.192L5.459.12a.716.716,0,1,0-.8,1.192L6.993,2.865H3.629A3.62,3.62,0,0,0,0,6.446V9.359a.716.716,0,0,0,.716.716Zm0,0" fill="#9c9c9c"/><path d="M121.716,422a.716.716,0,1,0,0,1.433h2.865a.717.717,0,0,0,0-1.433Zm0,0" transform="translate(-115.222 -406.911)" fill="#9c9c9c"/></g><g transform="translate(-810 -45)"><rect width="14" height="14" rx="3" transform="translate(827 714)" fill="#34c957"/><g transform="translate(-19.535 216.844)"><path d="M2.422,5.183a.339.339,0,0,1-.24-.1L.1,3a.34.34,0,0,1,.481-.481L2.422,4.363,6.346.439A.34.34,0,0,1,6.827.92L2.663,5.084a.339.339,0,0,1-.24.1Zm0,0" transform="translate(850.536 500.817)" fill="#fff"/><path d="M2.422,5.183a.339.339,0,0,1-.24-.1L.1,3a.34.34,0,0,1,.481-.481L2.422,4.363,6.346.439A.34.34,0,0,1,6.827.92L2.663,5.084a.339.339,0,0,1-.24.1Zm0,0" transform="translate(850.536 502.739)" fill="#fff"/></g></g><g transform="translate(17 728)"><circle cx="14.146" cy="14.146" r="14.146" transform="translate(0 0)" fill="#f5f5f5"/><g transform="translate(7.468 6.224)"><path d="M126.377.912H128.9v.425h.912V.852A.853.853,0,0,0,128.961,0h-2.644a.853.853,0,0,0-.852.852v.484h.912Zm0,0" transform="translate(-121.415)" fill="#8091b8"/><path d="M50.117,167.75h-9.2a.414.414,0,0,0-.43.434l.769,8.848a1,1,0,0,0,1.017.874h6.483a1,1,0,0,0,1.017-.874l.769-8.847a.414.414,0,0,0-.43-.434Zm-6.969,9.212h-.031a.476.476,0,0,1-.488-.428l-.482-7.263a.469.469,0,0,1,.459-.483.479.479,0,0,1,.519.427l.482,7.263a.469.469,0,0,1-.459.484Zm2.866-.455a.491.491,0,0,1-.98,0v-7.264a.491.491,0,0,1,.98,0Zm2.877-7.237-.46,7.263a.476.476,0,0,1-.488.429h-.029a.469.469,0,0,1-.46-.482l.46-7.263a.478.478,0,0,1,.518-.428.469.469,0,0,1,.459.481Zm0,0" transform="translate(-39.296 -162.801)" fill="#8091b8"/><path d="M12.427,77.5l-.317-.9a.612.612,0,0,0-.583-.4H.921a.612.612,0,0,0-.582.4l-.317.9a.366.366,0,0,0,.167.438A.412.412,0,0,0,.4,78H12.05a.41.41,0,0,0,.211-.058.366.366,0,0,0,.167-.438Zm0,0" transform="translate(0 -73.963)" fill="#8091b8"/></g></g><g transform="translate(17 695)"><circle cx="14.146" cy="14.146" r="14.146" transform="translate(0 0)" fill="#f5f5f5"/><g transform="translate(7.164 7.96)"><path d="M144.218,34.093a.671.671,0,0,0,.949,0l2.531-2.531a.671.671,0,1,0-.949-.949L145.363,32V24.671a.671.671,0,1,0-1.342,0V32l-1.385-1.385a.671.671,0,1,0-.949.949Z" transform="translate(-138.205 -24)" fill="#8091b8"/><path d="M36.3,232a.671.671,0,0,0-.671.671v5.145H25.342v-5.145a.671.671,0,1,0-1.342,0v5.368a1.118,1.118,0,0,0,1.118,1.118H35.855a1.118,1.118,0,0,0,1.118-1.118v-5.368A.671.671,0,0,0,36.3,232Z" transform="translate(-24 -226.184)" fill="#8091b8"/></g></g></g><g transform="translate(5 -79)"><g transform="translate(14 300)"><path d="M31.858,222.522H30.716v-.38A1.144,1.144,0,0,0,29.574,221h0a1.144,1.144,0,0,0-1.142,1.142v.381H26.148v-.381A1.144,1.144,0,0,0,25.006,221h0a1.144,1.144,0,0,0-1.142,1.142v.381H21.58v-.381A1.144,1.144,0,0,0,20.438,221h0a1.144,1.144,0,0,0-1.138,1.142v.381H18.154A1.15,1.15,0,0,0,17,223.664v15.683a1.15,1.15,0,0,0,1.154,1.142h13.7A1.144,1.144,0,0,0,33,239.348V223.664A1.144,1.144,0,0,0,31.858,222.522Zm-2.664-.381a.381.381,0,0,1,.761-.039.26.26,0,0,1,0,.039v1.523a.381.381,0,0,1-.761.039.26.26,0,0,1,0-.039Zm-4.567,0a.381.381,0,0,1,.761-.039.26.26,0,0,1,0,.039v1.523a.381.381,0,0,1-.761.039.26.26,0,0,1,0-.039Zm-4.567,0a.381.381,0,0,1,.761-.039.26.26,0,0,1,0,.039v1.523a.381.381,0,0,1-.761.039.26.26,0,0,1,0-.039Zm-1.905,1.143H19.3v.381a1.142,1.142,0,0,0,2.284,0v-.381h2.284v.381a1.142,1.142,0,0,0,2.284,0v-.381h2.284v.381a1.142,1.142,0,0,0,2.284,0v-.381h1.142a.381.381,0,0,1,.381.381v2.283H17.761v-2.284a.39.39,0,0,1,.39-.381Zm13.7,16.444h-13.7a.39.39,0,0,1-.39-.381V226.709H32.239v12.638A.381.381,0,0,1,31.858,239.729Z" transform="translate(-17 -221)" fill="#fff"/><g transform="translate(0 5.285)"><g clip-path="url(#c)"><path d="M17.667,226.859v13.035H32.36V226.859Zm10.919,5.673L27.278,233.8l.318,1.817a.513.513,0,0,1-.77.527l-1.6-.85-1.63.863a.511.511,0,0,1-.743-.541l.318-1.817-1.324-1.283a.512.512,0,0,1,.285-.877l1.827-.26.811-1.657a.516.516,0,0,1,.237-.237.511.511,0,0,1,.682.237l.809,1.657,1.826.264a.517.517,0,0,1,.312.168A.512.512,0,0,1,28.586,232.532Z" transform="translate(-17.017 -226.434)" fill="#fff"/></g></g></g></g><g transform="translate(23 40)"><g transform="translate(121)"><path d="M126.875,93.174a3.488,3.488,0,0,0,1.663-2.526l-.43-.006a4.731,4.731,0,0,1-3.021-1.229,4.731,4.731,0,0,1-3.021,1.229l-.43.006a3.488,3.488,0,0,0,1.663,2.526,4.091,4.091,0,0,0-2.3,3.674v4.9a.454.454,0,0,0,.454.454h7.266a.454.454,0,0,0,.454-.454v-4.9A4.091,4.091,0,0,0,126.875,93.174Zm.573,3.374a.454.454,0,0,1-.393.227h-.8v2a.454.454,0,0,1-.454.454h-1.423a.454.454,0,0,1-.454-.454v-2h-.8a.454.454,0,0,1-.393-.681l1.467-2.541a3.488,3.488,0,0,0,1.788,0l1.467,2.541A.454.454,0,0,1,127.448,96.548Z" transform="translate(-121 -86.706)" fill="#2a7db9"/><path d="M145.03,1.74a.454.454,0,0,1,.748,0,3.636,3.636,0,0,0,2.661,1.287l.418.006a3.482,3.482,0,0,0-6.905,0l.419-.006A3.635,3.635,0,0,0,145.03,1.74Z" transform="translate(-141.317)" fill="#2a7db9"/></g></g><g transform="translate(-1218 -42)" clip-path="url(#d)"><g transform="translate(1362 54)"><path d="M8.912,14.827h7.061a.439.439,0,0,1,.439.439v1.765a.439.439,0,0,1-.439.439H8.912a.439.439,0,0,1-.439-.439V15.267a.439.439,0,0,1,.439-.439Z" transform="translate(-1.412 -2.471)" fill="#2a7db9"/><g transform="translate(0 0)"><path d="M.387,12.7,5.071,8.013l1.87,1.87L2.257,14.567A1.322,1.322,0,0,1,.387,12.7Z" transform="translate(0 -1.336)" fill="#2a7db9"/><path d="M0,0H4.409V4.416H0Z" transform="translate(5.065 5.43) rotate(-45)" fill="#2a7db9"/><path d="M14.537,6.866l.627.627a.439.439,0,0,1,0,.621l-3.744,3.744a.439.439,0,0,1-.621,0l-.627-.627a.439.439,0,0,1,0-.621l3.744-3.744a.439.439,0,0,1,.621,0Z" transform="translate(-1.674 -1.123)" fill="#2a7db9"/><path d="M4.682,5.121a.439.439,0,0,1-.621,0l-.627-.627a.439.439,0,0,1,0-.621L7.178.129a.439.439,0,0,1,.621,0l.627.627a.439.439,0,0,1,0,.621Z" transform="translate(-0.551 0)" fill="#2a7db9"/></g></g></g><g transform="translate(144 69.61)"><path d="M10.563,6.745h.08q.207,0,.41.026V1.744A1.746,1.746,0,0,0,9.31,0H1.744A1.746,1.746,0,0,0,0,1.744v10.03a1.746,1.746,0,0,0,1.744,1.744H6.8a4.436,4.436,0,0,1,3.768-6.772Zm-4.31-3.9H8.838a.433.433,0,1,1,0,.866H6.254a.433.433,0,1,1,0-.866Zm0,1.732H8.838a.433.433,0,1,1,0,.866H6.254a.433.433,0,0,1,0-.866ZM4.8,10.67H2.216a.433.433,0,1,1,0-.866H4.8a.433.433,0,1,1,0,.866Zm0-1.761H2.216a.433.433,0,1,1,0-.866H4.8a.433.433,0,1,1,0,.866Zm0-1.732H2.216a.433.433,0,0,1,0-.866H4.8a.433.433,0,1,1,0,.866Zm0-1.732H2.216a.433.433,0,1,1,0-.866H4.8a.433.433,0,1,1,0,.866Zm0-1.732H2.216a.433.433,0,1,1,0-.866H4.8a.433.433,0,1,1,0,.866ZM5.821,6.744a.433.433,0,0,1,.433-.433H7.5a.433.433,0,0,1,0,.866H6.254A.433.433,0,0,1,5.821,6.744Zm0,0" fill="#2a7db9"/><path d="M247.546,263.755a3.573,3.573,0,0,0-2.5-1.075h-.065a3.6,3.6,0,1,0,2.564,1.076Zm-1.028,1.938-1.373,1.712a.433.433,0,0,1-.592.08l-1.024-.742a.433.433,0,0,1,.508-.7l.69.5,1.115-1.39a.433.433,0,0,1,.675.542Zm0,0" transform="translate(-234.419 -255.097)" fill="#2a7db9"/></g><g transform="translate(144.982 98.5)"><path d="M11.092,0H1.232A1.272,1.272,0,0,0,0,1.3V11.7A1.272,1.272,0,0,0,1.232,13h9.86a1.272,1.272,0,0,0,1.232-1.3V1.3A1.272,1.272,0,0,0,11.092,0ZM3.326,11.441H1.438V9.669H3.326v1.771Zm0-2.366H1.438V7.3H3.326V9.075Zm-.142-7.1a.538.538,0,0,1-.523-.552.524.524,0,1,1,1.046,0A.538.538,0,0,1,3.184,1.97Zm2.662,9.47H3.958V9.669H5.846Zm0-2.366H3.958V7.3H5.846Zm0-2.364H3.958V4.941H5.846ZM5.639,1.418a.524.524,0,1,1,1.046,0,.524.524,0,1,1-1.046,0ZM8.367,9.075H6.479V7.3H8.367V9.075Zm0-2.364H6.479V4.941H8.367V6.711Zm.251-5.293a.524.524,0,1,1,1.046,0,.524.524,0,1,1-1.046,0Zm2.269,7.657H9V7.3h1.888Zm0-2.364H9V4.941h1.888Z" fill="#2a7db9"/></g><g transform="translate(144.982 105)"><path d="M13.138,27.766H7.424L5.851,25.2A.415.415,0,0,0,5.5,25H1.245A1.246,1.246,0,0,0,0,26.245V36.755A1.246,1.246,0,0,0,1.245,38H13.138a1.246,1.246,0,0,0,1.245-1.245V29.011A1.246,1.246,0,0,0,13.138,27.766Zm-2.66,5.4L8.033,35.611a2.489,2.489,0,0,1-3.521-3.52L5.98,30.624a1.8,1.8,0,0,1,2.543,2.543L7.251,34.438a1.106,1.106,0,0,1-1.565-1.565L6.762,31.8a.415.415,0,1,1,.587.587L6.273,33.46a.277.277,0,1,0,.391.391L7.935,32.58a.968.968,0,1,0-1.369-1.369L5.1,32.678a1.66,1.66,0,0,0,2.347,2.347L9.891,32.58a.415.415,0,0,1,.587.587Z" fill="#2a7db9"/><path d="M260.677,46.383v-.139A1.246,1.246,0,0,0,259.432,45H254.58l.847,1.383Z" transform="translate(-247.538 -19.447)" fill="#2a7db9"/></g><g transform="translate(145.856 154.254)"><path d="M6.318,0a6.31,6.31,0,1,0,6.309,6.306A6.308,6.308,0,0,0,6.318,0Zm.45,9.817a.743.743,0,0,1-.509.2.768.768,0,0,1-.521-.193.678.678,0,0,1-.223-.541.7.7,0,0,1,.215-.519.727.727,0,0,1,.528-.21.718.718,0,0,1,.729.729A.684.684,0,0,1,6.767,9.817Zm1.827-4.53a2.231,2.231,0,0,1-.4.541q-.232.228-.834.766a3.453,3.453,0,0,0-.266.266,1.086,1.086,0,0,0-.149.21,1.014,1.014,0,0,0-.076.191q-.027.1-.081.335a.544.544,0,0,1-.582.509.6.6,0,0,1-.428-.166A.654.654,0,0,1,5.6,7.445a1.821,1.821,0,0,1,.127-.712A1.8,1.8,0,0,1,6.068,6.2a7.735,7.735,0,0,1,.568-.541q.313-.274.452-.413a1.4,1.4,0,0,0,.235-.311.748.748,0,0,0,.1-.372.863.863,0,0,0-.291-.66,1.063,1.063,0,0,0-.751-.269,1.039,1.039,0,0,0-.793.271,2.166,2.166,0,0,0-.43.8q-.167.553-.631.553a.621.621,0,0,1-.462-.193.591.591,0,0,1-.188-.418,1.77,1.77,0,0,1,.3-.942,2.3,2.3,0,0,1,.871-.79,2.739,2.739,0,0,1,1.335-.313,2.849,2.849,0,0,1,1.252.262,2.03,2.03,0,0,1,.839.712,1.747,1.747,0,0,1,.3.978A1.507,1.507,0,0,1,8.595,5.287Z" fill="#2a7db9"/></g><g transform="translate(26.141 205)"><g transform="translate(121)"><path d="M126.875,93.174a3.488,3.488,0,0,0,1.663-2.526l-.43-.006a4.731,4.731,0,0,1-3.021-1.229,4.731,4.731,0,0,1-3.021,1.229l-.43.006a3.488,3.488,0,0,0,1.663,2.526,4.091,4.091,0,0,0-2.3,3.674v4.9a.454.454,0,0,0,.454.454h7.266a.454.454,0,0,0,.454-.454v-4.9A4.091,4.091,0,0,0,126.875,93.174Zm.573,3.374a.454.454,0,0,1-.393.227h-.8v2a.454.454,0,0,1-.454.454h-1.423a.454.454,0,0,1-.454-.454v-2h-.8a.454.454,0,0,1-.393-.681l1.467-2.541a3.488,3.488,0,0,0,1.788,0l1.467,2.541A.454.454,0,0,1,127.448,96.548Z" transform="translate(-121 -86.706)" fill="#2a7db9"/><path d="M145.03,1.74a.454.454,0,0,1,.748,0,3.636,3.636,0,0,0,2.661,1.287l.418.006a3.482,3.482,0,0,0-6.905,0l.419-.006A3.635,3.635,0,0,0,145.03,1.74Z" transform="translate(-141.317)" fill="#2a7db9"/></g></g><g transform="translate(116.141 176)"><g transform="translate(33.285)"><path d="M124.428,0a3.428,3.428,0,1,0,3.428,3.428A3.432,3.432,0,0,0,124.428,0Z" transform="translate(-121)" fill="#2a7db9"/></g><g transform="translate(31 7.617)"><path d="M40.978,301.478a4.886,4.886,0,0,0-3.5-1.478H35.951a4.887,4.887,0,0,0-3.5,1.478A5,5,0,0,0,31,305a.381.381,0,0,0,.381.381H42.045a.381.381,0,0,0,.381-.381A5,5,0,0,0,40.978,301.478Z" transform="translate(-31 -300)" fill="#2a7db9"/></g></g><g transform="translate(145.51 234)"><g transform="translate(1.63 0)"><path d="M12.1,1.832A6.112,6.112,0,0,0,1.633,6.3a5.825,5.825,0,0,0,.418,2.045,6.054,6.054,0,0,0,.864,1.512l-.5,1.2A.906.906,0,0,0,3.4,12.3l2.333-.4A6.119,6.119,0,0,0,12.1,1.832ZM7.294,8.558h-1.6a.461.461,0,1,1,0-.922h1.6a.464.464,0,0,1,.461.461A.455.455,0,0,1,7.294,8.558ZM9.786,6.686H5.695a.464.464,0,0,1-.461-.461.455.455,0,0,1,.461-.461H9.786a.461.461,0,0,1,0,.922Zm0-1.887H5.695a.461.461,0,1,1,0-.922H9.786a.464.464,0,0,1,.461.461A.474.474,0,0,1,9.786,4.8Z" transform="translate(-1.63 0)" fill="#2a7db9"/></g></g><g transform="translate(280 90)"><g transform="translate(302 169)"><path d="M3.629,366.3a.716.716,0,0,0,0-1.433,2.2,2.2,0,0,1-2.2-2.149.716.716,0,0,0-1.432,0A3.62,3.62,0,0,0,3.629,366.3Zm0,0" transform="translate(0 -349.776)" fill="#2a7db9"/><path d="M.716,10.075a.716.716,0,0,0,.716-.716V6.446A2.2,2.2,0,0,1,3.629,4.3H6.993L4.664,5.85a.716.716,0,1,0,.795,1.192l4.3-2.865a.716.716,0,0,0,0-1.192L5.459.12a.716.716,0,1,0-.795,1.192L6.993,2.865H3.629A3.62,3.62,0,0,0,0,6.446V9.359a.716.716,0,0,0,.716.716Zm0,0" transform="translate(0 0)" fill="#2a7db9"/><path d="M121.716,422a.716.716,0,0,0,0,1.433h2.865a.716.716,0,1,0,0-1.433Zm0,0" transform="translate(-115.222 -406.911)" fill="#2a7db9"/></g><path d="M7,0a7,7,0,1,0,7,7A7.008,7.008,0,0,0,7,0Zm3.329,10.621a.583.583,0,0,1-.825,0L6.588,7.7a.581.581,0,0,1-.171-.412V3.5a.583.583,0,1,1,1.167,0V7.05L10.329,9.8a.583.583,0,0,1,0,.825Zm0,0" transform="translate(-134 171)" fill="#2a7db9"/></g><g transform="translate(149.29 290)"><path d="M3.629,366.3a.716.716,0,0,0,0-1.433,2.2,2.2,0,0,1-2.2-2.149.716.716,0,0,0-1.432,0A3.62,3.62,0,0,0,3.629,366.3Zm0,0" transform="translate(0 -349.776)" fill="#2a7db9"/><path d="M.716,10.075a.716.716,0,0,0,.716-.716V6.446A2.2,2.2,0,0,1,3.629,4.3H6.993L4.664,5.85a.716.716,0,1,0,.795,1.192l4.3-2.865a.716.716,0,0,0,0-1.192L5.459.12a.716.716,0,1,0-.795,1.192L6.993,2.865H3.629A3.62,3.62,0,0,0,0,6.446V9.359a.716.716,0,0,0,.716.716Zm0,0" transform="translate(0 0)" fill="#2a7db9"/><path d="M121.716,422a.716.716,0,0,0,0,1.433h2.865a.716.716,0,1,0,0-1.433Zm0,0" transform="translate(-115.222 -406.911)" fill="#2a7db9"/></g></g></svg>