<svg xmlns="http://www.w3.org/2000/svg" width="118.918" height="119" viewBox="0 0 118.918 119">
    <defs>
        <style>
            .cls-1{fill:#caddff}.cls-2{fill:#fff}.cls-3{fill:#5479f7}.cls-4{fill:#99b9ff}
        </style>
    </defs>
    <g id="Group_1418" transform="translate(-313 -282)">
        <g id="Employment_agreement" transform="translate(-2113.154 95.922)">
            <path id="Path_1066" d="M2427.779 283.866c3.508 8.461 11.684 12.472 16.91 15.035 20.6 10.1 51.872 8.963 74.362-9.389 5.263-4.295 31.2-26.8 25.118-57.319-5.379-26.983-32.282-42.668-54.925-44.777-18.759-1.748-43.246 5.03-51.882 21.475-5.431 10.341 1.114 13.636-3.308 37.079-3.828 20.289-10.565 27.546-6.275 37.896z" class="cls-1" transform="translate(-.21 -.917)"/>
            <g id="Group_1344" transform="translate(2439.5 186.078)">
                <g id="Group_1338">
                    <rect id="Rectangle_1054" width="80.177" height="107.006" class="cls-2" rx="4.61" transform="translate(.215 .215)"/>
                    <g id="Group_1337">
                        <path id="Path_1067" d="M2599.149 500.454h-78.857a.875.875 0 0 1-.875-.874V440.1a.215.215 0 1 1 .429 0v59.48a.446.446 0 0 0 .445.445h78.857a.446.446 0 0 0 .445-.445v-71.788a.215.215 0 1 1 .429 0v71.788a.876.876 0 0 1-.873.874z" transform="translate(-2519.417 -393.018)"/>
                        <path id="Path_1068" d="M2519.632 212.208a.215.215 0 0 1-.215-.215v-25.04a.875.875 0 0 1 .875-.875h78.857a.876.876 0 0 1 .875.875v7.418a.215.215 0 1 1-.429 0v-7.418a.446.446 0 0 0-.445-.445h-78.857a.446.446 0 0 0-.445.445v25.041a.215.215 0 0 1-.216.214z" transform="translate(-2519.417 -186.078)"/>
                    </g>
                </g>
                <g id="Group_1339" transform="translate(9.39 22.652)">
                    <path id="Path_1069" d="M2645.592 603.987h-58a1.772 1.772 0 0 1-1.772-1.772 1.772 1.772 0 0 1 1.772-1.772h58a1.771 1.771 0 0 1 1.771 1.772 1.771 1.771 0 0 1-1.771 1.772z" class="cls-1" transform="translate(-2585.711 -563.8)"/>
                    <rect id="Rectangle_1055" width="8.111" height="3.543" class="cls-1" rx="1.772" transform="translate(.112 28.066)"/>
                    <path id="Path_1070" d="M2725.2 544.041h-43.78a1.772 1.772 0 0 1-1.772-1.772 1.772 1.772 0 0 1 1.772-1.772h43.78a1.772 1.772 0 0 1 1.771 1.772 1.772 1.772 0 0 1-1.771 1.772z" class="cls-1" transform="translate(-2666.113 -512.432)"/>
                    <path id="Path_1071" d="M2634.093 484.1h-46.5a1.772 1.772 0 0 1-1.772-1.772 1.772 1.772 0 0 1 1.772-1.772h46.5a1.772 1.772 0 0 1 1.772 1.772 1.772 1.772 0 0 1-1.772 1.772z" class="cls-1" transform="translate(-2585.711 -461.065)"/>
                    <path id="Path_1072" d="M2645.592 424.15h-58a1.772 1.772 0 0 1-1.772-1.772 1.772 1.772 0 0 1 1.772-1.772h58a1.771 1.771 0 0 1 1.771 1.772 1.771 1.771 0 0 1-1.771 1.772z" class="cls-1" transform="translate(-2585.711 -409.698)"/>
                    <rect id="Rectangle_1056" width="28.438" height="3.543" class="cls-1" rx="1.772" transform="translate(16.663)"/>
                    <path id="Path_1073" d="M2603.147 860.357h-16.522a1.588 1.588 0 0 1-1.587-1.588 1.588 1.588 0 0 1 1.587-1.588h16.522a1.587 1.587 0 0 1 1.588 1.588 1.588 1.588 0 0 1-1.588 1.588z" class="cls-1" transform="translate(-2585.038 -783.799)"/>
                    <path id="Path_1074" d="M2603.442 808.537h-16.816a1.588 1.588 0 0 1-1.587-1.588 1.588 1.588 0 0 1 1.587-1.588h16.816a1.587 1.587 0 0 1 1.587 1.588 1.587 1.587 0 0 1-1.587 1.588z" class="cls-1" transform="translate(-2585.038 -739.394)"/>
                </g>
                <g id="Group_1340" transform="translate(8.091 6.757)">
                    <path id="Path_1075" d="M2582.155 238.959a.2.2 0 0 1 .188.229 2.934 2.934 0 0 1-.915 1.886 3.171 3.171 0 0 1-2.226.772 2.884 2.884 0 0 1-2.377-1.078 4.6 4.6 0 0 1-.866-2.958v-.51a5.246 5.246 0 0 1 .4-2.115 3.126 3.126 0 0 1 1.142-1.4 3.4 3.4 0 0 1 3.915.283 3.138 3.138 0 0 1 .934 1.933.2.2 0 0 1-.187.233h-1.235a.191.191 0 0 1-.187-.171 1.655 1.655 0 0 0-.407-1 1.512 1.512 0 0 0-1.109-.363 1.351 1.351 0 0 0-1.212.614 3.608 3.608 0 0 0-.413 1.906v.629a3.865 3.865 0 0 0 .386 1.972 1.326 1.326 0 0 0 1.217.623 1.539 1.539 0 0 0 1.12-.363 1.568 1.568 0 0 0 .407-.953.191.191 0 0 1 .186-.17z" class="cls-3" transform="translate(-2575.959 -233.295)"/>
                    <path id="Path_1076" d="M2640.907 237.759a5.276 5.276 0 0 1-.411 2.155 3.22 3.22 0 0 1-1.173 1.429 3.3 3.3 0 0 1-3.494.006 3.249 3.249 0 0 1-1.187-1.421 5.123 5.123 0 0 1-.426-2.123v-.411a5.248 5.248 0 0 1 .418-2.164 3.243 3.243 0 0 1 1.182-1.435 3.3 3.3 0 0 1 3.491 0 3.248 3.248 0 0 1 1.182 1.435 5.237 5.237 0 0 1 .418 2.158zm-1.641-.377a3.67 3.67 0 0 0-.442-1.989 1.513 1.513 0 0 0-2.521-.008 3.622 3.622 0 0 0-.448 1.969v.406a3.713 3.713 0 0 0 .442 1.978 1.5 1.5 0 0 0 2.526.026 3.7 3.7 0 0 0 .442-1.975z" class="cls-3" transform="translate(-2625.878 -233.295)"/>
                    <path id="Path_1077" d="M2703.1 242.416h-1.3a.2.2 0 0 1-.177-.105l-2.708-4.7a.205.205 0 0 0-.384.114v4.475a.213.213 0 0 1-.207.219h-1.205a.213.213 0 0 1-.207-.219v-7.884a.213.213 0 0 1 .207-.219h1.3a.2.2 0 0 1 .177.105l2.713 4.716a.205.205 0 0 0 .384-.114v-4.488a.213.213 0 0 1 .207-.219h1.2a.213.213 0 0 1 .207.219v7.884a.213.213 0 0 1-.207.216z" class="cls-3" transform="translate(-2679.612 -233.98)"/>
                    <path id="Path_1078" d="M2760.917 235.483h-2.062a.178.178 0 0 0-.173.183v6.568a.178.178 0 0 1-.172.183h-1.274a.178.178 0 0 1-.173-.183v-6.568a.177.177 0 0 0-.172-.183h-2.03a.178.178 0 0 1-.172-.183v-1.024a.178.178 0 0 1 .172-.183h6.055a.178.178 0 0 1 .173.183v1.024a.178.178 0 0 1-.172.183z" class="cls-3" transform="translate(-2729.113 -233.98)"/>
                    <path id="Path_1079" d="M2816.389 239.37h-1.011a.178.178 0 0 0-.173.183v2.681a.178.178 0 0 1-.173.183h-1.273a.178.178 0 0 1-.173-.183v-7.956a.178.178 0 0 1 .173-.183h2.747a3.173 3.173 0 0 1 2.148.657 2.331 2.331 0 0 1 .755 1.858 2.674 2.674 0 0 1-.348 1.42 2.332 2.332 0 0 1-.9.828.187.187 0 0 0-.07.246l1.616 3.233v.08h-1.632a.172.172 0 0 1-.154-.1l-1.377-2.847a.173.173 0 0 0-.155-.1zm-1.189-1.57a.178.178 0 0 0 .173.183h1.133a1.291 1.291 0 0 0 .945-.329 1.213 1.213 0 0 0 .335-.906 1.3 1.3 0 0 0-.316-.926 1.268 1.268 0 0 0-.969-.337h-1.128a.178.178 0 0 0-.173.183z" class="cls-3" transform="translate(-2779.582 -233.98)"/>
                    <path id="Path_1080" d="M2871.229 240.7h-2.711a.09.09 0 0 0-.084.064l-.5 1.586a.089.089 0 0 1-.084.064h-1.53a.093.093 0 0 1-.083-.127l2.859-8.134a.089.089 0 0 1 .083-.061h1.377a.089.089 0 0 1 .083.061l2.875 8.134a.094.094 0 0 1-.083.127h-1.531a.089.089 0 0 1-.084-.064l-.5-1.587a.09.09 0 0 0-.087-.063zm-2.215-1.389h1.718a.094.094 0 0 0 .084-.124l-.864-2.724a.087.087 0 0 0-.168 0l-.854 2.724a.094.094 0 0 0 .085.126z" class="cls-3" transform="translate(-2824.694 -233.98)"/>
                    <path id="Path_1081" d="M2934 238.959a.232.232 0 0 1 .22.269 2.923 2.923 0 0 1-.91 1.846 3.172 3.172 0 0 1-2.226.772 2.884 2.884 0 0 1-2.377-1.078 4.6 4.6 0 0 1-.866-2.958v-.51a5.237 5.237 0 0 1 .4-2.115 3.123 3.123 0 0 1 1.141-1.4 3.4 3.4 0 0 1 3.916.283 3.124 3.124 0 0 1 .927 1.893.232.232 0 0 1-.22.273h-1.168a.226.226 0 0 1-.219-.2 1.632 1.632 0 0 0-.4-.968 1.513 1.513 0 0 0-1.109-.363 1.351 1.351 0 0 0-1.211.614 3.6 3.6 0 0 0-.413 1.906v.629a3.866 3.866 0 0 0 .386 1.972 1.326 1.326 0 0 0 1.217.623 1.332 1.332 0 0 0 1.523-1.286.225.225 0 0 1 .218-.2z" class="cls-3" transform="translate(-2877.484 -233.295)"/>
                    <path id="Path_1082" d="M2989.482 235.483h-2.042a.188.188 0 0 0-.183.193v6.547a.188.188 0 0 1-.183.193h-1.254a.188.188 0 0 1-.183-.193v-6.547a.188.188 0 0 0-.183-.193h-2.009a.188.188 0 0 1-.183-.193v-1a.188.188 0 0 1 .183-.193h6.035a.188.188 0 0 1 .183.193v1a.188.188 0 0 1-.181.193z" class="cls-3" transform="translate(-2924.979 -233.98)"/>
                </g>
                <g id="Group_1343" transform="translate(7.434 74.334)">
                    <g id="Group_1342">
                        <path id="Path_1083" d="M2601.5 722.669a8.569 8.569 0 1 1 3-.545 8.582 8.582 0 0 1-3 .545zm-.005-16.71a8.142 8.142 0 1 0 7.617 5.287 8.155 8.155 0 0 0-7.617-5.287z" class="cls-4" transform="translate(-2589.839 -705.529)"/>
                        <path id="Path_1084" d="M2614.753 733.716a6.355 6.355 0 1 1 2.222-.4 6.365 6.365 0 0 1-2.222.4zm0-12.282a5.937 5.937 0 1 0 2.45.535 5.926 5.926 0 0 0-2.454-.535z" class="cls-4" transform="translate(-2603.094 -718.79)"/>
                        <g id="Group_1341" transform="translate(0 1.688)">
                            <path id="Rectangle_1057" d="M0 0H22.211V5.923H0z" class="cls-2" transform="rotate(-20.538 22.205 3.41)"/>
                            <path id="Path_1085" d="M2573.656 731.091a.215.215 0 0 1-.2-.139l-2.078-5.546a.214.214 0 0 1 .125-.276l20.8-7.792a.215.215 0 0 1 .276.126l2.078 5.547a.214.214 0 0 1-.125.276l-20.8 7.792a.215.215 0 0 1-.076.012zm-1.8-5.635l1.928 5.144 20.4-7.641-1.927-5.145z" class="cls-4" transform="translate(-2571.363 -717.323)"/>
                        </g>
                    </g>
                    <path id="Path_1086" d="M2625.97 748.336a.587.587 0 0 1-.187-.031.571.571 0 0 1-.4-.549v-3.489a.343.343 0 0 0-.647-.159l-1.115 2.135a.579.579 0 0 1-1.09-.221.15.15 0 0 0-.273-.072l-1.207 1.773a.579.579 0 0 1-1.048-.22l-.63-3.384a.343.343 0 0 0-.651-.077l-1.415 3.167a.215.215 0 0 1-.392-.175l1.415-3.167a.772.772 0 0 1 1.465.174l.63 3.384a.149.149 0 0 0 .271.057l1.207-1.773a.579.579 0 0 1 1.056.279.15.15 0 0 0 .282.057l1.115-2.135a.772.772 0 0 1 1.457.357v3.489a.149.149 0 0 0 .269.09l3.867-5.142a.215.215 0 1 1 .343.258l-3.867 5.142a.57.57 0 0 1-.455.232z" transform="translate(-2610.385 -737.31)"/>
                </g>
            </g>
            <g id="Group_1347" transform="translate(2529.917 224.378)">
                <g id="Group_1345">
                    <path id="Path_1087" d="M3166.233 465.622h-3.98a1.255 1.255 0 0 0-1.141.74l-1.041 2.291-1.292-2.373a1.253 1.253 0 0 0-1.1-.658h-3.66a1.263 1.263 0 0 1-1.255-1.27v-7.86a1.263 1.263 0 0 1 1.255-1.27h12.214a1.263 1.263 0 0 1 1.256 1.27v7.86a1.263 1.263 0 0 1-1.256 1.27z" class="cls-2" transform="translate(-3152.55 -455.006)"/>
                    <path id="Path_1088" d="M3158.787 467.581a.214.214 0 0 1-.188-.112l-1.292-2.373a1.039 1.039 0 0 0-.911-.545h-3.66a1.452 1.452 0 0 1-1.04-.436 1.48 1.48 0 0 1-.43-1.049v-7.86a1.479 1.479 0 0 1 1.47-1.485h12.214a1.479 1.479 0 0 1 1.47 1.485v7.86a1.483 1.483 0 0 1-.43 1.049 1.453 1.453 0 0 1-1.04.436h-3.98a1.043 1.043 0 0 0-.946.614l-1.041 2.291a.214.214 0 0 1-.187.126zm-6.052-13.431a1.049 1.049 0 0 0-1.041 1.055v7.86a1.056 1.056 0 0 0 .306.747 1.026 1.026 0 0 0 .735.308h3.66a1.467 1.467 0 0 1 1.288.77l1.086 1.995.863-1.9a1.474 1.474 0 0 1 1.337-.866h3.98a1.026 1.026 0 0 0 .735-.308 1.056 1.056 0 0 0 .306-.747v-7.86a1.049 1.049 0 0 0-1.041-1.056z" transform="translate(-3151.265 -453.721)"/>
                </g>
                <g id="Group_1346" transform="translate(3.019 3.109)">
                    <path id="Path_1089" d="M3172.58 475.9a.215.215 0 0 1 0-.429l8.992-.023a.215.215 0 0 1 0 .429l-8.993.023z" transform="translate(-3172.365 -475.444)"/>
                    <path id="Path_1090" d="M3172.58 490.484a.215.215 0 0 1 0-.429l6.511-.017a.215.215 0 0 1 0 .429l-6.511.017z" transform="translate(-3172.365 -487.95)"/>
                    <path id="Path_1091" d="M3172.58 505.357a.215.215 0 0 1 0-.429l9.029-.023a.215.215 0 0 1 0 .429l-9.029.023z" transform="translate(-3172.365 -500.689)"/>
                </g>
            </g>
            <g id="Group_1350" transform="translate(2528.259 203.878)">
                <g id="Group_1348">
                    <circle id="Ellipse_381" cx="5.369" cy="5.369" r="5.369" class="cls-2" transform="matrix(.73 -.683 .683 .73 0 7.337)"/>
                    <path id="Path_1092" d="M3159.255 335.629a5.585 5.585 0 1 1 5.382-4.09 5.594 5.594 0 0 1-5.382 4.09zm0-10.74a5.158 5.158 0 1 0 1.378.189 5.164 5.164 0 0 0-1.375-.188zm5.172 6.592z" transform="translate(-3151.667 -322.456)"/>
                </g>
                <g id="Group_1349" transform="translate(5.212 4.169)">
                    <path id="Path_1093" d="M3177.226 346.256l.185-.776a3.281 3.281 0 0 1-1.31-.637l.474-.905a2.875 2.875 0 0 0 1.275.638c.467.1.83-.018.908-.345.074-.31-.141-.56-.7-.889-.807-.474-1.308-1-1.119-1.8a1.613 1.613 0 0 1 1.733-1.17l.185-.776.8.165-.172.719a2.94 2.94 0 0 1 1.125.513l-.458.874a2.7 2.7 0 0 0-1.114-.52c-.533-.109-.76.084-.814.313-.064.269.182.5.816.9.894.543 1.18 1.073 1 1.808a1.673 1.673 0 0 1-1.82 1.212l-.2.833z" class="cls-3" transform="translate(-3176.101 -339.6)"/>
                </g>
            </g>
            <g id="Group_1354" transform="translate(2513.702 192.898)">
                <g id="Group_1351">
                    <ellipse id="Ellipse_382" cx="7.003" cy="6.923" class="cls-2" rx="7.003" ry="6.923" transform="rotate(-38.74 12.46 4.379)"/>
                    <path id="Path_1094" d="M3063.281 266.334a7.083 7.083 0 0 1-7.106-7.1 7.282 7.282 0 0 1 7.192-7.239 7.084 7.084 0 0 1 7.181 7.1 7.282 7.282 0 0 1-7.192 7.239zm.161-13.909h-.071a6.851 6.851 0 0 0-6.767 6.811 6.654 6.654 0 0 0 6.677 6.668h.071a6.851 6.851 0 0 0 6.767-6.811 6.654 6.654 0 0 0-6.676-6.668z" transform="translate(-3053.567 -249.383)"/>
                </g>
                <g id="Group_1353" transform="translate(5.568 6.682)">
                    <g id="Group_1352">
                        <path id="Path_1095" d="M3085.768 287.882l-6.76.069a.639.639 0 0 1-.647-.64l.005-4.656a.656.656 0 0 1 .649-.653l6.76-.069a.638.638 0 0 1 .647.64l-.005 4.656a.656.656 0 0 1-.649.653z" class="cls-2" transform="translate(-3078.145 -281.718)"/>
                        <path id="Path_1096" d="M3077.715 286.879a.853.853 0 0 1-.855-.855l.005-4.656a.872.872 0 0 1 .861-.868l6.76-.069a.84.84 0 0 1 .612.247.849.849 0 0 1 .252.607l-.005 4.657a.873.873 0 0 1-.861.867l-6.76.069zm6.78-6.018l-6.76.069a.442.442 0 0 0-.437.439l-.005 4.656a.424.424 0 0 0 .426.425l6.76-.069a.441.441 0 0 0 .436-.439l.005-4.656a.424.424 0 0 0-.426-.425z" transform="translate(-3076.86 -280.432)"/>
                    </g>
                    <path id="Path_1097" d="M3089.994 293.445a.213.213 0 0 1-.116-.034l-2.6-1.665a.215.215 0 1 1 .231-.362l2.486 1.59 2.472-1.641a.215.215 0 1 1 .237.358l-2.589 1.718a.216.216 0 0 1-.121.036z" transform="translate(-3085.699 -289.743)"/>
                </g>
            </g>
            <g id="Group_1357" transform="translate(2429.23 213.797)">
                <g id="Group_1355">
                    <ellipse id="Ellipse_383" cx="8.483" cy="8.454" class="cls-2" rx="8.483" ry="8.454" transform="translate(.217 .216)"/>
                    <path id="Path_1098" d="M2456.345 397.121a8.7 8.7 0 0 1-8.543-7.064 8.67 8.67 0 0 1 6.935-10.125 8.705 8.705 0 0 1 10.158 6.913 8.67 8.67 0 0 1-6.936 10.125 8.744 8.744 0 0 1-1.614.151zm.007-16.91a8.3 8.3 0 0 0-1.535.144 8.27 8.27 0 1 0 1.535-.144z" transform="translate(-2447.649 -379.782)"/>
                </g>
                <path id="Path_1099" d="M2509.183 421.048a.214.214 0 0 1-.161-.072l-2.882-3.238a1.543 1.543 0 0 1-.392-1.077l.1-3.178a.215.215 0 0 1 .429.013l-.1 3.178a1.118 1.118 0 0 0 .284.779l2.883 3.238a.215.215 0 0 1-.16.357z" transform="translate(-2497.433 -408.482)"/>
                <g id="Group_1356" transform="translate(1.362 1.461)">
                    <path id="Path_1100" d="M2505.581 390.392a.49.49 0 1 1-.573-.39.489.489 0 0 1 .573.39z" class="cls-4" transform="translate(-2497.819 -389.993)"/>
                    <path id="Path_1101" d="M2472.01 403.434a.485.485 0 0 1 .131.678.493.493 0 0 1-.683.126.486.486 0 0 1-.131-.678.494.494 0 0 1 .683-.126z" class="cls-4" transform="translate(-2469.227 -401.437)"/>
                    <path id="Path_1102" d="M2457.568 436.176a.493.493 0 0 1 .576.388.486.486 0 0 1-.393.568.493.493 0 0 1-.576-.388.487.487 0 0 1 .393-.568z" class="cls-4" transform="translate(-2457.167 -429.56)"/>
                    <path id="Path_1103" d="M2470.729 469.428a.5.5 0 0 1 .684-.13.484.484 0 0 1 .127.677.5.5 0 0 1-.684.13.483.483 0 0 1-.127-.677z" class="cls-4" transform="translate(-2468.714 -457.877)"/>
                    <path id="Path_1104" d="M2503.77 483.722a.49.49 0 1 1 .573.39.489.489 0 0 1-.573-.39z" class="cls-4" transform="translate(-2497.094 -469.813)"/>
                    <path id="Path_1105" d="M2537.325 470.7a.485.485 0 0 1-.131-.678.493.493 0 0 1 .683-.126.486.486 0 0 1 .131.678.493.493 0 0 1-.683.126z" class="cls-4" transform="translate(-2525.67 -458.386)"/>
                    <path id="Path_1106" d="M2551.749 437.97a.493.493 0 0 1-.576-.388.487.487 0 0 1 .394-.568.493.493 0 0 1 .576.388.487.487 0 0 1-.394.568z" class="cls-4" transform="translate(-2537.713 -430.279)"/>
                    <ellipse id="Ellipse_384" cx=".492" cy=".487" class="cls-4" rx=".492" ry=".487" transform="rotate(-16.134 13.296 -39.172)"/>
                </g>
            </g>
            <g id="Group_1359" transform="translate(2426.154 244.595)">
                <g id="Group_1358">
                    <ellipse id="Ellipse_385" cx="5.497" cy="5.561" class="cls-2" rx="5.497" ry="5.561" transform="translate(.215 .215)"/>
                    <path id="Path_1107" d="M2431.856 606.556a5.634 5.634 0 0 1-3.61-1.309 5.794 5.794 0 0 1 3.086-10.217 5.635 5.635 0 0 1 4.153 1.282 5.794 5.794 0 0 1-3.086 10.218c-.181.017-.363.026-.543.026zm.018-11.122q-.25 0-.5.024a5.365 5.365 0 0 0-2.853 9.46 5.207 5.207 0 0 0 3.839 1.186 5.365 5.365 0 0 0 2.853-9.46 5.207 5.207 0 0 0-3.339-1.211z" transform="translate(-2426.154 -595.004)"/>
                </g>
                <path id="Path_1108" d="M2454.558 616.708l-.784-.983a.439.439 0 0 0-.307-.145h-.132a.948.948 0 0 0-.345.078c-.309.129-.808.133-1.461-1.012s-.4-1.575-.139-1.783a1.211 1.211 0 0 0 .282-.332l.029-.049a.45.45 0 0 0 .029-.342l-.449-1.178a.237.237 0 0 0-.254-.143l-.29.054a1.082 1.082 0 0 0-.63.359c-.685.809-.571 2.431.349 4.041s2.256 2.527 3.292 2.325a1.07 1.07 0 0 0 .611-.366l.2-.233a.241.241 0 0 0-.001-.291z" class="cls-3" transform="translate(-2446.303 -608.555)"/>
            </g>
            <g id="Group_1402" transform="translate(2459.365 217.345)">
                <g id="Group_1383" transform="translate(36.327)">
                    <g id="Group_1370" transform="translate(7.112 37.372)">
                        <g id="Group_1364" transform="translate(14.125 41.514)">
                            <g id="Group_1360" transform="translate(5.977)">
                                <path id="Path_1109" d="M3108.731 962.249l-3.782-.743c.737-.945.929-2.013.754-3.959l2.354-.131z" class="cls-2" transform="translate(-3104.565 -957.191)"/>
                                <path id="Path_1110" d="M3106.688 961.169l-4.42-.868.215-.275c.7-.893.881-1.889.709-3.808l-.02-.221 2.773-.154zm-3.668-1.158l3.159.62-.606-4.339-1.937.107a5.412 5.412 0 0 1-.616 3.612z" transform="translate(-3102.267 -955.842)"/>
                            </g>
                            <g id="Group_1363" transform="translate(0 2.609)">
                                <g id="Group_1361">
                                    <path id="Path_1111" d="M3072.076 975.807c.184.57.587 2.181.768 3.152a1.229 1.229 0 0 1-.842 1.391c-1.665.523-5.686.67-9.027.956a.859.859 0 0 1-.865-.62c-.718-1.872 2.863-2.595 6.3-4.7a3.32 3.32 0 0 0 .53.308 2.132 2.132 0 0 0 1.851-.15l.781-.512a.335.335 0 0 1 .504.175z" class="cls-3" transform="translate(-3061.8 -975.359)"/>
                                    <path id="Path_1112" d="M3061.617 980.235a1.087 1.087 0 0 1-1.008-.761c-.565-1.475 1.138-2.294 3.294-3.332a34.28 34.28 0 0 0 3.1-1.629l.124-.076.116.087a3.2 3.2 0 0 0 .492.285 1.91 1.91 0 0 0 1.642-.135l.781-.512a.55.55 0 0 1 .826.291c.191.593.594 2.209.774 3.179a1.442 1.442 0 0 1-.988 1.635 36.8 36.8 0 0 1-6.426.764c-.881.063-1.793.128-2.647.2-.029.003-.054.004-.08.004zm5.487-5.283c-1.039.626-2.087 1.13-3.015 1.577-2.238 1.077-3.484 1.737-3.08 2.791a.646.646 0 0 0 .646.484c.857-.073 1.771-.138 2.654-.2a37.526 37.526 0 0 0 6.328-.745 1.012 1.012 0 0 0 .7-1.147c-.173-.93-.575-2.549-.761-3.125a.12.12 0 0 0-.182-.064l-.781.512a2.357 2.357 0 0 1-2.059.166 3.78 3.78 0 0 1-.454-.249z" transform="translate(-3060.499 -974.071)"/>
                                </g>
                                <g id="Group_1362" transform="translate(.032 3.337)">
                                    <path id="Path_1113" d="M3073.138 999.379c0 .017.007.029.008.034.113.61-.379.87-.927 1.155-1.659.861-8.657.74-8.657.74s-.926.067-1.2-.476a.659.659 0 0 1-.1-.232c-.015-.109-.032-.5-.032-.5a23.593 23.593 0 0 0 8.906-.54 11.964 11.964 0 0 0 1.888-.666s.031.138.114.485z" class="cls-2" transform="translate(-3062.007 -998.677)"/>
                                    <path id="Path_1114" d="M3063.2 1000.243c-.5 0-.844-.005-.924-.006-.118.006-1.075.041-1.4-.593l-.028-.049a.627.627 0 0 1-.1-.251c-.016-.116-.032-.481-.034-.522a.215.215 0 0 1 .068-.166.213.213 0 0 1 .17-.057 23.3 23.3 0 0 0 8.833-.536 11.867 11.867 0 0 0 1.832-.643.215.215 0 0 1 .313.127c0 .006.042.148.125.5l.01.045c.143.771-.485 1.1-1.039 1.384-1.326.688-5.844.767-7.826.767zm-.928-.436c.069 0 6.963.11 8.555-.716.626-.325.892-.51.815-.925l-.005-.023-.056-.231a14.282 14.282 0 0 1-1.7.569 23.516 23.516 0 0 1-8.728.571c.006.1.012.193.018.232a.222.222 0 0 0 .041.092c.013.023.027.046.04.072.208.406.99.361 1 .36z" transform="translate(-3060.721 -997.391)"/>
                                </g>
                                <path id="Path_1115" d="M3097.116 984.16a.213.213 0 0 1-.123-.039l-1.045-.729a.215.215 0 0 1 .246-.352l1.045.729a.215.215 0 0 1-.123.391z" transform="translate(-3090.797 -981.724)"/>
                                <path id="Path_1116" d="M3088.625 989.008a.213.213 0 0 1-.122-.038l-.914-.628a.215.215 0 0 1 .243-.354l.914.628a.215.215 0 0 1-.122.392z" transform="translate(-3083.634 -985.965)"/>
                            </g>
                        </g>
                        <g id="Group_1369" transform="translate(0 41.592)">
                            <g id="Group_1365" transform="translate(6.697)">
                                <path id="Path_1117" d="M3015.107 962.061l-2.658.841-1.387-1.456c1.51-.779 1.055-2.373 1.012-3.389l2.682-.113z" class="cls-2" transform="translate(-3010.71 -957.721)"/>
                                <path id="Path_1118" d="M3010.273 961.81l-1.677-1.761.254-.131c1.142-.589 1.034-1.688.939-2.657-.018-.188-.036-.365-.043-.532l-.009-.215 3.1-.131.383 4.493zm-.981-1.653l1.107 1.163 2.366-.749-.319-3.741-2.257.1.028.294c.091.928.214 2.185-.925 2.933z" transform="translate(-3008.596 -956.384)"/>
                            </g>
                            <g id="Group_1368" transform="translate(0 2.72)">
                                <g id="Group_1366">
                                    <path id="Path_1119" d="M2974.566 977.68a24.275 24.275 0 0 1 .316 2.867 1.309 1.309 0 0 1-1.109 1.337 50.923 50.923 0 0 1-9.614.414.924.924 0 0 1-.818-.8c-.465-2.1 3.254-2.675 7.224-4.349l.715.664a1.279 1.279 0 0 0 1.4.226l1.375-.632a.36.36 0 0 1 .511.273z" class="cls-3" transform="translate(-2963.086 -976.901)"/>
                                    <path id="Path_1120" d="M2965.364 981.084c-.845 0-1.693-.023-2.511-.077a1.143 1.143 0 0 1-1.013-.965c-.39-1.758 1.763-2.529 4.489-3.506.878-.314 1.873-.671 2.861-1.088l.127-.054.817.758a1.062 1.062 0 0 0 1.168.188l1.375-.632a.574.574 0 0 1 .807.43 24.585 24.585 0 0 1 .319 2.895 1.522 1.522 0 0 1-1.291 1.557 51.958 51.958 0 0 1-7.148.494zm3.864-5.186c-.956.4-1.91.74-2.755 1.043-2.625.941-4.522 1.62-4.215 3.009a.707.707 0 0 0 .622.629 50.274 50.274 0 0 0 9.566-.412 1.093 1.093 0 0 0 .928-1.117 24.083 24.083 0 0 0-.314-2.84.145.145 0 0 0-.2-.11l-1.375.632a1.489 1.489 0 0 1-1.64-.263z" transform="translate(-2961.794 -975.395)"/>
                                </g>
                                <g id="Group_1367" transform="translate(.011 3.273)">
                                    <path id="Path_1121" d="M2974.934 999.766s0 .107.007.159a1.309 1.309 0 0 1-1.11 1.337 50.923 50.923 0 0 1-9.614.414.924.924 0 0 1-.818-.8 2.722 2.722 0 0 1-.027-.528l.254.006a73.538 73.538 0 0 0 10.821-.532z" class="cls-2" transform="translate(-2963.156 -999.551)"/>
                                    <path id="Path_1122" d="M2965.429 1000.681c-.845 0-1.693-.023-2.511-.077a1.143 1.143 0 0 1-1.013-.965 2.806 2.806 0 0 1-.032-.583.218.218 0 0 1 .22-.206l.253.006a73.516 73.516 0 0 0 10.79-.53l.486-.06a.212.212 0 0 1 .165.049.214.214 0 0 1 .076.154s0 .109.007.161a1.522 1.522 0 0 1-1.291 1.557 51.956 51.956 0 0 1-7.15.494zm-3.129-1.4a1.553 1.553 0 0 0 .024.261.708.708 0 0 0 .623.629 50.272 50.272 0 0 0 9.566-.412 1.094 1.094 0 0 0 .928-1.042l-.252.031a74.065 74.065 0 0 1-10.853.533z" transform="translate(-2961.869 -998.264)"/>
                                </g>
                                <path id="Path_1123" d="M2998.7 984.724a.215.215 0 0 1-.151-.062l-1.312-1.3a.215.215 0 0 1 .3-.305l1.312 1.3a.215.215 0 0 1-.151.367z" transform="translate(-2992.111 -981.909)"/>
                                <path id="Path_1124" d="M2989.062 987.324a.214.214 0 0 1-.163-.075l-1.171-1.364a.215.215 0 0 1 .326-.28l1.171 1.364a.215.215 0 0 1-.163.354z" transform="translate(-2983.972 -984.08)"/>
                            </g>
                        </g>
                        <path id="Path_1125" d="M3008.835 680.4c-.4 1.183-1.942 9.165-2.374 12.291-.393 2.844-1.217 13.333-1.333 15.372a.331.331 0 0 1-.332.313h-3.849a.333.333 0 0 1-.331-.3c-.212-2.114-2.014-13.972-1.816-19.7.216-6.253 3.021-13.693 3.561-15.742s1.208-6.9 1.208-6.9l12.965 2.013s1.633 10.5 2.337 16.852a112.046 112.046 0 0 1-.188 16.724c-.349 3.143-.677 5.149-.8 6.24a1 1 0 0 1-1 .887h-2.849a.332.332 0 0 1-.333-.328 78.834 78.834 0 0 0-1.411-9.722c-.971-4.96-2.05-12.723-2.59-15.849-.178-1.034-.333-2.221-.46-3.347-.002.004-.001.011-.405 1.196z" class="cls-3" transform="translate(-2993.491 -665.738)"/>
                        <path id="Path_1126" d="M3060.131 737.353a.214.214 0 0 1-.213-.19c-.093-.817-.165-1.573-.212-2.071a3.351 3.351 0 0 0-1.342-2.377.215.215 0 1 1 .255-.345 3.782 3.782 0 0 1 1.514 2.682c.047.5.119 1.249.211 2.063a.214.214 0 0 1-.189.237z" class="cls-1" transform="translate(-3044.47 -722.799)"/>
                        <path id="Path_1127" d="M3107.751 705.936c-1.895-.044-2.754-1.864-3.036-2.645a.215.215 0 1 1 .4-.146c.252.7 1.013 2.323 2.642 2.361a.215.215 0 0 1 0 .429z" class="cls-1" transform="translate(-3084.248 -697.671)"/>
                        <path id="Path_1128" d="M3025.493 704.034a.215.215 0 0 1-.024-.428c1.753-.2 1.709-2.2 1.707-2.287a.214.214 0 0 1 .207-.221h.007a.214.214 0 0 1 .214.207 2.507 2.507 0 0 1-2.087 2.728z" class="cls-1" transform="translate(-3016.194 -696.038)"/>
                    </g>
                    <g id="Group_1376" transform="translate(15.842)">
                        <g id="Group_1373">
                            <g id="Group_1371" transform="translate(3.959 6.939)">
                                <path id="Path_1129" d="M3056.659 460.65l-.3-6.08-4.393 2.289.091 3.844a1.811 1.811 0 0 0 .776 1.327 2.69 2.69 0 0 0 3.087-.13l.211-.15a1.26 1.26 0 0 0 .528-1.1z" class="cls-2" transform="translate(-3051.752 -454.355)"/>
                                <path id="Path_1130" d="M3052.935 461.39a2.578 2.578 0 0 1-1.512-.472 2.013 2.013 0 0 1-.865-1.49l-.091-3.849a.215.215 0 0 1 .115-.2l4.393-2.29a.214.214 0 0 1 .313.18l.3 6.079a1.466 1.466 0 0 1-.618 1.286l-.211.15a3.167 3.167 0 0 1-1.824.606zm-2.035-5.69l.088 3.71a1.6 1.6 0 0 0 .677 1.151 2.489 2.489 0 0 0 2.846-.125l.211-.15a1.039 1.039 0 0 0 .438-.912l-.284-5.745z" transform="translate(-3050.467 -453.069)"/>
                            </g>
                            <path id="Path_1131" d="M3024.866 404.836c1.179-.081-.291 1.141 4.056-.172 1.731-.523.875 1.5 1.324 1.366 1.66-.5 1.6-.482 2.417-.279.54.134.9 1.116.808 1.854-.123.973-.927 1.234-1.62 3.3-.486 1.448-.353 2.323-.933 2.54s-1.029-.56-1.687-.369c-.852.248-.667 1.716-1.492 2.335-.52.39-1.738.582-3.7-.341a.729.729 0 0 1-.4-.846c.115-.436.264-.986.45-1.5.887-2.447 1.754-3.008 1.43-3.636-.5-.962-2.331-.386-2.644-1.177-.325-.824.377-2.964 1.991-3.075z" transform="translate(-3022.798 -404.577)"/>
                            <g id="Group_1372" transform="translate(.846 3.048)">
                                <path id="Path_1132" d="M3034.987 428.542l-.33.63a7.233 7.233 0 0 0-.4.918c-.212.591-.616 1.591-.837 2.157-.709 1.817-2.97-.145-2.97-.145l-.161-.5-.3-.119a.361.361 0 0 1-.152-.107.345.345 0 0 1-.019-.408 12.493 12.493 0 0 0 1.686-3.492 3.8 3.8 0 0 1 3.483 1.066z" class="cls-2" transform="translate(-3029.603 -427.181)"/>
                                <path id="Path_1133" d="M3034.3 427.2c-.068.168-.142.341-.223.512l-.228.459q-.1.208-.183.422c-.057.142-.106.286-.161.439-.222.6-.458 1.185-.689 1.773l-.087.221a2.078 2.078 0 0 1-.114.243 1.356 1.356 0 0 1-.367.43 1.179 1.179 0 0 1-.538.221 1.626 1.626 0 0 1-.549-.02 3.223 3.223 0 0 1-.945-.376 5.513 5.513 0 0 1-.812-.569.2.2 0 0 1-.063-.095c-.052-.166-.107-.331-.158-.5l.125.133a2.486 2.486 0 0 1-.271-.137.677.677 0 0 1-.172-.119.546.546 0 0 1-.121-.186.511.511 0 0 1 .013-.422.5.5 0 0 1 .027-.047l.021-.033.041-.063.081-.126q.323-.506.6-1.039c.184-.354.353-.716.5-1.083a7.559 7.559 0 0 0 .365-1.118.209.209 0 0 1 .152-.156 3.033 3.033 0 0 1 .509-.079 4.052 4.052 0 0 1 .5-.009 3.935 3.935 0 0 1 1.906.578 4.16 4.16 0 0 1 .409.292c.066.051.127.108.19.163l.023.021.034.033c.024.024.047.049.069.076a1.337 1.337 0 0 1 .116.161zm-.424.064h-.058a.04.04 0 0 1-.017-.006l-.03-.026c-.058-.048-.113-.1-.173-.143a3.7 3.7 0 0 0-.369-.255 3.544 3.544 0 0 0-.814-.364 3.694 3.694 0 0 0-.881-.155 3.615 3.615 0 0 0-.449 0 3.026 3.026 0 0 0-.431.059l.152-.156a9.492 9.492 0 0 1-.983 2.263q-.308.53-.639 1.042l-.084.128-.042.063-.02.031c0 .006-.008.012-.011.018a.177.177 0 0 0 0 .164c.034.056.066.067.148.083a2.54 2.54 0 0 1 .292.084.209.209 0 0 1 .122.126v.007c.057.164.11.33.165.495l-.064-.1a5.075 5.075 0 0 0 .745.511 2.8 2.8 0 0 0 .813.319.886.886 0 0 0 .725-.126.932.932 0 0 0 .241-.289 1.626 1.626 0 0 0 .088-.186l.087-.221c.233-.589.469-1.176.689-1.763.055-.143.109-.3.173-.449s.129-.3.2-.445q.054-.11.111-.218c.031-.057.062-.112.1-.167.064-.1.138-.207.216-.319z" transform="translate(-3028.707 -425.875)"/>
                            </g>
                            <path id="Path_1134" d="M3063.168 444.031s.792-1.515 1.406-1.009-.3 2.152-1.406 1.009z" class="cls-2" transform="translate(-3057.391 -437.432)"/>
                        </g>
                        <g id="Group_1375" transform="translate(.693 4.553)">
                            <g id="Group_1374" transform="translate(1.261 .131)">
                                <path id="Path_1135" d="M3037.273 439.632a.72.72 0 0 1-.51-.193 1.5 1.5 0 0 1-.31-1.192c.022-.466.163-.749.43-.867a.746.746 0 0 1 .586-.018.579.579 0 0 1 .325.309 1.887 1.887 0 0 1-.02 1.648.572.572 0 0 1-.405.309.952.952 0 0 1-.096.004zm-.07-1.893a.362.362 0 0 0-.146.033c-.127.056-.165.3-.174.494-.027.577.1.787.177.861a.321.321 0 0 0 .267.073 1.286 1.286 0 0 0 .07-1.37.164.164 0 0 0-.088-.072.278.278 0 0 0-.109-.019zm-.233-.164z" transform="translate(-3036.45 -437.309)"/>
                                <path id="Path_1136" d="M3044.784 438.16h-.025l-3.692-.424a.215.215 0 0 1 .049-.427l3.692.424a.215.215 0 0 1-.024.428z" transform="translate(-3040.243 -437.307)"/>
                            </g>
                            <path id="Path_1137" d="M3028.112 438.482a.213.213 0 0 1-.088-.019.678.678 0 0 1-.289-.433 1.732 1.732 0 0 1 .082-1.328.585.585 0 0 1 .4-.3 1.258 1.258 0 0 1 .871.279.215.215 0 0 1-.261.34.866.866 0 0 0-.525-.2.155.155 0 0 0-.11.089 1.313 1.313 0 0 0 .039 1.173.215.215 0 0 1-.117.395zm.123-.388z" transform="translate(-3027.639 -436.391)"/>
                        </g>
                    </g>
                    <g id="Group_1382" transform="translate(0 11.217)">
                        <path id="Path_1138" d="M2968.225 544.278s-1.218 4.925-2.377 6.315a9.582 9.582 0 0 1-6.2 3.245s-1.542-.1-.572 2.694a1.233 1.233 0 0 0 1.038.824c2.089.213 7.936.364 10.2-4.214a6.815 6.815 0 0 0-2.089-8.864z" transform="translate(-2952.074 -535.504)"/>
                        <path id="Path_1139" d="M3030.177 482.961a7.877 7.877 0 0 0 1.942 2.952c1.282 1.089 3.232 1.15 4.366 3.849 1.974 4.7 1.4 14.793-.442 19.9a11.554 11.554 0 0 0-.16 3.414l-15.148-.2s1.655-8.636.483-14.475c-.485-2.417-1.562-6.422 1.162-10.008.62-.817 1.224-1.647 1.774-2.512l.6-.946c.132.031.278.061.433.088a4.968 4.968 0 0 0 4.448-1.5z" transform="translate(-3005.069 -482.961)"/>
                        <path id="Path_1140" d="M3021 577.889a.215.215 0 0 1-.214-.215 25.45 25.45 0 0 0-.415-4.927l-.1-.5c-.145-.694-.308-1.48-.414-2.338a.215.215 0 0 1 .426-.053c.1.841.265 1.618.407 2.3.036.174.071.342.1.5a25.851 25.851 0 0 1 .423 5.012.215.215 0 0 1-.213.221z" class="cls-1" transform="translate(-3004.437 -557.26)"/>
                        <g id="Group_1377" transform="translate(34.32 30.186)">
                            <path id="Path_1141" d="M3156 695.827a3.162 3.162 0 0 0 .6 1.337 4.3 4.3 0 0 1 .907 3 4.469 4.469 0 0 1-2.317 2.366.423.423 0 0 1-.5-.087.481.481 0 0 1-.018-.561c.237-.5.564-.482.716-.847.189-.453.074-2-.561-1.938-.578.06 0 1.169-.177 1.611a.61.61 0 0 1-.834.364c-.5-.219-.447-2.668-.218-3.423s.619-2.073.619-2.073z" class="cls-2" transform="translate(-3153.212 -695.334)"/>
                            <path id="Path_1142" d="M3153.7 701.357a.614.614 0 0 1-.465-.2.685.685 0 0 1-.05-.794 1.463 1.463 0 0 1 .475-.57.645.645 0 0 0 .237-.268 2.246 2.246 0 0 0-.172-1.543c-.081-.108-.143-.1-.169-.1a.074.074 0 0 0-.045.015c-.062.081-.006.4.031.615a1.7 1.7 0 0 1 .015.847.87.87 0 0 1-.474.5.819.819 0 0 1-.646-.016c-.721-.319-.528-3.051-.337-3.682.229-.755.619-2.072.619-2.072l.052-.178 2.125.3.023.158a2.975 2.975 0 0 0 .555 1.237 4.481 4.481 0 0 1 .947 3.178 4.675 4.675 0 0 1-2.435 2.512.672.672 0 0 1-.286.061zm-.127-3.909a.6.6 0 0 1 .5.273 2.588 2.588 0 0 1 .224 1.964 1.05 1.05 0 0 1-.367.439 1.053 1.053 0 0 0-.353.417c-.106.224-.037.3-.015.328a.21.21 0 0 0 .245.034 4.247 4.247 0 0 0 2.2-2.22 4.078 4.078 0 0 0-.867-2.817 3.424 3.424 0 0 1-.608-1.278l-1.45-.207c-.114.386-.389 1.311-.567 1.9-.255.841-.187 3 .1 3.165a.385.385 0 0 0 .308.011.444.444 0 0 0 .238-.258 1.6 1.6 0 0 0-.039-.616 1.26 1.26 0 0 1 .05-.947.474.474 0 0 1 .343-.183.581.581 0 0 1 .061-.005z" transform="translate(-3151.926 -693.905)"/>
                        </g>
                        <g id="Group_1381" transform="translate(0 17.614)">
                            <g id="Group_1380">
                                <g id="Group_1378" transform="translate(0 .782)">
                                    <path id="Path_1143" d="M2920.567 613.668c.235.347.959 1.263.1 1.825-.224.146-1.575.328-1.931.5a12.384 12.384 0 0 1-1.732 1.1 2.69 2.69 0 0 1-3.243-.637c-.8-.826 1.436-3.577 3.032-3.44s3.433.148 3.774.652z" class="cls-2" transform="translate(-2913.376 -612.798)"/>
                                    <path id="Path_1144" d="M2914.4 616.294a2.807 2.807 0 0 1-2.083-.973c-.3-.31-.3-.82-.009-1.437.5-1.06 1.973-2.472 3.214-2.365.31.027.63.049.947.07 1.647.113 2.673.205 2.991.674l.05.073a1.965 1.965 0 0 1 .477 1.377 1.044 1.044 0 0 1-.492.676 3.837 3.837 0 0 1-.992.271 6.276 6.276 0 0 0-.962.242 3.293 3.293 0 0 0-.575.394 4.2 4.2 0 0 1-1.175.713 3.984 3.984 0 0 1-1.391.285zm.985-4.352a3.8 3.8 0 0 0-2.689 2.126c-.208.437-.234.785-.07.955a2.5 2.5 0 0 0 3.014.585 3.784 3.784 0 0 0 1.06-.648 3.643 3.643 0 0 1 .654-.443 5.925 5.925 0 0 1 1.062-.276 5.778 5.778 0 0 0 .846-.211.624.624 0 0 0 .3-.4 1.645 1.645 0 0 0-.408-1.049l-.053-.077c-.216-.319-1.574-.412-2.665-.487-.319-.022-.641-.044-.954-.071-.026-.003-.06-.004-.094-.004z" transform="translate(-2912.094 -611.513)"/>
                                </g>
                                <g id="Group_1379" transform="translate(2.511)">
                                    <path id="Path_1145" d="M2934.322 609.44a.575.575 0 0 0-.111-.652c-.386-.447-1.19-1.289-1.758-1.241a1.619 1.619 0 0 0-1.26 2.074c.166.812.894.415.991.093.1-.344.256-.722.432-.565.192.171 1.267 1.097 1.706.291z" class="cls-2" transform="translate(-2930.929 -607.331)"/>
                                    <path id="Path_1146" d="M2930.344 609.031h-.03c-.148-.007-.506-.084-.621-.65a2.005 2.005 0 0 1 .32-1.662 1.633 1.633 0 0 1 1.132-.668c.617-.051 1.4.685 1.939 1.314a.782.782 0 0 1 .137.9.785.785 0 0 1-.56.425 1.98 1.98 0 0 1-1.4-.6 2.039 2.039 0 0 0-.156.4.844.844 0 0 1-.761.541zm.869-2.555h-.031a1.219 1.219 0 0 0-.825.5 1.591 1.591 0 0 0-.243 1.32c.041.2.115.3.221.307a.424.424 0 0 0 .355-.234c.144-.474.28-.689.47-.743a.325.325 0 0 1 .31.079 1.751 1.751 0 0 0 1.118.557.35.35 0 0 0 .256-.207.372.372 0 0 0-.084-.409c-.637-.737-1.211-1.17-1.548-1.17zm1.819 1.68z" transform="translate(-2929.639 -606.047)"/>
                                </g>
                            </g>
                        </g>
                        <path id="Path_1147" d="M3090.879 513.861a3.393 3.393 0 0 0-1.422 1.93c-.381 1.373-.421 3.586 1.887 5.894 3.778 3.777 6.513 5.063 6.755 18.187l3.769.043s1.159-8.585-.36-12.844c-1.361-3.815-4.715-12.61-8.188-13.785a4.2 4.2 0 0 0-2.44.576z" transform="translate(-3063.907 -508.907)"/>
                        <path id="Path_1148" d="M3090.822 527.728a.213.213 0 0 1-.149-.06c-.213-.205-.494-.478-.782-.765-2.352-2.351-2.354-4.616-1.942-6.1a3.583 3.583 0 0 1 .933-1.585.215.215 0 1 1 .3.3 3.159 3.159 0 0 0-.822 1.395c-.382 1.376-.374 3.479 1.832 5.684.285.285.565.556.776.76a.215.215 0 0 1-.149.369z" class="cls-1" transform="translate(-3062.607 -513.973)"/>
                    </g>
                </g>
                <g id="Group_1400" transform="translate(0 3.338)">
                    <g id="Group_1393" transform="translate(0 30.945)">
                        <g id="Group_1387" transform="translate(18.595 44.821)">
                            <g id="Group_1384" transform="translate(1.465)">
                                <path id="Path_1149" d="M2804.971 959.074s-.748 2.579-.06 3.815l.188.508-4.2-1.128.3-.425a5.487 5.487 0 0 0 .992-2.5z" class="cls-2" transform="translate(-2800.541 -958.83)"/>
                                <path id="Path_1150" d="M2803.322 962.252l-4.9-1.315.483-.677a5.3 5.3 0 0 0 .955-2.406l.021-.17 3.265-.314-.088.3c-.007.025-.715 2.509-.079 3.651l.013.03zm-4.2-1.569l3.5.939-.039-.1c-.574-1.055-.207-2.929-.029-3.662l-2.306.222a5.754 5.754 0 0 1-1.006 2.432z" transform="translate(-2798.417 -957.37)"/>
                            </g>
                            <g id="Group_1386" transform="translate(0 1.901)">
                                <g id="Group_1385">
                                    <path id="Path_1151" d="M2795.594 972.651l.354.565a8.127 8.127 0 0 0 2.8 2.709l.875.508a.292.292 0 0 1 .144.232v.049c.04.546-.757 1.641-2.727 1.732a13.694 13.694 0 0 1-7.1-2.073.522.522 0 0 1-.243-.569 8.255 8.255 0 0 1 1.618-3.586.229.229 0 0 1 .341.025l.8 1.055a1.063 1.063 0 0 0 1.5.2l1.2-.926a.3.3 0 0 1 .438.079z" class="cls-2" transform="translate(-2789.468 -971.938)"/>
                                    <path id="Path_1152" d="M2795.5 977.379a14.1 14.1 0 0 1-6.957-2.109.734.734 0 0 1-.343-.8 8.467 8.467 0 0 1 1.68-3.693.443.443 0 0 1 .659.052l.8 1.054a.848.848 0 0 0 1.2.161l1.2-.926a.517.517 0 0 1 .755.135l.354.564a7.948 7.948 0 0 0 2.728 2.637l.875.508a.506.506 0 0 1 .251.4v.05a1.361 1.361 0 0 1-.4.945 3.453 3.453 0 0 1-2.531 1.017c-.064.002-.154.005-.271.005zm-5.316-6.3a.015.015 0 0 0-.01 0 8.1 8.1 0 0 0-1.556 3.478.307.307 0 0 0 .143.335 13.271 13.271 0 0 0 6.986 2.044 3.036 3.036 0 0 0 2.23-.874.953.953 0 0 0 .293-.629v-.05a.077.077 0 0 0-.038-.061l-.875-.508a8.374 8.374 0 0 1-2.876-2.78l-.354-.565a.088.088 0 0 0-.06-.041.09.09 0 0 0-.069.017l-1.2.926a1.278 1.278 0 0 1-1.8-.241l-.8-1.054z" transform="translate(-2788.181 -970.651)"/>
                                </g>
                                <path id="Path_1153" d="M2795.872 989.9a.5.5 0 0 1-.076-.006 10.269 10.269 0 0 1-3.993-1.507l-.678-.434a.215.215 0 0 1 .231-.362l.678.434a9.846 9.846 0 0 0 3.828 1.444.074.074 0 0 0 .064-.021.076.076 0 0 0 .021-.068l-.068-.394a.464.464 0 0 1 .71-.469l.338.221a4.176 4.176 0 0 0 3.24.567l.221-.053a.215.215 0 0 1 .1.417l-.221.053a4.6 4.6 0 0 1-3.574-.625l-.338-.222a.029.029 0 0 0-.036 0 .034.034 0 0 0-.016.036l.068.394a.505.505 0 0 1-.5.592z" transform="translate(-2790.618 -985.135)"/>
                            </g>
                        </g>
                        <g id="Group_1391" transform="translate(0 35.549)">
                            <g id="Group_1388" transform="translate(3.009)">
                                <path id="Path_1154" d="M2687.039 895.889s-2.162 1.774-2.4 3.234l-.168.545-2.642-3.955.522-.077a5.432 5.432 0 0 0 2.385-1.141z" class="cls-2" transform="translate(-2681.467 -894.221)"/>
                                <path id="Path_1155" d="M2682.35 898.515l-3.081-4.612.836-.123c.216-.081.43-.148.638-.214a3.414 3.414 0 0 0 1.642-.863l.119-.131 2.708 1.642-.234.192c-.021.017-2.1 1.74-2.319 3.1l-.007.03zm-2.35-4.286l2.2 3.3.031-.1c.208-1.243 1.667-2.644 2.24-3.154l-1.9-1.152a4.053 4.053 0 0 1-1.706.855c-.209.066-.425.135-.638.215l-.045.012z" transform="translate(-2679.269 -892.573)"/>
                            </g>
                            <g id="Group_1390" transform="translate(0 .343)">
                                <g id="Group_1389">
                                    <path id="Path_1156" d="M2666.471 900.239l-.217.661a8.561 8.561 0 0 0-.314 4.067l.173 1.046a.307.307 0 0 1-.09.271l-.037.036c-.411.394-1.816.474-3.194-1.061a14.474 14.474 0 0 1-3.045-7.133.545.545 0 0 1 .295-.574 8.494 8.494 0 0 1 3.943-1.066.241.241 0 0 1 .206.293l-.316 1.346a1.12 1.12 0 0 0 .832 1.348l1.535.357a.319.319 0 0 1 .229.409z" class="cls-2" transform="translate(-2659.526 -896.249)"/>
                                    <path id="Path_1157" d="M2663.919 905.495h-.081a3.586 3.586 0 0 1-2.492-1.374 14.471 14.471 0 0 1-3.1-7.242.756.756 0 0 1 .412-.8 8.719 8.719 0 0 1 4.066-1.087.46.46 0 0 1 .318.194.453.453 0 0 1 .068.361l-.316 1.346a.9.9 0 0 0 .113.689.892.892 0 0 0 .559.4l1.535.357a.533.533 0 0 1 .385.686l-.218.662a8.379 8.379 0 0 0-.306 3.965l.172 1.046a.52.52 0 0 1-.152.46l-.038.036a1.345 1.345 0 0 1-.925.301zm-1.573-10.1a9.411 9.411 0 0 0-3.5 1.066.328.328 0 0 0-.177.349 14.017 14.017 0 0 0 2.993 7.023 3.17 3.17 0 0 0 2.188 1.232.978.978 0 0 0 .7-.182l.037-.036a.092.092 0 0 0 .027-.081l-.173-1.046a8.808 8.808 0 0 1 .322-4.169l.218-.662a.105.105 0 0 0-.008-.085.1.1 0 0 0-.066-.05l-1.535-.357a1.335 1.335 0 0 1-.993-1.606l.316-1.346a.023.023 0 0 0 0-.019.029.029 0 0 0-.021-.012 2.512 2.512 0 0 0-.328-.014z" transform="translate(-2658.24 -894.967)"/>
                                </g>
                                <path id="Path_1158" d="M2674.008 908.087a.214.214 0 0 1-.13-.044l-.188-.144a4.847 4.847 0 0 1-1.862-3.3l-.047-.421a.043.043 0 0 0-.032-.039.041.041 0 0 0-.046.014l-.271.316a.515.515 0 0 1-.836-.073 10.856 10.856 0 0 1-1.436-4.231l-.1-.837a.215.215 0 0 1 .426-.052l.1.837a10.422 10.422 0 0 0 1.379 4.064.085.085 0 0 0 .067.042.083.083 0 0 0 .073-.03l.271-.316a.474.474 0 0 1 .831.257l.046.421a4.419 4.419 0 0 0 1.7 3.01l.188.144a.215.215 0 0 1-.13.385z" transform="translate(-2667.508 -898.494)"/>
                            </g>
                        </g>
                        <g id="Group_1392" transform="translate(5.766)">
                            <path id="Path_1159" d="M2711.888 646.49l7.972-2.337 5.52 2.551s3.843 16.96-1.456 30.114a97.037 97.037 0 0 1-6.055 12.975.83.83 0 0 1-.843.395l-2.387-.379a.837.837 0 0 1-.688-.988c.843-4.356 2.647-17.173 4.041-23.642a.005.005 0 0 0-.01 0 33.028 33.028 0 0 1-16.5 17.97.545.545 0 0 1-.664-.227l-2.186-2.843a.586.586 0 0 1 .013-.675c1.928-2.618 15.606-20.086 13.243-32.914z" transform="translate(-2698.534 -644.153)"/>
                            <path id="Path_1160" d="M2827.43 751.676a.214.214 0 0 1-.2-.283c.252-.745.5-1.53.731-2.289.993-3.207 1.932-6.235 3.748-7.338a.215.215 0 1 1 .223.367c-1.677 1.018-2.635 4.109-3.561 7.1-.236.762-.48 1.549-.734 2.3a.215.215 0 0 1-.207.143z" class="cls-1" transform="translate(-2808.801 -727.771)"/>
                        </g>
                    </g>
                    <path id="Path_1161" d="M2734.541 431.229a2.516 2.516 0 0 0-1.59-2.86c-2.1-.8-4.659-.66-5.464 1.2-1.828 4.222 1 5.779-5.177 7.751-1.945.621-3.322.4-5.933 2.057-4.2 2.674-3.329 10.223 1.308 12.437 0 0 4.7 2.276 8.169-1.063l4.3-2.75.274-6.487 1.339-7.413z" transform="translate(-2705.736 -427.906)"/>
                    <g id="Group_1398" transform="translate(14.916 11.853)">
                        <g id="Group_1394" transform="translate(17.749 23.715)">
                            <path id="Path_1162" d="M2889.675 677.96l.242 1.892a11.388 11.388 0 0 1 .046 1.79 2.951 2.951 0 0 1-1.264 2.18l-.694-4.877z" class="cls-2" transform="translate(-2887.79 -677.745)"/>
                            <path id="Path_1163" d="M2887.415 682.75a.215.215 0 0 1-.212-.184l-.694-4.877a.215.215 0 0 1 .1-.215l1.67-.984a.215.215 0 0 1 .322.158l.242 1.892a11.639 11.639 0 0 1 .047 1.834 3.15 3.15 0 0 1-1.355 2.339.215.215 0 0 1-.12.037zm-.461-4.98l.621 4.365a2.7 2.7 0 0 0 .891-1.8 11.25 11.25 0 0 0-.046-1.756l-.2-1.559z" transform="translate(-2886.506 -676.459)"/>
                        </g>
                        <g id="Group_1395" transform="translate(17.73 13.353)">
                            <path id="Path_1164" d="M2889.211 605.641c.223-.017 1.767-.1 1.99-.089a4.673 4.673 0 0 1 4.123 2.183 1.4 1.4 0 0 1-1.378 2.221 20.33 20.33 0 0 1-5.325-2.449c-.288-.174-.771-.251-.743-.588.048-.584.152-1.186 1.333-1.278z" class="cls-2" transform="translate(-2887.661 -605.338)"/>
                            <path id="Path_1165" d="M2892.929 608.919a1.337 1.337 0 0 1-.322-.039 20.355 20.355 0 0 1-5.385-2.474 2.113 2.113 0 0 0-.24-.115c-.27-.116-.638-.276-.6-.674.054-.66.222-1.372 1.531-1.474.217-.017 1.776-.1 2.015-.089a4.884 4.884 0 0 1 4.288 2.271 1.564 1.564 0 0 1 .059 1.852 1.659 1.659 0 0 1-1.346.742zm-4.988-4.348c-1.054.082-1.094.568-1.136 1.082-.007.085.139.155.348.245a2.409 2.409 0 0 1 .292.142 19.932 19.932 0 0 0 5.266 2.424 1.17 1.17 0 0 0 1.2-.526 1.135 1.135 0 0 0-.051-1.361 4.457 4.457 0 0 0-3.958-2.094c-.2-.008-1.717.069-1.965.088z" transform="translate(-2886.375 -604.053)"/>
                        </g>
                        <g id="Group_1396" transform="translate(20.449 15.905)">
                            <path id="Path_1166" d="M2907.4 623.391a.54.54 0 0 0-.484.755q.023.051.053.106a4.7 4.7 0 0 0 2.417 1.926c.82.138 1.313-1.556.912-2.064-.551-.697-2.198-.738-2.898-.723z" class="cls-2" transform="translate(-2906.656 -623.174)"/>
                            <path id="Path_1167" d="M2908.2 625.116a.778.778 0 0 1-.128-.011 4.882 4.882 0 0 1-2.569-2.035c-.023-.042-.043-.083-.061-.122a.744.744 0 0 1 .051-.7.757.757 0 0 1 .624-.354c.894-.019 2.48.059 3.071.806a1.862 1.862 0 0 1-.129 1.828 1.038 1.038 0 0 1-.859.588zm-2.073-2.8a.327.327 0 0 0-.27.154.311.311 0 0 0-.023.3c.013.029.028.06.046.091a4.5 4.5 0 0 0 2.264 1.817c.257.042.452-.217.546-.376a1.524 1.524 0 0 0 .162-1.343c-.342-.433-1.364-.673-2.724-.643z" transform="translate(-2905.373 -621.888)"/>
                        </g>
                        <g id="Group_1397">
                            <path id="Path_1168" d="M2782.142 531.787c-.474-1.213-2.857-6.5-3.554-10.01l-1.327-7.688a2.938 2.938 0 0 0-1.654-2.178 18.731 18.731 0 0 0-8.229-1.121s-3.005-.045-4.155 2.449a5.992 5.992 0 0 0-.6 4.256 16.959 16.959 0 0 0 1.816 4.773 7.367 7.367 0 0 1 .861 4.891c-.029.207-.051.415-.066.623a9.147 9.147 0 0 0 .248 2.785 1.808 1.808 0 0 1-.539 1.757c-.152.138-.288.267-.368.355-.524.575-.98 1.688.108 3.309 2.5 3.728 10.334-3.494 12.922-3.651a4.215 4.215 0 0 1 1.457.127 1.743 1.743 0 0 1 1 .814 31.879 31.879 0 0 1 .7 3.322s1.317.014 1.765-.847.173-2.528-.385-3.966z" class="cls-3" transform="translate(-2762.473 -510.739)"/>
                            <path id="Path_1169" d="M2792.2 533.414c.393-.092 1.768-.413 2.009-.515a1.274 1.274 0 0 0 .84-.915 3.689 3.689 0 0 0 .233-1.827.641.641 0 0 0-.587-.5c-1.324-.083-7.461-.423-8.185-1.151-.83-.835-.83-2.088-1.951-5.68s-2.7-4.594-2.7-4.594-3.13-2.407-3.4 2.088a19.863 19.863 0 0 0 2.159 8.562c1.522 3.124 3.927 6.334 11.585 4.537z" class="cls-3" transform="translate(-2776.165 -516.605)"/>
                            <path id="Path_1170" d="M2792.512 604.31c-5.863 0-8.807-2.911-9.916-4.375a.215.215 0 0 1 .343-.259c1.31 1.73 5.29 5.555 13.927 3.716a.215.215 0 0 1 .089.42 21.339 21.339 0 0 1-4.443.498z" class="cls-4" transform="translate(-2779.679 -586.876)"/>
                            <path id="Path_1171" d="M2798.77 530.494h-.016c-3.393-.24-4.972-.467-5.451-.782-1.423-.937-1.859-1.941-2.969-5.5-1.078-3.455-2.595-4.468-2.61-4.477l-.015-.01a3.568 3.568 0 0 0-1.035-.52.215.215 0 1 1 .119-.412 3.952 3.952 0 0 1 1.171.586c.143.094 1.679 1.177 2.78 4.706 1.157 3.706 1.548 4.445 2.8 5.266.581.383 3.969.623 5.245.713a.215.215 0 0 1-.015.429z" class="cls-4" transform="translate(-2783.078 -517.635)"/>
                            <path id="Path_1172" d="M2827.869 551.963a.215.215 0 0 1-.155-.363 2.109 2.109 0 0 0 .308-2.5.215.215 0 0 1 .373-.213 2.54 2.54 0 0 1-.371 3.01.213.213 0 0 1-.155.066z" class="cls-4" transform="translate(-2818.327 -543.336)"/>
                            <path id="Path_1173" d="M2856.277 551.715a.214.214 0 0 1-.205-.152c-.429-1.417-.646-2.34-.815-3.126a2.071 2.071 0 0 1 .242-1.527 2.716 2.716 0 0 0 .041-2.754.215.215 0 1 1 .373-.213 3.146 3.146 0 0 1-.048 3.191 1.644 1.644 0 0 0-.189 1.212c.168.777.382 1.69.807 3.093a.214.214 0 0 1-.206.277z" class="cls-4" transform="translate(-2841.936 -539.098)"/>
                        </g>
                    </g>
                    <g id="Group_1399" transform="translate(20.169 2.731)">
                        <path id="Path_1174" d="M2804.769 450.189c.117.071.575.484.709.458a3.356 3.356 0 0 0 2.506-2.059c.116-.226.675-.085.93.706.222.69 0 1.1.749 2 .072.086.008.222-.082.289l-.48.395a.835.835 0 0 0-.2.453 4.112 4.112 0 0 1-.232 1.315 4.459 4.459 0 0 1-1.578.114l-1.227 3.873c-.138.445.418.7.832.829a.193.193 0 0 1 .034.355 6.492 6.492 0 0 1-3.456.424 6.92 6.92 0 0 1-1.96-.447c-.4-.152-.739-.474-.591-.9.122-.349.623-.071 1.087-.468a9.062 9.062 0 0 0 2.573-5.421c.059-.384-.6-.433-.636-1.154a.708.708 0 0 1 1.022-.762z" class="cls-2" transform="translate(-2800.469 -448.275)"/>
                        <path id="Path_1175" d="M2802.932 458.306c-.294 0-.615-.012-.964-.038a7.117 7.117 0 0 1-2.021-.46c-.6-.232-.884-.691-.716-1.171.1-.3.373-.332.589-.358a.947.947 0 0 0 .561-.2 8.868 8.868 0 0 0 2.5-5.29c.007-.049-.03-.091-.161-.209a1.217 1.217 0 0 1-.478-.9 1 1 0 0 1 .455-.95.881.881 0 0 1 .9-.007 2.265 2.265 0 0 1 .194.144 2.948 2.948 0 0 0 .4.281 3.242 3.242 0 0 0 2.318-1.94.409.409 0 0 1 .419-.212c.284.023.693.286.907.95a3.443 3.443 0 0 1 .129.621 2.161 2.161 0 0 0 .58 1.308.354.354 0 0 1 .078.272.5.5 0 0 1-.2.327l-.472.388a.707.707 0 0 0-.125.31l-.02.2c-.079.82-.135 1.133-.294 1.257a3.288 3.288 0 0 1-1.555.169l-1.176 3.714a.2.2 0 0 0 .013.163 1.182 1.182 0 0 0 .677.4.408.408 0 0 1 .071.751 5.643 5.643 0 0 1-2.609.48zm.224-9.278a.465.465 0 0 0-.238.066.581.581 0 0 0-.246.561.792.792 0 0 0 .337.6.653.653 0 0 1 .3.592 9.3 9.3 0 0 1-2.646 5.552 1.353 1.353 0 0 1-.789.3c-.2.024-.222.037-.235.073-.132.378.364.59.465.629a6.68 6.68 0 0 0 1.9.433 6.466 6.466 0 0 0 3.292-.375 1.444 1.444 0 0 1-.88-.59.631.631 0 0 1-.042-.492l1.227-3.874a.211.211 0 0 1 .219-.149 4.6 4.6 0 0 0 1.416-.061 5.465 5.465 0 0 0 .146-.967l.021-.209a1.021 1.021 0 0 1 .288-.6l.472-.388a.142.142 0 0 0 .023-.022 2.554 2.554 0 0 1-.646-1.488 3.052 3.052 0 0 0-.112-.549 1.056 1.056 0 0 0-.437-.623.265.265 0 0 0-.108-.031 3.656 3.656 0 0 1-2.625 2.15h-.02c-.174.035-.358-.093-.712-.371-.057-.044-.127-.1-.149-.113a.421.421 0 0 0-.222-.054zm4.068 3.285z" transform="translate(-2799.182 -446.988)"/>
                    </g>
                </g>
                <g id="Group_1401" transform="translate(34.939 20.964)">
                    <path id="Path_1176" d="M2904.228 564.29a.214.214 0 0 1-.161-.072l-1.615-1.823a.215.215 0 0 1 .322-.284l1.615 1.823a.214.214 0 0 1-.16.357z" transform="translate(-2902.399 -560.469)"/>
                    <path id="Path_1177" d="M2942.62 564.29a.215.215 0 0 1-.161-.357l1.615-1.823a.215.215 0 0 1 .321.284l-1.615 1.823a.215.215 0 0 1-.16.073z" transform="translate(-2936.68 -560.469)"/>
                    <path id="Path_1178" d="M2929.015 554.5a.215.215 0 0 1-.214-.215v-3a.215.215 0 1 1 .429 0v3a.215.215 0 0 1-.215.215z" transform="translate(-2925.022 -551.075)"/>
                </g>
            </g>
            <g id="Group_1404" transform="translate(2451.15 205.863)">
                <path id="Path_1179" d="M2602.1 359.532a1.271 1.271 0 1 1 1.271-1.271 1.273 1.273 0 0 1-1.271 1.271zm0-2.114a.842.842 0 1 0 .842.842.843.843 0 0 0-.842-.842z" transform="translate(-2600.83 -352.316)"/>
                <path id="Path_1180" d="M2965.225 356.946a.882.882 0 1 1 .882.882.882.882 0 0 1-.882-.882z" class="cls-1" transform="translate(-2913.08 -351.524)"/>
                <path id="Path_1181" d="M2958.229 881.858a.882.882 0 1 1 .882.882.882.882 0 0 1-.882-.882z" class="cls-1" transform="translate(-2907.085 -801.32)"/>
                <g id="Group_1403" transform="translate(55.686)">
                    <path id="Path_1182" d="M2990.511 325.094a.214.214 0 0 1-.152-.063l-.33-.329a.215.215 0 1 1 .3-.3l.329.329a.215.215 0 0 1-.152.366z" transform="translate(-2989.967 -324.335)"/>
                    <path id="Path_1183" d="M3005.661 340.243a.213.213 0 0 1-.152-.063l-.33-.329a.215.215 0 1 1 .3-.3l.329.329a.215.215 0 0 1-.152.366z" transform="translate(-3002.948 -337.317)"/>
                    <path id="Path_1184" d="M2990.181 340.243a.215.215 0 0 1-.152-.366l.33-.329a.215.215 0 1 1 .3.3l-.329.329a.214.214 0 0 1-.149.066z" transform="translate(-2989.967 -337.317)"/>
                    <path id="Path_1185" d="M3005.331 325.094a.215.215 0 0 1-.152-.366l.33-.329a.215.215 0 1 1 .3.3l-.329.329a.214.214 0 0 1-.149.066z" transform="translate(-3002.948 -324.335)"/>
                </g>
            </g>
        </g>
    </g>
</svg>
