<svg xmlns="http://www.w3.org/2000/svg" id="files-copy-interface-symbol" width="17.222" height="19.682" viewBox="0 0 17.222 19.682">
    <defs>
        <style>
            .cls-2{fill:#fff}
        </style>
    </defs>
    <g id="_x33__31_">
        <g id="Group_1208">
            <path id="Path_905" fill="#8697ba" d="M56.63.019L49.25 0a2.563 2.563 0 0 0-2.46 2.46l-.711.017a2.463 2.463 0 0 0-2.365 2.443v12.3a2.563 2.563 0 0 0 2.46 2.46H55.4a2.563 2.563 0 0 0 2.46-2.46h.615a2.563 2.563 0 0 0 2.46-2.46V4.935zM55.4 18.452h-9.226a1.29 1.29 0 0 1-1.23-1.23V4.92c0-.915.753-1.23 1.845-1.23v11.072a2.563 2.563 0 0 0 2.46 2.46l7.386-.007a1.163 1.163 0 0 1-1.235 1.237zm1.23-5.529h-5.535a.615.615 0 0 1-.615-.614c0-.339-.852 1.419-.512 1.419h7.278c.34 0 0-1.758 0-1.419a.615.615 0 0 1-.616.614zm0-3.072h-5.535c-.34 0-1.845.714-1.845.375s-.065.894.274.894l7.941-.894c.34 0-.219-1.329-.219-.989a.615.615 0 0 1-.616.614zm1.23-4.93a1.274 1.274 0 0 1-1.23-1.23V1.249l3.076 3.671z" transform="translate(-43.714)"/>
            <g id="edit" transform="translate(5.348 8.27)">
                <g id="Group_561">
                    <g id="Group_560">
                        <path id="Path_530" d="M0 72.36v1.514h1.514l4.467-4.467-1.514-1.514z" class="cls-2" transform="translate(0 -66.608)"/>
                        <path id="Path_531" d="M260.919 1.061l-.943-.943a.4.4 0 0 0-.571 0l-.739.739 1.514 1.514.739-.739a.4.4 0 0 0 0-.571z" class="cls-2" transform="translate(-253.771)"/>
                    </g>
                </g>
            </g>
        </g>
    </g>
</svg>
