<?xml version="1.0" encoding="utf-8"?>
<!-- Generator: Adobe Illustrator 19.0.0, SVG Export Plug-In . SVG Version: 6.00 Build 0)  -->
<svg version="1.1" id="Capa_1" xmlns="http://www.w3.org/2000/svg" xmlns:xlink="http://www.w3.org/1999/xlink" x="0px" y="0px"
	 viewBox="-41 164.9 512 512" style="enable-background:new -41 164.9 512 512;" xml:space="preserve">
<g>
	<g>
		<path d="M296.2,537.2c-21.5-21.5-47.1-37.4-75.1-47.1c29.9-20.6,49.6-55.1,49.6-94.1c0-63-51.2-114.2-114.2-114.2
			S42.3,333.1,42.3,396.1c0,39,19.7,73.5,49.6,94.1c-27.9,9.6-53.5,25.6-75.1,47.1C-20.5,574.5-41,624.1-41,676.9h30.9
			c0-91.9,74.8-166.6,166.6-166.6S323.1,585,323.1,676.9H354C354,624.1,333.5,574.5,296.2,537.2z M156.5,479.4
			c-45.9,0-83.3-37.4-83.3-83.3s37.4-83.3,83.3-83.3s83.3,37.4,83.3,83.3S202.4,479.4,156.5,479.4z"/>
	</g>
</g>
<g>
	<g>
		<path d="M335.8,390.9l55-55c1.5-1.5,2.3-3.5,2.3-5.7c0-2.2-0.8-4.2-2.3-5.7l-4.8-4.8c-1.5-1.5-3.5-2.4-5.7-2.4s-4.2,0.8-5.7,2.4
			l-65.5,65.5c-1.5,1.5-2.4,3.5-2.3,5.7c0,2.2,0.8,4.2,2.3,5.7l65.4,65.4c1.5,1.5,3.5,2.4,5.7,2.4c2.2,0,4.2-0.8,5.7-2.4l4.8-4.8
			c3.1-3.1,3.1-8.2,0-11.4L335.8,390.9z"/>
	</g>
</g>
</svg>
