<svg xmlns="http://www.w3.org/2000/svg" width="19.744" height="19.744" viewBox="0 0 19.744 19.744">
    <defs>
        <style>
            .cls-2{fill:#fff}
        </style>
    </defs>
    <g id="Group_3841" transform="translate(-1018 -427.756)">
        <g id="Group_3727" transform="translate(1018 427.756)">
            <path id="Path_4209" fill="#fb7e11" d="M9.872 0A9.872 9.872 0 1 1 0 9.872 9.844 9.844 0 0 1 9.816 0z" transform="translate(0 0)"/>
        </g>
        <g id="hourglass" transform="translate(1023.778 432.253)">
            <g id="Group_3843" transform="translate(0)">
                <g id="Group_3842" transform="translate(0)">
                    <path id="Path_4326" d="M157.107 328.529l-.011.011a.357.357 0 0 0 .263.6h3.44a.357.357 0 0 0 .263-.6l-.011-.011c-.319-.341-1.522-1.356-1.537-1.369a.668.668 0 0 0-.87 0c-.015.013-1.218 1.028-1.537 1.369z" class="cls-2" transform="translate(-154.985 -320.133)"/>
                    <path id="Path_4327" d="M66.735 5.058c.1-.087.215-.183.336-.285.894-.751 2.118-1.781 2.118-2.862V1.26A1.261 1.261 0 0 0 67.929 0H62.26A1.261 1.261 0 0 0 61 1.26v.651c0 1.082 1.224 2.111 2.118 2.862.121.1.236.2.336.285a.411.411 0 0 1 0 .634c-.1.087-.215.183-.336.285C62.224 6.729 61 7.758 61 8.839v.651a1.261 1.261 0 0 0 1.26 1.26h5.669a1.261 1.261 0 0 0 1.26-1.26.42.42 0 1 0-.84 0 .42.42 0 0 1-.42.42H62.26a.42.42 0 0 1-.42-.42v-.651c0-.691 1.139-1.648 1.819-2.219.124-.1.241-.2.347-.294a1.25 1.25 0 0 0 0-1.9c-.105-.092-.223-.19-.347-.294-.68-.572-1.819-1.529-1.819-2.219V1.26a.42.42 0 0 1 .42-.42h5.669a.42.42 0 0 1 .42.42v.651c0 .691-1.139 1.648-1.819 2.219-.124.1-.241.2-.347.294a1.25 1.25 0 0 0 0 1.9c.11.1.232.2.362.307a11.687 11.687 0 0 1 1.237 1.142.42.42 0 1 0 .629-.557 12.515 12.515 0 0 0-1.327-1.229c-.126-.106-.246-.206-.35-.3a.411.411 0 0 1 0-.634z" class="cls-2" transform="translate(-61)"/>
                    <path id="Path_4328" d="M201.629 128.223c.008-.007.3-.258.634-.554a.382.382 0 0 0-.246-.669h-1.642a.382.382 0 0 0-.246.669c.334.3.627.547.634.554a.656.656 0 0 0 .866 0z" class="cls-2" transform="translate(-197.081 -124.333)"/>
                </g>
            </g>
        </g>
    </g>
</svg>
