<svg xmlns="http://www.w3.org/2000/svg" width="113.435" height="113.589" viewBox="0 0 113.435 113.589">
    <defs>
        <style>
            .cls-1{fill:#caddff}.cls-2{fill:#5479f7}.cls-3{fill:#99b9ff}.cls-4{fill:#fff}
        </style>
    </defs>
    <g id="Group_1419" transform="translate(-615.999 -285)">
        <g id="Deadline" transform="translate(-1813.727 98.003)">
            <path id="Path_964" d="M2453.992 193.915c22.806-12.457 60.813-4.468 74.759 11.76 7.6 8.848 10.974 16.593 13.578 32.981 3.235 20.356-8.23 45.832-32.514 56.386-26.433 11.488-55.988.6-69.821-17.072-12.937-16.528-10.347-35.989-9.422-42.941 1.085-8.156 4.313-30.677 23.42-41.114z" class="cls-1" transform="translate(0 -.71)"/>
            <g id="Group_1301" transform="translate(2484.218 187.199)">
                <path id="Path_965" d="M2844.916 324.927a.6.6 0 0 1-.565-.392l-.961-2.535a.2.2 0 0 0-.172-.123 12.721 12.721 0 0 1-1.6-.192.193.193 0 0 0-.2.079l-1.541 2.23a.6.6 0 0 1-.725.218l-2.2-.888a.6.6 0 0 1-.371-.659l.436-2.681a.192.192 0 0 0-.087-.193 12.9 12.9 0 0 1-1.283-.966.192.192 0 0 0-.209-.03l-2.453 1.162a.6.6 0 0 1-.737-.174l-1.463-1.871a.6.6 0 0 1 .008-.756l1.714-2.1a.192.192 0 0 0 .021-.21 12.781 12.781 0 0 1-.627-1.482.2.2 0 0 0-.167-.131l-2.7-.22a.6.6 0 0 1-.551-.519l-.332-2.353a.6.6 0 0 1 .385-.651l2.537-.963a.2.2 0 0 0 .123-.172 12.758 12.758 0 0 1 .192-1.6.191.191 0 0 0-.078-.2l-2.229-1.542a.6.6 0 0 1-.217-.725l.888-2.2a.6.6 0 0 1 .659-.372l2.679.436a.192.192 0 0 0 .192-.087 13.016 13.016 0 0 1 .966-1.285.192.192 0 0 0 .03-.209l-1.162-2.455a.6.6 0 0 1 .174-.736l1.87-1.465a.6.6 0 0 1 .757.008l2.1 1.715a.191.191 0 0 0 .21.021 12.77 12.77 0 0 1 1.481-.628.2.2 0 0 0 .131-.166l.221-2.706a.6.6 0 0 1 .519-.551l2.351-.333a.6.6 0 0 1 .652.385l.961 2.538a.2.2 0 0 0 .172.123 12.773 12.773 0 0 1 1.6.192.192.192 0 0 0 .2-.079l1.542-2.23a.6.6 0 0 1 .725-.217l2.2.888a.6.6 0 0 1 .372.659l-.436 2.681a.193.193 0 0 0 .087.193 12.92 12.92 0 0 1 1.283.966.193.193 0 0 0 .209.03l2.453-1.162a.6.6 0 0 1 .737.174l1.463 1.871a.6.6 0 0 1-.008.757l-1.714 2.1a.192.192 0 0 0-.021.21 12.832 12.832 0 0 1 .626 1.482.193.193 0 0 0 .167.131l2.7.22a.6.6 0 0 1 .551.519l.333 2.353a.6.6 0 0 1-.385.651l-2.537.963a.194.194 0 0 0-.124.172 12.751 12.751 0 0 1-.192 1.6.193.193 0 0 0 .078.2l2.229 1.542a.6.6 0 0 1 .218.725l-.888 2.2a.6.6 0 0 1-.659.372l-2.679-.436a.194.194 0 0 0-.193.087 12.972 12.972 0 0 1-.965 1.285.192.192 0 0 0-.03.209l1.162 2.455a.6.6 0 0 1-.174.736l-1.87 1.465a.6.6 0 0 1-.757-.008l-2.1-1.715a.192.192 0 0 0-.21-.021 12.815 12.815 0 0 1-1.481.628.193.193 0 0 0-.132.167l-.22 2.706a.6.6 0 0 1-.519.551l-2.351.333a.626.626 0 0 1-.089.001zm-3.332-3.659a.6.6 0 0 1 .111.01 12.336 12.336 0 0 0 1.545.185.605.605 0 0 1 .533.388l.961 2.538a.2.2 0 0 0 .21.125l2.351-.333a.2.2 0 0 0 .168-.178l.22-2.706a.606.606 0 0 1 .4-.52 12.333 12.333 0 0 0 1.433-.607.606.606 0 0 1 .654.07l2.1 1.715a.2.2 0 0 0 .245 0l1.87-1.465a.2.2 0 0 0 .057-.238l-1.162-2.455a.6.6 0 0 1 .089-.651 12.521 12.521 0 0 0 .935-1.243.606.606 0 0 1 .6-.267l2.679.436a.2.2 0 0 0 .213-.12l.887-2.2a.194.194 0 0 0-.07-.234l-2.229-1.542a.607.607 0 0 1-.249-.608 12.3 12.3 0 0 0 .186-1.547.605.605 0 0 1 .387-.533l2.537-.963a.194.194 0 0 0 .124-.21l-.332-2.353a.2.2 0 0 0-.178-.168l-2.7-.22a.606.606 0 0 1-.52-.4 12.226 12.226 0 0 0-.607-1.435.606.606 0 0 1 .07-.653l1.714-2.1a.2.2 0 0 0 0-.244l-1.464-1.871a.194.194 0 0 0-.238-.056l-2.453 1.162a.605.605 0 0 1-.652-.089 12.518 12.518 0 0 0-1.243-.935.606.606 0 0 1-.266-.6l.436-2.681a.194.194 0 0 0-.12-.213l-2.2-.888a.2.2 0 0 0-.234.07l-1.541 2.23a.6.6 0 0 1-.608.249 12.356 12.356 0 0 0-1.545-.185.606.606 0 0 1-.533-.388l-.961-2.538a.194.194 0 0 0-.21-.124l-2.351.333a.2.2 0 0 0-.168.178l-.221 2.706a.605.605 0 0 1-.4.52 12.37 12.37 0 0 0-1.434.607.6.6 0 0 1-.653-.07l-2.1-1.715a.194.194 0 0 0-.244 0l-1.87 1.465a.2.2 0 0 0-.057.238l1.162 2.455a.605.605 0 0 1-.088.651 12.512 12.512 0 0 0-.936 1.244.6.6 0 0 1-.6.266l-2.679-.436a.2.2 0 0 0-.213.12l-.888 2.2a.2.2 0 0 0 .07.234l2.229 1.542a.6.6 0 0 1 .248.608 12.5 12.5 0 0 0-.186 1.547.6.6 0 0 1-.387.533l-2.537.963a.194.194 0 0 0-.124.21l.332 2.353a.2.2 0 0 0 .178.168l2.7.22a.606.606 0 0 1 .52.4 12.462 12.462 0 0 0 .607 1.435.6.6 0 0 1-.07.653l-1.714 2.1a.2.2 0 0 0 0 .244l1.463 1.871a.194.194 0 0 0 .238.056l2.453-1.162a.6.6 0 0 1 .651.089 12.482 12.482 0 0 0 1.243.935.605.605 0 0 1 .266.6l-.436 2.681a.194.194 0 0 0 .12.213l2.2.888a.2.2 0 0 0 .234-.07l1.541-2.23a.605.605 0 0 1 .501-.259zm2.381-4.025a8.148 8.148 0 1 1 8.148-8.148 8.158 8.158 0 0 1-8.147 8.149zm0-15.887a7.738 7.738 0 1 0 7.738 7.738 7.747 7.747 0 0 0-7.737-7.737z" class="cls-2" transform="translate(-2828.145 -278.931)"/>
                <g id="Group_1298" transform="translate(19.383)">
                    <g id="Group_1297" transform="translate(.049 .891)">
                        <path id="Path_966" d="M2980.973 209.031l1.209-.761-.521-1.471a5.872 5.872 0 0 0 .677-.729l1.5.406.667-1.264-1.186-1.014a6.046 6.046 0 0 0 .22-.969l1.509-.4-.048-1.429-1.532-.284a5.905 5.905 0 0 0-.3-.95l1.1-1.1-.761-1.209-1.471.52a5.925 5.925 0 0 0-.729-.678l.406-1.5-1.264-.666-1.014 1.187a5.988 5.988 0 0 0-.969-.22l-.4-1.508-1.427.055-.285 1.532a5.935 5.935 0 0 0-.951.3l-1.1-1.105-1.208.761.52 1.471a5.87 5.87 0 0 0-.677.729l-1.5-.406-.667 1.264 1.187 1.014a5.987 5.987 0 0 0-.22.969l-1.508.4.055 1.428 1.532.285a5.9 5.9 0 0 0 .3.95l-1.105 1.1.761 1.209 1.472-.52a5.888 5.888 0 0 0 .729.678l-.406 1.5 1.264.666 1.014-1.186a6 6 0 0 0 .97.22l.4 1.508 1.428-.055.285-1.532a5.909 5.909 0 0 0 .95-.3zm-6.445-4.675a3.678 3.678 0 1 1 5.072 1.153 3.677 3.677 0 0 1-5.073-1.154z" class="cls-3" transform="translate(-2970.227 -194.983)"/>
                    </g>
                    <path id="Path_967" d="M2977.052 203.707a.206.206 0 0 1-.2-.152l-.367-1.379a6.241 6.241 0 0 1-.737-.168l-.927 1.084a.205.205 0 0 1-.252.048l-1.264-.666a.205.205 0 0 1-.1-.235l.371-1.375a6.148 6.148 0 0 1-.554-.516l-1.344.476a.2.2 0 0 1-.242-.084l-.761-1.209a.2.2 0 0 1 .029-.255l1.01-1.007a6.29 6.29 0 0 1-.225-.723l-1.4-.26a.2.2 0 0 1-.167-.194l-.055-1.428a.205.205 0 0 1 .152-.206l1.379-.367a6.186 6.186 0 0 1 .167-.737l-1.084-.927a.206.206 0 0 1-.048-.252l.667-1.264a.2.2 0 0 1 .235-.1l1.375.371a6.077 6.077 0 0 1 .516-.554l-.476-1.344a.205.205 0 0 1 .084-.242l1.209-.761a.2.2 0 0 1 .254.029l1.007 1.01a6.184 6.184 0 0 1 .723-.225l.26-1.4a.206.206 0 0 1 .194-.168l1.427-.055a.2.2 0 0 1 .206.152l.367 1.379a6.187 6.187 0 0 1 .737.168l.927-1.084a.206.206 0 0 1 .252-.048l1.264.666a.206.206 0 0 1 .1.235l-.371 1.375a6.226 6.226 0 0 1 .554.515l1.344-.476a.2.2 0 0 1 .242.084l.761 1.209a.2.2 0 0 1-.029.255l-1.01 1.007a6.119 6.119 0 0 1 .225.723l1.4.26a.206.206 0 0 1 .167.194l.055 1.428a.2.2 0 0 1-.152.206l-1.379.367a6.242 6.242 0 0 1-.168.737l1.085.927a.207.207 0 0 1 .048.252l-.667 1.264a.206.206 0 0 1-.235.1l-1.375-.371a6.159 6.159 0 0 1-.516.554l.476 1.344a.205.205 0 0 1-.084.242l-1.209.761a.2.2 0 0 1-.254-.029l-1.007-1.01a6.158 6.158 0 0 1-.723.225l-.26 1.4a.206.206 0 0 1-.194.168l-1.428.055zm-1.371-2.139a.2.2 0 0 1 .062.01 5.828 5.828 0 0 0 .937.213.206.206 0 0 1 .169.15l.359 1.35 1.1-.042.255-1.371a.205.205 0 0 1 .158-.163 5.745 5.745 0 0 0 .918-.286.2.2 0 0 1 .222.045l.986.989.931-.586-.466-1.316a.2.2 0 0 1 .055-.22 5.738 5.738 0 0 0 .654-.7.2.2 0 0 1 .215-.072l1.346.363.513-.973-1.062-.908a.205.205 0 0 1-.062-.218 5.754 5.754 0 0 0 .213-.936.205.205 0 0 1 .151-.169l1.35-.359-.042-1.1-1.371-.255a.2.2 0 0 1-.163-.158 5.713 5.713 0 0 0-.286-.917.205.205 0 0 1 .046-.222l.989-.986-.586-.931-1.317.466a.2.2 0 0 1-.22-.055 5.765 5.765 0 0 0-.7-.654.206.206 0 0 1-.072-.215l.364-1.346-.974-.513-.907 1.062a.205.205 0 0 1-.218.062 5.813 5.813 0 0 0-.936-.213.2.2 0 0 1-.169-.15l-.36-1.35-1.1.042-.254 1.371a.205.205 0 0 1-.158.163 5.73 5.73 0 0 0-.917.286.205.205 0 0 1-.222-.045l-.986-.989-.931.587.466 1.316a.205.205 0 0 1-.055.22 5.75 5.75 0 0 0-.654.7.2.2 0 0 1-.215.072l-1.346-.363-.513.973 1.062.907a.2.2 0 0 1 .062.218 5.8 5.8 0 0 0-.212.936.2.2 0 0 1-.151.169l-1.35.359.042 1.1 1.371.255a.205.205 0 0 1 .163.158 5.736 5.736 0 0 0 .285.917.2.2 0 0 1-.046.222l-.989.986.586.931 1.317-.466a.206.206 0 0 1 .22.055 5.723 5.723 0 0 0 .7.654.2.2 0 0 1 .071.215l-.363 1.346.974.513.907-1.062a.2.2 0 0 1 .155-.072zm1.809-1.595a3.918 3.918 0 0 1-.868-.1 3.858 3.858 0 0 1-2.425-1.718 3.879 3.879 0 1 1 3.293 1.815zm-2.946-2.034a3.473 3.473 0 1 0 1.089-4.789 3.476 3.476 0 0 0-1.089 4.789z" transform="translate(-2969.866 -188.471)"/>
                </g>
                <g id="Group_1300" transform="translate(31.423 7.696)">
                    <g id="Group_1299" transform="translate(0 1.347)">
                        <path id="Path_968" d="M3075.795 277.989l2.014-1.268-.867-2.451a9.847 9.847 0 0 0 1.129-1.214l2.507.676 1.11-2.105-1.976-1.689a9.964 9.964 0 0 0 .367-1.615l2.512-.669-.091-2.378-2.552-.474a9.9 9.9 0 0 0-.493-1.583l1.841-1.835-1.268-2.014-2.45.867a9.858 9.858 0 0 0-1.215-1.129l.676-2.507-2.1-1.11-1.689 1.976a10.016 10.016 0 0 0-1.615-.367l-.669-2.512-2.378.091-.474 2.552a9.864 9.864 0 0 0-1.583.493l-1.835-1.841-2.014 1.268.867 2.45a9.819 9.819 0 0 0-1.129 1.215l-2.507-.676-1.11 2.105 1.976 1.689a10.018 10.018 0 0 0-.367 1.615l-2.512.669.091 2.378 2.552.474a9.9 9.9 0 0 0 .493 1.583l-1.841 1.835 1.268 2.014 2.45-.867a9.887 9.887 0 0 0 1.215 1.129l-.676 2.507 2.105 1.11 1.689-1.976a9.994 9.994 0 0 0 1.615.367l.669 2.512 2.378-.091.474-2.552a9.864 9.864 0 0 0 1.583-.493zm-10.736-7.788a6.126 6.126 0 1 1 8.448 1.92 6.126 6.126 0 0 1-8.449-1.921z" class="cls-3" transform="translate(-3057.895 -254.589)"/>
                    </g>
                    <path id="Path_969" d="M3070.127 269.846a.2.2 0 0 1-.2-.152l-.634-2.382a10.225 10.225 0 0 1-1.383-.314l-1.6 1.874a.205.205 0 0 1-.252.048l-2.1-1.11a.2.2 0 0 1-.1-.235l.641-2.376a10.126 10.126 0 0 1-1.04-.967l-2.323.822a.2.2 0 0 1-.242-.084l-1.268-2.014a.206.206 0 0 1 .029-.255l1.745-1.74a10.076 10.076 0 0 1-.422-1.356l-2.42-.449a.205.205 0 0 1-.168-.194l-.091-2.378a.205.205 0 0 1 .152-.206l2.382-.634a10.294 10.294 0 0 1 .314-1.383l-1.874-1.6a.205.205 0 0 1-.048-.252l1.11-2.1a.2.2 0 0 1 .235-.1l2.376.641a10.107 10.107 0 0 1 .967-1.04l-.822-2.323a.2.2 0 0 1 .084-.242l2.014-1.268a.2.2 0 0 1 .254.029l1.74 1.745a10.1 10.1 0 0 1 1.356-.422l.449-2.42a.205.205 0 0 1 .194-.168l2.378-.091a.205.205 0 0 1 .206.152l.634 2.382a10.218 10.218 0 0 1 1.383.314l1.6-1.874a.205.205 0 0 1 .251-.048l2.1 1.11a.206.206 0 0 1 .1.235l-.641 2.376a10.164 10.164 0 0 1 1.04.967l2.323-.822a.206.206 0 0 1 .242.084l1.268 2.014a.2.2 0 0 1-.029.255l-1.745 1.739a10.128 10.128 0 0 1 .423 1.356l2.42.449a.205.205 0 0 1 .167.194l.098 2.367a.205.205 0 0 1-.152.206l-2.382.634a10.2 10.2 0 0 1-.314 1.383l1.874 1.6a.205.205 0 0 1 .048.252l-1.11 2.105a.206.206 0 0 1-.235.1l-2.376-.641a10.123 10.123 0 0 1-.967 1.04l.822 2.323a.2.2 0 0 1-.084.242l-2.014 1.268a.206.206 0 0 1-.255-.029l-1.739-1.745a10.133 10.133 0 0 1-1.356.422l-.449 2.42a.205.205 0 0 1-.194.168l-2.378.091zm-2.283-3.29a.206.206 0 0 1 .062.01 9.764 9.764 0 0 0 1.582.359.206.206 0 0 1 .169.15l.627 2.354 2.05-.078.444-2.391a.2.2 0 0 1 .157-.163 9.692 9.692 0 0 0 1.55-.483.206.206 0 0 1 .222.045l1.719 1.725 1.736-1.093-.812-2.3a.206.206 0 0 1 .055-.22 9.683 9.683 0 0 0 1.106-1.189.2.2 0 0 1 .215-.072l2.348.633.957-1.815-1.852-1.582a.206.206 0 0 1-.062-.218 9.815 9.815 0 0 0 .359-1.582.2.2 0 0 1 .151-.169l2.354-.627-.079-2.05-2.391-.444a.205.205 0 0 1-.163-.158 9.693 9.693 0 0 0-.483-1.55.205.205 0 0 1 .045-.222l1.725-1.719-1.093-1.736-2.3.812a.206.206 0 0 1-.22-.055 9.649 9.649 0 0 0-1.189-1.105.206.206 0 0 1-.072-.215l.633-2.348-1.815-.957-1.579 1.856a.2.2 0 0 1-.218.062 9.8 9.8 0 0 0-1.582-.359.2.2 0 0 1-.169-.15l-.627-2.354-2.05.079-.444 2.391a.2.2 0 0 1-.157.163 9.688 9.688 0 0 0-1.551.483.205.205 0 0 1-.222-.046l-1.719-1.725-1.736 1.093.812 2.3a.205.205 0 0 1-.055.22 9.7 9.7 0 0 0-1.105 1.189.2.2 0 0 1-.215.072l-2.348-.633-.957 1.815 1.852 1.583a.205.205 0 0 1 .062.218 9.816 9.816 0 0 0-.36 1.581.2.2 0 0 1-.15.169l-2.354.627.078 2.05 2.391.444a.206.206 0 0 1 .163.158 9.7 9.7 0 0 0 .482 1.55.2.2 0 0 1-.045.222l-1.725 1.719 1.093 1.736 2.3-.812a.206.206 0 0 1 .22.055 9.686 9.686 0 0 0 1.189 1.105.205.205 0 0 1 .072.215l-.633 2.348 1.815.957 1.583-1.852a.205.205 0 0 1 .154-.075zm3.013-2.929a6.389 6.389 0 0 1-1.416-.16 6.292 6.292 0 0 1-3.955-2.8 6.325 6.325 0 1 1 5.37 2.96zm-.024-12.257a5.924 5.924 0 0 0-5 9.078 5.921 5.921 0 1 0 6.323-8.929 5.966 5.966 0 0 0-1.323-.149z" transform="translate(-3058.238 -244.741)"/>
                </g>
            </g>
            <g id="Group_1315" transform="translate(2429.826 220.842)">
                <g id="Group_1304" transform="translate(.205 .205)">
                    <g id="Group_1302">
                        <path id="Path_970" d="M2890.386 436h-32.426l16.127 74.413h26.039a1.728 1.728 0 0 0 1.708-1.992l-2.083-16.275-6.9-53.961a2.583 2.583 0 0 0-2.465-2.185z" class="cls-3" transform="translate(-2799.697 -435.993)"/>
                        <path id="Path_971" d="M2519.461 463.133l-9.8 49.23a1.478 1.478 0 0 1-1.45 1.191h-74.77a1.478 1.478 0 0 1-1.45-1.764l14.866-74.646a1.478 1.478 0 0 1 1.45-1.191h74.77a1.478 1.478 0 0 1 1.45 1.764l-4.062 20.47z" class="cls-4" transform="translate(-2431.959 -435.952)"/>
                    </g>
                    <g id="Group_1303" transform="translate(7.592 19.125)">
                        <path id="Path_972" d="M2501.381 724.385l1.717-8.567 9.051.087-1.717 8.567-9.051-.087z" class="cls-3" transform="translate(-2499.478 -696.666)"/>
                        <path id="Path_973" d="M2575.826 725.1l1.717-8.567 9.051.087-1.717 8.567-9.051-.087z" class="cls-1" transform="translate(-2563.742 -697.285)"/>
                        <path id="Path_974" d="M2650.272 725.82l1.717-8.567 9.051.087-1.717 8.567-9.051-.087z" class="cls-1" transform="translate(-2628.005 -697.904)"/>
                        <path id="Path_975" d="M2724.717 726.538l1.717-8.567 9.051.087-1.717 8.567-9.051-.087z" class="cls-1" transform="translate(-2692.269 -698.523)"/>
                        <path id="Path_976" d="M2799.163 727.255l1.717-8.567 9.051.087-1.717 8.567-9.051-.087z" class="cls-1" transform="translate(-2756.532 -699.143)"/>
                        <path id="Path_977" d="M2873.609 727.972l1.717-8.567 9.051.087-1.717 8.567-9.051-.087z" class="cls-1" transform="translate(-2820.796 -699.762)"/>
                        <path id="Path_978" d="M2948.054 728.69l1.717-8.567 9.051.087-1.717 8.567-9.05-.087z" class="cls-1" transform="translate(-2885.06 -700.381)"/>
                        <path id="Path_979" d="M2487.47 794.4l1.717-8.567 9.051.087-1.717 8.567-9.051-.087z" class="cls-1" transform="translate(-2487.47 -757.106)"/>
                        <path id="Path_980" d="M2561.916 795.119l1.717-8.567 9.051.087-1.717 8.567-9.051-.087z" class="cls-1" transform="translate(-2551.734 -757.725)"/>
                        <path id="Path_981" d="M2636.361 795.837l1.717-8.567 9.051.087-1.717 8.567-9.051-.087z" class="cls-3" transform="translate(-2615.997 -758.345)"/>
                        <path id="Path_982" d="M2710.807 796.554l1.717-8.567 9.051.087-1.717 8.567-9.051-.087z" class="cls-1" transform="translate(-2680.261 -758.964)"/>
                        <path id="Path_983" d="M2785.252 797.272l1.717-8.567 9.051.087-1.717 8.567-9.051-.087z" class="cls-1" transform="translate(-2744.525 -759.583)"/>
                        <path id="Path_984" d="M2859.7 797.989l1.717-8.567 9.051.087-1.717 8.567-9.051-.087z" class="cls-1" transform="translate(-2808.788 -760.203)"/>
                        <path id="Path_985" d="M2934.143 798.707l1.717-8.567 9.05.087-1.717 8.567-9.051-.087z" class="cls-1" transform="translate(-2873.052 -760.822)"/>
                        <path id="Path_986" d="M2529.2 584.352l1.717-8.567 9.051.087-1.717 8.567-9.051-.087z" class="cls-1" transform="translate(-2523.495 -575.785)"/>
                        <path id="Path_987" d="M2603.681 585l1.717-8.567 9.051.087-1.717 8.567-9.051-.087z" class="cls-1" transform="translate(-2587.787 -576.347)"/>
                        <path id="Path_988" d="M2678.093 585.787l1.717-8.567 9.051.087-1.717 8.567-9.051-.087z" class="cls-1" transform="translate(-2652.021 -577.023)"/>
                        <path id="Path_989" d="M2752.539 586.5l1.717-8.567 9.051.087-1.717 8.567-9.051-.087z" class="cls-1" transform="translate(-2716.285 -577.643)"/>
                        <path id="Path_990" d="M2826.985 587.222l1.717-8.567 9.051.087-1.717 8.567-9.051-.087z" class="cls-3" transform="translate(-2780.549 -578.262)"/>
                        <path id="Path_991" d="M2901.43 587.939l1.717-8.567 9.051.087-1.717 8.567-9.051-.087z" class="cls-1" transform="translate(-2844.813 -578.881)"/>
                        <path id="Path_992" d="M2975.875 588.656l1.717-8.567 9.051.087-1.717 8.567-9.051-.087z" class="cls-1" transform="translate(-2909.076 -579.5)"/>
                        <path id="Path_993" d="M2515.292 654.369l1.717-8.567 9.051.087-1.717 8.567-9.051-.087z" class="cls-1" transform="translate(-2511.486 -636.225)"/>
                        <path id="Path_994" d="M2589.737 655.086l1.717-8.567 9.051.087-1.717 8.567-9.051-.087z" class="cls-1" transform="translate(-2575.75 -636.844)"/>
                        <path id="Path_995" d="M2664.183 655.8l1.717-8.567 9.051.087-1.717 8.567-9.051-.087z" class="cls-1" transform="translate(-2640.013 -637.464)"/>
                        <path id="Path_996" d="M2738.628 656.521l1.717-8.567 9.051.087-1.717 8.567-9.051-.087z" class="cls-3" transform="translate(-2704.277 -638.083)"/>
                        <path id="Path_997" d="M2813.074 657.238l1.717-8.567 9.051.087-1.717 8.567-9.05-.087z" class="cls-1" transform="translate(-2768.541 -638.702)"/>
                        <path id="Path_998" d="M2961.083 658.665l1.717-8.567 9.051.087-1.717 8.567-9.051-.087z" class="cls-1" transform="translate(-2896.307 -639.934)"/>
                        <path id="Path_999" d="M2887.519 657.956l1.717-8.567 9.051.087-1.717 8.567-9.051-.087z" class="cls-1" transform="translate(-2832.804 -639.322)"/>
                    </g>
                </g>
                <g id="Group_1314" transform="translate(12.588 19.633)">
                    <g id="Group_1305" transform="translate(44.177 1.831)">
                        <path id="Path_1000" d="M2853.9 597.009a.205.205 0 0 1-.167-.085l-3.758-5.213a.205.205 0 1 1 .333-.24l3.758 5.213a.205.205 0 0 1-.166.325z" class="cls-2" transform="translate(-2849.326 -591.386)"/>
                        <path id="Path_1001" d="M2845.705 600.472a.205.205 0 0 1-.128-.366l5.334-4.243a.205.205 0 1 1 .255.321l-5.334 4.243a.205.205 0 0 1-.127.045z" class="cls-2" transform="translate(-2845.5 -595.213)"/>
                    </g>
                    <g id="Group_1306" transform="translate(32.415 11.131)">
                        <path id="Path_1002" d="M2767.9 665.01a.205.205 0 0 1-.167-.085l-3.758-5.213a.205.205 0 1 1 .333-.24l3.758 5.213a.205.205 0 0 1-.166.325z" class="cls-2" transform="translate(-2763.325 -659.387)"/>
                        <path id="Path_1003" d="M2759.705 668.472a.205.205 0 0 1-.128-.366l5.334-4.243a.205.205 0 0 1 .256.321l-5.334 4.243a.2.2 0 0 1-.128.045z" class="cls-2" transform="translate(-2759.5 -663.213)"/>
                    </g>
                    <g id="Group_1307" transform="translate(0 20.569)">
                        <path id="Path_1004" d="M2530.9 734.01a.2.2 0 0 1-.167-.085l-3.758-5.213a.2.2 0 1 1 .333-.24l3.758 5.213a.205.205 0 0 1-.047.286.2.2 0 0 1-.119.039z" class="cls-2" transform="translate(-2526.325 -728.387)"/>
                        <path id="Path_1005" d="M2522.705 735.472a.205.205 0 0 1-.128-.366l5.334-4.243a.205.205 0 0 1 .256.321l-5.334 4.243a.2.2 0 0 1-.128.045z" class="cls-2" transform="translate(-2522.5 -730.486)"/>
                    </g>
                    <g id="Group_1308" transform="translate(18.19 30.279)">
                        <path id="Path_1006" d="M2663.9 805.01a.2.2 0 0 1-.167-.085l-3.758-5.213a.205.205 0 1 1 .333-.24l3.758 5.213a.205.205 0 0 1-.166.325z" class="cls-2" transform="translate(-2659.325 -799.387)"/>
                        <path id="Path_1007" d="M2655.705 808.472a.205.205 0 0 1-.128-.366l5.334-4.243a.205.205 0 1 1 .255.321l-5.334 4.243a.2.2 0 0 1-.127.045z" class="cls-2" transform="translate(-2655.5 -803.213)"/>
                    </g>
                    <g id="Group_1309" transform="translate(19.991)">
                        <path id="Path_1008" d="M2671.857 578h8.616c-.244 2.756-.506 5.5-2.325 7.158l-9.483.091c1.691-1.405 2.576-4.11 3.192-7.249z" class="cls-2" transform="translate(-2668.666 -578)"/>
                        <path id="Path_1009" d="M2701.407 588.41h-6.7a.205.205 0 0 1 0-.41h6.7a.205.205 0 0 1 0 .41z" class="cls-1" transform="translate(-2690.967 -586.632)"/>
                        <path id="Path_1010" d="M2695.988 599.41h-3.282a.205.205 0 1 1 0-.41h3.282a.205.205 0 1 1 0 .41z" class="cls-1" transform="translate(-2689.24 -596.128)"/>
                        <path id="Path_1011" d="M2725.038 599.623a.205.205 0 0 1 0-.41l2.462-.046a.205.205 0 0 1 0 .41l-2.462.046z" class="cls-1" transform="translate(-2717.15 -596.272)"/>
                        <path id="Path_1012" d="M2696.393 608.047l-7.021-.137a.205.205 0 0 1 0-.41l7.021.137a.205.205 0 0 1 0 .41z" class="cls-1" transform="translate(-2686.363 -603.465)"/>
                        <path id="Path_1013" d="M2690.766 618.41h-5.06a.205.205 0 1 1 0-.41h5.06a.205.205 0 1 1 0 .41z" class="cls-1" transform="translate(-2683.198 -612.529)"/>
                    </g>
                    <ellipse id="Ellipse_379" cx="2.181" cy=".648" class="cls-3" rx="2.181" ry=".648" transform="translate(38.718 34.577)"/>
                    <g id="Group_1313" transform="translate(40.694 20.772)">
                        <path id="Path_1014" d="M2820.238 753.329h-.016a.205.205 0 0 1-.189-.22l.96-12.641a.205.205 0 1 1 .409.031l-.96 12.641a.205.205 0 0 1-.204.189z" transform="translate(-2820.033 -738.855)"/>
                        <g id="Group_1310" transform="translate(.285)">
                            <path id="Path_1015" d="M2834.66 737.327a10.483 10.483 0 0 1-3.014.385c-2.4-.048-3.434-.918-5.216-.574a5.568 5.568 0 0 0-2.809 1.547l.381-6.022a4.2 4.2 0 0 1 2.4-1.243c1.536-.246 2.411.56 4.421.794a9.481 9.481 0 0 0 3.552-.282l-1.938 2.823z" class="cls-2" transform="translate(-2823.415 -731.168)"/>
                            <path id="Path_1016" d="M2822.324 737.594a.205.205 0 0 1-.2-.218l.381-6.022a.207.207 0 0 1 .061-.133 4.4 4.4 0 0 1 2.513-1.3 4.939 4.939 0 0 1 2.434.319 10.6 10.6 0 0 0 2.043.474 9.369 9.369 0 0 0 3.477-.276.205.205 0 0 1 .221.315l-1.848 2.693 2.118 2.452a.205.205 0 0 1-.1.332 10.691 10.691 0 0 1-3.073.392 11.817 11.817 0 0 1-2.648-.385 5.618 5.618 0 0 0-2.525-.193 5.468 5.468 0 0 0-2.707 1.495.205.205 0 0 1-.147.055zm.581-6.135l-.345 5.445a5.624 5.624 0 0 1 2.534-1.264 5.938 5.938 0 0 1 2.7.2 11.477 11.477 0 0 0 2.562.374 10.216 10.216 0 0 0 2.64-.295l-2.006-2.323a.205.205 0 0 1-.014-.25l1.637-2.384a9.6 9.6 0 0 1-3.106.163 10.958 10.958 0 0 1-2.117-.49 4.549 4.549 0 0 0-2.247-.305 3.987 3.987 0 0 0-2.238 1.129z" transform="translate(-2822.119 -729.872)"/>
                        </g>
                        <g id="Group_1311" transform="translate(1.86 1.9)">
                            <path id="Path_1017" d="M2835.228 745.266l-.1 2.567z" class="cls-2" transform="translate(-2834.927 -745.061)"/>
                            <path id="Path_1018" d="M2833.838 746.744h-.008a.205.205 0 0 1-.2-.213l.1-2.567a.205.205 0 1 1 .41.015l-.1 2.568a.205.205 0 0 1-.202.197z" transform="translate(-2833.633 -743.766)"/>
                        </g>
                        <g id="Group_1312" transform="translate(2.674 1.323)">
                            <path id="Path_1019" d="M2841.084 742.439l.058-1.39z" class="cls-2" transform="translate(-2840.878 -740.844)"/>
                            <path id="Path_1020" d="M2839.789 741.348h-.009a.205.205 0 0 1-.2-.214l.058-1.39a.2.2 0 0 1 .213-.2.205.205 0 0 1 .2.214l-.058 1.39a.205.205 0 0 1-.204.2z" transform="translate(-2839.584 -739.548)"/>
                        </g>
                    </g>
                </g>
                <path id="Path_1021" d="M2607.618 444.89l1.39-7.065a1.528 1.528 0 0 0-1.45-1.825h-74.77a1.533 1.533 0 0 0-1.45 1.251l-1.509 7.639z" class="cls-1" transform="translate(-2516.238 -435.788)"/>
                <path id="Path_1022" d="M2434.068 914l-2.081 10.428a1.462 1.462 0 0 0 1.45 1.745h74.77a1.46 1.46 0 0 0 1.45-1.171l2.195-11z" class="cls-1" transform="translate(-2431.754 -848.412)"/>
                <path id="Path_1023" d="M2501.928 512.463h-69.785a1.683 1.683 0 0 1-1.651-2.009l14.866-74.647a1.687 1.687 0 0 1 1.651-1.356h74.77a1.683 1.683 0 0 1 1.651 2.01l-2.7 13.588a.205.205 0 1 1-.4-.08l2.7-13.588a1.273 1.273 0 0 0-1.249-1.52h-74.77a1.275 1.275 0 0 0-1.249 1.026l-14.867 74.647a1.273 1.273 0 0 0 1.249 1.519h69.785a.205.205 0 1 1 0 .41z" transform="translate(-2430.46 -434.451)"/>
            </g>
            <g id="Group_1319" transform="translate(2502.599 237.626)">
                <g id="Group_1316" transform="translate(2.175 5.912)">
                    <path id="Path_1024" d="M3015.752 601.9c-.594 13.35-7.832 19.381-15.069 23.861l.344 1.9a28.967 28.967 0 0 1 14.648 25.389l-35.736-.453c.238-9.255 8.624-20.926 14.713-24.764l.172-2.068c-9.65-5.687-13.786-13.441-14.827-23.829z" class="cls-4" transform="translate(-2979.734 -601.692)"/>
                    <path id="Path_1025" d="M3014.381 651.953l-35.736-.453a.2.2 0 0 1-.2-.21c.109-4.251 1.954-9.407 5.194-14.518 2.852-4.5 6.407-8.363 9.528-10.359l.153-1.838a29.413 29.413 0 0 1-10.6-10.157 32.494 32.494 0 0 1-4.213-13.762.205.205 0 0 1 .2-.226l35.755-.033a.2.2 0 0 1 .205.214c-.586 13.16-7.563 19.3-15.048 23.953l.3 1.663a29.308 29.308 0 0 1 10.141 9.7 28.558 28.558 0 0 1 4.527 15.822.205.205 0 0 1-.206.204zm-35.524-.86l35.322.447a28.715 28.715 0 0 0-14.544-25 .2.2 0 0 1-.1-.143l-.345-1.9a.205.205 0 0 1 .094-.211c7.392-4.576 14.315-10.591 14.962-23.482l-35.313.032c1.144 10.895 5.685 18.133 14.7 23.447a.205.205 0 0 1 .1.194l-.173 2.068a.205.205 0 0 1-.095.156c-3.046 1.92-6.681 5.862-9.487 10.287-3.146 4.969-4.96 9.967-5.122 14.105z" transform="translate(-2978.439 -600.397)"/>
                </g>
                <g id="Group_1317">
                    <rect id="Rectangle_1051" width="40.151" height="5.945" class="cls-2" rx="2.972" transform="rotate(180 20.178 3.075)"/>
                    <path id="Path_1026" d="M3000.534 563.525H2965.1a2.567 2.567 0 0 1-2.564-2.564v-1.227a2.567 2.567 0 0 1 2.564-2.564h35.433a2.567 2.567 0 0 1 2.565 2.564v1.227a2.567 2.567 0 0 1-2.564 2.564zm-35.434-5.945a2.157 2.157 0 0 0-2.154 2.154v1.227a2.157 2.157 0 0 0 2.154 2.154h35.433a2.156 2.156 0 0 0 2.154-2.154v-1.227a2.156 2.156 0 0 0-2.154-2.154z" transform="translate(-2962.537 -557.17)"/>
                </g>
                <path id="Path_1027" d="M3016.726 688.164h-25.332c1.379 4.653 4.136 7.927 11.029 11.546l.172 21.2-14.992.172c-.433 2.143-1.2 4.446-1.034 6.548l34.12-.345a20.592 20.592 0 0 0-1.033-6.376h-15.337l.345-21.713c5.769-1.31 10.394-7.402 12.062-11.032z" class="cls-3" transform="translate(-2983.262 -670.248)"/>
                <g id="Group_1318" transform="translate(.517 56.605)">
                    <rect id="Rectangle_1052" width="39.29" height="5.945" class="cls-2" rx="2.972" transform="rotate(180 19.747 3.075)"/>
                    <path id="Path_1028" d="M3004.287 977.4h-36.24a1.732 1.732 0 0 1-1.73-1.73v-2.9a1.732 1.732 0 0 1 1.73-1.73h36.24a1.732 1.732 0 0 1 1.73 1.73v2.9a1.732 1.732 0 0 1-1.73 1.73zm-36.24-5.945a1.321 1.321 0 0 0-1.32 1.319v2.9a1.321 1.321 0 0 0 1.32 1.32h36.24a1.321 1.321 0 0 0 1.319-1.32v-2.9a1.321 1.321 0 0 0-1.319-1.319z" transform="translate(-2966.317 -971.04)"/>
                </g>
            </g>
            <g id="Group_1332" transform="translate(2432.056 186.997)">
                <path id="Path_1029" d="M2649.458 202.44a9.966 9.966 0 0 0 .126 1.212c.3 1.685 1.62 2.689 2.053 4.248 1.223 4.4-6.269 6.054-9.19 4.781-2.538-1.107-2.921-3.764-2.825-6.225.044-1.117.278-1.9-.734-2.595-1.256-.866-2.786-1.021-4.063-2.058-2.6-2.11-5.319-4.393-6.376-7.568a5.192 5.192 0 0 1 3.895-7.112 8.813 8.813 0 0 1 7.128 2.045c2.091 1.753 2.792 4.556 5.037 6.228 1.5 1.118 3.5 1.693 4.385 3.483a8.954 8.954 0 0 1 .564 3.561z" transform="translate(-2603.281 -186.997)"/>
                <path id="Path_1030" d="M2694.908 414.68s3.4 1.268 4.737.2-2.068-2.869-2.869-2.735-1.868 2.535-1.868 2.535z" transform="translate(-2660.969 -381.345)"/>
                <g id="Group_1324" transform="translate(0 27.24)">
                    <g id="Group_1320" transform="translate(16.633 30.824)">
                        <path id="Path_1031" d="M2569.882 615.3l3.2 5.6 1.735-2.4-2.8-5.471z" class="cls-4" transform="translate(-2569.677 -612.823)"/>
                        <path id="Path_1032" d="M2571.79 619.812h-.011a.206.206 0 0 1-.167-.1l-3.2-5.6a.206.206 0 0 1 .029-.242l2.135-2.268a.2.2 0 0 1 .332.047l2.8 5.471a.2.2 0 0 1-.016.213l-1.735 2.4a.206.206 0 0 1-.167.079zm-2.949-5.779l2.969 5.2 1.475-2.042-2.612-5.1z" transform="translate(-2568.382 -611.529)"/>
                    </g>
                    <path id="Path_1033" d="M2584.508 639.281c.844 1.741 2.982 5.963 5.042 7.987a.918.918 0 0 0 1.531-.417c.645-2.438 1.074-7.517-1.328-11.52a12.159 12.159 0 0 0-3.277.267l.475 2-.262-.187a1.055 1.055 0 0 0-1.3.057l-.615.527a1.073 1.073 0 0 0-.266 1.286z" transform="translate(-2565.577 -601.235)"/>
                    <path id="Path_1034" d="M2619.011 648.954a.208.208 0 0 1-.073-.013.205.205 0 0 1-.119-.265c1.817-4.8-.638-10.463-.663-10.519a.205.205 0 1 1 .375-.166c.025.058 2.548 5.872.671 10.831a.206.206 0 0 1-.191.132z" class="cls-4" transform="translate(-2594.7 -603.442)"/>
                    <path id="Path_1035" d="M2592.978 674.442a.205.205 0 0 1-.112-.377l1.6-1.039a.205.205 0 0 1 .223.344l-1.6 1.039a.205.205 0 0 1-.111.033z" class="cls-4" transform="translate(-2572.803 -633.762)"/>
                    <path id="Path_1036" d="M2598.832 684.285a.205.205 0 0 1-.125-.368l1.468-1.127a.205.205 0 1 1 .25.325l-1.468 1.127a.2.2 0 0 1-.125.043z" class="cls-4" transform="translate(-2577.857 -642.184)"/>
                    <g id="Group_1321" transform="translate(3.556 33.226)">
                        <path id="Path_1037" d="M2477.207 630.589c0 .133-2.936 6.538-2.936 6.538l3.336.267 2.269-5.471z" class="cls-4" transform="translate(-2474.066 -630.384)"/>
                        <path id="Path_1038" d="M2476.312 636.305h-.016l-3.336-.267a.206.206 0 0 1-.161-.1.2.2 0 0 1-.01-.189c1.127-2.459 2.826-6.2 2.921-6.492a.2.2 0 0 1 .293-.145l2.668 1.334a.2.2 0 0 1 .1.262l-2.268 5.471a.205.205 0 0 1-.191.126zm-3.027-.653l2.9.232 2.138-5.156-2.3-1.15c-.207.494-.829 1.906-2.738 6.074zm2.422-6.358zm0 0z" transform="translate(-2472.771 -629.089)"/>
                    </g>
                    <path id="Path_1039" d="M2453.6 662.17a1.684 1.684 0 0 0-2.4-.8 38.562 38.562 0 0 0-4.367 8.4 1.312 1.312 0 0 0 1.793 1.579 17.178 17.178 0 0 0 8.312-7.574 6.737 6.737 0 0 0-1.735-2.535z" transform="translate(-2446.769 -623.536)"/>
                    <path id="Path_1040" d="M2451.723 686.514a1.7 1.7 0 0 1-.241-.014.205.205 0 0 1 .059-.406c.042 0 3.563.4 8.345-6.189a.205.205 0 1 1 .332.241c-4.293 5.919-7.593 6.368-8.495 6.368z" class="cls-4" transform="translate(-2450.687 -639.657)"/>
                    <path id="Path_1041" d="M2462.871 693.848a.2.2 0 0 1-.1-.028l-1.6-.934a.205.205 0 1 1 .207-.354l1.6.934a.205.205 0 0 1-.1.382z" class="cls-4" transform="translate(-2459.109 -650.605)"/>
                    <path id="Path_1042" d="M2467.882 685.068a.2.2 0 0 1-.1-.025l-1.735-.934a.205.205 0 0 1 .195-.361l1.734.934a.205.205 0 0 1-.1.386z" class="cls-4" transform="translate(-2463.32 -643.026)"/>
                    <g id="Group_1322" transform="translate(6.862 .934)">
                        <path id="Path_1043" d="M2515.146 394.489a30.37 30.37 0 0 0-14.965 8.125 6.325 6.325 0 0 0-1.462 6.236c1.393 4.492 4.423 12.7 9.488 18.865l3.87-3.336s-.934-7.739-3.469-12.543 12.276-15.212 12.276-15.212z" class="cls-2" transform="translate(-2498.231 -394.284)"/>
                        <path id="Path_1044" d="M2506.914 426.625h-.018a.206.206 0 0 1-.141-.074c-5.112-6.228-8.162-14.536-9.525-18.934a6.533 6.533 0 0 1 1.51-6.438 30.845 30.845 0 0 1 15.077-8.185.207.207 0 0 1 .108.01l5.738 2.135a.205.205 0 0 1 .046.36c-.147.1-14.635 10.358-12.213 14.948 2.524 4.782 3.482 12.537 3.492 12.614a.2.2 0 0 1-.07.18l-3.87 3.336a.2.2 0 0 1-.134.048zm6.921-33.218a30.4 30.4 0 0 0-14.8 8.054 6.123 6.123 0 0 0-1.415 6.034c1.343 4.331 4.331 12.478 9.318 18.633l3.626-3.126c-.125-.952-1.106-7.955-3.433-12.364-2.41-4.566 9.82-13.662 12.024-15.25z" transform="translate(-2496.937 -392.99)"/>
                    </g>
                    <g id="Group_1323" transform="translate(5.424)">
                        <path id="Path_1045" d="M2487.93 422.087l4.537 1.334s8.273-17.48 10.675-20.015 7.072-6.672 12.009-8.14 4.937-5.2 4.937-5.2l-8.407-2.4s-11.742 5.071-15.612 10.808-8.139 23.613-8.139 23.613z" class="cls-2" transform="translate(-2487.725 -387.455)"/>
                        <path id="Path_1046" d="M2491.172 422.331a.206.206 0 0 1-.058-.008l-4.537-1.334a.205.205 0 0 1-.142-.245c.043-.179 4.323-17.983 8.169-23.685 3.859-5.722 15.219-10.674 15.7-10.882a.2.2 0 0 1 .137-.009l8.407 2.4a.205.205 0 0 1 .149.2c0 .039-.058 3.906-5.084 5.4-5.5 1.636-10.514 6.6-11.919 8.084-2.352 2.483-10.556 19.788-10.638 19.962a.2.2 0 0 1-.184.117zm-4.292-1.681l4.181 1.23c.885-1.865 8.334-17.48 10.636-19.91 1.423-1.5 6.5-6.53 12.1-8.2 4.174-1.241 4.712-4.157 4.78-4.856l-8.177-2.336c-.957.423-11.815 5.306-15.457 10.705-3.59 5.331-7.591 21.433-8.063 23.367z" transform="translate(-2486.429 -386.16)"/>
                    </g>
                </g>
                <g id="Group_1327" transform="translate(21.17 10.15)">
                    <g id="Group_1325">
                        <path id="Path_1047" d="M2626.271 268.455c-2.268-4.537-6-5.2-6-5.2l-6.4-.534a5.161 5.161 0 0 0-4.923 2.947l-5.885 13.733s1.2 3.2 6.538 3.736 9.007.2 10.742 2.335c1.143 1.408 1.107-7.98.449-15.4z" class="cls-4" transform="translate(-2602.848 -262.502)"/>
                        <path id="Path_1048" d="M2619.254 284.521a.489.489 0 0 1-.376-.217c-1.289-1.586-3.792-1.757-7.255-1.994-1.006-.069-2.146-.146-3.348-.267-5.4-.54-6.659-3.733-6.71-3.868a.2.2 0 0 1 0-.153l5.886-13.733a5.382 5.382 0 0 1 5.125-3.071l6.408.534h.019c.156.028 3.864.738 6.152 5.314a.205.205 0 0 1-.126.289l-5.327 1.561c.291 3.341.457 7.077.445 10.029-.021 5.245-.561 5.464-.764 5.546a.354.354 0 0 1-.129.03zm-17.273-6.419c.218.466 1.643 3.063 6.335 3.533 1.2.12 2.332.2 3.335.266 3.567.243 6.144.419 7.545 2.144a.356.356 0 0 0 .051.054c.091-.109.482-.833.493-5.256.007-2.97-.164-6.729-.458-10.055a.205.205 0 0 1 .146-.215l5.25-1.539a9.077 9.077 0 0 0-5.736-4.873l-6.394-.533a4.954 4.954 0 0 0-4.717 2.823z" transform="translate(-2601.552 -261.208)"/>
                    </g>
                    <g id="Group_1326" transform="translate(6.138 6.201)">
                        <path id="Path_1049" d="M2647.932 319.6l2.936-1.334 2.268.934s12.169-1.542 6.728-10.248c-.023-.038 4.276-.907 4.276-.907s4.96 11.823-10.737 12.09a2.613 2.613 0 0 1-1.868-.267c-1.068-.531-2.935.532-3.603-.268z" class="cls-4" transform="translate(-2647.727 -307.843)"/>
                        <path id="Path_1050" d="M2651.573 319.115a3.18 3.18 0 0 1-1.425-.355 3.082 3.082 0 0 0-1.695-.034c-.76.113-1.545.23-1.974-.285a.205.205 0 0 1 .073-.318l2.936-1.334a.2.2 0 0 1 .163 0l2.217.913c.593-.086 5.985-.956 7.5-4.147.756-1.6.43-3.54-.971-5.782a.207.207 0 0 1-.014-.19c.057-.134.062-.145 4.424-1.027a.206.206 0 0 1 .23.122c.08.19 1.923 4.69-.406 8.258-1.721 2.637-5.25 4.022-10.489 4.116a2.179 2.179 0 0 1-.569.063zm-2.125-.9a1.954 1.954 0 0 1 .883.179 2.417 2.417 0 0 0 1.711.256.208.208 0 0 1 .062-.011c5.11-.087 8.535-1.409 10.18-3.93 1.977-3.028.731-6.9.431-7.719-1.343.272-3.171.649-3.829.8 1.357 2.271 1.643 4.268.849 5.94-1.691 3.563-7.618 4.352-7.87 4.384a.2.2 0 0 1-.1-.014l-2.186-.9-2.531 1.15a3.1 3.1 0 0 0 1.347-.029 7.328 7.328 0 0 1 1.053-.107z" transform="translate(-2646.432 -306.548)"/>
                    </g>
                    <path id="Path_1051" d="M2726.819 302.846l5.96-1.684-.408-.995s-.5-.042-.628-.042-3.5-.13-3.5-.13l-2.073.648z" class="cls-4" transform="translate(-2709.126 -294.69)"/>
                    <path id="Path_1052" d="M2726.812 298.739a.2.2 0 0 1-.2-.147l-.444-1.509a.205.205 0 1 1 .394-.116l.386 1.314 5.523-1.561-.162-.311a.2.2 0 0 1-.044-.086l-.531-1.023a.205.205 0 0 1 .363-.192c.3.553.458.851.531 1.024l.323.623a.2.2 0 0 1-.126.292l-5.961 1.684a.2.2 0 0 1-.052.008z" transform="translate(-2709.12 -290.378)"/>
                </g>
                <g id="Group_1329" transform="translate(7.879 15.129)">
                    <path id="Path_1053" d="M2512.769 311.473h11.574l-8.58-13.2a1.474 1.474 0 0 0-1.237-.662h-9.393a.735.735 0 0 0-.64 1.129z" transform="translate(-2504.373 -297.615)"/>
                    <g id="Group_1328" transform="translate(5.538 3.153)">
                        <ellipse id="Ellipse_380" cx=".796" cy="1.481" class="cls-4" rx=".796" ry="1.481" transform="rotate(-56.96 1.23 .667)"/>
                        <path id="Path_1054" d="M2548.2 324.795a2.639 2.639 0 0 1-1.979-1.141.975.975 0 0 1-.142-.988.808.808 0 0 1 .759-.376 2.638 2.638 0 0 1 1.979 1.141.975.975 0 0 1 .142.988.808.808 0 0 1-.759.376zm-1.362-2.095c-.116 0-.322.021-.4.162a.609.609 0 0 0 .125.569 2.256 2.256 0 0 0 1.634.954c.116 0 .322-.021.4-.162a.608.608 0 0 0-.125-.569 2.256 2.256 0 0 0-1.63-.954z" transform="translate(-2545.848 -322.068)"/>
                    </g>
                    <path id="Rectangle_1053" d="M1.078 0h17.358a1.078 1.078 0 0 1 1.078 1.078H0A1.078 1.078 0 0 1 1.078 0z" transform="rotate(180 13.934 7.426)"/>
                </g>
                <g id="Group_1330" transform="translate(26.807 4.322)">
                    <path id="Path_1055" d="M2651.575 225.535c-.119-.059-1.725-1.954-2.664-3.069a2.476 2.476 0 0 0 .035-.878 1.2 1.2 0 0 0 .291-1.121c-.227-.736-.926-.145-.926-.145s-.324-.566-1.541.41a1.981 1.981 0 0 1-2.5-.211 3.044 3.044 0 0 0 .643 1.618 3.087 3.087 0 0 1 .431 1.742l.682-.1a2.7 2.7 0 0 0 1.17.876 2.014 2.014 0 0 0 .83-.425l.747 1.7-.762.4s-.172 1.067 1.829 1.334a4.8 4.8 0 0 0 3.6-1.334s-1.064-.396-1.865-.797z" class="cls-4" transform="translate(-2644.064 -219.893)"/>
                    <path id="Path_1056" d="M2649.006 226.612a3.675 3.675 0 0 1-.486-.032 2.553 2.553 0 0 1-1.781-.817 1.05 1.05 0 0 1-.224-.753.206.206 0 0 1 .107-.149l.593-.311-.568-1.292a2.113 2.113 0 0 1-.708.309.2.2 0 0 1-.116-.012 2.808 2.808 0 0 1-1.174-.846l-.571.082a.2.2 0 0 1-.234-.2 2.916 2.916 0 0 0-.393-1.627 3.235 3.235 0 0 1-.682-1.738.205.205 0 0 1 .344-.151 1.764 1.764 0 0 0 2.235.2 1.979 1.979 0 0 1 1.452-.6.638.638 0 0 1 .233.092.868.868 0 0 1 .671-.143.661.661 0 0 1 .434.491 1.366 1.366 0 0 1-.278 1.253 2.56 2.56 0 0 1-.023.75c2.093 2.484 2.479 2.886 2.55 2.949.78.389 1.822.78 1.833.784a.205.205 0 0 1 .073.337 5.146 5.146 0 0 1-3.287 1.424zm-2.085-1.445c.026.229.232.817 1.653 1.007a4.405 4.405 0 0 0 3.185-1.062c-.38-.15-1.03-.416-1.569-.686a28.382 28.382 0 0 1-2.729-3.121.206.206 0 0 1-.043-.178 2.074 2.074 0 0 0 .034-.747v-.074a.2.2 0 0 1 .06-.156.98.98 0 0 0 .24-.915c-.039-.126-.092-.2-.157-.218-.134-.039-.358.1-.44.169a.209.209 0 0 1-.168.045.206.206 0 0 1-.142-.1.227.227 0 0 0-.134-.057c-.142-.019-.476.023-1.1.524a2 2 0 0 1-2.339.092 3.4 3.4 0 0 0 .518 1.034 2.975 2.975 0 0 1 .461 1.627l.457-.066a.2.2 0 0 1 .186.071 2.477 2.477 0 0 0 1.031.793 1.923 1.923 0 0 0 .682-.367.207.207 0 0 1 .178-.042.2.2 0 0 1 .141.117l.747 1.7a.2.2 0 0 1-.093.264zm3.452-1.109z" transform="translate(-2642.77 -218.599)"/>
                </g>
                <g id="Group_1331" transform="translate(30.564 8.26)">
                    <path id="Path_1057" d="M2671.737 249.085l.22-.2z" class="cls-4" transform="translate(-2671.532 -248.682)"/>
                    <path id="Path_1058" d="M2670.442 248a.205.205 0 0 1-.137-.358l.22-.2a.205.205 0 0 1 .275.3l-.22.2a.2.2 0 0 1-.138.058z" transform="translate(-2670.238 -247.387)"/>
                </g>
            </g>
            <g id="Group_1336" transform="translate(2475.475 189.134)">
                <g id="Group_1333">
                    <path id="Path_1059" d="M2816.668 204.418a.211.211 0 0 1-.052-.007c-1.125-.292-2.279-.542-3.429-.743a42.7 42.7 0 0 0-12.7-.3.205.205 0 0 1-.052-.407 43.109 43.109 0 0 1 12.823.3c1.162.2 2.326.455 3.462.75a.205.205 0 0 1-.051.4z" transform="translate(-2795.327 -202.621)"/>
                    <path id="Path_1060" d="M2764.425 219.552a.205.205 0 0 1-.044-.405 43.1 43.1 0 0 1 12.8-.888c1.176.094 2.359.237 3.517.425a.205.205 0 1 1-.066.4c-1.146-.186-2.318-.328-3.483-.421a42.689 42.689 0 0 0-12.673.879.213.213 0 0 1-.051.01z" transform="translate(-2764.22 -216.002)"/>
                </g>
                <g id="Group_1335" transform="translate(61.465 35.933)">
                    <g id="Group_1334" transform="translate(.084 4.542)">
                        <path id="Path_1061" d="M3226.579 499.83a.2.2 0 0 1-.2-.188l-.074-.867a.205.205 0 0 1 .409-.035l.074.868a.205.205 0 0 1-.187.222z" transform="translate(-3224.649 -498.552)"/>
                        <path id="Path_1062" d="M3228.291 519.875a.205.205 0 0 1-.2-.188l-.074-.868a.205.205 0 1 1 .409-.035l.074.868a.2.2 0 0 1-.187.222z" transform="translate(-3226.127 -515.856)"/>
                        <path id="Path_1063" d="M3214.437 512.815a.205.205 0 0 1-.017-.409l.868-.074a.205.205 0 1 1 .035.409l-.868.074z" transform="translate(-3214.232 -510.446)"/>
                        <path id="Path_1064" d="M3234.482 511.1a.205.205 0 0 1-.017-.409l.868-.074a.205.205 0 1 1 .035.409l-.868.074z" transform="translate(-3231.536 -508.969)"/>
                    </g>
                    <path id="Path_1065" d="M3214.609 467.324a.99.99 0 0 1-.988-.943.99.99 0 1 1 1.036.942zm0-1.57h-.028a.58.58 0 0 0-.552.607.58.58 0 1 0 .579-.607z" transform="translate(-3213.619 -465.343)"/>
                </g>
            </g>
        </g>
    </g>
</svg>
