<svg xmlns="http://www.w3.org/2000/svg" width="19.744" height="19.744" viewBox="0 0 19.744 19.744">
    <defs>
        <style>
            .cls-2{fill:#fff}
        </style>
    </defs>
    <g id="Group_3729" transform="translate(-1018 -428)">
        <g id="Group_3727" transform="translate(1018 428)">
            <path id="Path_4209" fill="#fb7e11" d="M9.872 0A9.872 9.872 0 1 1 0 9.872 9.844 9.844 0 0 1 9.816 0z" transform="translate(0 0)"/>
        </g>
        <path id="increase" d="M6.837 2.278a6.349 6.349 0 0 1-.5 2.439 6.37 6.37 0 0 1-1.37 2.032A6.373 6.373 0 0 1 .446 8.621a.446.446 0 1 1 0-.892 5.464 5.464 0 0 0 3.889-1.611 5.463 5.463 0 0 0 1.61-3.838l.447-.6zm1.606.9a.446.446 0 0 0 .089-.624L6.748.178a.446.446 0 0 0-.713 0L4.251 2.557a.446.446 0 0 0 .713.535l1.427-1.9 1.427 1.9a.446.446 0 0 0 .625.089z" class="cls-2" transform="matrix(0.891, 0.454, -0.454, 0.891, 1027.459, 434.818)"/>
        <path id="increase-2" d="M1.748 6.215A6.262 6.262 0 0 1 8.01 0a.437.437 0 0 1 0 .874 5.388 5.388 0 0 0-5.388 5.339l-.437.587zM.175 5.33a.437.437 0 0 0-.087.612l1.748 2.33a.437.437 0 0 0 .7 0l1.748-2.33a.437.437 0 1 0-.7-.524l-1.4 1.864L.786 5.418a.437.437 0 0 0-.611-.088z" class="cls-2" transform="matrix(0.891, 0.454, -0.454, 0.891, 1024.222, 429.254)"/>
    </g>
</svg>
