<svg xmlns="http://www.w3.org/2000/svg" width="119.576" height="119" viewBox="0 0 119.576 119">
    <defs>
        <style>
            .cls-1{fill:#caddff}.cls-2{fill:#fff}.cls-3{fill:#5479f7}
        </style>
    </defs>
    <g id="Group_1421" transform="translate(-913 -282)">
        <g id="Group_1420">
            <g id="Licensing_contract" transform="translate(-2838.766 149.5)">
                <path id="Path_1186" d="M3757 169.464a57.9 57.9 0 0 0-4.878 30.227 59.892 59.892 0 0 0 21.266 38.912c31.564 25.636 89.345 9.074 97-15.074 1.388-4.381 1-8.606.518-13.806-1.527-16.536-9.573-21.451-14.984-39.01-4.924-15.979-.069-17.777-4.674-24.881-9.989-15.41-38.822-16.186-58.662-8.8-7.628 2.841-26.12 11.545-35.586 32.432z" class="cls-1"/>
                <g id="Group_1409" transform="translate(3758.021 137.183)">
                    <g id="Group_1406">
                        <path id="Path_1187" d="M3908.181 173.663a7.119 7.119 0 0 0-7.135-7.138l-80.691-.024a7.138 7.138 0 0 0-7.138 7.136v91.739l-18.03-.011a9.007 9.007 0 0 0 9.007 9.006h80.731a9.006 9.006 0 0 0 9.006-9.007l-.03-91.7z" class="cls-2" transform="translate(-3795.19 -166.286)"/>
                        <g id="Group_1405" transform="translate(6.523)">
                            <path id="Path_1188" d="M3856.431 860.651a.216.216 0 0 1 0-.432 8.8 8.8 0 0 0 8.792-8.792.216.216 0 1 1 .432 0 9.234 9.234 0 0 1-9.224 9.224z" transform="translate(-3853.946 -752.351)"/>
                            <path id="Path_1189" d="M4479.135 172.72a.216.216 0 0 1-.216-.216 7.359 7.359 0 0 1 7.351-7.351.216.216 0 0 1 0 .432 6.927 6.927 0 0 0-6.918 6.919.216.216 0 0 1-.217.216z" transform="translate(-4386.938 -165.131)"/>
                            <path id="Path_1190" d="M3999.726 198.991a.216.216 0 0 1-.216-.216l-.009-26.4a.216.216 0 0 1 .216-.216h14.057a6.929 6.929 0 0 0-6.916-6.705l-80.691-.024a6.929 6.929 0 0 0-6.922 6.92v8.081a.216.216 0 0 1-.432 0v-8.081a7.361 7.361 0 0 1 7.354-7.352l80.691.024a7.361 7.361 0 0 1 7.352 7.354.216.216 0 0 1-.216.216h-14.06l.009 26.181a.216.216 0 0 1-.217.218z" transform="translate(-3907.525 -165.002)"/>
                            <path id="Path_1191" d="M3864.48 912.576h-7.88l-13.656-.013a9.193 9.193 0 0 1-2.317-.3.216.216 0 1 1 .109-.418 8.773 8.773 0 0 0 2.208.281l21.538.013a.216.216 0 0 1 0 .432z" transform="translate(-3840.464 -804.247)"/>
                            <path id="Path_1192" d="M4005.254 914.174a.216.216 0 0 1 0-.432h49.739a.216.216 0 0 1 0 .432z" transform="translate(-3981.328 -805.872)"/>
                            <path id="Path_1193" d="M4411.313 860.63h-.922a.216.216 0 1 1 0-.432h.922a8.783 8.783 0 0 0 8.756-8.791.216.216 0 1 1 .432 0 9.216 9.216 0 0 1-9.188 9.223z" transform="translate(-4328.097 -752.334)"/>
                        </g>
                    </g>
                    <g id="Group_1407" transform="translate(28.559 27.041)">
                        <path id="Path_1194" d="M4000.058 354.069a1.374 1.374 0 0 0 1.38 1.368h56.371a1.374 1.374 0 0 0 1.38-1.368 1.374 1.374 0 0 0-1.38-1.369h-56.371a1.374 1.374 0 0 0-1.38 1.369z" class="cls-1" transform="translate(-3999.103 -352.7)"/>
                        <path id="Path_1195" d="M4000.058 524.068a1.374 1.374 0 0 0 1.38 1.369h50.262a1.374 1.374 0 0 0 1.38-1.369 1.374 1.374 0 0 0-1.38-1.368h-50.259a1.374 1.374 0 0 0-1.383 1.368z" class="cls-1" transform="translate(-3999.103 -498.209)"/>
                        <path id="Path_1196" d="M3993.427 794.911a2.215 2.215 0 0 0 2.224 2.206h16.194a2.215 2.215 0 0 0 2.224-2.206 2.215 2.215 0 0 0-2.224-2.206h-16.194a2.215 2.215 0 0 0-2.224 2.206z" class="cls-1" transform="translate(-3993.427 -729.315)"/>
                        <path id="Path_1197" d="M4001.437 607.7a1.373 1.373 0 0 0-1.377 1.46 1.407 1.407 0 0 0 1.424 1.277h32.1a1.374 1.374 0 0 0 1.38-1.369 1.374 1.374 0 0 0-1.38-1.369z" class="cls-1" transform="translate(-3999.102 -570.963)"/>
                        <path id="Path_1198" d="M4310.863 607.7h-13.722a1.375 1.375 0 0 0-1.38 1.369 1.375 1.375 0 0 0 1.38 1.369h13.769a1.374 1.374 0 0 0 1.377-1.46 1.407 1.407 0 0 0-1.424-1.278z" class="cls-1" transform="translate(-4252.205 -570.963)"/>
                        <path id="Path_1199" d="M4208.32 564.7h-30.982a1.374 1.374 0 0 0-1.38 1.369 1.374 1.374 0 0 0 1.38 1.369h31.029a1.374 1.374 0 0 0 1.377-1.46 1.407 1.407 0 0 0-1.424-1.278z" class="cls-1" transform="translate(-4149.661 -534.158)"/>
                        <path id="Path_1200" d="M4272.695 649.413h-22.559a1.375 1.375 0 0 0-1.38 1.369 1.375 1.375 0 0 0 1.38 1.369h22.606a1.374 1.374 0 0 0 1.377-1.46 1.408 1.408 0 0 0-1.424-1.278z" class="cls-1" transform="translate(-4211.971 -606.666)"/>
                        <path id="Path_1201" d="M4001.437 564.7a1.373 1.373 0 0 0-1.377 1.46 1.407 1.407 0 0 0 1.424 1.277h15.923a1.374 1.374 0 0 0 1.38-1.369 1.374 1.374 0 0 0-1.38-1.369z" class="cls-1" transform="translate(-3999.102 -534.158)"/>
                        <path id="Path_1202" d="M4001.437 479.7a1.373 1.373 0 0 0-1.377 1.46 1.407 1.407 0 0 0 1.424 1.277h34.855a1.374 1.374 0 0 0 1.38-1.369 1.374 1.374 0 0 0-1.38-1.369z" class="cls-1" transform="translate(-3999.102 -461.403)"/>
                        <path id="Path_1203" d="M4344.521 479.7h-8.057a1.374 1.374 0 0 0-1.38 1.369 1.374 1.374 0 0 0 1.38 1.369h8.1a1.374 1.374 0 0 0 1.377-1.46 1.407 1.407 0 0 0-1.42-1.278z" class="cls-1" transform="translate(-4285.862 -461.403)"/>
                        <path id="Path_1204" d="M4001.437 394.7a1.373 1.373 0 0 0-1.377 1.46 1.407 1.407 0 0 0 1.424 1.277h11.759a1.374 1.374 0 0 0 1.38-1.369 1.374 1.374 0 0 0-1.38-1.369z" class="cls-1" transform="translate(-3999.102 -388.649)"/>
                        <path id="Path_1205" d="M4184.866 394.7h-34.93a1.374 1.374 0 0 0-1.379 1.369 1.374 1.374 0 0 0 1.379 1.369h34.978a1.374 1.374 0 0 0 1.377-1.46 1.408 1.408 0 0 0-1.425-1.278z" class="cls-1" transform="translate(-4126.207 -388.649)"/>
                        <path id="Path_1206" d="M4001.437 437.7a1.373 1.373 0 0 0-1.377 1.46 1.407 1.407 0 0 0 1.424 1.277h14.665a1.374 1.374 0 0 0 1.38-1.369 1.374 1.374 0 0 0-1.38-1.369z" class="cls-1" transform="translate(-3999.102 -425.454)"/>
                        <path id="Path_1207" d="M4211.618 437.7h-30.427a1.374 1.374 0 0 0-1.379 1.369 1.374 1.374 0 0 0 1.379 1.369h30.474a1.374 1.374 0 0 0 1.377-1.46 1.407 1.407 0 0 0-1.424-1.278z" class="cls-1" transform="translate(-4152.96 -425.454)"/>
                    </g>
                    <path id="Path_1208" d="M3989.8 716.566a.32.32 0 0 1-.278-.479l4.2-7.349a1.491 1.491 0 0 1 1.261-.756 1.509 1.509 0 0 1 1.3.683l1.308 2.012a.862.862 0 0 0 1.445 0l1.3-2a1.5 1.5 0 0 1 2.567.08l3.646 6.465a.874.874 0 0 0 .766.438.851.851 0 0 0 .75-.465l4.892-9.423a1.5 1.5 0 0 1 2.676.021l1.285 2.57a.32.32 0 1 1-.572.286l-1.285-2.57a.847.847 0 0 0-.764-.476h-.007a.847.847 0 0 0-.764.465l-4.892 9.423a1.481 1.481 0 0 1-1.307.809 1.465 1.465 0 0 1-1.334-.764l-3.647-6.465a.856.856 0 0 0-.724-.438.847.847 0 0 0-.75.392l-1.3 2a1.5 1.5 0 0 1-2.518 0l-1.308-2.012a.862.862 0 0 0-1.471.042l-4.2 7.349a.32.32 0 0 1-.275.162z" class="cls-3" transform="translate(-3961.493 -627.171)"/>
                    <g id="Group_1408" transform="translate(28.56 6.949)">
                        <path id="Path_1209" d="M4002.534 221.12a4.136 4.136 0 0 1-1.353 2.86 4.614 4.614 0 0 1-3.139 1.027 4.468 4.468 0 0 1-2.412-.649 4.262 4.262 0 0 1-1.609-1.845 6.656 6.656 0 0 1-.59-2.777v-1.07a6.709 6.709 0 0 1 .574-2.856 4.327 4.327 0 0 1 1.648-1.9 4.6 4.6 0 0 1 2.482-.669 4.428 4.428 0 0 1 3.053 1.027 4.29 4.29 0 0 1 1.345 2.907h-1.983a2.831 2.831 0 0 0-.72-1.782 2.38 2.38 0 0 0-1.7-.547 2.323 2.323 0 0 0-1.994.949 4.74 4.74 0 0 0-.712 2.784v1.016a5.03 5.03 0 0 0 .665 2.835 2.206 2.206 0 0 0 1.947.976 2.574 2.574 0 0 0 1.762-.527 2.749 2.749 0 0 0 .748-1.755z" class="cls-3" transform="translate(-3993.431 -213.236)"/>
                        <path id="Path_1210" d="M4065.193 238a5.021 5.021 0 0 1 .5-2.254 3.617 3.617 0 0 1 1.393-1.542 3.924 3.924 0 0 1 2.061-.539 3.718 3.718 0 0 1 2.8 1.109 4.362 4.362 0 0 1 1.16 2.943l.008.448a5.066 5.066 0 0 1-.484 2.25 3.578 3.578 0 0 1-1.385 1.534 3.953 3.953 0 0 1-2.081.543 3.692 3.692 0 0 1-2.884-1.2 4.6 4.6 0 0 1-1.082-3.2zm1.912.165a3.431 3.431 0 0 0 .543 2.057 1.765 1.765 0 0 0 1.511.744 1.744 1.744 0 0 0 1.506-.755 3.786 3.786 0 0 0 .535-2.211 3.387 3.387 0 0 0-.555-2.046 1.87 1.87 0 0 0-2.994-.012 3.717 3.717 0 0 0-.546 2.22z" class="cls-3" transform="translate(-4054.854 -230.718)"/>
                        <path id="Path_1211" d="M4132.968 233.818l.055.984a3.061 3.061 0 0 1 2.478-1.141q2.659 0 2.707 3.045v5.626h-1.908v-5.515a1.75 1.75 0 0 0-.351-1.2 1.471 1.471 0 0 0-1.144-.389 1.842 1.842 0 0 0-1.723 1.046v6.058h-1.912v-8.513z" class="cls-3" transform="translate(-4111.323 -230.718)"/>
                        <path id="Path_1212" d="M4190.512 220.39v2.069h1.5v1.416h-1.5v4.752a1.047 1.047 0 0 0 .193.7.894.894 0 0 0 .689.216 2.936 2.936 0 0 0 .668-.079v1.479a4.709 4.709 0 0 1-1.259.181q-2.2 0-2.2-2.431v-4.823h-1.4v-1.416h1.4v-2.064z" class="cls-3" transform="translate(-4159.284 -219.359)"/>
                        <path id="Path_1213" d="M4235.188 235.565a4.745 4.745 0 0 0-.779-.063 1.753 1.753 0 0 0-1.77 1.007v5.822h-1.912v-8.513h1.826l.047.952a2.154 2.154 0 0 1 1.92-1.109 1.792 1.792 0 0 1 .677.11z" class="cls-3" transform="translate(-4196.541 -230.718)"/>
                        <path id="Path_1214" d="M4271.91 242.332a1.241 1.241 0 1 0-2.455.157 3 3 0 0 1-2.093-.732 2.343 2.343 0 0 1-.811-1.81 2.417 2.417 0 0 1 1.011-2.089 4.9 4.9 0 0 1 2.892-.728h1.172v-.559a1.493 1.493 0 0 0-.37-1.058 1.466 1.466 0 0 0-1.125-.4 1.688 1.688 0 0 0-1.071.326 1.011 1.011 0 0 0-.417.83h-1.912a2.124 2.124 0 0 1 .464-1.31 3.1 3.1 0 0 1 1.263-.956 4.437 4.437 0 0 1 1.782-.346 3.573 3.573 0 0 1 2.384.751 2.681 2.681 0 0 1 .913 2.113v3.84a4.338 4.338 0 0 0 .323 1.833v.134zm-2.1-1.377a2.173 2.173 0 0 0 1.066-.275 1.84 1.84 0 0 0 .751-.74v-1.6h-1.027a2.818 2.818 0 0 0-1.6.37 1.2 1.2 0 0 0-.535 1.047 1.118 1.118 0 0 0 .366.877 1.417 1.417 0 0 0 .979.321z" class="cls-3" transform="translate(-4227.204 -230.718)"/>
                        <path id="Path_1215" d="M4330.318 240.962a1.728 1.728 0 0 0 1.188-.417 1.425 1.425 0 0 0 .5-1.031h1.8a2.807 2.807 0 0 1-.5 1.483 3.254 3.254 0 0 1-1.259 1.09 3.752 3.752 0 0 1-1.715.4 3.63 3.63 0 0 1-2.833-1.157 4.587 4.587 0 0 1-1.046-3.194v-.2a4.514 4.514 0 0 1 1.039-3.112 3.6 3.6 0 0 1 2.833-1.168 3.5 3.5 0 0 1 2.475.885 3.17 3.17 0 0 1 1 2.325h-1.8a1.751 1.751 0 0 0-.5-1.2 1.608 1.608 0 0 0-1.192-.472 1.683 1.683 0 0 0-1.432.673 3.432 3.432 0 0 0-.511 2.042v.307a3.489 3.489 0 0 0 .5 2.065 1.681 1.681 0 0 0 1.453.681z" class="cls-3" transform="translate(-4278.484 -230.718)"/>
                        <path id="Path_1216" d="M4384.444 220.39v2.069h1.5v1.416h-1.5v4.752a1.047 1.047 0 0 0 .192.7.894.894 0 0 0 .689.216 2.939 2.939 0 0 0 .668-.079v1.479a4.715 4.715 0 0 1-1.259.181q-2.2 0-2.2-2.431v-4.823h-1.4v-1.416h1.4v-2.064z" class="cls-3" transform="translate(-4325.276 -219.359)"/>
                    </g>
                </g>
                <g id="Group_1413" transform="translate(3753.442 155.72)">
                    <g id="Group_1410">
                        <path id="Path_1217" d="M3763.653 332.165a.216.216 0 0 1-.216-.208 47.874 47.874 0 0 1 3.774-20.422 55.968 55.968 0 0 1 11.976-17.8.216.216 0 0 1 .307.3c-10.458 10.586-16.153 24.4-15.625 37.9a.216.216 0 0 1-.207.224z" transform="translate(-3763.402 -293.671)"/>
                        <path id="Path_1218" d="M3784.354 386.645a.216.216 0 0 1-.209-.162 42.623 42.623 0 0 1-.157-20.69 48.925 48.925 0 0 1 9.152-18.8.216.216 0 0 1 .341.265c-9.071 11.669-12.321 25.925-8.917 39.114a.216.216 0 0 1-.209.27z" transform="translate(-3779.997 -339.242)"/>
                        <path id="Path_1219" d="M3866.458 329.383a.217.217 0 0 1-.208-.159l-.523-1.907a.216.216 0 0 1 .25-.269c.9.175 1.8.429 1.806.431a.216.216 0 0 1 .1.348l-1.264 1.48a.218.218 0 0 1-.161.076zm-.222-1.841l.322 1.175.778-.911c-.267-.07-.669-.171-1.1-.264z" transform="translate(-3850.978 -322.236)"/>
                    </g>
                    <g id="Group_1411" transform="translate(107.768 42.433)">
                        <path id="Path_1220" d="M4524.57 589.759a.216.216 0 0 1-.216-.216v-1.118a.216.216 0 0 1 .433 0v1.118a.216.216 0 0 1-.217.216z" transform="translate(-4522.494 -588.209)"/>
                        <path id="Path_1221" d="M4524.57 607.831a.216.216 0 0 1-.216-.216V606.5a.216.216 0 0 1 .433 0v1.118a.216.216 0 0 1-.217.213z" transform="translate(-4522.494 -603.677)"/>
                        <path id="Path_1222" d="M4512.772 601.556h-1.117a.216.216 0 1 1 0-.432h1.117a.216.216 0 1 1 0 .432z" transform="translate(-4511.439 -599.263)"/>
                        <path id="Path_1223" d="M4530.845 601.556h-1.118a.216.216 0 1 1 0-.432h1.118a.216.216 0 0 1 0 .432z" transform="translate(-4526.908 -599.263)"/>
                    </g>
                    <g id="Group_1412" transform="translate(105.622 59.432)">
                        <path id="Path_1224" d="M4506.569 738a.216.216 0 0 1-.148-.373c5.383-5.074 8.366-10.843 8.866-17.148a.216.216 0 1 1 .431.034c-.509 6.415-3.536 12.278-9 17.428a.216.216 0 0 1-.149.059z" transform="translate(-4504.94 -718.252)"/>
                        <path id="Path_1225" d="M4496.762 724.23a.216.216 0 0 1-.154-.368c5.2-5.265 7.967-11.139 8.239-17.458a.216.216 0 1 1 .432.019c-.276 6.429-3.089 12.4-8.363 17.743a.214.214 0 0 1-.154.064z" transform="translate(-4496.545 -706.198)"/>
                    </g>
                </g>
                <g id="Group_1417" transform="translate(3813.198 182.717)">
                    <g id="Group_1414" transform="translate(2.291 6.228)">
                        <path id="Path_1226" d="M4233.307 525.79c-.626 14.062-8.25 20.415-15.874 25.134l.363 2a30.513 30.513 0 0 1 15.429 26.743l-37.643-.477c.25-9.748 9.084-22.043 15.5-26.085l.182-2.178c-10.165-5.99-14.521-14.158-15.618-25.1z" class="cls-2" transform="translate(-4195.366 -525.574)"/>
                        <path id="Path_1227" d="M4231.941 578.6l-37.643-.477a.217.217 0 0 1-.213-.222c.115-4.478 2.058-9.909 5.471-15.292 3-4.74 6.75-8.809 10.037-10.912l.161-1.936a30.98 30.98 0 0 1-11.168-10.7 34.228 34.228 0 0 1-4.438-14.5.216.216 0 0 1 .215-.238l37.663-.034a.216.216 0 0 1 .156.067.213.213 0 0 1 .06.159c-.617 13.862-7.966 20.331-15.85 25.231l.319 1.751a30.87 30.87 0 0 1 10.681 10.22 30.079 30.079 0 0 1 4.769 16.666.216.216 0 0 1-.22.217zm-37.419-.906l37.206.471a30.247 30.247 0 0 0-15.32-26.336.215.215 0 0 1-.108-.15l-.363-2a.215.215 0 0 1 .1-.222c7.787-4.82 15.079-11.155 15.76-24.734l-37.2.034c1.2 11.476 5.988 19.1 15.488 24.7a.216.216 0 0 1 .106.2l-.182 2.178a.216.216 0 0 1-.1.165c-3.209 2.022-7.038 6.174-9.993 10.836-3.316 5.232-5.225 10.496-5.394 14.854z" transform="translate(-4194.083 -524.29)"/>
                    </g>
                    <g id="Group_1415">
                        <rect id="Rectangle_1058" width="42.293" height="6.262" class="cls-3" rx="3.131" transform="rotate(180 21.255 3.239)"/>
                        <path id="Path_1228" d="M4218.2 487.757h-37.323a2.7 2.7 0 0 1-2.7-2.7v-1.292a2.7 2.7 0 0 1 2.7-2.7h37.323a2.7 2.7 0 0 1 2.7 2.7v1.292a2.7 2.7 0 0 1-2.7 2.7zm-37.323-6.262a2.271 2.271 0 0 0-2.269 2.269v1.292a2.271 2.271 0 0 0 2.269 2.269h37.323a2.272 2.272 0 0 0 2.27-2.269v-1.292a2.272 2.272 0 0 0-2.27-2.269z" transform="translate(-4178.18 -481.063)"/>
                    </g>
                    <path id="Path_1229" fill="#99b9ff" d="M4233.979 612.057H4207.3c1.452 4.9 4.356 8.35 11.617 12.162l.182 22.326-15.792.182c-.457 2.257-1.265 4.683-1.089 6.9l35.94-.363a21.7 21.7 0 0 0-1.089-6.716h-16.159l.363-22.871c6.078-1.377 10.95-7.796 12.706-11.62z" transform="translate(-4198.73 -593.185)"/>
                    <g id="Group_1416" transform="translate(.545 59.625)">
                        <rect id="Rectangle_1059" width="41.386" height="6.262" class="cls-3" rx="3.131" transform="rotate(180 20.801 3.239)"/>
                        <path id="Path_1230" d="M4221.957 901.627h-38.174a1.824 1.824 0 0 1-1.822-1.822v-3.05a1.824 1.824 0 0 1 1.822-1.822h38.174a1.824 1.824 0 0 1 1.822 1.822v3.05a1.824 1.824 0 0 1-1.822 1.822zm-38.174-6.262a1.391 1.391 0 0 0-1.39 1.39v3.05a1.391 1.391 0 0 0 1.39 1.39h38.174a1.392 1.392 0 0 0 1.39-1.39v-3.05a1.391 1.391 0 0 0-1.39-1.39z" transform="translate(-4181.961 -894.933)"/>
                    </g>
                </g>
            </g>
        </g>
    </g>
</svg>
