<?xml version="1.0" encoding="utf-8"?>
<!-- Generator: Adobe Illustrator 17.0.0, SVG Export Plug-In . SVG Version: 6.00 Build 0)  -->
<!DOCTYPE svg PUBLIC "-//W3C//DTD SVG 1.1//EN" "http://www.w3.org/Graphics/SVG/1.1/DTD/svg11.dtd">
<svg version="1.1" id="Layer_1" xmlns="http://www.w3.org/2000/svg" xmlns:xlink="http://www.w3.org/1999/xlink" x="0px" y="0px"
	 width="512px" height="512px" viewBox="0 0 512 512" enable-background="new 0 0 512 512" xml:space="preserve">
<path fill="#FFFFFF" d="M369.164,174.77c7.813,7.813,7.813,20.477,0,28.285L234.992,337.23c-7.813,7.809-20.473,7.809-28.285,0
	l-63.871-63.875c-7.813-7.809-7.813-20.473,0-28.281c7.809-7.813,20.473-7.813,28.281,0l49.73,49.73L340.879,174.77
	C348.691,166.961,361.355,166.961,369.164,174.77z M512,256c0,141.504-114.516,256-256,256C114.496,512,0,397.484,0,256
	C0,114.496,114.516,0,256,0C397.504,0,512,114.516,512,256z M472,256c0-119.395-96.621-216-216-216C136.605,40,40,136.621,40,256
	c0,119.395,96.621,216,216,216C375.395,472,472,375.379,472,256z"/>
</svg>
