<svg xmlns="http://www.w3.org/2000/svg" width="89" height="89" viewBox="0 0 89 89">
    <defs>
        <clipPath id="9kj611wr1a">
            <path data-name="Rectangle 3393" transform="translate(.211)" style="fill:none" d="M0 0h89v89H0z"/>
        </clipPath>
    </defs>
    <g data-name="Group 4933">
        <g data-name="Group 4932" transform="translate(-.211)" style="clip-path:url(#9kj611wr1a)">
            <path data-name="Path 5810" d="M4.108 43.844c.82-.946 1.57-1.965 2.471-2.825a70.281 70.281 0 0 1 20.119-13.745 43.067 43.067 0 0 1 19.21-4.109 45.8 45.8 0 0 1 18.112 4.8 71.712 71.712 0 0 1 19.513 13.946 21.909 21.909 0 0 1 1.568 1.937v1.263c-.726.852-1.386 1.774-2.189 2.545a68.138 68.138 0 0 1-24.21 15.539 40.122 40.122 0 0 1-15.953 2.57 46.058 46.058 0 0 1-16.841-4.444 71.088 71.088 0 0 1-20.944-15.01 9.261 9.261 0 0 1-.856-1.2v-1.266m57.106.608a16.609 16.609 0 1 0-16.566 16.633 16.634 16.634 0 0 0 16.567-16.634m1.167-11.913q7.224 11.941-.027 23.926c4.237-1.621 15.4-9.589 16.917-12.049-3.664-3.93-13.542-10.878-16.89-11.877m-35.707.068a65.38 65.38 0 0 0-16.792 11.82c2.841 3.422 14.029 11.3 16.926 11.957-4.758-7.876-4.782-15.781-.135-23.777"/>
            <path data-name="Path 5811" d="M16.608 3.98a2 2 0 0 0 .241.169 2.4 2.4 0 0 1 1.446 2.688 2.4 2.4 0 0 1-2.487 1.886c-2.077.01-4.155 0-6.232 0h-.722V15.445a2.466 2.466 0 0 1-1.888 2.719c-1.117.262-2.085-.3-2.742-1.594-.016-.04-.077-.062-.116-.09V5.72a3.62 3.62 0 0 1 1.74-1.74z"/>
            <path data-name="Path 5812" d="M85.106 16.48a1.92 1.92 0 0 0-.169.24 2.373 2.373 0 0 1-4.574-1.034c-.009-2.078 0-4.155 0-6.232v-.728h-6.72a2.469 2.469 0 0 1-2.72-1.888c-.261-1.12.3-2.088 1.6-2.741.04-.02.063-.076.094-.116h10.757a3.63 3.63 0 0 1 1.74 1.74z"/>
            <path data-name="Path 5813" d="M4.108 72.477a2.052 2.052 0 0 0 .169-.242 2.4 2.4 0 0 1 2.689-1.446 2.4 2.4 0 0 1 1.885 2.483c.01 2.077 0 4.155 0 6.233v.724h6.881a2.374 2.374 0 0 1 1.038 4.6.841.841 0 0 0-.165.147H5.848a3.647 3.647 0 0 1-1.74-1.742V72.477"/>
            <path data-name="Path 5814" d="M72.604 84.978c-.15-.093-.3-.192-.451-.278a2.359 2.359 0 0 1 1.087-4.461c2.051-.021 4.1-.007 6.154-.007h.961V73.51a2.465 2.465 0 0 1 1.888-2.719c1.119-.26 2.088.307 2.741 1.6.02.04.076.062.116.093v10.757a3.65 3.65 0 0 1-1.74 1.74z"/>
            <path data-name="Path 5822" d="M34.323 44.416a10.282 10.282 0 1 1 10.182 10.341 10.308 10.308 0 0 1-10.182-10.341m10.286 5.594a5.534 5.534 0 1 0-5.539-5.53 5.55 5.55 0 0 0 5.539 5.531"/>
            <path data-name="Path 5823" d="M171.3 176.829a5.534 5.534 0 1 1 5.529-5.539 5.551 5.551 0 0 1-5.529 5.539" transform="translate(-126.691 -126.818)" style="fill:#fff"/>
            <ellipse data-name="Ellipse 659" cx="12.5" cy="13" rx="12.5" ry="13" transform="translate(32.211 32)"/>
        </g>
    </g>
</svg>
