<svg xmlns="http://www.w3.org/2000/svg" xmlns:xlink="http://www.w3.org/1999/xlink" width="51" height="54" viewBox="0 0 51 54">
  <defs>
    <clipPath id="clip-Artboard_35">
      <rect width="51" height="54"/>
    </clipPath>
  </defs>
  <g id="Artboard_35" data-name="Artboard – 35" clip-path="url(#clip-Artboard_35)">
    <rect width="51" height="54" fill="rgba(255,255,255,0)"/>
    <g id="verified-03" transform="translate(2.431 5.678)">
      <path id="Path_20224" data-name="Path 20224" d="M34.468,4.515a.59.59,0,0,1,.313.229Q42.044,12,49.3,19.262a7.147,7.147,0,0,1,.024,10.01Q41.315,37.3,33.284,45.312a7.139,7.139,0,0,1-10.09-.1q-7.92-7.9-15.817-15.815a7.153,7.153,0,0,1,.011-10.245q7.2-7.2,14.395-14.4A2.747,2.747,0,0,0,22,4.47c.157.136.1.259.1.364,0,1.564,0,3.128.007,4.693a.7.7,0,0,1-.227.552Q16.813,15.134,11.753,20.2a5.639,5.639,0,0,0-.009,8.142q6.247,6.25,12.5,12.5a5.63,5.63,0,0,0,8.089.006L44.856,28.324a5.615,5.615,0,0,0,.011-8.08Q39.789,15.169,34.71,10.095a.741.741,0,0,1-.248-.58c.011-1.656.006-3.311.006-5Z" transform="translate(-5.222 -4.47)" fill="#205081"/>
      <path id="Path_20225" data-name="Path 20225" d="M136.72,75.463c.962,0,1.926.022,2.888,0a5.331,5.331,0,0,1,5.528,5.244A6.079,6.079,0,0,1,143.89,85a4.537,4.537,0,0,1-2.985,1.613,29.376,29.376,0,0,1-4.152-.007c-.973,0-.923-.074-.9.88.024.9.076,1.8.136,2.707.02.313-.084.444-.393.406a9.516,9.516,0,0,0-2.209-.034c-.324.037-.434-.123-.434-.434,0-1.974.138-3.943.188-5.916.045-1.751-.009-3.5-.075-5.25-.037-1.009-.11-2.015-.177-3.024-.02-.313.1-.41.406-.406,1.141.013,2.28.006,3.421.006v-.069Zm1.225,9.04v-.021c.507,0,1.012.019,1.518,0a2.755,2.755,0,0,0,2.59-1.635,4.316,4.316,0,0,0,.289-2.345,3.058,3.058,0,0,0-3.145-2.847c-.977-.013-1.946.1-2.918.149-.367.019-.528.164-.49.539.022.22-.006.446-.006.669,0,1.691-.043,3.382.054,5.073.013.218.093.291.283.3.61.039,1.217.078,1.827.119Z" transform="translate(-109.087 -62.223)" fill="#205081"/>
      <path id="Path_20226" data-name="Path 20226" d="M64.221,117.09a14.32,14.32,0,0,0,.272,1.684A4.137,4.137,0,0,0,67.581,122a4.35,4.35,0,0,0,3.992-1.161c.289-.257.571-.522.873-.8a3.164,3.164,0,0,1,.649.742c.2.257.375.542.589.789a.483.483,0,0,1-.034.733,6.618,6.618,0,0,1-5.66,2.4,6.88,6.88,0,0,1-6.329-6.018,1.149,1.149,0,0,1,0-.14.507.507,0,0,1,.27-.548,10.061,10.061,0,0,1,2.295-.908Z" transform="translate(-51.134 -96.094)" fill="#205081"/>
      <path id="Path_20227" data-name="Path 20227" d="M63.611,82.562c-.811.185-.746.976-1.484,1.349-.244.123-1.019-1.034-1.013-.8a2.972,2.972,0,0,1-.125-.958.973.973,0,0,0,.142-.39,17.066,17.066,0,0,1,1-3.448c.925-1.853.878-2.354,2.631-3.508.082-.054,1.683-.955,1.593-1.106a7.377,7.377,0,0,1,4.832.559,6.556,6.556,0,0,1,1.332,1.153,14.205,14.205,0,0,0-2.158,1.349,4.35,4.35,0,0,0-6.468,2.731,14.235,14.235,0,0,0-.279,3.069Z" transform="translate(-50.592 -60.656)" fill="#205081"/>
      <path id="Path_20228" data-name="Path 20228" d="M66.209,74.43c.089.151-.048.173-.129.228a11.438,11.438,0,0,0-3.913,4.6,15.717,15.717,0,0,0-1.178,3.229,1,1,0,0,1-.142.39,8.178,8.178,0,0,1,2.573-7.053A5.654,5.654,0,0,1,66.209,74.43Z" transform="translate(-50.448 -61.387)" fill="#205081"/>
      <path id="Path_20229" data-name="Path 20229" d="M109.76,83.467a16.516,16.516,0,0,1,2.269-1.557.081.081,0,0,1,.032.013c1.078,1.074.93.962.287,2.077-.145.254-.31.5-.477.736-.242.345-.3.36-.591.073A14.846,14.846,0,0,0,109.76,83.467Z" transform="translate(-90.271 -67.473)" fill="#205081"/>
    </g>
  </g>
</svg>
