<?xml version="1.0" encoding="utf-8"?>
<!-- Generator: Adobe Illustrator 19.0.0, SVG Export Plug-In . SVG Version: 6.00 Build 0)  -->
<svg version="1.1" id="Capa_1" xmlns="http://www.w3.org/2000/svg" xmlns:xlink="http://www.w3.org/1999/xlink" x="0px" y="0px"
	 viewBox="66 -221 512 512" style="enable-background:new 66 -221 512 512;" xml:space="preserve">
<style type="text/css">
	.st0{stroke:#000000;stroke-width:11;stroke-miterlimit:10;}
</style>
<g>
	<g>
		<path d="M435.7,79.7c-21.5-21.5-47.1-37.4-75.1-47.1c29.9-20.6,49.6-55.1,49.6-94.1c0-63-51.2-114.2-114.2-114.2
			S181.8-124.4,181.8-61.4c0,39,19.7,73.5,49.6,94.1c-27.9,9.6-53.5,25.6-75.1,47.1C119,117,98.5,166.6,98.5,219.4h30.9
			c0-91.9,74.8-166.6,166.6-166.6s166.6,74.7,166.6,166.6h30.9C493.5,166.6,473,117,435.7,79.7z M296,21.9
			c-45.9,0-83.3-37.4-83.3-83.3s37.4-83.3,83.3-83.3s83.3,37.4,83.3,83.3S341.9,21.9,296,21.9z"/>
	</g>
</g>
<path class="st0" d="M542.3,8.5h-47.1v-47.1c0-3.2-2.6-5.9-5.9-5.9c-3.2,0-5.9,2.6-5.9,5.9V8.5h-47.1c-3.2,0-5.9,2.6-5.9,5.9
	c0,3.2,2.6,5.9,5.9,5.9h47.2v47.1c0,3.2,2.6,5.9,5.9,5.9c3.2,0,5.9-2.6,5.9-5.9V20.2h47.1c3.2,0,5.9-2.6,5.9-5.9
	C548.2,11.1,545.6,8.5,542.3,8.5z"/>
</svg>
