<?xml version="1.0" encoding="utf-8"?>
<!-- Generator: Adobe Illustrator 19.0.0, SVG Export Plug-In . SVG Version: 6.00 Build 0)  -->
<svg version="1.1" id="Capa_1" xmlns="http://www.w3.org/2000/svg" xmlns:xlink="http://www.w3.org/1999/xlink" x="0px" y="0px"
	 viewBox="66 -221 512 512" style="enable-background:new 66 -221 512 512;" xml:space="preserve">
<style type="text/css">
	.st0{fill:#FFFFFF;}
</style>
<g>
	<g>
		<path d="M518-181h-24v-40h-40v40H190v-40h-40v40h-24c-33.1,0-60,26.9-60,60v352c0,33.1,26.9,60,60,60h392c33.1,0,60-26.9,60-60
			v-352C578-154.1,551.1-181,518-181z M538,231c0,11-9,20-20,20H126c-11,0-20-9-20-20V-33h432V231z M538-73H106v-48c0-11,9-20,20-20
			h24v40h40v-40h264v40h40v-40h24c11,0,20,9,20,20V-73z"/>
	</g>
</g>
<g>
	<g>
		<rect x="142" y="9" width="40" height="40"/>
	</g>
</g>
<g>
	<g>
		<rect x="222" y="9" width="40" height="40"/>
	</g>
</g>
<g>
	<g>
		<rect x="302" y="9" width="40" height="40"/>
	</g>
</g>
<g>
	<g>
		<rect x="382" y="9" width="40" height="40"/>
	</g>
</g>
<g>
	<g>
		<rect x="462" y="9" width="40" height="40"/>
	</g>
</g>
<g>
	<g>
		<rect x="142" y="89" width="40" height="40"/>
	</g>
</g>
<g>
	<g>
		<rect x="222" y="89" width="40" height="40"/>
	</g>
</g>
<g>
	<g>
		<rect x="302" y="89" width="40" height="40"/>
	</g>
</g>
<g>
	<g>
		<rect x="382" y="89" width="40" height="40"/>
	</g>
</g>
<g>
	<g>
		<rect x="142" y="169" width="40" height="40"/>
	</g>
</g>
<g>
	<g>
		<rect x="222" y="169" width="40" height="40"/>
	</g>
</g>
<g>
	<g>
		<rect x="302" y="169" width="40" height="40"/>
	</g>
</g>
<g>
	<g>
		<rect x="382" y="169" width="40" height="40"/>
	</g>
</g>
<g>
	<g>
		<rect x="462" y="89" width="40" height="40"/>
	</g>
</g>
<circle cx="491.1" cy="194.1" r="83"/>
<g>
	<g>
		<path class="st0" d="M538.1,189.3h-40.7v-40.7c0-2.2-1.8-4.1-4.1-4.1s-4.1,1.8-4.1,4.1v40.7h-40.7c-2.2,0-4.1,1.8-4.1,4.1
			c0,2.2,1.8,4.1,4.1,4.1h40.7v40.7c0,2.2,1.8,4.1,4.1,4.1s4.1-1.8,4.1-4.1v-40.7h40.7c2.2,0,4.1-1.8,4.1-4.1
			C542.2,191.1,540.4,189.3,538.1,189.3z"/>
	</g>
</g>
</svg>
