<svg xmlns="http://www.w3.org/2000/svg" width="31" height="31" viewBox="0 0 31 31">
    <defs>
        <style>
            .cls-2{fill:#8091b8}
        </style>
    </defs>
    <g id="Group_1300" transform="translate(-1195 -163)">
        <g id="Group_1299" transform="translate(-6164.913 794.087)">
            <g id="dropbox" transform="translate(7359.913 -631.087)">
                <path id="Path_694" fill="#f5f5f5" d="M15.5 0A15.5 15.5 0 1 1 0 15.5 15.5 15.5 0 0 1 15.5 0z"/>
            </g>
        </g>
        <g id="trash_3_" transform="translate(1156.001 171)">
            <path id="Path_964" d="M59.116 1.892h-2.6v-.473A1.421 1.421 0 0 0 55.1 0h-1.9a1.421 1.421 0 0 0-1.419 1.419v.473h-2.6A1.184 1.184 0 0 0 48 3.075V4.73a.473.473 0 0 0 .473.473h.259l.409 8.582a1.417 1.417 0 0 0 1.417 1.352h7.183a1.417 1.417 0 0 0 1.417-1.352l.409-8.585h.258a.473.473 0 0 0 .475-.47V3.075a1.184 1.184 0 0 0-1.184-1.183zm-6.386-.473a.474.474 0 0 1 .47-.473h1.9a.474.474 0 0 1 .473.473v.473H52.73zm-3.784 1.656a.237.237 0 0 1 .237-.237h9.933a.237.237 0 0 1 .237.237v1.182H48.946zm9.267 10.665a.472.472 0 0 1-.472.451h-7.183a.472.472 0 0 1-.472-.451l-.407-8.54h8.941z" class="cls-2"/>
            <path id="Path_965" d="M240.473 215.1a.473.473 0 0 0 .473-.473v-6.149a.473.473 0 0 0-.946 0v6.149a.473.473 0 0 0 .473.473z" class="cls-2" transform="translate(-186.324 -201.851)"/>
            <path id="Path_966" d="M320.473 215.1a.473.473 0 0 0 .473-.473v-6.149a.473.473 0 1 0-.946 0v6.149a.473.473 0 0 0 .473.473z" class="cls-2" transform="translate(-263.959 -201.851)"/>
            <path id="Path_967" d="M160.473 215.1a.473.473 0 0 0 .473-.473v-6.149a.473.473 0 0 0-.946 0v6.149a.473.473 0 0 0 .473.473z" class="cls-2" transform="translate(-108.689 -201.851)"/>
        </g>
    </g>
</svg>
