<svg xmlns="http://www.w3.org/2000/svg" width="27.409" height="27.409" viewBox="0 0 27.409 27.409">
    <g>
        <g>
            <g>
                <g transform="translate(-1450 -343) translate(49.75) translate(1400.25 343)">
                    <ellipse cx="13.704" cy="13.705" fill="#717171" rx="13.704" ry="13.705"/>
                </g>
            </g>
        </g>
        <path fill="#fff" d="M13.585 22.436l-.253 1.24a.942.942 0 0 1-.923.754H1.48a.942.942 0 0 1-.923-1.13l1.051-5.151a.994.994 0 0 1 .67-.747l.073-.02.07-.014h.022l.055-.007H14.04a.474.474 0 0 1 .474.46.48.48 0 0 1-.01.109zm0-5.817a.835.835 0 0 0-.829-.746h-.38v.746zM.89 18a1.735 1.735 0 0 1 1.388-1.355v-2.017h-1.3a.979.979 0 0 0-.978.978v6.756zm10.749-5.974v4.592H3.011v-4.591a.412.412 0 0 1 .411-.411h7.805a.412.412 0 0 1 .411.411zm-1.055 3.245a.366.366 0 0 0-.366-.366H4.431a.366.366 0 0 0 0 .733h5.786a.366.366 0 0 0 .367-.366zm0-1.892a.366.366 0 0 0-.366-.366H4.431a.366.366 0 1 0 0 .733h5.786a.366.366 0 0 0 .367-.366z" transform="translate(-1450 -343) translate(1457 338.383)"/>
    </g>
</svg>
