<svg xmlns="http://www.w3.org/2000/svg" width="23.525" height="19.682" viewBox="0 0 23.525 19.682">
    <defs>
        <style>
            .cls-1{fill:#8091b8}
        </style>
    </defs>
    <g id="XMLID_30_" transform="translate(.001)">
        <path id="XMLID_32_" d="M131.927 79.556h10.111a8.762 8.762 0 0 0-2.615 2.488h-7.5a.638.638 0 0 0-.623.651v11.9a.638.638 0 0 0 .623.651H143.3a.638.638 0 0 0 .623-.651v-7.929a5.424 5.424 0 0 1 .9-.385 2.377 2.377 0 0 0 1.12 1.385 2.21 2.21 0 0 0 .36.142v6.786a3.077 3.077 0 0 1-3 3.139h-11.376a3.077 3.077 0 0 1-3-3.139V82.7a3.076 3.076 0 0 1 3-3.144z" class="cls-1" transform="translate(-128.926 -78.051)"/>
        <path id="XMLID_31_" d="M6.938 55.683a7.038 7.038 0 0 0-5.828 3.433.6.6 0 0 1-.508.292.578.578 0 0 1-.165-.024.627.627 0 0 1-.438-.6v-.075a7.283 7.283 0 0 1 6.937-7.426v-1.176a.743.743 0 0 1 .376-.652.678.678 0 0 1 .726.044l4.776 3.419a.676.676 0 0 1 0 1.085l-4.771 3.462a.68.68 0 0 1-.728.048.743.743 0 0 1-.377-.653z" class="cls-1" transform="translate(10.436 -49.37)"/>
    </g>
</svg>
