<?xml version="1.0" encoding="utf-8"?>
<!-- Generator: Adobe Illustrator 17.0.0, SVG Export Plug-In . SVG Version: 6.00 Build 0)  -->
<!DOCTYPE svg PUBLIC "-//W3C//DTD SVG 1.1//EN" "http://www.w3.org/Graphics/SVG/1.1/DTD/svg11.dtd">
<svg version="1.1" id="Capa_1" xmlns="http://www.w3.org/2000/svg" xmlns:xlink="http://www.w3.org/1999/xlink" x="0px" y="0px"
	 width="612px" height="792px" viewBox="0 0 612 792" enable-background="new 0 0 612 792" xml:space="preserve">
<g>
	<g>
		<g>
			<path d="M309.908,307.818c-46.04,0-83.455,37.415-83.455,83.455s37.415,83.455,83.455,83.455s83.455-37.415,83.455-83.455
				S355.947,307.818,309.908,307.818z"/>
			<path d="M309.908,182.636c-139.091,0-257.875,86.514-306.001,208.637c48.126,122.121,166.909,208.637,306.001,208.637
				c139.23,0,257.875-86.515,306.001-208.637C567.783,269.15,449.138,182.636,309.908,182.636z M309.908,530.362
				c-76.778,0-139.091-62.313-139.091-139.091s62.313-139.09,139.091-139.09S449,314.494,449,391.272
				S386.686,530.362,309.908,530.362z"/>
		</g>
	</g>
</g>
<line fill="none" stroke="#000000" stroke-width="34" stroke-linecap="round" stroke-miterlimit="10" x1="551.908" y1="86.272" x2="67.908" y2="696.272"/>
</svg>
