<?xml version="1.0" encoding="utf-8"?>
<!-- Generator: Adobe Illustrator 26.2.1, SVG Export Plug-In . SVG Version: 6.00 Build 0)  -->
<svg version="1.1" id="a" xmlns="http://www.w3.org/2000/svg" xmlns:xlink="http://www.w3.org/1999/xlink" x="0px" y="0px"
	 viewBox="0 0 420 333" style="enable-background:new 0 0 420 333;" xml:space="preserve">
<style type="text/css">
	.st0{fill:#7F90B6;}
</style>
<path class="st0" d="M23,165c3-6.5,8.1-8.9,15.1-8.3c3.1,0.3,6.2,0.1,9.3,0.1c4.7-11.4,12.7-19.1,24.7-21.7
	c15.6-3.4,30.7,4.2,37.5,18.7c1.1,2.3,2.2,3,4.7,3c15.4-0.1,30.7-0.1,46.3-0.1c6.5-14.6,17.4-23.1,33.8-22.3
	c14.5,0.7,24.2,8.9,29.9,22.3c15.7,0,31.4,0.1,47.2-0.1c1,0,2.4-1.7,3-2.9c10.5-21.6,38.7-26.2,54.9-8.7c3.1,3.3,5.2,7.5,8.1,11.7
	h30.8c-1.3-1.4-2.3-2.4-3.2-3.5c-4.1-4.8-4-11.4,0.3-15.6c4.3-4.3,11-4.5,15.6-0.2c7.8,7.5,15.5,15.3,23.1,23.1c1.3,1.3,2,3,3,4.6v6
	c-3,3.6-5.9,7.3-9.1,10.7c-5.2,5.4-10.5,10.7-15.9,15.9c-5.2,5.2-12,5.5-16.7,0.8c-4.7-4.6-4.4-11.3,0.7-16.7
	c0.6-0.6,1.1-1.3,2.1-2.3h-31.5c-2.8,7-7.2,12.9-13.8,17c-17.2,10.8-39.5,4.2-48.2-14.3c-1.1-2.2-2.1-3.1-4.6-3.1
	c-15.2,0.1-30.5,0.1-45.6,0.1c-6.3,14.2-16.6,22.5-32.2,22.4c-15.2-0.1-25.4-8.4-31.5-22.4c-13.8,0-27.6,0.2-41.5-0.1
	c-5.4-0.1-8.6,0.9-11.5,6.3c-6.3,11.4-16.9,16.8-29.9,16.2c-12.9-0.6-22.3-7.1-28.4-18.5c-0.7-1.2-1.2-2.5-1.8-3.9
	c-3.1,0-6.2-0.2-9.3,0.1c-7,0.6-12.1-1.8-15.1-8.3L23,165L23,165z"/>
<path class="st0" d="M23,30c2.9-6.3,7.9-8.4,14.7-8.4c28.1,0.2,56.2,0.1,84.4,0.1c9.1,0,13.4,4.2,13.4,13.2c0,13.8,0,27.5,0,41.2
	c0,8.6-4.4,13-12.8,13c-5.4,0-11.4-1.4-15.9,0.5c-4.7,2-8,7.3-11.9,11.1c-2.2,2.2-4.4,4.4-6.6,6.6c-5.8,5.6-12.1,5.7-17.8,0
	c-5.4-5.4-10.7-10.9-16.2-16.1c-1.3-1.2-3.4-1.9-5.2-2.1c-3.6-0.3-7.3-0.3-10.9,0C31.1,89.9,26,87.5,23,81L23,30L23,30z"/>
<path class="st0" d="M192.3,314.2c-14.4,0-28.7,0-43.1,0c-8.5,0-12.9-4.4-12.9-13c0-14,0-28,0-42c0-8,4.5-12.5,12.5-12.6
	c5.5,0,11.6,1.4,16.3-0.6c4.8-2.1,8.2-7.4,12.2-11.4c2.1-2.1,4.2-4.3,6.4-6.4c5.7-5.6,12-5.6,17.8,0.1c5.4,5.3,10.7,10.9,16.2,16.1
	c1.3,1.2,3.4,2,5.1,2.1c4.7,0.3,9.5,0,14.2,0.1c6.9,0.1,11.6,4.7,11.7,11.5c0.1,14.7,0.1,29.5,0,44.2c0,7-4.8,11.7-11.9,11.7
	C222,314.3,207.1,314.2,192.3,314.2L192.3,314.2z"/>
<path class="st0" d="M305.4,21.7c14.4,0,28.7,0,43.1,0c8.3,0,12.8,4.5,12.8,12.7c0,14.1,0,28.2,0,42.4c0,7.8-4.6,12.3-12.3,12.4
	c-0.2,0-0.5,0-0.8,0c-5.4,0.1-11.3-1.2-15.9,0.7c-4.5,1.8-7.6,6.9-11.4,10.6c-2.4,2.4-4.7,4.8-7.2,7.1c-5.6,5.4-11.9,5.5-17.5,0
	c-5.5-5.4-10.9-11-16.5-16.3c-1.2-1.1-3.2-1.9-4.8-2c-4.7-0.3-9.5-0.1-14.2-0.1c-7.2-0.1-11.9-4.8-11.9-12.1
	c-0.1-14.5-0.1-29,0-43.5c0-7.3,4.7-11.9,12-11.9C275.6,21.7,290.5,21.7,305.4,21.7z"/>
</svg>
