<?xml version="1.0" encoding="utf-8"?>
<!-- Generator: Adobe Illustrator 19.0.0, SVG Export Plug-In . SVG Version: 6.00 Build 0)  -->
<svg version="1.1" id="Capa_1" xmlns="http://www.w3.org/2000/svg" xmlns:xlink="http://www.w3.org/1999/xlink" x="0px" y="0px"
	 viewBox="66 -221 512 512" style="enable-background:new 66 -221 512 512;" xml:space="preserve">
<g>
	<g>
		<path d="M421.2,90.2c-21.5-21.5-47.1-37.4-75.1-47.1C376,22.5,395.7-12,395.7-51c0-63-51.2-114.2-114.2-114.2
			S167.3-113.9,167.3-50.9c0,39,19.7,73.5,49.6,94.1c-27.9,9.6-53.5,25.6-75.1,47.1C104.5,127.5,84,177.1,84,229.9h30.9
			c0-91.9,74.8-166.6,166.6-166.6S448.1,138,448.1,229.9H479C479,177.1,458.5,127.5,421.2,90.2z M281.5,32.4
			c-45.9,0-83.3-37.4-83.3-83.3s37.4-83.3,83.3-83.3s83.3,37.4,83.3,83.3S327.4,32.4,281.5,32.4z"/>
	</g>
</g>
<g>
	<g>
		<g>
			<polygon points="425.5,20.7 425.5,49.4 454.2,49.4 539.1,-35.4 510.3,-64.1 			"/>
			<path d="M561.2-68.4l-17.9-17.9c-3-3-7.9-3-10.8,0l-14,14l28.7,28.7l14-14C564.2-60.5,564.2-65.4,561.2-68.4z"/>
		</g>
	</g>
</g>
</svg>
