<?xml version="1.0" encoding="utf-8"?>
<!-- Generator: Adobe Illustrator 19.0.0, SVG Export Plug-In . SVG Version: 6.00 Build 0)  -->
<svg version="1.1" id="Capa_1" xmlns="http://www.w3.org/2000/svg" xmlns:xlink="http://www.w3.org/1999/xlink" x="0px" y="0px"
	 viewBox="66 -221 512 512" style="enable-background:new 66 -221 512 512;" xml:space="preserve">
<style type="text/css">
	.st0{fill:#FFFAFA;}
</style>
<g>
	<g>
		<path d="M518-181h-24v-40h-40v40H190v-40h-40v40h-24c-33.1,0-60,26.9-60,60v352c0,33.1,26.9,60,60,60h392c33.1,0,60-26.9,60-60
			v-352C578-154.1,551.1-181,518-181z M538,231c0,11-9,20-20,20H126c-11,0-20-9-20-20V-33h432V231z M538-73H106v-48c0-11,9-20,20-20
			h24v40h40v-40h264v40h40v-40h24c11,0,20,9,20,20V-73z"/>
	</g>
</g>
<g>
	<g>
		<rect x="142" y="9" width="40" height="40"/>
	</g>
</g>
<g>
	<g>
		<rect x="222" y="9" width="40" height="40"/>
	</g>
</g>
<g>
	<g>
		<rect x="302" y="9" width="40" height="40"/>
	</g>
</g>
<g>
	<g>
		<rect x="382" y="9" width="40" height="40"/>
	</g>
</g>
<g>
	<g>
		<rect x="462" y="9" width="40" height="40"/>
	</g>
</g>
<g>
	<g>
		<rect x="142" y="89" width="40" height="40"/>
	</g>
</g>
<g>
	<g>
		<rect x="222" y="89" width="40" height="40"/>
	</g>
</g>
<g>
	<g>
		<rect x="302" y="89" width="40" height="40"/>
	</g>
</g>
<g>
	<g>
		<rect x="382" y="89" width="40" height="40"/>
	</g>
</g>
<g>
	<g>
		<rect x="142" y="169" width="40" height="40"/>
	</g>
</g>
<g>
	<g>
		<rect x="222" y="169" width="40" height="40"/>
	</g>
</g>
<g>
	<g>
		<rect x="302" y="169" width="40" height="40"/>
	</g>
</g>
<g>
	<g>
		<rect x="382" y="169" width="40" height="40"/>
	</g>
</g>
<g>
	<g>
		<rect x="462" y="89" width="40" height="40"/>
	</g>
</g>
<circle cx="496" cy="208" r="83"/>
<g>
	<g>
		<g>
			<polygon class="st0" points="455.5,232.5 455.5,250.4 473.4,250.4 526.3,197.6 508.3,179.7 			"/>
			<path class="st0" d="M540,177l-11.2-11.2c-1.9-1.9-4.9-1.9-6.7,0l-8.7,8.7l17.9,17.9l8.7-8.7C541.9,181.9,541.9,178.9,540,177z"
				/>
		</g>
	</g>
</g>
</svg>
