<?xml version="1.0" encoding="utf-8"?>
<!-- Generator: Adobe Illustrator 19.0.0, SVG Export Plug-In . SVG Version: 6.00 Build 0)  -->
<svg version="1.1" id="Layer_1" xmlns="http://www.w3.org/2000/svg" xmlns:xlink="http://www.w3.org/1999/xlink" x="0px" y="0px"
	 viewBox="-41 164.9 512 512" style="enable-background:new -41 164.9 512 512;" xml:space="preserve">
<style type="text/css">
	.st0{fill:#797979;}
</style>
<path class="st0" d="M87,420.9c0,35.3-28.7,64-64,64s-64-28.7-64-64s28.7-64,64-64S87,385.5,87,420.9z"/>
<path class="st0" d="M87,228.9c0,35.3-28.7,64-64,64s-64-28.7-64-64s28.7-64,64-64S87,193.5,87,228.9z"/>
<path class="st0" d="M87,612.9c0,35.3-28.7,64-64,64s-64-28.7-64-64s28.7-64,64-64S87,577.5,87,612.9z"/>
</svg>
