<svg xmlns="http://www.w3.org/2000/svg" width="27.409" height="27.409" viewBox="0 0 27.409 27.409">
    <defs>
        <style>
            .cls-3{fill:#505050}
        </style>
    </defs>
    <g id="Group_2411" transform="translate(-1580 -343)">
        <g id="Group_2410" transform="translate(93)">
            <g id="Group_1124" transform="translate(1487 343)">
                <g id="coin">
                    <ellipse id="Ellipse_358" cx="13.704" cy="13.705" fill="#205081" rx="13.704" ry="13.705"/>
                </g>
            </g>
        </g>
        <g id="handshake" transform="translate(1579.955 335.465)">
            <path id="Path_2628" fill="#fff" d="M31.284 16.552l-2.844-2.988a.4.4 0 0 0-.565-.016l-1.141 1.072a2.037 2.037 0 0 1-1.458.54 2.036 2.036 0 0 0-1.22.365l-.85-.273a1.6 1.6 0 0 0-.949 0 1.594 1.594 0 0 1-1.6-.4l-1.03-1.03a.4.4 0 0 0-.567 0l-3.031 3.031a.4.4 0 0 0 0 .567l1.556 1.556a1 1 0 0 1 .292.7 1 1 0 0 0 .292.7l.322.316.355-.33-1.212 1.212a.854.854 0 0 0 1.207 1.207l1.259-1.253-1.238 1.238a.854.854 0 0 0 1.207 1.208l1.241-1.241-1.188 1.188a.854.854 0 0 0 1.208 1.207l1.388-1.388h.006l-1.369 1.369a.854.854 0 0 0 1.208 1.208l.967-.967.963.963a.854.854 0 1 0 1.208-1.208l-.02-.02a.853.853 0 0 0 1.189-1.225l-.45-.45.413.413a.854.854 0 1 0 1.208-1.208l-.758-.757.763.763a.854.854 0 0 0 1.208-1.207l-.138-.138a1.557 1.557 0 0 0 .468-1.063l.04-.836a1.575 1.575 0 0 1 .438-1.017l1.212-1.259a.4.4 0 0 0 .01-.549zm-3.193 3.7l1.033 1.036z" transform="translate(-9.914 1.933)"/>
            <path id="Path_2629" d="M21.642 60.291L18.8 57.3a.77.77 0 0 0-1.083-.03l-1.141 1.072a1.663 1.663 0 0 1-1.2.44 2.423 2.423 0 0 0-1.285.332L13.4 58.9a1.954 1.954 0 0 0-1.167 0 1.224 1.224 0 0 1-1.229-.305l-1.03-1.03a.768.768 0 0 0-1.086 0l-3.027 3.023a.769.769 0 0 0 0 1.087l1.556 1.555a.624.624 0 0 1 .184.444 1.354 1.354 0 0 0 .4.963l.07.068-.607.607a1.221 1.221 0 0 0 .865 2.088h.016a1.217 1.217 0 0 0 1.219 1.182h.044a1.217 1.217 0 0 0 1.217 1.158h.013a1.22 1.22 0 0 0 2.082.836l.706-.706.706.706a1.219 1.219 0 0 0 2.082-.89 1.217 1.217 0 0 0 1.17-1.218v-.027a1.215 1.215 0 0 0 1.172-1.2 1.22 1.22 0 0 0 .953-1.977 1.968 1.968 0 0 0 .342-1.032l.04-.836a1.206 1.206 0 0 1 .336-.78l1.212-1.259a.767.767 0 0 0 .003-1.066zM7.985 66.524a.487.487 0 0 1 0-.688l1.569-1.569a.487.487 0 0 1 .689.689l-1.57 1.568a.487.487 0 0 1-.688 0zm1.235 1.182a.487.487 0 0 1 0-.688l1.569-1.569a.487.487 0 1 1 .689.688l-1.57 1.569a.487.487 0 0 1-.689 0zm1.262 1.155a.487.487 0 0 1 0-.688L12.05 66.6a.487.487 0 1 1 .688.689l-1.569 1.569a.487.487 0 0 1-.688 0zm1.918 1.194a.487.487 0 0 1-.688-.689L13.28 67.8a.486.486 0 0 1 .685 0l.006.007.005.005a.487.487 0 0 1-.008.679zm3.139 0a.487.487 0 0 1-.688 0l-.706-.706.345-.349a1.212 1.212 0 0 0 .272-.415l.74.74.019.017.02.02a.487.487 0 0 1 0 .693zm3.555-3.7a.487.487 0 0 1-.688 0l-1.568-1.565a.368.368 0 1 0-.526.516l1.569 1.569a.487.487 0 1 1-.688.689L15.624 66a.367.367 0 0 0-.519.519l.024.024.011.014 1.569 1.569a.486.486 0 0 1-.679.7l-1.54-1.54a1.213 1.213 0 0 0-.863-.358h-.014a1.216 1.216 0 0 0-1.263-1.198 1.215 1.215 0 0 0-1.233-1.157 1.219 1.219 0 0 0-2.082-.826l-.443.443-.074-.072a.625.625 0 0 1-.183-.443 1.353 1.353 0 0 0-.4-.963L6.38 61.155a.034.034 0 0 1 0-.048l3.031-3.031a.034.034 0 0 1 .048 0l1.03 1.03a1.956 1.956 0 0 0 1.964.488 1.221 1.221 0 0 1 .729 0l.216.069-1.784 1.746a1.254 1.254 0 0 0-.261 1.407 1.378 1.378 0 0 0 .967.742 1.82 1.82 0 0 0 1.31-.325 2.706 2.706 0 0 0 .55-.462 2.885 2.885 0 0 1 .3-.281.908.908 0 0 1 .5-.189 1.774 1.774 0 0 1 .592.142l.06.021a1.874 1.874 0 0 1 .726.462c.071.073.308.312 1.14 1.147a.347.347 0 0 0 .023.028l1.579 1.57a.487.487 0 0 1 0 .689zm2.015-5.516L19.9 62.1a1.941 1.941 0 0 0-.54 1.254l-.04.836a1.269 1.269 0 0 1-.137.524l-2.3-2.305a2.629 2.629 0 0 0-1-.638l-.058-.02a2.369 2.369 0 0 0-.865-.183 1.647 1.647 0 0 0-.912.335 3.471 3.471 0 0 0-.386.353 2.089 2.089 0 0 1-.4.344 1.145 1.145 0 0 1-.794.238.641.641 0 0 1-.447-.334.517.517 0 0 1 .109-.571l1.8-1.765a3.343 3.343 0 0 1 .423-.351 1.682 1.682 0 0 1 1-.3 2.4 2.4 0 0 0 1.72-.639l1.141-1.072a.034.034 0 0 1 .048 0L21.11 60.8a.034.034 0 0 1 0 .044z" class="cls-3" transform="translate(0 -42.058)"/>
            <path id="Path_2630" d="M274.013 188.042a.367.367 0 0 0-.68.275l.005.013a.367.367 0 1 0 .68-.275z" class="cls-3" transform="translate(-258.278 -168.276)"/>
        </g>
    </g>
</svg>
