<?xml version="1.0" encoding="iso-8859-1"?>
<!-- Uploaded to: SVG Repo, www.svgrepo.com, Generator: SVG Repo Mixer Tools -->
<!DOCTYPE svg PUBLIC "-//W3C//DTD SVG 1.1//EN" "http://www.w3.org/Graphics/SVG/1.1/DTD/svg11.dtd">
<svg fill="#000000" version="1.1" id="Capa_1" xmlns="http://www.w3.org/2000/svg" xmlns:xlink="http://www.w3.org/1999/xlink" 
	 width="800px" height="800px" viewBox="0 0 50 50" xml:space="preserve">
<g>
	<g>
		<path d="M25.227,8.013c-0.911,0.533,1.172,1.179,2.161,2.89c0.99,1.713,0.511,3.845,1.421,3.313
			c0.917-0.526,1.246-2.566,0.261-4.284C28.08,8.218,26.147,7.484,25.227,8.013z"/>
		<path d="M30.768,26.398c4.22-2.844,7.13-8.446,7.13-13.495C37.898,5.772,32.126,0,25.002,0c-7.13,0-12.899,5.772-12.899,12.904
			c0,5.048,2.91,10.65,7.136,13.495C9.134,28.962,1.644,37.734,1.644,44.243c0,7.676,46.712,7.676,46.712,0
			C48.356,37.734,40.871,28.962,30.768,26.398z M25.002,25.28c-1.457,0-2.616-1.049-2.908-2.417l5.813-0.011
			C27.623,24.228,26.458,25.28,25.002,25.28z M28.031,22.247c0,0-0.001,0.005-0.001,0.009l-6.052,0.011
			c0-0.007-0.006-0.013-0.006-0.02v-0.374l6.061-0.012v0.386H28.031z M21.917,21.275c-0.242-2.811-3.929-3.451-3.929-8.682
			c0-3.872,3.142-7.009,7.015-7.009c3.875,0,7.011,3.137,7.011,7.009c0,5.222-3.67,5.867-3.933,8.669L21.917,21.275z"/>
	</g>
</g>
</svg>