<?xml version="1.0" encoding="utf-8"?>
<!-- Generator: Adobe Illustrator 19.0.0, SVG Export Plug-In . SVG Version: 6.00 Build 0)  -->
<svg version="1.1" id="Layer_1" xmlns="http://www.w3.org/2000/svg" xmlns:xlink="http://www.w3.org/1999/xlink" x="0px" y="0px"
	 viewBox="-84 207.9 427 427" style="enable-background:new -84 207.9 427 427;" xml:space="preserve">
<style type="text/css">
	.st0{fill:#B74444;}
</style>
<path class="st0" d="M148.4,362.6c-5.5,0-10,4.5-10,10v189c0,5.5,4.5,10,10,10s10-4.5,10-10v-189
	C158.4,367.1,153.9,362.6,148.4,362.6z"/>
<path class="st0" d="M30.4,362.6c-5.5,0-10,4.5-10,10v189c0,5.5,4.5,10,10,10s10-4.5,10-10v-189C40.4,367.1,35.9,362.6,30.4,362.6z"
	/>
<path class="st0" d="M-55.6,335v246.4c0,14.6,5.3,28.2,14.7,38.1c9.3,9.8,22.2,15.4,35.7,15.4H184c13.5,0,26.4-5.6,35.7-15.4
	c9.3-9.8,14.7-23.5,14.7-38.1V335c18.5-4.9,30.6-22.8,28.1-41.9c-2.5-19-18.7-33.3-37.9-33.3h-51.2v-12.5c0.1-10.5-4.1-20.6-11.5-28
	c-7.4-7.4-17.6-11.6-28.1-11.5H45c-10.5-0.1-20.6,4-28.1,11.5c-7.4,7.4-11.6,17.5-11.5,28v12.5h-51.2c-19.2,0-35.4,14.2-37.9,33.3
	C-86.2,312.2-74.1,330.1-55.6,335z M184,614.9H-5.2c-17.1,0-30.4-14.7-30.4-33.5V335.9h250v245.5C214.4,600.2,201.1,614.9,184,614.9
	z M25.4,247.4c-0.1-5.2,2-10.2,5.7-13.9c3.7-3.7,8.7-5.7,13.9-5.6h88.8c5.2-0.1,10.2,1.9,13.9,5.6c3.7,3.7,5.7,8.7,5.7,13.9v12.5
	h-128V247.4z M-45.8,279.9h270.4c9.9,0,18,8.1,18,18s-8.1,18-18,18H-45.8c-9.9,0-18-8.1-18-18S-55.7,279.9-45.8,279.9z"/>
<path class="st0" d="M89.4,362.6c-5.5,0-10,4.5-10,10v189c0,5.5,4.5,10,10,10s10-4.5,10-10v-189C99.4,367.1,94.9,362.6,89.4,362.6z"
	/>
</svg>
