<svg xmlns="http://www.w3.org/2000/svg" width="20" height="21" viewBox="0 0 20 21">
    <defs>
        <clipPath id="clip-path">
            <path id="Rectangle_1008" fill="#fff" d="M0 0H20V21H0z" transform="translate(.192 -.001)"/>
        </clipPath>
        <style>
            .cls-4{fill:#fff;stroke:#fff;stroke-width:.5px}
        </style>
    </defs>
    <g id="Mask_Group_225" clip-path="url(#clip-path)" transform="translate(-.192 .001)">
        <g id="files-copy-interface-symbol" transform="translate(-3.867 2.065)">
            <g id="_x33__31_">
                <g id="Group_1211">
                    <path id="Path_908" fill="#8697ba" d="M15.531.021L7.227 0A2.883 2.883 0 0 0 4.46 2.768l-.8.019A2.771 2.771 0 0 0 1 5.536v13.838a2.883 2.883 0 0 0 2.768 2.768h10.379a2.883 2.883 0 0 0 2.768-2.768h.692a2.883 2.883 0 0 0 2.768-2.768V5.552zm-1.384 20.737H3.768a1.451 1.451 0 0 1-1.384-1.384V5.536c0-1.03.847-1.384 2.076-1.384v12.455a2.883 2.883 0 0 0 2.768 2.768l8.31-.008a1.309 1.309 0 0 1-1.391 1.391zm1.384-6.22H9.3a.692.692 0 0 1-.692-.691c0-.382-.525 1.5-.143 1.5l7.755-.419c.382 0 0-1.459 0-1.077a.692.692 0 0 1-.689.687zm0-3.456H9.3a.692.692 0 0 1-.692-.691c0-.382-1.033 1.393-.651 1.393l8.525.179c.382 0-.263-1.954-.263-1.572a.692.692 0 0 1-.688.691zm1.384-5.547a1.433 1.433 0 0 1-1.384-1.384V1.405l3.46 4.132z" transform="translate(-1)"/>
                </g>
                <g id="renew_1_" transform="translate(7.269 7.672)">
                    <path id="Path_909" d="M19.849 2.026a.343.343 0 0 0-.374.075L18.1 3.475a.343.343 0 0 0 .243.586h1.374a.343.343 0 0 0 .344-.344V2.343a.344.344 0 0 0-.212-.317z" class="cls-4" transform="translate(-11.816 -1.313)"/>
                    <path id="Path_910" d="M1.718 16H.344a.343.343 0 0 0-.344.344v1.374a.344.344 0 0 0 .586.243l1.374-1.374A.343.343 0 0 0 1.718 16z" class="cls-4" transform="translate(0 -10.503)"/>
                    <path id="Path_911" d="M.344 3.972a.328.328 0 0 1-.045 0A.343.343 0 0 1 0 3.584 4.149 4.149 0 0 1 4.127 0a4.5 4.5 0 0 1 3.34 1.5.343.343 0 1 1-.516.453A3.8 3.8 0 0 0 4.127.687 3.461 3.461 0 0 0 .684 3.672a.343.343 0 0 1-.34.3z" class="cls-4"/>
                    <path id="Path_912" d="M5.449 16.41a4.515 4.515 0 0 1-3.343-1.5.344.344 0 0 1 .515-.455 3.818 3.818 0 0 0 2.828 1.265 3.462 3.462 0 0 0 3.442-2.985.343.343 0 1 1 .681.089 4.149 4.149 0 0 1-4.123 3.586z" class="cls-4" transform="translate(-1.326 -8.165)"/>
                </g>
            </g>
        </g>
    </g>
</svg>
