<?xml version="1.0" encoding="utf-8"?>
<!-- Generator: Adobe Illustrator 17.0.0, SVG Export Plug-In . SVG Version: 6.00 Build 0)  -->
<!DOCTYPE svg PUBLIC "-//W3C//DTD SVG 1.1//EN" "http://www.w3.org/Graphics/SVG/1.1/DTD/svg11.dtd">
<svg version="1.1" id="Layer_1" xmlns="http://www.w3.org/2000/svg" xmlns:xlink="http://www.w3.org/1999/xlink" x="0px" y="0px"
	 width="512px" height="512px" viewBox="0 0 512 512" enable-background="new 0 0 512 512" xml:space="preserve">
<g>
	<path fill="#272525" d="M481.122,269.324c-8.226-0.984-15.691,4.891-16.672,13.117
		c-12.324,103.288-100.292,181.181-204.618,181.181c-49.476,0-97.311-17.769-134.69-50.038
		c-30.957-26.718-53.14-61.898-63.933-100.78l17.918,9.844c7.262,3.984,16.383,1.336,20.367-5.926
		c3.988-7.262,1.336-16.383-5.926-20.367L47.542,271.07c-7.258-3.984-16.367-1.34-20.363,5.91L1.863,322.952
		c-3.996,7.258-1.352,16.379,5.902,20.375c6.703,3.441,15.793,1.625,20.375-5.902l5.891-10.691
		c12.922,42.21,37.628,80.315,71.507,109.561c42.828,36.968,97.62,57.327,154.295,57.327c119.51,0,220.282-89.26,234.407-207.626
		C495.22,277.769,489.349,270.305,481.122,269.324z"/>
	<path fill="#272525" d="M502.927,150.095c-7.601-3.277-16.429,0.227-19.711,7.836l-4.715,10.926
		c-15.929-38.867-42.374-73.436-76.05-98.971c-41.308-31.324-90.624-47.878-142.619-47.878c-54.472,0-107.624,18.972-149.658,53.425
		c-41.456,33.98-70.347,81.401-81.347,133.525c-1.711,8.105,3.477,16.062,11.582,17.773c1.043,0.223,2.082,0.324,3.109,0.324
		c6.941,0,13.172-4.844,14.66-11.902c9.598-45.472,34.816-86.85,71.011-116.518c36.687-30.07,83.085-46.632,130.643-46.632
		c45.394,0,88.444,14.449,124.49,41.785c30.996,23.504,54.96,55.753,68.562,91.909l-18.996-8.172
		c-7.609-3.269-16.433,0.242-19.707,7.851c-3.273,7.609,0.242,16.433,7.851,19.707l48.249,20.75
		c1.934,0.832,3.941,1.227,5.922,1.227c5.809,0,11.332-3.394,13.781-9.062l20.777-48.187
		C514.044,162.201,510.536,153.376,502.927,150.095z"/>
	<path fill="#272525" d="M207.267,180.067l-44.355,72.241c-0.871,1.758-2.641,2.781-4.48,2.781c-0.746,0-1.504-0.168-2.215-0.523
		c-2.578-1.277-5.312-1.883-8.008-1.883c-6.652,0-13.047,3.687-16.203,10.051l-2.668,5.383c-4.43,8.941-0.77,19.781,8.168,24.211
		l164.591,81.554c2.578,1.277,5.312,1.883,8.008,1.883c6.652,0,13.047-3.687,16.203-10.051l2.668-5.383
		c4.43-8.941,0.77-19.781-8.168-24.211c-2.473-1.227-3.484-4.223-2.262-6.695l30.613-79.05c14.851-38.347-1.996-81.69-38.839-99.948
		c-11.308-5.601-23.359-8.277-35.25-8.277C248.219,142.15,222.181,155.779,207.267,180.067z"/>
	<path fill="#272525" d="M237.38,396.174c11.695,5.227,22.613,0.199,28.382-6.816l-40.156-19.894
		C222.606,379.846,227.352,391.205,237.38,396.174z"/>
	<path fill="#272525" d="M341.749,134.857c0.16-0.289,0.324-0.578,0.473-0.875c5.219-10.535,0.91-23.304-9.621-28.523
		c-12.398-4.523-23.605-1.473-28.523,9.621c-0.148,0.305-0.266,0.613-0.398,0.918c6.875,1.863,13.574,4.387,19.957,7.551
		C330.085,126.744,336.136,130.545,341.749,134.857z"/>
</g>
</svg>
