<svg xmlns="http://www.w3.org/2000/svg" width="27.409" height="27.409" viewBox="0 0 27.409 27.409">
    <g>
        <g>
            <g>
                <g transform="translate(-1407 -343) translate(6.75) translate(1400.25 343)">
                    <ellipse cx="13.704" cy="13.705" fill="#2f80bb" rx="13.704" ry="13.705"/>
                </g>
            </g>
        </g>
        <g>
            <path fill="#fff" d="M8.994 2.855H4.079v-.826h4.915zm1.93-.826H9.7v.826h1.22zM4.079 4.438h6.845v-.826H4.079zm3.265.762v.826h3.579V5.2zm-.692 0H4.079v.826h2.572l.001-.826zM4.079 7.6h6.845v-.822H4.079zm3.876.757H4.079v.826h3.876v-.822zm.675 0v.826h2.292v-.822zm-4.552 2.41h6.845v-.822H4.079zM12.9 1.518V11.3a1.435 1.435 0 0 1-1.329 1.518H3.445A1.435 1.435 0 0 1 2.116 11.3V1.518A1.435 1.435 0 0 1 3.445 0h8.128A1.435 1.435 0 0 1 12.9 1.518zm-.791 0c0-.393-.246-.726-.537-.726H3.445c-.291 0-.537.333-.537.726V11.3c0 .393.246.726.537.726h8.128c.291 0 .537-.333.537-.726V1.518z" transform="translate(-1407 -343) translate(1412.884 350)"/>
        </g>
    </g>
</svg>
