<svg xmlns="http://www.w3.org/2000/svg" width="27.359" height="27.36" viewBox="0 0 27.359 27.36">
    <defs>
        <style>
            .cls-2{fill:#8091b8}
        </style>
    </defs>
    <g id="Group_1130">
        <g id="coin">
            <circle id="Ellipse_358" cx="13.68" cy="13.68" r="13.68" fill="#f5f5f5"/>
        </g>
        <g id="trash_1_" transform="translate(7.222 6.018)">
            <path id="Path_499" d="M126.346.882h2.441v.411h.882V.824a.825.825 0 0 0-.823-.824h-2.557a.825.825 0 0 0-.824.824v.468h.882zm0 0" class="cls-2" transform="translate(-121.549)"/>
            <path id="Path_500" d="M49.8 167.75h-8.892a.4.4 0 0 0-.416.42l.743 8.556a.962.962 0 0 0 .984.845h6.269a.962.962 0 0 0 .984-.846l.743-8.556a.4.4 0 0 0-.416-.42zm-6.739 8.908h-.03a.461.461 0 0 1-.472-.414l-.466-7.024a.453.453 0 0 1 .444-.467.464.464 0 0 1 .5.413l.466 7.024a.453.453 0 0 1-.442.468zm2.772-.44a.475.475 0 0 1-.947 0v-7.024a.475.475 0 0 1 .947 0zm2.782-7l-.445 7.024a.46.46 0 0 1-.472.415h-.028a.453.453 0 0 1-.445-.466l.445-7.024a.462.462 0 0 1 .5-.414.454.454 0 0 1 .444.467zm0 0" class="cls-2" transform="translate(-39.335 -162.964)"/>
            <path id="Path_501" d="M12.017 77.462l-.307-.868a.592.592 0 0 0-.563-.383H.89a.592.592 0 0 0-.563.383l-.307.868a.354.354 0 0 0 .161.423.4.4 0 0 0 .2.055h11.27a.4.4 0 0 0 .2-.056.354.354 0 0 0 .161-.423zm0 0" class="cls-2" transform="translate(0 -74.037)"/>
        </g>
    </g>
</svg>
