<?xml version="1.0" encoding="utf-8"?>
<!-- Generator: Adobe Illustrator 17.0.0, SVG Export Plug-In . SVG Version: 6.00 Build 0)  -->
<!DOCTYPE svg PUBLIC "-//W3C//DTD SVG 1.1//EN" "http://www.w3.org/Graphics/SVG/1.1/DTD/svg11.dtd">
<svg version="1.1" id="Capa_1" xmlns="http://www.w3.org/2000/svg" xmlns:xlink="http://www.w3.org/1999/xlink" x="0px" y="0px"
	 width="512px" height="512px" viewBox="0 0 512 512" enable-background="new 0 0 512 512" xml:space="preserve">
<g>
	<path fill="#F78C00" d="M30,256C30,131.383,131.383,30,256,30c46.867,0,91.563,14.211,129.196,40.587h-29.074
		c-8.284,0-15,6.716-15,15s6.716,15,15,15h70.292c8.284,0,15-6.716,15-15V15.295c0-8.284-6.716-15-15-15s-15,6.716-15,15v37.339
		C366.987,18.499,312.91,0,256,0C187.62,0,123.333,26.629,74.98,74.98C26.629,123.333,0,187.62,0,256
		c0,44.921,11.871,89.182,34.33,127.998c2.78,4.806,7.818,7.49,12.997,7.49c2.55,0,5.134-0.651,7.499-2.019
		c7.17-4.149,9.619-13.325,5.471-20.496C40.477,334.718,30,295.652,30,256L30,256z"/>
	<path fill="#F78C00" d="M477.67,128.002c-4.15-7.171-13.328-9.619-20.496-5.47c-7.17,4.149-9.619,13.325-5.471,20.496
		C471.523,177.281,482,216.346,482,256c0,124.617-101.383,226-226,226c-46.863,0-91.551-14.215-129.18-40.587h29.058
		c8.284,0,15-6.716,15-15s-6.716-15-15-15H85.587c-8.284,0-15,6.716-15,15v70.292c0,8.284,6.716,15,15,15s15-6.716,15-15v-37.376
		C145.013,493.475,199.083,512,256,512c68.38,0,132.667-26.629,181.02-74.98C485.371,388.667,512,324.38,512,256
		C512,211.077,500.129,166.816,477.67,128.002L477.67,128.002z"/>
	<path fill="#F78C00" d="M384.413,217.203c1.03-3.843,0.491-7.937-1.499-11.382l-20-34.641c-4.142-7.174-13.315-9.632-20.49-5.49
		l-13.602,7.853c-11.053-9.795-23.856-17.194-37.821-21.856V136c0-8.284-6.716-15-15-15h-40c-8.284,0-15,6.716-15,15v15.686
		c-13.965,4.662-26.769,12.061-37.822,21.856l-13.601-7.853c-7.174-4.144-16.349-1.685-20.49,5.49l-20,34.641
		c-4.142,7.174-1.684,16.348,5.49,20.49l13.598,7.851c-1.446,7.163-2.176,14.47-2.176,21.838s0.729,14.676,2.176,21.838
		l-13.598,7.851c-7.174,4.142-9.632,13.316-5.49,20.49l20,34.641c4.142,7.175,13.315,9.633,20.49,5.49l13.601-7.853
		c11.053,9.796,23.856,17.194,37.822,21.856V376c0,8.284,6.716,15,15,15h40c8.284,0,15-6.716,15-15v-15.686
		c13.965-4.662,26.768-12.061,37.821-21.856l13.602,7.853c7.174,4.142,16.348,1.683,20.49-5.49l20-34.641
		c1.989-3.445,2.528-7.54,1.499-11.382c-1.029-3.843-3.543-7.119-6.989-9.108l-13.599-7.852C365.271,270.676,366,263.369,366,256
		s-0.729-14.676-2.175-21.838l13.599-7.852C380.869,224.322,383.384,221.045,384.413,217.203L384.413,217.203z M256,296
		c-22.091,0-40-17.909-40-40s17.909-40,40-40s40,17.909,40,40S278.091,296,256,296z"/>
</g>
</svg>
